<svg width="240" height="100" viewBox="0 0 240 100" fill="none" xmlns="http://www.w3.org/2000/svg">
<path d="M158.3 50.9998L166.8 41.7998H162.7L154.2 50.9998L163.7 62.2998H167.7L158.3 50.9998Z" fill="white"/>
<path d="M208.8 39.2L208.1 40.9L207.5 39.2H206.7V41.7H207.3V40L207.9 41.7H208.4L209 40V41.7H209.6V39.2H208.8Z" fill="white"/>
<path d="M204.3 39.7H205V41.7H205.7V39.7H206.4V39.2H204.3V39.7Z" fill="white"/>
<path d="M122 54.1999C122 57.0999 119.7 59.3999 116.8 59.3999C113.9 59.3999 111.6 57.0999 111.6 54.1999V41.8999H108.3V54.1999C108.3 58.8999 112.1 62.5999 116.7 62.5999C121.4 62.5999 125.1 58.7999 125.1 54.1999V41.8999H122V54.1999Z" fill="white"/>
<path d="M138.5 44.9998C140.8 44.9998 142.9 46.0998 144.3 47.9998L147.4 46.6998C145.5 43.5998 142.2 41.7998 138.5 41.7998H138.4C138.3 41.7998 138.2 41.7998 138.1 41.7998H138C132.5 42.1998 128.2 46.6998 128.2 52.1998C128.2 57.6998 132.5 62.2998 138 62.5998H138.1H138.3H138.4H138.5C142.1 62.5998 145.4 60.6998 147.4 57.6998L144.3 56.3998C142.9 58.2998 140.8 59.3998 138.5 59.3998C138.4 59.3998 138.4 59.3998 138.3 59.3998H138.2C134.4 59.0998 131.5 55.9998 131.5 52.1998C131.5 48.2998 134.6 45.0998 138.5 44.9998Z" fill="white"/>
<path d="M154.1 41.7998H150.8V62.2998H154.1V41.7998Z" fill="white"/>
<path d="M183.7 54.1998C183.7 57.0998 181.4 59.3998 178.5 59.3998C175.6 59.3998 173.3 57.0998 173.3 54.1998V41.7998H170V54.1998C170 58.8998 173.8 62.5998 178.4 62.5998C183.1 62.5998 186.8 58.7998 186.8 54.1998V41.7998H183.5L183.7 54.1998Z" fill="white"/>
<path d="M104.5 47.6998C104.5 43.8998 101.4 41.7998 97.6001 41.7998H88.1001V46.8998V47.6998V62.2998H91.4001V55.0998V50.8998V47.6998V46.8998V44.7998H97.6001C99.9001 44.7998 101.7 45.6998 101.7 47.6998C101.7 49.9998 100 50.8998 97.6001 50.8998H91.4001L94.2001 54.4998L100.5 62.2998H104.9L98.0001 54.1998C102 54.1998 104.5 51.4998 104.5 47.6998Z" fill="white"/>
<path d="M198.3 50.6C196.7 50.1 195.6 49.7 194.9 49.1C194.2 48.6 193.9 47.9 193.9 47.1C193.9 46.2 194.2 45.5 194.8 45C195.4 44.5 196.3 44.2 197.5 44.2C198.7 44.2 199.7 44.5 200.4 45.2C201.1 45.8 201.5 46.7 201.5 47.8H204.8V47.7C204.8 46 204.2 44.5 202.9 43.3C201.6 42.1 199.8 41.5 197.6 41.5C195.5 41.5 193.8 42 192.5 43.1C191.2 44.2 190.5 45.5 190.5 47.2C190.5 48.8 191.1 50.1 192.3 51.1C193.5 52.1 195.2 52.9 197.4 53.5C198.9 53.9 200 54.4 200.6 55C201.2 55.5 201.5 56.2 201.5 57.1C201.5 58 201.2 58.7 200.5 59.2C199.8 59.7 198.9 60 197.7 60C196.5 60 195.4 59.7 194.6 59.1C193.7 58.5 193.3 57.5 193.3 56.3H190V56.4C190 58.4 190.7 60 192.3 61.1C193.9 62.2 195.7 62.8 197.8 62.8C200 62.8 201.7 62.3 203.1 61.3C204.4 60.3 205.1 58.9 205.1 57.2C205.1 55.6 204.5 54.3 203.4 53.2C202.1 52 200.5 51.2 198.3 50.6Z" fill="white"/>
<path d="M96.2 28.8L97.3 28.2C97.8 27.9 97.9 27.3 97.6 26.9C97.3 26.5 96.8 26.3 96.3 26.6L95.2 27.3C95.2 27.3 95.2 27.3 95.1 27.3L87 33L96.2 28.8Z" fill="white"/>
<path d="M97.2001 31.6L87.6001 34.5L97.6001 33.5H97.7001L98.9001 33.2C99.4001 33.1 99.8001 32.6 99.6001 32.1C99.5001 31.6 99.0001 31.3 98.5001 31.4L97.2001 31.6Z" fill="white"/>
<path d="M98.7 36.4999L97.4 36.2999H97.3L87.3 35.8999L97.1 38.1999H97.2L98.4 38.3999C98.9 38.4999 99.4 38.0999 99.5 37.5999C99.6 36.9999 99.3 36.4999 98.7 36.4999Z" fill="white"/>
<path d="M82.0999 30.5999C82.0999 30.5999 84.6999 29.3999 87.1999 27.9999C89.7999 26.5999 88.1999 24.6999 87.4999 24.4999C86.6999 24.2999 83.4 24.8999 83.4 24.8999C83.4 24.8999 80 25.4999 77.3 25.5999C74.7 25.6999 73.8 23.6999 73.8 23.6999C73.8 23.6999 72.5999 21.4999 72.0999 20.3999C71.5999 19.2999 71.2999 19.0999 70.4999 19.4999C69.7999 19.7999 70.9 22.2999 70.9 22.2999C70.9 22.2999 71.5 23.7999 71.8 24.4999C72.1 25.1999 72.1999 25.6999 71.4999 25.9999C70.8999 26.2999 70.4 25.0999 70.4 25.0999L69.4 22.9999C69.4 22.9999 68.7999 21.8999 68.5999 21.6999C68.0999 20.9999 64.9999 22.3999 64.6999 23.1999C64.4999 23.6999 65.1999 25.5999 66.8999 24.0999C67.0999 23.8999 67.0999 24.1999 67.1999 24.3999C67.4999 24.9999 67.6999 25.5999 67.8999 25.9999C67.9999 26.2999 67.7 27.1999 68.3 28.8999C68.1 29.2999 67.3999 29.5999 66.9999 29.8999C66.6999 30.1999 66.3 30.4999 65.8 30.7999L65.0999 31.1999C65.0999 31.1999 64.9999 31.1999 64.9999 31.2999C64.4999 31.8999 65.6999 33.9999 67.8999 36.0999C69.6999 37.7999 71.5 38.9999 72.4 39.0999C72.6 39.0999 72.7 39.0999 72.8 38.9999C72.8 38.9999 72.8 38.8999 72.9 38.8999V38.7999V38.6999C72.9 38.5999 72.8999 38.5999 72.9999 38.4999C73.0999 38.2999 73.2 38.0999 73.3 37.8999C73.5 37.5999 74.5999 36.5999 75.5999 36.9999C78.1999 37.8999 81.9999 41.1999 82.4999 41.2999C83.1999 41.3999 84 41.0999 84.3 40.3999C84.6 39.7999 84.0999 39.0999 83.9999 38.8999C83.7999 38.4999 83.0999 37.6999 83.0999 37.6999L81.3 35.5999C81.3 35.5999 79.4999 33.7999 79.4999 32.7999C79.4999 31.9999 82.0999 30.5999 82.0999 30.5999Z" fill="white"/>
<path d="M66.8 37.3C66.7 37.2 66.6 37.1 66.5 37C66.3 36.7 66 36.5 65.7 36.2C65.6 36.1 65.6 36.1 65.5 36C65.4 35.9 65.4 35.9 65.3 35.8C64.3 34.6 63.4 33.3 63.2 32.1C62.5 32.4 59.8 33 59 33.3C58 33.6 56.5 33.9 55.2 34C53.7 34.1 50.8 33.8 49.2 33.6C48.3 33.5 47.3 33.5 46.2 33.7C44.4 34 42 35.3 41.7 35.4C40.6 35.8 38 36.8 35.1 35.5C30.9 34 31.5 28.8 31.1 29C30.7 29.2 30 31.9 30.8 34.1C31.1 34.9 31.6 35.6 32.2 36.2C32.7 36.7 33.6 37.4 34.7 37.8C35.2 38 35.7 38.1 36.1 38.2C36.4 38.3 37.3 38.6 37.9 39.2C38.4 39.7 38.8 40.3 38.7 40.6C37.1 45.2 38.1 48.6 38.1 48.9C38.2 52.3 35.9 73.2 36 73.4C36 73.5 35.9 73.7 36 73.9C36.1 74.2 36.5 74.5 36.6 74.7C36.9 75.1 37 75.6 37.4 75.7C39.2 75.9 40.1 75.7 40 74.4C40 74.2 39.8 73.8 39.5 73.6C39.2 73.4 38.6 73.4 38.4 73C37.9 72.5 38 71.6 38.1 71.2C38.4 69.2 38.9 65.7 39.3 63.4C39.5 62.1 40.4 59.7 40.7 59.1C42.7 55.3 43.8 52.4 44.4 50.6C44.6 50.1 45.3 50.3 45.3 50.8C45.3 51.4 44.8 52.4 44.8 52.5C44.7 52.7 44.6 52.8 44.6 53C44.7 55.2 45.4 64.6 45.3 66.4C45.2 68.7 45.2 70.2 45.1 71C45.1 71.3 45.6 72 46 72.3C46.4 72.6 46.5 73.1 46.7 73.1C46.9 73.1 47.7 73.2 48.3 73.1C48.9 73 49.4 72.9 49.5 72.7C49.5 72.6 49.4 71.7 49.1 71.5C48.7 71.1 48.1 70.8 47.8 70.7C47.1 70.4 47.2 66.7 47.2 66.7L48.6 56.4C48.6 56.4 51.7 49.9 53.6 49C57.1 48.2 60.1 48.7 60.1 48.7C60.1 48.7 63.6 49.7 64.6 53.7C65.4 57.4 66.6 68.7 66.9 72.5C67 73.2 67.1 73.8 67.2 73.8C67.4 73.9 68 74.2 68.1 74.6C68.2 75 68.3 75.6 68.8 75.8C69.1 75.8 69.7 75.9 70.4 75.9C70.9 75.9 71.4 75.9 71.6 75.7C71.7 75.6 71.6 74.7 71.6 74.7C71.6 74.6 71.6 74.5 71.5 74.4C71.4 74.1 71.1 73.8 70.7 73.7C70.4 73.6 70 73.5 69.7 73.4C69.6 73.4 69.4 73.1 69.3 73C68.5 71.6 68.3 69.6 68.2 68.7C67.5 64.6 69.1 50.9 69.2 50C69.2 50 69.5 49.7 69.9 49.2C69.9 49.1 70 49 70 49C70.2 50.1 70 51.8 70.3 53.6C70.5 55.1 70.8 56.7 71.1 58.3C71.7 62 72.6 71.4 73.3 72C73.3 72 73.8 72.1 73.8 72.2C73.9 72.5 73.8 73.2 74 73.3C75.2 73.6 76.5 73.6 77 73.1C77.2 72.9 77.1 72.3 77.1 72C77.1 71.9 77.1 71.6 76.7 71.3C76.4 71.1 75.8 71.2 75.5 70.9C75.3 70.7 75.3 70.5 75.2 70.2C74.3 67.8 74.2 63.1 74 60.7C73.8 58.3 73.6 55.5 73.7 52.8C73.8 49.9 74.2 47.5 73.7 45.5C73.1 42.6 72.3 41.2 72.3 41.2C72.3 41.2 72.3 41.2 72.3 41.1H72.2C70.4 40.7 67.8 38.3 66.8 37.3Z" fill="white"/>
<path d="M73.0001 38.5999C73.0001 38.6999 73.0001 38.6999 73.0001 38.5999C73.0001 38.6999 73.0001 38.7999 72.9001 38.7999C72.9001 38.7999 72.9001 38.8999 72.8001 38.8999C72.7001 38.9999 72.6001 38.9999 72.4001 38.9999C71.5001 38.9999 69.7001 37.7999 67.9001 35.9999C65.8001 33.8999 64.5001 31.7999 65.0001 31.1999C65.0001 31.1999 65.1001 31.1999 65.1001 31.0999L65.8001 30.6999C65.5001 30.4999 65.2001 30.3999 65.0001 30.4999C64.9001 30.4999 63.9001 30.9999 63.6001 31.1999C63.3001 31.4999 63.1001 31.6999 63.1001 31.8999C63.3001 33.0999 64.2001 34.4999 65.2001 35.5999C65.3001 35.6999 65.3001 35.6999 65.4001 35.7999C65.5001 35.8999 65.5001 35.8999 65.6001 35.9999C65.9001 36.2999 66.1001 36.5999 66.4001 36.7999C66.5001 36.8999 66.6001 36.9999 66.7001 37.0999C67.7001 38.0999 70.3001 40.4999 72.3001 40.4999C72.4001 40.4999 72.4001 40.4999 72.4001 40.4999H72.5001H72.6001C72.9001 40.3999 72.9001 40.1999 72.9001 40.1999C72.9001 40.1999 73.2001 38.9999 73.2001 38.6999C73.2001 38.4999 73.1001 38.3999 73.0001 38.1999C73.0001 38.4999 73.0001 38.5999 73.0001 38.5999Z" fill="white"/>
<path d="M91.1 74.3L90.9 73.6C90.7 73.9 90.4 74.1 90.1 74.2C89.8 74.3 89.5 74.4 89.1 74.4C88.6 74.4 88.2 74.3 87.9 74C87.6 73.7 87.5 73.3 87.5 72.8C87.5 72.3 87.7 71.9 88.1 71.6C88.5 71.3 89.1 71.2 89.9 71.2H90.8V70.9C90.8 70.6 90.7 70.3 90.6 70.2C90.4 70 90.2 70 89.9 70C89.6 70 89.4 70 89.1 70.1C88.9 70.2 88.6 70.3 88.4 70.4L88 69.6C88.3 69.5 88.6 69.3 88.9 69.3C89.2 69.2 89.5 69.2 89.8 69.2C90.5 69.2 91 69.3 91.3 69.6C91.6 69.9 91.8 70.3 91.8 70.9V74.4H91.1V74.3ZM89.5 73.6C89.9 73.6 90.2 73.5 90.5 73.3C90.7 73.1 90.9 72.8 90.9 72.4V72H90.2C89.7 72 89.3 72.1 89.1 72.3C88.9 72.5 88.7 72.7 88.7 73C88.7 73.2 88.8 73.4 88.9 73.5C89 73.5 89.2 73.6 89.5 73.6Z" fill="white"/>
<path d="M100.1 74.3H99.0001V71.1C99.0001 70.7 98.9001 70.4 98.8001 70.2C98.6001 70 98.4001 69.9 98.0001 69.9C97.5001 69.9 97.2001 70 97.0001 70.3C96.8001 70.6 96.7001 71 96.7001 71.7V74.3H95.6001V69.1H96.5001L96.7001 69.8H96.8001C97.0001 69.6 97.2001 69.4 97.5001 69.2C97.8001 69.1 98.1001 69 98.5001 69C99.7001 69 100.4 69.6 100.4 70.9V74.3H100.1Z" fill="white"/>
<path d="M112.6 74.3L111.9 72.4H109.3L108.6 74.3H107.4L109.9 67.5H111.1L113.6 74.3H112.6ZM111.7 71.4L111.1 69.5C111.1 69.4 111 69.2 110.9 68.9C110.8 68.6 110.8 68.4 110.7 68.3C110.6 68.7 110.5 69.1 110.3 69.6L109.7 71.4H111.7Z" fill="white"/>
<path d="M117.9 71.6V74.3H116.8V67.5H118.7C119.6 67.5 120.2 67.7 120.7 68C121.1 68.3 121.3 68.8 121.3 69.5C121.3 70.3 120.9 71 120 71.3L121.9 74.3H120.6L119 71.6H117.9ZM117.9 70.7H118.7C119.2 70.7 119.6 70.6 119.8 70.4C120 70.2 120.1 69.9 120.1 69.5C120.1 69.1 120 68.8 119.7 68.7C119.4 68.5 119.1 68.4 118.6 68.4H117.9V70.7Z" fill="white"/>
<path d="M126.1 71.6V74.3H125V67.5H126.9C127.8 67.5 128.4 67.7 128.9 68C129.3 68.3 129.5 68.8 129.5 69.5C129.5 70.3 129.1 71 128.2 71.3L130.1 74.3H128.8L127.2 71.6H126.1ZM126.1 70.7H126.9C127.4 70.7 127.8 70.6 128 70.4C128.2 70.2 128.3 69.9 128.3 69.5C128.3 69.1 128.2 68.8 127.9 68.7C127.6 68.5 127.3 68.4 126.8 68.4H126.1V70.7Z" fill="white"/>
<path d="M134.3 67.5H133.2V74.3H134.3V67.5Z" fill="white"/>
<path d="M142.2 72.3998C142.2 72.9998 142 73.4998 141.5 73.7998C141.1 74.0998 140.5 74.2998 139.7 74.2998C138.9 74.2998 138.3 74.1998 137.8 73.8998V72.9998C138.1 73.0998 138.4 73.2998 138.8 73.2998C139.1 73.3998 139.5 73.3998 139.8 73.3998C140.2 73.3998 140.6 73.2998 140.8 73.0998C141 72.8998 141.1 72.6998 141.1 72.3998C141.1 72.0998 141 71.8998 140.8 71.7998C140.6 71.5998 140.2 71.3998 139.6 71.1998C139 70.8998 138.5 70.6998 138.3 70.2998C138 69.9998 137.9 69.5998 137.9 69.0998C137.9 68.4998 138.1 68.0998 138.5 67.7998C138.9 67.4998 139.4 67.2998 140.1 67.2998C140.8 67.2998 141.4 67.3998 142 67.6998L141.6 68.5998C141 68.2998 140.5 68.1998 140 68.1998C139.6 68.1998 139.4 68.2998 139.2 68.3998C139 68.5998 138.9 68.7998 138.9 68.9998C138.9 69.1998 138.9 69.2998 139 69.4998C139.1 69.5998 139.2 69.6998 139.4 69.8998C139.6 69.9998 139.9 70.1998 140.3 70.2998C140.8 70.4998 141.2 70.6998 141.4 70.8998C141.6 71.0998 141.8 71.2998 141.9 71.4998C142.1 71.8998 142.2 72.0998 142.2 72.3998Z" fill="white"/>
<path d="M152.1 74.4C151.3 74.4 150.7 74.2 150.3 73.7C149.9 73.2 149.7 72.6 149.7 71.7C149.7 70.8 149.9 70.2 150.3 69.7C150.7 69.2 151.3 69 152.1 69C152.6 69 153.1 69.1 153.6 69.3L153.3 70.2C152.8 70 152.5 69.9 152.2 69.9C151.3 69.9 150.9 70.5 150.9 71.7C150.9 72.3 151 72.7 151.2 73C151.4 73.3 151.7 73.4 152.2 73.4C152.7 73.4 153.1 73.3 153.6 73V74C153.4 74.1 153.2 74.2 153 74.2C152.7 74.4 152.5 74.4 152.1 74.4Z" fill="white"/>
<path d="M161.5 71.6999C161.5 72.4999 161.3 73.1999 160.9 73.6999C160.5 74.1999 159.9 74.3999 159.1 74.3999C158.6 74.3999 158.2 74.2999 157.8 74.0999C157.4 73.8999 157.1 73.5999 156.9 73.1999C156.7 72.7999 156.6 72.2999 156.6 71.7999C156.6 70.9999 156.8 70.2999 157.2 69.7999C157.6 69.2999 158.2 69.0999 159 69.0999C159.7 69.0999 160.3 69.2999 160.8 69.7999C161.2 70.2999 161.5 70.8999 161.5 71.6999ZM157.7 71.6999C157.7 72.8999 158.1 73.4999 159 73.4999C159.9 73.4999 160.3 72.8999 160.3 71.6999C160.3 70.4999 159.9 69.8999 159 69.8999C158.5 69.8999 158.2 70.0999 158 70.3999C157.8 70.6999 157.7 71.0999 157.7 71.6999Z" fill="white"/>
<path d="M169.2 74.3H168.1V71.1C168.1 70.7 168 70.4 167.9 70.2C167.8 70 167.5 69.9 167.2 69.9C166.8 69.9 166.5 70 166.3 70.3C166.1 70.6 166 71 166 71.7V74.3H164.9V69.1H165.8L166 69.8H166.1C166.2 69.6 166.5 69.4 166.7 69.2C167 69.1 167.3 69 167.6 69C168.4 69 168.9 69.3 169.2 69.8H169.3C169.5 69.5 169.7 69.3 169.9 69.2C170.2 69.1 170.5 69 170.9 69C171.5 69 172 69.2 172.2 69.5C172.5 69.8 172.6 70.3 172.6 70.9V74.3H171.5V71.1C171.5 70.7 171.4 70.4 171.3 70.2C171.1 70 170.9 69.9 170.6 69.9C170.2 69.9 169.9 70 169.7 70.3C169.5 70.6 169.4 71 169.4 71.5V74.3H169.2Z" fill="white"/>
<path d="M178.7 74.4C178 74.4 177.5 74.2 177.2 73.7H177.1C177.1 74.1 177.2 74.4 177.2 74.5V76.6H176.1V69.1H177C177 69.2 177.1 69.4 177.2 69.8H177.3C177.6 69.3 178.2 69 178.8 69C179.4 69 179.9 69.2 180.3 69.7C180.7 70.2 180.8 70.8 180.8 71.7C180.8 72.5 180.6 73.2 180.3 73.7C179.8 74.2 179.3 74.4 178.7 74.4ZM178.4 69.9C178 69.9 177.6 70 177.4 70.3C177.2 70.6 177.1 71 177.1 71.5V71.7C177.1 72.3 177.2 72.8 177.4 73.1C177.6 73.4 177.9 73.5 178.4 73.5C178.8 73.5 179.1 73.3 179.3 73C179.5 72.7 179.6 72.2 179.6 71.7C179.6 71.1 179.5 70.7 179.3 70.4C179.1 70.1 178.8 69.9 178.4 69.9Z" fill="white"/>
<path d="M187.3 74.3L187.1 73.6C186.9 73.9 186.6 74.1 186.3 74.2C186 74.3 185.7 74.4 185.3 74.4C184.8 74.4 184.4 74.3 184.1 74C183.8 73.7 183.7 73.3 183.7 72.8C183.7 72.3 183.9 71.9 184.3 71.6C184.7 71.3 185.3 71.2 186.1 71.2H187V70.9C187 70.6 186.9 70.3 186.8 70.2C186.6 70 186.4 70 186.1 70C185.8 70 185.6 70 185.3 70.1C185.1 70.2 184.8 70.3 184.6 70.4L184.2 69.6C184.5 69.5 184.8 69.3 185.1 69.3C185.4 69.2 185.7 69.2 186 69.2C186.7 69.2 187.2 69.3 187.5 69.6C187.8 69.9 188 70.3 188 70.9V74.4H187.3V74.3ZM185.7 73.6C186.1 73.6 186.4 73.5 186.7 73.3C186.9 73.1 187.1 72.8 187.1 72.4V72H186.4C185.9 72 185.5 72.1 185.3 72.3C185.1 72.5 184.9 72.7 184.9 73C184.9 73.2 185 73.4 185.1 73.5C185.2 73.5 185.4 73.6 185.7 73.6Z" fill="white"/>
<path d="M196.3 74.3H195.2V71.1C195.2 70.7 195.1 70.4 195 70.2C194.8 70 194.6 69.9 194.2 69.9C193.7 69.9 193.4 70 193.2 70.3C193 70.6 192.9 71 192.9 71.7V74.3H191.8V69.1H192.7L192.9 69.8H193C193.2 69.6 193.4 69.4 193.7 69.2C194 69.1 194.3 69 194.7 69C195.9 69 196.6 69.6 196.6 70.9V74.3H196.3Z" fill="white"/>
<path d="M199.1 69.0999H200.3L201.3 71.9999C201.5 72.3999 201.6 72.7999 201.6 73.1999C201.6 72.9999 201.7 72.7999 201.8 72.5999C201.9 72.3999 202.3 71.1999 203 69.0999H204.2L202 74.9999C201.6 76.0999 200.9 76.5999 200 76.5999C199.8 76.5999 199.5 76.5999 199.3 76.4999V75.5999C199.5 75.5999 199.7 75.6999 199.9 75.6999C200.4 75.6999 200.8 75.3999 201 74.7999L201.2 74.2999L199.1 69.0999Z" fill="white"/>
</svg>
