<svg width="240" height="100" viewBox="0 0 240 100" fill="none" xmlns="http://www.w3.org/2000/svg">
<path d="M69.9001 65.7L83.3001 63.3H83.4001L76.5001 55.1C72.7001 50.6 69.6001 46.9 69.6001 46.9C69.6001 46.9 76.7001 27.3 76.8001 27.2C76.9001 27.1 81.7001 35.5 88.5001 47.5L100.3 68L100.4 68.2H56.7001L69.9001 65.7ZM153.9 63.7C150.6 63.5 148.6 61.6 148.1 58C148 57.1 148 57 148 50.9V45H150.9V50.8C150.9 56 150.9 56.6 151 57C151.1 58.2 151.5 59.3 152.2 60.1C152.8 60.7 153.5 61.1 154.3 61.2C155 61.3 155.6 61.3 156.3 61.2C157.2 61 157.9 60.6 158.5 60C159.3 59.2 159.8 58.2 160 57.1L160.1 56.7V45H163.1V63.2H160.1V61.7C160.1 61.2 160.1 60.7 160.1 60.3C160 60.4 160 60.5 159.9 60.6C159.4 61.6 158.6 62.4 157.6 62.9C156.5 63.6 155.2 63.8 153.9 63.7ZM187.8 63.7C186.6 63.6 185.4 63.2 184.4 62.6C182.2 61.2 180.7 58.7 180.6 56.1C180.5 55 180.5 53.9 180.6 52.8C180.8 50.9 181.6 49.1 182.7 47.5C183.1 47 183.5 46.6 184 46.2C185 45.4 186.1 44.9 187.3 44.6C188.2 44.4 189.1 44.4 189.9 44.4C191.7 44.6 193.4 45.4 194.6 46.8C195.9 48.4 196.5 50.4 196.5 52.5C196.5 52.9 196.5 53.5 196.5 54V54.8H183.5V55.1C183.5 56 183.7 57 184.1 57.8C184.4 58.5 184.9 59.2 185.4 59.7C186.3 60.5 187.5 61 188.7 61.1C189.4 61.1 190.1 61.1 190.8 61C192.2 60.8 193.6 60.2 194.8 59.3L195.1 59.1C195.1 59.1 195.1 59.3 195.1 60.4V61.8L194.8 62C193.5 62.8 192 63.3 190.5 63.5C189.6 63.6 188.7 63.6 187.8 63.5V63.7ZM193.4 52.1C193.4 50.6 192.9 49.2 191.9 48.2C191.3 47.6 190.5 47.2 189.6 47.1C189 47 188.4 47 187.8 47.1C186.9 47.3 186 47.7 185.4 48.4C184.7 49.1 184.1 50 183.8 51C183.7 51.4 183.6 51.8 183.5 52.2V52.4H193.4V52.1ZM105.8 63.2L110.7 50.4L115.6 37.6H118.7L118.8 37.9C119.2 38.9 128.5 63.1 128.5 63.1C128.5 63.1 127.7 63.1 126.8 63.1H125.1L123.8 59.5L122.5 55.9H111.7V56C111.7 56.1 111.1 57.7 110.4 59.6L109.2 63.1H107.5C106.9 63.3 106.4 63.3 105.8 63.2ZM121.5 53.3C121.5 53.3 120.6 50.8 119.5 47.8C117.4 42.2 117.3 41.9 117.2 41C117.1 40.6 117.1 40.6 117 41C116.9 41.4 116.8 41.8 116.7 42.2C116.6 42.4 115.7 44.9 114.6 47.9C113.5 50.9 112.6 53.3 112.6 53.3C112.6 53.3 114.6 53.3 117 53.3H121.5ZM129.5 62.8V62.3L134.9 54.9L140.3 47.5H135.4H130.5V45H144.6V45.8L139.2 53.3L133.8 60.8H144.5V63.3H129.5V62.8ZM169.1 63.2C169.1 63.2 169.1 59.1 169.1 54.1V45H172.1V46.9C172.1 47.9 172.1 48.8 172.1 48.8C172.2 48.7 172.2 48.6 172.3 48.4C172.6 47.4 173.2 46.6 173.9 45.9C174.5 45.3 175.4 44.9 176.2 44.7C176.5 44.7 176.9 44.7 177.2 44.7C177.7 44.7 178.1 44.8 178.6 44.9H178.7V47.9L178.3 47.7C177.7 47.4 177 47.3 176.4 47.3C176 47.3 175.6 47.4 175.2 47.5C174.4 47.8 173.8 48.3 173.3 49C172.6 50.1 172.1 51.3 172 52.5C172 52.7 172 54.5 172 58V63.2H170.6C169.7 63.2 169.1 63.2 169.1 63.2ZM43.6001 63.2C43.6001 63.2 46.8001 57.5 50.8001 50.7L58.0001 38.2L66.4001 31.2L74.8001 24.1C74.8001 24.2 74.7001 24.3 74.7001 24.4C74.6001 24.6 70.5001 33.4 65.6001 44L56.6001 63.2H50.1001C46.6001 63.2 43.6001 63.2 43.6001 63.2Z" fill="white"/>
</svg>
