<svg width="240" height="100" viewBox="0 0 240 100" fill="none" xmlns="http://www.w3.org/2000/svg">
<path d="M138.038 39.5262H161.382C163.587 39.5262 165.375 41.3141 165.375 43.5196V64.7829C165.375 72.8886 158.804 79.4594 150.699 79.4594H150.629C142.524 79.4606 135.952 72.8906 135.951 64.785C135.951 64.7843 135.951 64.7836 135.951 64.7829V41.6133C135.951 40.4606 136.885 39.5262 138.038 39.5262Z" fill="#D9D9D9"/>
<path d="M153.816 35.3227C159.039 35.3227 163.274 31.0883 163.274 25.8648C163.274 20.6414 159.039 16.407 153.816 16.407C148.592 16.407 144.358 20.6414 144.358 25.8648C144.358 31.0883 148.592 35.3227 153.816 35.3227Z" fill="#D9D9D9"/>
<path d="M124.391 35.3228C131.936 35.3228 138.052 29.2063 138.052 21.6614C138.052 14.1164 131.936 8 124.391 8C116.846 8 110.729 14.1164 110.729 21.6614C110.729 29.2063 116.846 35.3228 124.391 35.3228Z" fill="white"/>
<path d="M142.607 39.5262H104.073C101.894 39.5802 100.17 41.3887 100.221 43.5679V67.82C99.9166 80.8976 110.263 91.7499 123.34 92.07C136.417 91.7499 146.764 80.8976 146.459 67.82V43.5679C146.51 41.3887 144.786 39.5802 142.607 39.5262Z" fill="white"/>
<path d="M78.8525 26.9158H117.386C119.514 26.9158 121.238 28.6406 121.238 30.7683V69.3017C121.238 71.4294 119.514 73.1542 117.386 73.1542H78.8525C76.7248 73.1542 75 71.4293 75 69.3017V30.7683C75 28.6406 76.7248 26.9158 78.8525 26.9158Z" fill="#D9D9D9"/>
<path d="M108.258 41.5818H100.555V62.5572H95.6476V41.5818H87.9805V37.5128H108.258V41.5818Z" fill="black"/>
</svg>
