<svg width="240" height="100" viewBox="0 0 240 100" fill="none" xmlns="http://www.w3.org/2000/svg">
<path d="M80.9001 32.3C83.8001 32.3 86.2001 29.9 86.2001 27C86.2001 24.1 83.8001 21.7 80.9001 21.7C78.0001 21.7 75.6001 24.1 75.6001 27C75.8001 29.9 78.0001 32.3 80.9001 32.3Z" fill="white"/>
<path d="M85.3 34.5H76.8V65.5H85.3V34.5Z" fill="white"/>
<path d="M149.8 67.7C146.9 67.7 144.5 70.1 144.5 73C144.5 75.9 146.9 78.3 149.8 78.3C152.7 78.3 155.1 75.9 155.1 73C155.1 70.1 152.8 67.7 149.8 67.7Z" fill="white"/>
<path d="M154.1 34.5H145.6V65.5H154.1V34.5Z" fill="white"/>
<path d="M68.2001 54.1L67.9001 54.4C67.0001 55.6 65.9001 56.5 64.7001 57C63.5001 57.5 62.2001 57.8 60.9001 57.8C58.6001 57.8 56.7001 57.1 55.3001 55.7C53.9001 54.3 53.0001 52.4 53.0001 50.2C53.0001 47.8 53.7001 45.8 55.2001 44.4C56.7001 43 58.5001 42.2 60.8001 42.2C62.1001 42.2 63.4001 42.5 64.6001 43C66.0001 43.6 66.9001 44.4 67.7001 45.6L68.0001 46L72.7001 38.9L72.5001 38.7C70.1001 36.5 67.4001 35 64.6001 34.4C63.2001 34.1 61.7001 33.9 59.9001 33.9C55.4001 33.9 51.6001 35.5 48.6001 38.5C45.6001 41.6 44.1001 45.5 44.1001 50.1C44.1001 54.7 45.6001 58.6 48.6001 61.6C51.6001 64.6 55.4001 66.2 59.9001 66.2C61.7001 66.2 63.3001 66 64.5001 65.7C65.9001 65.3 69.5001 64.1 72.5001 60.9L72.7001 60.7L68.2001 54.1Z" fill="white"/>
<path d="M88.8 34.5V42.1H96.9V65.5H105.6V42.1H113.7V34.5H88.8Z" fill="white"/>
<path d="M133.9 53.3C135.9 52.8 137.5 51.8 138.6 50.4C139.8 48.9 140.4 46.9 140.4 44.5C140.4 41.1 139.4 38.5 137.3 36.9C135.3 35.3 131.7 34.5 126.7 34.5H117.2V65.5H125.8V54.6L132.2 65.5H142.3L133.9 53.3ZM131.6 45.5C131.6 46.7 131.2 47.6 130.5 48.2C129.7 48.8 128.5 49.1 126.9 49.1H125.8V41.7H127C128.7 41.7 129.9 42 130.6 42.6C131.3 43.1 131.6 44.1 131.6 45.5Z" fill="white"/>
<path d="M171.9 55.7L178.4 65.5H188.2L177.2 49.1L187.1 34.5H177.2L171.9 42.7L166.6 34.5H156.9L166.8 49.1L155.8 65.5H165.6L171.9 55.7Z" fill="white"/>
<path d="M192.1 34.5C190 34.5 188.3 36.2 188.3 38.3C188.3 40.4 190 42.1 192.1 42.1C194.2 42.1 195.9 40.4 195.9 38.3C195.9 36.2 194.1 34.5 192.1 34.5ZM192.1 41.4C190.4 41.4 189 40 189 38.3C189 36.6 190.4 35.2 192.1 35.2C193.8 35.2 195.2 36.6 195.2 38.3C195.1 40 193.8 41.4 192.1 41.4Z" fill="white"/>
<path d="M193.8 37.4C193.8 36.3 192.9 36.2 192.4 36.2H190.5V40.4H191.2V38.7H192.1L193.2 40.4H194L192.9 38.6C193.6 38.4 193.8 37.7 193.8 37.4ZM193.1 37.4C193.1 37.8 192.9 38 192.3 38H191.1V36.7H192.3C192.9 36.7 193.1 36.9 193.1 37.4Z" fill="white"/>
</svg>
