<svg width="240" height="100" viewBox="0 0 240 100" fill="none" xmlns="http://www.w3.org/2000/svg">
<path d="M116.429 44.9875C107.922 42.699 104.601 40.7699 104.601 36.8662C104.601 30.9508 112.212 30.3787 114.941 30.3787C119.229 30.3787 124.682 31.7425 127.908 33.3281L131.329 26.9294C126.97 24.7896 120.296 23.3541 114.713 23.3541C102.834 23.3541 95.3963 28.5012 95.3963 37.2958C95.3963 47.3442 105.886 50.1841 114.04 52.3673C122.532 54.6537 125.497 57.2273 125.497 61.1309C125.497 67.6391 118.555 68.6532 114.259 68.6532C108.36 68.6532 103.49 67.086 98.7315 64.2911L94.6709 70.8364C100.674 74.358 106.903 76 114.259 76C126.545 76 134.708 69.9483 134.708 60.5815C134.708 50.1222 124.777 47.2264 116.429 44.9834" fill="white"/>
<path d="M84.4317 39.2043C84.3025 30.1557 77.0317 23.8396 66.7446 23.8396H44.5029V75.6613H52.6033V31.4197H66.2819C70.8636 31.4197 75.7893 33.7475 75.8706 39.3283C75.9415 44.2915 72.1414 47.3979 65.7003 47.6644L65.5752 47.6728L60.6704 47.7155L77.0025 75.7434L86.5725 75.7242C86.5725 75.7242 78.7139 62.1667 73.784 53.6654C81.0423 51.0196 84.5151 45.1703 84.4317 39.2115" fill="white"/>
<path d="M194.577 75.5563L184.674 75.5757L166.724 34.7627L149.525 75.5757H139.561L162.157 23.5267L171.45 23.5203L194.577 75.5563Z" fill="white"/>
</svg>
