<svg width="240" height="100" viewBox="0 0 240 100" fill="none" xmlns="http://www.w3.org/2000/svg">
<path d="M97.7001 45.1C100 45.1 101.7 46.3 101.7 51.1H93.1001C93.5001 46.5 95.5001 45.1 97.7001 45.1ZM109.6 66.9L107.7 61.3C103.9 62.7 101.6 63.3 99.5001 63.3C95.1001 63.3 93.4001 60.5 93.2001 56.5H109.9V52.7C109.9 42.9 105.1 39.1 98.0001 39.1C90.5001 39.1 84.6001 43.9 84.6001 54.1C84.6001 62.9 88.1001 69.7 98.6001 69.7C102.5 69.7 106.2 68.7 109.6 66.9Z" fill="white"/>
<path d="M172 45.1C172.8 45.1 173.5 45.3 174.3 45.5L166.4 58.1C166.2 57.1 166 55.7 166 54.3C166 47.5 168.5 45.1 172 45.1ZM169.3 63.3C168.7 62.9 168.4 62.5 168 62.1L169.3 63.3ZM177.5 54.3C177.5 61.3 175.4 63.9 171.7 63.9C170.8 63.9 170 63.7 169.2 63.3L177.1 50.3C177.3 51.3 177.5 52.7 177.5 54.3ZM186.2 53.9C186.2 45.3 182.2 39.1 172.2 39.1C162.2 39.1 157.4 45.1 157.4 54.5C157.4 63.5 161.4 69.7 171.4 69.7C181.3 69.7 186.2 63.5 186.2 53.9Z" fill="white"/>
<path d="M158.5 67.4999L156.4 62.6999C156 62.8999 155.5 62.8999 155.1 63.0999H154.9C154.1 63.2999 153.4 63.2999 152.4 63.2999C149.5 63.2999 148.8 62.0999 148.8 58.6999V58.2999V44.8999V44.4999H157V38.8999H149.1C148.7 38.8999 148.7 38.6999 148.7 38.2999V31.6999V31.2999H143.3C143.1 32.2999 142.9 33.2999 142.7 34.0999C141.8 37.0999 139.6 38.4999 136 38.6999V39.4999V43.2999V44.4999H136.4H137.5H139.8C140.4 44.4999 140.4 44.6999 140.4 45.0999V45.4999V60.0999V60.4999C140.4 67.0999 142.9 69.6999 149.4 69.6999C152.6 69.6999 156 68.6999 158.5 67.4999Z" fill="white"/>
<path d="M82.4001 67.0999V66.4999V57.0999H76.8001L75.9001 62.6999C75.9001 63.2999 75.7 63.2999 75.1 63.2999H63.8L82.6 36.2999V31.2999H63.4001H55.2001H54.3H54V43.4999H54.2001H55.1H59.7001L60.6 37.8999C60.6 37.2999 60.8001 37.2999 61.4001 37.2999H72.1L53.8 63.8999V67.6999V69.0999H82.4001V67.0999Z" fill="white"/>
<path d="M127.1 67.4999V64.2999L124.6 64.0999C124.2 63.8999 124 63.8999 123.8 63.6999C123.6 63.4999 123.6 63.2999 123.6 62.8999V47.8999L124.4 47.0999C125.5 46.0999 128.4 44.4999 133.4 44.4999H133.8V43.2999V39.6999V38.6999C132.9 38.6999 131.5 38.4999 130.7 38.4999C127.2 38.4999 124.7 40.6999 122.8 43.6999H122.6L121.8 39.0999H112.2L111.6 43.6999L114.5 44.8999C115.1 45.0999 115.3 45.4999 115.3 46.0999V62.8999C115.3 63.6999 115.1 63.8999 114.4 64.0999L111.9 64.2999V69.0999H127L127.1 67.4999Z" fill="white"/>
</svg>
