<svg width="240" height="100" viewBox="0 0 240 100" fill="none" xmlns="http://www.w3.org/2000/svg">
<path d="M209.5 48.2V45H205.6V40.1H205.5L201.8 41.2H201.7V45H195.9V43C195.9 42 196.1 41.3 196.5 40.8C196.9 40.3 197.5 40.1 198.3 40.1C198.9 40.1 199.4 40.2 200 40.5L200.1 40.6V37.3H200C199.5 37.1 198.7 37 197.8 37C196.7 37 195.6 37.2 194.7 37.7C193.8 38.2 193.1 38.9 192.6 39.8C192.1 40.7 191.9 41.7 191.9 42.9V45H189.2V48.1H191.9V61.4H195.8V48.2H201.6V56.6C201.6 60.1 203.2 61.8 206.5 61.8C207 61.8 207.6 61.7 208.2 61.6C208.8 61.5 209.2 61.4 209.4 61.2H209.5V58L209.3 58.1C209.1 58.2 208.8 58.4 208.5 58.4C208.2 58.5 207.9 58.5 207.7 58.5C206.9 58.5 206.4 58.3 206 57.9C205.6 57.5 205.5 56.8 205.5 55.8V48.1H209.5V48.2ZM180.6 58.6C179.2 58.6 178.1 58.1 177.3 57.2C176.5 56.3 176.1 54.9 176.1 53.3C176.1 51.6 176.5 50.2 177.3 49.2C178.1 48.3 179.2 47.8 180.6 47.8C182 47.8 183 48.3 183.8 49.2C184.6 50.1 185 51.5 185 53.2C185 55 184.6 56.4 183.9 57.3C183.1 58.2 182 58.6 180.6 58.6ZM180.7 44.6C178 44.6 175.8 45.4 174.3 47C172.8 48.6 172 50.7 172 53.4C172 56 172.8 58 174.3 59.5C175.8 61 177.8 61.8 180.3 61.8C182.9 61.8 185 61 186.6 59.4C188.1 57.8 188.9 55.7 188.9 53C188.9 50.4 188.2 48.3 186.7 46.8C185.3 45.4 183.3 44.6 180.7 44.6ZM165.8 44.6C164 44.6 162.4 45.1 161.3 46C160.1 46.9 159.5 48.2 159.5 49.6C159.5 50.4 159.6 51.1 159.9 51.6C160.2 52.2 160.5 52.7 161.1 53.1C161.6 53.5 162.4 54 163.5 54.4C164.4 54.8 165.1 55.1 165.5 55.3C165.9 55.5 166.2 55.8 166.4 56C166.6 56.2 166.6 56.5 166.6 56.9C166.6 58 165.8 58.5 164.1 58.5C163.5 58.5 162.8 58.4 162 58.1C161.2 57.8 160.5 57.5 159.8 57L159.6 56.9V60.7H159.7C160.3 61 161 61.2 161.8 61.3C162.6 61.5 163.4 61.6 164 61.6C166 61.6 167.6 61.1 168.8 60.2C170 59.3 170.6 58 170.6 56.5C170.6 55.4 170.3 54.4 169.6 53.7C169 52.9 167.9 52.2 166.3 51.6C165.1 51.1 164.3 50.7 164 50.4C163.7 50.1 163.5 49.7 163.5 49.1C163.5 48.6 163.7 48.2 164.1 47.9C164.5 47.6 165.1 47.4 165.8 47.4C166.5 47.4 167.1 47.5 167.8 47.7C168.5 47.9 169 48.2 169.5 48.5L169.7 48.6V45H169.6C169.2 44.8 168.6 44.6 167.8 44.5C167 44.7 166.3 44.6 165.8 44.6ZM149.3 58.6C147.9 58.6 146.8 58.1 146 57.2C145.2 56.3 144.8 54.9 144.8 53.3C144.8 51.6 145.2 50.2 146 49.2C146.8 48.3 147.9 47.8 149.3 47.8C150.7 47.8 151.7 48.3 152.5 49.2C153.3 50.1 153.7 51.5 153.7 53.2C153.7 55 153.3 56.4 152.6 57.3C151.8 58.2 150.7 58.6 149.3 58.6ZM149.4 44.6C146.7 44.6 144.5 45.4 143 47C141.5 48.6 140.7 50.7 140.7 53.4C140.7 56 141.5 58 143 59.5C144.5 61 146.5 61.8 149 61.8C151.6 61.8 153.7 61 155.3 59.4C156.8 57.8 157.6 55.7 157.6 53C157.6 50.4 156.9 48.3 155.4 46.8C154 45.4 152 44.6 149.4 44.6ZM134.8 47.9V45H131V61.4H134.9V53C134.9 51.6 135.2 50.4 135.9 49.5C136.5 48.6 137.4 48.2 138.4 48.2C138.7 48.2 139.1 48.3 139.6 48.4C140 48.5 140.3 48.6 140.5 48.8L140.7 48.9V45H140.6C140.2 44.8 139.7 44.8 139.1 44.8C138.1 44.8 137.3 45.1 136.5 45.7C135.7 46.2 135.2 47 134.8 47.9ZM124 44.6C122.2 44.6 120.6 45 119.3 45.7C118 46.5 116.9 47.5 116.2 48.9C115.5 50.3 115.1 51.8 115.1 53.6C115.1 55.2 115.4 56.6 116.1 57.8C116.8 59.1 117.8 60 119 60.7C120.2 61.4 121.6 61.7 123.2 61.7C125 61.7 126.6 61.3 127.9 60.6H128V57.1L127.8 57.2C127.2 57.6 126.6 57.9 125.9 58.2C125.2 58.4 124.6 58.6 124 58.6C122.5 58.6 121.3 58.1 120.4 57.2C119.5 56.3 119.1 55 119.1 53.3C119.1 51.6 119.6 50.3 120.5 49.3C121.4 48.3 122.6 47.8 124.1 47.8C125.4 47.8 126.6 48.2 127.8 49.1L128 49.2V45.5H127.9C127.5 45.3 126.9 45.1 126.1 44.9C125.5 44.7 124.7 44.6 124 44.6ZM112.5 45H108.6V61.4H112.5V45ZM110.6 38C110 38 109.4 38.2 109 38.6C108.5 39 108.3 39.6 108.3 40.2C108.3 40.8 108.5 41.4 109 41.8C109.4 42.2 110 42.4 110.7 42.4C111.3 42.4 111.9 42.2 112.4 41.8C112.9 41.4 113.1 40.8 113.1 40.2C113.1 39.6 112.9 39 112.4 38.6C111.9 38.3 111.3 38 110.6 38ZM101 43.8V61.4H104.9V38.5H99.4001L92.5001 55.5L85.8001 38.5H80.1001V61.4H83.8001V43.8H84.0001L91.1001 61.4H93.9001L100.9 43.8H101Z" fill="white"/>
<path d="M48.6 49.1H30.5V30.9H48.7V49.1H48.6Z" fill="white"/>
<path d="M68.7 49.1H50.5V30.9H68.7V49.1Z" fill="white"/>
<path d="M48.6 69.1H30.5V50.9H48.7V69.1H48.6Z" fill="white"/>
<path d="M68.7 69.1H50.5V50.9H68.7V69.1Z" fill="white"/>
</svg>
