<svg width="240" height="100" viewBox="0 0 240 100" fill="none" xmlns="http://www.w3.org/2000/svg">
<mask id="mask0_42_757" style="mask-type:luminance" maskUnits="userSpaceOnUse" x="20" y="41" width="201" height="19">
<path d="M220.5 41H20V59.2H220.5V41Z" fill="white"/>
</mask>
<g mask="url(#mask0_42_757)">
<path d="M25.1 58.7H28.9V44.7H33.9V41.4H20V44.7H25L25.1 58.7Z" fill="white"/>
</g>
<path d="M40 51.4H47.5V58.7H51.2999V41.4H47.5V48H40V41.4H36.2V58.7H40V51.4Z" fill="white"/>
<path d="M59.1 44.6H62.6C63.4 44.6 64.2001 44.8 64.8001 45.3C65.3001 45.8 65.6 46.5 65.6 47.2C65.6 47.9 65.3001 48.6 64.8001 49.1C64.2001 49.6 63.4 49.9 62.6 49.8H59.1V44.6ZM59.1 52.7H61.8L65.7 58.7H70L65.6 52.2C66.7 51.8 67.6001 51.1 68.3001 50.2C69.0001 49.3 69.3001 48.1 69.3001 47C69.3001 45.5 68.7 44 67.6 43C66.4 41.9 64.8 41.4 63.1 41.4H55.3V58.7H59.1V52.7Z" fill="white"/>
<path d="M95.4999 45.7001L97.8999 52.1H93.0999L95.4999 45.7001ZM91.9999 55H98.9999L100.4 58.6H104.6L97.5999 41.3H93.8999L86.8999 58.6H90.8999L91.9999 55Z" fill="white"/>
<path d="M107.7 58.7H111.5V44.7H116.5V41.4H102.6V44.7H107.6L107.7 58.7Z" fill="white"/>
<path d="M132.1 55.3H123.6V41.3H119.8V58.6H132.1V55.3Z" fill="white"/>
<mask id="mask1_42_757" style="mask-type:luminance" maskUnits="userSpaceOnUse" x="20" y="41" width="201" height="18">
<path d="M220.5 41.1H20V59H220.5V41.1Z" fill="white"/>
</mask>
<g mask="url(#mask1_42_757)">
<path d="M148.6 43.7C147.5 42.6 146.1 41.8 144.6 41.5L145.4 45.8C145.6 45.9 145.7 46.1 145.8 46.2C146.8 47.2 147.4 48.6 147.3 50.1C147.3 51 147.1 51.9 146.7 52.8C146.5 53.2 146.2 53.6 145.8 54C143.7 56.1 140.3 56.1 138.2 54C137.9 53.6 137.6 53.2 137.3 52.8C137.3 52.8 137.3 52.8 137.3 52.7C136.9 51.9 136.7 51 136.7 50.1C136.7 48.7 137.2 47.3 138.2 46.2C138.3 46.1 138.5 45.9 138.6 45.8L139.4 41.5C137.9 41.9 136.6 42.7 135.5 43.8C133.8 45.5 132.8 47.8 132.9 50.2C132.9 52.6 133.8 54.8 135.5 56.5C137.2 58.2 139.5 59.1 141.9 59C144.3 59.1 146.7 58.1 148.4 56.4C150.1 54.8 151.1 52.5 151 50.1C151.3 47.6 150.3 45.3 148.6 43.7Z" fill="white"/>
</g>
<mask id="mask2_42_757" style="mask-type:luminance" maskUnits="userSpaceOnUse" x="20" y="41" width="201" height="18">
<path d="M220.5 41.1H20V59H220.5V41.1Z" fill="white"/>
</mask>
<g mask="url(#mask2_42_757)">
<path d="M165.1 58.6C165.8 58.4 166.4 58.2 167.1 57.9C167.6 57.6 168 57.3 168.4 57C168.7 56.8 168.9 56.5 169.2 56.3C169.3 56.2 169.4 56 169.5 56L166.8 53.6L166.7 53.8C166.5 54 166.4 54.2 166.2 54.3C165.9 54.5 165.7 54.7 165.4 54.9C165 55.1 164.6 55.3 164.2 55.4C163.7 55.5 163.2 55.6 162.7 55.6C161.3 55.6 159.9 55.1 158.9 54C157.9 53 157.3 51.6 157.4 50.1C157.4 48.7 157.9 47.3 158.9 46.2C159.9 45.2 161.3 44.6 162.7 44.6C163.2 44.6 163.7 44.7 164.1 44.8C164.5 44.9 164.9 45 165.2 45.2C165.5 45.4 165.7 45.5 166 45.7C166.2 45.8 166.3 46 166.4 46.1C166.5 46.2 166.5 46.2 166.5 46.3L169.3 43.9L169 43.6C168.8 43.3 168.5 43.1 168.2 42.9C167.8 42.6 167.4 42.3 166.9 42.1C166.3 41.8 165.7 41.6 165 41.4C164.2 41.2 163.4 41.1 162.6 41.1C160.2 41 157.8 42 156.1 43.7C154.4 45.4 153.4 47.7 153.4 50.1C153.4 52.5 154.3 54.7 156 56.4C157.7 58.1 160 59 162.4 58.9C163.3 58.9 164.2 58.8 165.1 58.6Z" fill="white"/>
</g>
<path d="M175.8 50.3L183.1 58.7H187.7L179.6 49.6L187.2 41.4H182.6L175.8 49.3V41.4H172V58.7H175.8V50.3Z" fill="white"/>
<path d="M202.5 55.4001H193.3V51.3H201V48.2001H193.3V44.6H202.3V41.3H189.5V58.6H202.5C202.5 58.7 202.5 55.4001 202.5 55.4001Z" fill="white"/>
<path d="M209.4 44.6H212.9C213.7 44.6 214.5 44.8 215.1 45.3C215.6 45.8 215.9 46.5 215.9 47.2C215.9 47.9 215.6 48.6 215.1 49.1C214.5 49.6 213.7 49.9 212.9 49.8H209.4V44.6ZM209.4 52.7H212.1L216 58.7H220.4L216 52.2C217.1 51.8 218 51.1 218.7 50.2C219.4 49.3 219.7 48.1 219.7 47C219.7 45.5 219.1 44 218 43C216.8 41.9 215.1 41.4 213.5 41.4H205.7V58.7H209.5L209.4 52.7Z" fill="white"/>
<path d="M142.1 44.5999C142.8 44.5999 143.4 45.2 143.4 45.9C143.4 46.4 143.1 46.8999 142.7 47.0999L143.2 49.7999H141L141.5 47.0999C141.1 46.8999 140.8 46.5 140.8 46C140.8 45.2 141.4 44.5999 142.1 44.5999ZM145.6 51.7L143.6 41.2H140.8L138.8 51.7H145.6Z" fill="white"/>
<path d="M76.4001 55.4V51.2999H84.1001V48.2H72.6001V58.5999H85.6001V55.2999H76.4001V55.4Z" fill="white"/>
<path d="M85.3001 41.4H72.6001V44.7H85.3001V41.4Z" fill="white"/>
</svg>
