<svg width="240" height="100" viewBox="0 0 240 100" fill="none" xmlns="http://www.w3.org/2000/svg">
<path d="M61.5202 49.7603V49.4533L58.9202 47.2153H58.6172C57.9022 48.0053 56.7982 48.5973 55.5632 48.5973C53.6352 48.5973 52.1182 47.1273 52.1182 45.1093C52.1182 43.0913 53.6352 41.6213 55.5632 41.6213C56.7982 41.6213 57.9022 42.2133 58.6172 43.0033H58.9202L61.5202 40.7653V40.4583C60.1552 38.7913 58.0112 37.7163 55.5842 37.7163C51.1222 37.7163 47.7432 40.8753 47.7432 45.1093C47.7432 45.2733 47.7802 45.4243 47.7912 45.5853C49.6172 46.8273 51.2292 47.8213 52.6172 48.7313C54.6182 49.9973 56.2332 51.1623 57.5632 52.2453C59.2212 51.8263 60.5652 50.9173 61.5202 49.7603ZM49.3702 49.6813C50.4122 50.9613 51.8832 51.8793 53.6182 52.2713C52.4462 51.6123 51.3112 50.9653 50.2542 50.2493C49.9442 50.0573 49.6682 49.8713 49.3702 49.6813Z" fill="white"/>
<path d="M76.5704 51.5603L75.9204 48.7523L75.6824 48.5983C75.5524 48.6643 75.4444 48.7523 75.1194 48.7523C74.6204 48.7523 74.3174 48.2253 74.0574 47.8093C73.6244 47.1503 73.2774 46.7993 72.9744 46.6463C74.5554 45.9443 75.6174 44.6283 75.6174 42.7413C75.6174 39.8233 73.6244 37.9803 69.9204 37.9803H63.4644V52.2403H67.7534V47.2383H68.1434C69.0964 47.2383 70.3104 49.3003 70.8734 50.2223C72.0434 52.0873 72.9744 52.5033 74.6424 52.5033C75.4224 52.5033 76.0724 52.2183 76.4624 51.8673L76.5704 51.5603ZM71.2414 42.9823C71.2414 43.9263 70.5484 44.3863 69.7464 44.3863H67.7534V41.4903H69.7464C70.5484 41.4903 71.2414 42.0173 71.2414 42.9823Z" fill="white"/>
<path d="M93.1401 45.1143C93.1401 40.8803 89.7611 37.7213 85.2771 37.7213C80.7921 37.7213 77.4131 40.8803 77.4131 45.1143C77.4131 49.3483 80.7921 52.5073 85.2771 52.5073C89.7611 52.5073 93.1401 49.3263 93.1401 45.1143ZM88.7641 45.1143C88.7641 47.1543 87.2041 48.6023 85.2771 48.6023C83.3491 48.6023 81.7891 47.1543 81.7891 45.1143C81.7891 43.0743 83.3491 41.6263 85.2771 41.6263C87.2041 41.6263 88.7641 43.0743 88.7641 45.1143Z" fill="white"/>
<path d="M102.7 37.9843L100.03 45.8333L97.5 37.9843H93.4L93.21 38.3133L98.45 52.2433H101.05L104 44.4733L106.96 52.2433H109.56L114.81 38.3133L114.61 37.9843H110.52L107.98 45.8833L105.3 37.9843H102.7Z" fill="white"/>
<path d="M130.51 45.0933C130.51 40.8373 127.672 37.9853 123.058 37.9853H116.494V52.2453H123.058C127.672 52.2453 130.51 49.3933 130.51 45.0933ZM126.134 45.1153C126.134 47.4403 124.769 48.7353 122.885 48.7353H120.783V41.4953H122.885C124.769 41.4953 126.134 42.7903 126.134 45.1153Z" fill="white"/>
<path d="M144.7 41.4943H148.9V52.2433H153.2V41.4943H157.5V37.9843H144.7V41.4943Z" fill="white"/>
<path d="M171.2 42.7443C171.2 39.8263 169.207 37.9833 165.503 37.9833H159.047V52.2433H163.337V47.2413H164.355L167.019 52.2433H171.287L171.482 51.9143L168.622 46.6273C170.16 45.9033 171.2 44.6093 171.2 42.7443ZM166.824 42.9853C166.824 43.9293 166.131 44.3893 165.329 44.3893H163.337V41.4933H165.329C166.131 41.4933 166.824 42.0203 166.824 42.9853Z" fill="white"/>
<path d="M173.8 52.2433H178.1V37.9843H173.8V52.2433Z" fill="white"/>
<path d="M185.1 43.0523V37.9843H180.8V52.2433H185.1V47.8533L185.9 46.9333L189.5 52.2433H194L194.2 51.9133L189 44.3633L193.8 38.3133L193.7 37.9843H189.1L185.1 43.0523Z" fill="white"/>
<path d="M199.7 48.7333V46.7633H204.6V43.4683H199.7V41.4943H206.1V37.9833H195.4V52.2433H206.2V48.7333H199.7Z" fill="white"/>
<path d="M137.8 52.41C140.942 52.41 143.669 50.875 143.669 47.915C143.669 44.689 140.92 43.855 138.494 43.153C137.54 42.868 136.564 42.538 136.564 41.836C136.564 41.331 137.106 41.024 137.93 41.024C139.339 41.024 140.53 41.902 141.136 42.473H141.439L143.453 40.06V39.753C142.392 38.547 140.227 37.626 137.843 37.626C134.507 37.626 132.191 39.424 132.191 42.034C132.191 44.843 134.745 46.072 136.911 46.686C138.32 47.081 139.275 47.147 139.275 47.915C139.275 48.464 138.602 48.793 137.561 48.793C136.239 48.793 134.637 47.937 133.858 47.169H133.555L131.563 49.67V49.977C132.84 51.402 135.135 52.41 137.8 52.41Z" fill="white"/>
<path d="M63.82 65.52C62.781 63.142 60.694 60.091 52.52 55.734C48.75 53.638 42.31 50.411 36.52 44.274C37.045 46.488 39.735 51.353 51.3 57.424C54.504 59.177 59.922 60.821 63.82 65.512" fill="white"/>
<path d="M63.3 61.45C62.314 58.64 60.534 55.042 52.09 49.7C47.979 47.006 41.94 43.623 34 35C34.568 37.325 37.078 43.371 49.73 51.22C53.886 54.036 59.25 55.773 63.3 61.45Z" fill="white"/>
</svg>
