<svg width="240" height="100" viewBox="0 0 240 100" fill="none" xmlns="http://www.w3.org/2000/svg">
<path d="M170.432 32V37.542H177.836V32H170.432ZM170.432 38.9877V68.1432H177.836V38.9877H170.432ZM89.3545 32.4819V56.216C89.3108 58.0195 89.5987 59.8159 90.2041 61.517C90.7187 62.9988 91.5463 64.3543 92.6316 65.4927C93.7541 66.5745 95.1308 67.3613 96.6369 67.7818C98.4539 68.2777 100.354 68.4007 102.22 68.1432V61.517C101.494 61.6321 100.752 61.5951 100.041 61.4084C99.3304 61.2216 98.6669 60.8893 98.0934 60.4327C97.5986 59.8539 97.2255 59.1826 96.9962 58.4583C96.7669 57.7341 96.686 56.9717 96.7583 56.216V46.0959H101.977V39.5901H96.7583V32.3614H89.3545V32.4819ZM42.8684 38.9877C41.0439 38.9826 39.2338 39.3093 37.5279 39.9515C36.0207 40.5471 34.6561 41.45 33.5226 42.602C32.4 43.8034 31.4965 45.1895 30.8524 46.6982C30.2565 48.3183 29.9684 50.034 30.0027 51.7583V68.2637H37.4065V51.5173C37.3809 50.7827 37.5077 50.0506 37.7792 49.3667C38.0506 48.6827 38.4609 48.0615 38.9844 47.5416C40.087 46.5738 41.5184 46.0571 42.9897 46.0959C43.9946 46.0706 44.9916 46.2768 45.9027 46.6982C46.5359 47.0502 47.0765 47.5456 47.4806 48.144C47.8264 48.7002 48.0727 49.3116 48.2088 49.9511C48.3002 50.4275 48.3409 50.9121 48.3302 51.3969V68.0227H55.734V51.7583C55.7182 49.9986 55.4317 48.2516 54.8844 46.5778C54.3734 45.0664 53.4984 43.7016 52.3355 42.602C51.2345 41.4117 49.8606 40.5025 48.3302 39.9515C46.585 39.2987 44.7333 38.9719 42.8684 38.9877ZM72.8477 38.9877C70.8776 38.9435 68.9244 39.3561 67.1431 40.1925C65.3367 40.9057 63.7179 42.0181 62.4095 43.4454C61.0179 44.8055 59.9411 46.4499 59.2538 48.2645C57.7973 51.9842 57.7973 56.1105 59.2538 59.8303C60.0004 61.6145 61.07 63.2478 62.4095 64.6494C63.7562 66.0024 65.3669 67.0683 67.1431 67.7818C68.9469 68.55 70.8851 68.9593 72.8477 68.9866C76.0559 69.1249 79.2183 68.1917 81.8293 66.3361C84.1976 64.5673 85.9057 62.0665 86.6843 59.2279H78.795C78.2646 60.3799 77.3087 61.2856 76.1248 61.7579C75.0134 62.2347 73.8156 62.4806 72.6049 62.4806C71.3943 62.4806 70.1964 62.2347 69.0851 61.7579C68.0379 61.1968 67.1266 60.4156 66.4149 59.4689L86.6843 51.0354C86.3756 49.2572 85.7597 47.5454 84.8637 45.9754C84.0146 44.5746 82.9498 43.3144 81.708 42.2406C80.4777 41.1782 79.0276 40.3968 77.4599 39.9515C76.0131 39.296 74.4379 38.9669 72.8477 38.9877ZM72.8477 45.4935C73.9677 45.4959 75.0781 45.7 76.1248 46.0959C77.0816 46.5301 77.9154 47.1922 78.5522 48.0235L65.0798 53.6859C65.0938 52.536 65.2988 51.3963 65.6866 50.3126C66.1092 49.3823 66.6833 48.5275 67.3859 47.7825C68.0597 47.0494 68.8887 46.4733 69.8133 46.0959C70.7609 45.6548 71.8021 45.4481 72.8477 45.4935ZM164.728 38.9877C163.416 38.9622 162.108 39.1245 160.844 39.4696C159.082 39.9195 157.458 40.7878 156.11 41.9996C154.77 43.1411 153.729 44.588 153.076 46.2163C152.371 47.9776 152.04 49.8643 152.105 51.7583V68.2637H159.509V51.7583C159.464 50.8702 159.627 49.9837 159.985 49.1686C160.343 48.3534 160.886 47.6316 161.572 47.0597C162.397 46.5001 163.329 46.1151 164.311 45.9286C165.292 45.742 166.302 45.758 167.276 45.9754V39.1082C166.427 39.1082 165.577 38.9877 164.728 38.9877ZM180.385 39.5901L190.337 53.445L179.899 68.2637H188.881L194.828 59.3484L200.654 68.2637H210L199.319 53.204L209.15 39.5901H200.169L194.828 47.5416L189.731 39.5901H180.385ZM105.012 39.7106V56.0955C104.967 57.8598 105.256 59.6168 105.861 61.276C106.446 62.7872 107.311 64.1765 108.41 65.3722C109.576 66.4852 110.932 67.3828 112.416 68.0227C114.121 68.665 115.931 68.9917 117.756 68.9866C119.555 69.0136 121.338 68.6432 122.975 67.9023C124.528 67.2209 125.899 66.1896 126.98 64.8903C128.077 66.123 129.394 67.1441 130.864 67.9023C132.541 68.6542 134.365 69.0247 136.205 68.9866C138.028 68.9806 139.836 68.6543 141.545 68.0227C143.029 67.3828 144.385 66.4852 145.551 65.3722C146.687 64.1818 147.593 62.793 148.221 61.276C148.857 59.6635 149.186 57.9477 149.192 56.216V39.7106H141.788V56.3364C141.814 57.0711 141.687 57.8032 141.415 58.4871C141.144 59.171 140.734 59.7923 140.21 60.3122C139.119 61.2986 137.68 61.8181 136.205 61.7579C135.2 61.7832 134.203 61.577 133.292 61.1555C132.631 60.842 132.082 60.3382 131.714 59.7098C131.368 59.1535 131.122 58.5422 130.986 57.9026C130.889 57.3863 130.849 56.8613 130.864 56.3364V39.7106H123.461V56.3364C123.497 57.0683 123.376 57.7994 123.107 58.4815C122.837 59.1637 122.425 59.7813 121.897 60.2937C121.37 60.806 120.739 61.2015 120.046 61.4539C119.353 61.7063 118.614 61.8099 117.877 61.7579C116.91 61.7997 115.948 61.5922 115.086 61.1555C114.425 60.842 113.875 60.3382 113.508 59.7098C113.162 59.1535 112.916 58.5422 112.78 57.9026C112.683 57.3863 112.643 56.8613 112.658 56.3364V39.7106H105.012Z" fill="white"/>
</svg>
