<svg width="240" height="100" viewBox="0 0 240 100" fill="none" xmlns="http://www.w3.org/2000/svg">
<path d="M144.4 26.9C144.4 26.9 148.9 24.3 156.1 21.7C160 20.3 163.8 19.6 166.6 19.3C165.1 18.9 163.6 18.5 162.5 18.2C159.1 17.2 154.1 16.1 149.9 15.5C149.7 16.5 149.2 18.1 148 20.4C146.4 23.5 144.4 26.9 144.4 26.9Z" fill="white"/>
<path d="M54 45.9H59.9V58.7L70.6 45.9H78L65.8 59.9L78.5 75.6H70.7L60 61.8V75.6H54V45.9Z" fill="white"/>
<path d="M80.8 54.8C83 53.8 86 53.1 88.4 53.1C95.1 53.1 97.8 55.9 97.8 62.3V65.1C97.8 67.3 97.9 69 97.9 70.6C98 72.3 98 73.8 98.2 75.5H93.2C93 74.4 93 72.9 92.9 72.2H92.8C91.5 74.7 88.6 76 86 76C82.1 76 78.3 73.7 78.3 69.5C78.3 66.2 79.9 64.3 82 63.3C84.2 62.2 87 62 89.3 62H92.4C92.4 58.5 90.8 57.3 87.5 57.3C85.1 57.3 82.7 58.2 80.7 59.7L80.8 54.8ZM87.4 71.9C89.1 71.9 90.5 71.1 91.4 69.9C92.3 68.7 92.6 67.1 92.6 65.4H90.1C87.5 65.4 83.8 65.8 83.8 69.2C83.8 71.1 85.4 71.9 87.4 71.9Z" fill="white"/>
<path d="M114.7 58.2C113 57.6 111.7 57.3 109.6 57.3C108.1 57.3 106.2 57.9 106.2 59.7C106.2 63.2 116.1 61 116.1 68.9C116.1 74 111.6 76 106.9 76C104.7 76 102.5 75.6 100.4 75.1L100.7 70.4C102.5 71.3 104.3 71.9 106.3 71.9C107.8 71.9 110 71.3 110 69.2C110 64.9 100.1 67.8 100.1 59.9C100.1 55.2 104.2 53.1 108.7 53.1C111.4 53.1 113.1 53.5 114.9 53.9L114.7 58.2Z" fill="white"/>
<path d="M136.7 74.3C134.6 75.4 132.2 76 129.2 76C122 76 117.8 71.8 117.8 64.7C117.8 58.4 121.2 53.1 128 53.1C136.1 53.1 138.4 58.7 138.4 66.3H123.3C123.6 69.8 126 71.8 129.6 71.8C132.4 71.8 134.7 70.8 136.9 69.6V74.3H136.7ZM132.9 62.5C132.7 59.7 131.4 57.4 128.3 57.4C125.1 57.4 123.5 59.6 123.2 62.5H132.9Z" fill="white"/>
<path d="M149.7 69.6L155 53.6H160.8L152.6 75.3C150.8 80.1 149.5 84.9 143.5 84.9C142.2 84.9 140.8 84.7 139.5 84.3L139.9 80.1C140.6 80.4 141.4 80.5 142.8 80.5C145.1 80.5 146.5 78.9 146.5 76.6L138.1 53.6H144.4L149.7 69.6Z" fill="white"/>
<path d="M162.3 54.8C164.5 53.8 167.5 53.1 169.9 53.1C176.6 53.1 179.3 55.9 179.3 62.3V65.1C179.3 67.3 179.4 69 179.4 70.6C179.5 72.3 179.5 73.8 179.7 75.5H174.7C174.5 74.4 174.5 72.9 174.4 72.2H174.3C173 74.6 170.1 76 167.5 76C163.6 76 159.8 73.7 159.8 69.5C159.8 66.2 161.4 64.3 163.5 63.3C165.7 62.2 168.5 62 170.8 62H173.9C173.9 58.5 172.3 57.3 169 57.3C166.6 57.3 164.1 58.2 162.2 59.7L162.3 54.8ZM169 71.9C170.7 71.9 172.1 71.1 173 69.9C173.9 68.7 174.2 67.1 174.2 65.4H171.7C169.1 65.4 165.4 65.8 165.4 69.2C165.4 71.1 166.9 71.9 169 71.9Z" fill="white"/>
<path d="M142.4 30.6C141.6 30.8 138.9 37.9 137.5 41.7C140.1 43.5 142.7 45.1 145.2 46.1C150.1 48.3 151.7 47.4 154.7 46C156.9 45 160.3 42.7 163.3 40.5C159.6 38.1 155 35.2 152.4 34C147.4 31.7 143.5 30.2 142.4 30.6Z" fill="white"/>
<path d="M146.6 15C142.8 14.7 142.2 15.6 141.5 16.1C139.6 17.2 131.5 22 127.6 25.3C123.9 28.5 124.5 30.5 126.3 32.5C127.7 34.1 130.1 36.1 133.9 39C134.1 39.1 134.2 39.3 134.4 39.4C135.9 36 139.2 28.7 140.9 25.2C142.8 21.4 145.4 17 146.6 15Z" fill="white"/>
<path d="M179.6 23.5C178.3 22.8 177.1 22.4 176.1 22.1C175.6 21.9 174.2 21.5 172.5 21C169.5 21.4 164.5 22.1 159.7 23.3C154.7 24.5 146.3 28.6 146.3 28.6C146.3 28.6 156.9 32 166.9 37.8C167.2 37.5 167.5 37.3 167.8 37.1C170.9 34.6 178.7 28 180.4 25.2C180.8 24.5 180.4 23.9 179.6 23.5Z" fill="white"/>
<path d="M179.7 54.1C179.7 52.4 181.1 51 182.8 51C184.5 51 185.9 52.4 185.9 54.1C185.9 55.8 184.5 57.2 182.8 57.2C181.1 57.2 179.7 55.8 179.7 54.1ZM185.2 54.1C185.2 52.6 184.1 51.6 182.8 51.6C181.5 51.6 180.4 52.7 180.4 54.1C180.4 55.5 181.5 56.6 182.8 56.6C184.2 56.6 185.2 55.6 185.2 54.1ZM181.6 52.3H182.9C183.7 52.3 184.2 52.6 184.2 53.3C184.2 53.9 183.9 54.2 183.3 54.3L184.3 55.9H183.6L182.7 54.4H182.3V55.9H181.6V52.3ZM182.3 53.8H182.9C183.3 53.8 183.6 53.7 183.6 53.3C183.6 52.9 183.2 52.8 182.9 52.8H182.3V53.8Z" fill="white"/>
</svg>
