<svg width="240" height="100" viewBox="0 0 240 100" fill="none" xmlns="http://www.w3.org/2000/svg">
<path d="M107.8 61.2001L100.2 40.1001C100.1 39.8001 100 39.4001 100 39.1001C100 38.2001 100.8 37.3001 101.9 37.3001C102.9 37.3001 103.5 37.9001 103.8 38.8001L110.1 56.9001L116.4 38.7001C116.7 37.8001 117.3 37.2001 118.2 37.2001H118.4C119.4 37.2001 120 37.8001 120.3 38.7001L126.6 56.9001L133 38.7001C133.2 37.9001 133.8 37.3001 134.8 37.3001C135.9 37.3001 136.6 38.1001 136.6 39.0001C136.6 39.3001 136.5 39.7001 136.4 40.0001L128.8 61.1001C128.4 62.2001 127.6 62.8001 126.8 62.8001H126.7C125.7 62.8001 125 62.2001 124.7 61.1001L118.5 43.2001L112 61.2001C111.7 62.3001 110.9 62.9001 110 62.9001H109.9C109 62.9001 108.2 62.3001 107.8 61.2001Z" fill="white"/>
<path d="M163 39.2001C163 38.2001 163.8 37.3 164.8 37.3C165.9 37.3 166.7 38.1001 166.7 39.2001V43.5C168.5 39.3 172.6 37.4001 175.3 37.4001C176.4 37.4001 177.1 38.2 177.1 39.3C177.1 40.3 176.4 41.0001 175.5 41.2001C170.7 41.8001 166.7 45.4 166.7 52.6V61C166.7 62 165.9 62.9001 164.9 62.9001C163.8 62.9001 163 62.1 163 61V39.2001Z" fill="white"/>
<path d="M189.1 63.1001C182.4 63.1001 176.9 57.9001 176.9 50.2001V50.1001C176.9 43.0001 181.9 37.2001 188.6 37.2001C195.8 37.2001 200 43.2001 200 49.7001C200 50.7001 199.2 51.4001 198.3 51.4001H180.6C181.1 56.8001 184.9 59.8001 189.2 59.8001C192.2 59.8001 194.4 58.6001 196.2 56.9001C196.5 56.7001 196.8 56.5001 197.2 56.5001C198.1 56.5001 198.8 57.2001 198.8 58.1001C198.8 58.5001 198.6 59.0001 198.2 59.3001C196 61.6001 193.2 63.1001 189.1 63.1001ZM196.3 48.8001C195.9 44.3001 193.4 40.4001 188.5 40.4001C184.2 40.4001 181 44.0001 180.6 48.8001H196.3Z" fill="white"/>
<path d="M136.6 55.4C136.6 50.1 140.9 47.3 147.2 47.3C150.4 47.3 152.6 47.7 154.9 48.4V47.5C154.9 43 152.1 40.7 147.5 40.7C145 40.7 143.5 41 141.7 41.8C141.5 41.9 141.2 41.9 141 41.9C140.1 41.9 139.4 41.2 139.4 40.3C139.4 39.5 139.7 39.1 140.4 38.8C142.8 37.7 144.7 37.4 147.9 37.4C151.4 37.4 154.1 38.3 155.9 40.1C157.6 41.8 158.5 44.2 158.5 47.4V61.1C158.5 62.2 157.7 62.9 156.7 62.9C155.6 62.9 154.9 62.1 154.9 61.2V58.8C153.2 61.1 150.3 63.1 145.9 63.1C141.3 63.1 136.6 60.5 136.6 55.4ZM155 53.5V51C153.2 50.5 150.7 49.9 147.7 49.9C143 49.9 140.4 51.9 140.4 55.1V55.2C140.4 58.3 143.3 60.2 146.7 60.2C151.2 60.2 155 57.4 155 53.5Z" fill="white"/>
<path d="M40.3999 38.9C39.5999 37.1 37.5999 36.3 35.6999 37.1C33.7999 37.9 33.0999 40 33.9999 41.8L41.8999 59C43.0999 61.7 44.3999 63.1 46.8999 63.1C49.4999 63.1 50.6999 61.6 51.8999 59C51.8999 59 58.7999 44 58.8999 43.8C58.9999 43.6 59.1999 43.2 59.8999 43.2C60.4999 43.2 60.9999 43.7 60.9999 44.3V59C60.9999 61.3 62.2999 63.1 64.6999 63.1C67.0999 63.1 68.3999 61.2 68.3999 59V47C68.3999 44.7 70.0999 43.2 72.2999 43.2C74.5999 43.2 76.0999 44.7 76.0999 47V59C76.0999 61.3 77.3999 63.1 79.7999 63.1C82.1999 63.1 83.4999 61.2 83.4999 59V47C83.4999 44.7 85.1999 43.2 87.3999 43.2C89.6999 43.2 91.1999 44.7 91.1999 47V59C91.1999 61.3 92.4999 63.1 94.8999 63.1C97.2999 63.1 98.5999 61.2 98.5999 59V45.4C98.5999 40.4 94.5999 36.9 89.6999 36.9C84.7999 36.9 81.7999 40.3 81.7999 40.3C80.1999 38.2 77.9999 36.9 74.1999 36.9C70.1999 36.9 66.6999 40.3 66.6999 40.3C65.0999 38.2 62.2999 36.9 60.0999 36.9C56.5999 36.9 53.7999 38.4 52.0999 42.4L47.0999 54.3L40.3999 38.9Z" fill="white"/>
<path d="M200.2 40.4001C200.2 38.7001 201.6 37.3 203.3 37.3C205 37.3 206.4 38.7001 206.4 40.4001C206.4 42.1001 205 43.5 203.3 43.5C201.6 43.5 200.2 42.1001 200.2 40.4001ZM205.8 40.4001C205.8 39.0001 204.7 37.9001 203.3 37.9001C201.9 37.9001 200.8 39.1001 200.8 40.4001C200.8 41.8001 201.9 42.9001 203.3 42.9001C204.7 42.9001 205.8 41.8001 205.8 40.4001Z" fill="white"/>
<path d="M202.1 39.2C202.1 39 202.2 38.9 202.4 38.9H203.4C203.8 38.9 204.1 39 204.3 39.2C204.5 39.4 204.6 39.6 204.6 39.9C204.6 40.4 204.4 40.7 204 40.8L204.5 41.4C204.6 41.5 204.6 41.5 204.6 41.6C204.6 41.8 204.4 41.9 204.3 41.9C204.2 41.9 204.1 41.8 204 41.7L203.4 40.9H202.9V41.5C202.9 41.7 202.8 41.8 202.6 41.8C202.4 41.8 202.3 41.7 202.3 41.5V39.2H202.1ZM203.5 40.3C203.8 40.3 204 40.1 204 39.9C204 39.6 203.8 39.5 203.5 39.5H202.8V40.4H203.5V40.3Z" fill="white"/>
</svg>
