<svg width="240" height="100" viewBox="0 0 240 100" fill="none" xmlns="http://www.w3.org/2000/svg">
<path d="M145.6 51.4C146.8 52 148.1 52.5 149.5 52.7C151.2 53.1 152.9 53.3 154.6 53.3C156.2 53.3 157.8 53.1 159.3 52.7C160.6 52.3 161.9 51.7 163 50.8C164 50 164.8 49 165.4 47.9C166 46.7 166.3 45.4 166.3 44C166.3 42.3 165.8 40.7 164.7 39.3C163.3 37.7 161.5 36.6 159.5 36.1L154.8 34.6C153.5 34.3 152.2 33.6 151.1 32.8C150.4 32.2 150.1 31.3 150.1 30.4C150 29.2 150.6 28 151.7 27.4C153.1 26.7 154.6 26.4 156.1 26.5C158.3 26.5 160.5 26.9 162.5 27.8C162.9 28 163.3 28.2 163.8 28.2C164.3 28.2 164.6 27.8 164.6 27.2V25.6C164.6 25.2 164.5 24.8 164.3 24.5C164 24.2 163.7 23.9 163.3 23.7C162.8 23.5 162.4 23.3 161.9 23.1C161.3 22.9 160.7 22.7 160 22.6C159.3 22.4 158.6 22.3 157.8 22.2C157.1 22.1 156.3 22.1 155.6 22.1C154.2 22.1 152.8 22.3 151.4 22.7C150.1 23.1 149 23.6 147.9 24.4C146.9 25.1 146.1 26.1 145.5 27.1C144.9 28.2 144.6 29.5 144.6 30.8C144.6 32.6 145.2 34.3 146.3 35.6C147.7 37.3 149.6 38.5 151.7 39L156.6 40.5C157.8 40.8 159 41.4 160 42.2C160.6 42.8 160.9 43.7 160.9 44.5C160.9 45.8 160.3 47 159.2 47.7C157.7 48.5 156 48.9 154.3 48.8C153 48.8 151.6 48.7 150.3 48.4C149 48.1 147.8 47.8 146.6 47.2L145.8 46.9C145.6 46.8 145.4 46.8 145.2 46.8C144.7 46.8 144.4 47.1 144.4 47.8V49.5C144.4 49.8 144.5 50.1 144.6 50.4C144.8 50.8 145.2 51.2 145.6 51.4Z" fill="white"/>
<path d="M89.2 35.2C88 35.1 86.9 35 85.7 35C82.8 34.8 79.8 35.8 77.5 37.6C75.5 39.3 74.4 41.8 74.5 44.5C74.4 46.9 75.3 49.2 77 50.9C78.8 52.6 81.2 53.4 83.7 53.3C87.5 53.4 91.1 51.7 93.5 48.7C93.9 49.4 94.2 50.1 94.5 50.7C94.8 51.3 95.2 51.8 95.7 52.2C96 52.5 96.3 52.7 96.7 52.7C97 52.7 97.3 52.6 97.6 52.4L99.7 51C100.1 50.8 100.3 50.4 100.3 50C100.3 49.7 100.2 49.5 100.1 49.2C99.7 48.4 99.3 47.6 99 46.8C98.7 45.8 98.6 44.8 98.6 43.8V32.9C98.6 29.2 97.7 26.5 95.8 24.7C93.9 22.9 91 22 87 22C85.2 22 83.5 22.2 81.8 22.6C80.4 23 78.9 23.5 77.6 24.1C77.2 24.3 76.9 24.5 76.7 24.8C76.5 25.2 76.5 25.5 76.5 25.9V27.5C76.5 28.2 76.7 28.5 77.2 28.5C77.4 28.5 77.6 28.5 77.7 28.4C78.1 28.3 78.5 28.1 78.9 28C80.1 27.5 81.3 27.2 82.5 26.9C83.7 26.6 84.9 26.5 86.1 26.5C88.7 26.5 90.5 27 91.5 28C92.5 29 93 31 93 33.5V36C91.7 35.7 90.4 35.4 89.2 35.2ZM93 41.1C93 42.1 92.9 43.1 92.7 44C92.5 44.8 92.1 45.5 91.6 46.1C90.8 47.1 89.7 47.8 88.4 48.2C87.3 48.6 86.1 48.8 85 48.8C83.7 48.9 82.5 48.5 81.5 47.6C80.6 46.6 80.2 45.4 80.3 44.1C80.2 42.6 80.8 41.2 81.9 40.3C83.4 39.3 85.1 38.8 86.9 39C87.9 39 89 39.1 90 39.2C91 39.3 92.1 39.5 93.1 39.7L93 41.1Z" fill="white"/>
<path d="M109.8 50.8C109.9 51.3 110.1 51.8 110.5 52.1C110.9 52.3 111.3 52.5 111.8 52.4H114.7C115.2 52.4 115.6 52.3 116 52.1C116.3 51.7 116.6 51.3 116.6 50.8L121.7 29.3L126.9 50.8C127 51.3 127.2 51.8 127.5 52.1C127.9 52.4 128.4 52.5 128.8 52.4H131.7C132.2 52.4 132.6 52.3 133 52.1C133.4 51.7 133.6 51.3 133.7 50.8L141.7 25C141.8 24.6 141.9 24.4 141.9 24.2C141.9 24 142 23.8 142 23.7C142.1 23.3 141.8 22.9 141.4 22.9C141.3 22.9 141.3 22.9 141.2 22.9H138.1C137.6 22.8 137.2 23 136.8 23.2C136.5 23.6 136.2 24 136.1 24.5L130.3 46.9L125.1 24.5C125 24 124.8 23.5 124.4 23.2C124 22.9 123.5 22.8 123.1 22.9H120.4C119.9 22.9 119.5 23 119.1 23.2C118.8 23.6 118.5 24 118.5 24.5L113.3 46.6L107.7 24.5C107.6 24 107.4 23.6 107 23.2C106.6 22.9 106.2 22.8 105.7 22.9H102.4C102 22.8 101.6 23.1 101.6 23.5C101.6 23.6 101.6 23.6 101.6 23.7C101.7 24.2 101.8 24.6 101.9 25L109.8 50.8Z" fill="white"/>
<path d="M159.4 67C147.4 72.1 134.5 74.7 121.5 74.8C104.1 74.8 86.9999 70.3 71.8 61.6C70.6 60.9 69.5999 62.1 70.6999 63.1C84.2999 75.4 102 82.1 120.3 82C134 82 150 77.7 161 69.6C162.8 68.2 161.2 66.2 159.4 67Z" fill="white"/>
<path d="M152.4 62.5C151.4 63.2 151.6 64.1 152.7 64C156.2 63.6 164.1 62.6 165.5 64.4C166.9 66.2 163.9 73.6 162.6 76.9C162.2 77.9 163.1 78.3 164 77.6C169.9 72.7 171.4 62.3 170.2 60.8C169 59.3 158.7 58 152.4 62.5Z" fill="white"/>
</svg>
