<svg width="240" height="100" viewBox="0 0 240 100" fill="none" xmlns="http://www.w3.org/2000/svg">
<path d="M124.07 46.9277H120.332V36.873C120.332 35.7871 120.379 34.5879 120.473 33.2754H120.379C120.184 34.3066 120.008 35.0488 119.852 35.502L115.914 46.9277H112.82L108.812 35.6191C108.703 35.3145 108.527 34.5332 108.285 33.2754H108.18C108.281 34.9316 108.332 36.3848 108.332 37.6348V46.9277H104.922V30.123H110.465L113.898 40.084C114.172 40.8809 114.371 41.6816 114.496 42.4863H114.566C114.777 41.5566 115 40.748 115.234 40.0605L118.668 30.123H124.07V46.9277ZM129.402 33.0293C128.777 33.0293 128.266 32.8457 127.867 32.4785C127.469 32.1035 127.27 31.6465 127.27 31.1074C127.27 30.5527 127.469 30.0996 127.867 29.748C128.266 29.3965 128.777 29.2207 129.402 29.2207C130.035 29.2207 130.547 29.3965 130.938 29.748C131.336 30.0996 131.535 30.5527 131.535 31.1074C131.535 31.6699 131.336 32.1309 130.938 32.4902C130.547 32.8496 130.035 33.0293 129.402 33.0293ZM131.23 46.9277H127.527V34.9277H131.23V46.9277ZM143.441 46.4941C142.605 46.9785 141.398 47.2207 139.82 47.2207C137.977 47.2207 136.484 46.6621 135.344 45.5449C134.203 44.4277 133.633 42.9863 133.633 41.2207C133.633 39.1816 134.242 37.5762 135.461 36.4043C136.688 35.2246 138.324 34.6348 140.371 34.6348C141.785 34.6348 142.809 34.8223 143.441 35.1973V38.3379C142.668 37.7598 141.805 37.4707 140.852 37.4707C139.789 37.4707 138.945 37.7832 138.32 38.4082C137.703 39.0254 137.395 39.8809 137.395 40.9746C137.395 42.0371 137.691 42.873 138.285 43.4824C138.879 44.084 139.695 44.3848 140.734 44.3848C141.656 44.3848 142.559 44.0957 143.441 43.5176V46.4941ZM153.707 38.2676C153.262 38.0254 152.742 37.9043 152.148 37.9043C151.344 37.9043 150.715 38.2012 150.262 38.7949C149.809 39.3809 149.582 40.1816 149.582 41.1973V46.9277H145.879V34.9277H149.582V37.1543H149.629C150.215 35.5293 151.27 34.7168 152.793 34.7168C153.184 34.7168 153.488 34.7637 153.707 34.8574V38.2676ZM161.066 47.2207C159.066 47.2207 157.492 46.6621 156.344 45.5449C155.203 44.4199 154.633 42.8965 154.633 40.9746C154.633 38.9902 155.227 37.4395 156.414 36.3223C157.602 35.1973 159.207 34.6348 161.23 34.6348C163.223 34.6348 164.785 35.1973 165.918 36.3223C167.051 37.4395 167.617 38.9199 167.617 40.7637C167.617 42.7559 167.031 44.3301 165.859 45.4863C164.695 46.6426 163.098 47.2207 161.066 47.2207ZM161.16 37.4707C160.285 37.4707 159.605 37.7715 159.121 38.373C158.637 38.9746 158.395 39.8262 158.395 40.9277C158.395 43.2324 159.324 44.3848 161.184 44.3848C162.957 44.3848 163.844 43.2012 163.844 40.834C163.844 38.5918 162.949 37.4707 161.16 37.4707ZM169.234 46.6113V43.6113C169.844 43.9785 170.449 44.252 171.051 44.4316C171.66 44.6113 172.234 44.7012 172.773 44.7012C173.43 44.7012 173.945 44.6113 174.32 44.4316C174.703 44.252 174.895 43.9785 174.895 43.6113C174.895 43.377 174.809 43.1816 174.637 43.0254C174.465 42.8691 174.242 42.7324 173.969 42.6152C173.703 42.498 173.41 42.3926 173.09 42.2988C172.77 42.2051 172.461 42.0996 172.164 41.9824C171.688 41.8027 171.266 41.6113 170.898 41.4082C170.539 41.1973 170.234 40.9551 169.984 40.6816C169.742 40.4082 169.555 40.0918 169.422 39.7324C169.297 39.373 169.234 38.9473 169.234 38.4551C169.234 37.7832 169.379 37.2051 169.668 36.7207C169.965 36.2363 170.355 35.8418 170.84 35.5371C171.332 35.2246 171.891 34.998 172.516 34.8574C173.148 34.709 173.805 34.6348 174.484 34.6348C175.016 34.6348 175.555 34.6777 176.102 34.7637C176.648 34.8418 177.188 34.959 177.719 35.1152V37.9746C177.25 37.7012 176.746 37.498 176.207 37.3652C175.676 37.2246 175.152 37.1543 174.637 37.1543C174.395 37.1543 174.164 37.1777 173.945 37.2246C173.734 37.2637 173.547 37.3262 173.383 37.4121C173.219 37.4902 173.09 37.5957 172.996 37.7285C172.902 37.8535 172.855 37.998 172.855 38.1621C172.855 38.3809 172.926 38.5684 173.066 38.7246C173.207 38.8809 173.391 39.0176 173.617 39.1348C173.844 39.2441 174.094 39.3457 174.367 39.4395C174.648 39.5254 174.926 39.6152 175.199 39.709C175.691 39.8809 176.137 40.0684 176.535 40.2715C176.934 40.4746 177.273 40.7129 177.555 40.9863C177.844 41.2598 178.062 41.5801 178.211 41.9473C178.367 42.3145 178.445 42.752 178.445 43.2598C178.445 43.9707 178.289 44.5801 177.977 45.0879C177.672 45.5879 177.262 45.998 176.746 46.3184C176.238 46.6309 175.648 46.8574 174.977 46.998C174.312 47.1465 173.621 47.2207 172.902 47.2207C171.582 47.2207 170.359 47.0176 169.234 46.6113ZM186.309 47.2207C184.309 47.2207 182.734 46.6621 181.586 45.5449C180.445 44.4199 179.875 42.8965 179.875 40.9746C179.875 38.9902 180.469 37.4395 181.656 36.3223C182.844 35.1973 184.449 34.6348 186.473 34.6348C188.465 34.6348 190.027 35.1973 191.16 36.3223C192.293 37.4395 192.859 38.9199 192.859 40.7637C192.859 42.7559 192.273 44.3301 191.102 45.4863C189.938 46.6426 188.34 47.2207 186.309 47.2207ZM186.402 37.4707C185.527 37.4707 184.848 37.7715 184.363 38.373C183.879 38.9746 183.637 39.8262 183.637 40.9277C183.637 43.2324 184.566 44.3848 186.426 44.3848C188.199 44.3848 189.086 43.2012 189.086 40.834C189.086 38.5918 188.191 37.4707 186.402 37.4707ZM202.715 31.998C202.238 31.8105 201.781 31.7168 201.344 31.7168C200.156 31.7168 199.562 32.3613 199.562 33.6504V34.9277H202.305V37.6582H199.562V46.9277H195.871V37.6582H193.855V34.9277H195.871V33.4395C195.871 32.0723 196.316 30.9707 197.207 30.1348C198.098 29.2988 199.309 28.8809 200.84 28.8809C201.59 28.8809 202.215 28.959 202.715 29.1152V31.998ZM211.82 46.7871C211.273 47.0762 210.449 47.2207 209.348 47.2207C206.738 47.2207 205.434 45.8652 205.434 43.1543V37.6582H203.488V34.9277H205.434V32.3379L209.125 31.2832V34.9277H211.82V37.6582H209.125V42.5098C209.125 43.7598 209.621 44.3848 210.613 44.3848C211.004 44.3848 211.406 44.2715 211.82 44.0449V46.7871ZM114.109 72.9277H105.203V56.123H113.734V57.9043H107.172V63.4941H113.242V65.2637H107.172V71.1465H114.109V72.9277ZM127.047 72.9277H125.125V66.084C125.125 63.5371 124.195 62.2637 122.336 62.2637C121.375 62.2637 120.578 62.627 119.945 63.3535C119.32 64.0723 119.008 64.9824 119.008 66.084V72.9277H117.086V60.9277H119.008V62.9199H119.055C119.961 61.4043 121.273 60.6465 122.992 60.6465C124.305 60.6465 125.309 61.0723 126.004 61.9238C126.699 62.7676 127.047 63.9902 127.047 65.5918V72.9277ZM136.246 72.8105C135.793 73.0605 135.195 73.1855 134.453 73.1855C132.352 73.1855 131.301 72.0137 131.301 69.6699V62.5684H129.238V60.9277H131.301V57.998L133.223 57.377V60.9277H136.246V62.5684H133.223V69.3301C133.223 70.1348 133.359 70.709 133.633 71.0527C133.906 71.3965 134.359 71.5684 134.992 71.5684C135.477 71.5684 135.895 71.4355 136.246 71.1699V72.8105ZM145.07 62.873C144.734 62.6152 144.25 62.4863 143.617 62.4863C142.797 62.4863 142.109 62.873 141.555 63.6465C141.008 64.4199 140.734 65.4746 140.734 66.8105V72.9277H138.812V60.9277H140.734V63.4004H140.781C141.055 62.5566 141.473 61.9004 142.035 61.4316C142.598 60.9551 143.227 60.7168 143.922 60.7168C144.422 60.7168 144.805 60.7715 145.07 60.8809V62.873ZM155.746 72.9277H153.824V71.0527H153.777C152.941 72.4902 151.711 73.209 150.086 73.209C148.891 73.209 147.953 72.8926 147.273 72.2598C146.602 71.627 146.266 70.7871 146.266 69.7402C146.266 67.498 147.586 66.1934 150.227 65.8262L153.824 65.3223C153.824 63.2832 153 62.2637 151.352 62.2637C149.906 62.2637 148.602 62.7559 147.438 63.7402V61.7715C148.617 61.0215 149.977 60.6465 151.516 60.6465C154.336 60.6465 155.746 62.1387 155.746 65.123V72.9277ZM153.824 66.8574L150.93 67.2559C150.039 67.3809 149.367 67.6035 148.914 67.9238C148.461 68.2363 148.234 68.7949 148.234 69.5996C148.234 70.1855 148.441 70.666 148.855 71.041C149.277 71.4082 149.836 71.5918 150.531 71.5918C151.484 71.5918 152.27 71.2598 152.887 70.5957C153.512 69.9238 153.824 69.0762 153.824 68.0527V66.8574Z" fill="white"/>
<path d="M38.9897 67.4434C40.3472 68.2924 42.6038 69.2361 44.9898 69.2361C47.1624 69.2361 49.1811 68.6046 50.8534 67.5276C50.8534 67.5276 50.8569 67.5276 50.8604 67.5241L57.1753 63.5669V77.8556C56.1747 77.8556 55.1671 77.5819 54.2925 77.0347L38.9897 67.4434Z" fill="white"/>
<path d="M53.1991 23.7749L27.2226 53.3924C25.2172 55.6819 25.7402 59.1408 28.3413 60.7827C28.3413 60.7827 37.9561 66.8567 39.1683 67.6234C40.5122 68.4706 42.7462 69.4124 45.1083 69.4124C47.2592 69.4124 49.2576 68.7822 50.9132 67.7074C50.9132 67.7074 50.9167 67.7074 50.9201 67.7039L57.1718 63.755L42.0569 54.2046L57.1753 36.9662V22C55.7067 22 54.2382 22.5916 53.1991 23.7749Z" fill="#D9D9D9"/>
<path d="M42.2373 54.0737L42.4153 54.1851L57.172 63.5671H57.1754V36.9417L57.172 36.9382L42.2373 54.0737Z" fill="white"/>
<path d="M86.6094 60.7257C89.2653 59.0931 89.7993 55.6539 87.7517 53.3773L70.3487 34.0542C68.9447 33.4102 67.371 33.0413 65.7053 33.0413C62.434 33.0413 59.5094 34.4302 57.5643 36.6128L57.1788 37.0409L72.612 54.1814L57.1753 63.6776V77.8557C58.1903 77.8557 59.2017 77.5842 60.0858 77.0411L86.6094 60.7222V60.7257Z" fill="white"/>
<path d="M57.1788 22V36.9381L57.5589 36.5083C59.4768 34.3174 62.3607 32.9232 65.5863 32.9232C67.2323 32.9232 68.7806 33.2971 70.165 33.94L61.1716 23.7751C60.1289 22.594 58.6504 22.0035 57.1753 22.0035L57.1788 22Z" fill="#D9D9D9"/>
<path d="M72.7629 54.0747L57.1753 36.9382V63.5671L72.7629 54.0747Z" fill="#D9D9D9"/>
</svg>
