<svg width="240" height="100" viewBox="0 0 240 100" fill="none" xmlns="http://www.w3.org/2000/svg">
<path d="M189.88 58.9201C185.08 58.9201 181.69 55.1701 181.69 50.2401C181.69 45.3101 185.08 41.5601 189.88 41.5601C194.68 41.5601 197.98 45.3101 197.98 50.2401C197.98 55.1701 194.64 58.9201 189.88 58.9201ZM189.11 64.0801C192.98 64.0801 196.28 62.5701 198.36 59.4001C198.75 62.4701 200.97 63.5901 203.78 63.5901H206.02V58.7201H205.06C203.47 58.7201 203.08 57.9501 203.08 56.1401V36.8901H197.94V40.8401C196.19 38.0701 192.9 36.4001 189.12 36.4001C182.38 36.4001 176.19 42.0501 176.19 50.2301C176.19 58.4101 182.4 64.0601 189.12 64.0601V64.0801H189.11ZM162.66 57.4001C162.66 61.7801 165.37 63.5901 168.61 63.5901H174.86V58.7201H170.31C168.42 58.7201 168.03 58.0001 168.03 56.1401V41.7601H174.87V36.8901H168.03V27.9301H162.66V57.4001ZM138.2 63.5901H143.57V52.1401H145.37L154.52 63.5901H161.31L149.64 49.0701L158.6 36.8901H152.55L145.23 47.1801H143.58V27.9301H138.21V63.5901H138.2ZM120.76 36.4101C113.25 36.4101 107.06 42.0601 107.06 50.2401C107.06 58.4201 113.27 64.0701 120.76 64.0701C128.25 64.0701 134.46 58.4201 134.46 50.2401C134.46 42.0601 128.25 36.4101 120.76 36.4101ZM120.76 58.9201C115.96 58.9201 112.57 55.1701 112.57 50.2401C112.57 45.3101 115.96 41.5601 120.76 41.5601C125.56 41.5601 128.95 45.3101 128.95 50.2401C128.95 55.1701 125.56 58.9201 120.76 58.9201Z" fill="white"/>
<path d="M65.1699 22.04L63.9999 36.41C63.4499 36.35 62.8999 36.32 62.3299 36.32C61.6199 36.32 60.9299 36.37 60.2499 36.48L59.5899 29.52C59.5699 29.3 59.7499 29.11 59.9699 29.11H61.1499L60.5799 22.07C60.5599 21.85 60.7399 21.66 60.9399 21.66H64.7999C65.0199 21.66 65.1899 21.85 65.1599 22.07V22.05L65.1699 22.04ZM55.4299 22.75C55.3699 22.55 55.1499 22.42 54.9399 22.5L51.3199 23.82C51.1199 23.9 51.0199 24.14 51.1199 24.32L54.0699 30.75L52.9499 31.16C52.7499 31.24 52.6499 31.48 52.7499 31.66L55.7599 37.98C56.8499 37.38 58.0299 36.92 59.2699 36.64L55.4599 22.75H55.4399H55.4299ZM46.5499 26.75L54.8799 38.5C53.8199 39.19 52.8599 40.01 52.0399 40.96L47.0499 36.05C46.8899 35.89 46.9099 35.64 47.0699 35.5L47.9799 34.74L43.0199 29.72C42.8599 29.56 42.8799 29.31 43.0499 29.17L45.9999 26.7C46.1699 26.56 46.4099 26.59 46.5399 26.76H46.5599L46.5499 26.75ZM39.5599 33.55C39.3899 33.42 39.1299 33.49 39.0199 33.68L37.0999 37.02C36.9899 37.21 37.0699 37.45 37.2599 37.54L43.6599 40.56L43.0599 41.58C42.9499 41.77 43.0299 42.02 43.2299 42.1L49.5899 45.01C50.0499 43.83 50.6599 42.73 51.4199 41.73L39.5599 33.54V33.55ZM34.8499 42.63C34.8799 42.41 35.0999 42.28 35.3099 42.33L49.2499 45.97C48.8899 47.15 48.6799 48.4 48.6499 49.69L41.6699 49.12C41.4499 49.1 41.2899 48.9 41.3399 48.68L41.5399 47.51L34.4999 46.85C34.2799 46.83 34.1399 46.63 34.1699 46.41L34.8299 42.61L34.8499 42.63ZM34.3299 52.05C34.1099 52.07 33.9699 52.27 33.9999 52.49L34.6799 56.29C34.7099 56.51 34.9299 56.64 35.1399 56.59L41.9799 54.81L42.1799 55.98C42.2099 56.2 42.4299 56.33 42.6399 56.28L49.3799 54.42C48.9899 53.25 48.7299 52.01 48.6699 50.73L34.3199 52.05H34.3399H34.3299ZM36.5599 62.03C36.4499 61.84 36.5299 61.6 36.7199 61.51L49.7299 55.34C50.2199 56.51 50.8799 57.59 51.6699 58.57L45.9699 62.63C45.7999 62.76 45.5399 62.71 45.4299 62.52L44.8299 61.48L39.0199 65.5C38.8499 65.63 38.5899 65.56 38.4799 65.37L36.5399 62.03H36.5599ZM52.3299 59.33L42.1999 69.58C42.0399 69.74 42.0599 69.99 42.2299 70.13L45.1899 72.6C45.3599 72.74 45.5999 72.71 45.7299 72.54L49.8299 66.77L50.7399 67.54C50.9099 67.68 51.1699 67.65 51.2899 67.46L55.2599 61.69C54.1899 61.03 53.1999 60.23 52.3499 59.31H52.3299V59.33ZM50.3299 75.79C50.1299 75.71 50.0299 75.47 50.1299 75.29L56.1299 62.18C57.2299 62.75 58.4299 63.17 59.6699 63.41L57.9099 70.18C57.8599 70.38 57.6299 70.51 57.4199 70.43L56.2999 70.02L54.4299 76.84C54.3699 77.04 54.1499 77.17 53.9399 77.09L50.3199 75.77L50.3399 75.79H50.3299ZM60.6599 63.58L59.4899 77.95C59.4699 78.17 59.6499 78.36 59.8499 78.36H63.7099C63.9299 78.36 64.0999 78.17 64.0699 77.95L63.4999 70.91H64.6799C64.8999 70.91 65.0699 70.72 65.0599 70.5L64.3999 63.54C63.7199 63.65 63.0299 63.7 62.3199 63.7C61.7499 63.7 61.1999 63.67 60.6499 63.59L60.6599 63.58ZM74.5599 24.69C74.6499 24.49 74.5599 24.26 74.3599 24.19L70.7399 22.87C70.5399 22.79 70.3099 22.92 70.2499 23.12L68.3799 29.94L67.2599 29.53C67.0599 29.45 66.8299 29.58 66.7699 29.78L65.0099 36.55C66.2699 36.8 67.4499 37.23 68.5499 37.78L74.5699 24.69H74.5599ZM82.4699 30.4L72.3399 40.65C71.4899 39.74 70.5099 38.93 69.4299 38.27L73.3999 32.5C73.5299 32.33 73.7799 32.28 73.9499 32.42L74.8599 33.19L78.9599 27.42C79.0899 27.25 79.3399 27.22 79.4999 27.36L82.4599 29.83C82.6299 29.97 82.6299 30.22 82.4899 30.38H82.4699V30.4ZM87.9499 38.47C88.1499 38.38 88.2199 38.14 88.1099 37.95L86.1699 34.61C86.0599 34.42 85.8099 34.37 85.6299 34.48L79.8199 38.5L79.2199 37.48C79.1099 37.29 78.8599 37.23 78.6799 37.37L72.9799 41.43C73.7699 42.41 74.4099 43.49 74.9199 44.66L87.9299 38.49L87.9499 38.47ZM89.9899 43.7L90.6499 47.5C90.6799 47.72 90.5399 47.91 90.3199 47.94L75.9699 49.28C75.9099 47.99 75.6499 46.76 75.2599 45.59L81.9999 43.73C82.1999 43.67 82.4299 43.81 82.4599 44.03L82.6599 45.2L89.4999 43.42C89.6999 43.37 89.9299 43.5 89.9599 43.72L89.9899 43.7ZM89.3499 57.64C89.5499 57.69 89.7799 57.56 89.8099 57.34L90.4699 53.54C90.4999 53.32 90.3599 53.13 90.1399 53.1L83.0999 52.44L83.2999 51.27C83.3299 51.05 83.1899 50.86 82.9699 50.83L75.9899 50.26C75.9599 51.55 75.7499 52.8 75.3899 53.98L89.3299 57.62L89.3499 57.64ZM85.6299 66.3C85.5199 66.49 85.2699 66.54 85.0899 66.43L73.2299 58.24C73.9899 57.25 74.5999 56.14 75.0599 54.96L81.4199 57.87C81.6199 57.96 81.6999 58.2 81.5899 58.39L80.9899 59.41L87.3899 62.43C87.5799 62.52 87.6599 62.76 87.5499 62.95L85.6299 66.29V66.3ZM69.7699 61.47L78.0999 73.22C78.2299 73.39 78.4799 73.42 78.6399 73.28L81.5899 70.81C81.7599 70.67 81.7599 70.42 81.6199 70.26L76.6599 65.24L77.5699 64.48C77.7399 64.34 77.7399 64.09 77.5899 63.93L72.5999 59.02C71.7699 59.97 70.8199 60.8 69.7599 61.48H69.7799L69.7699 61.47ZM69.6899 77.47C69.4899 77.55 69.2599 77.42 69.1999 77.22L65.3899 63.33C66.6299 63.05 67.8199 62.59 68.8999 61.99L71.9099 68.31C71.9999 68.51 71.9099 68.75 71.7099 68.81L70.5899 69.22L73.5399 75.65C73.6299 75.85 73.5399 76.08 73.3399 76.15L69.7199 77.47H69.6999H69.6899Z" fill="white"/>
</svg>
