<svg width="240" height="100" viewBox="0 0 240 100" fill="none" xmlns="http://www.w3.org/2000/svg">
<path d="M211.7 34.8H207.4V62.3H211.7V34.8Z" fill="white"/>
<path fill-rule="evenodd" clip-rule="evenodd" d="M196.6 44C192.6 44 189.5 45.9 189 49.9H193.2C193.5 48.4 194.6 47.5 196.5 47.5C198.8 47.5 199.8 48.8 199.8 50.8V51.7H195.5C191.5 51.7 188.5 53.5 188.5 57.1C188.5 60.7 190.9 62.6 194.4 62.6C197.1 62.6 198.9 61.4 199.9 59.6H200.1V62.1H204.2V51C204.2 46.6 202 44 196.6 44ZM195.8 59.4C194.1 59.4 193.1 58.6 193.1 57.2C193.1 55.6 194.2 54.8 196.2 54.8H199.9V55.1C199.9 57.8 198.4 59.4 195.8 59.4Z" fill="white"/>
<path fill-rule="evenodd" clip-rule="evenodd" d="M181 62.2999V52.9999C181 50.2999 182.7 48.4999 185.4 48.4999H187.1V44.3999H185.4C183.4 44.3999 181.9 45.1999 180.9 46.8999H180.8V44.3999H176.8V62.1999L181 62.2999Z" fill="white"/>
<path fill-rule="evenodd" clip-rule="evenodd" d="M174 58.4001V62.3H171C166.9 62.3 164.6 60.4 164.6 56.3V48H161.7V44.5H164.6V39.8H168.9V44.5H173.9V48H168.9V55.8C168.9 57.4 169.9 58.4001 171.5 58.4001H174Z" fill="white"/>
<path fill-rule="evenodd" clip-rule="evenodd" d="M147.6 62.3V52C147.6 49.5 149.2 47.8 151.7 47.8C154.1 47.8 155.6 49.2 155.6 51.9V62.3H159.9V51.2C159.9 46.7 157.7 44 153.3 44C150.6 44 148.5 45.2 147.6 46.9H147.4V44.4H143.4V62.2L147.6 62.3Z" fill="white"/>
<path fill-rule="evenodd" clip-rule="evenodd" d="M131.8 59.2C129.1 59.2 127.3 57.4 127.2 54.5H140.4V53.1C140.4 47.1 136.5 44 131.8 44C126.7 44 123 47.6 123 53.4C123 59.1 126.5 62.8 131.8 62.8C136.3 62.8 139.2 60.4 140.1 56.9H135.9C135.4 58.2 134.2 59.2 131.8 59.2ZM131.7 47.6C134.5 47.6 136.2 49.2 136.3 51.4H127.1C127.5 49.2 128.9 47.6 131.7 47.6Z" fill="white"/>
<path fill-rule="evenodd" clip-rule="evenodd" d="M110 62.8C116.4 62.8 120.1 59.2001 120.9 53.9001H116.5C115.9 56.3001 114.1 58.5 109.9 58.5C105.6 58.5 102.2 55.6001 102.2 49.2001C102.2 42.8001 105.6 39.9001 109.9 39.9001C114.2 39.9001 115.9 42.1 116.5 44.5H120.9C120.2 39.2 116.6 35.8 110 35.8C102.9 35.8 97.7 40.8 97.7 49.3C97.7 57.8 102.9 62.8 110 62.8Z" fill="white"/>
<path fill-rule="evenodd" clip-rule="evenodd" d="M90.7 44.5V46.9H90.5C89.5 45.2 87.5 44 84.7 44C80.5 44 76.8 47.3 76.8 53.1C76.8 58.9 80.5 62.3 84.7 62.3C87.4 62.3 89.1 61.2 90.3 59.3H90.5V63.1C90.5 65.1 89.4 66 87.6 66H78.9V69.8H87.6C92.4 69.8 95 67.1 95 62.7V44.5H90.7ZM85.9 58.4C83 58.4 81.2 56.6 81.2 53.1C81.2 49.6 83 47.8 85.9 47.8C88.7 47.8 90.5 49.6 90.5 53.1C90.5 56.6 88.7 58.4 85.9 58.4Z" fill="white"/>
<path fill-rule="evenodd" clip-rule="evenodd" d="M61.9001 62.3V52C61.9001 49.5 63.5 47.8 66 47.8C68.4 47.8 69.9001 49.2 69.9001 51.9V62.3H74.2V51.2C74.2 46.7 72 44 67.6 44C64.9 44 62.8001 45.2 61.9001 46.9H61.8V44.4H57.8V62.2L61.9001 62.3Z" fill="white"/>
<path d="M53.8999 44.5H49.5999V62.3H53.8999V44.5Z" fill="white"/>
<path fill-rule="evenodd" clip-rule="evenodd" d="M42.0999 50V49.7999C44.6999 49.0999 46.5 47.2999 46.5 43.2999C46.5 39.1999 43.4999 36.2 37.7999 36.2H28.2V62.2H32.7V52H38.0999C40.5999 52 41.9 53.2999 41.9 55.7999V62.4H46.4V55.7999C46.4 52.0999 44.7999 50.6 42.0999 50ZM37.5999 48H32.7V40.4H37.5999C39.9999 40.4 41.9 41.4 41.9 44.2C41.9 47 39.9999 48 37.5999 48Z" fill="white"/>
<path fill-rule="evenodd" clip-rule="evenodd" d="M51.7999 41.6C52.3999 41.6 52.8999 41.4 53.3999 41.1C53.8999 40.8 54.1999 40.3 54.4999 39.8C54.6999 39.3 54.7999 38.7 54.6999 38.1C54.5999 37.5 54.2999 37 53.8999 36.6C53.4999 36.2 52.9999 35.9 52.3999 35.8C51.7999 35.7 51.2999 35.7 50.6999 36C50.1999 36.2 49.6999 36.6 49.3999 37.1C49.0999 37.6 48.8999 38.1 48.8999 38.7C48.8999 39.3 49.0999 39.8 49.3999 40.3C49.6999 40.8 50.1999 41.1 50.6999 41.4C50.9999 41.5 51.3999 41.6 51.7999 41.6Z" fill="white"/>
<path fill-rule="evenodd" clip-rule="evenodd" d="M48.5 30.8C47.5 31.2 46.5 31.9 45.7 32.7L47.7 34.7C48.2 34.2 48.8999 33.7 49.5999 33.5C50.2999 33.2 50.9999 33.1 51.7999 33.1C52.5999 33.1 53.3 33.2 54 33.5C54.7 33.8 55.3 34.2 55.9 34.7L57.9 32.7C56.7 31.5 55.2 30.7 53.5 30.4C51.8 30 50.1 30.2 48.5 30.8Z" fill="white"/>
</svg>
