<svg width="240" height="100" viewBox="0 0 240 100" fill="none" xmlns="http://www.w3.org/2000/svg">
<path d="M24.8 44.1C25.5 43.9 26.1 43.6 26.8 43.5C28.1 43.2 29.4001 43.4001 30.7001 43.7001C32.3001 44.1001 33.8001 44.5001 35.4001 44.9001C36.1001 45.1001 36.8 45.1001 37.5 45.2001C37.6 45.2001 37.7 45.2001 37.8 45.2001C36.9 45.0001 36.0001 44.8 35.2001 44.6C33.3001 44.2 31.5 43.5001 30 42.4001C28 40.9001 26.7 38.9 25.9 36.5C25.8 36.2 25.7 36 25.6 35.6C26.6 35.8 27.5 35.9 28.4 36C29.6 36.2 30.6 36.8 31.5 37.5C32.4 38.2 33.3 38.8001 34.1 39.4001C34.2 39.5001 34.3001 39.6001 34.4001 39.7001C34.1001 39.4001 33.8 39.0001 33.5 38.7001C32.1 37.3001 31.2 35.6 31 33.6C30.8 31.9 31.1 30.3 31.8 28.8C32.1 28.1 32.5 27.5 32.8 26.8C32.6 28.2 32.6 29.5 33 30.8C33.5 32.3 34.5001 33.5 35.7001 34.6C36.9001 35.6 38.1 36.5001 39.3 37.4001C40.5 38.3001 41.6 39.3 42.5 40.5C43.6 42.1 44 44.0001 43.8 45.9001C43.7 46.7001 43.5 47.4001 43.3 48.2001C43.3 48.3001 43.3 48.4 43.3 48.5C43.8 47.9 44.1 47.1 44.3 46.3C44.8 44.4 44.7 42.5 44.1 40.6C43.8 39.6 43.3 38.6 43 37.6C44 38.1 44.9001 38.9 45.7001 39.8C46.5001 40.7 47.1 41.7 47.5 42.8C47.9 41.4 47.8001 40.1 47.4001 38.8C47.9001 39 49 40.1 49.6 41.1C50.2 42 50.6001 43 51.2001 44C51.3001 43.1 51.5 42.2 51.6 41.3C53.1 43.6 54.5 45.9 55.1 48.6C53.2 48.7 51.5001 48.2001 49.7001 47.9001C51.4001 49.3001 53.5 49.5001 55.6 49.4001C55.3 52.3001 55.6001 55.1001 57.2001 57.7001C56.5001 57.4001 55.5 56.1001 55.1 54.9001C54.7 53.8001 54.6 52.6001 54.6 51.4001C53.3 51.5001 52.1001 51.4 50.9001 51C49.7001 50.6 48.7 49.9 48.1 48.8H48C47.9 49.3 47.8001 49.8 47.7001 50.3C47.4001 52.9 48.3001 55.1001 49.7001 57.2001C49.8001 57.4001 50.0001 57.6 50.2001 57.8C50.3001 57.9 50.3001 58.1001 50.2001 58.2001C49.4001 59.5001 49 60.9001 49 62.4001C49 63.3001 49.2 64.1001 49.5 64.9001C50.6 67.2001 50.5 69.6 49.8 72C49.7 72.4 49.5001 72.8 49.4001 73.2C49.4001 73.2 49.4 73.2001 49.3 73.3001C49.2 72.8001 49.2 72.2 49.1 71.7C48.7 69.6 47.5001 68 45.9001 66.7C43.4001 64.6 40.6001 63.4 37.4001 62.8H37.3C38.6 62.2 39.8 61.4001 40.8 60.4001C41.8 59.4001 42.7001 58.3001 43.2001 56.9001C44.2001 58.7001 45.6 59.9001 47.5 60.4001C44.8 58.0001 43.3001 54.9001 43.2001 51.2001H43.1C43 51.7001 42.8001 52.2001 42.7001 52.7001C42.5001 53.6001 42.5 54.6 42.8 55.5C42.8 55.6 42.8 55.8001 42.8 55.9001C41.8 57.9001 40.4001 59.6001 38.4001 60.7001C37.8001 61.1001 37.1 61.3001 36.3 61.4001C36 61.4001 35.9001 61.3 35.9001 61C35.9001 60.1 36.2 59.3001 36.8 58.7001C37.6 57.9001 38.4001 57.1001 39.2001 56.2001C39.5001 55.8001 39.8 55.4 40 55C38.1 57.6 35.7 59.3 32.5 59.8C32.4 58.8 32.7001 58.0001 33.4001 57.4001C34.0001 56.9001 34.8 56.4 35.5 56C36.5 55.3 37.6 54.6 38.6 54C38.7 53.9 38.9 53.8 39 53.6C36.3 55.5 33.5 57.2 29.9 57.1C30 56.8 30.1001 56.6001 30.2001 56.4001C30.9001 55.1001 31.9 54.2001 33.3 53.7001C34.6 53.2001 35.9 52.7001 37.3 52.2001C37.8 52.0001 38.3 51.7 38.8 51.5C34.4 53.2 30 53.7 25.4 52.3C25.4 52.2 25.4 52.2001 25.4 52.2001C26.8 50.9001 28.3001 49.8001 30.2001 49.4001C31.2001 49.2001 32.2 49.1001 33.3 49.2001C34.8 49.3001 36.4001 49.3001 37.9001 48.9001C38.1001 48.9001 38.2001 48.8001 38.4001 48.7001C38.0001 48.8001 37.7 48.8001 37.3 48.9001C34.5 49.2001 31.8001 49.1 29.2001 48.1C27.4001 47.4 26 46.3 25 44.6C25 44.3 24.9 44.2 24.8 44.1Z" fill="white"/>
<path d="M123 60.8001C122.4 60.8001 121.8 60.8001 121.2 60.8001C120.6 60.8001 120 60.8001 119.3 60.8001C119.1 60.8001 118.9 60.7001 118.8 60.5001C116.2 56.3001 113.6 52.0001 111 47.8001C110.9 47.7001 110.9 47.6001 110.7 47.5001C110.7 51.9001 110.7 56.3001 110.7 60.8001C109.2 60.8001 107.8 60.8001 106.4 60.8001C106.4 53.7001 106.4 46.5001 106.4 39.3001C106.5 39.3001 106.6 39.3001 106.7 39.3001C107.7 39.3001 108.8 39.3001 109.8 39.3001C110.2 39.3001 110.4 39.4001 110.6 39.7001C113.2 43.9001 115.7 48.1001 118.3 52.2001C118.4 52.3001 118.4 52.4001 118.6 52.5001C118.6 48.1001 118.6 43.7001 118.6 39.2001C120.1 39.2001 121.5 39.2001 122.9 39.2001C123 46.5001 123 53.6001 123 60.8001Z" fill="white"/>
<path d="M160.3 60.8C159.7 60.8 159.1 60.8 158.6 60.8C157.9 60.8 157.1 60.8 156.4 60.8C156.1 60.8 156 60.7 155.9 60.5C154.5 58 153.1 55.5 151.8 53C151.7 52.8 151.5 52.7001 151.2 52.7001C150.3 52.7001 149.5 52.7001 148.6 52.7001C148.3 52.7001 148.2 52.8 148.2 53.1C148.2 55.5 148.2 57.9001 148.2 60.4001C148.2 60.5001 148.2 60.7 148.2 60.8C146.8 60.8 145.3 60.8 143.9 60.8C143.9 53.7 143.9 46.5 143.9 39.3C144 39.3 144.1 39.3 144.2 39.3C147.3 39.3 150.4 39.3 153.5 39.3C154.4 39.3 155.3 39.5 156.1 39.8C157.7 40.4 158.8 41.5001 159.3 43.2001C159.9 45.1001 159.9 47.0001 159.3 48.9001C158.8 50.3001 157.9 51.4 156.5 52.1C156.4 52.1 156.3 52.2 156.2 52.3C156.3 52.4 156.3 52.5 156.4 52.6C157.6 54.7 158.7 56.8001 159.9 58.9001C160.1 59.3001 160.3 59.7 160.2 60.1C160.3 60.3 160.3 60.5 160.3 60.8ZM148.2 43.1C148.2 43.2 148.2 43.2001 148.2 43.2001C148.2 45.1001 148.2 46.9 148.2 48.8C148.2 49 148.3 49 148.5 49C150 49 151.5 49.0001 153 48.9001C154.3 48.8001 155.1 48.1 155.4 46.8C155.5 46.4 155.5 46.1001 155.5 45.7001C155.4 44.0001 154.5 43 152.9 43C151.5 42.9 150 43 148.6 43C148.4 43.1 148.3 43.1 148.2 43.1Z" fill="white"/>
<path d="M196 46.0001C194.6 46.0001 193.1 46.0001 191.7 46.0001C191.7 45.7001 191.6 45.4001 191.6 45.1001C191.3 43.9001 190.5 43.3001 189.4 43.0001C188.3 42.7001 187.2 42.7001 186.1 43.1001C185.7 43.2001 185.2 43.5001 184.9 43.8001C184 44.6001 184.2 46.1001 185.3 46.6001C186.1 47.1001 187.1 47.4001 188 47.7001C189.7 48.4001 191.4 49.0001 193.1 49.8001C194.5 50.4001 195.5 51.5001 196.1 52.9001C196.8 54.7001 196.3 57.7001 194.3 59.4001C193.1 60.3001 191.8 60.9001 190.3 61.1001C188.4 61.4001 186.6 61.4001 184.8 60.8001C183 60.2001 181.4 59.2001 180.5 57.5001C179.9 56.4001 179.7 55.2001 179.7 53.9001C179.8 53.9001 179.9 53.9001 180 53.9001C181.2 53.9001 182.4 53.9001 183.7 53.9001C183.9 53.9001 184 53.9001 184.1 54.2001C184.2 56.2001 185.4 56.9001 187.1 57.3001C188.1 57.5001 189.1 57.5001 190.1 57.2001C190.5 57.1001 190.9 56.9001 191.2 56.6001C192.1 55.9001 192.3 54.3001 191 53.6001C190.3 53.2001 189.6 52.9001 188.9 52.6001C187.2 51.9001 185.4 51.2001 183.7 50.5001C183.1 50.3001 182.6 49.9001 182.1 49.5001C180.9 48.6001 180.3 47.4001 180.3 45.9001C180.2 44.0001 180.7 42.4001 182.1 41.0001C183 40.1001 184.2 39.6001 185.4 39.3001C187.6 38.8001 189.9 38.8001 192 39.6001C194.5 40.5001 195.9 42.4001 196.2 45.0001C196.2 45.3001 196.2 45.7001 196.3 46.0001C196.1 45.9001 196.1 45.9001 196 46.0001Z" fill="white"/>
<path d="M215 46.1C213.5 46.1 212.1 46.1 210.7 46.1C210.7 45.8 210.6 45.5 210.6 45.2C210.3 44 209.5 43.3 208.4 43C207.3 42.7 206.2 42.7 205.1 43.1C204.3 43.4 203.6 43.8 203.4 44.7C203.2 45.5 203.5 46.3 204.2 46.7C205.1 47.2 206.1 47.5 207.1 47.9C208.7 48.6 210.4 49.1 211.9 49.9C213.3 50.6 214.4 51.6 214.9 53.1C215.6 55.2 215 58.1 212.8 59.7C211.6 60.5 210.4 61 209 61.2C207.2 61.5 205.5 61.5 203.7 61C201.8 60.5 200.2 59.5 199.2 57.7C198.6 56.6 198.4 55.5 198.3 54.3C198.3 54.1 198.4 54 198.6 54C199.9 54 201.1 54 202.4 54C202.5 54 202.6 54.1 202.6 54.2C202.7 55.9 203.7 56.8 205.2 57.2C206.4 57.5 207.5 57.5 208.6 57.2C209.1 57 209.6 56.8 210 56.3C210.7 55.4 210.6 54.2 209.6 53.6C208.7 53.1 207.8 52.8 206.9 52.4C205.4 51.8 203.9 51.3 202.5 50.6C201.8 50.3 201.2 49.9 200.6 49.4C199.2 48.3 198.7 46.7 198.8 45C199 42.4 200.3 40.6 202.7 39.7C205.5 38.6 208.4 38.6 211.2 39.8C213.2 40.7 214.3 42.4 214.7 44.5C214.9 44.9 214.9 45.5 215 46.1Z" fill="white"/>
<path d="M77.3001 60.8001C77.3001 57.9001 77.3001 54.9001 77.3001 52.0001C77.2001 52.0001 77.1001 52.0001 76.9001 52.0001C74.5001 52.0001 72.1001 52.0001 69.7001 52.0001C69.4001 52.0001 69.3001 52.1001 69.3001 52.4001C69.3001 55.1001 69.3001 57.8001 69.3001 60.4001C69.3001 60.5001 69.3001 60.7001 69.3001 60.8001C69.2001 60.8001 69.1001 60.8001 68.9001 60.8001C67.7001 60.8001 66.5001 60.8001 65.3001 60.8001C65.0001 60.8001 64.9001 60.7001 64.9001 60.4001C64.9001 58.7001 64.9001 57.0001 64.9001 55.2001C64.9001 50.0001 64.9001 44.9001 64.9001 39.7001C64.9001 39.2001 64.9001 39.2001 65.4001 39.2001C66.5001 39.2001 67.7001 39.2001 68.8001 39.2001C68.9001 39.2001 69.0001 39.2001 69.2001 39.2001C69.2001 42.2001 69.2001 45.1001 69.2001 48.0001C71.9001 48.0001 74.5001 48.0001 77.1001 48.0001C77.1001 45.1001 77.1001 42.1001 77.1001 39.2001C78.6001 39.2001 80.0001 39.2001 81.4001 39.2001C81.4001 46.3001 81.4001 53.5001 81.4001 60.7001C80.2001 60.8001 78.8001 60.8001 77.3001 60.8001Z" fill="white"/>
<path d="M98.0001 39.3001C99.5001 39.3001 100.9 39.3001 102.3 39.3001C102.3 39.4001 102.3 39.6001 102.3 39.7001C102.3 44.4001 102.3 49.2001 102.3 53.9001C102.3 57.6001 100 60.4001 96.3001 61.0001C94.2001 61.4001 92.1001 61.3001 90.1001 60.5001C87.4001 59.4001 85.9001 57.5001 85.7001 54.6001C85.7001 54.2001 85.6001 53.8001 85.6001 53.4001C85.6001 48.8001 85.6001 44.3001 85.6001 39.7001C85.6001 39.6001 85.6001 39.4001 85.6001 39.2001C87.0001 39.2001 88.5001 39.2001 89.9001 39.2001C89.9001 39.3001 89.9001 39.5001 89.9001 39.6001C89.9001 44.3001 89.9001 48.9001 89.9001 53.6001C89.9001 55.6001 91.2001 56.9001 93.1001 57.1001C93.8001 57.2001 94.5001 57.1001 95.1001 57.0001C96.9001 56.6001 97.8001 55.4001 97.8001 53.5001C97.8001 48.9001 97.8001 44.2001 97.8001 39.6001C98.0001 39.6001 98.0001 39.5001 98.0001 39.3001Z" fill="white"/>
<path d="M141.7 39.3C141.7 40.2 141.7 41.1001 141.7 41.9001C141.7 42.2001 141.7 42.4001 141.7 42.7001C141.7 43.0001 141.6 43 141.4 43C140.4 43 139.3 43 138.3 43C137.6 43 136.8 43 136.1 43C135.8 43 135.7 43.1001 135.7 43.4001C135.7 48.6001 135.7 53.8 135.7 59C135.7 59.6 135.7 60.1001 135.7 60.7001C135.6 60.7001 135.4 60.7001 135.3 60.7001C134.1 60.7001 133 60.7001 131.8 60.7001C131.4 60.7001 131.4 60.7 131.4 60.3C131.4 54.8 131.4 49.2001 131.4 43.7001C131.4 43.0001 131.4 43 130.7 43C129 43 127.4 43 125.7 43C125.4 43 125.3 42.9 125.3 42.6C125.3 41.6 125.3 40.6 125.3 39.6C125.3 39.4 125.4 39.3 125.6 39.3C130.9 39.3 136.2 39.3 141.5 39.3C141.5 39.3 141.5 39.3 141.7 39.3Z" fill="white"/>
<path d="M176.2 48.2001C176.2 49.3001 176.2 50.4001 176.2 51.5001C176.2 51.6001 176.2 51.6001 176.2 51.8001C173.5 51.8001 170.7 51.8001 168 51.8001C168 53.5001 168 55.3001 168 57.0001C168.2 57.0001 168.3 57.0001 168.5 57.0001C171.4 57.0001 174.3 57.0001 177.3 57.0001C177.7 57.0001 177.7 57.0001 177.7 57.5001C177.7 58.6001 177.7 59.7001 177.7 60.8001C173 60.8001 168.4 60.8001 163.7 60.8001C163.7 60.2001 163.6 59.6001 163.9 59.1001C165.6 55.7001 167.1 52.2001 168.2 48.6001C168.2 48.4001 168.3 48.3001 168.5 48.3001C171 48.3001 173.6 48.3001 176.1 48.3001C176.1 48.2001 176.1 48.2001 176.2 48.2001Z" fill="white"/>
<path d="M58.2001 56.9C57.9001 56 57.6001 55.1 57.4001 54.1C57.1001 53 57 51.8 57 50.7C56.9 47 55.5 43.9 53 41.2C52.8 41 52.7 40.8 52.6 40.6C52.2 39.9 51.7 39.2 51.3 38.4C51.3 38.3 51.2 38.3 51.1 38.2C51.1 38.6 51.1001 39 51.2001 39.4C50.6001 39 50 38.7 49.5 38.4C49.3 38.3 49.2 38.2 49 38.1C48.2 37.9 47.7 37.2 47.1 36.7C46.9 36.5 46.6 36.3 46.3 36.2C46.4 36.5 46.5 36.9 46.6 37.2C46 37.1 45.3001 36.9 44.7001 36.9C43.9001 36.9 43.3 36.4 42.6 36.1C42.3 35.9 41.9 35.8 41.5 35.5C41.7 36 41.9 36.3 42.1 36.7C41.6 36.9 41.1 36.8 40.6 36.5C39.9 36 39.2 35.6 38.5 35.2C38.4 35.2 38.4 35.1 38.3 35C42.7 33.6 49.3001 34.2 54.2001 38.9C59.5001 43.9 60.5 51.1 58.5 56.7C58.3 56.9 58.3001 56.9 58.2001 56.9Z" fill="white"/>
<path d="M48.8 51.1001C50.2 52.1001 51.9 52.2001 53.6 52.4001C53.5 52.9001 53.4 53.3001 53.3 53.8001C53.3 53.8001 53.4001 53.8001 53.4001 53.9001C53.6001 53.8001 53.7001 53.7001 53.9001 53.6001C53.8001 53.7001 53.8001 53.8001 53.7001 53.9001C53.8001 53.8001 54 53.7001 54.1 53.7001C54 53.8001 53.8 54.0001 53.6 54.1001C53.7 54.1001 53.9 54.1001 54 54.1001C53.9 54.1001 53.7 54.2001 53.6 54.2001C53.3 54.2001 53.3 54.3001 53.3 54.6001C53.6 56.1001 54.3 57.3001 55.5 58.2001C55.7 58.3001 55.7 58.5001 55.6 58.7001C55.4 59.3001 55.0001 59.7001 54.4001 59.8001C54.1001 59.9001 54.0001 60.1001 54.2001 60.3001C54.4001 60.6001 54.6 60.8001 54.8 61.0001C55.1 61.3001 55.1 61.6001 54.8 61.8001C54.4 62.0001 54 62.2001 53.6 62.4001C53.7 62.5001 54 62.7001 54.1 63.0001C54.4 63.4001 54.2 63.6001 53.8 63.7001C53.3 63.8001 52.9001 64.3001 52.9001 64.9001C52.9001 65.4001 52.9001 66.0001 52.9001 66.5001C52.9001 67.2001 52.1001 68.1001 51.4001 68.1001C51.3001 67.4001 51.2 66.7001 51 66.0001C50.9 65.5001 50.7 65.0001 50.5 64.5001C49.6 62.3001 49.8 60.2001 51.1 58.3001C51.5 57.7001 51.5 57.7001 51.1 57.2001C50 55.8001 49.1 54.4001 48.8 52.6001C48.8 52.2001 48.8 51.7001 48.8 51.1001Z" fill="white"/>
<path d="M26.1001 53.3C26.7001 53.4 27.2001 53.5 27.8001 53.6H27.9001C28.6001 53.7 28.6001 53.7001 28.8001 54.4001C30.3001 60.1001 34.0001 63.7 39.7001 65.1C40.5001 65.3 41.4001 65.3001 42.3001 65.4001C42.4001 65.4001 42.5001 65.4 42.6001 65.5C43.6001 66 44.6001 66.5001 45.4001 67.3001C45.5001 67.4001 45.5001 67.4 45.7001 67.6C41.5001 68.3 37.6001 67.6001 34.1001 65.4001C29.5001 62.7001 27.0001 58.6 26.1001 53.3Z" fill="white"/>
<path d="M163.7 39.3C165.2 39.3 166.6 39.3 168.1 39.3C167.8 45.1 166 50.5 163.7 55.8C163.7 50.3 163.7 44.8 163.7 39.3Z" fill="white"/>
<path d="M169.4 43C169.5 41.8 169.6 40.5 169.8 39.3C172.4 39.3 175 39.3 177.7 39.3C177.7 39.7 177.7 40.0001 177.7 40.4001C177.7 41.2001 177.7 42 177.7 42.8C177.7 43 177.7 43.1 177.4 43.1C174.8 43.1 172.2 43.1 169.6 43.1C169.5 43.1 169.5 43 169.4 43Z" fill="white"/>
<path d="M26.1001 50.1C26.2001 49.2 26.3001 48.3 26.5001 47.4C27.4001 47.8 28.2001 48.2 29.0001 48.6C28.0001 49.1 27.1001 49.6 26.1001 50.1Z" fill="white"/>
<path d="M29.6 42.8C29.1 42.8 28.6 42.7001 28 42.7001C28.2 42.4001 28.3 42.1 28.5 41.8C28.9 42.2 29.2 42.5 29.6 42.8Z" fill="white"/>
</svg>
