<svg width="240" height="100" viewBox="0 0 240 100" fill="none" xmlns="http://www.w3.org/2000/svg">
<path d="M43.1 66.6C43.2 66.2 43.2 35.6 43.1 34.9L27.5 38.6V60.1L19.5 63.2C19.5 63.1 19.5 63 19.5 63V36.9C19.6 36.8 19.8 36.7 19.9 36.7L42.8 28.1C43 28 43.3 28 43.6 28C47.8 29.2 52 30.4 56.2 31.6L56.4 31.7V68.4L52.8 69.4L43.7 71.9C43.4 72 43.1 72 42.9 71.9L20.4 63.6C20.2 63.5 20.1 63.5 20 63.4L43.3 66.6H43.1Z" fill="white"/>
<path d="M99.9 46.9999H96.7V44.3999H99.8C100 44.1999 99.9 44.0999 99.9 43.8999V41.1999C99.9 40.0999 100.1 39.0999 100.6 38.0999C101.5 36.1999 103.4 34.9999 105.5 34.8999C106.2 34.7999 107 34.8999 107.7 35.0999L108.1 35.1999V37.8999C108 37.9999 107.9 37.8999 107.8 37.7999C107 37.4999 106.1 37.3999 105.3 37.5999C104.5 37.7999 103.9 38.2999 103.5 38.9999C103.3 39.4999 103.1 39.9999 103.1 40.4999C103 41.7999 103.1 43.0999 103.1 44.3999H110.4C110.5 44.2999 110.5 44.0999 110.5 43.9999C110.5 42.9999 110.5 41.9999 110.5 41.0999C110.5 39.3999 111.1 37.7999 112.3 36.5999C113.2 35.6999 114.5 35.0999 115.8 34.9999C116.6 34.8999 117.4 34.9999 118.1 35.0999C118.3 35.0999 118.5 35.1999 118.6 35.2999V37.9999C118.1 37.7999 117.6 37.6999 117.1 37.5999C116.6 37.4999 116.1 37.5999 115.6 37.6999C114.8 37.8999 114.1 38.3999 113.8 39.1999C113.6 39.6999 113.4 40.2999 113.4 40.8999C113.4 41.9999 113.4 43.1999 113.4 44.2999C113.4 44.3999 113.4 44.3999 113.4 44.4999H117.8V47.0999H113.4V63.3999H110.4C110.4 62.5999 110.4 61.8999 110.4 61.0999C110.4 60.2999 110.4 59.5999 110.4 58.7999V46.9999H103V63.1999H100C100 62.5999 100 61.9999 100 61.3999L99.9 46.9999Z" fill="white"/>
<path d="M69.6001 50.4C69.6001 47.9 70.1001 45.4 71.1001 43.1C72.7001 39.7 75.8001 37.3 79.4001 36.7C81.6001 36.2 84.0001 36.3 86.2001 36.9C89.7001 37.9 92.5001 40.6 93.7001 44C94.5001 46.3 94.9001 48.7 94.7001 51.1C94.6001 52.7 94.3001 54.3 93.8001 55.8C92.5001 60 88.8001 63 84.4001 63.6C81.9001 64.1 79.2001 63.8 76.8001 62.8C73.8001 61.5 71.6001 59.1 70.5001 56C70.0001 54.2 69.7001 52.3 69.6001 50.4ZM91.5001 49.9C91.5001 49.5 91.5001 49 91.4001 48.5C91.3001 46.9 90.9001 45.3 90.2001 43.9C89.3001 42 87.7001 40.5 85.8001 39.8C84.8001 39.4 83.7001 39.2 82.7001 39.2C79.3001 39 76.2001 40.7 74.5001 43.7C73.6001 45.2 73.1001 46.9 73.0001 48.7C72.8001 50.9 73.0001 53.2 73.8001 55.3C74.6001 57.5 76.3001 59.4 78.5001 60.3C79.9001 60.9 81.5001 61.1 83.1001 60.9C86.3001 60.8 89.2001 58.8 90.4001 55.8C91.2001 53.9 91.5001 51.9 91.5001 49.9Z" fill="white"/>
<path d="M201.1 37.1V39.9C201 40 200.9 39.9 200.8 39.9C199.7 39.4 198.6 39.1 197.4 39C195.4 38.8 193.4 39.5 192.1 41C191.1 42.1 190.3 43.4 189.9 44.8C189.3 46.6 189.1 48.4 189.1 50.3C189.3 50.3 189.3 50.1 189.4 49.9C190 48.7 191 47.8 192.2 47.2C192.9 46.9 193.7 46.7 194.5 46.6C195.6 46.5 196.7 46.6 197.8 46.9C199.9 47.6 201.6 49.2 202.2 51.3C203 53.6 203 56.2 202.1 58.4C200.8 61.7 197.6 63.8 194 63.5C191.7 63.5 189.5 62.3 188.2 60.3C187.3 58.9 186.6 57.4 186.3 55.7C185.9 53.5 185.8 51.2 186 48.9C186.1 46.8 186.6 44.7 187.5 42.7C188.2 40.9 189.4 39.2 191 38C192.6 36.7 194.6 36.1 196.6 36.1C197.8 36.1 199 36.2 200.1 36.5C200.4 36.8 200.7 37 201.1 37.1ZM189.2 55.1C189.2 56.7 189.8 58.3 190.9 59.5C192.3 61.1 194.6 61.6 196.5 60.7C197.9 60.1 198.9 58.9 199.3 57.4C199.8 55.8 199.7 54.2 199.2 52.6C198.8 51.2 197.8 50.1 196.4 49.6C195.3 49.2 194.2 49.1 193.1 49.4C190.8 50 189.2 52.2 189.2 55.1Z" fill="white"/>
<path d="M206.2 50C206.5 45.7 206.8 41.3 207.1 36.9H219.3V39.5H219.2H209.8C209.6 42.1 209.4 44.6 209.3 47.2C209.5 47.3 209.7 47.3 209.8 47.2C211.1 47.1 212.4 47.1 213.6 47.3C215.2 47.5 216.8 48.1 218 49.1C219.3 50.1 220.2 51.6 220.4 53.2C220.7 54.9 220.6 56.6 220.1 58.2C219.3 60.5 217.4 62.3 215.1 63.1C213.6 63.6 212 63.8 210.5 63.7C209.3 63.7 208.2 63.5 207 63.2C206.6 63.1 206.3 62.9 205.9 62.7C205.8 62.6 205.7 62.5 205.7 62.4C205.7 61.4 205.7 60.4 205.7 59.4C205.8 59.4 206 59.5 206.1 59.5C207.4 60.3 208.9 60.8 210.4 61C211.7 61.2 213 61 214.2 60.5C216 59.8 217.2 58 217.4 56.1C217.5 55.3 217.4 54.5 217.3 53.7C216.9 52.2 215.8 51 214.3 50.4C213.4 50 212.4 49.8 211.5 49.8C209.8 49.7 208.2 49.8 206.6 50C206.4 50 206.2 50 206.2 50Z" fill="white"/>
<path d="M159.6 54.6H146.3C146.3 55.2 146.3 55.9 146.5 56.5C146.7 57.4 147.1 58.3 147.6 59C148.5 60.1 149.8 60.9 151.2 61C153.5 61.3 155.9 60.7 157.8 59.4L158.2 59.2H158.3C158.4 59.3 158.3 59.5 158.3 59.6C158.3 60.2 158.3 60.8 158.3 61.4C158.3 61.7 158.2 62 157.9 62.2C156.9 62.8 155.9 63.2 154.8 63.4C153.1 63.8 151.4 63.8 149.7 63.5C147 63 144.8 61.2 143.9 58.7C143.5 57.7 143.2 56.6 143.2 55.5C143 53.6 143.2 51.8 143.8 50C144.5 47.7 146.1 45.8 148.2 44.8C150.3 43.7 152.8 43.6 155 44.5C156.9 45.2 158.4 46.8 159 48.7C159.4 49.8 159.6 51 159.7 52.2C159.6 52.9 159.6 53.7 159.6 54.6ZM156.5 52C156.6 50.7 156.2 49.4 155.5 48.3C155.1 47.7 154.5 47.2 153.8 46.9C152.2 46.2 150.4 46.4 148.9 47.4C147.4 48.5 146.5 50.2 146.3 52H156.5Z" fill="white"/>
<path d="M170 50.8V48.3C170.2 48.2 170.4 48.2 170.6 48.3C171.6 48.3 172.6 48.3 173.6 48.2C174.4 48.1 175.3 47.9 176.1 47.6C177.6 47 178.6 45.6 178.7 44C178.8 43.3 178.7 42.7 178.6 42C178.3 40.5 177.1 39.4 175.5 39.1C173.3 38.6 171 39.1 169.2 40.3L168.9 40.5L168.5 40.7C168.5 40.2 168.5 39.7 168.5 39.2C168.5 38.7 168.5 38.2 168.5 37.8C169.4 37.3 170.4 36.9 171.4 36.6C173.3 36.1 175.2 36.1 177.1 36.6C178.9 37 180.5 38.2 181.4 39.9C181.9 41.1 182.1 42.4 181.9 43.6C181.8 44.3 181.6 45.1 181.3 45.8C180.7 47.1 179.6 48.1 178.3 48.7C177.9 48.9 177.5 49 177.1 49.2C177 49.2 176.9 49.2 176.8 49.4C177.4 49.5 178 49.6 178.6 49.8C180.6 50.4 182.1 52 182.7 54C183.5 56.7 182.6 59.5 180.5 61.3C179.2 62.4 177.7 63.2 176 63.4C173.9 63.8 171.7 63.7 169.6 63.1C169 62.9 168.4 62.7 167.8 62.4C167.6 62.3 167.5 62.2 167.5 62C167.5 61.1 167.5 60.1 167.5 59.2C167.5 59.2 167.5 59.1 167.6 59.1L168 59.4C170.3 61 173.2 61.6 176 60.9C176.8 60.7 177.5 60.4 178.1 59.9C179.1 59.1 179.7 58 179.8 56.7C179.9 56 179.8 55.4 179.6 54.7C179.3 53.6 178.6 52.6 177.6 52.1C176.7 51.6 175.8 51.2 174.8 51.1C173.5 50.9 172.1 50.9 170.7 50.9C170.4 50.9 170.2 50.9 170 50.8Z" fill="white"/>
<path d="M141 44.9V47.9C140.8 47.9 140.7 47.7 140.5 47.7C139.2 46.9 137.6 46.5 136.1 46.6C133.9 46.7 131.9 47.9 130.9 49.9C130.4 50.8 130.1 51.8 130 52.8C129.8 54.2 129.9 55.6 130.4 57C131.2 59.5 133.5 61.2 136.1 61.2C137.7 61.2 139.2 60.8 140.5 59.9C140.6 59.8 140.8 59.7 140.9 59.7V62.5C140.8 62.6 140.7 62.7 140.6 62.7C137.8 64.2 134.5 64.2 131.7 62.9C129.6 62 128.1 60.2 127.4 58C126.4 55 126.6 51.8 128 49C129.4 46.2 132.1 44.3 135.2 44.1C136.9 43.9 138.6 44 140.2 44.6C140.4 44.6 140.7 44.7 141 44.9Z" fill="white"/>
<path d="M123.6 63.3H120.7C120.6 62.9 120.5 45.5 120.7 44.5C121.7 44.4 122.7 44.4 123.7 44.5C123.7 44.8 123.7 62.7 123.6 63.3Z" fill="white"/>
<path d="M120.2 37.6C120.2 36.5 121.1 35.6 122.3 35.6C123.4 35.6 124.3 36.5 124.2 37.6C124.2 38.7 123.2 39.6 122.1 39.5C121 39.5 120.2 38.7 120.2 37.6Z" fill="white"/>
</svg>
