<svg width="240" height="100" viewBox="0 0 240 100" fill="none" xmlns="http://www.w3.org/2000/svg">
<path d="M176.1 56.1C176.6 54.6 176.4 53.1 175.6 51.7C174.8 50.7 173.4 50 172.1 49.9L143 49.6C142.8 49.6 142.7 49.4 142.5 49.4C142.3 49.2 142.3 49.1 142.5 48.9C142.7 48.6 142.8 48.4 143.2 48.4L172.5 48.1C176.3 47.6 179.5 45.3 181 41.7L182.7 37.3C182.7 37.1 182.9 37 182.7 36.8C180.4 26.6 170.1 20.1 159.9 22.4C153.4 23.9 148.2 28.6 146 34.8C144.3 33.6 142.2 33 140 33.1C136 33.6 132.8 36.8 132.3 40.8C132.1 41.8 132.3 42.8 132.5 43.8C125.8 44 120.6 49.3 120.6 56C120.6 56.7 120.6 57.2 120.8 57.8C120.8 58.1 121 58.3 121.3 58.3H175C175.3 58.3 175.7 58.1 175.7 57.8L176.1 56.1Z" fill="white"/>
<path d="M185.3 37.4H184.5C184.3 37.4 184.2 37.6 184 37.7L182.8 41.7C182.3 43.2 182.5 44.7 183.3 46.1C184.1 47.1 185.5 47.8 186.8 47.9L193 48.2C193.2 48.2 193.3 48.4 193.5 48.4C193.7 48.6 193.7 48.7 193.5 48.9C193.3 49.2 193.2 49.4 192.8 49.4L186.4 49.7C182.6 50.2 179.4 52.5 177.9 56.1L177.6 57.6C177.4 57.8 177.6 58.1 177.9 58.1H200C200.2 58.1 200.5 57.9 200.5 57.8V57.6C200.8 56.3 201.2 54.8 201.2 53.2C201.2 44.5 194 37.4 185.3 37.4Z" fill="white"/>
<path d="M203.3 67.5C202.5 67.5 201.8 66.8 201.8 66C201.8 65.2 202.5 64.5 203.3 64.5C204.1 64.5 204.8 65.2 204.8 66C204.8 66.8 204.2 67.5 203.3 67.5ZM203.3 64.8C202.6 64.8 202.1 65.3 202.1 66C202.1 66.7 202.6 67.2 203.3 67.2C204 67.2 204.5 66.7 204.5 66C204.5 65.3 204 64.8 203.3 64.8ZM204 66.8H203.7L203.4 66.3H203V66.8H202.7V65.3H203.5C203.7 65.3 204 65.5 204 65.6V65.8C204 66 203.8 66.1 203.7 66.3L204 66.8ZM203.5 66C203.7 66 203.7 66 203.7 65.8C203.7 65.6 203.7 65.6 203.5 65.6H203V66.1L203.5 66ZM53.4 64.5H57.0999V74.5H63.5V77.7H53.5V64.5H53.4ZM67.3 71C67.3 67.2 70.2999 64.1 74.1999 64.1C74.3999 64.1 74.4 64.1 74.5 64.1C78.2 63.9 81.4 66.8 81.5 70.5C81.5 70.7 81.5 70.8 81.5 71C81.5 74.8 78.4999 77.9 74.5999 77.9C74.3999 77.9 74.4 77.9 74.3 77.9C70.5 78.1 67.4 75.1 67.3 71.2V71ZM77.8 71C78 69.2 76.4999 67.5 74.5999 67.3H74.4C72.4 67.5 70.8999 69 71.0999 71C71.2999 72.8 72.6 74.2 74.4 74.3C76.5 74.7 77.8 73 77.8 71ZM86 71.8V64.4H89.6999V71.8C89.6999 73.6 90.6999 74.6 92.1999 74.6C93.4999 74.8 94.4999 73.8 94.6999 72.4C94.6999 72.2 94.6999 72.1 94.6999 71.9V64.4H98.4V71.8C98.4 76.2 95.8999 78 92.1999 78C88.3999 77.9 86 76 86 71.8ZM103.9 64.5H109.1C113.8 64.5 116.6 67.2 116.6 71C116.6 74.8 113.8 77.7 109.1 77.7H104.1L103.9 64.5ZM109.1 74.3C110.9 74.5 112.6 73.1 112.8 71.3C113 69.5 111.6 67.8 109.8 67.6C109.6 67.6 109.3 67.6 109.1 67.6H107.6V74.3H109.1ZM121.8 64.5H132.3V67.7H125.4V69.9H131.6V72.9H125.4V77.8H121.7V64.5H121.8ZM137.6 64.5H141.3V74.5H147.7V77.7H137.7C137.6 77.7 137.6 64.5 137.6 64.5ZM157.2 64.3H160.9L166.6 77.7H162.6L161.6 75.4H156.4L155.4 77.7H151.6L157.2 64.3ZM160.5 72.5L159 68.8L157.5 72.5H160.5ZM171.2 64.5H177.4C179.1 64.3 180.6 64.8 181.8 66C183.5 67.8 183.3 70.5 181.6 72.2C181.3 72.5 180.8 72.9 180.3 73L183.5 77.7H179.3L176.6 73.7H174.9V77.7H171.2V64.5ZM177.2 70.8C178.4 70.8 179.2 70.1 179.2 69.3C179.2 68.3 178.4 67.8 177.2 67.8H174.9V71H177.2V70.8ZM188.1 64.5H198.8V67.5H191.8V69.5H198.2V72.5H191.8V74.5H199V77.7H188.1V64.5ZM45.4 72.7C44.9 73.9 43.7 74.7 42.4 74.7C40.4 74.5 38.8999 73 39.0999 71C39.2999 69.2 40.6 67.8 42.4 67.7C43.7 67.7 45.0999 68.5 45.5999 69.9H49.4C48.7 66.6 45.7 64.2 42.4 64.4C38.6 64.2 35.4 67.2 35.2 71.1C35.2 71.1 35.2 71.1 35.2 71.3C35.2 75.1 38.1999 78.2 42.0999 78.2H42.2999C45.5999 78.2 48.4999 76 49.2999 72.8H45.4V72.7Z" fill="white"/>
</svg>
