<svg width="240" height="100" viewBox="0 0 240 100" fill="none" xmlns="http://www.w3.org/2000/svg">
<path d="M13 41.3372H30.4059V46.0698H19.1568V50.184H29.9456V55.1037H19.1568V59.3473H30.5929V64.1231H13V41.3372Z" fill="white"/>
<path d="M57.4937 41.3372H63.6936V64.1375H57.4937V41.3372Z" fill="white"/>
<path d="M86.3208 42.0708L85.9036 46.9473C80.8976 44.0415 73.216 44.9765 73.0865 52.5719C72.9427 60.1672 80.9983 61.2748 86.0906 58.6999L86.4071 63.6771C77.4021 66.4822 66.642 63.634 66.6852 52.5719C66.7283 41.7399 77.5747 38.7478 86.3208 42.0708Z" fill="white"/>
<path d="M104.576 41.7111L104.159 46.4582C101.037 44.732 95.0961 44.6888 95.0961 47.3932C95.0961 51.3923 105.669 48.5009 105.669 57.0744C105.669 65.504 95.5995 65.5903 89.0687 63.6483L89.529 58.628C93.6144 60.5412 99.4116 60.9583 99.4116 57.6498C99.4116 54.0247 88.7954 56.0674 88.7954 47.9111C88.7954 41.222 97.0812 39.4383 104.576 41.7111Z" fill="white"/>
<path d="M123.276 41.7111L122.859 46.4582C119.737 44.732 113.796 44.6888 113.796 47.3932C113.796 51.3923 124.369 48.5009 124.369 57.0744C124.369 65.504 114.3 65.5903 107.769 63.6483L108.229 58.628C112.315 60.5412 118.112 60.9583 118.112 57.6498C118.112 54.0247 107.496 56.0674 107.496 47.9111C107.51 41.222 115.781 39.4383 123.276 41.7111Z" fill="white"/>
<path d="M151.831 41.3372H159.685L167.166 56.0387V41.3372H172.876V64.1375H165.468L157.585 49.1482V64.1375H151.831V41.3372Z" fill="white"/>
<path d="M137.532 40.7905C143.976 40.7905 148.882 44.5594 148.882 52.7877C148.882 60.6563 143.948 64.6985 137.532 64.6985C131.131 64.6985 126.211 60.7426 126.211 52.7877C126.225 44.5594 131.102 40.7905 137.532 40.7905ZM132.569 52.7877C132.569 56.2689 134.065 60.196 137.532 60.196C141.013 60.196 142.466 56.2689 142.495 52.7877C142.524 49.6517 141.013 45.3937 137.532 45.3794C134.065 45.3794 132.569 49.3065 132.569 52.7877Z" fill="white"/>
<path d="M40.8497 50.9464H44.2446C45.7694 50.9752 47.1504 50.0545 47.136 48.3715C47.1216 46.8754 45.8989 45.8253 44.3309 45.8397H40.8353L40.8497 50.9464ZM34.9087 41.3372H46.0859C49.1211 41.3372 53.3503 42.675 53.3503 47.4077C53.3503 50.4429 51.9694 52.1403 49.3657 52.9171C49.4808 52.9027 50.8617 53.5069 51.4227 55.2187C51.4515 55.2763 54.6162 64.1231 54.6594 64.1375H48.071L45.7263 57.2902C45.3666 56.2401 44.5898 55.5352 43.4678 55.5352C42.504 55.5352 40.9792 55.4777 40.9792 55.5352V64.1375H34.9087V41.3372Z" fill="white"/>
<path d="M227.697 30.8649C227.338 29.7572 226.546 28.8941 225.568 28.405C224.59 27.9159 223.439 27.8008 221.512 28.4482L199.704 35.7126C197.791 36.3456 196.927 37.1367 196.438 38.1149C195.949 39.0931 195.834 40.2439 196.208 41.3659C196.568 42.4736 197.359 43.3367 198.337 43.8258C199.315 44.3149 200.466 44.43 202.394 43.7826L224.202 36.5182C226.115 35.8852 226.978 35.0941 227.467 34.1159C227.956 33.1377 228.071 31.9869 227.697 30.8649Z" fill="white"/>
<path d="M227.697 44.3293C227.338 43.2217 226.546 42.3586 225.568 41.8695C224.59 41.3804 223.439 41.2653 221.512 41.9126L199.704 49.1771C197.791 49.81 196.927 50.6012 196.438 51.5794C195.949 52.5576 195.834 53.7084 196.208 54.8304C196.568 55.9381 197.359 56.8012 198.337 57.2903C199.315 57.7794 200.466 57.8944 202.394 57.2471L224.202 49.9827C226.115 49.3497 226.978 48.5585 227.467 47.5804C227.956 46.6022 228.071 45.4514 227.697 44.3293Z" fill="white"/>
<path d="M227.697 57.7937C227.338 56.686 226.546 55.8229 225.568 55.3338C224.59 54.8447 223.439 54.7297 221.512 55.377L199.704 62.6415C197.791 63.2744 196.927 64.0656 196.438 65.0438C195.949 66.0219 195.834 67.1727 196.208 68.2948C196.568 69.4024 197.359 70.2655 198.337 70.7546C199.315 71.2437 200.466 71.3588 202.394 70.7115L224.202 63.447C226.115 62.7997 226.978 62.0229 227.467 61.0447C227.956 60.0665 228.071 58.9157 227.697 57.7937Z" fill="white"/>
</svg>
