<svg width="110" height="110" viewBox="0 0 110 110" fill="none" xmlns="http://www.w3.org/2000/svg">
<path d="M58.4371 34.3749V53.0534L73.9575 62.3648C74.7392 62.8343 75.3025 63.5951 75.5233 64.4799C75.744 65.3647 75.6043 66.301 75.1348 67.0827C74.6653 67.8645 73.9044 68.4277 73.0196 68.6485C72.1349 68.8693 71.1986 68.7296 70.4168 68.2601L53.2293 57.9476C52.7206 57.642 52.2997 57.2098 52.0076 56.6933C51.7154 56.1767 51.562 55.5934 51.5621 54.9999V34.3749C51.5621 33.4632 51.9243 32.5889 52.569 31.9442C53.2136 31.2996 54.088 30.9374 54.9996 30.9374C55.9113 30.9374 56.7857 31.2996 57.4303 31.9442C58.075 32.5889 58.4371 33.4632 58.4371 34.3749ZM96.2496 24.0624C95.338 24.0624 94.4636 24.4246 93.819 25.0692C93.1743 25.7139 92.8121 26.5882 92.8121 27.4999V35.2343C90.0836 32.0718 87.2993 29.0253 84.1668 25.8542C78.4342 20.1209 71.1391 16.2041 63.193 14.5932C55.247 12.9823 47.0025 13.7487 39.4896 16.7967C31.9767 19.8447 25.5286 25.0391 20.9509 31.7308C16.3733 38.4225 13.8692 46.3149 13.7514 54.4217C13.6337 62.5285 15.9075 70.4903 20.2889 77.3121C24.6702 84.134 30.9648 89.5135 38.386 92.7783C45.8072 96.0432 54.026 97.0488 62.0155 95.6693C70.0049 94.2899 77.4107 90.5866 83.3075 85.0222C83.6359 84.7118 83.8999 84.3398 84.0846 83.9274C84.2692 83.515 84.3708 83.0703 84.3836 82.6186C84.3963 82.167 84.32 81.7172 84.159 81.295C83.9979 80.8728 83.7553 80.4865 83.445 80.1581C83.1346 79.8297 82.7626 79.5656 82.3502 79.381C81.9378 79.1964 81.4931 79.0948 81.0414 79.082C80.5897 79.0692 80.14 79.1455 79.7178 79.3066C79.2956 79.4676 78.9093 79.7103 78.5809 80.0206C73.6654 84.653 67.4942 87.7346 60.8379 88.8807C54.1816 90.0267 47.3351 89.1865 41.1534 86.4648C34.9718 83.7431 29.7289 79.2606 26.0796 73.5771C22.4302 67.8935 20.5361 61.2608 20.6337 54.5073C20.7314 47.7537 22.8164 41.1785 26.6285 35.6029C30.4407 30.0272 35.8109 25.6981 42.0686 23.1563C48.3264 20.6144 55.1943 19.9724 61.8147 21.3104C68.4351 22.6484 74.5147 25.9071 79.2942 30.6796C82.7918 34.2202 85.8555 37.6319 88.945 41.2499H79.0621C78.1505 41.2499 77.2761 41.6121 76.6315 42.2567C75.9868 42.9014 75.6246 43.7757 75.6246 44.6874C75.6246 45.5991 75.9868 46.4734 76.6315 47.1181C77.2761 47.7628 78.1505 48.1249 79.0621 48.1249H96.2496C97.1613 48.1249 98.0357 47.7628 98.6803 47.1181C99.325 46.4734 99.6871 45.5991 99.6871 44.6874V27.4999C99.6871 26.5882 99.325 25.7139 98.6803 25.0692C98.0357 24.4246 97.1613 24.0624 96.2496 24.0624Z" fill="#17C7A9"/>
</svg>
