<svg width="110" height="110" viewBox="0 0 110 110" fill="none" xmlns="http://www.w3.org/2000/svg">
<path opacity="0.2" d="M103.125 55C103.125 64.1168 99.503 72.8602 93.0564 79.3068C86.6098 85.7534 77.8664 89.375 68.7496 89.375H30.9371C27.5252 89.3708 24.1532 88.6411 21.0449 87.2342C17.9366 85.8273 15.1629 83.7755 12.9081 81.2149C10.6532 78.6543 8.9687 75.6435 7.96628 72.3822C6.96385 69.1209 6.66645 65.6837 7.09379 62.2986C7.52114 58.9136 8.66348 55.6582 10.445 52.7483C12.2265 49.8385 14.6065 47.3408 17.427 45.4209C20.2475 43.501 23.444 42.203 26.8045 41.6128C30.1649 41.0226 33.6125 41.1538 36.9184 41.9977V42.0406C39.9264 34.6625 45.404 28.5584 52.4147 24.7722C59.4254 20.9859 67.5336 19.7526 75.3529 21.2832C83.1723 22.8138 90.2171 27.0132 95.2828 33.1633C100.349 39.3134 103.12 47.0323 103.125 55Z" fill="#17C7A9"/>
<path d="M68.7503 17.1875C61.7279 17.1929 54.8454 19.1518 48.8726 22.845C42.8998 26.5383 38.0722 31.8203 34.9296 38.1004C31.1912 37.5552 27.3805 37.7861 23.7352 38.7788C20.09 39.7715 16.6883 41.5046 13.7425 43.8701C10.7967 46.2356 8.36995 49.1827 6.61353 52.5276C4.85711 55.8725 3.80876 59.5434 3.53384 63.3114C3.25893 67.0794 3.76336 70.8636 5.01567 74.4281C6.26799 77.9925 8.24131 81.2606 10.8126 84.0286C13.3838 86.7967 16.4979 89.0052 19.9604 90.5165C23.423 92.0277 27.1598 92.8093 30.9378 92.8125H68.7503C78.7788 92.8125 88.3966 88.8287 95.4878 81.7375C102.579 74.6463 106.563 65.0285 106.563 55C106.563 44.9715 102.579 35.3537 95.4878 28.2625C88.3966 21.1713 78.7788 17.1875 68.7503 17.1875ZM68.7503 85.9375H30.9378C25.4678 85.9375 20.2217 83.7645 16.3538 79.8966C12.4858 76.0286 10.3128 70.7826 10.3128 65.3125C10.3128 59.8424 12.4858 54.5964 16.3538 50.7284C20.2217 46.8605 25.4678 44.6875 30.9378 44.6875C31.4105 44.6875 31.8832 44.6875 32.3515 44.7348C31.4115 48.0754 30.9358 51.5296 30.9378 55C30.9378 55.9117 31.3 56.786 31.9447 57.4307C32.5893 58.0753 33.4637 58.4375 34.3753 58.4375C35.287 58.4375 36.1614 58.0753 36.806 57.4307C37.4507 56.786 37.8128 55.9117 37.8128 55C37.8128 48.8811 39.6273 42.8997 43.0268 37.812C46.4262 32.7244 51.258 28.7591 56.9111 26.4175C62.5642 24.0759 68.7847 23.4632 74.786 24.657C80.7872 25.8507 86.2998 28.7972 90.6265 33.1239C94.9531 37.4506 97.8997 42.9631 99.0934 48.9644C100.287 54.9657 99.6745 61.1862 97.3329 66.8393C94.9913 72.4924 91.0259 77.3241 85.9383 80.7236C80.8507 84.123 74.8692 85.9375 68.7503 85.9375ZM84.9324 45.693C85.252 46.0122 85.5055 46.3913 85.6785 46.8086C85.8515 47.2259 85.9405 47.6733 85.9405 48.125C85.9405 48.5767 85.8515 49.0241 85.6785 49.4414C85.5055 49.8587 85.252 50.2378 84.9324 50.557L64.3074 71.182C63.9881 71.5016 63.609 71.7552 63.1917 71.9282C62.7744 72.1012 62.3271 72.1902 61.8753 72.1902C61.4236 72.1902 60.9763 72.1012 60.559 71.9282C60.1417 71.7552 59.7626 71.5016 59.4433 71.182L49.1308 60.8695C48.4858 60.2245 48.1234 59.3497 48.1234 58.4375C48.1234 57.5253 48.4858 56.6505 49.1308 56.0055C49.7758 55.3605 50.6507 54.9981 51.5628 54.9981C52.475 54.9981 53.3499 55.3605 53.9949 56.0055L61.8753 63.8902L80.0683 45.693C80.3876 45.3734 80.7667 45.1198 81.184 44.9468C81.6013 44.7738 82.0486 44.6848 82.5003 44.6848C82.9521 44.6848 83.3994 44.7738 83.8167 44.9468C84.234 45.1198 84.6131 45.3734 84.9324 45.693Z" fill="#17C7A9"/>
</svg>
