<svg width="45" height="45" viewBox="0 0 45 45" fill="none" xmlns="http://www.w3.org/2000/svg">
<path opacity="0.2" d="M37.9688 16.875V36.5625C37.9688 36.9355 37.8206 37.2931 37.5569 37.5569C37.2931 37.8206 36.9355 37.9688 36.5625 37.9688H8.4375C8.06454 37.9688 7.70685 37.8206 7.44313 37.5569C7.17941 37.2931 7.03125 36.9355 7.03125 36.5625V16.875C7.03125 16.502 7.17941 16.1444 7.44313 15.8806C7.70685 15.6169 8.06454 15.4688 8.4375 15.4688H36.5625C36.9355 15.4688 37.2931 15.6169 37.5569 15.8806C37.8206 16.1444 37.9688 16.502 37.9688 16.875Z" fill="#17C7A9"/>
<path d="M36.5625 14.0625H30.9375V9.84375C30.9375 7.60599 30.0486 5.45987 28.4662 3.87754C26.8839 2.2952 24.7378 1.40625 22.5 1.40625C20.2622 1.40625 18.1161 2.2952 16.5338 3.87754C14.9514 5.45987 14.0625 7.60599 14.0625 9.84375V14.0625H8.4375C7.69158 14.0625 6.97621 14.3588 6.44876 14.8863C5.92132 15.4137 5.625 16.1291 5.625 16.875V36.5625C5.625 37.3084 5.92132 38.0238 6.44876 38.5512C6.97621 39.0787 7.69158 39.375 8.4375 39.375H36.5625C37.3084 39.375 38.0238 39.0787 38.5512 38.5512C39.0787 38.0238 39.375 37.3084 39.375 36.5625V16.875C39.375 16.1291 39.0787 15.4137 38.5512 14.8863C38.0238 14.3588 37.3084 14.0625 36.5625 14.0625ZM8.4375 22.5H36.5625V25.3125H8.4375V22.5ZM8.4375 28.125H36.5625V30.9375H8.4375V28.125ZM16.875 9.84375C16.875 8.35191 17.4676 6.92117 18.5225 5.86627C19.5774 4.81138 21.0082 4.21875 22.5 4.21875C23.9918 4.21875 25.4226 4.81138 26.4775 5.86627C27.5324 6.92117 28.125 8.35191 28.125 9.84375V14.0625H16.875V9.84375ZM36.5625 16.875V19.6875H8.4375V16.875H36.5625ZM36.5625 36.5625H8.4375V33.75H36.5625V36.5625Z" fill="#17C7A9"/>
</svg>
