<svg width="45" height="45" viewBox="0 0 45 45" fill="none" xmlns="http://www.w3.org/2000/svg">
<path opacity="0.2" d="M2.8125 12.1658V33.2595C18.9211 25.3898 26.0789 40.7038 42.1875 32.8341V11.7404C26.0789 19.6101 18.9211 4.29604 2.8125 12.1658ZM22.5 26.7187C21.6656 26.7187 20.85 26.4713 20.1562 26.0077C19.4624 25.5441 18.9217 24.8853 18.6024 24.1144C18.2831 23.3435 18.1995 22.4953 18.3623 21.6769C18.5251 20.8585 18.9269 20.1068 19.5169 19.5168C20.1069 18.9268 20.8586 18.525 21.677 18.3623C22.4953 18.1995 23.3436 18.283 24.1144 18.6023C24.8853 18.9216 25.5442 19.4624 26.0078 20.1561C26.4713 20.8499 26.7188 21.6656 26.7188 22.4999C26.7187 23.6188 26.2743 24.6919 25.4831 25.483C24.6919 26.2742 23.6189 26.7187 22.5 26.7187Z" fill="#17C7A9"/>
<path d="M42.9328 10.5469C42.7304 10.4205 42.4991 10.3478 42.2608 10.3355C42.0224 10.3232 41.7849 10.3717 41.5705 10.4766C34.0242 14.168 28.6348 12.4383 22.9377 10.6137C16.9611 8.69942 10.7648 6.72188 2.2043 10.902C1.96511 11.0167 1.76326 11.1967 1.62204 11.4213C1.48083 11.6459 1.40602 11.9058 1.40625 12.1711V33.2525C1.40622 33.4911 1.46689 33.7258 1.58257 33.9345C1.69824 34.1432 1.86511 34.319 2.06747 34.4454C2.26983 34.5718 2.50102 34.6447 2.7393 34.6571C2.97757 34.6695 3.21509 34.6211 3.42949 34.5164C10.9758 30.825 16.3652 32.5547 22.0711 34.3793C25.4531 35.4604 28.8984 36.5625 32.7937 36.5625C35.7979 36.5625 39.0744 35.9086 42.7975 34.091C43.0339 33.9756 43.2333 33.7961 43.3728 33.573C43.5123 33.3498 43.5864 33.0921 43.5867 32.8289V11.7475C43.5888 11.5082 43.5299 11.2724 43.4155 11.0624C43.3011 10.8523 43.1349 10.6749 42.9328 10.5469ZM40.7812 31.9342C33.6445 35.1281 28.4326 33.4617 22.9289 31.7022C19.5469 30.6211 16.1016 29.5189 12.2063 29.5189C9.46952 29.5322 6.76062 30.0692 4.22578 31.101V13.0658C11.3625 9.87188 16.5744 11.5383 22.0781 13.2979C27.5818 15.0574 33.2473 16.875 40.7812 13.9025V31.9342ZM22.5 16.875C21.3875 16.875 20.2999 17.2049 19.3749 17.823C18.4499 18.4411 17.7289 19.3196 17.3032 20.3474C16.8774 21.3752 16.766 22.5062 16.9831 23.5974C17.2001 24.6885 17.7359 25.6908 18.5225 26.4775C19.3092 27.2641 20.3115 27.7999 21.4026 28.0169C22.4938 28.234 23.6248 28.1226 24.6526 27.6968C25.6804 27.2711 26.5589 26.5501 27.177 25.6251C27.7951 24.7001 28.125 23.6125 28.125 22.5C28.125 21.0082 27.5324 19.5774 26.4775 18.5225C25.4226 17.4676 23.9918 16.875 22.5 16.875ZM22.5 25.3125C21.9437 25.3125 21.4 25.1476 20.9375 24.8385C20.4749 24.5295 20.1145 24.0902 19.9016 23.5763C19.6887 23.0624 19.633 22.4969 19.7415 21.9513C19.8501 21.4057 20.1179 20.9046 20.5113 20.5113C20.9046 20.1179 21.4057 19.8501 21.9513 19.7415C22.4969 19.633 23.0624 19.6887 23.5763 19.9016C24.0902 20.1145 24.5295 20.4749 24.8385 20.9375C25.1475 21.4 25.3125 21.9437 25.3125 22.5C25.3125 23.2459 25.0162 23.9613 24.4887 24.4887C23.9613 25.0162 23.2459 25.3125 22.5 25.3125ZM9.84375 16.875V25.3125C9.84375 25.6855 9.69559 26.0432 9.43187 26.3069C9.16815 26.5706 8.81046 26.7188 8.4375 26.7188C8.06454 26.7188 7.70686 26.5706 7.44313 26.3069C7.17941 26.0432 7.03125 25.6855 7.03125 25.3125V16.875C7.03125 16.502 7.17941 16.1444 7.44313 15.8806C7.70686 15.6169 8.06454 15.4688 8.4375 15.4688C8.81046 15.4688 9.16815 15.6169 9.43187 15.8806C9.69559 16.1444 9.84375 16.502 9.84375 16.875ZM35.1562 28.125V19.6875C35.1562 19.3145 35.3044 18.9569 35.5681 18.6931C35.8319 18.4294 36.1895 18.2813 36.5625 18.2813C36.9355 18.2813 37.2931 18.4294 37.5569 18.6931C37.8206 18.9569 37.9688 19.3145 37.9688 19.6875V28.125C37.9688 28.498 37.8206 28.8557 37.5569 29.1194C37.2931 29.3831 36.9355 29.5313 36.5625 29.5313C36.1895 29.5313 35.8319 29.3831 35.5681 29.1194C35.3044 28.8557 35.1562 28.498 35.1562 28.125Z" fill="#17C7A9"/>
</svg>
