<svg width="110" height="110" viewBox="0 0 110 110" fill="none" xmlns="http://www.w3.org/2000/svg">
<path d="M89.375 17.1875H20.625C18.8016 17.1875 17.053 17.9118 15.7636 19.2011C14.4743 20.4905 13.75 22.2391 13.75 24.0625V48.125C13.75 70.7781 24.7156 84.5066 33.9152 92.0348C43.8238 100.139 53.6809 102.893 54.1105 103.005C54.7014 103.165 55.3244 103.165 55.9152 103.005C56.3449 102.893 66.1891 100.139 76.1105 92.0348C85.2844 84.5066 96.25 70.7781 96.25 48.125V24.0625C96.25 22.2391 95.5257 20.4905 94.2364 19.2011C92.947 17.9118 91.1984 17.1875 89.375 17.1875ZM68.75 58.4375H58.4375V68.75C58.4375 69.6617 58.0753 70.536 57.4307 71.1807C56.786 71.8253 55.9117 72.1875 55 72.1875C54.0883 72.1875 53.214 71.8253 52.5693 71.1807C51.9247 70.536 51.5625 69.6617 51.5625 68.75V58.4375H41.25C40.3383 58.4375 39.464 58.0753 38.8193 57.4307C38.1747 56.786 37.8125 55.9117 37.8125 55C37.8125 54.0883 38.1747 53.214 38.8193 52.5693C39.464 51.9247 40.3383 51.5625 41.25 51.5625H51.5625V41.25C51.5625 40.3383 51.9247 39.464 52.5693 38.8193C53.214 38.1747 54.0883 37.8125 55 37.8125C55.9117 37.8125 56.786 38.1747 57.4307 38.8193C58.0753 39.464 58.4375 40.3383 58.4375 41.25V51.5625H68.75C69.6617 51.5625 70.536 51.9247 71.1807 52.5693C71.8253 53.214 72.1875 54.0883 72.1875 55C72.1875 55.9117 71.8253 56.786 71.1807 57.4307C70.536 58.0753 69.6617 58.4375 68.75 58.4375Z" fill="#17C7A9"/>
</svg>
