<svg width="110" height="110" viewBox="0 0 110 110" fill="none" xmlns="http://www.w3.org/2000/svg">
<path d="M103.125 24.0625V51.5625C103.125 52.2428 102.924 52.9079 102.547 53.4737C102.169 54.0395 101.632 54.4805 101.003 54.7409C100.375 55.0013 99.6833 55.0694 99.0161 54.9365C98.3489 54.8036 97.7362 54.4758 97.2554 53.9945L85.9375 42.6723L60.8695 67.7445C60.5502 68.0641 60.1711 68.3177 59.7538 68.4907C59.3365 68.6637 58.8892 68.7527 58.4375 68.7527C57.9857 68.7527 57.5384 68.6637 57.1211 68.4907C56.7038 68.3177 56.3247 68.0641 56.0054 67.7445L41.25 52.9848L12.7445 81.4945C12.0995 82.1395 11.2246 82.5019 10.3125 82.5019C9.40027 82.5019 8.52544 82.1395 7.88043 81.4945C7.23541 80.8495 6.87305 79.9747 6.87305 79.0625C6.87305 78.1503 7.23541 77.2755 7.88043 76.6305L38.8179 45.693C39.1372 45.3734 39.5163 45.1198 39.9336 44.9468C40.3509 44.7738 40.7982 44.6848 41.25 44.6848C41.7017 44.6848 42.149 44.7738 42.5663 44.9468C42.9836 45.1198 43.3627 45.3734 43.682 45.693L58.4375 60.4527L81.0777 37.8125L69.7554 26.4945C69.2741 26.0138 68.9463 25.401 68.8135 24.7339C68.6806 24.0667 68.7487 23.3751 69.0091 22.7467C69.2695 22.1182 69.7105 21.5811 70.2763 21.2035C70.8421 20.8258 71.5072 20.6245 72.1875 20.625H99.6875C100.599 20.625 101.473 20.9872 102.118 21.6318C102.763 22.2765 103.125 23.1508 103.125 24.0625Z" fill="#17C7A9"/>
</svg>
