<svg width="51" height="50" viewBox="0 0 51 50" fill="none" xmlns="http://www.w3.org/2000/svg">
<path d="M39.0549 25C43.8693 18.2402 46.3244 11.2539 42.9104 7.8398C39.4963 4.42574 32.51 6.88081 25.7502 11.6953C18.9904 6.88081 12.0041 4.42574 8.59004 7.8398C5.17598 11.2539 7.63106 18.2402 12.4455 25C7.63106 31.7597 5.17598 38.746 8.59004 42.1601C9.68965 43.2597 11.1584 43.75 12.8693 43.75C16.4787 43.75 21.1662 41.5683 25.76 38.3046C30.3342 41.5683 35.0217 43.75 38.6408 43.75C40.3518 43.75 41.8225 43.2578 42.9201 42.1601C46.3244 38.746 43.8693 31.7597 39.0549 25ZM40.7014 10.0488C42.1936 11.541 41.1857 16.3769 37.0842 22.4082C35.7866 20.8019 34.4051 19.2652 32.9455 17.8046C31.4848 16.347 29.9481 14.9675 28.342 13.6718C34.3732 9.57027 39.2092 8.55464 40.7014 10.0488ZM35.1818 25C33.7998 26.7483 32.3154 28.4133 30.7365 29.9863C29.1636 31.5651 27.4986 33.0495 25.7502 34.4316C24.0018 33.0495 22.3368 31.5651 20.7639 29.9863C19.185 28.4133 17.7006 26.7483 16.3186 25C19.0914 21.5057 22.256 18.3412 25.7502 15.5683C27.4986 16.9504 29.1636 18.4348 30.7365 20.0136C32.3154 21.5866 33.7998 23.2516 35.1818 25ZM10.799 10.0488C11.2287 9.61714 11.9377 9.39449 12.8732 9.39449C15.1818 9.39449 18.8674 10.7421 23.1564 13.6718C21.5518 14.9686 20.0159 16.348 18.5549 17.8046C17.0973 19.2654 15.7177 20.802 14.4221 22.4082C10.3205 16.3769 9.30684 11.541 10.799 10.0488ZM10.799 39.9511C9.30684 38.4589 10.3205 33.623 14.4221 27.5918C15.7196 29.198 17.1011 30.7347 18.5607 32.1953C20.0205 33.6517 21.5552 35.0312 23.1584 36.3281C17.1272 40.4296 12.2912 41.4453 10.799 39.9511ZM40.7014 39.9511C39.2092 41.4453 34.3732 40.4355 28.342 36.3339C29.9474 35.0353 31.484 33.6539 32.9455 32.1953C34.4031 30.7345 35.7827 29.1979 37.0783 27.5918C41.1799 33.623 42.1936 38.4589 40.7014 39.9511ZM28.0939 25C28.0939 25.4635 27.9565 25.9166 27.699 26.3021C27.4414 26.6875 27.0754 26.9879 26.6471 27.1653C26.2188 27.3427 25.7476 27.3891 25.293 27.2987C24.8383 27.2082 24.4207 26.985 24.0929 26.6572C23.7651 26.3295 23.5419 25.9118 23.4515 25.4572C23.361 25.0026 23.4075 24.5313 23.5849 24.103C23.7622 23.6748 24.0627 23.3087 24.4481 23.0512C24.8335 22.7937 25.2866 22.6562 25.7502 22.6562C26.3718 22.6562 26.9679 22.9031 27.4075 23.3427C27.847 23.7822 28.0939 24.3784 28.0939 25Z" fill="#64748B"/>
</svg>
