<?xml version="1.0" encoding="UTF-8"?>
<svg id="Layer_1" xmlns="http://www.w3.org/2000/svg" version="1.1" viewBox="0 0 151 78">
  <!-- Generator: Adobe Illustrator 29.1.0, SVG Export Plug-In . SVG Version: 2.1.0 Build 142)  -->
  <defs>
    <style>
      .st0 {
        fill: #fff;
      }
    </style>
  </defs>
  <path class="st0" d="M37.5,67.7v-14.5c0-1.4-.6-2.6-1.5-2.6s-1.5,1.2-1.5,2.6v14.5h-3.8v-14.5c0-1.4-.6-2.6-1.5-2.6s-1.5,1.2-1.5,2.6v14.5h-3.8v-20.3h3.5v1.1l1.2-1.2c.2,0,.3,0,.7,0,1.3,0,2.5.5,3.4,1.4.9-1,2.1-1.4,3.4-1.4,3.2,0,5.3,2.2,5.3,7.1v13.4h-3.8ZM48.4,50.4c-.5,0-1.1.6-1.2,1.1v12.8c1.5-.5,3.2-2.7,3.2-8.6s-.9-5.2-2-5.2ZM47.1,67.7v9.5h-3.8v-29.8h3.6v1.1l1.2-1.2c.2,0,.4,0,.5,0,3,0,5.6,2.6,5.6,9.2s-5.3,11.1-7,11.3h0ZM74.8,67.7c-2.1,0-5.7-1.1-5.7-7.9v-9.1h-1.3v-3.3h1.3v-5.3h3.6v5.3h2.9v3.3h-2.8v9.7c0,3,1,4.1,2.3,4.1s.6,0,.9,0v3.1s-.6.1-1.3.1h0ZM83.6,55.6c-.7,0-2.5,1.8-2.5,5.6s.7,3.4,1.4,3.4,1-.7,1.2-1.1v-7.9ZM83.9,67.7v-1.2l-1.3,1.3c-.2,0-.4,0-.6,0-2.4,0-4.6-2.8-4.6-6.6,0-6.3,4.5-8.6,6.2-8.8v-.4c0-1.2-.7-1.7-1.7-1.7s-1.6.1-2.5.4v-3.1s1.1-.4,2.8-.4c2.9,0,5.1,1.4,5.1,5.9v14.6h-3.5ZM95.7,67.8c-1.5,0-6.7-1.1-6.7-10.3s5.1-10.3,6.7-10.3,1.8.2,1.8.2v3.1c-.5,0-.7,0-1.2,0-1.3,0-3.5,1.2-3.5,7.2s2.2,7.2,3.5,7.2.7,0,1.2,0v3.1s-.7.2-1.8.2h0ZM103.6,50.2c-.9,0-1.7,1.2-1.7,6.2s0,.7,0,1c1.1,0,2.7-1.8,2.7-4.6s-.4-2.6-1.1-2.6ZM102.1,60.5c.2,3,1.4,4.2,2.7,4.2s.8,0,1.2,0v3.1c-.5.1-1,.2-1.5.2-2.7,0-6.3-1.7-6.3-10.4s3.3-10.3,5.5-10.3,4.6,1.6,4.6,5.9-4.3,7.4-6.1,7.5h0ZM117,67.7v-14.5c0-1.4-.6-2.6-1.5-2.6s-1.5,1.2-1.5,2.6v14.5h-3.8v-20.3h3.5v1.1l1.2-1.2c.2,0,.3,0,.7,0,3.3,0,5.3,2.2,5.3,7.1v13.4h-3.8ZM129,67.7c-2.1,0-5.7-1.1-5.7-7.9v-9.1h-1.3v-3.3h1.3v-5.3h3.6v5.3h2.9v3.3h-2.8v9.7c0,3,1,4.1,2.3,4.1s.6,0,.9,0v3.1s-.6.1-1.3.1h0ZM137,50.2c-.9,0-1.7,1.2-1.7,6.2s0,.7,0,1c1.1,0,2.7-1.8,2.7-4.6s-.4-2.6-1.1-2.6h0ZM135.6,60.5c.2,3,1.4,4.2,2.7,4.2s.8,0,1.2,0v3.1c-.5.1-1,.2-1.5.2-2.7,0-6.3-1.7-6.3-10.4s3.3-10.3,5.5-10.3,4.6,1.6,4.6,5.9-4.3,7.4-6.1,7.5h0ZM150.5,50.7c-1.8,0-3.1,1.5-3.1,3.9v13.1h-3.8v-20.3h3.6v1.6c.3-.5,1.2-1.6,3.1-1.6h.7v3.3h-.5ZM62.2,47.4v14.5c0,1.4-.6,2.6-1.5,2.6s-1.5-1.2-1.5-2.6v-14.5h-3.8v13.4c0,4.8,2.6,7.1,5.7,7.1s5-3,5-7.1v-13.4h-3.8ZM8.2,67.9c-3.1,0-8.2-1.6-8.2-12.7s4.8-13.1,8.6-13c1.6,0,2.1.4,2.1.4v3.3s-.6-.4-2.1-.4c-3,.1-4.5,5.5-4.5,9.7,0,8.6,2.9,9.4,4.7,9.4s.9,0,1.3-.2v3.2s-.8.3-2,.3h0ZM16.4,50.5c-.9,0-1.8,1.4-1.8,7s.9,7,1.8,7,1.8-1.4,1.8-7-.9-7-1.8-7ZM16.4,67.9c-1.9,0-5.6-1.1-5.6-10.3s3.7-10.3,5.6-10.3,5.6,1.1,5.6,10.3-3.7,10.3-5.6,10.3"/>
  <path class="st0" d="M69.4,25h0c-4.1,0-7.5-3.3-7.5-7.5s3.3-7.5,7.5-7.5h0v-3.2h0c-5.9,0-10.7,4.8-10.7,10.7s4.8,10.7,10.7,10.7h0v-3.2Z"/>
  <path class="st0" d="M69.4,30.6h0c-7.2,0-13-5.8-13-13s5.8-13,13-13h0V.2h0c-9.6,0-17.3,7.7-17.3,17.3s7.7,17.3,17.3,17.3h0v-4.3Z"/>
  <path class="st0" d="M81.5,25c4.1,0,7.5-3.3,7.5-7.5s-3.3-7.5-7.5-7.5v-3.2c5.9,0,10.7,4.8,10.7,10.7s-4.8,10.7-10.7,10.7v-3.2Z"/>
  <path class="st0" d="M81.5,30.6c7.2,0,13-5.8,13-13s-5.8-13-13-13V.2c9.6,0,17.3,7.7,17.3,17.3s-7.7,17.3-17.3,17.3v-4.3ZM79.8,5c0,2.4-1.9,4.3-4.3,4.3s-4.3-1.9-4.3-4.3,1.9-4.3,4.3-4.3,4.3,1.9,4.3,4.3Z"/>
</svg>