<?xml version="1.0" encoding="UTF-8"?>
<svg id="Layer_1" xmlns="http://www.w3.org/2000/svg" version="1.1" viewBox="0 0 173 31">
  <!-- Generator: Adobe Illustrator 29.1.0, SVG Export Plug-In . SVG Version: 2.1.0 Build 142)  -->
  <defs>
    <style>
      .st0 {
        fill: #fff;
        fill-rule: evenodd;
      }
    </style>
  </defs>
  <path class="st0" d="M38.8,19.2c1,0,1.4.2,1.4.5,0,.9-2.4,1.7-4,1.7s-1.2,0-1.6-.2c.9-1.2,2.9-2,4.2-2ZM153.8,19c.8,0,1.2,0,1.2.5,0,.7-1.8,2.6-6.3,4.7,0,0,0-.3,0-.4,0-2.5,3-4.8,5.2-4.8ZM145,4.1c.2,0,.4,0,.5.2,0,1.6-1.2,3.7-2.5,5.7l-5.3.3c1.5-2.7,4.8-6.2,7.3-6.2ZM85.7,28.4c2.3,0,4.6-.7,6.6-1.9.2,1.2.8,1.6,1.3,1.6s1.2-.6,1.2-1.6,0-1.6-.2-2.5c-.2-.7-.6-1-1.2-1s-.8,0-1.6.9c-1.6,1.2-3.8,2.1-5.7,2.1s-.8-.2-.8-.4c0-1.6,3-5.2,7.3-5.2s1.6.2,2.7.7c.4.2.7.4.9.4.7,0,1.2-.4,1.2-1.2s-.4-.9-.9-1.3c-1-.9-2.6-1.2-4.1-1.2-2.4,0-4.6.9-6.5,2.5-1.8,1.6-3.4,3.6-3.4,5.7,0,1.7,1.3,2.5,3.1,2.5ZM99.2,30.1c.2,0,.8,0,1.6-.9,1-1.3,2.7-3.4,4.4-5.3,2.2-2.2,4.3-4.1,5-4.1s.2,0,.2.3l.5,2.8c.3,1.6.7,3.1,1.2,4,.4.6.8.9,1.6.9s1.2-.5,1.2-1.2-.2-.8-.4-1.2c-.7-1.6-.9-3.4-1.3-5.6-.4-2.3-1.2-2.8-2.4-2.8-2.1,0-6.1,3.4-9.4,7.6l.2-3.5c0-.9-.5-1.2-1-1.2s-1.2.4-1.2,1.2l-1,6.7c0,.9,0,1.2,0,1.3,0,.7.5,1.1,1.1,1.1ZM125.7,26.2c-1.6.9-2.9,1.6-4.1,1.6s-1.5-.8-1.5-2,.7-3.9.9-4.9c.8-2.8,1.3-4.6,2.2-7.3l10.4-.6c-1.2,2.8-1.7,5.6-1.7,8.1v.4c-2.5,2-4.4,3.6-6.2,4.6ZM80.6,26.2c-.7-1.9-.9-2.8-1.3-5.3-.5-2.6-.9-4.3-3.4-4.3s-6.2,3.4-9.9,8.1l-.6-2.3c-.6-2.2-1.2-3.9-3.6-3.9s-4.3,1.3-8,5.1l.7-3.6c0-.4,0-.9,0-1,0-.6-.4-.9-1-.9s-1,.2-2.1.9c-4.4,3.4-9.9,7.4-15.3,7.4s-2.7-.8-2.7-2.2,0-.6.2-.9c.9.4,1.9.5,2.7.5,3.5,0,6.8-1.9,6.8-4.3s-1.6-2.8-3.8-2.8c-3.3,0-5.9,1.8-7.1,3.5-1.6-.9-3-1.2-4.4-1.2-3.5,0-6.2,1.4-9.5,5.3.7-3.5.8-5.9.8-7.1s-.6-1.3-1.2-1.3-.7,0-1.2.2l-8.5,1.7,3.4-10.3,17.7-.9c1,0,1.3-.7,1.3-1.3s-.6-1.2-1.3-1.2l-25.4.9c-1.2,0-1.9.7-1.9,1.6s.6,1.4,1.9,1.3l4.3-.2-3.3,10.6-2.7.7c-1,.2-1.6.8-1.6,1.6s.6,1.3,1.3,1.3.8,0,1,0l.9-.2-2,6.3c-.2.8-.3,1-.3,1.3,0,.9.8,1.2,1.2,1.2s1-.2,1.3-1.2l2.9-8.3,9.1-2.2c0,2.6-.8,6.8-1.2,9.2,0,.7-.2.9-.2,1.3,0,.7.5,1.2,1.2,1.2s.9-.4,1.3-.9c2.3-3.3,6.3-7.8,10.6-7.8s2.1.3,3.1.7c-.3.7-.4,1.4-.4,2.1,0,3,1.8,4.7,5.2,4.7s9.1-1.8,15.7-7.1c-.2,1.2-.6,2.9-.9,4.7,0,.4-.2.9-.2,1,0,.9.5,1.2,1.2,1.2s1-.3,2.1-1.2c.9-1,1.9-2,3.1-3.1,2.1-1.9,3.5-3.1,4.7-3.1s1,.6,1.6,2.7c.8,2.8,1.2,3.9,2.5,3.9s1.6-.5,3.5-2.7c3.3-3.8,5.4-5.9,6.6-5.9s.6.2.8.9l.9,3.5c.2.9.6,2.2.9,3,.4.8.9,1.2,1.7,1.2s1.2-.6,1.2-1.2c-.5,0-.6-.3-.8-.9ZM124.8,7.8c.2-.7.4-1.2.4-1.8,0-.6-.6-1-1.1-1s-1.3.2-2.1,2.3l-1.2,3.5-5.6.2c-.9,0-1.6.5-1.6,1.3s.8,1.3,1.8,1.3l4.7-.2c-.6,1.7-1.6,4.9-2.2,7.6-.4,1.6-.8,3.3-.8,5.1,0,2.7,1.2,4.3,3.8,4.3s5.1-1.6,7.7-3.4c1.3-.9,2.8-2.1,3.7-3,1,3.3,3.7,4.8,7.3,4.8s5.5-.8,8.1-1.9c1.3,1.4,3.9,1.8,6.1,1.8,6.2,0,13.1-3.1,17.9-6.5,1-.7,1.3-1.2,1.3-1.7,0-.9-.7-1.2-1.2-1.2s-.8.2-1.6.7c-4.8,3-11,5.9-16.6,5.9s-2.3,0-3-.4c4.6-2.2,7.1-4.2,7.1-6.8s-1.9-2.7-3.5-2.7c-4,0-8,3.4-8,7.6s0,.6,0,.9c-1.8.6-3.7,1.2-6.4,1.2s-5.2-2.7-5.2-5.6.8-5.4,1.9-7.8l4.7-.3c-.7.9-1.4,1.7-2,2.3-.9,1-1.3,1.4-1.5,1.8-.3.6.3,1.4.9,1.5.9,0,1.9-1,2.5-1.6,1-1,2.3-2.5,3.4-4l10-.6c.7,0,1.4-.4,1.4-1.3s-.7-1.2-1.2-1.2h-.2l-8.4.3c1.2-1.9,1.9-3.9,1.9-5.6s-1-2.7-3-2.7c-4.7,0-8.5,4.7-10.7,8.9l-10.8.6,1.2-2.6Z"/>
</svg>