<?xml version="1.0" encoding="UTF-8"?>
<svg id="Layer_1" xmlns="http://www.w3.org/2000/svg" version="1.1" viewBox="0 0 156 23">
  <!-- Generator: Adobe Illustrator 29.1.0, SVG Export Plug-In . SVG Version: 2.1.0 Build 142)  -->
  <defs>
    <style>
      .st0, .st1 {
        fill: #fff;
      }

      .st1 {
        fill-rule: evenodd;
      }
    </style>
  </defs>
  <path class="st1" d="M153.8.4c1.2,0,2.2,1,2.2,2.2,0,1.2-1,2.2-2.2,2.2-1.3,0-2.2-1-2.2-2.2,0-1.2,1-2.2,2.2-2.2ZM153.8,4.6c1.1,0,1.9-.9,1.9-2,0-1.1-.9-2-2-2-1.1,0-1.9.9-1.9,2,0,1.1.9,1.9,2,2Z"/>
  <path class="st1" d="M153.3,3.8h-.3V1.3h1.1c.4,0,.7,0,.8.7,0,.3,0,.4-.3.6.2.1.2.2.3.6,0,0,0,.2,0,.2,0,.1,0,.2.1.4h-.4v-.3c0,0,0-.1,0-.2,0-.3,0-.6-.4-.6h-.8v1.1ZM154.5,2.1c0-.4-.3-.5-.5-.5h-.8v.9h.8c.2,0,.4,0,.5-.4Z"/>
  <path class="st1" d="M144.3,20c-1.2,1.7-3.5,2.5-5.9,2.5-5.4,0-7.9-4-7.9-7.7,0-3.9,2.9-7.7,8.6-7.7,1.9,0,4.3.9,5.3,2.1V1h3.5v18.1c0,.7,0,1.4.1,2.1,0,.3,0,.5,0,.8h-3.3c0,0,0-.1,0-.2-.1-.5-.4-1.2-.4-1.8ZM144.4,14.7c0-2-2.2-5.2-5.2-5.3-3.5,0-5.2,3-5.2,5.3,0,2.2,2,5.1,5.5,5.1,2.9,0,4.9-3,4.9-5.1Z"/>
  <path class="st0" d="M116.4,13.3c0-2.1,3.6-3.7,5.4-3.6,2.7,0,3.3,2.1,3.3,3.6v8.8h3.4v-9.5c0-.5,0-1.4-.4-2.3-.7-2.1-4.1-3.5-5.9-3.5-2.8,0-4.7,1.2-5.8,2.5h0v-2.3h-3.5v15.1h3.5v-8.8Z"/>
  <path class="st1" d="M107.2,22c-.1-.6-.2-1.3-.2-1.9-1.2,1.7-4.3,2.4-6.7,2.4-3.4,0-6-1.6-6-4.4,0-1,.6-3.5,3.9-4.6,2.2-.8,6.2-.9,8.4-.8v-1.4c0-1-1.8-1.8-3.8-1.8-2.6,0-3.9,1.4-3.8,2.1h-3.8c0-1.8,1-3,2.5-3.6,1.5-.7,3.4-.9,5.4-.9,3.7,0,7.3,1.1,7.3,5.5v7.9c0,.5.1.8.2,1.2,0,.1,0,.3,0,.4h-3.4ZM101.5,19.7c3,0,5.1-1.1,5.2-4.1h0v-.4c-5.3-.6-8.1.8-8.1,2.3,0,2,1.5,2.2,3,2.2Z"/>
  <path class="st0" d="M92.8,1h-4.1v21h4.1V1Z"/>
  <path class="st1" d="M68.3,14.8c.6-7.7,9.4-7.8,9.5-7.7,5.6.2,9.5,3.3,9.5,7.7,0,4.6-3.6,7.7-9.5,7.7-6,0-9.9-3.1-9.5-7.7ZM72.3,14.8c0,2.3,2.1,5.2,5.5,5.2,3.3,0,5.5-2.9,5.5-5.2,0-2.4-2-5.2-5.5-5.2-3.5,0-5.5,2.8-5.5,5.2Z"/>
  <path class="st1" d="M59.4,13.1h-6.9v9h-4.2V1h10.2c4.5,0,8.8,1.2,8.8,5.5,0,2.7-.6,4.9-3.8,5.5h0c2.3.5,2.4,1.6,2.7,3.7,0,.4.1.9.2,1.4,0,.2,0,.5.1.8.2,1.4.5,3.2,1.4,4.1h-4.3c-.5-1.9-.7-3.7-1-5.6-.2-1.2-1.4-3.3-3.2-3.3ZM59.5,4.1h-7v6h7c2.5,0,3.9-1,3.9-2.9,0-1.8-1.5-3.1-3.9-3.1Z"/>
  <path class="st0" d="M38.8,1.2H1v20.7h2.3V3.5h35.5c2.8.1,4.5,1.4,4.8,4.5-.2,2.9-1.7,4.3-4.8,4.4H13.6v5.8h32v-2.3H15.8v-1.2h23c4.4-.2,6.9-2.7,7-6.7-.3-4.3-3.1-6.6-7-6.7Z"/>
  <path class="st1" d="M7.3,18.3v3.4h-2.3V5h34v5.9H14.4c-2.9.1-5.5,1.3-5.6,4.8.6,2.9,2.6,3.9,5.6,4h31v2.3H14.4c-2.7-.1-5.8-1-7.1-3.7ZM7.3,12.4c1.4-2.7,4.3-3.7,7.1-3.8h22.3v-1.3H7.3v5.1Z"/>
</svg>