<svg width="90" height="90" viewBox="0 0 90 90" fill="none" xmlns="http://www.w3.org/2000/svg">
<path d="M56.25 15.4688C50.5891 15.4739 45.0487 17.1039 40.2869 20.165C35.5251 23.2261 31.742 27.5897 29.3871 32.7375C28.0447 32.476 26.6802 32.3441 25.3125 32.3438C19.7181 32.3438 14.3528 34.5661 10.397 38.522C6.44112 42.4778 4.21875 47.8431 4.21875 53.4375C4.21875 59.0319 6.44112 64.3972 10.397 68.353C14.3528 72.3089 19.7181 74.5312 25.3125 74.5312H56.25C64.0822 74.5312 71.5936 71.4199 77.1317 65.8817C82.6699 60.3436 85.7812 52.8322 85.7812 45C85.7812 37.1678 82.6699 29.6564 77.1317 24.1183C71.5936 18.5801 64.0822 15.4688 56.25 15.4688ZM56.25 71.7188H25.3125C22.7861 71.7165 20.2875 71.1906 17.9745 70.1742C15.6615 69.1579 13.5843 67.6731 11.874 65.8137C10.1636 63.9542 8.85721 61.7604 8.03725 59.3708C7.21728 56.9811 6.90153 54.4474 7.10993 51.9296C7.31833 49.4117 8.04635 46.9644 9.24804 44.7421C10.4497 42.5197 12.099 40.5706 14.0918 39.0176C16.0846 37.4647 18.3777 36.3417 20.8263 35.7194C23.2749 35.0972 25.8259 34.9892 28.3184 35.4023C27.256 38.4906 26.7154 41.7342 26.7188 45C26.7187 45.373 26.8669 45.7306 27.1306 45.9944C27.3944 46.2581 27.752 46.4062 28.125 46.4062C28.498 46.4062 28.8556 46.2581 29.1194 45.9944C29.3831 45.7306 29.5312 45.373 29.5312 45C29.5313 39.7155 31.0983 34.5497 34.0342 30.1559C36.9701 25.762 41.143 22.3374 46.0252 20.3151C50.9074 18.2928 56.2796 17.7637 61.4626 18.7946C66.6455 19.8256 71.4063 22.3703 75.143 26.107C78.8797 29.8437 81.4244 34.6045 82.4554 39.7874C83.4863 44.9704 82.9572 50.3426 80.9349 55.2248C78.9126 60.107 75.488 64.2799 71.0941 67.2158C66.7003 70.1517 61.5345 71.7187 56.25 71.7188ZM68.4949 38.3801C68.6257 38.5107 68.7294 38.6658 68.8002 38.8365C68.8709 39.0072 68.9074 39.1902 68.9074 39.375C68.9074 39.5598 68.8709 39.7428 68.8002 39.9135C68.7294 40.0842 68.6257 40.2393 68.4949 40.3699L51.6199 57.2449C51.4893 57.3757 51.3342 57.4794 51.1635 57.5502C50.9928 57.6209 50.8098 57.6574 50.625 57.6574C50.4402 57.6574 50.2572 57.6209 50.0865 57.5502C49.9158 57.4794 49.7607 57.3757 49.6301 57.2449L41.1926 48.8074C40.9287 48.5436 40.7805 48.1857 40.7805 47.8125C40.7805 47.4393 40.9287 47.0814 41.1926 46.8176C41.4564 46.5537 41.8143 46.4055 42.1875 46.4055C42.5607 46.4055 42.9186 46.5537 43.1824 46.8176L50.625 54.2602L66.5051 38.3801C66.6357 38.2493 66.7908 38.1456 66.9615 38.0748C67.1322 38.0041 67.3152 37.9676 67.5 37.9676C67.6848 37.9676 67.8678 38.0041 68.0385 38.0748C68.2092 38.1456 68.3643 38.2493 68.4949 38.3801Z" fill="white"/>
</svg>
