<svg width="90" height="90" viewBox="0 0 90 90" fill="none" xmlns="http://www.w3.org/2000/svg">
<path d="M79.7449 21.5051L68.4949 10.2551C68.3643 10.1243 68.2092 10.0206 68.0385 9.94985C67.8678 9.87908 67.6848 9.84265 67.5 9.84265C67.3152 9.84265 67.1322 9.87908 66.9615 9.94985C66.7908 10.0206 66.6357 10.1243 66.5051 10.2551L32.7551 44.0051C32.6245 44.1358 32.521 44.2909 32.4504 44.4616C32.3799 44.6323 32.3436 44.8153 32.3438 45V56.25C32.3438 56.623 32.4919 56.9807 32.7556 57.2444C33.0194 57.5081 33.377 57.6563 33.75 57.6563H45C45.1847 57.6564 45.3677 57.6202 45.5384 57.5496C45.7091 57.479 45.8642 57.3755 45.9949 57.2449L79.7449 23.4949C79.8757 23.3643 79.9794 23.2092 80.0502 23.0385C80.1209 22.8678 80.1574 22.6848 80.1574 22.5C80.1574 22.3152 80.1209 22.1322 80.0502 21.9615C79.9794 21.7908 79.8757 21.6357 79.7449 21.5051ZM44.4164 54.8438H35.1562V45.5836L59.0625 21.6774L68.3227 30.9375L44.4164 54.8438ZM70.3125 28.9477L61.0523 19.6875L67.5 13.2399L76.7602 22.5L70.3125 28.9477ZM77.3438 45V73.125C77.3438 74.2439 76.8993 75.3169 76.1081 76.1081C75.3169 76.8993 74.2439 77.3438 73.125 77.3438H16.875C15.7561 77.3438 14.6831 76.8993 13.8919 76.1081C13.1007 75.3169 12.6562 74.2439 12.6562 73.125V16.875C12.6562 15.7561 13.1007 14.6831 13.8919 13.8919C14.6831 13.1007 15.7561 12.6563 16.875 12.6563H45C45.373 12.6563 45.7306 12.8044 45.9944 13.0681C46.2581 13.3319 46.4062 13.6895 46.4062 14.0625C46.4062 14.4355 46.2581 14.7932 45.9944 15.0569C45.7306 15.3206 45.373 15.4688 45 15.4688H16.875C16.502 15.4688 16.1444 15.6169 15.8806 15.8806C15.6169 16.1444 15.4688 16.502 15.4688 16.875V73.125C15.4688 73.498 15.6169 73.8557 15.8806 74.1194C16.1444 74.3831 16.502 74.5313 16.875 74.5313H73.125C73.498 74.5313 73.8556 74.3831 74.1194 74.1194C74.3831 73.8557 74.5312 73.498 74.5312 73.125V45C74.5312 44.627 74.6794 44.2694 74.9431 44.0056C75.2069 43.7419 75.5645 43.5938 75.9375 43.5938C76.3105 43.5938 76.6681 43.7419 76.9319 44.0056C77.1956 44.2694 77.3438 44.627 77.3438 45Z" fill="white"/>
</svg>
