<?xml version="1.0" encoding="UTF-8"?>
<svg id="Layer_1" xmlns="http://www.w3.org/2000/svg" version="1.1" viewBox="0 0 297.3 59">
  <!-- Generator: Adobe Illustrator 29.1.0, SVG Export Plug-In . SVG Version: 2.1.0 Build 142)  -->
  <defs>
    <style>
      .st0 {
        fill: #fff;
      }
    </style>
  </defs>
  <path class="st0" d="M4.4,30.2L15,2.6h6.1l10.5,27.6h-6.3l-5.4-16c-.3-1-.6-2-.9-2.9-.3-1-.6-1.9-.8-2.9-.3-1-.5-2-.8-3h1.3c-.3,1.1-.5,2.1-.8,3-.3.9-.5,1.9-.8,2.9-.3,1-.6,2-.9,3l-5.5,16h-6.2ZM11,24l.6-4.4h13.1l.6,4.4h-14.4Z"/>
  <path class="st0" d="M33.1,30.2V10.2h5.1l.2,4.4h.2v15.6h-5.5ZM45.8,17.4c0-.7-.1-1.3-.4-1.8-.2-.5-.6-.9-1.1-1.1-.5-.3-1-.4-1.7-.4s-1.4.2-2,.5c-.6.3-1.1.9-1.5,1.6-.4.7-.6,1.6-.6,2.8h-1.6v-5.3h.8c.5-.9,1-1.6,1.6-2.2.6-.6,1.4-1.1,2.2-1.4s1.8-.5,2.8-.5,2.6.3,3.6.9c1,.6,1.8,1.4,2.4,2.6.6,1.1.8,2.5.8,4.2v13h-5.5v-12.8ZM58.5,17.4c0-.7-.1-1.3-.4-1.8-.3-.5-.6-.9-1.1-1.1-.5-.3-1-.4-1.7-.4s-1.4.2-2,.5c-.6.3-1.1.8-1.5,1.6-.4.7-.6,1.6-.6,2.7h-1.8v-5.4h.6c.5-.9,1.1-1.6,1.8-2.2.7-.6,1.4-1,2.3-1.3.9-.3,1.8-.4,2.8-.4s2.7.3,3.7.8c1,.5,1.8,1.3,2.4,2.4.6,1.1.8,2.4.8,4v13.4h-5.5v-12.8Z"/>
  <path class="st0" d="M76.4,30.8c-2.1,0-3.9-.4-5.5-1.3-1.6-.9-2.7-2.1-3.6-3.7-.8-1.6-1.2-3.5-1.2-5.6s.4-3.9,1.2-5.5,2-2.8,3.6-3.7c1.5-.9,3.3-1.3,5.4-1.3s3.9.5,5.4,1.4,2.6,2.2,3.4,3.8,1.2,3.4,1.2,5.5v1.2h-16.7v-3.3h13.9l-2.5,1.3c0-1.3-.2-2.4-.6-3.3s-.9-1.5-1.6-2c-.7-.4-1.5-.7-2.5-.7s-1.9.2-2.6.7c-.7.4-1.3,1.1-1.7,2-.4.9-.6,2-.6,3.4v.8c0,1.4.2,2.5.6,3.5.4.9,1,1.6,1.7,2,.7.4,1.7.7,2.7.7s1.3,0,1.9-.3c.5-.2,1-.5,1.4-.9.4-.4.7-.8,1-1.4l5.2.4c-.5,1.3-1.1,2.4-2,3.3-.9.9-2,1.6-3.2,2.1-1.3.5-2.7.7-4.2.7Z"/>
  <path class="st0" d="M88.5,30.2V10.2h5.1l.2,4.8.2,1v14.2h-5.5ZM93.1,15.3c.3-1.1.7-2,1.2-2.9.6-.9,1.3-1.6,2.2-2.1.9-.5,1.9-.8,3.1-.8s.5,0,.7,0c.3,0,.5,0,.8.1v4.9c-.3,0-.5,0-.8,0-.3,0-.5,0-.7,0-1.1,0-2,.2-2.9.6-.8.4-1.5,1.1-2,1.9s-.8,1.8-.8,3h-.8v-4.8Z"/>
  <path class="st0" d="M102.5,7V2.6h5.5v4.4h-5.5ZM102.5,30.2V10.2h5.5v20h-5.5Z"/>
  <path class="st0" d="M120.3,30.8c-2.1,0-3.9-.4-5.4-1.3-1.5-.8-2.7-2-3.5-3.6-.8-1.6-1.2-3.5-1.2-5.6s.4-4.1,1.2-5.7c.8-1.6,2-2.8,3.6-3.7,1.5-.9,3.4-1.3,5.5-1.3s3.3.3,4.6.9,2.4,1.5,3.3,2.6,1.3,2.5,1.5,4.1l-5.3.2c-.1-.8-.4-1.5-.7-2-.3-.5-.8-1-1.4-1.2s-1.2-.4-2-.4-2,.2-2.7.8c-.7.5-1.2,1.2-1.6,2.2-.4,1-.5,2.2-.5,3.6s.2,2.6.5,3.6c.4,1,.9,1.7,1.6,2.2.7.5,1.6.8,2.6.8s1.5-.1,2-.4,1-.7,1.3-1.3c.3-.6.6-1.3.7-2.2l5.3.2c-.2,1.6-.7,3-1.6,4.2-.8,1.2-1.9,2.1-3.2,2.7-1.3.6-2.9,1-4.7,1Z"/>
  <path class="st0" d="M137.9,30.6c-1.4,0-2.6-.2-3.7-.7-1-.5-1.9-1.1-2.4-2-.6-.9-.9-1.9-.9-3.2s.2-2,.6-2.8,1.1-1.5,2.1-2,2.2-.9,3.8-1.1l6.4-.8c.3,0,.5-.1.7-.2.2-.1.3-.3.4-.5,0-.2.1-.5.1-.8l1.8,1.7c0,.5,0,.9-.2,1.3-.1.3-.3.6-.6.8s-.6.3-1.1.4l-5.5.8c-.8.1-1.4.3-1.9.6-.5.3-.8.6-1.1.9-.2.4-.3.8-.3,1.3s.1,1,.4,1.4c.3.4.6.7,1.1.9.5.2,1,.3,1.7.3s1.7-.2,2.5-.6c.7-.4,1.3-.9,1.8-1.5.4-.6.6-1.3.6-2.1h1.4v2.1c-.3,1.2-.8,2.2-1.5,3.1s-1.6,1.5-2.7,2c-1.1.5-2.3.7-3.7.7ZM149.5,30.2c-1.1,0-2-.2-2.7-.5s-1.2-.9-1.5-1.6c-.3-.7-.5-1.6-.5-2.8l-.4-.5v-8.7c0-.6-.1-1.1-.4-1.4s-.7-.7-1.2-.9-1.2-.3-2-.3-1.4,0-2,.3-.9.5-1.2.9-.5,1-.5,1.7h-5.3c.1-1.6.6-2.9,1.2-3.9.7-1,1.7-1.7,3-2.2,1.3-.5,2.9-.7,4.9-.7s3.5.2,4.8.7c1.3.5,2.3,1.2,3,2.2s1,2.3,1,3.8v8.4c0,.4,0,.7.2.9.1.2.3.4.5.5.2.1.5.2.9.2h.5v3.9h-2.4Z"/>
  <path class="st0" d="M153.3,30.2V10.2h5.1l.2,4.4h.2v15.6h-5.5ZM166.6,17.9c0-.8-.1-1.5-.4-2s-.6-1-1.1-1.2c-.5-.3-1.1-.4-1.8-.4s-1.6.2-2.2.5c-.7.4-1.2.9-1.6,1.7-.4.8-.6,1.7-.6,2.8h-1.6v-5.9h1c.5-.8,1-1.5,1.7-2.1s1.4-1,2.3-1.3c.9-.3,1.8-.4,2.8-.4,1.5,0,2.8.3,3.8.8s1.9,1.3,2.5,2.4c.6,1,.9,2.3.9,3.8v13.5h-5.5v-12.3Z"/>
  <path class="st0" d="M182.2,7.7V2.6h23.2v5.1h-23.2ZM190.9,30.2V5.2h5.9v25h-5.9Z"/>
  <path class="st0" d="M212.4,30.8c-2.1,0-3.9-.4-5.5-1.3-1.6-.9-2.7-2.1-3.6-3.7-.8-1.6-1.2-3.5-1.2-5.6s.4-3.9,1.2-5.5c.8-1.6,2-2.8,3.6-3.7,1.5-.9,3.3-1.3,5.4-1.3s3.9.5,5.4,1.4,2.6,2.2,3.4,3.8c.8,1.6,1.2,3.4,1.2,5.5v1.2h-16.7v-3.3h13.9l-2.5,1.3c0-1.3-.2-2.4-.6-3.3s-.9-1.5-1.6-2c-.7-.4-1.5-.7-2.5-.7s-1.9.2-2.6.7c-.7.4-1.3,1.1-1.7,2-.4.9-.6,2-.6,3.4v.8c0,1.4.2,2.5.6,3.5.4.9,1,1.6,1.7,2,.8.4,1.7.7,2.7.7s1.3,0,1.9-.3c.5-.2,1-.5,1.4-.9.4-.4.7-.8,1-1.4l5.2.4c-.5,1.3-1.1,2.4-2,3.3-.9.9-2,1.6-3.2,2.1-1.3.5-2.7.7-4.2.7Z"/>
  <path class="st0" d="M220.9,30.2l9.3-12.7v4.4s-8.4-11.6-8.4-11.6h6.2l2.3,3.7c.4.6.7,1.3,1.1,2,.4.7.7,1.4,1.1,2.2h-2.1c.4-.7.8-1.5,1.1-2.2.4-.7.7-1.4,1.1-2l2.3-3.7h6.3l-8.4,11.6v-4.3l9.3,12.7h-6.3l-3.1-4.9c-.4-.7-.8-1.4-1.2-2s-.8-1.3-1.2-2h2.4c-.4.7-.8,1.3-1.2,2-.4.7-.8,1.4-1.2,2l-3.1,4.9h-6.4Z"/>
  <path class="st0" d="M241.6,13.9v-3.7l5.8.2,7-.2v3.7l-7.1-.2-5.8.2ZM250.4,30.2c-1.4,0-2.5-.2-3.3-.6-.8-.4-1.4-1-1.8-1.8s-.6-1.9-.6-3.3V4.1h5.5v19.8c0,.5,0,.9.2,1.2.1.3.3.5.6.7.3.1.7.2,1.1.2h2.2v4.3h-4Z"/>
  <path class="st0" d="M256.4,7V2.6h5.5v4.4h-5.5ZM256.4,30.2V10.2h5.5v20h-5.5Z"/>
  <path class="st0" d="M265.1,30.2V2.6h5.5v27.6h-5.5Z"/>
  <path class="st0" d="M283,30.8c-2.1,0-3.9-.4-5.5-1.3-1.6-.9-2.7-2.1-3.6-3.7-.8-1.6-1.2-3.5-1.2-5.6s.4-3.9,1.2-5.5c.8-1.6,2-2.8,3.6-3.7,1.5-.9,3.3-1.3,5.4-1.3s3.9.5,5.4,1.4,2.6,2.2,3.4,3.8c.8,1.6,1.2,3.4,1.2,5.5v1.2h-16.7v-3.3h13.9l-2.5,1.3c0-1.3-.2-2.4-.6-3.3s-.9-1.5-1.6-2c-.7-.4-1.5-.7-2.5-.7s-1.9.2-2.6.7c-.7.4-1.3,1.1-1.7,2-.4.9-.6,2-.6,3.4v.8c0,1.4.2,2.5.6,3.5.4.9,1,1.6,1.7,2,.8.4,1.7.7,2.7.7s1.3,0,1.9-.3c.5-.2,1-.5,1.4-.9.4-.4.7-.8,1-1.4l5.2.4c-.5,1.3-1.1,2.4-2,3.3-.9.9-2,1.6-3.2,2.1-1.3.5-2.7.7-4.2.7Z"/>
  <path class="st0" d="M41.9,56v-16.1h3.6l3.8,9.7c.2.5.3.9.5,1.4.2.5.3,1,.5,1.5,0,.2.2.5.2.7,0,.2.2.5.2.7h-.4c.2-.8.4-1.5.7-2.2s.5-1.4.8-2.2l3.7-9.7h3.6v16.1h-2.4v-8.9c0-1,0-1.9,0-2.7,0-.9,0-1.8,0-2.8h.2c-.2.7-.4,1.4-.6,2-.2.6-.4,1.2-.6,1.8-.2.6-.4,1.2-.6,1.8l-3.4,8.9h-2.3l-3.5-8.9c-.2-.4-.3-.8-.5-1.2-.1-.4-.3-.8-.4-1.2-.1-.4-.3-.8-.4-1.3-.1-.3-.2-.7-.3-1s-.2-.7-.3-1h.2c0,.3,0,.6,0,.9,0,.3,0,.6,0,.9,0,.7,0,1.3,0,1.9s0,1.3,0,1.9v8.9h-2.4Z"/>
  <path class="st0" d="M65.9,56l6.2-16.1h2.8l6.2,16.1h-2.8l-3.6-10.2c-.2-.5-.4-1.1-.5-1.6-.2-.5-.3-1-.5-1.5-.2-.5-.3-1-.5-1.5h.6c-.1.5-.3,1-.4,1.5-.1.5-.3,1-.5,1.5-.2.5-.4,1.1-.5,1.6l-3.7,10.2h-2.7ZM69.2,51.7l.6-2.1h7.6l.5,2.1h-8.7Z"/>
  <path class="st0" d="M88.1,56v-16.1h2.6v16.1h-2.6Z"/>
  <path class="st0" d="M98.9,56v-16.1h2.8l6.3,9.8c.4.7.8,1.3,1.2,2s.9,1.5,1.4,2.5c0,0,0,.1.1.2,0,0,0,.1.1.2h-1.2c0-.1,0-.2,0-.4,0-.1,0-.2,0-.4,0-.8,0-1.5,0-2.2,0-.7,0-1.4,0-2v-9.8h2.5v16.1h-2.9l-5.5-8.7c-.4-.7-.8-1.3-1.2-2-.4-.7-.8-1.3-1.2-2-.4-.7-.8-1.3-1.2-2h1.2c0,.7,0,1.3,0,2,0,.7,0,1.4,0,2s0,1.3,0,2v8.7h-2.5Z"/>
  <path class="st0" d="M119.1,42.2v-2.2h13.1v2.2h-13.1ZM124.4,56v-15h2.6v15h-2.6Z"/>
  <path class="st0" d="M139.3,56v-16.1h11.8v2.2h-9.2v11.6h9.4v2.2h-12ZM140.6,48.8v-2.2h9.7v2.2h-9.7Z"/>
  <path class="st0" d="M159,56v-16.1h2.8l6.3,9.8c.4.7.8,1.3,1.2,2,.4.7.9,1.5,1.4,2.5,0,0,0,.1.1.2,0,0,0,.1.1.2h-1.2c0-.1,0-.2,0-.4,0-.1,0-.2,0-.4,0-.8,0-1.5,0-2.2,0-.7,0-1.4,0-2v-9.8h2.5v16.1h-2.9l-5.5-8.7c-.4-.7-.8-1.3-1.2-2-.4-.7-.8-1.3-1.2-2-.4-.7-.8-1.3-1.2-2h1.2c0,.7,0,1.3,0,2,0,.7,0,1.4,0,2s0,1.3,0,2v8.7h-2.5Z"/>
  <path class="st0" d="M179.1,56l6.2-16.1h2.8l6.2,16.1h-2.8l-3.6-10.2c-.2-.5-.4-1.1-.5-1.6-.2-.5-.3-1-.5-1.5-.2-.5-.3-1-.5-1.5h.6c-.1.5-.3,1-.4,1.5s-.3,1-.5,1.5c-.2.5-.4,1.1-.5,1.6l-3.7,10.2h-2.7ZM182.4,51.7l.6-2.1h7.6l.5,2.1h-8.7Z"/>
  <path class="st0" d="M201.3,56v-16.1h2.8l6.3,9.8c.4.7.8,1.3,1.2,2,.4.7.9,1.5,1.4,2.5,0,0,0,.1.1.2,0,0,0,.1.1.2h-1.2c0-.1,0-.2,0-.4,0-.1,0-.2,0-.4,0-.8,0-1.5,0-2.2,0-.7,0-1.4,0-2v-9.8h2.5v16.1h-2.9l-5.5-8.7c-.4-.7-.8-1.3-1.2-2-.4-.7-.8-1.3-1.2-2-.4-.7-.8-1.3-1.2-2h1.2c0,.7,0,1.3,0,2,0,.7,0,1.4,0,2s0,1.3,0,2v8.7h-2.5Z"/>
  <path class="st0" d="M229.9,56.4c-1.6,0-2.9-.4-4.1-1.1s-2.1-1.7-2.7-3-.9-2.7-.9-4.4.3-3.1,1-4.4c.6-1.3,1.5-2.2,2.7-2.9,1.2-.7,2.5-1,4.1-1s2.3.2,3.3.7,1.9,1.1,2.5,1.9c.7.8,1.1,1.8,1.3,2.8h-2.6c-.2-.7-.5-1.2-.9-1.7-.4-.5-.9-.8-1.5-1.1s-1.3-.4-2-.4c-1.1,0-2,.2-2.8.7s-1.4,1.2-1.8,2.1c-.4.9-.6,2-.6,3.3s.2,2.4.6,3.3,1,1.6,1.8,2.1,1.7.7,2.8.7,1.6-.2,2.2-.5c.6-.3,1.2-.8,1.6-1.4s.7-1.4.8-2.3h2.6c-.2,1.3-.6,2.4-1.2,3.4-.6,1-1.5,1.7-2.5,2.2-1,.5-2.2.8-3.5.8Z"/>
  <path class="st0" d="M244.5,56v-16.1h11.8v2.2h-9.2v11.6h9.4v2.2h-12ZM245.8,48.8v-2.2h9.7v2.2h-9.7Z"/>
</svg>