<?xml version="1.0" encoding="UTF-8"?>
<svg id="Layer_1" xmlns="http://www.w3.org/2000/svg" version="1.1" viewBox="0 0 132 59">
  <!-- Generator: Adobe Illustrator 29.1.0, SVG Export Plug-In . SVG Version: 2.1.0 Build 142)  -->
  <defs>
    <style>
      .st0 {
        fill: #fff;
      }
    </style>
  </defs>
  <path class="st0" d="M128.3,2.7v9.3c0,.7-.5,1.1-1.2.8,0,0-7.9-3.8-13-3.8-2,0-4.2.1-6,1-1.5.8-2.7,2.3-2.4,4.1.2,1.1,1.1,1.9,2,2.5,1.6,1,3.4,1.6,5.2,2.1,2.4.7,4.9,1.1,7.3,1.8,3.7,1.1,7.3,3,9.3,6.4,1,1.8,1.5,3.8,1.7,5.8.2,2.1,0,4.3-.4,6.4-.9,3.5-3.3,6.3-6.6,7.8-3.8,1.8-8.1,2.2-12.2,2.1-5.2,0-10.3-.9-15.3-2.3l-.6-.2c-.7-.2-1.2-.5-1.2-.5v-9.2c0-.7.5-1.1,1.2-.8,0,0,8.1,3.7,13.2,4.1,2.2.2,4.5.1,6.7-.5,1.7-.5,3.4-1.5,3.8-3.3.4-1.8-.2-3.8-1.7-4.8-1.3-.9-2.9-1.3-4.5-1.8-2.8-.8-5.7-1.2-8.4-2.1-3.6-1.1-7.3-2.9-9.3-6.2-1-1.7-1.6-3.7-1.7-5.8-.2-2.1,0-4.2.7-6.1,1.2-3.6,4.1-6.2,7.5-7.7C106.6.2,111.2,0,115.6.2c4.3.3,8.6,1.1,12.7,2.5-2.5-.9,0,0,0,0Z"/>
  <path class="st0" d="M27.8,26.2c-1.1,0-2.9,0-4,.1,0,0-5.8.4-7.6,1.6-1.8,1.2-2.7,3.2-2.7,6s.6,3.8,1.9,5c1.3,1.2,3,1.9,5.1,1.9,3.2,0,5.7-1.2,7.5-3.7,1.8-2.4,2.7-5.8,2.7-10.2s-.9-.8-2-.8h-.9ZM42.8,21.5v24.7c0,1.1-.9,2-2,2h-8.1c-1.1,0-2-.9-2-2v-1.2c0-1.1-.6-1.3-1.4-.5,0,0-2,2.2-4.3,3.3-2.3,1.1-4.9,1.7-7.6,1.7-5.3,0-9.5-1.4-12.4-4.2-3-2.8-4.4-6.7-4.4-11.8s1.8-9.5,5.3-12.1c3.5-2.6,9-3.9,16.4-3.9h6.5c1.1,0,2-.5,2-1s-.2-1.9-.4-3c0,0-.3-1.5-1.7-2.5-1.4-1-3.5-1.5-6.3-1.5s-5.8.4-8.5,1.1c-2.7.7-5.6,1.9-8.6,3.5V5.5c0-1.1.8-2.3,1.9-2.7,0,0,3.6-1.3,6.3-1.8,2.8-.5,5.7-.8,8.8-.8,7.6,0,12.9,1.5,16,4.6,3.1,3.1,4.6,8.6,4.6,16.6Z"/>
  <path class="st0" d="M94.1.8h-20c-1,0-2.1.7-2.6,1.6,0,0-.6,1.4-1.1,2.8,0,1.7,6.3,18.2,6.3,18.2L94.8,2.2c.6-.7.3-1.3-.6-1.3Z"/>
  <path class="st0" d="M91.8,56.8L64,2.4c-.4-.9-1.6-1.6-2.6-1.6h-20.1c-1,0-1.2.6-.6,1.3l19.2,23.1-10.9,21.6c-.4.9,0,1.6,1,1.6h3.7c1,0,2.3-.6,2.9-1.3l10.9-12.8,19,22.8c.6.7,1.9,1.3,2.9,1.3h1.4c1,0,1.4-.7,1-1.6Z"/>
</svg>