<?xml version="1.0" encoding="UTF-8"?>
<svg id="Layer_1" xmlns="http://www.w3.org/2000/svg" version="1.1" viewBox="0 0 102.7 59">
  <!-- Generator: Adobe Illustrator 29.1.0, SVG Export Plug-In . SVG Version: 2.1.0 Build 142)  -->
  <defs>
    <style>
      .st0 {
        fill: #fff;
      }
    </style>
  </defs>
  <path class="st0" d="M5.5,52H.9v-2.5h4.6v-4.6h2.6v4.6h4.6v2.5h-4.6v4.6h-2.6v-4.6Z"/>
  <g>
    <path class="st0" d="M16.1,11.9h0c0-3.3,2.5-6,6-6s3.5.8,4.6,2l-1.6,1.7c-.8-.9-1.7-1.5-3-1.5-2,0-3.4,1.7-3.4,3.7h0c0,2.1,1.5,3.8,3.5,3.8s2.2-.6,3-1.4l1.5,1.5c-1.1,1.3-2.5,2.2-4.7,2.2-3.4,0-5.9-2.7-5.9-5.9Z"/>
    <path class="st0" d="M28.6,14.3h0c0-2.5,1.9-3.7,4.8-3.7s2.2.2,3.1.5v-.3c0-1.7-1-2.6-2.9-2.6s-2.3.3-3.3.7l-.7-2c1.3-.6,2.5-.9,4.3-.9s3,.5,3.8,1.3c.8.8,1.2,2,1.2,3.5v6.8h-2.4v-1.5c-.8.9-2,1.7-3.8,1.7s-4.1-1.2-4.1-3.5ZM36.5,13.5v-.8c-.7-.2-1.6-.5-2.7-.5-1.7,0-2.8.8-2.8,2h0c0,1.2,1,1.8,2.3,1.8,1.8,0,3.2-1,3.2-2.5Z"/>
    <path class="st0" d="M42.3,6.2h2.5v2.6c.7-1.7,2.1-2.9,4.1-2.9v2.7h-.1c-2.3,0-4,1.5-4,4.6v4.4h-2.5V6.2h0Z"/>
    <path class="st0" d="M51.4,6.2h2.5v2.6c.8-1.7,2.1-2.9,4.1-2.9v2.7h-.1c-2.3,0-4,1.5-4,4.6v4.4h-2.5V6.2Z"/>
    <path class="st0" d="M60.6,1.9h2.7v2.4h-2.7V1.9ZM60.7,6.2h2.5v11.5h-2.5V6.2Z"/>
    <path class="st0" d="M66.2,11.9h0c0-3.3,2.3-6,5.6-6s5.5,2.9,5.5,6.1,0,.5,0,.7h-8.5c.3,1.9,1.6,3,3.4,3s2.3-.5,3.2-1.4l1.5,1.3c-1.1,1.3-2.6,2.1-4.7,2.1-3.3,0-5.9-2.4-5.9-6ZM74.8,11.1c-.2-1.8-1.2-3.1-3-3.1s-2.8,1.3-3.1,3.1h6.1Z"/>
    <path class="st0" d="M80.1,6.2h2.5v2.6c.7-1.7,2.1-2.9,4.1-2.9v2.7h-.1c-2.3,0-4,1.5-4,4.6v4.4h-2.5V6.2Z"/>
  </g>
  <g>
    <path class="st0" d="M16.1,40.4v-2c.3,0,.5,0,.8,0,.7,0,1.2-.4,1.2-1.4v-11.5h2.5v11.7c0,2.3-1.2,3.3-3.3,3.3-.5,0-.8,0-1.3-.1ZM18,21.3h2.7v2.4h-2.7v-2.4Z"/>
    <path class="st0" d="M23.7,31.3h0c0-3.3,2.6-6,6.1-6s6.1,2.7,6.1,6h0c0,3.3-2.6,6-6.1,6-3.5,0-6.1-2.7-6.1-5.9ZM33.3,31.3h0c0-2.1-1.5-3.8-3.6-3.8s-3.6,1.7-3.6,3.7h0c0,2.1,1.5,3.8,3.6,3.8,2.2,0,3.6-1.7,3.6-3.7Z"/>
    <path class="st0" d="M38.7,21.1h2.5v6.2c.7-1.1,1.8-2,3.6-2,2.6,0,4.1,1.7,4.1,4.4v7.3h-2.5v-6.5c0-1.8-.9-2.9-2.5-2.9s-2.7,1.1-2.7,2.9v6.5h-2.5v-15.9h0Z"/>
    <path class="st0" d="M52.4,25.5h2.5v1.8c.7-1.1,1.8-2,3.6-2,2.6,0,4.1,1.7,4.1,4.4v7.3h-2.5v-6.5c0-1.8-.9-2.9-2.5-2.9s-2.7,1.1-2.7,2.9v6.5h-2.5v-11.5h0Z"/>
    <path class="st0" d="M65.1,35.5l1.1-1.7c1.3.9,2.6,1.4,3.8,1.4s1.8-.5,1.8-1.3h0c0-1-1.2-1.3-2.6-1.7-1.7-.5-3.6-1.2-3.6-3.3h0c0-2.2,1.8-3.5,4-3.5s3,.5,4.2,1.3l-1,1.8c-1.1-.7-2.3-1.1-3.2-1.1s-1.7.5-1.7,1.2h0c0,.9,1.2,1.3,2.6,1.7,1.7.5,3.6,1.3,3.6,3.3h0c0,2.4-1.9,3.6-4.2,3.6-1.6,0-3.4-.6-4.9-1.7Z"/>
    <path class="st0" d="M76.5,31.3h0c0-3.3,2.6-6,6.1-6s6.1,2.7,6.1,6h0c0,3.3-2.6,6-6.1,6-3.5,0-6.1-2.7-6.1-5.9ZM86.1,31.3h0c0-2.1-1.5-3.8-3.6-3.8s-3.6,1.7-3.6,3.7h0c0,2.1,1.5,3.8,3.6,3.8,2.2,0,3.6-1.7,3.6-3.7Z"/>
    <path class="st0" d="M91.5,25.5h2.5v1.8c.7-1.1,1.8-2,3.6-2,2.6,0,4.1,1.7,4.1,4.4v7.3h-2.5v-6.5c0-1.8-.9-2.9-2.5-2.9s-2.7,1.1-2.7,2.9v6.5h-2.5v-11.5h0Z"/>
  </g>
  <g>
    <path class="st0" d="M16.1,50.8h0c0-3.2,2.5-5.9,5.7-5.9s3.4.9,4.5,2.1l-.9,1c-.9-.9-2-1.8-3.6-1.8-2.4,0-4.2,2-4.2,4.5h0c0,2.6,1.9,4.6,4.3,4.6s2.7-.8,3.6-1.8l.9.9c-1.1,1.3-2.5,2.2-4.6,2.2-3.2,0-5.7-2.7-5.7-5.8Z"/>
    <path class="st0" d="M29.2,52.1v-6.9h1.4v6.6c0,2.2,1.2,3.6,3.3,3.6s3.6-1.5,3.6-3.7v-6.4h1.4v11.2h-1.4v-2c-.7,1.3-1.9,2.3-3.9,2.3-2.8,0-4.4-1.9-4.4-4.6Z"/>
    <path class="st0" d="M43.1,40.5h1.4v15.9h-1.4v-15.9Z"/>
    <path class="st0" d="M49.4,53.4v-7h-1.6v-1.3h1.6v-3.5h1.4v3.5h3.7v1.3h-3.7v6.8c0,1.5.8,2,2,2s1-.1,1.6-.4v1.3c-.6.3-1.1.4-1.9.4-1.8,0-3.1-.9-3.1-3.1Z"/>
    <path class="st0" d="M57.5,52.1v-6.9h1.4v6.6c0,2.2,1.2,3.6,3.3,3.6s3.6-1.5,3.6-3.7v-6.4h1.4v11.2h-1.4v-2c-.7,1.3-1.9,2.3-3.9,2.3-2.8,0-4.4-1.9-4.4-4.6Z"/>
    <path class="st0" d="M71.3,45.2h1.4v3c.8-1.9,2.6-3.3,4.7-3.2v1.5h0c-2.5,0-4.6,1.9-4.6,5.3v4.5h-1.4v-11.2Z"/>
    <path class="st0" d="M79.1,50.8h0c0-3.3,2.3-5.9,5.3-5.9s5.2,2.6,5.2,5.9,0,.3,0,.5h-9c.2,2.6,2.1,4.1,4.1,4.1s2.7-.7,3.7-1.7l.9.8c-1.1,1.2-2.5,2.1-4.6,2.1-3,0-5.6-2.3-5.6-5.8ZM88.1,50.2c-.2-2.1-1.4-4-3.8-4s-3.6,1.7-3.8,4h7.6Z"/>
  </g>
</svg>