<?xml version="1.0" encoding="UTF-8"?>
<svg id="Layer_1" xmlns="http://www.w3.org/2000/svg" version="1.1" viewBox="0 0 136.8 36.9">
  <!-- Generator: Adobe Illustrator 29.1.0, SVG Export Plug-In . SVG Version: 2.1.0 Build 142)  -->
  <defs>
    <style>
      .st0 {
        fill: #fff;
      }
    </style>
  </defs>
  <rect class="st0" x="19.1" y="1.4" width="16.3" height="16.3"/>
  <rect class="st0" x="19.1" y="18.9" width="2.4" height="16.3"/>
  <rect class="st0" x="23" y="18.9" width="1.6" height="16.3"/>
  <rect class="st0" x="26.4" y="18.9" width="1.6" height="16.3"/>
  <rect class="st0" x="29.8" y="18.9" width="1.6" height="16.3"/>
  <rect class="st0" x="33" y="18.9" width="2.4" height="16.3"/>
  <polygon class="st0" points="1.8 18.9 1.8 35.2 18.1 35.2 1.8 18.9"/>
  <path class="st0" d="M9.7,1.4h0c-4.6,1.3-7.1,6.8-4.6,11,2.5,4.2,9.2,4.2,10.8-.8,1.2-3.5-2.1-8.3-6-7.2-3.2.8-4.6,4.8-2.7,7.4.8,1.2,2.4,1.8,3.9,1.6.8-.1,1.5-.5,2-1.1,1.3-1.3,1.3-3.7-.1-4.9-1.4-1.2-3.8-.8-4.4,1.1-.4,1.3.4,2.8,1.8,3,.8.1,1.8-.4,2-1.3.1-.4,0-.9-.1-1.3-.4-.8-1.5-1.1-2.2-.4-.1.1-.2.3-.3.4.2-.3.6-.4.9-.4s0,0,0,0c.6,0,1.2.4,1.3,1,.2,1-.8,1.8-1.8,1.5-1.8-.5-1.5-3,.2-3.4,1.6-.4,3,1.2,2.5,2.7-.8,2.7-4.6,2.3-5.2-.3-.3-1.1,0-2.4.9-3.2,1.3-1.3,3.5-1.2,4.8,0,.9.7,1.4,1.9,1.5,3,0,2.3-1.5,4.3-3.8,4.6-2.5.4-5-1.1-5.8-3.5-1.4-4.1,1.9-8.5,6.3-8.1,3,.4,5.1,2.9,5.8,5.7.6,2.3-.2,4.8-1.9,6.4-2.5,2.5-6.8,2.7-9.6.8C.9,12.5,1.1,5.1,5.5,1.4H1.8v16.3h16.3V1.4h-8.4Z"/>
  <g>
    <path class="st0" d="M48.4,8.1h9c3.5,0,6.2.9,8.2,2.8,2,1.9,3,4.4,3,7.4s-1,5.6-3.1,7.4c-2,1.8-5,2.7-8.7,2.7h-8.4V8.1ZM53.5,11.8v12.9h3.3c2.1,0,3.8-.6,4.9-1.8s1.7-2.7,1.7-4.7-.6-3.6-1.7-4.7c-1.2-1.2-2.8-1.7-5-1.7h-3.2Z"/>
    <path class="st0" d="M91.8,9.5v4.4c-2.6-1.3-5.1-1.9-7.6-1.9s-4.2.6-5.5,1.8c-1.3,1.2-1.9,2.7-1.9,4.6s.6,3.2,1.9,4.3c1.3,1.1,3,1.7,5.1,1.7s2.2-.2,3.4-.7v-2.4h-2.9v-3.7h8v8.3c-.8.8-2,1.5-3.7,2-1.6.5-3.3.8-4.9.8-3.5,0-6.5-1-8.7-2.9-2.3-2-3.4-4.4-3.4-7.5s1.1-5.6,3.4-7.5c2.3-1.9,5.2-2.9,8.8-2.9s5.7.6,8,1.7Z"/>
    <path class="st0" d="M108.5,8.1l9,20.3h-5.4l-1.7-4h-9.1l-1.5,4h-5.4l8.2-20.3h5.9ZM108.9,20.9l-3.3-7.9-3,7.9h6.3Z"/>
  </g>
</svg>