<?xml version="1.0" encoding="UTF-8"?>
<svg id="Layer_1" xmlns="http://www.w3.org/2000/svg" version="1.1" viewBox="0 0 107 40">
  <!-- Generator: Adobe Illustrator 29.1.0, SVG Export Plug-In . SVG Version: 2.1.0 Build 142)  -->
  <defs>
    <style>
      .st0 {
        fill: #fff;
      }
    </style>
  </defs>
  <g>
    <path class="st0" d="M28.1,29.1v-10.9h4.7c2.2,0,3.4,1.6,3.4,3.4s-1.2,3.4-3.4,3.4h-2.8v4.1h-1.9ZM34.7,21.6c0-.9-.6-1.9-1.9-1.9h-2.8v3.4h2.5c1.3,0,2.2-.6,2.2-1.6Z"/>
    <path class="st0" d="M44.7,29.1l-.9-2.2h-5l-.9,2.2h-2.2l4.4-10.9h2.5l4.4,10.9h-2.2ZM41.3,20l-1.9,5.3h3.8l-1.9-5.3Z"/>
    <path class="st0" d="M54.1,29.1l-2.5-4.1h-1.9v4.1h-1.9v-10.9h4.7c2.2,0,3.4,1.2,3.4,3.4s-1.2,3.1-2.5,3.1l2.5,4.4h-1.9ZM54.4,21.6c0-.9-.6-1.9-1.9-1.9h-2.5v3.4h2.5c.9,0,1.9-.6,1.9-1.6Z"/>
    <path class="st0" d="M60.6,29.1v-9.1h-3.1v-1.6h8.4v1.6h-3.1v9.1h-2.2Z"/>
    <path class="st0" d="M75,29.1l-5.6-7.8v7.8h-1.9v-10.9h1.9l5.6,7.5v-7.5h1.9v10.9h-1.9Z"/>
    <path class="st0" d="M79.4,29.1v-10.9h7.5l-.6,1.6h-5v2.8h4.4l-.6,1.6h-4.1v3.1h5.6l-.6,1.6h-6.6v.3Z"/>
    <path class="st0" d="M95,29.1l-2.5-4.1h-1.9v4.1h-1.9v-10.9h4.7c2.2,0,3.4,1.2,3.4,3.4s-1.2,3.1-2.5,3.1l2.5,4.4h-1.9ZM95.3,21.6c0-.9-.6-1.9-1.9-1.9h-2.5v3.4h2.5c.9,0,1.9-.6,1.9-1.6Z"/>
    <path class="st0" d="M98.4,27.5l.9-1.6c.6.9,1.9,1.6,3.4,1.6s2.2-.6,2.2-1.6c0-2.2-6.2-.9-6.2-5s1.6-3.1,4.1-3.1,3.1.6,4.1,1.6l-.9,1.6c-.9-.9-1.9-1.2-3.1-1.2s-1.9.6-1.9,1.2c0,1.9,6.2.6,6.2,4.7s-1.2,3.4-4.1,3.4-3.7-.6-4.7-1.6Z"/>
  </g>
  <path class="st0" d="M28.4,15.9h3.1v-.6h-2.5v-1.2h2.2v-.6h-2.2v-1.2h2.5v-.6h-3.1v4.4Z"/>
  <path class="st0" d="M37.5,14.4l-2.5-3.1h-.6v4.7h.9v-3.1l2.5,3.1h.6v-4.7h-.9v3.1Z"/>
  <path class="st0" d="M40.9,11.9h1.6v4.1h.9v-4.1h1.6v-.6h-3.8v.6h-.3Z"/>
  <path class="st0" d="M47.5,15.9h3.1v-.6h-2.5v-1.2h2.2v-.6h-2.2v-1.2h2.5v-.6h-3.1v4.4Z"/>
  <path class="st0" d="M56.9,12.8c0-.9-.6-1.6-1.6-1.6h-1.9v4.7h.9v-1.9h.6l1.2,1.9h.9l-1.2-1.9c.3,0,.9-.6.9-1.2ZM55.9,12.8c0,.3-.3.6-.6.6h-.9v-1.6h.9c.3,0,.6.3.6.9Z"/>
  <path class="st0" d="M59.4,11.9h1.6v4.1h.9v-4.1h1.6v-.6h-3.8v.6h-.3Z"/>
  <path class="st0" d="M66.9,11.3l-1.9,4.7h.9l.3-.9h1.9l.3.9h.9l-1.9-4.7h-.6ZM67.8,14.1h-1.2l.6-1.6.6,1.6Z"/>
  <rect class="st0" x="71.6" y="11.3" width=".9" height="4.7"/>
  <path class="st0" d="M78.4,14.4l-2.5-3.1h-.6v4.7h.9v-3.1l2.5,3.1h.6v-4.7h-.9v3.1Z"/>
  <path class="st0" d="M84.4,14.4l-1.2-3.1h-.9v4.7h.9v-2.8l1.2,2.8h.3l1.2-2.8v2.8h.9v-4.7h-.9l-1.6,3.1Z"/>
  <path class="st0" d="M89.7,15.9h3.1v-.6h-2.5v-1.2h2.2v-.6h-2.2v-1.2h2.5v-.6h-3.1v4.4Z"/>
  <path class="st0" d="M98.8,14.4l-2.5-3.1h-.6v4.7h.9v-3.1l2.5,3.1h.6v-4.7h-.9v3.1Z"/>
  <path class="st0" d="M102.2,11.3v.6h1.6v4.1h.9v-4.1h1.6v-.6h-4.1Z"/>
  <path class="st0" d="M12.2,8.4C5.6,8.4,0,13.8,0,20.6s5.3,12.2,12.2,12.2,12.2-5.3,12.2-12.2-5.3-12.2-12.2-12.2ZM11.9,19.1l-5.3,3.1v-1.6l3.4-1.9h0c-.6-.6-1.6-1.2-2.5-1.2-1.6,0-3.1,1.2-3.1,3.1s0,.6.3,1.2c.3.6.6.9.9,1.2,0,0,.3.3.6.3.3.3.9.3,1.2.3.6,0,1.6-.3,2.2-.9h1.9c-.9,1.2-2.2,2.2-3.8,2.2s-2.5-.6-3.1-1.2c-.3-.3-.6-.6-.9-1.2-.3-.6-.3-1.2-.3-1.9,0-2.5,1.9-4.4,4.4-4.4s2.8.6,3.8,1.9c0,0,.3.3.3.9h0ZM16.9,24.7c-.6,0-.9,0-1.6-.3v-1.6c.3.3.9.6,1.6.6,1.6,0,2.8-1.2,2.8-2.8s-1.2-2.8-2.8-2.8-2.2.6-2.5,1.6h0v8.1h-1.6v-7.2c0-.6,0-.9.3-1.6.6-1.6,2.2-2.8,4.1-2.8s4.4,1.9,4.4,4.4c-.3,2.2-2.2,4.4-4.7,4.4Z"/>
</svg>