<?xml version="1.0" encoding="UTF-8"?>
<svg id="Layer_1" xmlns="http://www.w3.org/2000/svg" version="1.1" viewBox="0 0 162 59">
  <!-- Generator: Adobe Illustrator 29.1.0, SVG Export Plug-In . SVG Version: 2.1.0 Build 142)  -->
  <defs>
    <style>
      .st0 {
        fill: #fff;
      }
    </style>
  </defs>
  <g id="Recovery">
    <path class="st0" d="M4.2,54.8v-15.9H1.2v-2.7h8.7c1.5,0,2.9.1,4.3.4,1.1.3,2,.9,2.7,1.8.7,1,1.1,2.2,1.1,3.4,0,2.8-1.5,4.6-4.4,5.3l3.8,7.7h2.7v2.7h-4.7l-4.9-9.9h-3v7.3h2.7v2.7H1.2v-2.7h3ZM7.4,44.9h2.5c.9,0,1.8,0,2.7-.2.6-.2,1.1-.5,1.4-1,.4-.6.6-1.3.6-1.9,0-.6-.2-1.3-.6-1.8-.3-.5-.8-.8-1.4-.9-.8-.2-1.7-.2-2.5-.2h-2.7v6Z"/>
    <path class="st0" d="M23.2,54.8v-15.9h-2.8v-2.7h17.9v6.4h-2.7v-3.7h-9.2v6.4h8v2.7h-8v6.9h9.2v-3.9h2.7v6.5h-17.9v-2.7h2.8Z"/>
    <path class="st0" d="M57.5,48.9l2.8,1.5c-.5,2.2-1.9,4.2-3.8,5.5-1.9,1.3-4.2,2-6.6,1.9-2.9.1-5.8-1-7.8-3.1-2-2.1-3-4.9-2.9-7.7-.1-3,.9-5.9,3-8,2.1-2,4.9-3.1,7.7-3,2.5,0,5,.7,7.1,2.3v-1.9h2.8v6.8h-2.8c-.6-1.3-1.6-2.5-2.9-3.2-1.2-.7-2.6-1.1-4.1-1.1-2,0-3.9.8-5.3,2.3-1.4,1.6-2.1,3.7-2.1,5.8,0,2.2.7,4.3,2.2,5.9,1.4,1.5,3.3,2.3,5.2,2.3,1.6,0,3.3-.6,4.5-1.6,1.4-1.1,2.4-2.7,2.9-4.5Z"/>
    <path class="st0" d="M61,46.8c0-2.9,1-5.7,3.1-7.7,2.1-2.1,5-3.2,8-3.1,3-.1,5.9,1,8.1,3.1,2.1,2.1,3.2,4.9,3.1,7.8,0,3-1.1,5.8-3.2,7.9-2.2,2.1-5.1,3.2-8.1,3.1-2,0-4-.5-5.7-1.4-1.7-.9-3.1-2.4-3.9-4.1-.9-1.7-1.3-3.6-1.3-5.5ZM64.6,46.8c0,2.1.7,4.2,2.1,5.9,1.4,1.6,3.4,2.4,5.5,2.4,2.1,0,4.1-.8,5.5-2.4,1.4-1.6,2.2-3.6,2.1-5.8,0-2.1-.7-4.2-2.2-5.7-1.4-1.5-3.4-2.4-5.5-2.3-2,0-4,.8-5.4,2.3-1.4,1.6-2.1,3.6-2,5.8h0Z"/>
    <path class="st0" d="M91.4,57.7l-7.3-18.8h-2.6v-2.7h8.5v2.7h-2.5l5.5,14.2,5.3-14.2h-2.5v-2.7h8.3v2.7h-2.6l-7.1,18.8h-3Z"/>
    <path class="st0" d="M107.4,54.8v-15.9h-2.8v-2.7h17.9v6.4h-2.7v-3.7h-9.1v6.4h8v2.7h-8v6.9h9.2v-3.9h2.7v6.5h-17.9v-2.7h2.8Z"/>
    <path class="st0" d="M125.9,54.8v-15.9h-3v-2.7h8.7c1.5,0,2.9.1,4.4.4,1.1.3,2,.9,2.7,1.8.7,1,1.1,2.2,1,3.4,0,2.8-1.5,4.6-4.4,5.3l3.8,7.7h2.7v2.7h-4.7l-4.9-9.9h-3.1v7.3h2.7v2.7h-8.9v-2.7h3ZM129.2,44.9h2.5c.9,0,1.8,0,2.7-.2.6-.2,1.1-.5,1.4-1,.4-.6.6-1.3.6-1.9,0-.6-.2-1.2-.6-1.8-.3-.5-.8-.8-1.4-.9-.8-.2-1.7-.2-2.5-.2h-2.7v6Z"/>
    <path class="st0" d="M148.6,54.8v-7l-6.4-8.9h-2.6v-2.7h8.8v2.7h-2.7l4.7,6.5,4.3-6.6h-2.7v-2.6h8.6v2.7h-2.8l-6,8.9v7h2.9v2.7h-9.1v-2.7h2.9Z"/>
  </g>
  <g id="Exodus">
    <path class="st0" d="M1.2,30.6v-4.9h3.4V6.4H1.2V1.5h24.9v9.2h-5.4v-4.3h-8.7v6.7h7.1v4.9h-7.1v7.6h8.7v-4.4h5.4v9.3H1.2Z"/>
    <path class="st0" d="M26.8,30.6v-4.9h4.2l6.9-10-6.9-9.2h-3.9V1.5h14.8v5h-2.7l4,5.1,3.6-5.1h-2.6V1.5h12.7v5h-3.9l-6.7,9.5,7.4,9.7h4.1v4.9h-15.2v-4.9h2.8l-4.3-5.7-4,5.7h2.9v4.9h-13.2Z"/>
    <path class="st0" d="M70.8,1c4.8,0,8.7,1.5,11.5,4.4,2.8,2.8,4.3,6.6,4.2,10.6,0,4-1.4,7.8-4.2,10.6-2.8,2.9-6.6,4.4-11.5,4.4s-8.9-1.5-11.6-4.5c-2.7-2.8-4.1-6.6-4.1-10.5,0-3.9,1.4-7.8,4.2-10.6,2.8-2.9,6.6-4.4,11.5-4.4ZM70.8,6.3c-2.1,0-4.1.9-5.5,2.5-1.5,1.7-2.3,4.1-2.3,7.4-.1,2.5.7,4.9,2.2,6.9,1.4,1.7,3.4,2.6,5.5,2.6,2.1,0,4.1-.9,5.5-2.5,1.5-1.7,2.3-4.1,2.3-7.3.1-2.5-.7-4.9-2.2-6.9-1.3-1.7-3.4-2.7-5.6-2.6Z"/>
    <path class="st0" d="M85.2,30.6v-4.9h4.3V6.4h-4.3V1.5h13.4c2.3,0,4.6.1,6.8.5,1.8.4,3.5,1.2,4.9,2.4,1.6,1.3,2.9,3,3.8,4.9,1,2.1,1.5,4.5,1.4,6.8,0,2-.3,3.9-1,5.8-.5,1.6-1.4,3.1-2.5,4.4-1,1.1-2.2,2.1-3.5,2.7-1.2.6-2.5,1-3.8,1.3-1.8.2-3.5.3-5.3.3h-14.2ZM96.8,25.6h1.8c1.7,0,3.5-.3,5.1-.9,1.3-.6,2.4-1.7,3-3,.8-1.8,1.2-3.7,1.1-5.7,0-1.9-.3-3.9-1.1-5.7-.6-1.4-1.7-2.5-3.1-3.2-1.6-.6-3.3-1-5-.9h-1.8v19.3Z"/>
    <path class="st0" d="M114.4,6.4V1.5h13.5v5h-2.8v13.1c0,1.3,0,2.5.2,3.8.1.8.5,1.4,1.1,1.9.7.5,1.5.8,2.3.8.9,0,1.7-.2,2.4-.7.6-.4,1-1.1,1.2-1.8.2-1.4.3-2.9.3-4.4V6.4h-2.7V1.5h11.2v5h-3.5v14.5c0,1.4,0,2.9-.3,4.3-.2,1-.7,1.9-1.4,2.7-.9,1-2,1.7-3.2,2.2-1.5.6-3.1.9-4.8.8-1.8,0-3.6-.3-5.3-.9-1.3-.5-2.4-1.3-3.3-2.4-.7-.9-1.1-1.9-1.4-3-.3-1.7-.4-3.4-.3-5.1V6.4h-3.4Z"/>
    <path class="st0" d="M141.9,30.6v-9.9h4.8c0,1.5.4,2.9,1.4,4,.8.8,1.8,1.3,3,1.3.8,0,1.6-.3,2.2-.9.6-.6.9-1.4.9-2.2,0-.8-.3-1.7-.9-2.3-1-.8-2-1.5-3.2-2.1-3.3-1.6-5.5-3-6.7-4.3-1.2-1.4-1.8-3.2-1.7-5.1-.3-4.2,2.9-7.7,7.1-8,.2,0,.3,0,.5,0,2.1,0,4.1,1,5.2,2.7V1.5h4.8v8.8h-4.8c0-1.2-.6-2.3-1.4-3.2-.7-.7-1.7-1.1-2.7-1.1-.7,0-1.4.2-2,.7-.5.4-.8,1-.8,1.7,0,.6.3,1.2.7,1.7.4.5,1.7,1.3,3.9,2.3,1.7.7,3.3,1.6,4.8,2.6,1.1.8,2,1.8,2.6,3,.7,1.3,1,2.8,1,4.3,0,2.9-.8,5-2.4,6.5-1.6,1.4-3.6,2.2-5.8,2.2-2.3.1-4.4-1-5.7-2.8v2.5h-4.8Z"/>
  </g>
</svg>