<?xml version="1.0" encoding="UTF-8"?>
<svg id="Layer_1" xmlns="http://www.w3.org/2000/svg" version="1.1" viewBox="0 0 102.7 59">
  <!-- Generator: Adobe Illustrator 29.1.0, SVG Export Plug-In . SVG Version: 2.1.0 Build 142)  -->
  <defs>
    <style>
      .st0 {
        fill: #fff;
      }
    </style>
  </defs>
  <g>
    <path class="st0" d="M38.5,0v47.1h-10.7V15.3s-4.3,31.8-4.3,31.8h-7.6l-4.5-31.1v31.1H.7V0h15.9c.5,2.8,1,6.2,1.5,10l1.7,12L22.6,0h15.9Z"/>
    <path class="st0" d="M64.6,0l7,47.1h-12.5l-.7-8.5h-4.4l-.7,8.5h-12.7L46.9,0h17.7ZM58.1,30.3c-.6-5.3-1.2-11.9-1.9-19.8-1.2,9-2,15.6-2.4,19.8h4.2Z"/>
    <path class="st0" d="M100,0l-4.3,20.8,6.5,26.3h-11.3c-1.4-4.7-2.6-10.4-3.7-17.2-.3,3-.7,6.2-1.3,9.5l-1.2,7.7h-11.9l4.5-26.3L72.8,0h11.8c.2,1.3.6,3.5,1.3,6.5.5,2.3.9,4.4,1.3,6.4l2.6-12.9h10.3Z"/>
  </g>
  <g>
    <path class="st0" d="M.7,49.2h8.1c2.2,0,3.9,0,5.1.2,1.2.1,2.1.3,2.7.5s1,.4,1.2.7c.2.3.3.7.3,1.3v.8c0,.6-.2,1-.6,1.3-.4.3-1.2.5-2.3.6-1.1.1-2.5.2-4.3.2h-2.2v3.8H.7v-9.5ZM8.8,50.9v2.4c.2,0,.4,0,.6,0,.7,0,1.3,0,1.5-.2s.4-.3.4-.7v-.8c0-.3-.2-.5-.5-.6-.3,0-1-.1-2.1-.1Z"/>
    <path class="st0" d="M46.8,54.8c0,1,0,1.6-.2,2-.1.4-.6.8-1.4,1.1-.8.3-1.8.6-3.1.8-1.3.2-2.9.3-4.6.3s-3.2,0-4.5-.2c-1.3-.2-2.4-.4-3.2-.7-.8-.3-1.3-.7-1.4-1.1-.2-.4-.2-1.1-.2-2.1v-1.6c0-1,0-1.6.2-2,.1-.4.6-.8,1.4-1.1s1.8-.6,3.1-.8c1.3-.2,2.9-.3,4.6-.3s3.2,0,4.5.2c1.3.2,2.4.4,3.2.7s1.3.7,1.4,1.1c.2.4.2,1.1.2,2.1v1.6ZM38.7,51.7c0-.4,0-.7-.2-.8-.2-.1-.5-.2-1-.2s-.7,0-1,.1c-.2,0-.3.4-.3.9v4.4c0,.6,0,.9.2,1,.1.1.5.2,1,.2s.9,0,1.1-.2.2-.5.2-1.1v-4.4Z"/>
    <path class="st0" d="M74.8,52.1h-7.5v-.7c0-.3,0-.5-.3-.6s-.5-.1-1-.1-.9,0-1.1.2-.4.3-.4.6.1.6.4.7c.3.2,1,.4,2.3.6,3.6.7,5.9,1.2,6.8,1.6.9.4,1.4,1.1,1.4,2s-.3,1.2-.8,1.5-1.5.6-3,.8c-1.5.2-3.2.3-5.2.3s-4-.1-5.5-.4c-1.5-.2-2.5-.6-3-1s-.7-.9-.7-1.6v-.6h7.5v1.2c0,.4.1.6.3.7.2.1.6.2,1.1.2s.9,0,1.2-.2.4-.3.4-.6c0-.6-.3-.9-.7-1.1-.5-.2-1.8-.5-3.8-.9-2-.4-3.3-.7-4-.9-.7-.2-1.2-.4-1.6-.8s-.6-.7-.6-1.2c0-.7.3-1.3.9-1.6.6-.3,1.6-.6,2.9-.8,1.4-.2,3-.3,4.9-.3s3.9.1,5.4.3c1.5.2,2.5.5,2.9.8.5.3.7.8.7,1.6v.4Z"/>
    <path class="st0" d="M102.2,49.2v1.9h-4.8v7.6h-8.1v-7.6h-4.8v-1.9h17.7Z"/>
  </g>
</svg>