<svg width="102" height="52" viewBox="0 0 102 52" fill="none" xmlns="http://www.w3.org/2000/svg">
<path d="M101.911 0.6073C101.911 0.784832 101.886 0.937002 101.886 1.11453C101.886 13.6432 101.886 26.1465 101.886 38.6752C101.886 39.3092 101.962 39.2585 101.302 39.2585C97.3714 39.2585 93.4657 39.2585 89.5347 39.2585C89.1542 39.2585 89.0528 39.1571 89.0528 38.7766C89.0781 34.1101 89.0528 29.4435 89.0528 24.8023C89.0528 24.6502 89.0528 24.498 89.0528 24.3205C86.2884 24.3205 83.5493 24.3205 80.7595 24.3205C80.7595 29.2914 80.7595 34.2369 80.7595 39.2078C80.6327 39.2331 80.5313 39.2331 80.4298 39.2331C76.5495 39.2331 72.6691 39.2331 68.7634 39.2331C68.6874 39.2331 68.6366 39.2078 68.5605 39.2078C68.5605 39.0556 68.5605 38.9034 68.5605 38.7513C68.5605 30.5594 68.5605 22.3676 68.5605 14.2012C68.5605 14.0236 68.5605 13.8715 68.5605 13.6432C71.1728 13.6432 73.7343 13.6432 76.2959 13.6432C76.2959 9.25563 76.2959 4.94414 76.2959 0.632659C77.7668 0.632659 79.2632 0.632659 80.7342 0.632659C80.7342 0.683383 80.7342 0.734107 80.7342 0.784831C80.7342 4.96951 80.7342 9.15419 80.7342 13.3389C80.7342 13.4403 80.7595 13.5418 80.7595 13.6432C80.8102 13.6686 80.861 13.6686 80.8863 13.6686C83.4986 13.6686 86.1108 13.6686 88.7231 13.6686C89.0274 13.6686 89.0021 13.5164 89.0021 13.2881C89.0021 11.8425 89.0021 10.3969 89.0021 8.97665C89.0021 6.18687 89.0021 3.42244 89.0021 0.632659C93.3389 0.607297 97.625 0.6073 101.911 0.6073Z" fill="#868D96"/>
<path d="M23.2397 27.0342C19.968 27.3639 16.6963 27.161 13.4247 27.2117C13.374 27.2117 13.2979 27.2371 13.1964 27.2371C13.1964 31.2188 13.1964 35.2006 13.1964 39.2078C8.93567 39.2078 4.751 39.2078 0.490234 39.2078C0.490234 39.0302 0.490234 38.8781 0.490234 38.7005C0.490234 26.1719 0.490234 13.6432 0.490234 1.11453C0.490234 0.937002 0.490234 0.784832 0.490234 0.6073C7.4647 0.6073 14.4138 0.6073 21.3883 0.6073C21.4643 0.632661 21.5151 0.683382 21.5912 0.683382C25.1925 0.96236 28.591 1.7993 31.5076 4.05649C31.5837 4.13257 31.6597 4.20866 31.7358 4.25938C33.2575 5.60355 34.3481 7.2267 34.9821 9.15418C35.7176 11.4367 35.7937 13.77 35.4893 16.1286C35.2104 18.2844 34.5002 20.2626 33.1814 22.0126C31.5583 24.1429 29.4025 25.4617 26.8664 26.1972C25.649 26.5777 24.4317 26.7806 23.2397 27.0342ZM13.1964 18.1829C13.3486 18.1829 13.5008 18.1829 13.6276 18.1829C15.1746 18.1829 16.7471 18.1829 18.2941 18.1829C18.8014 18.1829 19.334 18.1576 19.8412 18.0815C21.8955 17.7772 23.1382 16.6612 23.4172 14.6577C23.7215 12.6795 23.2143 11.107 20.881 10.2447C20.3231 10.0418 19.7144 9.83895 19.1057 9.81359C17.1529 9.71214 15.2254 9.68678 13.2725 9.63605C13.2472 9.63605 13.1964 9.66142 13.1711 9.68678C13.1964 12.5019 13.1964 15.3171 13.1964 18.1829Z" fill="#5A5D68"/>
<path d="M23.2392 27.0341C24.4312 26.7805 25.6739 26.5776 26.8406 26.2225C29.3514 25.487 31.5325 24.1682 33.1556 22.0378C34.4744 20.2879 35.1592 18.3097 35.4635 16.1539C35.7679 13.7953 35.6918 11.462 34.9563 9.17945C34.3222 7.25197 33.2571 5.60346 31.71 4.28465C31.6339 4.20857 31.5578 4.13248 31.4817 4.08176C31.71 3.44772 31.9383 2.81367 32.1665 2.20499C32.344 1.69776 32.5216 1.16516 32.6737 0.632568C36.9852 0.632568 41.2967 0.632568 45.6082 0.632568C46.648 3.5238 47.6879 6.44039 48.7277 9.33162C49.2603 10.7772 49.7675 12.2229 50.3001 13.6685C50.3508 13.7953 50.3762 13.9221 50.4269 14.0489C51.3399 16.5851 52.253 19.1212 53.166 21.6574C53.6225 22.9508 54.1044 24.2189 54.5862 25.5124C54.6116 25.5885 54.6116 25.6899 54.6623 25.766C55.8543 29.063 57.021 32.36 58.213 35.657C58.6441 36.849 59.0499 38.041 59.481 39.2584C59.3289 39.2584 59.2021 39.2838 59.0499 39.2838C55.1188 39.2838 51.2131 39.2838 47.2821 39.2838C46.9524 39.2838 46.8256 39.1823 46.7495 38.878C46.3437 37.407 45.8872 35.9614 45.4814 34.5158C45.4053 34.2368 45.2785 34.1607 44.9995 34.1607C41.0685 34.1607 37.1374 34.1607 33.181 34.1607C32.8766 34.1607 32.7498 34.2368 32.6737 34.5411C32.268 36.0121 31.8368 37.4577 31.4564 38.9287C31.3803 39.2077 31.2788 39.3091 30.9745 39.3091C27.0942 39.3091 23.2138 39.3091 19.3081 39.3091C19.2067 39.3091 19.0799 39.2838 18.9023 39.2838C20.3226 35.1245 21.7936 31.0666 23.2392 27.0341ZM39.1156 12.4511C39.0902 12.4511 39.0649 12.4511 39.0142 12.4511C37.7207 16.9909 36.4526 21.5052 35.1592 26.0703C37.8222 26.0703 40.4344 26.0703 43.0974 26.0703C41.7786 21.5052 40.4344 16.9655 39.1156 12.4511Z" fill="#868D96"/>
<path d="M50.3003 13.6432C49.7677 12.1976 49.2351 10.752 48.7279 9.30635C47.6881 6.41512 46.6482 3.49853 45.6084 0.6073C55.8545 0.6073 66.1006 0.6073 76.3214 0.6073C76.3214 4.91879 76.3214 9.25563 76.3214 13.6178C73.7345 13.6178 71.173 13.6178 68.5861 13.6178C68.5861 13.8461 68.5861 13.9983 68.5861 14.1758C68.5861 22.3676 68.5861 30.5594 68.5861 38.7259C68.5861 38.8781 68.5861 39.0302 68.5861 39.1824C68.4339 39.1824 68.2817 39.2078 68.1296 39.2078C65.3651 39.2078 62.6261 39.2078 59.8617 39.2078C59.7095 39.2078 59.5827 39.1824 59.4305 39.1824C58.9994 37.9904 58.5936 36.7731 58.1624 35.5811C56.9958 32.284 55.8038 28.987 54.6118 25.69C54.5864 25.6139 54.5611 25.5125 54.5357 25.4364C54.5357 25.3603 54.5357 25.3096 54.5357 25.2335C54.5357 21.4546 54.5357 17.6503 54.5357 13.8715C54.5357 13.7954 54.5103 13.6939 54.485 13.6178C53.1155 13.6432 51.7206 13.6432 50.3003 13.6432Z" fill="#5A5D68"/>
<path d="M90.0167 49.7583C90.9297 47.4758 91.792 45.244 92.6543 43.0121C92.7558 42.7078 92.9079 42.6063 93.2123 42.6317C93.542 42.6571 93.8717 42.6317 94.2267 42.6317C94.2267 45.4722 94.2267 48.2366 94.2267 51.0518C93.8717 51.0518 93.542 51.0518 93.1869 51.0518C93.1869 48.7692 93.1869 46.5374 93.1869 44.2802C93.1616 44.2802 93.1362 44.2549 93.1108 44.2549C93.0601 44.3563 93.0094 44.4324 92.984 44.5338C92.1724 46.5628 91.3609 48.6171 90.6 50.6714C90.4225 51.1532 90.1182 51.0518 89.7885 51.1025C89.408 51.1532 89.3573 50.8996 89.2812 50.646C88.5204 48.6171 87.7595 46.6135 86.9987 44.5846C86.9733 44.5085 86.9226 44.4324 86.8211 44.3563C86.8211 46.5881 86.8211 48.7946 86.8211 51.0518C86.4661 51.0518 86.1617 51.0518 85.832 51.0518C85.832 48.262 85.832 45.4722 85.832 42.6317C86.2632 42.6317 86.7197 42.6063 87.1508 42.6571C87.2523 42.6571 87.3537 42.86 87.4045 42.9868C88.216 45.0918 89.0022 47.1715 89.8138 49.2765C89.8645 49.4286 89.9406 49.5554 90.0167 49.7583Z" fill="#5A5D68"/>
<path d="M7.74365 44.28C7.59148 44.6605 7.43931 45.0662 7.26178 45.4467C6.57701 47.222 5.86688 48.9719 5.20748 50.7473C5.02995 51.2038 4.72561 51.0516 4.42127 51.1023C4.11693 51.153 4.04084 50.9755 3.93939 50.7473C3.17854 48.7183 2.41769 46.664 1.63148 44.6351C1.60612 44.5336 1.5554 44.4576 1.42859 44.3815C1.42859 46.6133 1.42859 48.8451 1.42859 51.1023C1.07352 51.1023 0.794546 51.1023 0.464844 51.1023C0.464844 48.2872 0.464844 45.4974 0.464844 42.6822C0.895992 42.6822 1.32714 42.6569 1.73293 42.7076C1.83437 42.7076 1.96118 42.8851 2.01191 43.0119C2.84884 45.2184 3.71114 47.4249 4.54807 49.6313C4.57344 49.6821 4.57344 49.7328 4.62416 49.8089C5.00459 48.8198 5.38501 47.8814 5.76544 46.9176C6.27267 45.6242 6.80526 44.3054 7.3125 43.0119C7.41394 42.7583 7.54075 42.6569 7.79437 42.6822C8.14943 42.7076 8.47913 42.6822 8.85956 42.6822C8.85956 45.4974 8.85956 48.2872 8.85956 51.1023C8.52986 51.1023 8.20016 51.1023 7.81973 51.1023C7.81973 48.8451 7.81973 46.5879 7.81973 44.3308C7.79437 44.28 7.76901 44.28 7.74365 44.28Z" fill="#5A5D68"/>
<path d="M37.29 51.1784C36.935 51.1784 36.5799 51.2037 36.2502 51.153C36.1234 51.1277 35.9966 51.0009 35.9205 50.874C34.4495 48.6422 33.0039 46.385 31.5076 44.0771C31.5076 46.4358 31.5076 48.7437 31.5076 51.0769C31.1271 51.0769 30.7974 51.0769 30.4424 51.0769C30.4424 48.2872 30.4424 45.4974 30.4424 42.6569C30.8482 42.6569 31.2793 42.6569 31.6851 42.6569C31.7612 42.6569 31.888 42.7837 31.9387 42.8598C33.2829 44.9141 34.6271 46.9683 35.9459 49.0226C36.0473 49.1748 36.1234 49.327 36.2756 49.4792C36.2756 47.222 36.2756 44.9648 36.2756 42.6822C36.6306 42.6822 36.9603 42.6822 37.3154 42.6822C37.29 45.4974 37.29 48.3125 37.29 51.1784Z" fill="#5A5D68"/>
<path d="M75.3066 46.5627C75.3574 45.1424 75.9914 43.7222 77.6146 42.9613C79.2123 42.2005 80.8101 42.3273 82.2304 43.4178C84.0818 44.8634 84.3354 48.0336 82.7376 49.8597C81.1905 51.635 78.3247 51.7618 76.6001 50.1387C75.7885 49.3525 75.332 48.1858 75.3066 46.5627ZM76.4733 47.1206C76.5494 47.3742 76.6254 47.9322 76.8283 48.4141C77.3102 49.4793 78.1471 50.1894 79.3645 50.2908C80.5058 50.3923 81.3681 49.8597 82.0021 48.9467C82.9659 47.5771 82.8137 45.6497 81.6978 44.4069C80.5565 43.1642 78.7305 43.1135 77.5385 44.3055C76.8283 44.9902 76.524 45.8525 76.4733 47.1206Z" fill="#5A5D68"/>
<path d="M67.2927 51.0772C66.9123 51.0772 66.5826 51.0772 66.2275 51.0772C66.2275 50.925 66.2275 50.7728 66.2275 50.646C66.2275 48.1352 66.2275 45.6244 66.2275 43.1389C66.2275 42.7332 66.329 42.6064 66.7348 42.6571C66.9123 42.6824 67.0898 42.6571 67.3181 42.6571C67.3181 43.0375 67.3181 43.3926 67.3181 43.7476C67.3181 44.4831 67.3181 45.2186 67.3181 45.9795C67.3181 46.157 67.3181 46.3092 67.5717 46.3092C69.0934 46.3092 70.6151 46.3092 72.1368 46.2838C72.1622 46.2838 72.1875 46.2584 72.2636 46.2331C72.2636 45.7512 72.2636 45.2186 72.2636 44.7114C72.2636 44.1281 72.2636 43.5701 72.2636 42.9868C72.2636 42.7332 72.3397 42.6317 72.5933 42.6571C72.8216 42.6824 73.0498 42.6571 73.3035 42.6571C73.3035 45.4722 73.3035 48.262 73.3035 51.0772C72.9738 51.0772 72.644 51.0772 72.2636 51.0772C72.2636 49.8091 72.2636 48.5664 72.2636 47.2983C72.1115 47.2729 72.0354 47.2475 71.9339 47.2475C70.5137 47.2475 69.0934 47.2475 67.6732 47.2475C67.3688 47.2475 67.2927 47.349 67.2927 47.628C67.2927 48.7439 67.2927 49.8852 67.2927 51.0772Z" fill="#5A5D68"/>
<path d="M10.3809 51.1025C10.5584 50.646 10.6852 50.2148 10.8374 49.809C11.6997 47.4504 12.5366 45.0918 13.3989 42.7331C13.5003 42.4795 13.6272 42.3781 13.9061 42.3781C14.667 42.4034 14.667 42.3781 14.946 43.1135C15.859 45.6244 16.7466 48.1352 17.6597 50.646C17.7104 50.7728 17.7357 50.8996 17.7865 51.0771C17.4568 51.0771 17.1271 51.1025 16.8227 51.0771C16.7213 51.0771 16.5945 50.9249 16.5437 50.8235C16.2901 50.1895 16.0872 49.53 15.859 48.8706C15.7829 48.6678 15.7068 48.5917 15.4786 48.5917C14.5402 48.5917 13.6018 48.617 12.6634 48.5917C12.4098 48.5917 12.3337 48.6931 12.2576 48.896C12.0547 49.53 11.8011 50.1387 11.6236 50.7728C11.5475 51.0264 11.4207 51.1025 11.1671 51.0771C10.9388 51.0771 10.6852 51.1025 10.3809 51.1025ZM15.4278 47.6026C14.9967 46.3598 14.5655 45.1678 14.1344 43.9505C14.109 43.9505 14.0583 43.9505 14.0329 43.9758C13.6018 45.1678 13.1706 46.3852 12.7395 47.6026C13.6525 47.6026 14.5148 47.6026 15.4278 47.6026Z" fill="#5A5D68"/>
<path d="M46.5727 43.1642C46.4459 43.4685 46.3191 43.7222 46.1669 44.0265C45.4315 43.6207 44.6706 43.4685 43.859 43.4685C41.9823 43.4685 40.6888 44.6098 40.4859 46.4359C40.283 48.1605 41.399 49.7836 43.1235 50.1387C43.7829 50.2655 44.5184 50.164 45.2032 50.164C45.4568 50.164 45.5075 50.0119 45.5075 49.7836C45.5075 49.0988 45.5075 48.4141 45.5075 47.7293C45.5075 47.6025 45.5075 47.4757 45.5075 47.3235C45.8626 47.3235 46.1923 47.3235 46.5474 47.3235C46.5474 47.4757 46.5727 47.6532 46.5727 47.8054C46.5727 48.6931 46.5727 49.6061 46.5727 50.4937C46.5727 50.6205 46.4713 50.7981 46.3698 50.8488C44.9242 51.3307 43.4532 51.5082 41.9823 50.9249C40.0801 50.1387 39.0403 48.2365 39.37 46.1062C39.6744 44.1533 41.2721 42.7077 43.3011 42.5555C44.3663 42.4794 45.4061 42.5302 46.3698 43.0628C46.4459 43.0628 46.4967 43.1135 46.5727 43.1642Z" fill="#5A5D68"/>
<path d="M20.4245 46.7402C20.8049 46.2837 21.16 45.8272 21.5404 45.3453C22.1491 44.5845 22.7831 43.7983 23.3664 43.0121C23.5947 42.7077 23.8483 42.5809 24.2034 42.6063C24.4063 42.6316 24.6092 42.6063 24.8881 42.6063C24.7613 42.7838 24.6852 42.8853 24.5838 42.9867C23.6708 44.128 22.7578 45.2693 21.8194 46.4105C21.6418 46.6388 21.6418 46.791 21.8194 46.9939C22.8085 48.2112 23.7976 49.4539 24.7867 50.6967C24.8628 50.7727 24.9135 50.8742 25.0403 51.0264C24.6092 51.0264 24.2541 51.0517 23.899 51.0264C23.7722 51.0264 23.6201 50.8996 23.544 50.7727C22.5295 49.4793 21.515 48.1859 20.5006 46.8924C20.4752 46.867 20.4498 46.8417 20.3484 46.791C20.3484 48.2112 20.3484 49.5807 20.3484 51.001C19.968 51.001 19.6383 51.001 19.2832 51.001C19.2832 48.2112 19.2832 45.4468 19.2832 42.5809C19.5622 42.5809 19.8665 42.5556 20.1455 42.6063C20.2216 42.6063 20.323 42.8345 20.323 42.9613C20.3484 44.0773 20.323 45.1678 20.323 46.2837C20.323 46.4105 20.323 46.5373 20.323 46.6642C20.3738 46.7149 20.3991 46.7402 20.4245 46.7402Z" fill="#5A5D68"/>
<path d="M98.1072 46.3091C99.1217 46.3091 100.111 46.3091 101.125 46.3091C101.125 46.6388 101.125 46.8924 101.125 47.2475C100.136 47.2475 99.147 47.2475 98.1325 47.2475C98.1325 48.2366 98.1325 49.175 98.1325 50.1895C99.3753 50.1895 100.618 50.1895 101.886 50.1895C101.886 50.5192 101.886 50.7728 101.886 51.0771C100.288 51.0771 98.6905 51.0771 97.042 51.0771C97.042 48.3127 97.042 45.5229 97.042 42.7078C98.5891 42.7078 100.161 42.7078 101.759 42.7078C101.759 42.9867 101.759 43.2657 101.759 43.5701C100.719 43.5701 99.705 43.5701 98.6651 43.5701C98.0057 43.5701 98.0818 43.494 98.0818 44.1534C98.0818 44.8381 98.1072 45.5483 98.1072 46.3091Z" fill="#5A5D68"/>
<path d="M57.655 43.5699C56.7167 43.5699 55.829 43.5699 54.8906 43.5699C54.8906 43.2655 54.8906 42.9866 54.8906 42.6569C55.0174 42.6569 55.1696 42.6569 55.2964 42.6569C57.1985 42.6569 59.1007 42.6569 60.9774 42.6569C61.5354 42.6569 61.5354 42.6569 61.5354 43.2402C61.5354 43.3416 61.5354 43.4177 61.51 43.5699C60.597 43.5699 59.684 43.5699 58.7202 43.5699C58.7202 46.1061 58.7202 48.5915 58.7202 51.1023C58.3398 51.1023 58.0101 51.1023 57.6297 51.1023C57.655 48.5661 57.655 46.0807 57.655 43.5699Z" fill="#5A5D68"/>
<path d="M53.3699 51.077C53.0148 51.077 52.6851 51.077 52.3301 51.077C52.3301 48.2872 52.3301 45.4974 52.3301 42.6823C52.6598 42.6823 53.0148 42.6823 53.3699 42.6823C53.3699 45.472 53.3699 48.2618 53.3699 51.077Z" fill="#5A5D68"/>
<path d="M26.6133 42.6569C26.943 42.6569 27.2473 42.6569 27.577 42.6569C27.577 45.4466 27.577 48.2364 27.577 51.0516C27.2727 51.0516 26.943 51.0516 26.6133 51.0516C26.6133 48.2872 26.6133 45.4974 26.6133 42.6569Z" fill="#5A5D68"/>
</svg>
