<?xml version="1.0" encoding="UTF-8"?><svg id="Layer_1" xmlns="http://www.w3.org/2000/svg" viewBox="0 0 180 180"><defs><style>.cls-1{fill:#000;}.cls-1,.cls-2{stroke-width:0px;}.cls-2{fill:#fff;}</style></defs><rect class="cls-1" width="180" height="180"/><polygon class="cls-2" points="77.02 133.42 9.63 133.42 31.16 40.08 55.35 40.08 37.98 115.37 81.22 115.37 77.02 133.42"/><path class="cls-2" d="M151.19,126.35c-4.14,2.96-8.83,5.21-14.07,6.73-5.25,1.52-11.11,2.28-17.59,2.28-7.56,0-14.31-.7-20.25-2.1-5.94-1.4-10.79-3.06-14.54-4.98l4.39-20.31,2.45.07c3.8,2.71,8.07,4.89,12.79,6.52,4.72,1.63,9.38,2.44,13.98,2.44,6.72,0,11.98-1.26,15.76-3.78,3.79-2.53,5.67-6.11,5.67-10.79,0-1.96-.37-3.56-1.09-4.82-.73-1.25-1.92-2.23-3.55-2.94-1.75-.8-3.96-1.31-6.65-1.53-2.67-.23-5.68-.34-9.02-.34h-5.14l3.57-16.55h5.34c8.56,0,14.55-.92,17.96-2.79,3.4-1.85,5.11-4.67,5.11-8.47,0-3-1.43-5.21-4.29-6.62-2.86-1.41-6.83-2.13-11.88-2.13-4.34,0-8.9.68-13.66,2.05-4.77,1.37-9.03,2.98-12.79,4.85l-2.32-.07,4.33-20.13c3.72-1.25,8.35-2.36,13.89-3.35,5.53-.99,10.95-1.47,16.26-1.47s10.14.4,14.36,1.22c4.22.82,7.83,2.04,10.84,3.67,3.18,1.72,5.63,3.89,7.37,6.52,1.73,2.63,2.6,5.93,2.6,9.91s-.66,7.15-1.98,10.06c-1.32,2.9-3.08,5.32-5.3,7.24-2.13,1.89-4.57,3.43-7.34,4.64-2.76,1.21-5.45,2.11-8.08,2.7l-.19.88c4.56.76,8.37,2.57,11.44,5.44,3.07,2.89,4.6,6.62,4.6,11.21,0,5.18-1.17,9.89-3.5,14.13-2.34,4.24-5.5,7.77-9.47,10.61"/></svg>