<?xml version="1.0" encoding="UTF-8"?><svg id="Layer_1" xmlns="http://www.w3.org/2000/svg" viewBox="0 0 32 32"><defs><style>.cls-1{fill:#000;}.cls-1,.cls-2{stroke-width:0px;}.cls-2{fill:#fff;}</style></defs><rect class="cls-1" width="32" height="32"/><polygon class="cls-2" points="13.69 23.72 1.71 23.72 5.54 7.12 9.84 7.12 6.75 20.51 14.44 20.51 13.69 23.72"/><path class="cls-2" d="M26.88,22.46c-.74.53-1.57.93-2.5,1.2-.93.27-1.98.41-3.13.41-1.34,0-2.54-.12-3.6-.37-1.06-.25-1.92-.54-2.59-.89l.78-3.61h.44c.68.49,1.43.88,2.27,1.17.84.29,1.67.43,2.49.43,1.2,0,2.13-.22,2.8-.67.67-.45,1.01-1.09,1.01-1.92,0-.35-.07-.63-.19-.86-.13-.22-.34-.4-.63-.52-.31-.14-.7-.23-1.18-.27-.47-.04-1.01-.06-1.6-.06h-.91l.63-2.94h.95c1.52,0,2.59-.16,3.19-.5.6-.33.91-.83.91-1.5,0-.53-.25-.93-.76-1.18-.51-.25-1.21-.38-2.11-.38-.77,0-1.58.12-2.43.37-.85.24-1.61.53-2.27.86h-.41s.77-3.59.77-3.59c.66-.22,1.48-.42,2.47-.6.98-.18,1.95-.26,2.89-.26s1.8.07,2.55.22c.75.15,1.39.36,1.93.65.57.31,1,.69,1.31,1.16.31.47.46,1.05.46,1.76s-.12,1.27-.35,1.79c-.23.52-.55.95-.94,1.29-.38.34-.81.61-1.3.82-.49.21-.97.37-1.44.48l-.03.16c.81.13,1.49.46,2.03.97.55.51.82,1.18.82,1.99,0,.92-.21,1.76-.62,2.51-.42.75-.98,1.38-1.68,1.89"/></svg>