<?xml version="1.0" encoding="UTF-8"?><svg id="Layer_1" xmlns="http://www.w3.org/2000/svg" viewBox="0 0 512 512"><defs><style>.cls-1{fill:#000;}.cls-1,.cls-2{stroke-width:0px;}.cls-2{fill:#fff;}</style></defs><rect class="cls-1" width="512" height="512"/><polygon class="cls-2" points="219.07 379.51 27.39 379.51 88.64 114 157.44 114 108.03 328.16 231.01 328.16 219.07 379.51"/><path class="cls-2" d="M430.05,359.39c-11.77,8.42-25.13,14.81-40.03,19.14-14.93,4.33-31.61,6.5-50.03,6.5-21.52,0-40.71-1.99-57.59-5.98-16.89-3.97-30.68-8.71-41.37-14.16l12.48-57.78,6.96.19c10.81,7.72,22.94,13.9,36.37,18.54,13.44,4.62,26.69,6.94,39.77,6.94,19.13,0,34.08-3.57,44.84-10.76,10.78-7.18,16.14-17.39,16.14-30.68,0-5.58-1.05-10.14-3.11-13.7-2.08-3.56-5.45-6.34-10.09-8.35-4.98-2.27-11.27-3.71-18.91-4.37-7.6-.65-16.16-.98-25.66-.98h-14.63l10.16-47.07h15.18c24.35,0,41.38-2.63,51.08-7.92,9.68-5.26,14.52-13.28,14.52-24.08,0-8.52-4.07-14.81-12.2-18.84-8.15-4.02-19.42-6.05-33.81-6.05-12.36,0-25.32,1.94-38.86,5.84-13.56,3.88-25.69,8.49-36.38,13.78l-6.6-.19,12.31-57.25c10.57-3.56,23.75-6.72,39.51-9.52,15.74-2.8,31.16-4.19,46.25-4.19s28.84,1.15,40.85,3.47c12,2.32,22.27,5.79,30.83,10.43,9.04,4.88,16.02,11.05,20.97,18.54,4.93,7.49,7.41,16.88,7.41,28.19s-1.89,20.35-5.64,28.62c-3.75,8.25-8.76,15.12-15.07,20.59-6.05,5.36-12.99,9.76-20.86,13.2-7.84,3.44-15.5,6-22.98,7.67l-.55,2.49c12.96,2.15,23.8,7.3,32.55,15.49,8.73,8.22,13.1,18.84,13.1,31.88,0,14.73-3.33,28.13-9.97,40.18-6.67,12.05-15.64,22.1-26.93,30.18"/></svg>