<svg width="50" height="50" viewBox="0 0 50 50" fill="none" xmlns="http://www.w3.org/2000/svg">
<path d="M6.25 22.9167H12.5C13.6051 22.9167 14.6649 23.3556 15.4463 24.137C16.2277 24.9184 16.6667 25.9783 16.6667 27.0833V33.3333C16.6667 34.4384 16.2277 35.4982 15.4463 36.2796C14.6649 37.061 13.6051 37.5 12.5 37.5H10.4167C9.3116 37.5 8.25179 37.061 7.47039 36.2796C6.68899 35.4982 6.25 34.4384 6.25 33.3333V22.9167ZM6.25 22.9167C6.25 20.4544 6.73498 18.0162 7.67726 15.7413C8.61953 13.4665 10.0006 11.3995 11.7417 9.6584C13.4828 7.91731 15.5498 6.53619 17.8247 5.59392C20.0995 4.65164 22.5377 4.16666 25 4.16666C27.4623 4.16666 29.9005 4.65164 32.1753 5.59392C34.4502 6.53619 36.5172 7.91731 38.2583 9.6584C39.9993 11.3995 41.3805 13.4665 42.3227 15.7413C43.265 18.0162 43.75 20.4544 43.75 22.9167M43.75 22.9167V33.3333M43.75 22.9167H37.5C36.3949 22.9167 35.3351 23.3556 34.5537 24.137C33.7723 24.9184 33.3333 25.9783 33.3333 27.0833V33.3333C33.3333 34.4384 33.7723 35.4982 34.5537 36.2796C35.3351 37.061 36.3949 37.5 37.5 37.5H39.5833C40.6884 37.5 41.7482 37.061 42.5296 36.2796C43.311 35.4982 43.75 34.4384 43.75 33.3333M43.75 33.3333V37.5C43.75 39.7101 42.872 41.8297 41.3092 43.3925C39.7464 44.9553 37.6268 45.8333 35.4167 45.8333H25" stroke="#00D5BE" stroke-width="2.08333" stroke-linecap="round" stroke-linejoin="round"/>
</svg>
