<svg width="50" height="50" viewBox="0 0 50 50" fill="none" xmlns="http://www.w3.org/2000/svg">
<path d="M10.4167 33.3333V27.0833C10.4167 26.5308 10.6362 26.0009 11.0269 25.6102C11.4176 25.2195 11.9475 25 12.5001 25H37.5001C38.0526 25 38.5825 25.2195 38.9732 25.6102C39.3639 26.0009 39.5834 26.5308 39.5834 27.0833V33.3333M25.0001 25V16.6667M35.4167 33.3333H43.7501C44.9007 33.3333 45.8334 34.2661 45.8334 35.4167V43.75C45.8334 44.9006 44.9007 45.8333 43.7501 45.8333H35.4167C34.2662 45.8333 33.3334 44.9006 33.3334 43.75V35.4167C33.3334 34.2661 34.2662 33.3333 35.4167 33.3333ZM6.25008 33.3333H14.5834C15.734 33.3333 16.6667 34.2661 16.6667 35.4167V43.75C16.6667 44.9006 15.734 45.8333 14.5834 45.8333H6.25008C5.09949 45.8333 4.16675 44.9006 4.16675 43.75V35.4167C4.16675 34.2661 5.09949 33.3333 6.25008 33.3333ZM20.8334 4.16666H29.1667C30.3173 4.16666 31.2501 5.0994 31.2501 6.24999V14.5833C31.2501 15.7339 30.3173 16.6667 29.1667 16.6667H20.8334C19.6828 16.6667 18.7501 15.7339 18.7501 14.5833V6.24999C18.7501 5.0994 19.6828 4.16666 20.8334 4.16666Z" stroke="#00D5BE" stroke-width="2.08333" stroke-linecap="round" stroke-linejoin="round"/>
</svg>
