<svg width="50" height="50" viewBox="0 0 50 50" fill="none" xmlns="http://www.w3.org/2000/svg">
<path d="M6.25 14.5833V10.4167C6.25 9.3116 6.68899 8.25179 7.47039 7.47039C8.25179 6.68899 9.3116 6.25 10.4167 6.25H14.5833M35.4167 6.25H39.5833C40.6884 6.25 41.7482 6.68899 42.5296 7.47039C43.311 8.25179 43.75 9.3116 43.75 10.4167V14.5833M43.75 35.4167V39.5833C43.75 40.6884 43.311 41.7482 42.5296 42.5296C41.7482 43.311 40.6884 43.75 39.5833 43.75H35.4167M14.5833 43.75H10.4167C9.3116 43.75 8.25179 43.311 7.47039 42.5296C6.68899 41.7482 6.25 40.6884 6.25 39.5833V35.4167M27.0833 25C27.0833 26.1506 26.1506 27.0833 25 27.0833C23.8494 27.0833 22.9167 26.1506 22.9167 25C22.9167 23.8494 23.8494 22.9167 25 22.9167C26.1506 22.9167 27.0833 23.8494 27.0833 25ZM39.4667 25.6875C39.6223 25.2424 39.6223 24.7576 39.4667 24.3125C38.2937 21.4384 36.2913 18.9788 33.7147 17.2474C31.1381 15.5161 28.1042 14.5914 25 14.5914C21.8958 14.5914 18.8619 15.5161 16.2853 17.2474C13.7087 18.9788 11.7063 21.4384 10.5333 24.3125C10.3777 24.7576 10.3777 25.2424 10.5333 25.6875C11.7063 28.5616 13.7087 31.0212 16.2853 32.7526C18.8619 34.4839 21.8958 35.4086 25 35.4086C28.1042 35.4086 31.1381 34.4839 33.7147 32.7526C36.2913 31.0212 38.2937 28.5616 39.4667 25.6875Z" stroke="#00D5BE" stroke-width="2.08333" stroke-linecap="round" stroke-linejoin="round"/>
</svg>
