<?xml version="1.0" encoding="UTF-8"?>
<svg id="Layer_1" xmlns="http://www.w3.org/2000/svg" version="1.1" viewBox="0 0 1184 666.2">
  <!-- Generator: Adobe Illustrator 29.2.1, SVG Export Plug-In . SVG Version: 2.1.0 Build 116)  -->
  <defs>
    <style>
      .st0 {
        fill: none;
        stroke: #fff;
        stroke-miterlimit: 10;
      }
    </style>
  </defs>
  <g>
    <path class="st0" d="M187.1,666.2l-111.6-144.1-47.9-17-28-8.3"/>
    <path class="st0" d="M1184.5,136.1l-120.5-35.2-14.4-1-67.9-15.9-57.2-13.4-3.2-.7-65.2-12-64.5-11.9-132.8-18.4-138.2-13.3-12.3,1.2-15.5,1.1-18.9,1-22.2,1-25.6,1-29.1,1.1-32.7,1.3-36.3,1.7-40.1,2.1-44.1,2.7-48.4,3.4-53,4.2-58,5.3-63.7,6.7L-.5,50.8"/>
    <path class="st0" d="M1184.5,133.3l-110.1-32.4h-10.4s-62-14.7-62-14.7l-68.2-16.2-59.8-11.2-71.4-13.3-133.9-18.9-139.1-13.7-147.7-8.9-8.5,1.8-11.7,1.7-15,1.7-18.4,1.7-21.8,1.8-25.3,1.9-29,2.2-32.8,2.5-36.8,2.9-41,3.5-45.5,4.1-50.4,5L-.5,39.9"/>
    <path class="st0" d="M1184.5,130.5l-103.7-30.5-133.1-31.8-133.5-25.2-135.7-19.4-140.4-14.2L389.5.3l-2.2,2-5.4,1.9L220.2.2l-8.3,2.2-11.7,2.2-15,2.3-18.6,2.4-22.2,2.6-26,2.9-29.9,3.2-34.2,3.7-38.7,4.3L-.5,27.8"/>
    <path class="st0" d="M1184.5,127.6l-101.3-29.7-134-31.8-134.3-25.2-136.3-19.4-86.4-8.7-51.5-5.2-3-.3L418.8,0"/>
    <path class="st0" d="M-.5,72.7l97.9-3.7,98.6-.9,86.8,1.7,77.2,3.9,69.1,5.6,61.9,7.1,55.7,8.3,49.8,9.3,44.5,10.1,39.4,10.7,34.8,11.2,30.2,11.6,26.2,11.8,22,11.9,18.6,12,14.8,11.9,12,11.8,8.6,11.5,6.2,11.2,3.1,10.8,1.1,10.5-1.6,9.9-3.3,9.4-5.9,8.7-7.3,8.2-9.8,7.4-11.1,6.8-13.5,6-14.7,5.4-17.2,4.7-18.5,4.1-21.1,3.6-22.5,3.2-75.2-5.5-76.6,1.1-75.5,8.6h0s-2.8.3-2.8.3l-57.2,13.1-20.8,4.8-22.7,10.8-2.1.9-26.7,11.1-43.4,18-2.9,1.2"/>
    <path class="st0" d="M1184.5,291.8l-76-27.3-12.2-4.4-85.6-25.5-4.4-1.3-86.3-20.7-3.2-.8-86-15.8-3.7-.7-86.5-11.1-2.7-.3-89.5-6.5-89.3-1.4-89.7,4-89.4,10-88.9,17.1-87,25.4-82.8,36.3-73.6,50.4L-.5,381.1"/>
    <path class="st0" d="M1184.5,164.6l-85.4-29.1-47-9.5-8.4-2.3-94-25.3-46.2-6.7-8.6-1.8-14.8-3-79.4-16.3-46.1-4.2-49-3.8-52-3.2-55-2.5-58-1.6-61.2-.5-64.6.8-68.4,2.3-72.6,4-77.6,6.1-83.3,8.7-90.3,11.8-22.9,3.7"/>
    <path class="st0" d="M1184.5,390.4l-79.5-39.2-82.2-33.1-84.5-27-85-20.7-86.1-14.6-85.8-8.3-85.8-1.8-84.4,5.1-82.6,13-78.3,21.9-71.2,32.9-58,46.4-34.2,64.5,9,88.5,5.6,7.6,14.6,19.8,14.7,19.9,2.4,3.3,6.8,9.2,6.6,9,6.5,8.9,10.2,13.8,7.2,9.8,7.1,9.6,8.6,11.6"/>
    <path class="st0" d="M1184.5,305.3l-66.8-25.6-5.7-2.2-4.3-1.6-86.4-27.4-3-1-86.3-22-3.6-.9-86.8-17-2.6-.5-86.5-11.9-3.1-.4-89.2-7.2-89.4-1.8-88.9,3.8-88.7,10.1-87.3,17.3-84.8,26.1-79.1,37-68,51.6-45.7,71.8-.9,101.8,58.2,95.1,32.6,53.2,50.8,12.8"/>
    <path class="st0" d="M1184.5,375.9l-71.4-34.3-84.6-33.2-85.4-26.8-86.7-20.7-86.6-14.6-87-8.5-86.2-2.1-85.5,4.7-83.3,12.1-80,20.9-73.2,31.2-61.4,44.4-39.7,61.4.3,84.8,21.9,22.9,19.7,24.8,4.9,6,7.6,9.2,1.2,1.5,5.7,7,.4.5,7.2,8.8,7.1,8.7,7,8.5,6.8,8.3,4.5,5.5,2,2.5,5.6,6.9.6.7,1.8,2.2,5.1,6.3,7.3,8.9,6.4,7.9.3.4,6.1,6.9v.2c.1,0,7.1,7.9,7.1,7.9"/>
    <path class="st0" d="M1184.5,71l-71.9-18.2-100.3-21.7-12.4-2.7-101.9-18.6-10.7-2L834.8,0"/>
    <path class="st0" d="M1184.5,319l-65.9-26.7-2.9-1.2-89.4-30-86.7-23.4-2.4-.7-89.6-18.6-86.9-12.8-2.1-.3-89.2-7.7-88.7-2.1-88.6,3.8-87.5,10.2-86,17.8-82.3,26.7-75.6,38.1-62.3,52.9-36.5,73.7,13.6,103.4,46.5,19.4,44,21.3,42.6,23.7,39.6,25.7,17.8,13.4,17.7,13.3,2.5,1.8,6.7,4.9,8.2,6.4,9.1,6.1,2.1.8,9.6,6.7.6.4h.2"/>
    <path class="st0" d="M1184.5,361.4l-66.5-30.8-85.6-32.6-87.1-26.6-87.2-20.4-87.8-14.5-87.3-8.5-87.3-2.3-86.1,4.2-84.6,11.5-81.2,19.8-75.6,29.9-64.8,42.4-45.2,59-9.1,81.1h0s24.8,21.5,24.8,21.5l23.3,36.8,9.6,15.2,23.8,37.5,13.9,22,3.6,5.6,25.6,19.2,12.5,9.4,6.7,4.9,8.7,5.8,6,4.2,2.7,2.6,1.1,1.5,8.6,6.5"/>
    <path class="st0" d="M1184.5,452.3l-61.4-38.9-20.5,1.5-68.5-35.1-73.4-30-76-24.1-79-18.3-80-12-81.6-5.4-81.3,1.7-80.8,9.8-75.8,18.4-2.1.5-58.8,24.2-14.3,5.9-10.3,13.5-12.8,14.1-15,14.3-16.6,14.6-6.3,5.6-.3.3-3.1,2.7-2.5,2.4-1.7,1.8-3.7,3.5-4.4,4.2-3,2.8-6.1,5.8-6.6,6.2-1.1,1-2.6,4-3.7,5.3-5.7,8.7-1.4,2.1-1.7,2.6"/>
    <path class="st0" d="M1184.5,332.9l-61.3-26.1-3.6-1.5-85.8-30.2-2.3-.8-85.9-24.3-3.1-.9-86.7-18.9-2-.4-86.4-13.3-2.7-.4-88.5-8.1-88.5-2.3-87.6,3.8-86.7,10.6-84.3,18.2-80.2,27.6-71.9,39.2-56.5,54.7-27.5,75.6,29,106.1,44.2,47.8,71.1,76.9"/>
    <path class="st0" d="M1184.5,347l-63.8-28.5-87.5-32.1-87.7-25.9-88.5-20-88.1-14.1-88.3-8.4-87.6-2.4-87.2,4-85.5,10.9-83,19-77.7,28.6-68.4,40.8-50.9,56.5-18.1,78.3,11.5,28.8,32.1,80.1,33,30.7,33.9,31.5,44.2,41.2"/>
    <path class="st0" d="M-.5,66.1l67-3.1,110.2-2,96.8,1,86.1,3.5,77.3,5.6,69.7,7.3,63.1,8.7,56.9,10,51.3,11,45.9,11.8,41,12.4,36,12.9,31.6,13.2,27,13.4,23.1,13.4,18.9,13.3,15.5,13.2,11.6,12.8,8.8,12.5,5.3,12,2.9,11.5-.2,10.8-2.1,10.2-4.9,9.4-6.6,8.7-9.2,7.8-10.5,7-13,6-14.3,5.2-16.7,4.2-17.9,3.5-20.4,2.7-21.7,2.1-73.7-13.1-75.5-7.2-78-.4-78.5,7-20.6,8.3-22.4,8.3-25.4,9-27.4,9.5-30.8,11-33,12-.7.3-29.5,11.5-22.1,9.8"/>
    <path class="st0" d="M1184.5,254.9l-54.7-18.4-6.8-2.3-81.3-23.2-6.8-1.9-82.2-19.4-5.5-1.3-82.4-15.5-5.5-1-87.7-12.3-88.3-8.2-88.6-4-89.6.4-90.5,5.2-91.9,10.7-93.1,17-94.1,25-93.7,35.2L-.5,263.7"/>
    <path class="st0" d="M1184.5,209.4l-60.8-17.6-58.9-24.8-75.2-16.5-76.4-14.3-57.9-17.5-74.7-9.4-76.1-7.2-78-4.9-79.8-2.4-82.4.3-85.1,3.3-88.8,6.7-93,10.8-98.5,15.8L-.5,152.4"/>
    <path class="st0" d="M1184.5,185.2l-58.2-22.9-63.3-14.7-12.9-4-69.2-21.6-12.3-3.2-74.6-19.5-57.8-7.7-12.3-2.4-76.2-15-11.6-1.8-82.5-12.9-10.9-1.3-89.6-10.5-10.2-.8-98-7.9-118.1-5.4-131.2-1.6-149.7,2.9L-.5,37.2"/>
    <path class="st0" d="M1184.5,177.1l-58.2-14.9-12.3-4.1-74-24.8-59.1-11.3-61.4-10.4-12.9-3.1-70.4-16.9-60.2-6.7-13-2.3-72.7-12.9-12.4-1.7-79.3-11-11.9-1.2-86.9-8.8-107.2-7-117.9-3.8h-132.3S-.5,40.6-.5,40.6"/>
    <path class="st0" d="M1184.5,521.8l-41.4-37.6-1.4-1.3-30.3-8.5-31-9.2-33.6-10.3-34.7-10.5-37.7-10.9-39.2-10.5-42.6-10.2-44.6-9.1-48.3-7.8-50.6-6-54.6-3.5-57.2-.6-61.6,3.3-64.6,7.7-69.4,13.8-66.4,18.9-6.7,1.9-60.8,23.8-9,3.5-8.7,3.4-73.2,37.6"/>
    <path class="st0" d="M1184.5,58l-50.6-16.5-71.4-21.3L990,.5,988.1,0"/>
    <path class="st0" d="M1184.5,485.5l-39.6-30.3-2.6-2-25-3-59.9-36.3-64.7-31.7-69.9-27.1-72.8-21.7-76.3-16-77.7-9.9-79.7-3.2-79.8,4.1-76.9,12.2-2.8.4-61.8,18-15.1,4.4-42.7,20.6-26.1,12.6-3.3,1.6-22.1,18-21,17.1-7.7,6.3-6.3,5.1-2.6,2.1"/>
    <path class="st0" d="M1184.5,53.8l-50.6-12.2-86.4-18.3-16-3.4-88.8-16.2-13.7-2.5L921.5,0"/>
    <path class="st0" d="M271.2,415l48.7-17.4,39.9-9.8,25.4-6.2,1.8-.4,63.4-10,57.9-4.1h54.1s48.5,3.9,48.5,3.9l44.6,6.6,39,9,34.9,10.7,29.3,12.1,25.1,12.9,19.5,13.4,15.3,13.6,9.8,13.4,5.7,13,.7,12.4-3.2,11.7-7.8,11-11.3,10.2-15.4,9.7-18.6,9.2-22.1,9.2-24.9,9.4-28,10.2-30.5,11.4-33.1,13.5-35.1,16.3-37.1,20.1-40.5-1.5-44.5,4.4-48.2,11.5-52,20.4-2.4,1.4"/>
    <path class="st0" d="M1184.5,437.3l-43.3-27.3-18.1,3.4-71.4-36.7-74.6-30.9-78.2-25.2-79.7-19.1-81.7-12.9-82-6.3-82.5.8-81.1,8.5-76.6,17-2.4.5-66.7,25.4-6.9,2.6-44,28.2-17.8,11.4-2.6,1.7-6.9,16-9.5,16.8-10.3,15.7-6.6,10.6-1.4,1.5-1,1.5-1.6,2.4-.7,1.1-2.1,3.5-3.2,5.9-4.5,7.6-2.6,4.3-3,5.1"/>
    <path class="st0" d="M1184.5,206.5l-45.3-20.8-74.3-18.8-64.2-23.3-69.7-21.6-68.6-10.6-14.3-3.4-57.5-13.7-67.5-6.5-69.7-5-72-3.2-74.7-1.2-77.6.9-81.1,3.4-85.1,6.3-90.2,9.7-96.3,13.8L-.5,126.7"/>
    <path class="st0" d="M1184.5,194.8l-44.2-18.9-69.2-17-13.8-4.7-59.4-20.1-13.5-3.9-64.9-18.6-63.4-9.3-13.5-2.9-66.7-14.6-62.6-5.6-65.1-4.4-67.5-2.9-70.4-1.3-73.4.5-77,2.6-81,5-86,7.9-91.8,11.4L1.9,113.9l-2.4.5"/>
    <path class="st0" d="M1184.5,231.6l-45.1-14.5-44.2-22.9-71.2-17.6-10.9-2.7-82.2-17-44.9-16.7-80.6-11.6-81.7-8.8-82.7-5.8-84.4-2.7-86.2.6-88.7,4.3-91.6,8.4-95.4,13.4-99.7,19.5L-.5,182.3"/>
    <path class="st0" d="M1184.5,198.7l-45.3-12.9-68-26.8-70.5-15.3-72-13.5-66.3-18.7-70.4-8.9-72.1-7.1-74.1-5.2-76.1-3.1-78.7-.7-81.5,1.8-85,4.7-89.2,8.1-94.4,12.2-100.8,17.3L-.5,139.5"/>
    <path class="st0" d="M1184.5,188l-44.2-12.1-13.4-4.9-63.8-23.4-65.1-13.5-67-12.1-13.9-3.6-61-16-65.5-8-14-2.7-63.2-12.4-13.6-2.1-69.5-10.9-89.7-10.7-12.8-1.1-84.5-7.1-106.5-5.4-118.3-2.1-134.1,1.8L-.5,45.2"/>
    <path class="st0" d="M1103.9,609.3l-37.2-26.6-39.6-25.3-43.3-23.9-46.1-21.8-50.2-19.5-49.5-15.3-3.8-1.2-52.9-11.9-4.5-1-60.6-8.7-64.7-3.7-67.8,2.2-71.9,9.5-75.3,18-79.4,29.3-82.8,43.4-11.2-5.9-14.4-4.2-17.4,12.8"/>
    <path class="st0" d="M1184.5,545l-30.2-33.5-41.1-35.5-1.8-1.5-47.9-33.6-1.4-1-54.2-30.5-2.3-1.3-54-24.5-5.5-2.5-1.7-.8-66.6-23.6-69.8-18.5-24.4,1.5-25.8,1.2-28.9,1.1-30.5,1.1-34,1.5-36,2.1-39.8,3.3-42.2,4.7-46.5,7-49.4,9.4-54.2,13.3-35.6,10.7-22.2,6.7-38.3,14.4-25.2,9.5-36.5,16.7"/>
    <path class="st0" d="M1141.7,614.1l-36.3-25.8-38.2-24.9-35.9-20.8-5.7-3.3-39.5-20.1-4.5-2.3-42.4-18.3-5.4-2.3-46.4-16.7-4.2-1.5-49.6-13.9-5.1-1.4-57.7-11.8-61.7-7.6-64.8-2.8-68.9,3.2-72.1,10.1-76.3,19-79.8,29.8-13.8-5-17.1-3.5-21.4-1.1-24.9.9-29.5,4.2-23.9,5.1"/>
    <path class="st0" d="M312.5,658.9l36.5-25.1,63.6-30.9,60.2-19.5,56.2-10.4,52.2-3.2,47.9,2.8,43.9,7.7,39.6,11.8,35.7,15.2,32.8-8.6,32.9,19.4,31.6-6.4,30.3,22.9,30.5-5.2,28.1,25.7,29.3-4.9,15.1,16"/>
    <path class="st0" d="M1184.5,159.7l-41.6-14.9-43.8-9.4-20-5.7-86.2-24.6-43.2-6.8-20.6-4.5-85.5-18.8-43-4.4-21.1-3.4-86.4-14-19-2.3-94.3-11.3-17-1.4-103.8-8.5-131-5.9-145.5-1.6h-3.9c0,0-148.4,3.3-148.4,3.3l-14.6.3-16.1.8"/>
    <path class="st0" d="M1170.9,664.4l-32.8-27.9-34.3-27.1,1.5-21.1-4.4-23.2-11.8-25.3-18-26.3-25.7-27.1-31.8-26.7-39.2-26-4-2.1-40.6-22-3.8-1.6-47.3-20.2-4-1.4-51.4-17.4-3.6-.9-57.3-14.2-3.9-.7-60.4-10.1-68.9-5.7h-71.5s-3.3.3-3.3.3l-71.6,6.8-30.5,8-34.2,9.6-36.7,10.9-40.9,13.6-44,16.1-19,8.1"/>
    <path class="st0" d="M74.4,666.2l-30.2-27.8-44.7-6.9"/>
    <path class="st0" d="M602.3,666.2l35.4-19.1,30,14.2,38.7-15.1,27.2,18.5,37.9-10.4,13.5,12.1"/>
    <path class="st0" d="M1184.5,267.1l-35.7-13.1-25.8-19.9-31.4-20.2-79.2-20.6-7-1.8-34.8-17.5-77.4-14.8-7.3-1.4-85.2-12.7-85.5-9.2-86.5-5.6-87.5-1.8-89.2,2.2-91,6.6-93.5,11.7-96.1,17.9-99.1,25.7L-.5,218.4"/>
    <path class="st0" d="M1184.5,170.7l-33.6-12.8-54.1-12.5-10.5-3.2-84.2-25.5-9.6-2.4-89.1-22.5-49.2-6.4-9.7-1.8-90-17.1-8.8-1.3-15-2.2-81.2-12-7.9-.9-103.4-11.2-20.1-1.4-99.5-7-130.7-4.6-146.3-.2-5.5.2L-.5,30.1"/>
    <path class="st0" d="M1184.5,166.2l-33.6-8.3-9.4-3-89.5-28.9-50-9.3-52.7-9-10.6-2.5-84.5-19.8-51.9-5.9-10.7-1.8-86.1-14.9-9.9-1.3-92.7-12.3-9.1-.9-15.5-1.5-85.1-8-118.7-6.9-130.7-3.1-147.7,1.3L-.5,33.7"/>
    <path class="st0" d="M235.3,567.1l27.7-20.1,84.1-44.5"/>
    <path class="st0" d="M1107.7,666.2l-24.5-23.3-33.6-28.4-36.2-27-40.1-25.5-43.3-23.3-47.5-20.9-50.9-17.8-55.2-14.1-58.6-9.9-62.8-4.7-66.2,1.3-70.3,8.7-73.7,17.5-77.6,28.9-80.8,43.2-29.6,22.2"/>
    <path class="st0" d="M149.1,473.6l-26.8-19.7-29.3-18.5-31.1-16.7-33.5-15.4-28.9-11.1"/>
    <path class="st0" d="M1184.5,522.2l-30.2-10.7-32.9-12.3-33.7-12.7-36.3-13.5-37.7-13.4-40.8-13.4-42.5-12.6-46.1-11.8-48.2-10.3-52.1-8.4-54.5-5.9-58.6-2.8-61.3.8-65.7,5.7-68.9,11.2-73.7,18.6-72.4,25.5-5.3,1.9-68.3,32.7-14.8,7.1-23.5,14.8"/>
    <path class="st0" d="M1184.5,547.7l-29-13-35.1-15.9-36.1-16-38.9-16.4-40.4-15.9-43.7-15.4-45.7-14.2-49.4-12.8-51.7-10.7-55.7-8.2-58.3-5.1-62.4-1.1-65.3,3.4-69.7,9.3-73.1,16.1-78,25.3-77.8,34.6-4.3,1.9-49.4,29.7"/>
    <path class="st0" d="M412.2,666.2l22.3-21.7,33.6-28.2,31.6-23.5,29.1-19.7,26.7-17,23.7-14.9,20.9-13.4,17.6-12.3,14.6-11.6,11-11.1,7.8-10.9,3.8-10.6.5-10.5-3.8-10.2-7.3-10.1-11.8-9.5-15.4-9.1-20.2-8.1-23.9-7.2-28.9-5.6-32.7-4-38-1.4-41.9,1.1-47.4,5-51.5,9-57.4,15.1-30,10.5"/>
    <path class="st0" d="M1184.5,421.7l-26.3-16.4-17,4.7-72.9-37.6-77.2-32-79.2-25.9-81.7-19.9-82.4-13.5-83.4-7h-82.9c0-.1-82.3,7.4-82.3,7.4l-79.4,16.1-74.8,26.4-63.4,37.4-2.2,1.3-27.2,30.3-22.1,24.6-6.2,23.7-5.6,21.5-4,15.4-.4,1.5-3,11.5"/>
    <path class="st0" d="M303.1,649.4l17.5-25,15.2-22.1,12.3-19,9.5-16.8,2.9-1.2,71.2-30,3.2-.9,67.5-18.5,66.8-9.9,63.1-2.3,58.9,4.1,55.1,9.3,50.7,13.7,46.8,17.4,42.4,20.5,38.6,23.2,34.4,25.2,31.2,27.1,23.4-7.8,20.1-9.7,15.6-12.2,11.4-14.5,5.7-17.2.5-19.3-6.1-21.6-11.9-22.9-19.1-24.1-25-24.3-32.2-24.2-37.6-23.1-5-2.4-39.3-19.2-5.6-2.2-43.4-17-55-16.4-6-1.3-52.8-11.5-5.5-.7-58.4-7.8-67-3.6-71.3,2.4-8.6,1.1-65,8.1-9.5,2.2-46.5,10.9-20.7,4.9"/>
    <path class="st0" d="M263.4,601.4l23.8-18.4-1-12.1-4.5-9.8-7.5-8.2"/>
    <path class="st0" d="M297,642.5l23.6-18.1,1.5-.8,67.7-36.9.8-.4,1.5-.6,64.4-23.9.7-.2,63-14.5,58.9-6.1,55,.6,50.6,6.2,46.5,10.8,42.1,14.7,38.1,17.9,33.9,20.6,29.4-6.1,31.4,23.8,28.1-5.6,29.3,26.4,26.9-6,21.5,22"/>
    <path class="st0" d="M1184.5,143.2l-25.2-8.6-2.9-1-25.1-4.3-2.3-.6-86-23.7-31.8-8.8-2.3-.6-26-3.3-4.3-.9-7.6-1.6-79.3-17.1-28.3-6.1-1.7-.4-8.5-1.4-77.9-13.1-35.8-6-1.9-.3-5.4-.7-8.3-1-114.7-14.3-135.3-11.4-145.7-6.7-161.6-1.8-100.8,2.2L-.5,12.8"/>
    <path class="st0" d="M1184.5,86.9l-27.9-10-50.1-16.7-52.3-16.2-54.3-15.7-56.2-15.1L890.1,0"/>
    <path class="st0" d="M829.8,666.2l-21.7-20-36.6,7.9-27.5-19.6-37.6,11.6-30.2-15.6-38.5,16.5-33.2-10.6-39.1,23.1-36.1-4.3-13.6,11"/>
    <path class="st0" d="M1184.5,84.9l-27.9-7.9-96.7-23.1-15-3.6-9.9-2.4-99.8-19.9-12.4-2.5-8.7-1.7-102.7-16.7-11.4-1.8-6.9-1.1L760.2,0"/>
    <path class="st0" d="M1184.5,98.4l-23.3-8.7-39.4-13.9-42.3-14-44.7-13.9-47.1-13.7-49.2-13.3-51.4-13L853.8,0"/>
    <path class="st0" d="M1184.5,49.2l-23.5-7.8-98.5-21.1-83.3-15.6-15.4-2.9L952.8,0"/>
    <path class="st0" d="M1184.5,595.6l-20.9-12.9-17.3-31.4-36.9-19.1-25-29.5-33-29.7-2.5-1.8-36.6-26.6-2.4-1.4-44-25.5-2.5-1.2-48.8-23h-.2c0,0-2.2-.9-2.2-.9l-54.7-20.1-.7-.3-2.2-.6-54.7-15.4-4-1.1-.7-.2-1.7-.3-64.7-12.5-69.3-7.8-73.2-1.9-28.5,5.1-31.9,6-34.1,6.7-38,8.4-40.6,10.1-45.1,13-48.3,15.9-53.6,20.9-1.6.7"/>
    <path class="st0" d="M1184.5,96.6l-23.3-6.9-10.4-2.6-99.8-24.7-11.3-2.8-7.1-1.8-12.5-2.5-99.4-20.2-9.2-1.9-6.3-1.3-13.3-2.2-100.5-16.4-8.8-1.4-5-.8L689.2,0"/>
    <path class="st0" d="M1184.5,67.2l-21.7-7.5-64.9-20.5-66.3-19.3L963.9,1.8,956.6,0"/>
    <path class="st0" d="M-.5,89.9l22.9-1.2,91.2-2.3,79.4.3,69.9,2.3,61.7,3.9,54.7,5.3,48.4,6.4,42.9,7.3,37.6,8,33.1,8.6,28.7,9.1,24.9,9.5,21.1,9.8,17.9,10,14.6,10.1,12,10.2,9,10.3,6.9,10.2,4.3,10.1,2.4,10v9.8l-1.6,9.5-3.9,9.2-5.4,8.9-7.6,8.5-9,8.1-11.3,7.8-12.7,7.3-15.1,7-16.5,6.7-19.1,6.5-20.6,6.4-23.5,6.6-25.2,6.7h-.6c0,0-64.1,10.9-64.1,10.9l-10.9,1.8-1.9.3-10.5,3.1-33.7,9.8-33.4,9.7"/>
    <path class="st0" d="M1184.5,469l-18-13.9-64-40.2-21.4.3-67.3-33.7-70.9-28.4-75-23.1-77-17.2-79.5-11-80.1-4.4-81,2.9-77.7,10.7-2.1.3-70.7,18.8-7.1,1.9-13,11.5-15.5,11.9-17.4,12-20.2,12.8-20.8,12.6-6.7,4-9.6,7.1-1.9,1.7-3.5,1.7-4.4,2.2-2.4,1.5-6.2,3.3-5.8,2.8-1.5.9-8.6,7.4-3.2,2.8-3.8,3.3-6.9,5.8-1.4,1.5"/>
    <path class="st0" d="M1184.5,290.8l-14.6-17.2-21.1-19.5-83.6-26-5.2-1.6-83.6-21.5-5.4-1.4-84.3-17.4-4.3-.9-84.3-13.1-4.5-.7-88.6-9.4-89.2-4.9-89.5-.3-90.4,4.7-91,10.3-91.8,16.9-91.6,24.9-90.1,35.3L-.5,290.6"/>
    <path class="st0" d="M1184.5,65.5l-21.7-5.8-95.3-21.8-14.4-3.3-96.9-18.9-12.5-2.4L862.4,0"/>
    <path class="st0" d="M134.7,666.2l-16.4-12.8-74-15L-.5,539.6"/>
    <path class="st0" d="M1184.5,503.4l-14.6-13.6-50.9-38.3-1.7-1.3-27.2-4.7-28-5.6-30.5-6.9-31.5-7.4-34.4-8-35.8-8.1-39-8.1-40.8-7.5-44.4-6.6-46.6-5.3-50.5-3.5-53-1.2-57.3,2-60.2,5.5-64.9,10.5-59.8,14.1-8.6,2-52.2,17.1-10.8,3.5-10.7,3.5-55.3,23.8-14.8,6.4-8,3.4-34.4,19.3"/>
    <path class="st0" d="M269.9,609.4l15.4-12.5,78.5-45,3.3-13.1v-11.2c-.1,0-3.3-10-3.3-10l-6.8-8.2-9.9-7"/>
    <path class="st0" d="M-.5,100.8l19.5-.9,82.2-1.7,71.5.6,62.7,2.4,55.1,3.9,48.6,5.1,42.7,6.1,37.6,6.9,32.7,7.6,28.6,8.2,24.5,8.7,21.2,9.1,17.7,9.4,15,9.6,12,9.8,9.7,9.9,7.1,10.1,5.2,10.1,2.8,10.1,1.1,10-1.2,9.9-2.7,9.7-4.9,9.5-6.4,9.2-8.6,9-10.1,8.7-12.4,8.5-13.9,8.2-16.4,8.2-17.9,8-65.4,13.4-10.4,2.1-3.1.6-19.8,10-40,15.3-26.2,10-7.1,2.7-3.5,1.3"/>
    <path class="st0" d="M-.5,59.8l18.8-1.1,123.9-3.6h108.1l95.9,2.9,86.2,5.3,78,7.3,71,9.1,64.5,10.5,58.7,11.8,53,12.9,47.9,13.7,42.6,14.4,37.9,14.9,32.8,15.1,28.5,15.3,23.7,15.2,19.8,15.1,15.4,14.7,12,14.3,8.1,13.6,5.2,13.1,1.6,12.2-.7,11.5-3.9,10.5-5.8,9.6-8.6,8.5-10.2,7.6-12.8,6.3-14,5.4-16.5,4.1-17.6,3.2-20.1,2.1-21.2,1.3-72-20.3-74.3-14.6-77.3-8.6-78.3-2-79.6,5.6-71.6,12.8-4.7.8-2.5.5-18,10-46.2,16.1-26.9,9.3-3.4,1.2-28.2,15.8-28.6,16.1-10.8,6.1-3.1,1.7"/>
    <path class="st0" d="M1184.5,455l-18,.2-24.3-1.8-61.1-38-23.8-1.3-24.7-2.3-27.1-3.6-28.2-4.3-30.9-5.1-32.2-5.4-35.4-5.7-37-5.4-40.5-5-42.5-4.1-46.4-2.7-48.7-1-52.9,1.5-55.7,4.3-60.3,8.4-52.6,10.7-11,2.2-55.6,15.8-13.3,3.8-62.6,23.2-10.4,3.9-66.1,31.9-3.1,1.5"/>
    <path class="st0" d="M1184.5,279.3l-14.6-5.8-84.5-28.3-5.4-1.8-85.3-23.7-4-1.1-85.1-19-4.4-1-85.7-14.6-3.4-.6-89.3-10.5-89.2-5.8-89.7-.9-89.9,4.3-90.4,10.1-90.2,16.9-89.4,25.2-86.4,35.6-79.3,49.8L-.5,328.7"/>
    <path class="st0" d="M1075.9,666.2l-10.6-10.9-31.3-28.6-34.8-27.4-37.9-25.6-42.1-23.7-45.5-21.1-49.9-18-53.5-14.3-57.8-9.9-61.4-4.8-65.5,1.4-69,8.7-73,17.9-76.3,29.1-76.7,42.4-3.2,1.8-1.9,13.9-5.1,16.5-2.4,5.8"/>
    <path class="st0" d="M1184.5,76.7l-14.1-5-57.8-19-59.5-18.1-61.2-17.2-62.8-16.3L924.1,0"/>
    <path class="st0" d="M1184.5,492.8l-14.6-3-28.2-6.9-51.6-37.4-55.6-32.8-1.7-1-61-28.8-2.7-1.3-67.5-25.3-23.9.4-25.1-.2-28-.7-29.4-.9-32.7-1-34.4-.7h-38c0-.1-40.1.7-40.1.7l-44.1,2.3-46.6,4-51,6.8-36.3,6.6-17.7,3.2-38.9,9.5-20.2,4.9-45.3,14-17.5,5.4-48.3,19-20.4,8-32.2,15.6"/>
    <path class="st0" d="M478.5,666.2l11-9.9,37.6-27.7,36-22.4,34.1-18.4,31.7-15.3,29.3-13.1,26.5-11.6,23.7-10.7,20.4-10.1,17.4-10,13.6-10.1,10.3-10.4,6.1-10.8,2.5-11.3-2.1-11.6-6-11.9-11-12.1-14.9-12-20.2-11.6-24.2-11-29.6-9.8-33.6-8.5-39.1-6.5-43-4.2-48.5-.9-52.5,2.5-58.1,7.6-62.1,13.1-67.8,21-1.4.6"/>
    <path class="st0" d="M1139.7,666.2l-10.7-10.2-32.9-28.6-35-27.5-38.5-26.5-41.3-24.8-45.3-22.9-48.5-20.3-52.7-17.3-55.9-13.7-60.1-9.4-63.4-4.4-67.5,1.7-70.8,8.8-74.9,17.8-78.3,28.7-82.1,43.4-32.1,23.5"/>
    <path class="st0" d="M1184.5,75.7l-14.1-3.9-103.7-24.7-12.6-3-105.1-21.1-10.4-2.1-106.7-17.7-9-1.5L810.8,0"/>
    <path class="st0" d="M1184.5,406l-12-7.3-14.3,6.6-75.8-38.7-78.5-32.5-81.5-26.6-82.5-20.3-84-14.1-83.9-7.6-84.1-.8-82.7,6.6-78.4,14.6-2.2.4-73.9,24-1.8.6-60.9,33.1-6.5,3.5-34.2,34-17.7,17.6.5,18.3-2.2,18.8-3.4,17.9-2.2,11.8-.8,4.2-1.2,6.3-.2.9-.2,1.3-2,10.4-1.5,11.1.2,2.7-.8,6.2,1.1,3.6,3.7,10.6,2.6,10.4,2.2,11.3,3.8,14.4"/>
    <path class="st0" d="M1184.5,114.5l-12.4-5.7-21.1-9-24.8-9.7-28-10.3-31.3-10.8-34.2-11.1-37.1-11.3-39.6-11.3-42.1-11.3-44.4-11.2-46.7-11L815.5,0"/>
    <path class="st0" d="M1184.5,620.4l-10.9-7.6-35.7-24.1-10.3-27.3-38.5-21.6-40.1-20.8-43.4-20.2-45.6-18.8-42.5-14.8-6.8-2.4-51.8-14.9-55.8-12.2-58.5-8.9-62.5-4.8-65.4-.2-69.6,5.7-72.9,12.5-77.3,21.5-81,32.3-85.8,47.4-3.1,2.3"/>
    <path class="st0" d="M1184.5,112.7l-12.4-3.9-64.9-17-46.8-12.3-11.1-2.9-8.1-2.1-4.3-1.1-112.3-23.8-10.6-2.3-7-1.5-4-.9-62.9-10.5-60.9-10.1-6.8-1.1-3.4-.6-62.8-7.9-64.2-8-6.1-.8-3.4-.4L569.2,0"/>
    <path class="st0" d="M347.7,666.2l10.1-6.7,57-26.8,53.4-16.5,49.6-8.3,45.5-1.7,41.6,3.8,37.5,8.4,36.2-14.5,34.5,13.8,35.1-10.3,31.7,18.2,34-7.3,29,21.8,33-5.3,26.7,24.8,31.9-4.3,10.1,11.1"/>
    <path class="st0" d="M-.5,80.6l11.6-.7,101.6-3.1,88.4-.2,77.9,2.1,69,4,61.6,5.5,54.8,6.7,48.9,7.8,43.3,8.6,38.4,9.3,33.6,9.8,29.4,10.2,25.2,10.5,21.7,10.7,17.9,10.9,14.9,10.9,11.6,10.9,9.1,10.8,6.2,10.6,4.1,10.4,1.4,10.1-.3,9.8-2.8,9.4-4.4,9-6.7,8.5-8.1,8-10.5,7.4-11.8,6.9-14.2,6.3-15.5,5.8-18,5.4-19.4,5-22.1,4.8-23.6,4.7-26.7,4.9-75,4.8-28.5,7.4-6.2,1.2-52.1,10.3-16.7,3.3-1.5.3-8.1,2.6-31.6,10.4-37.3,12.2"/>
    <path class="st0" d="M1184.5,647.1l-8.9-7.1-33.8-25.9-3.7-25.4-37-23.6-40-23.3-36.7-19.3-5.3-2.8-39.3-18-6.3-2.9-43.2-17-4.9-1.9-46.1-14.9-5.9-1.9-54.8-13.9-58.8-10.5-61.7-6.4-65.8-1.5-68.8,4.2-73,11.4-76.4,19.8-80.9,31.2-84.6,45.3-18.3-1.4h-3.8"/>
    <path class="st0" d="M556.4,666.2l9-6.7,24.9,6.7"/>
    <path class="st0" d="M-.5,238.5l9-4.6,97.6-35.4,96.4-25.2,94.6-17.4,92.5-11.1,90.9-5.9,89.2-1.2,88.3,3,87.3,6.9,86.9,10.8,5.7,1,80.7,13.6,6.9,1.5,79.7,17.1,29.6,17.5,25.1,17.4,20.1,17,16.1,16.6,11.5,15.8,8,15.2,3.9,14.1,1,13.3-2.6,12-4.9,11-8.1,9.6-9.9,8.5-12.7,6.9-14.1,5.8-16.6,4.3-17.7,3.2-20.2,1.7-21.1.7-23.6-.6-24.7-1.3-27.4-2.3-28.6-2.7-31.6-3.2-33.2-3.2-36.6-3.1-38.4-2.5-42.2-1.6-44.4-.3-48.5,1.6-51.1,3.9-55.7,7.2-44.7,8.3-14.1,2.6-47.5,12.2-16.5,4.2-54.4,18-13.6,4.5-57.6,24.6-16.3,7-17.6,9.4"/>
    <path class="st0" d="M1184.5,222l-7.9-4.5-52.9-25.8-78.6-19.9-55.4-21.4-61-20.2-73.2-11.5-63.4-16.2-68.9-14.7-14.4-2.5-60.3-10.5-14.2-1.9-66.8-9.1-88.1-8.9-96.3-6.4-106.4-3.6-119.3-.3-136.7,3.7-21.1,1.2"/>
    <path class="st0" d="M908.5,666.2l-6.1-6.8-33.7,4.4-25.9-23.9-34.7,6.2-28.3-20.7-35.8,9-31-16.9-36.8,12.9-33.9-12.2-37.7,18.1-36.9-6.4-38.4,25.1-39.8,1.1-43.3,7.4-7.7,2.5"/>
    <path class="st0" d="M352.2,666.2l5.5-6.7,28.6-30.7,26.2-25.8,23.8-22.2,20.9-19.1,18.2-17,15-15,12-13.7,8.6-12.4,5.5-11.6,1.8-10.6-1.3-10-5.3-9.1-8.5-8.4-12.7-7.2-16.1-6.4-20.5-4.8-24-3.5-28.8-1.2-32.5.9-37.6,4.2-41.7,7.4-47.3,12.5-15.1,5.1"/>
    <path class="st0" d="M1184.5,220.2l-7.9-2.6-69.7-20-11.7-3.3-50.1-22.4-79.1-17.2-52.7-18.5-77.2-11.8-55.4-15-60.8-13.9-66.6-12.5-14.9-2.2-57.7-8.7-14.8-1.7-64.5-7.4-86.8-7.1-95.8-4.7-106.8-1.9-121.1,1.5L-.5,54.6"/>
    <path class="st0" d="M1184.5,576.8l-3.6-7.1-25.3-35.1-33.2-34.3-1-1-.4-.4-39.7-32.9-.9-.8-.3-.2-46.8-31-1.6-1.1-52.9-28.5-1.3-.7-58.3-24.9-2.1-.9h-.3c0,0-62.4-20.9-62.4-20.9l-1.6-.5-69.1-16.8-71.7-11.5-25.4,3-26.9,2.9-30.2,3.2-32.1,3.6-35.7,4.6-38,5.6-42.1,7.6-44.8,9.5-49.5,12.9-52.9,16.3-58.4,21.9-24.6,11"/>
    <path class="st0" d="M1184.5,245l-6.4-4.5-38.7-23.3-75.1-20.8-9.1-2.5-42-19.9-47.2-19.3-80-14.4-50-15.9-78.5-9.4-79.7-6.8-81.4-4.1-83.2-1.2-85.7,1.9-88.6,5.4-92.3,9.5-96.6,14.4-102.2,20.6L-.5,167.4"/>
    <path class="st0" d="M1184.5,139.3l-7.1-2.5-21-3.3-1.5-.4-78.2-22.1-35.6-10.1-9.9-2.8-4.4-1-70.4-16.1-41.9-9.6-6.7-1.5-2.8-.6h0s-71.3-12.8-71.3-12.8l-56.7-10.2-69.6-9.4-61.8-8.3-16.5.4-19.9.2h-23.3c0,0-26.6,0-26.6,0h-30s-33.4.2-33.4.2l-36.9.4-40.4.7-44.1,1.2-47.9,1.8-51.9,2.6-56.3,3.6-61.1,4.7-66.4,6.2-72.6,8L-.5,61.1"/>
    <path class="st0" d="M1184.5,137.7l-7.1-.9-72.1-20.8-52.4-15.1-3.3-1-18.4-1.9-22.3-2.6-5.3-1.2-77.1-17.2-33-7.3-8.4-1.9-2.3-.4-7.2-1.2-68.9-12-45.4-7.9-2.4-.4-5.1-.7-71.1-9.3-53.9-7-136.3-12.1-146.2-7.4-161.4-2.5-93.1,1.6L2.6,10H-.5s0,0,0,0"/>
    <path class="st0" d="M1184.5,242.8l-6.4-2.3-78-23.9-8.5-2.6-36.4-20.1-76-17.8-8.6-2-39.6-17.1-82.9-13.9-83.3-10.7-84.3-7.5-85.3-4.2-87-.7-88.8,3.2-91.4,7.5-94.2,12.5-97.9,18.6-101.8,26.3L-.5,199.9"/>
    <path class="st0" d="M1184.5,39.9l-5.6-1.3-94.3-20.2L990,.5,987.1,0"/>
    <path class="st0" d="M1184.5,571.7l-3.6-1.9-34.6-18.4-25.9-32.6-32.8-32.2-1.4-1.1-38.8-29.9-.7-.5-1.3-.8-44.7-28.1-.6-.4-1.1-.6-51.2-25.7-1.3-.6-.9-.4-51.6-20.8-4.6-1.8-1.1-.4-.6-.2-57.7-17.7-3.6-1.1-1.8-.5-3-.7-64-14.2-71.2-9.7-73.4-3.9-76.4,3-68.2,9.4-6.6.9-2.5.3-51.8,13.5-26.5,6.9-24.7,11.2-26.8,12.2-4.6,2.1-16.7,8-6,3.3-12.5,5.5-6.2,3.2-1.7.6-10.6,6.7-5.9,4.5-.4.3h-.2c0,.1-6.2,4.2-6.2,4.2"/>
    <path class="st0" d="M814.9,40.9l-2.7-2.7-6.1-3.2-9.3-3.7-12.5-4.2-15.5-4.6-18.5-5-21.4-5.3-24.2-5.6-26.9-5.8L673.7,0"/>
    <path class="st0" d="M678.5,23.7l-3.3,1.7-6.6,1.4-9.9,1-13.2.7-137.3-12.8-146.7-8-161.4-3.1-87,1.2L15.4,7.1-.5,7.7"/>
    <path class="st0" d="M949.2,66.1l-2.3-2.9-5.8-3.6-9.3-4.3-12.7-4.9-16.1-5.5-19.2-6-22.3-6.5-25.1-6.8-28.1-7.1-30.7-7.3-33.4-7.5L727.2,0"/>
    <path class="st0" d="M443.7,666.2l2.5-2.5,36.5-30.7,35-25.1,32.8-20.7,30.6-17.4,27.9-14.9,25.3-13.2,22.1-11.9,19.2-11.2,15.7-10.7,12.5-10.6,8.7-10.5,5.3-10.7,1-10.8-2.6-11-7.2-10.9-10.9-10.8-15.8-10.4-19.6-9.9-24.7-8.9-28.5-7.9-33.8-6.1-37.7-4.2-43.1-1.3-47.1,1.6-52.7,6-56.8,10.6-62.7,17.6-21.6,8.1"/>
    <path class="st0" d="M1083.2,97.9l-1.6-3.1-5.6-4.1-9.3-5-13.1-5.9-16.6-6.7-20.1-7.3-23.3-7.9-26.5-8.4-29.4-8.7-32.3-9-34.9-9.2-37.6-9.3-39.9-9.3L773.6,0"/>
    <path class="st0" d="M1083.2,97.9l-2.4,2-6.4,1-56.7-13.5-75.1-17.9-132.5-24.9-134.9-19.2-139.8-14-5.8,1.6-9,1.4-147.2-8.5-161.5-3.6L27.5,4.3l-12.2,2.8L-.5,10"/>
    <path class="st0" d="M322.7,666l1.7-2.2,24.6-30,22.1-25.5,19.6-22,16.6-19.1,13.8-17,10.6-14.9,7.6-13.6,4.2-12,1.1-11.1-2.5-9.7-5.7-8.8-9.6-7.4-12.8-6.4-17-4.7-20.3-3.4-24.8-1-28.4.9-33.3,4.2-37.3,7.1-33,9.3"/>
    <path class="st0" d="M1173,666.2l-2-1.8,4.6-24.4-1.9-27.2-10.1-30-35.9-21.4-18.3-29.1-38.2-18.8-41.2-18.7-43-17.7-46.5-16.7-48.8-15-52.6-12.9-55.2-10.3-59.2-7-61.9-3.2-66.1,1.6-69.2,7.2-73.6,14.4-77.2,22.9-82,34.6-71,40.5"/>
    <path class="st0" d="M949.2,66.1l-1.4,2.1-5.1,1.3-8.8.6h-12.5c0-.1-16.2-.9-16.2-.9l-19.9-1.4-23.5-1.8-27-2.2-30.4-2.5-33.8-2.7-37.1-2.7-15.9-2.1-99.4-13.1-13.9-1.3-108.2-10-131.6-7.2-145-2.8-165,2.3L-.5,24.1"/>
    <path class="st0" d="M814.9,40.9l-.6,2.1-4.1,1.6-7.5,1-11,.5h-14.5s-18-.3-18-.3l-21.4-.7-24.8-1-11.3-1.3-115.7-13.6h-.2s-91.2-7.1-91.2-7.1l-42.9-3.3-145.3-5.9-162-.9-109.7,2.9L-.5,15.7"/>
    <path class="st0" d="M678.5,23.7v-2.1c0,0-3.1-2.5-3.1-2.5l-6.2-2.9-9.3-3.2-12.3-3.6-15.3-3.9-18-4.2L608,0"/>
    <path class="st0" d="M381.3,666.2l1.2-1.4,32.2-32.1,30.1-26.7,27.8-22.6,25.1-19.3,22.5-16.9,19.4-15,16.5-13.7,13.1-12.5,10-11.8,6.3-11.1,3.1-10.7-.8-10.1-4.1-9.8-8.4-9-11.8-8.6-16.2-7.5-19.8-6.7-24.5-5.1-28.1-3.7-33.2-1.3-37,.9-42.4,4.5-46.4,8-52.3,13.5-28.7,9.7"/>
    <path class="st0" d="M1044.6,666.2l-.9-1-29.8-28.8-32.6-27.3-36.5-25.7-40-23.5-44.3-21-48-17.9-52.5-14.2-56.2-9.8-60.5-4.5-64.1,1.6-68.2,9.2-68.7,17.5-3,.8-75.5,30.1-6.2,14.6-74.2,45-3.1,1.9-4.2,3.6"/>
    <path class="st0" d="M1184.5,154.3l-1.3-.5-40.3-9-16.6-5-93.5-28-14.1-3.5-98-24.1-.6-.2-36.6-4.5-5-.9-10-1.9-95.7-17.8-2.2-.4-12.8-1.8-100.2-14.3-4.6-.6-10.7-1.1-11.7-1.2-101.3-10.3-132.3-8.4-144.9-4-163.6,1.1L-.5,21.3"/>
    <path class="st0" d="M1184.5,154.1l-1.3-.3-12.9-4-90-28.1-8.2-2.6-2.8-.9h0s-36.5-6.4-36.5-6.4l-39.9-6.7-6-1.4-11.5-2.7-91.9-21.5-39.9-4.5-6.3-1.1-11.9-2.1-92-16-40.3-2.6-43.5-2.3-46.7-1.9-49.9-1.4-53.2-.7-56.6.2-60.2,1.3-64.2,2.5-68.5,4.1-73.5,5.9-79.3,8.1-86.3,10.8-11.6,1.8"/>
    <path class="st0" d="M1184.5,124.7l-51.6-14.9-47.5-13.7-3.8-1.1-131-30.8-3.6-.9-82.3-15.3-49.1-9.1-3.3-.6-28.4-4-105.1-14.8-3.2-.4-27-2.7-56.1-5.6-49-4.9-6-.6-3-.3L452.3,0"/>
    <path class="st0" d="M1184.5,115.4l-66.5-18-40.8-11.1-11.6-3.1-7.7-2.1-4.3-1.2-70.1-15.4-53.4-11.7-7.3-1.6-3.7-.8-114.6-19.8-10-1.7-6.5-1.1-3.6-.6-118-15.4-9.2-1.2-6.4-.8-3.1-.4L544.7,0"/>
    <path class="st0" d="M1184.5,118.7l-63.4-17.7-16.8-4.7-25.7-7.2-7.9-2.2-4-1.1-84-19-29.5-6.7-10.5-2.4-7.1-1.6-3.8-.9-115-20.5-9.7-1.7-6.8-1.2-3.4-.6-7-.9-67.2-9-53.2-7.1-6.2-.8-3.3-.4-5.4-.5-69.3-6.6-57.7-5.5L522.9,0"/>
    <path class="st0" d="M1184.5,99.9l-11.9-3.1-88.7-23.4-10-2.6-7-1.8-26-5.6-88.4-19.1-9.4-2-5.6-1.2-26.7-4.6-89.7-15.6-7.7-1.3-5.1-.9-26.5-3.6-92.5-12.5-7.5-1-4-.5L669.3,0"/>
    <path class="st0" d="M1184.5,88.9l-95-24.6-9.9-2.6-102.9-22.2-12.5-2.7-8-1.7-106-18.6-10.3-1.8-7-1.2L736.6,0"/>
    <path class="st0" d="M1184.5,176.8l-8.5-3.1-79.2-28.4-56.8-12-11.4-3.2-79.2-22.4-55.4-8.4-11.5-2.5-80.2-17.3-54.7-5.3-57.3-4.5-60.1-3.5-62.9-2.4-65.9-1-69.1.5-72.7,2.3-76.8,4.3-81.7,6.8-87.5,9.7-78.8,11.2-15.9,2.3-19.5,3.4"/>
    <path class="st0" d="M1184.5,59.8l-70.2-16.7-16.4-3.9-91.8-18.8-14.2-2.9L897.8,1,891.9,0"/>
    <path class="st0" d="M1184.5,80.6l-65.9-17.2-12.1-3.2-108.1-23.8-10.6-2.3-109.7-20-8.6-1.6L784.4,0"/>
    <path class="st0" d="M303.3,649.5h0s65.3-39.7,65.3-39.7l2.5-1.5.6-.2,62.5-26.4,2.2-.9,61.5-16.7,57.7-8.2,53.4-1.1,49.4,4.6,45,9.4,40.9,13.3,36.6,16.6,30.6-7.6,27.8-7.2,25.1-7.3,21.7-7.9,18.6-8.8,14.5-10,10.8-11.3,5.9-12.8,1.7-14.1-3.8-15.4-8.5-16.3-14.5-17.1-19.2-17.3-25.5-17.3-30.1-16.6-36.3-15.5-40.7-13.9-46.5-11.7-11.6-2.1-38.9-6.9-56.1-5.4-59.7-1.4-64.8,4-18.7,2.7-49.4,7.2-22.6,5.6-50.2,12.5-41.9,15.2-4.1,1.5-10.3,3.8"/>
    <path class="st0" d="M307.7,655.6l-4.8-5.9-5.9-7.2"/>
    <path class="st0" d="M342.6,382.6l24.9-6.7,29.9-8.1,20.7-5.6,62.4-10.2,11.3-1.8,69.6-4.6,66.8,1.2,61.9,6.3,50.9,9,7.5,1.3,45.1,11.9,7.7,2,41.9,14.4,6.8,2.4,42.5,18.9,37.7,20.6,31,21.5,25.7,22,18.8,21.6,13.3,21,6.6,19.6,1.4,18.1-4.6,16-9.1,14-14.2,11.8-17.9,9.9-22,8-24.9,6.7-33.1-24.7-36.7-22.5-41.1-19.9-45-16.8-49.5-13-53.4-8.6-57.8-3.1-61.6,3.2-65.7,11.1-69.3,20.6-70.1,31.8-2.8,1.3-65.1,42.1"/>
    <path class="st0" d="M258.3,411l3.3-2.5,5.5-4.2,24.3-18.3,29.1-22,2.8-1.2,5.3-2.3,14.2-6.3,49.9-22.2,11.2-11.6,8.8-11.3,7.1-11.5,4.8-11.3,3.1-11.4.9-11.2-.8-11.2-2.9-11-4.7-10.9-6.9-10.6-8.8-10.4-11.2-10-13.4-9.7-16.2-9.2-18.9-8.8-22.2-8.2-25.5-7.6-29.6-6.9-33.9-6.1-39-5.1-44.6-3.9-51.2-2.6-58.7-.9-40.7.7"/>
    <path class="st0" d="M227.9,436.3l4.6-5.7,21.7-26.8,20.6-25.5,4.6-15.7,2.1-15.1v-14.8c0,0-2.4-14.2-2.4-14.2l-4.4-14-6.6-13.3-8.5-13-10.7-12.3-12.7-11.9-15-11.1-17.2-10.5-19.9-9.7-22.6-9-25.9-8-29.4-7.1-33.7-5.9-38.4-4.7-34.5-2.5"/>
    <path class="st0" d="M205.4,470.8l3.9-11.7,20.2-60-3-17.4-5.5-16.9-7.8-16-10-15.4-12.1-14.5-14.2-13.9-16.4-13-18.5-12.3-20.9-11.2-23.4-10.4-26.4-9.2-29.5-8.2-33.4-6.8-9-1.3"/>
    <path class="st0" d="M289,403.4l19.2-8.4,4.3-.6,19.1-5.4.5-.2,21.2-6.7,28.3-9,53.6-10.7,18.7-3.7,69.9-7.4,64.9-1.1,61.6,3.7,46,6.5,10.4,1.5,43.5,9.4,9.1,2,37.8,11.5,9,2.7,42.4,16.4,36.2,18,31.4,19.1,24.8,19.5,19.7,19.6,13.3,18.9,8.2,18.1,2.1,16.6-2.6,15.1-7.9,13.3-12,11.6-16.5,9.9-19.9,8.5-23.6,7.2-26.4,6.5-35.5-21.6-39.3-19-43.7-15.8-47.8-12-52.2-7.4-56.2-2.1-60.5,4.6-64.2,12.5-65.8,21.8-2.3.8-71.4,35.1-45.6,31.9"/>
    <path class="st0" d="M296.5,402.9l41.2-12.2,30.6-9,47-9.2,21.4-4.2,63.2-6.5,59.6-1.6,54.1,3,50.3,6.3,44.7,9.2,40.6,11.4,34.8,13.1,30.5,14.3,24.6,15,20.1,15.4,14.3,15.3,9.8,14.9,4.3,14.1v13.3s-4.9,12.2-4.9,12.2l-8.8,11.2-13.2,10.1-16.6,9.2-20.4,8.6-23.4,8.2-26.6,8.3-29.1,8.8-31.9,10-34,11.8-38.6-10.1-42.5-5.9-46.8-.6-50.8,5.5-54.9,13.3-58.5,22.8-6,3.4-55.9,31.7-2.3,1.8"/>
    <path class="st0" d="M1184.5,93.2l-53.7-14.9-9-2.5-106.9-24.8-11.2-2.6-8-1.8-108.5-20.6-10.5-2-6.3-1.2-111.9-16.9-8.5-1.3-5.7-.9L713.1,0"/>
    <path class="st0" d="M1184.5,107.1l-52.3-15.3-5.9-1.7-48.2-11.6-71.1-17.1-8.6-2.1-4.8-1.2-97-18.8-12.8-2.5-10.5-2-7.2-1.4-4.5-.9-47.4-7.2-74.5-11.3-7-1.1-3.7-.6L620.5,0"/>
    <path class="st0" d="M279.8,409.4l2-1.8,3.7-2.6,13.8-8.3"/>
    <path class="st0" d="M1184.5,147.1l-44.8-15-8.5-2.8-29.1-5.2-15.8-4.2-82.3-22-19.7-5.3-1.5-.4-29.7-3.8-8-1.7-10.2-2.1-73-15.1-10.1-2.1-12.6-2.6-4.6-1-6-1-8.5-1.4-81.2-13.1-25.1-4-1.1-.2-28.3-1.1-31.6-1.2-34.9-1.2-38.3-1-41.6-.7-45-.3-48.5.3-52.1,1-55.9,1.9-60.1,3-64.6,4.3-69.8,5.9-75.7,7.9L-.5,71.4"/>
    <path class="st0" d="M224.5,454.2l5.9-8.2,4.6-6.4,2.3-3.1,1.8-2.5,13.5-18.6,15.3-21.1,2.9-2,24.3-16.9,35.9-24.9,8.2-13.5,5.8-13.1,3.9-13.1,1.6-12.7-.2-12.6-2.4-12.2-4.2-12.1-6.4-11.6-8.2-11.4-10.5-10.9-12.5-10.5-15.1-9.9-17.5-9.4-20.5-8.7-23.5-8.1-27.1-7.2-31-6.4-35.7-5.3-40.8-4.2-47-2.8-48.4-1"/>
    <path class="st0" d="M1184.5,110l-28.3-8.7-5.2-1.6-54.1-13.6-22.8-5.8-18.8-4.7-14.3-3.6-11.5-2.9-7.8-2-4.8-1.2-56.4-11.5-65.1-13.3-7.5-1.5-4-.8-55.9-8.9-67.3-10.7-6.5-1-3.8-.6-55.4-6.6-71-8.5-6.4-.8-3.2-.4L598,0"/>
    <path class="st0" d="M304.6,666.2l-8.4-6.9-28.7-23.8-9.6-8-22.3-18.5-27-22.4-34.6-65.6-24.9-47.3"/>
    <path class="st0" d="M1184.5,103.7l-70.2-19.5-10.1-2.8-6-1.7-38.1-8.7-67.6-15.5-11.6-2.7-8.3-1.9-5.5-1.3-37.9-7-80.2-14.8-8-1.5-4.4-.8-37.9-5.4-82.9-11.9-6.7-.9-4.2-.6L642,0"/>
    <path class="st0" d="M234.9,566.5l-3.7-10.9-4-11.9-.2-.5-.6-1.7-3.4-7.7-3.5-9.8-2.8-11.1-1.1-3.6-.2-.6-.8-3-3.9-14.4-5.4-20.3-8-21.4,29.2-67.7,54.9-49.1,69.1-34.5,77.2-23.3,81.3-13.8,83.9-5.8,84.6,1.4,85.3,8,84.6,14.4,84.3,20.7,82.4,26.8,81,33.1,77.4,39.1,12-7.5"/>
    <path class="st0" d="M292.8,392.4l3.8-2,33.2-17.2,34.5-17.9,3.2-1,19.1-6.1,54.8-17.5,15.4-9.7,13.8-9.8,11.4-9.7,9.8-10,7.5-10,6-10.2,3.7-10.2,2.2-10.4v-10.4l-1.6-10.4-3.9-10.3-5.6-10.3-8-10.1-10-9.9-12.7-9.6-15.2-9.4-18.3-9-21.3-8.6-24.9-8.1-28.7-7.5-33.1-6.8-37.8-6-43.3-5-49.4-3.9-56.5-2.4-64.6-.8-74.5,1.4H-.5"/>
    <path class="st0" d="M1184.5,150.8l-65.9-21.4-10.4-3.4-4.8-1.5-1.2-.4-32.9-5.9-10.3-2.7-93.4-24.1-5.5-1.4-6.2-1.6h-.5c0-.1-33.2-4.4-33.2-4.4l-11.6-2.3-83-16.4-12.8-2.5-5.6-1.1-2.8-.6-9.4-1.4-10.9-1.7-77.1-11.7-12.4-1.9-7-1.1-2.9-.4-7.5-.8-9.3-1-107.8-11.9h-.6c0,0-1.4-.2-1.4-.2l-131.8-9.4-145-5H118.4S-.5,18.5-.5,18.5"/>
    <path class="st0" d="M1184.5,121.7l-86-24.5-18.4-5.2-4-1.2-79.7-18.4-34.4-7.9-17.2-4-3.6-.8-20-3.7-104.9-19.1-6.6-1.2-3.4-.6-106.6-14.7-27.1-3.7-3.2-.4-16.9-1.6-62.5-6.1-52.9-5.2-6-.6-3.1-.3L487.4,0"/>
    <path class="st0" d="M215.5,542.8l-4-20.5-3.8-19.3-4.8-24.9-5.6-28.7-10.5-20-13.2-19.1-15.4-17.8-17.8-17-19.9-15.7-22.1-14.8-24.2-13.5-26.6-12.5-29.1-11-18.9-5.8"/>
  </g>
  <polyline class="st0" points="1103.9 609.3 1100.1 630.9 1092.6 651.8 1085.6 666.2"/>
  <polyline class="st0" points="1141.7 614.1 1141.7 639.5 1137.4 666.2"/>
</svg>