<?xml version="1.0" encoding="utf-8"?>
<!-- Generator: Adobe Illustrator 27.1.1, SVG Export Plug-In . SVG Version: 6.00 Build 0)  -->
<svg version="1.1" id="Layer_1" xmlns="http://www.w3.org/2000/svg" xmlns:xlink="http://www.w3.org/1999/xlink" x="0px" y="0px"
	 viewBox="0 0 240 100" style="enable-background:new 0 0 240 100;" xml:space="preserve">
<style type="text/css">
	.st0{fill:#14B8A6;}
	.st1{fill:#FFFFFF;}
</style>
<g>
	<rect x="60" y="55" class="st0" width="119.9" height="22.7"/>
	<path class="st0" d="M79.8,30.5c-0.1-1.1-0.6-1.9-1.4-2.5c-0.8-0.6-1.9-0.9-3.3-0.9c-0.9,0-1.7,0.1-2.4,0.4
		c-0.7,0.3-1.1,0.6-1.5,1.1c-0.3,0.5-0.5,1-0.5,1.6c0,0.5,0.1,0.9,0.3,1.3c0.2,0.4,0.5,0.7,0.9,0.9c0.4,0.3,0.9,0.5,1.4,0.7
		c0.5,0.2,1.1,0.3,1.7,0.5l2.5,0.6c1.2,0.3,2.3,0.6,3.3,1.1c1,0.4,1.9,1,2.6,1.6c0.7,0.7,1.3,1.4,1.7,2.3c0.4,0.9,0.6,1.9,0.6,3
		c0,1.7-0.4,3.1-1.3,4.4c-0.8,1.2-2,2.2-3.6,2.8c-1.6,0.7-3.5,1-5.7,1c-2.2,0-4.1-0.3-5.8-1c-1.6-0.7-2.9-1.7-3.8-3
		c-0.9-1.3-1.4-3-1.4-5h5.6c0.1,0.9,0.3,1.7,0.8,2.3c0.5,0.6,1.1,1.1,1.9,1.4c0.8,0.3,1.7,0.5,2.7,0.5c1,0,1.8-0.1,2.6-0.4
		c0.7-0.3,1.3-0.7,1.7-1.2c0.4-0.5,0.6-1.1,0.6-1.8c0-0.6-0.2-1.1-0.5-1.6c-0.4-0.4-0.9-0.8-1.6-1.1c-0.7-0.3-1.5-0.6-2.5-0.8
		l-3-0.7c-2.3-0.6-4.1-1.4-5.5-2.6c-1.3-1.2-2-2.8-2-4.8c0-1.7,0.4-3.1,1.3-4.3c0.9-1.2,2.1-2.2,3.7-2.9c1.6-0.7,3.3-1,5.3-1
		c2,0,3.8,0.3,5.3,1c1.5,0.7,2.7,1.7,3.6,2.9c0.8,1.2,1.3,2.7,1.3,4.3H79.8z M114.8,36.3c0,3-0.6,5.5-1.7,7.6
		c-1.1,2.1-2.7,3.7-4.6,4.8c-1.9,1.1-4.1,1.6-6.5,1.6c-2.4,0-4.6-0.6-6.5-1.7c-1.9-1.1-3.5-2.7-4.6-4.8c-1.1-2.1-1.7-4.6-1.7-7.6
		c0-3,0.6-5.5,1.7-7.6c1.1-2.1,2.7-3.7,4.6-4.8c1.9-1.1,4.1-1.7,6.5-1.7c2.4,0,4.6,0.6,6.5,1.7c1.9,1.1,3.5,2.7,4.6,4.8
		C114.2,30.8,114.8,33.3,114.8,36.3z M108.9,36.3c0-1.9-0.3-3.6-0.9-4.9c-0.6-1.3-1.4-2.3-2.4-3c-1-0.7-2.3-1-3.7-1
		c-1.4,0-2.6,0.3-3.7,1c-1,0.7-1.9,1.7-2.4,3c-0.6,1.3-0.9,3-0.9,4.9c0,1.9,0.3,3.6,0.9,4.9c0.6,1.3,1.4,2.3,2.4,3
		c1,0.7,2.3,1,3.7,1c1.4,0,2.6-0.3,3.7-1c1-0.7,1.8-1.7,2.4-3C108.6,39.9,108.9,38.3,108.9,36.3z M143.2,32.2h-5.9
		c-0.1-0.8-0.3-1.4-0.7-2c-0.3-0.6-0.8-1.1-1.3-1.5c-0.5-0.4-1.1-0.7-1.8-1c-0.7-0.2-1.4-0.3-2.2-0.3c-1.4,0-2.7,0.4-3.7,1.1
		c-1.1,0.7-1.9,1.7-2.4,3c-0.6,1.3-0.9,2.9-0.9,4.8c0,2,0.3,3.6,0.9,4.9c0.6,1.3,1.4,2.3,2.5,3c1.1,0.7,2.3,1,3.6,1
		c0.8,0,1.5-0.1,2.2-0.3c0.7-0.2,1.3-0.5,1.8-0.9c0.5-0.4,0.9-0.9,1.3-1.5c0.3-0.6,0.6-1.2,0.7-2l5.9,0c-0.2,1.3-0.5,2.5-1.1,3.6
		c-0.6,1.2-1.4,2.2-2.4,3.1c-1,0.9-2.2,1.6-3.6,2.2c-1.4,0.5-3,0.8-4.7,0.8c-2.4,0-4.6-0.6-6.5-1.7c-1.9-1.1-3.4-2.7-4.5-4.8
		c-1.1-2.1-1.7-4.6-1.7-7.6c0-3,0.6-5.5,1.7-7.6c1.1-2.1,2.6-3.7,4.6-4.8c1.9-1.1,4.1-1.7,6.5-1.7c1.6,0,3.1,0.2,4.4,0.7
		c1.4,0.4,2.6,1.1,3.6,2c1.1,0.8,1.9,1.9,2.6,3.1C142.6,29.2,143,30.6,143.2,32.2z M155.9,50v-4.2l9.7-9c0.8-0.8,1.5-1.5,2.1-2.2
		c0.6-0.6,1-1.3,1.3-1.9c0.3-0.6,0.4-1.3,0.4-2c0-0.8-0.2-1.5-0.5-2.1c-0.4-0.6-0.9-1-1.5-1.3c-0.6-0.3-1.3-0.5-2.2-0.5
		c-0.8,0-1.6,0.2-2.2,0.5s-1.1,0.8-1.4,1.5c-0.3,0.6-0.5,1.4-0.5,2.3h-5.5c0-1.8,0.4-3.3,1.2-4.7c0.8-1.3,1.9-2.3,3.4-3.1
		c1.5-0.7,3.1-1.1,5.1-1.1c2,0,3.7,0.3,5.1,1c1.5,0.7,2.6,1.6,3.4,2.9c0.8,1.2,1.2,2.6,1.2,4.2c0,1-0.2,2.1-0.6,3.1
		c-0.4,1-1.1,2.1-2.2,3.4c-1,1.2-2.5,2.7-4.4,4.4l-4,3.9v0.2h11.5V50H155.9z"/>
	<path class="st1" d="M85.9,64.9h-2.3c0-0.3-0.1-0.6-0.3-0.8c-0.1-0.2-0.3-0.4-0.5-0.6c-0.2-0.2-0.4-0.3-0.7-0.4
		C81.9,63,81.6,63,81.3,63c-0.6,0-1,0.1-1.5,0.4c-0.4,0.3-0.7,0.7-1,1.2c-0.2,0.5-0.3,1.2-0.3,1.9c0,0.8,0.1,1.4,0.3,1.9
		c0.2,0.5,0.6,0.9,1,1.2c0.4,0.3,0.9,0.4,1.4,0.4c0.3,0,0.6,0,0.9-0.1c0.3-0.1,0.5-0.2,0.7-0.4c0.2-0.2,0.4-0.4,0.5-0.6
		c0.1-0.2,0.2-0.5,0.3-0.8l2.3,0c-0.1,0.5-0.2,1-0.4,1.4c-0.2,0.5-0.6,0.9-1,1.2c-0.4,0.4-0.9,0.6-1.4,0.9c-0.5,0.2-1.2,0.3-1.9,0.3
		c-1,0-1.8-0.2-2.6-0.7c-0.8-0.4-1.4-1.1-1.8-1.9c-0.4-0.8-0.7-1.8-0.7-3c0-1.2,0.2-2.2,0.7-3c0.4-0.8,1-1.5,1.8-1.9
		c0.8-0.4,1.6-0.7,2.6-0.7c0.6,0,1.2,0.1,1.7,0.3c0.5,0.2,1,0.4,1.4,0.8c0.4,0.3,0.8,0.7,1,1.2C85.7,63.7,85.9,64.3,85.9,64.9z
		 M97.5,66.5c0,1.2-0.2,2.2-0.7,3c-0.4,0.8-1.1,1.5-1.8,1.9c-0.8,0.4-1.6,0.7-2.6,0.7c-1,0-1.8-0.2-2.6-0.7
		c-0.8-0.4-1.4-1.1-1.8-1.9c-0.4-0.8-0.7-1.8-0.7-3c0-1.2,0.2-2.2,0.7-3s1-1.5,1.8-1.9c0.8-0.4,1.6-0.7,2.6-0.7c1,0,1.8,0.2,2.6,0.7
		c0.8,0.4,1.4,1.1,1.8,1.9C97.3,64.3,97.5,65.3,97.5,66.5z M95.2,66.5c0-0.8-0.1-1.4-0.3-1.9c-0.2-0.5-0.5-0.9-1-1.2
		C93.5,63.1,93,63,92.5,63c-0.6,0-1,0.1-1.4,0.4c-0.4,0.3-0.7,0.7-1,1.2c-0.2,0.5-0.3,1.2-0.3,1.9c0,0.8,0.1,1.4,0.3,1.9
		c0.2,0.5,0.5,0.9,1,1.2c0.4,0.3,0.9,0.4,1.4,0.4c0.6,0,1-0.1,1.4-0.4c0.4-0.3,0.7-0.7,1-1.2C95.1,67.9,95.2,67.3,95.2,66.5z
		 M99.2,61.1h2.8l3,7.3h0.1l3-7.3h2.8v10.8h-2.2v-7h-0.1l-2.8,7h-1.5l-2.8-7h-0.1v7.1h-2.2V61.1z M112.9,71.9V61.1h4.3
		c0.8,0,1.5,0.2,2.1,0.5c0.6,0.3,1,0.7,1.3,1.3c0.3,0.6,0.5,1.2,0.5,1.9c0,0.7-0.2,1.4-0.5,1.9c-0.3,0.5-0.8,1-1.3,1.3
		c-0.6,0.3-1.3,0.5-2.1,0.5h-2.7v-1.8h2.4c0.4,0,0.8-0.1,1.1-0.2c0.3-0.2,0.5-0.4,0.6-0.6c0.1-0.3,0.2-0.6,0.2-0.9
		c0-0.4-0.1-0.7-0.2-0.9c-0.1-0.3-0.4-0.5-0.6-0.6c-0.3-0.2-0.7-0.2-1.1-0.2h-1.5v9H112.9z M122.5,71.9V61.1h2.3V70h4.6v1.9H122.5z
		 M133.2,61.1v10.8h-2.3V61.1H133.2z M137,71.9h-2.5l3.7-10.8h3l3.7,10.8h-2.5l-2.7-8.4h-0.1L137,71.9z M136.8,67.7h5.8v1.8h-5.8
		V67.7z M155.3,61.1v10.8h-2l-4.7-6.8h-0.1v6.8h-2.3V61.1h2l4.7,6.8h0.1v-6.8H155.3z M156.8,63v-1.9h8.9V63h-3.3v8.9h-2.3V63H156.8z
		"/>
</g>
</svg>
