<?xml version="1.0" encoding="utf-8"?>
<!-- Generator: Adobe Illustrator 27.1.1, SVG Export Plug-In . SVG Version: 6.00 Build 0)  -->
<svg version="1.1" id="Layer_1" xmlns="http://www.w3.org/2000/svg" xmlns:xlink="http://www.w3.org/1999/xlink" x="0px" y="0px"
	 viewBox="0 0 240 100" style="enable-background:new 0 0 240 100;" xml:space="preserve">
<path d="M128.8,53.7L128.8,53.7c0,7.1-5.7,12.8-12.6,12.8s-12.6-5.8-12.6-12.8V42.8c0,0,6,1.5,6,7.9v3c0,3.9,2.9,7,6.6,7
	c3.6,0,6.6-3.1,6.6-7v-6.3v0.1c0.3-5.3,4.8-7,5.9-7.6h0.1v7.4L128.8,53.7L128.8,53.7z M96.5,41c1.7,0,3.3,0.3,4.7,0.9v6.7
	c-1.2-1.1-2.9-1.7-4.7-1.7c-4,0-7.2,3.1-7.2,7v12.7h-6V43.4c0,0,2.5,0.1,4.1,1.2C89.7,42.3,93,41,96.5,41 M67.6,60.8
	c-4,0-7.3-3.2-7.3-7.1s3.3-7.1,7.3-7.1s7.3,3.2,7.3,7.1S71.6,60.8,67.6,60.8 M67.6,41c-7.3,0-13.1,5.8-13.1,12.8
	c0,7.1,5.8,12.8,13.1,12.8c3,0,5.8-1,8-2.7c1.3,2.2,5.1,2.7,5.1,2.7V53.7C80.7,46.7,74.9,41,67.6,41 M172.4,60.8
	c-4,0-7.3-3.2-7.3-7.1s3.3-7.1,7.3-7.1s7.3,3.2,7.3,7.1S176.4,60.8,172.4,60.8 M172.4,41c-7.3,0-13.1,5.8-13.1,12.8
	c0,7.1,5.8,12.8,13.1,12.8c3,0,5.8-1,8-2.7c1.3,2.2,5.1,2.7,5.1,2.7V53.7C185.5,46.7,179.6,41,172.4,41 M144.6,60.8
	c-4,0-7.3-3.2-7.3-7.1s3.3-7.1,7.3-7.1s7.3,3.2,7.3,7.1C151.9,57.6,148.6,60.8,144.6,60.8 M144.6,41c-2.7,0-5.1,0.8-7.3,2.1v-2
	c-0.3-5.3-4.6-7-5.8-7.6h-0.1v33.1c0,0,3.9-0.4,5.4-2.6c2.2,1.5,4.9,2.5,7.7,2.5c7.3,0,13.1-5.8,13.1-12.8
	C157.8,46.7,151.8,41,144.6,41"/>
</svg>
