<?xml version="1.0" encoding="utf-8"?>
<!-- Generator: Adobe Illustrator 27.1.1, SVG Export Plug-In . SVG Version: 6.00 Build 0)  -->
<svg version="1.1" id="logo-full" xmlns="http://www.w3.org/2000/svg" xmlns:xlink="http://www.w3.org/1999/xlink" x="0px" y="0px"
	 viewBox="0 0 240 100" style="enable-background:new 0 0 240 100;" xml:space="preserve">
<g>
	<path d="M144.4,26.9c0,0,4.5-2.6,11.7-5.2c3.9-1.4,7.7-2.1,10.5-2.4c-1.5-0.4-3-0.8-4.1-1.1c-3.4-1-8.4-2.1-12.6-2.7
		c-0.2,1-0.7,2.6-1.9,4.9C146.4,23.5,144.4,26.9,144.4,26.9z"/>
	<g>
		<path d="M54,45.9h5.9v12.8l10.7-12.8H78l-12.2,14l12.7,15.7h-7.8L60,61.8H60v13.8h-6V45.9z"/>
		<path d="M80.8,54.8c2.2-1,5.2-1.7,7.6-1.7c6.7,0,9.4,2.8,9.4,9.2v2.8c0,2.2,0.1,3.9,0.1,5.5c0.1,1.7,0.1,3.2,0.3,4.9h-5
			c-0.2-1.1-0.2-2.6-0.3-3.3h-0.1C91.5,74.7,88.6,76,86,76c-3.9,0-7.7-2.3-7.7-6.5c0-3.3,1.6-5.2,3.7-6.2c2.2-1.1,5-1.3,7.3-1.3h3.1
			c0-3.5-1.6-4.7-4.9-4.7c-2.4,0-4.8,0.9-6.8,2.4L80.8,54.8z M87.4,71.9c1.7,0,3.1-0.8,4-2c0.9-1.2,1.2-2.8,1.2-4.5h-2.5
			c-2.6,0-6.3,0.4-6.3,3.8C83.8,71.1,85.4,71.9,87.4,71.9z"/>
		<path d="M114.7,58.2c-1.7-0.6-3-0.9-5.1-0.9c-1.5,0-3.4,0.6-3.4,2.4c0,3.5,9.9,1.3,9.9,9.2c0,5.1-4.5,7.1-9.2,7.1
			c-2.2,0-4.4-0.4-6.5-0.9l0.3-4.7c1.8,0.9,3.6,1.5,5.6,1.5c1.5,0,3.7-0.6,3.7-2.7c0-4.3-9.9-1.4-9.9-9.3c0-4.7,4.1-6.8,8.6-6.8
			c2.7,0,4.4,0.4,6.2,0.8L114.7,58.2z"/>
		<path d="M136.7,74.3c-2.1,1.1-4.5,1.7-7.5,1.7c-7.2,0-11.4-4.2-11.4-11.3c0-6.3,3.4-11.6,10.2-11.6c8.1,0,10.4,5.6,10.4,13.2
			h-15.1c0.3,3.5,2.7,5.5,6.3,5.5c2.8,0,5.1-1,7.3-2.2V74.3L136.7,74.3z M132.9,62.5c-0.2-2.8-1.5-5.1-4.6-5.1
			c-3.2,0-4.8,2.2-5.1,5.1H132.9z"/>
		<path d="M149.7,69.6L149.7,69.6l5.3-16h5.8l-8.2,21.7c-1.8,4.8-3.1,9.6-9.1,9.6c-1.3,0-2.7-0.2-4-0.6l0.4-4.2
			c0.7,0.3,1.5,0.4,2.9,0.4c2.3,0,3.7-1.6,3.7-3.9l-8.4-23h6.3L149.7,69.6z"/>
		<path d="M162.3,54.8c2.2-1,5.2-1.7,7.6-1.7c6.7,0,9.4,2.8,9.4,9.2v2.8c0,2.2,0.1,3.9,0.1,5.5c0.1,1.7,0.1,3.2,0.3,4.9h-5
			c-0.2-1.1-0.2-2.6-0.3-3.3h-0.1c-1.3,2.4-4.2,3.8-6.8,3.8c-3.9,0-7.7-2.3-7.7-6.5c0-3.3,1.6-5.2,3.7-6.2c2.2-1.1,5-1.3,7.3-1.3
			h3.1c0-3.5-1.6-4.7-4.9-4.7c-2.4,0-4.9,0.9-6.8,2.4L162.3,54.8z M169,71.9c1.7,0,3.1-0.8,4-2c0.9-1.2,1.2-2.8,1.2-4.5h-2.5
			c-2.6,0-6.3,0.4-6.3,3.8C165.4,71.1,166.9,71.9,169,71.9z"/>
	</g>
	<path d="M142.4,30.6c-0.8,0.2-3.5,7.3-4.9,11.1c2.6,1.8,5.2,3.4,7.7,4.4c4.9,2.2,6.5,1.3,9.5-0.1c2.2-1,5.6-3.3,8.6-5.5
		c-3.7-2.4-8.3-5.3-10.9-6.5C147.4,31.7,143.5,30.2,142.4,30.6z"/>
	<path d="M146.6,15c-3.8-0.3-4.4,0.6-5.1,1.1c-1.9,1.1-10,5.9-13.9,9.2c-3.7,3.2-3.1,5.2-1.3,7.2c1.4,1.6,3.8,3.6,7.6,6.5
		c0.2,0.1,0.3,0.3,0.5,0.4c1.5-3.4,4.8-10.7,6.5-14.2C142.8,21.4,145.4,17,146.6,15z"/>
	<path d="M179.6,23.5c-1.3-0.7-2.5-1.1-3.5-1.4c-0.5-0.2-1.9-0.6-3.6-1.1c-3,0.4-8,1.1-12.8,2.3c-5,1.2-13.4,5.3-13.4,5.3
		s10.6,3.4,20.6,9.2c0.3-0.3,0.6-0.5,0.9-0.7c3.1-2.5,10.9-9.1,12.6-11.9C180.8,24.5,180.4,23.9,179.6,23.5z"/>
	<g>
		<path d="M179.7,54.1c0-1.7,1.4-3.1,3.1-3.1s3.1,1.4,3.1,3.1c0,1.7-1.4,3.1-3.1,3.1S179.7,55.8,179.7,54.1z M185.2,54.1
			c0-1.5-1.1-2.5-2.4-2.5c-1.3,0-2.4,1.1-2.4,2.5s1.1,2.5,2.4,2.5C184.2,56.6,185.2,55.6,185.2,54.1z M181.6,52.3h1.3
			c0.8,0,1.3,0.3,1.3,1c0,0.6-0.3,0.9-0.9,1l1,1.6h-0.7l-0.9-1.5h-0.4v1.5h-0.7V52.3z M182.3,53.8h0.6c0.4,0,0.7-0.1,0.7-0.5
			c0-0.4-0.4-0.5-0.7-0.5h-0.6V53.8z"/>
	</g>
</g>
</svg>
