<?xml version="1.0" encoding="UTF-8"?><svg id="a" xmlns="http://www.w3.org/2000/svg" viewBox="0 0 240 100"><defs><style>.c{fill:#000;stroke-width:0px;}</style></defs><g id="b"><path class="c" d="M59.97,64.35v-5.57l3.07,2.78c-.91,1.04-1.94,1.98-3.07,2.78h0ZM47.12,67.42l9-8.51v7.52c-1.97.76-4.12,1.19-6.35,1.19-.9,0-1.78-.07-2.65-.2h0ZM32.25,51.85l9.46,8.48,9.51-8.93,4.91-4.64v6.84l-13.31,12.58c-5.73-2.47-9.89-7.89-10.57-14.34h0ZM39.72,35.54v5.59s-3.13-2.81-3.13-2.81c.93-1.05,1.98-1.98,3.13-2.78h0ZM39.74,53.39l-7.31-6.55c.35-1.91,1-3.71,1.92-5.36l5.38,4.83v7.08h0ZM52.46,32.59l-3.98,3.76-4.9,4.64v-7.48c1.92-.73,4.01-1.12,6.18-1.12.92,0,1.81.07,2.69.2h0ZM67.1,53.1c-.34,1.88-.97,3.65-1.85,5.27l-5.29-4.79v-6.95l7.13,6.47h0ZM67.27,48.05l-9.25-8.39-9.45,8.94-4.97,4.67v-6.96s7.53-7.15,7.53-7.15l5.62-5.32c5.68,2.46,9.81,7.83,10.52,14.22h0ZM64.95,34.82c-4.06-4.05-9.45-6.29-15.18-6.29s-11.13,2.23-15.18,6.29c-4.06,4.06-6.29,9.45-6.29,15.18s2.23,11.13,6.29,15.18c4.06,4.06,9.45,6.29,15.18,6.29s11.13-2.23,15.18-6.29c4.06-4.06,6.29-9.45,6.29-15.18s-2.23-11.13-6.29-15.18h0Z"/><path class="c" d="M122.95,56.44c-3.18,0-5.78-2.59-5.78-5.78s2.59-5.78,5.78-5.78c2.22,0,4.15,1.26,5.12,3.1v5.35c-.97,1.84-2.9,3.1-5.12,3.1h0ZM132.91,42.46c0-1.33-1.08-2.42-2.42-2.42-.99,0-1.83.59-2.21,1.44-1.57-.91-3.39-1.44-5.33-1.44-5.85,0-10.61,4.76-10.61,10.61s4.76,10.61,10.61,10.61c1.94,0,3.76-.52,5.33-1.44.38.85,1.22,1.44,2.21,1.44,1.33,0,2.42-1.08,2.42-2.42v-16.39h0Z"/><path class="c" d="M203.28,61.27c-1.33,0-2.42-1.08-2.42-2.42v-16.39c0-1.33,1.08-2.42,2.42-2.42s2.42,1.08,2.42,2.42v16.39c0,1.33-1.08,2.42-2.42,2.42h0Z"/><path class="c" d="M163.71,56.44c-3.18,0-5.78-2.59-5.78-5.78s2.59-5.78,5.78-5.78c2.22,0,4.15,1.26,5.12,3.1v5.35c-.97,1.84-2.9,3.1-5.12,3.1h0ZM173.66,42.46c0-1.33-1.08-2.42-2.42-2.42-.99,0-1.83.59-2.21,1.44-1.57-.91-3.39-1.44-5.33-1.44-5.85,0-10.61,4.76-10.61,10.61s4.76,10.61,10.61,10.61c1.94,0,3.76-.52,5.33-1.44.37.85,1.22,1.44,2.21,1.44,1.33,0,2.42-1.08,2.42-2.42v-16.39h0Z"/><path class="c" d="M187.24,56.44c-2.22,0-4.15-1.26-5.12-3.1v-5.35c.97-1.84,2.9-3.1,5.12-3.1,3.18,0,5.78,2.59,5.78,5.78s-2.59,5.78-5.78,5.78h0ZM187.24,40.05c-1.85,0-3.6.48-5.12,1.32v-7.86c0-1.33-1.08-2.42-2.42-2.42s-2.42,1.08-2.42,2.42v25.35c0,1.33,1.08,2.42,2.42,2.42.99,0,1.83-.59,2.21-1.44,1.57.91,3.39,1.44,5.33,1.44,5.85,0,10.61-4.76,10.61-10.61s-4.76-10.61-10.61-10.61h0Z"/><path class="c" d="M206.64,33.87c0,1.86-1.51,3.37-3.37,3.37s-3.37-1.51-3.37-3.37,1.51-3.37,3.37-3.37,3.37,1.51,3.37,3.37h0Z"/><path class="c" d="M110.27,39.86c-1.18-.49-2.58,0-3.22,1.1-.12.21-.2.42-.26.64-.11.43-.23.85-.4,1.25l-4.14,9.75-4.29-10.08c-.38-.89-1.25-1.47-2.21-1.47h0c-.96,0-1.84.57-2.22,1.46l-4.38,10.14-4.13-9.72c-.17-.39-.32-.8-.41-1.22-.2-.93-.91-1.74-1.95-1.98-1.08-.25-2.22.24-2.78,1.19-.53.9-.46,1.95.05,2.73.26.41.5.84.68,1.28l6.25,14.85c.37.9,1.24,1.49,2.21,1.49h.02c.96,0,1.84-.57,2.22-1.46l4.42-10.21,4.33,10.2c.38.89,1.25,1.47,2.22,1.47h.01c.97,0,1.85-.6,2.22-1.49l6.25-14.85c.2-.47.45-.91.72-1.33.07-.11.12-.22.18-.34.56-1.32-.06-2.84-1.39-3.39h0Z"/><path class="c" d="M144.04,48.25c-.54-.04-3.24-.32-3.24-1.53,0-1.66,1.81-1.84,2.58-1.84,1.62,0,2.36.61,2.49.74.44.51,1.09.83,1.82.83,1.33,0,2.42-1.08,2.42-2.42,0-.56-.19-1.07-.51-1.48h0c-.2-.26-2.12-2.52-6.24-2.52-4.37,0-7.42,2.75-7.42,6.68,0,1.35.55,5.78,7.7,6.35.99.08,2.64.41,2.64,1.73,0,1.61-2.8,1.63-2.92,1.63-2.23,0-3.51-.86-3.72-1.01-.43-.38-.99-.61-1.6-.61-1.33,0-2.42,1.08-2.42,2.42,0,.76.36,1.45.91,1.89h0c.26.23,2.66,2.15,6.83,2.15.99,0,2.93-.15,4.7-1.19,1.97-1.16,3.06-3.03,3.06-5.27,0-3.64-2.78-6.22-7.09-6.56h0Z"/><path class="c" d="M211.71,32.09c0,1.1-.58,1.62-1.57,1.62s-1.55-.52-1.55-1.62.59-1.61,1.55-1.61,1.57.51,1.57,1.61ZM211.35,32.09c0-.93-.44-1.31-1.2-1.31s-1.2.38-1.2,1.31.42,1.31,1.2,1.31,1.2-.4,1.2-1.31ZM209.85,32.3v.46c0,.08-.07.16-.16.16s-.16-.07-.16-.16v-1.36c0-.07.06-.14.14-.14h.61c.33,0,.53.25.53.52,0,.32-.19.52-.42.52l.34.38s.03.07.03.1c0,.08-.06.15-.15.15-.05,0-.1-.02-.13-.06l-.41-.56h-.22,0ZM210.24,32.02c.17,0,.25-.08.25-.24,0-.14-.08-.24-.25-.24h-.39v.49h.39Z"/></g></svg>