<?xml version="1.0" encoding="utf-8"?>
<!-- Generator: Adobe Illustrator 27.1.1, SVG Export Plug-In . SVG Version: 6.00 Build 0)  -->
<svg version="1.1" id="Layer_1" xmlns="http://www.w3.org/2000/svg" xmlns:xlink="http://www.w3.org/1999/xlink" x="0px" y="0px"
	 viewBox="0 0 240 100" style="enable-background:new 0 0 240 100;" xml:space="preserve">
<g>
	<path d="M107.8,61.2l-7.6-21.1c-0.1-0.3-0.2-0.7-0.2-1c0-0.9,0.8-1.8,1.9-1.8c1,0,1.6,0.6,1.9,1.5l6.3,18.1l6.3-18.2
		c0.3-0.9,0.9-1.5,1.8-1.5h0.2c1,0,1.6,0.6,1.9,1.5l6.3,18.2l6.4-18.2c0.2-0.8,0.8-1.4,1.8-1.4c1.1,0,1.8,0.8,1.8,1.7
		c0,0.3-0.1,0.7-0.2,1l-7.6,21.1c-0.4,1.1-1.2,1.7-2,1.7h-0.1c-1,0-1.7-0.6-2-1.7l-6.2-17.9L112,61.2c-0.3,1.1-1.1,1.7-2,1.7h-0.1
		C109,62.9,108.2,62.3,107.8,61.2"/>
	<path d="M163,39.2c0-1,0.8-1.9,1.8-1.9c1.1,0,1.9,0.8,1.9,1.9v4.3c1.8-4.2,5.9-6.1,8.6-6.1c1.1,0,1.8,0.8,1.8,1.9
		c0,1-0.7,1.7-1.6,1.9c-4.8,0.6-8.8,4.2-8.8,11.4V61c0,1-0.8,1.9-1.8,1.9c-1.1,0-1.9-0.8-1.9-1.9V39.2"/>
	<path d="M189.1,63.1c-6.7,0-12.2-5.2-12.2-12.9v-0.1c0-7.1,5-12.9,11.7-12.9c7.2,0,11.4,6,11.4,12.5c0,1-0.8,1.7-1.7,1.7h-17.7
		c0.5,5.4,4.3,8.4,8.6,8.4c3,0,5.2-1.2,7-2.9c0.3-0.2,0.6-0.4,1-0.4c0.9,0,1.6,0.7,1.6,1.6c0,0.4-0.2,0.9-0.6,1.2
		C196,61.6,193.2,63.1,189.1,63.1 M196.3,48.8c-0.4-4.5-2.9-8.4-7.8-8.4c-4.3,0-7.5,3.6-7.9,8.4H196.3z"/>
	<path d="M136.6,55.4L136.6,55.4c0-5.3,4.3-8.1,10.6-8.1c3.2,0,5.4,0.4,7.7,1.1v-0.9c0-4.5-2.8-6.8-7.4-6.8c-2.5,0-4,0.3-5.8,1.1
		c-0.2,0.1-0.5,0.1-0.7,0.1c-0.9,0-1.6-0.7-1.6-1.6c0-0.8,0.3-1.2,1-1.5c2.4-1.1,4.3-1.4,7.5-1.4c3.5,0,6.2,0.9,8,2.7
		c1.7,1.7,2.6,4.1,2.6,7.3v13.7c0,1.1-0.8,1.8-1.8,1.8c-1.1,0-1.8-0.8-1.8-1.7v-2.4c-1.7,2.3-4.6,4.3-9,4.3
		C141.3,63.1,136.6,60.5,136.6,55.4 M155,53.5V51c-1.8-0.5-4.3-1.1-7.3-1.1c-4.7,0-7.3,2-7.3,5.2v0.1c0,3.1,2.9,5,6.3,5
		C151.2,60.2,155,57.4,155,53.5"/>
	<path d="M40.4,38.9c-0.8-1.8-2.8-2.6-4.7-1.8c-1.9,0.8-2.6,2.9-1.7,4.7l7.9,17.2c1.2,2.7,2.5,4.1,5,4.1c2.6,0,3.8-1.5,5-4.1
		c0,0,6.9-15,7-15.2c0.1-0.2,0.3-0.6,1-0.6c0.6,0,1.1,0.5,1.1,1.1V59c0,2.3,1.3,4.1,3.7,4.1c2.4,0,3.7-1.9,3.7-4.1V47
		c0-2.3,1.7-3.8,3.9-3.8c2.3,0,3.8,1.5,3.8,3.8v12c0,2.3,1.3,4.1,3.7,4.1c2.4,0,3.7-1.9,3.7-4.1V47c0-2.3,1.7-3.8,3.9-3.8
		c2.3,0,3.8,1.5,3.8,3.8v12c0,2.3,1.3,4.1,3.7,4.1c2.4,0,3.7-1.9,3.7-4.1V45.4c0-5-4-8.5-8.9-8.5c-4.9,0-7.9,3.4-7.9,3.4
		c-1.6-2.1-3.8-3.4-7.6-3.4c-4,0-7.5,3.4-7.5,3.4c-1.6-2.1-4.4-3.4-6.6-3.4c-3.5,0-6.3,1.5-8,5.5l-5,11.9L40.4,38.9"/>
	<path d="M200.2,40.4L200.2,40.4c0-1.7,1.4-3.1,3.1-3.1c1.7,0,3.1,1.4,3.1,3.1v0c0,1.7-1.4,3.1-3.1,3.1
		C201.6,43.5,200.2,42.1,200.2,40.4 M205.8,40.4L205.8,40.4c0-1.4-1.1-2.5-2.5-2.5c-1.4,0-2.5,1.2-2.5,2.5v0c0,1.4,1.1,2.5,2.5,2.5
		C204.7,42.9,205.8,41.8,205.8,40.4"/>
	<path d="M202.1,39.2c0-0.2,0.1-0.3,0.3-0.3h1c0.4,0,0.7,0.1,0.9,0.3c0.2,0.2,0.3,0.4,0.3,0.7v0c0,0.5-0.2,0.8-0.6,0.9l0.5,0.6
		c0.1,0.1,0.1,0.1,0.1,0.2c0,0.2-0.2,0.3-0.3,0.3c-0.1,0-0.2-0.1-0.3-0.2l-0.6-0.8h-0.5v0.6c0,0.2-0.1,0.3-0.3,0.3
		c-0.2,0-0.3-0.1-0.3-0.3V39.2z M203.5,40.3c0.3,0,0.5-0.2,0.5-0.4v0c0-0.3-0.2-0.4-0.5-0.4h-0.7v0.9H203.5z"/>
</g>
</svg>
