<?xml version="1.0" encoding="utf-8"?>
<!-- Generator: Adobe Illustrator 27.1.1, SVG Export Plug-In . SVG Version: 6.00 Build 0)  -->
<svg version="1.1" id="Layer_1" xmlns="http://www.w3.org/2000/svg" xmlns:xlink="http://www.w3.org/1999/xlink" x="0px" y="0px"
	 viewBox="0 0 240 100" style="enable-background:new 0 0 240 100;" xml:space="preserve">
<style type="text/css">
	.st0{fill-rule:evenodd;clip-rule:evenodd;}
</style>
<g>
	<path d="M211.7,34.8h-4.3v27.5h4.3V34.8z"/>
	<path class="st0" d="M196.6,44c-4,0-7.1,1.9-7.6,5.9h4.2c0.3-1.5,1.4-2.4,3.3-2.4c2.3,0,3.3,1.3,3.3,3.3v0.9h-4.3c-4,0-7,1.8-7,5.4
		c0,3.6,2.4,5.5,5.9,5.5c2.7,0,4.5-1.2,5.5-3h0.2v2.5h4.1V51C204.2,46.6,202,44,196.6,44z M195.8,59.4c-1.7,0-2.7-0.8-2.7-2.2
		c0-1.6,1.1-2.4,3.1-2.4h3.7l0,0.3C199.9,57.8,198.4,59.4,195.8,59.4z"/>
	<path class="st0" d="M181,62.3V53c0-2.7,1.7-4.5,4.4-4.5h1.7v-4.1h-1.7c-2,0-3.5,0.8-4.5,2.5h-0.1v-2.5h-4v17.8L181,62.3z"/>
	<path class="st0" d="M174,58.4v3.9H171c-4.1,0-6.4-1.9-6.4-6V48h-2.9v-3.5h2.9v-4.7h4.3v4.7h5V48h-5v7.8c0,1.6,1,2.6,2.6,2.6H174z"
		/>
	<path class="st0" d="M147.6,62.3V52c0-2.5,1.6-4.2,4.1-4.2c2.4,0,3.9,1.4,3.9,4.1v10.4h4.3V51.2c0-4.5-2.2-7.2-6.6-7.2
		c-2.7,0-4.8,1.2-5.7,2.9h-0.2v-2.5h-4v17.8L147.6,62.3z"/>
	<path class="st0" d="M131.8,59.2c-2.7,0-4.5-1.8-4.6-4.7h13.2l0-1.4c0-6-3.9-9.1-8.6-9.1c-5.1,0-8.8,3.6-8.8,9.4
		c0,5.7,3.5,9.4,8.8,9.4c4.5,0,7.4-2.4,8.3-5.9h-4.2C135.4,58.2,134.2,59.2,131.8,59.2z M131.7,47.6c2.8,0,4.5,1.6,4.6,3.8h-9.2
		C127.5,49.2,128.9,47.6,131.7,47.6z"/>
	<path class="st0" d="M110,62.8c6.4,0,10.1-3.6,10.9-8.9h-4.4c-0.6,2.4-2.4,4.6-6.6,4.6c-4.3,0-7.7-2.9-7.7-9.3
		c0-6.4,3.4-9.3,7.7-9.3s6,2.2,6.6,4.6h4.4c-0.7-5.3-4.3-8.7-10.9-8.7c-7.1,0-12.3,5-12.3,13.5C97.7,57.8,102.9,62.8,110,62.8
		L110,62.8z"/>
	<path class="st0" d="M90.7,44.5v2.4h-0.2c-1-1.7-3-2.9-5.8-2.9c-4.2,0-7.9,3.3-7.9,9.1c0,5.8,3.7,9.2,7.9,9.2c2.7,0,4.4-1.1,5.6-3
		h0.2v3.8c0,2-1.1,2.9-2.9,2.9h-8.7v3.8h8.7c4.8,0,7.4-2.7,7.4-7.1V44.5H90.7z M85.9,58.4c-2.9,0-4.7-1.8-4.7-5.3s1.8-5.3,4.7-5.3
		c2.8,0,4.6,1.8,4.6,5.3S88.7,58.4,85.9,58.4z"/>
	<path class="st0" d="M61.9,62.3V52c0-2.5,1.6-4.2,4.1-4.2c2.4,0,3.9,1.4,3.9,4.1v10.4h4.3V51.2c0-4.5-2.2-7.2-6.6-7.2
		c-2.7,0-4.8,1.2-5.7,2.9h-0.1v-2.5h-4v17.8L61.9,62.3z"/>
	<path d="M53.9,44.5h-4.3v17.8h4.3V44.5z"/>
	<path class="st0" d="M42.1,50v-0.2c2.6-0.7,4.4-2.5,4.4-6.5c0-4.1-3-7.1-8.7-7.1h-9.6v26h4.5V52h5.4c2.5,0,3.8,1.3,3.8,3.8v6.6h4.5
		v-6.6C46.4,52.1,44.8,50.6,42.1,50z M37.6,48h-4.9v-7.6h4.9c2.4,0,4.3,1,4.3,3.8S40,48,37.6,48z"/>
	<path class="st0" d="M51.8,41.6c0.6,0,1.1-0.2,1.6-0.5c0.5-0.3,0.8-0.8,1.1-1.3c0.2-0.5,0.3-1.1,0.2-1.7c-0.1-0.6-0.4-1.1-0.8-1.5
		c-0.4-0.4-0.9-0.7-1.5-0.8s-1.1-0.1-1.7,0.2c-0.5,0.2-1,0.6-1.3,1.1c-0.3,0.5-0.5,1-0.5,1.6c0,0.6,0.2,1.1,0.5,1.6
		c0.3,0.5,0.8,0.8,1.3,1.1C51,41.5,51.4,41.6,51.8,41.6z"/>
	<path class="st0" d="M48.5,30.8c-1,0.4-2,1.1-2.8,1.9l2,2c0.5-0.5,1.2-1,1.9-1.2c0.7-0.3,1.4-0.4,2.2-0.4c0.8,0,1.5,0.1,2.2,0.4
		s1.3,0.7,1.9,1.2l2-2c-1.2-1.2-2.7-2-4.4-2.3C51.8,30,50.1,30.2,48.5,30.8z"/>
</g>
</svg>
