<?xml version="1.0" encoding="utf-8"?>
<!-- Generator: Adobe Illustrator 27.1.1, SVG Export Plug-In . SVG Version: 6.00 Build 0)  -->
<svg version="1.1" id="Layer_1" xmlns="http://www.w3.org/2000/svg" xmlns:xlink="http://www.w3.org/1999/xlink" x="0px" y="0px"
	 viewBox="0 0 240 100" style="enable-background:new 0 0 240 100;" xml:space="preserve">
<style type="text/css">
	.st0{font-family:'Calibri';}
	.st1{font-size:22.9267px;}
</style>
<g>
	<g>
		<path d="M97.7,45.1L97.7,45.1c2.3,0,4,1.2,4,6h-8.6C93.5,46.5,95.5,45.1,97.7,45.1 M109.6,66.9L109.6,66.9l-1.9-5.6
			c-3.8,1.4-6.1,2-8.2,2c-4.4,0-6.1-2.8-6.3-6.8h16.7v-3.8c0-9.8-4.8-13.6-11.9-13.6c-7.5,0-13.4,4.8-13.4,15
			c0,8.8,3.5,15.6,14,15.6C102.5,69.7,106.2,68.7,109.6,66.9"/>
		<path d="M172,45.1L172,45.1c0.8,0,1.5,0.2,2.3,0.4l-7.9,12.6c-0.2-1-0.4-2.4-0.4-3.8C166,47.5,168.5,45.1,172,45.1 M169.3,63.3
			L169.3,63.3c-0.6-0.4-0.9-0.8-1.3-1.2L169.3,63.3z M177.5,54.3L177.5,54.3c0,7-2.1,9.6-5.8,9.6c-0.9,0-1.7-0.2-2.5-0.6l7.9-13
			C177.3,51.3,177.5,52.7,177.5,54.3 M186.2,53.9L186.2,53.9c0-8.6-4-14.8-14-14.8c-10,0-14.8,6-14.8,15.4c0,9,4,15.2,14,15.2
			C181.3,69.7,186.2,63.5,186.2,53.9"/>
		<path d="M158.5,67.5L158.5,67.5l-2.1-4.8c-0.4,0.2-0.9,0.2-1.3,0.4h-0.2c-0.8,0.2-1.5,0.2-2.5,0.2c-2.9,0-3.6-1.2-3.6-4.6v-0.4
			V44.9v-0.4h8.2v-5.6h-7.9c-0.4,0-0.4-0.2-0.4-0.6v-6.6v-0.4h-5.4c-0.2,1-0.4,2-0.6,2.8c-0.9,3-3.1,4.4-6.7,4.6v0.8v3.8v1.2h0.4
			h1.1h2.3c0.6,0,0.6,0.2,0.6,0.6v0.4v14.6v0.4c0,6.6,2.5,9.2,9,9.2C152.6,69.7,156,68.7,158.5,67.5"/>
		<path d="M82.4,67.1L82.4,67.1v-0.6v-9.4h-5.6l-0.9,5.6c0,0.6-0.2,0.6-0.8,0.6H63.8l18.8-27v-5H63.4h-8.2h-0.9H54v12.2h0.2h0.9h4.6
			l0.9-5.6c0-0.6,0.2-0.6,0.8-0.6h10.7L53.8,63.9v3.8v1.4h28.6L82.4,67.1L82.4,67.1z"/>
		<path d="M127.1,67.5L127.1,67.5v-3.2l-2.5-0.2c-0.4-0.2-0.6-0.2-0.8-0.4c-0.2-0.2-0.2-0.4-0.2-0.8v-15l0.8-0.8c1.1-1,4-2.6,9-2.6
			h0.4v-1.2v-3.6v-1c-0.9,0-2.3-0.2-3.1-0.2c-3.5,0-6,2.2-7.9,5.2h-0.2l-0.8-4.6h-9.6l-0.6,4.6l2.9,1.2c0.6,0.2,0.8,0.6,0.8,1.2
			v16.8c0,0.8-0.2,1-0.9,1.2l-2.5,0.2v4.8h15.1L127.1,67.5L127.1,67.5z"/>
	</g>
	<text transform="matrix(1 0 0 1 57.9144 48.9841)" class="st0 st1"> </text>
</g>
</svg>
