<?xml version="1.0" encoding="utf-8"?>
<!-- Generator: Adobe Illustrator 27.1.1, SVG Export Plug-In . SVG Version: 6.00 Build 0)  -->
<svg version="1.1" id="Layer_1" xmlns="http://www.w3.org/2000/svg" xmlns:xlink="http://www.w3.org/1999/xlink" x="0px" y="0px"
	 viewBox="0 0 240 100" style="enable-background:new 0 0 240 100;" xml:space="preserve">
<style type="text/css">
	.st0{clip-path:url(#SVGID_00000015346674645993839300000010464314108578422176_);}
	.st1{clip-path:url(#SVGID_00000083791009745746789920000007695234200843364254_);}
	.st2{clip-path:url(#SVGID_00000163789348303395127000000005698532852182090896_);}
</style>
<g id="Layer_2_00000015331046598151863010000000233622338832767907_">
	<g id="Assets">
		<g>
			<defs>
				<rect id="SVGID_1_" x="20" y="41" width="200.5" height="18.2"/>
			</defs>
			<clipPath id="SVGID_00000045594447371440552430000001147936707211973511_">
				<use xlink:href="#SVGID_1_"  style="overflow:visible;"/>
			</clipPath>
			<g style="clip-path:url(#SVGID_00000045594447371440552430000001147936707211973511_);">
				<path d="M25.1,58.7h3.8v-14h5v-3.3H20v3.3h5L25.1,58.7L25.1,58.7z"/>
			</g>
		</g>
		<path d="M40,51.4h7.5v7.3h3.8V41.4h-3.8V48H40v-6.6h-3.8v17.3H40V51.4z"/>
		<path d="M59.1,44.6h3.5c0.8,0,1.6,0.2,2.2,0.7c0.5,0.5,0.8,1.2,0.8,1.9c0,0.7-0.3,1.4-0.8,1.9c-0.6,0.5-1.4,0.8-2.2,0.7h-3.5V44.6
			z M59.1,52.7h2.7l3.9,6H70l-4.4-6.5c1.1-0.4,2-1.1,2.7-2c0.7-0.9,1-2.1,1-3.2c0-1.5-0.6-3-1.7-4c-1.2-1.1-2.8-1.6-4.5-1.6h-7.8
			v17.3h3.8L59.1,52.7L59.1,52.7z"/>
		<path d="M95.5,45.7l2.4,6.4h-4.8L95.5,45.7z M92,55H99l1.4,3.6h4.2l-7-17.3h-3.7l-7,17.3h4L92,55z"/>
		<path d="M107.7,58.7h3.8v-14h5v-3.3h-13.9v3.3h5L107.7,58.7L107.7,58.7z"/>
		<path d="M132.1,55.3h-8.5v-14h-3.8v17.3h12.3L132.1,55.3z"/>
		<g>
			<defs>
				<rect id="SVGID_00000152945606811819233310000000530911235376396455_" x="20" y="41.1" width="200.5" height="17.9"/>
			</defs>
			<clipPath id="SVGID_00000003064376883279875190000001877066610830235782_">
				<use xlink:href="#SVGID_00000152945606811819233310000000530911235376396455_"  style="overflow:visible;"/>
			</clipPath>
			<g style="clip-path:url(#SVGID_00000003064376883279875190000001877066610830235782_);">
				<path d="M148.6,43.7c-1.1-1.1-2.5-1.9-4-2.2l0.8,4.3c0.2,0.1,0.3,0.3,0.4,0.4c1,1,1.6,2.4,1.5,3.9c0,0.9-0.2,1.8-0.6,2.7
					c0,0,0,0,0,0c-0.2,0.4-0.5,0.8-0.9,1.2c-2.1,2.1-5.5,2.1-7.6,0c-0.3-0.4-0.6-0.8-0.9-1.2c0,0,0,0,0-0.1
					c-0.4-0.8-0.6-1.7-0.6-2.6c0-1.4,0.5-2.8,1.5-3.9c0.1-0.1,0.3-0.3,0.4-0.4l0.8-4.3c-1.5,0.4-2.8,1.2-3.9,2.3
					c-1.7,1.7-2.7,4-2.6,6.4c0,2.4,0.9,4.6,2.6,6.3c1.7,1.7,4,2.6,6.4,2.5c2.4,0.1,4.8-0.9,6.5-2.6c1.7-1.6,2.7-3.9,2.6-6.3
					C151.3,47.6,150.3,45.3,148.6,43.7"/>
			</g>
		</g>
		<g>
			<defs>
				<rect id="SVGID_00000041257466616641989350000004529773430924969374_" x="20" y="41.1" width="200.5" height="17.9"/>
			</defs>
			<clipPath id="SVGID_00000059998627503457262460000014973193172878759553_">
				<use xlink:href="#SVGID_00000041257466616641989350000004529773430924969374_"  style="overflow:visible;"/>
			</clipPath>
			<g style="clip-path:url(#SVGID_00000059998627503457262460000014973193172878759553_);">
				<path d="M165.1,58.6c0.7-0.2,1.3-0.4,2-0.7c0.5-0.3,0.9-0.6,1.3-0.9c0.3-0.2,0.5-0.5,0.8-0.7c0.1-0.1,0.2-0.3,0.3-0.3l-2.7-2.4
					l-0.1,0.2c-0.2,0.2-0.3,0.4-0.5,0.5c-0.3,0.2-0.5,0.4-0.8,0.6c-0.4,0.2-0.8,0.4-1.2,0.5c-0.5,0.1-1,0.2-1.5,0.2
					c-1.4,0-2.8-0.5-3.8-1.6c-1-1-1.6-2.4-1.5-3.9c0-1.4,0.5-2.8,1.5-3.9c1-1,2.4-1.6,3.8-1.6c0.5,0,1,0.1,1.4,0.2
					c0.4,0.1,0.8,0.2,1.1,0.4c0.3,0.2,0.5,0.3,0.8,0.5c0.2,0.1,0.3,0.3,0.4,0.4c0.1,0.1,0.1,0.1,0.1,0.2l2.8-2.4l-0.3-0.3
					c-0.2-0.3-0.5-0.5-0.8-0.7c-0.4-0.3-0.8-0.6-1.3-0.8c-0.6-0.3-1.2-0.5-1.9-0.7c-0.8-0.2-1.6-0.3-2.4-0.3
					c-2.4-0.1-4.8,0.9-6.5,2.6c-1.7,1.7-2.7,4-2.7,6.4c0,2.4,0.9,4.6,2.6,6.3c1.7,1.7,4,2.6,6.4,2.5
					C163.3,58.9,164.2,58.8,165.1,58.6"/>
			</g>
		</g>
		<path d="M175.8,50.3l7.3,8.4h4.6l-8.1-9.1l7.6-8.2h-4.6l-6.8,7.9v-7.9H172v17.3h3.8V50.3z"/>
		<path d="M202.5,55.4h-9.2v-4.1h7.7v-3.1h-7.7v-3.6h9v-3.3h-12.8v17.3h13C202.5,58.7,202.5,55.4,202.5,55.4z"/>
		<path d="M209.4,44.6h3.5c0.8,0,1.6,0.2,2.2,0.7c0.5,0.5,0.8,1.2,0.8,1.9c0,0.7-0.3,1.4-0.8,1.9c-0.6,0.5-1.4,0.8-2.2,0.7h-3.5
			V44.6z M209.4,52.7h2.7l3.9,6h4.4l-4.4-6.5c1.1-0.4,2-1.1,2.7-2c0.7-0.9,1-2.1,1-3.2c0-1.5-0.6-3-1.7-4c-1.2-1.1-2.9-1.6-4.5-1.6
			h-7.8v17.3h3.8L209.4,52.7z"/>
		<path d="M142.1,44.6c0.7,0,1.3,0.6,1.3,1.3c0,0.5-0.3,1-0.7,1.2l0.5,2.7H141l0.5-2.7c-0.4-0.2-0.7-0.6-0.7-1.1
			C140.8,45.2,141.4,44.6,142.1,44.6 M145.6,51.7l-2-10.5h-2.8l-2,10.5L145.6,51.7z"/>
		<path d="M76.4,55.4v-4.1h7.7v-3.1H72.6v10.4h13v-3.3H76.4z"/>
		<rect x="72.6" y="41.4" width="12.7" height="3.3"/>
	</g>
</g>
</svg>
