<?xml version="1.0" encoding="utf-8"?>
<!-- Generator: Adobe Illustrator 27.1.1, SVG Export Plug-In . SVG Version: 6.00 Build 0)  -->
<svg version="1.1" id="Layer_1" xmlns="http://www.w3.org/2000/svg" xmlns:xlink="http://www.w3.org/1999/xlink" x="0px" y="0px"
	 viewBox="0 0 240 100" style="enable-background:new 0 0 240 100;" xml:space="preserve">
<g>
	<path d="M24.8,44.1c0.7-0.2,1.3-0.5,2-0.6c1.3-0.3,2.6-0.1,3.9,0.2c1.6,0.4,3.1,0.8,4.7,1.2c0.7,0.2,1.4,0.2,2.1,0.3
		c0.1,0,0.2,0,0.3,0c-0.9-0.2-1.8-0.4-2.6-0.6c-1.9-0.4-3.7-1.1-5.2-2.2c-2-1.5-3.3-3.5-4.1-5.9c-0.1-0.3-0.2-0.5-0.3-0.9
		c1,0.2,1.9,0.3,2.8,0.4c1.2,0.2,2.2,0.8,3.1,1.5c0.9,0.7,1.8,1.3,2.6,1.9c0.1,0.1,0.2,0.2,0.3,0.3c-0.3-0.3-0.6-0.7-0.9-1
		c-1.4-1.4-2.3-3.1-2.5-5.1c-0.2-1.7,0.1-3.3,0.8-4.8c0.3-0.7,0.7-1.3,1-2c-0.2,1.4-0.2,2.7,0.2,4c0.5,1.5,1.5,2.7,2.7,3.8
		c1.2,1,2.4,1.9,3.6,2.8c1.2,0.9,2.3,1.9,3.2,3.1c1.1,1.6,1.5,3.5,1.3,5.4c-0.1,0.8-0.3,1.5-0.5,2.3c0,0.1,0,0.2,0,0.3
		c0.5-0.6,0.8-1.4,1-2.2c0.5-1.9,0.4-3.8-0.2-5.7c-0.3-1-0.8-2-1.1-3c1,0.5,1.9,1.3,2.7,2.2c0.8,0.9,1.4,1.9,1.8,3
		c0.4-1.4,0.3-2.7-0.1-4c0.5,0.2,1.6,1.3,2.2,2.3c0.6,0.9,1,1.9,1.6,2.9c0.1-0.9,0.3-1.8,0.4-2.7c1.5,2.3,2.9,4.6,3.5,7.3
		c-1.9,0.1-3.6-0.4-5.4-0.7c1.7,1.4,3.8,1.6,5.9,1.5c-0.3,2.9,0,5.7,1.6,8.3c-0.7-0.3-1.7-1.6-2.1-2.8c-0.4-1.1-0.5-2.3-0.5-3.5
		c-1.3,0.1-2.5,0-3.7-0.4c-1.2-0.4-2.2-1.1-2.8-2.2c0,0-0.1,0-0.1,0c-0.1,0.5-0.2,1-0.3,1.5c-0.3,2.6,0.6,4.8,2,6.9
		c0.1,0.2,0.3,0.4,0.5,0.6c0.1,0.1,0.1,0.3,0,0.4c-0.8,1.3-1.2,2.7-1.2,4.2c0,0.9,0.2,1.7,0.5,2.5c1.1,2.3,1,4.7,0.3,7.1
		c-0.1,0.4-0.3,0.8-0.4,1.2c0,0,0,0-0.1,0.1c-0.1-0.5-0.1-1.1-0.2-1.6c-0.4-2.1-1.6-3.7-3.2-5c-2.5-2.1-5.3-3.3-8.5-3.9
		c0,0-0.1,0-0.1,0c1.3-0.6,2.5-1.4,3.5-2.4c1-1,1.9-2.1,2.4-3.5c1,1.8,2.4,3,4.3,3.5c-2.7-2.4-4.2-5.5-4.3-9.2c0,0-0.1,0-0.1,0
		c-0.1,0.5-0.3,1-0.4,1.5c-0.2,0.9-0.2,1.9,0.1,2.8c0,0.1,0,0.3,0,0.4c-1,2-2.4,3.7-4.4,4.8c-0.6,0.4-1.3,0.6-2.1,0.7
		c-0.3,0-0.4-0.1-0.4-0.4c0-0.9,0.3-1.7,0.9-2.3c0.8-0.8,1.6-1.6,2.4-2.5c0.3-0.4,0.6-0.8,0.8-1.2c-1.9,2.6-4.3,4.3-7.5,4.8
		c-0.1-1,0.2-1.8,0.9-2.4c0.6-0.5,1.4-1,2.1-1.4c1-0.7,2.1-1.4,3.1-2c0.1-0.1,0.3-0.2,0.4-0.4c-2.7,1.9-5.5,3.6-9.1,3.5
		c0.1-0.3,0.2-0.5,0.3-0.7c0.7-1.3,1.7-2.2,3.1-2.7c1.3-0.5,2.6-1,4-1.5c0.5-0.2,1-0.5,1.5-0.7c-4.4,1.7-8.8,2.2-13.4,0.8
		c0-0.1,0-0.1,0-0.1c1.4-1.3,2.9-2.4,4.8-2.8c1-0.2,2-0.3,3.1-0.2c1.5,0.1,3.1,0.1,4.6-0.3c0.2,0,0.3-0.1,0.5-0.2
		c-0.4,0.1-0.7,0.1-1.1,0.2c-2.8,0.3-5.5,0.2-8.1-0.8c-1.8-0.7-3.2-1.8-4.2-3.5C25,44.3,24.9,44.2,24.8,44.1
		C24.8,44.1,24.8,44.1,24.8,44.1z"/>
	<path d="M123,60.8c-0.6,0-1.2,0-1.8,0c-0.6,0-1.2,0-1.9,0c-0.2,0-0.4-0.1-0.5-0.3c-2.6-4.2-5.2-8.5-7.8-12.7
		c-0.1-0.1-0.1-0.2-0.3-0.3c0,4.4,0,8.8,0,13.3c-1.5,0-2.9,0-4.3,0c0-7.1,0-14.3,0-21.5c0.1,0,0.2,0,0.3,0c1,0,2.1,0,3.1,0
		c0.4,0,0.6,0.1,0.8,0.4c2.6,4.2,5.1,8.4,7.7,12.5c0.1,0.1,0.1,0.2,0.3,0.3c0-4.4,0-8.8,0-13.3c1.5,0,2.9,0,4.3,0
		C123,46.5,123,53.6,123,60.8z"/>
	<path d="M160.3,60.8c-0.6,0-1.2,0-1.7,0c-0.7,0-1.5,0-2.2,0c-0.3,0-0.4-0.1-0.5-0.3c-1.4-2.5-2.8-5-4.1-7.5
		c-0.1-0.2-0.3-0.3-0.6-0.3c-0.9,0-1.7,0-2.6,0c-0.3,0-0.4,0.1-0.4,0.4c0,2.4,0,4.8,0,7.3c0,0.1,0,0.3,0,0.4c-1.4,0-2.9,0-4.3,0
		c0-7.1,0-14.3,0-21.5c0.1,0,0.2,0,0.3,0c3.1,0,6.2,0,9.3,0c0.9,0,1.8,0.2,2.6,0.5c1.6,0.6,2.7,1.7,3.2,3.4c0.6,1.9,0.6,3.8,0,5.7
		c-0.5,1.4-1.4,2.5-2.8,3.2c-0.1,0-0.2,0.1-0.3,0.2c0.1,0.1,0.1,0.2,0.2,0.3c1.2,2.1,2.3,4.2,3.5,6.3c0.2,0.4,0.4,0.8,0.3,1.2
		C160.3,60.3,160.3,60.5,160.3,60.8z M148.2,43.1c0,0.1,0,0.1,0,0.1c0,1.9,0,3.7,0,5.6c0,0.2,0.1,0.2,0.3,0.2c1.5,0,3,0,4.5-0.1
		c1.3-0.1,2.1-0.8,2.4-2.1c0.1-0.4,0.1-0.7,0.1-1.1c-0.1-1.7-1-2.7-2.6-2.7c-1.4-0.1-2.9,0-4.3,0C148.4,43.1,148.3,43.1,148.2,43.1z
		"/>
	<path d="M196,46c-1.4,0-2.9,0-4.3,0c0-0.3-0.1-0.6-0.1-0.9c-0.3-1.2-1.1-1.8-2.2-2.1c-1.1-0.3-2.2-0.3-3.3,0.1
		c-0.4,0.1-0.9,0.4-1.2,0.7c-0.9,0.8-0.7,2.3,0.4,2.8c0.8,0.5,1.8,0.8,2.7,1.1c1.7,0.7,3.4,1.3,5.1,2.1c1.4,0.6,2.4,1.7,3,3.1
		c0.7,1.8,0.2,4.8-1.8,6.5c-1.2,0.9-2.5,1.5-4,1.7c-1.9,0.3-3.7,0.3-5.5-0.3c-1.8-0.6-3.4-1.6-4.3-3.3c-0.6-1.1-0.8-2.3-0.8-3.6
		c0.1,0,0.2,0,0.3,0c1.2,0,2.4,0,3.7,0c0.2,0,0.3,0,0.4,0.3c0.1,2,1.3,2.7,3,3.1c1,0.2,2,0.2,3-0.1c0.4-0.1,0.8-0.3,1.1-0.6
		c0.9-0.7,1.1-2.3-0.2-3c-0.7-0.4-1.4-0.7-2.1-1c-1.7-0.7-3.5-1.4-5.2-2.1c-0.6-0.2-1.1-0.6-1.6-1c-1.2-0.9-1.8-2.1-1.8-3.6
		c-0.1-1.9,0.4-3.5,1.8-4.9c0.9-0.9,2.1-1.4,3.3-1.7c2.2-0.5,4.5-0.5,6.6,0.3c2.5,0.9,3.9,2.8,4.2,5.4c0,0.3,0,0.7,0.1,1
		C196.1,45.9,196.1,45.9,196,46z"/>
	<path d="M215,46.1c-1.5,0-2.9,0-4.3,0c0-0.3-0.1-0.6-0.1-0.9c-0.3-1.2-1.1-1.9-2.2-2.2c-1.1-0.3-2.2-0.3-3.3,0.1
		c-0.8,0.3-1.5,0.7-1.7,1.6c-0.2,0.8,0.1,1.6,0.8,2c0.9,0.5,1.9,0.8,2.9,1.2c1.6,0.7,3.3,1.2,4.8,2c1.4,0.7,2.5,1.7,3,3.2
		c0.7,2.1,0.1,5-2.1,6.6c-1.2,0.8-2.4,1.3-3.8,1.5c-1.8,0.3-3.5,0.3-5.3-0.2c-1.9-0.5-3.5-1.5-4.5-3.3c-0.6-1.1-0.8-2.2-0.9-3.4
		c0-0.2,0.1-0.3,0.3-0.3c1.3,0,2.5,0,3.8,0c0.1,0,0.2,0.1,0.2,0.2c0.1,1.7,1.1,2.6,2.6,3c1.2,0.3,2.3,0.3,3.4,0
		c0.5-0.2,1-0.4,1.4-0.9c0.7-0.9,0.6-2.1-0.4-2.7c-0.9-0.5-1.8-0.8-2.7-1.2c-1.5-0.6-3-1.1-4.4-1.8c-0.7-0.3-1.3-0.7-1.9-1.2
		c-1.4-1.1-1.9-2.7-1.8-4.4c0.2-2.6,1.5-4.4,3.9-5.3c2.8-1.1,5.7-1.1,8.5,0.1c2,0.9,3.1,2.6,3.5,4.7C214.9,44.9,214.9,45.5,215,46.1
		z"/>
	<path d="M77.3,60.8c0-2.9,0-5.9,0-8.8c-0.1,0-0.2,0-0.4,0c-2.4,0-4.8,0-7.2,0c-0.3,0-0.4,0.1-0.4,0.4c0,2.7,0,5.4,0,8
		c0,0.1,0,0.3,0,0.4c-0.1,0-0.2,0-0.4,0c-1.2,0-2.4,0-3.6,0c-0.3,0-0.4-0.1-0.4-0.4c0-1.7,0-3.4,0-5.2c0-5.2,0-10.3,0-15.5
		c0-0.5,0-0.5,0.5-0.5c1.1,0,2.3,0,3.4,0c0.1,0,0.2,0,0.4,0c0,3,0,5.9,0,8.8c2.7,0,5.3,0,7.9,0c0-2.9,0-5.9,0-8.8c1.5,0,2.9,0,4.3,0
		c0,7.1,0,14.3,0,21.5C80.2,60.8,78.8,60.8,77.3,60.8z"/>
	<path d="M98,39.3c1.5,0,2.9,0,4.3,0c0,0.1,0,0.3,0,0.4c0,4.7,0,9.5,0,14.2c0,3.7-2.3,6.5-6,7.1c-2.1,0.4-4.2,0.3-6.2-0.5
		c-2.7-1.1-4.2-3-4.4-5.9c0-0.4-0.1-0.8-0.1-1.2c0-4.6,0-9.1,0-13.7c0-0.1,0-0.3,0-0.5c1.4,0,2.9,0,4.3,0c0,0.1,0,0.3,0,0.4
		c0,4.7,0,9.3,0,14c0,2,1.3,3.3,3.2,3.5c0.7,0.1,1.4,0,2-0.1c1.8-0.4,2.7-1.6,2.7-3.5c0-4.6,0-9.3,0-13.9C98,39.6,98,39.5,98,39.3z"
		/>
	<path d="M141.7,39.3c0,0.9,0,1.8,0,2.6c0,0.3,0,0.5,0,0.8c0,0.3-0.1,0.3-0.3,0.3c-1,0-2.1,0-3.1,0c-0.7,0-1.5,0-2.2,0
		c-0.3,0-0.4,0.1-0.4,0.4c0,5.2,0,10.4,0,15.6c0,0.6,0,1.1,0,1.7c-0.1,0-0.3,0-0.4,0c-1.2,0-2.3,0-3.5,0c-0.4,0-0.4,0-0.4-0.4
		c0-5.5,0-11.1,0-16.6c0-0.7,0-0.7-0.7-0.7c-1.7,0-3.3,0-5,0c-0.3,0-0.4-0.1-0.4-0.4c0-1,0-2,0-3c0-0.2,0.1-0.3,0.3-0.3
		c5.3,0,10.6,0,15.9,0C141.5,39.3,141.5,39.3,141.7,39.3z"/>
	<path d="M176.2,48.2c0,1.1,0,2.2,0,3.3c0,0.1,0,0.1,0,0.3c-2.7,0-5.5,0-8.2,0c0,1.7,0,3.5,0,5.2c0.2,0,0.3,0,0.5,0
		c2.9,0,5.8,0,8.8,0c0.4,0,0.4,0,0.4,0.5c0,1.1,0,2.2,0,3.3c-4.7,0-9.3,0-14,0c0-0.6-0.1-1.2,0.2-1.7c1.7-3.4,3.2-6.9,4.3-10.5
		c0-0.2,0.1-0.3,0.3-0.3c2.5,0,5.1,0,7.6,0C176.1,48.2,176.1,48.2,176.2,48.2z"/>
	<path d="M58.2,56.9c-0.3-0.9-0.6-1.8-0.8-2.8c-0.3-1.1-0.4-2.3-0.4-3.4c-0.1-3.7-1.5-6.8-4-9.5c-0.2-0.2-0.3-0.4-0.4-0.6
		c-0.4-0.7-0.9-1.4-1.3-2.2c0-0.1-0.1-0.1-0.2-0.2c0,0.4,0,0.8,0.1,1.2c-0.6-0.4-1.2-0.7-1.7-1c-0.2-0.1-0.3-0.2-0.5-0.3
		c-0.8-0.2-1.3-0.9-1.9-1.4c-0.2-0.2-0.5-0.4-0.8-0.5c0.1,0.3,0.2,0.7,0.3,1c-0.6-0.1-1.3-0.3-1.9-0.3c-0.8,0-1.4-0.5-2.1-0.8
		c-0.3-0.2-0.7-0.3-1.1-0.6c0.2,0.5,0.4,0.8,0.6,1.2c-0.5,0.2-1,0.1-1.5-0.2c-0.7-0.5-1.4-0.9-2.1-1.3c-0.1,0-0.1-0.1-0.2-0.2
		c4.4-1.4,11-0.8,15.9,3.9c5.3,5,6.3,12.2,4.3,17.8C58.3,56.9,58.3,56.9,58.2,56.9z"/>
	<path d="M48.8,51.1c1.4,1,3.1,1.1,4.8,1.3c-0.1,0.5-0.2,0.9-0.3,1.4c0,0,0.1,0,0.1,0.1c0.2-0.1,0.3-0.2,0.5-0.3
		c-0.1,0.1-0.1,0.2-0.2,0.3c0,0,0,0,0,0c0.1-0.1,0.3-0.2,0.4-0.2c0,0,0,0,0,0c-0.1,0.1-0.3,0.3-0.5,0.4c0.1,0,0.3,0,0.4,0
		c0,0,0,0,0,0c-0.1,0-0.3,0.1-0.4,0.1c-0.3,0-0.3,0.1-0.3,0.4c0.3,1.5,1,2.7,2.2,3.6c0.2,0.1,0.2,0.3,0.1,0.5
		c-0.2,0.6-0.6,1-1.2,1.1c-0.3,0.1-0.4,0.3-0.2,0.5c0.2,0.3,0.4,0.5,0.6,0.7c0.3,0.3,0.3,0.6,0,0.8c-0.4,0.2-0.8,0.4-1.2,0.6
		c0.1,0.1,0.4,0.3,0.5,0.6c0.3,0.4,0.1,0.6-0.3,0.7c-0.5,0.1-0.9,0.6-0.9,1.2c0,0.5,0,1.1,0,1.6c0,0.7-0.8,1.6-1.5,1.6
		c-0.1-0.7-0.2-1.4-0.4-2.1c-0.1-0.5-0.3-1-0.5-1.5c-0.9-2.2-0.7-4.3,0.6-6.2c0.4-0.6,0.4-0.6,0-1.1c-1.1-1.4-2-2.8-2.3-4.6
		C48.8,52.2,48.8,51.7,48.8,51.1C48.8,51.1,48.8,51.1,48.8,51.1z"/>
	<path d="M26.1,53.3c0.6,0.1,1.1,0.2,1.7,0.3c0,0,0.1,0,0.1,0c0.7,0.1,0.7,0.1,0.9,0.8c1.5,5.7,5.2,9.3,10.9,10.7
		c0.8,0.2,1.7,0.2,2.6,0.3c0.1,0,0.2,0,0.3,0.1c1,0.5,2,1,2.8,1.8c0.1,0.1,0.1,0.1,0.3,0.3c-4.2,0.7-8.1,0-11.6-2.2
		C29.5,62.7,27,58.6,26.1,53.3z"/>
	<path d="M163.7,39.3c1.5,0,2.9,0,4.4,0c-0.3,5.8-2.1,11.2-4.4,16.5C163.7,50.3,163.7,44.8,163.7,39.3z"/>
	<path d="M169.4,43c0.1-1.2,0.2-2.5,0.4-3.7c2.6,0,5.2,0,7.9,0c0,0.4,0,0.7,0,1.1c0,0.8,0,1.6,0,2.4c0,0.2,0,0.3-0.3,0.3
		c-2.6,0-5.2,0-7.8,0C169.5,43.1,169.5,43,169.4,43z"/>
	<path d="M26.1,50.1c0.1-0.9,0.2-1.8,0.4-2.7c0.9,0.4,1.7,0.8,2.5,1.2C28,49.1,27.1,49.6,26.1,50.1z"/>
	<path d="M29.6,42.8c-0.5,0-1-0.1-1.6-0.1c0.2-0.3,0.3-0.6,0.5-0.9C28.9,42.2,29.2,42.5,29.6,42.8C29.6,42.8,29.6,42.8,29.6,42.8z"
		/>
</g>
</svg>
