<?xml version="1.0" encoding="UTF-8"?><svg id="a" xmlns="http://www.w3.org/2000/svg" viewBox="0 0 240 100"><defs><style>.c{fill:#1e1e1e;}.c,.d,.e{stroke-width:0px;}.d{fill:#000;}.e{fill:#fff;}</style></defs><g id="b"><path class="d" d="M49,37.09c-.91.91-1.45,2.17-1.45,3.44v31.21h132.72c1.31,0,2.54-.5,3.44-1.45l7.29-7.29c.91-.91,1.45-2.17,1.45-3.44v-31.3H59.87c-1.31,0-2.54.5-3.44,1.45l-7.43,7.38Z"/><path class="c" d="M156.26,28.26l-34.29,34.24c-5.93,5.93-13.95,9.24-22.33,9.24h-52.04v-27.58h0l17.57,17.53c2.54,2.54,6.66,2.54,9.24,0l33.47-33.43h48.38Z"/><path class="e" d="M67.89,60.46l-10.01-20.88h4.53s7.16,14.99,7.34,15.72h.09c.18-.77,7.34-15.72,7.34-15.72h4.48l-10.01,20.93-3.76-.05h0Z"/><path class="e" d="M101.04,51.63h-16.22c.59,3.4,3.08,5.53,6.3,5.53,2.63,0,4.39-1.04,5.25-2.94h4.21c-1.27,3.99-4.85,6.7-9.47,6.7-6.07,0-10.55-4.44-10.55-10.92s4.39-10.92,10.55-10.92c5.48,0,10.01,4.71,10.01,10.92,0,.63,0,1-.09,1.63ZM84.87,48.23h12c-.27-2.85-2.58-5.34-5.75-5.34-3.22-.05-5.62,2.08-6.25,5.34Z"/><path class="e" d="M123.28,51.63h-16.22c.59,3.4,3.08,5.53,6.3,5.53,2.63,0,4.39-1.04,5.25-2.94h4.21c-1.27,3.99-4.85,6.7-9.47,6.7-6.07,0-10.55-4.44-10.55-10.92s4.39-10.92,10.55-10.92c5.48,0,10.01,4.71,10.01,10.92,0,.63,0,1-.09,1.63ZM107.11,48.23h12c-.27-2.85-2.58-5.34-5.75-5.34-3.22-.05-5.62,2.08-6.25,5.34Z"/><path class="e" d="M146.02,50v10.46h-3.62l-.36-3.26c-1.59,2.4-4.44,3.71-6.98,3.71-5.71,0-10.06-4.57-10.06-10.92s4.67-10.92,10.6-10.92c5.48.05,10.42,3.94,10.42,10.92ZM141.9,50c0-4.62-3.03-7.16-6.3-7.16-3.58,0-6.48,2.85-6.48,7.16s2.67,7.16,6.48,7.16c3.22,0,6.3-2.67,6.3-7.16Z"/><path class="e" d="M148.79,60.46v-12.37c0-5.21,3.35-8.97,8.56-8.97,4.21,0,6.43,2.81,6.75,3.8h.09c.32-1,2.54-3.8,6.75-3.8,5.21,0,8.56,3.76,8.56,8.97v12.37h-4.08v-12.05c0-3.4-1.54-5.44-4.62-5.44s-4.62,2.04-4.62,5.53v12h-4.12v-12c0-3.49-1.54-5.53-4.62-5.53s-4.62,2.04-4.62,5.44v12.05h-4.03Z"/></g></svg>