<?xml version="1.0" encoding="utf-8"?>
<!-- Generator: Adobe Illustrator 27.1.1, SVG Export Plug-In . SVG Version: 6.00 Build 0)  -->
<svg version="1.1" id="logo-full" xmlns="http://www.w3.org/2000/svg" xmlns:xlink="http://www.w3.org/1999/xlink" x="0px" y="0px"
	 viewBox="0 0 240 100" style="enable-background:new 0 0 240 100;" xml:space="preserve">
<g>
	<path d="M33.1,39.8c0.1,0,0.3,0,0.4,0c6.9,0,13.8,0,20.6,0c0.1,0,0.3,0,0.5,0c0,1.5,0,2.9,0,4.4c-5.6,0-11.1,0-16.7,0
		c0,1.1,0,2.2,0,3.3c4.8,0,9.6,0,14.4,0c0,1.4,0,2.8,0,4.2c-4.8,0-9.6,0-14.4,0c0,2.6,0,5.1,0,7.6c-0.1,0-0.2,0-0.3,0
		c-1.5,0-2.9,0-4.4,0c-0.1,0-0.1,0-0.2,0C33.1,52.8,33.1,46.3,33.1,39.8z"/>
	<path d="M74.5,39.6c0,1.7,0,3.3,0,5c0,0.2-0.1,0.2-0.2,0.2c0,0-0.1,0-0.1,0c-2.3,0-4.6,0-7,0c-0.3,0-0.4-0.1-0.4-0.4
		c0-1.6,0-3.2,0-4.8C69.4,39.6,72,39.6,74.5,39.6z"/>
	<path d="M81.6,39.6c0.5,0.3,1,0.6,1.4,1c1,1,1.5,2.4,1.6,3.8c0,0.3-0.1,0.4-0.4,0.4c-2.4,0-4.8,0-7.2,0c-0.3,0-0.4-0.1-0.4-0.4
		c0-1.5,0-3,0-4.4c0-0.1,0-0.3,0-0.4C78.3,39.6,80,39.6,81.6,39.6z"/>
	<path d="M64.6,39.6c0,1.6,0,3.2,0,4.8c0,0.3-0.1,0.4-0.4,0.4c-2.4,0-4.8,0-7.2,0c-0.2,0-0.3,0-0.3-0.2c-0.1-1.6,1.2-4.1,2.7-4.8
		c0.2-0.1,0.3-0.1,0.5-0.2C61.5,39.6,63,39.6,64.6,39.6z"/>
	<path d="M204.3,60.4c-0.6-0.1-1.1-0.3-1.5-0.8c-0.6-0.7-0.8-1.9-0.3-2.7c0.5-0.9,1.5-1.4,2.5-1.2c0.9,0.1,1.7,0.9,1.9,1.9
		c0,0.1,0,0.1,0.1,0.2c0,0.2,0,0.3,0,0.5c0,0.1,0,0.2-0.1,0.3c-0.2,0.8-0.6,1.4-1.4,1.7c-0.2,0.1-0.5,0.1-0.8,0.2
		C204.6,60.4,204.4,60.4,204.3,60.4z M204.6,56c-1.1,0-2.1,0.9-2.1,2c0,1.2,0.9,2.2,2.1,2.1c1.1,0,2.1-0.9,2.1-2.1
		C206.6,56.9,205.7,56,204.6,56z"/>
	<path d="M108.4,50.7c0.9,0.4,1.3,1.2,1.3,2.1c0,2.1,0,4.2,0,6.3c0,0,0,0.1,0,0.2c-1.5,0-3,0-4.6,0c0-0.1,0-0.2,0-0.4c0-2,0-4,0-6.1
		c0-0.8-0.3-1.1-1.1-1.2c-0.3,0-0.7,0-1,0c-3.2,0-6.4,0-9.6,0c-0.1,0-0.3,0-0.4,0c0,2.6,0,5.1,0,7.6c-1.6,0-3.2,0-4.8,0
		c0-6.5,0-13,0-19.5c0.1,0,0.3,0,0.4,0c4.9,0,9.8,0,14.8,0c1,0,2.1,0.1,3.1,0.4c1.9,0.5,3.1,1.7,3.4,3.7c0.2,1.3,0.2,2.7,0.1,4
		c0,1-0.6,1.9-1.3,2.6C108.6,50.5,108.5,50.6,108.4,50.7C108.4,50.7,108.4,50.7,108.4,50.7z M93,47.4c0.1,0,0.2,0,0.3,0
		c3.3,0,6.5,0,9.8,0c0.4,0,0.9,0,1.3-0.1c0.5-0.1,0.8-0.4,0.9-0.9c0-0.4,0-0.9,0-1.3c0-0.5-0.3-0.8-0.8-0.9c-0.3,0-0.5-0.1-0.8-0.1
		c-3.4,0-6.9,0-10.3,0c-0.1,0-0.2,0-0.4,0C93,45.3,93,46.3,93,47.4z"/>
	<path d="M166.2,59.3c0-6.5,0-13,0-19.5c6.4,0,12.8,0,19.2,0c0,1.4,0,2.9,0,4.3c-4.8,0-9.6,0-14.4,0c0,1.1,0,2.2,0,3.3
		c3.3,0,6.7,0,10,0c0,1.4,0,2.8,0,4.2c-3.3,0-6.7,0-10,0c0,1.1,0,2.2,0,3.3c4.8,0,9.6,0,14.5,0c0,1.5,0,2.9,0,4.3
		C179,59.3,172.6,59.3,166.2,59.3z"/>
	<path d="M145.8,44.1c0,5.1,0,10.1,0,15.2c-1.6,0-3.2,0-4.8,0c0-6.5,0-13,0-19.5c0.1,0,0.2,0,0.4,0c5,0,10,0,15,0
		c1.2,0,2.3,0.2,3.3,0.8c1.7,0.8,2.5,2.3,2.9,4c0.2,0.8,0.2,1.6,0.2,2.4c0,4,0,8,0,12c0,0.1,0,0.2,0,0.3c-1.6,0-3.2,0-4.8,0
		c0-0.2,0-0.3,0-0.5c0-4.1,0-8.3,0-12.5c0-0.4-0.1-0.8-0.1-1.2c-0.1-0.6-0.6-0.8-1.1-1c-0.1,0-0.2,0-0.4,0c-3.4,0-6.8,0-10.3,0
		C146.1,44.1,146,44.1,145.8,44.1z"/>
	<path d="M116.9,44.1c-1.5,0-3,0-4.5,0c0-1.5,0-2.9,0-4.3c6,0,11.9,0,17.9,0c0,1.4,0,2.9,0,4.3c-2.9,0-5.7,0-8.6,0
		c0,5.1,0,10.1,0,15.2c-1.6,0-3.2,0-4.8,0C116.9,54.2,116.9,49.2,116.9,44.1z"/>
	<path d="M187.7,44.2c0-1.5,0-2.9,0-4.3c6,0,11.9,0,17.9,0c0,1.4,0,2.9,0,4.3c-2.9,0-5.7,0-8.6,0c0,5.1,0,10.1,0,15.1
		c-1.6,0-3.2,0-4.8,0c0-5,0-10.1,0-15.1C190.7,44.2,189.3,44.2,187.7,44.2z"/>
	<path d="M137.4,59.3c-1.6,0-3.1,0-4.7,0c0-6.5,0-13,0-19.5c1.6,0,3.1,0,4.7,0C137.4,46.3,137.4,52.8,137.4,59.3z"/>
	<path d="M80.7,52.1c-1.2,0-2.4,0-3.6,0c-0.3,0-0.4-0.1-0.4-0.4c0-1.5,0-3,0-4.5c0-0.2,0.1-0.3,0.3-0.3c2.4,0,4.9,0,7.3,0
		c0.2,0,0.3,0.1,0.3,0.3c0,1.5,0,3.1,0,4.6c0,0.2-0.1,0.3-0.3,0.3C83.1,52.1,81.9,52.1,80.7,52.1C80.7,52.1,80.7,52.1,80.7,52.1z"/>
	<path d="M64.6,46.9c0,1.7,0,3.4,0,5.2c-0.1,0-0.2,0-0.3,0c-2.4,0-4.8,0-7.2,0c-0.3,0-0.4-0.1-0.4-0.4c0-1.5,0-3,0-4.5
		c0-0.3,0.1-0.3,0.3-0.3c2.4,0,4.8,0,7.3,0C64.4,46.9,64.5,46.9,64.6,46.9z"/>
	<path d="M66.8,59.5c0-1.7,0-3.4,0-5.1c0.1,0,0.2,0,0.4,0c2.3,0,4.7,0,7,0c0.3,0,0.4,0.1,0.4,0.4c0,1.5,0,3,0,4.4
		c0,0.2,0,0.4-0.3,0.4c-2.4,0-4.8,0-7.3,0C67,59.5,66.9,59.5,66.8,59.5z"/>
	<path d="M76.7,59.5c0-1.7,0-3.4,0-5.1c0.1,0,0.2,0,0.3,0c2.4,0,4.8,0,7.2,0c0.3,0,0.4,0.1,0.4,0.4c-0.2,1.9-0.8,3.5-2.5,4.5
		c-0.3,0.2-0.6,0.3-1,0.3c-1.4,0-2.8,0-4.1,0C77,59.5,76.9,59.5,76.7,59.5z"/>
	<path d="M64.6,54.3c0,1.7,0,3.4,0,5.1c-0.1,0-0.2,0-0.4,0c-1.3,0-2.5,0-3.8,0c-0.9,0-1.5-0.3-2.1-0.9c-0.9-0.9-1.4-2.1-1.6-3.3
		c0-0.3-0.1-0.6-0.1-0.9C59.4,54.3,62,54.3,64.6,54.3z"/>
	<path d="M204,58.2c0,0.4,0,0.7,0,1.1c-0.1,0-0.2,0-0.3,0c0-0.9,0-1.7,0-2.6c0.5,0,0.9,0,1.3,0c0.3,0,0.5,0.1,0.6,0.4
		c0.1,0.3,0.1,0.6-0.1,0.8c0,0-0.1,0.1,0,0.1c0.1,0.4,0.2,0.9,0.3,1.3c-0.3,0.1-0.4,0-0.4-0.3c-0.1-0.7,0.1-0.8-0.9-0.8
		C204.3,58.2,204.1,58.2,204,58.2z M204,57.9c0.3,0,0.6,0,0.9,0c0.3,0,0.4-0.2,0.4-0.4c0-0.2-0.1-0.4-0.3-0.4c-0.3,0-0.7,0-1,0
		C204,57.3,204,57.6,204,57.9z"/>
</g>
</svg>
