<?xml version="1.0" encoding="utf-8"?>
<!-- Generator: Adobe Illustrator 27.1.1, SVG Export Plug-In . SVG Version: 6.00 Build 0)  -->
<svg version="1.1" id="Layer_1" xmlns="http://www.w3.org/2000/svg" xmlns:xlink="http://www.w3.org/1999/xlink" x="0px" y="0px"
	 viewBox="0 0 240 100" style="enable-background:new 0 0 240 100;" xml:space="preserve">
<style type="text/css">
	.st0{fill:#14B8A6;}
</style>
<g>
	<path class="st0" d="M197.4,29.7c0,3.2,0,6.2,0,9.4c-5.5,0-11,0-16.6,0c0,10.4,0,20.7,0,31.1c-3.3,0-6.3,0-9.6,0
		c0-10.3,0-20.6,0-30.9c-0.6,0-1-0.1-1.4-0.1c-13.7,0-27.5,0-41.2,0c-2.5,0-3.9,2.3-2.8,4.5c0.6,1.2,1.6,1.5,2.9,1.5
		c8.3,0,16.5,0,24.8,0c6.4,0,11.5,4.4,12.6,10.5c1.3,7.6-4.4,14.5-12.1,14.6c-13.5,0.1-27,0.1-40.5,0c-6.2,0-10.8-4.8-10.8-11
		c0-9.4,0-18.8,0-28.1c0-0.5,0-0.9,0-1.5c3.2,0,6.2,0,9.6,0c0,0.6,0,1.2,0,1.8c0,9,0,17.9,0,26.9c0,2.2,0.2,2.3,2.3,2.3
		c12.9,0,25.8,0,38.7,0c2.3,0,3.5-1.1,3.5-3c0-1.9-1.2-3-3.5-3c-8.3,0-16.5,0-24.8,0c-6.1,0-11.5-4.6-12.4-10.3
		c-1-6.6,2.6-12.4,8.8-14.2c1.2-0.4,2.5-0.6,3.8-0.6c22.6,0,45.2,0,67.8,0C196.8,29.6,197,29.7,197.4,29.7z"/>
	<path class="st0" d="M42.7,70.2c0-0.7,0-1.3,0-1.9c0-9-0.1-17.9-0.1-26.9c0-5.3,2.5-9.2,6.8-10.9c4.4-1.7,8.9-0.6,12.4,3.3
		C69.2,41.9,76.6,50,84,58.1c0.7,0.7,1.3,1.5,2.1,2.2c0.3,0.3,1,0.5,1.4,0.4c0.4-0.1,0.6-0.8,0.8-1.2c0.1-0.4,0-0.9,0-1.4
		c0-8.7,0-17.5,0-26.2c0-0.6,0-1.3,0-2c3.2,0,6.2,0,9.4,0c0,0.5,0.1,1.1,0.1,1.6c0,9.2,0,18.4,0,27.6c0,5-2.5,8.9-6.8,10.6
		c-4.3,1.7-8.8,0.6-12.2-3.1C70.9,57.8,63,49.1,55,40.5c-0.5-0.6-1.4-0.8-2.1-1.2c-0.3,0.8-0.8,1.6-0.8,2.3c0,8.8,0,17.7,0,26.5
		c0,0.6,0,1.3,0,2C49,70.2,45.9,70.2,42.7,70.2z"/>
</g>
</svg>
