<?xml version="1.0" encoding="utf-8"?>
<!-- Generator: Adobe Illustrator 27.1.1, SVG Export Plug-In . SVG Version: 6.00 Build 0)  -->
<svg version="1.1" id="Layer_1" xmlns="http://www.w3.org/2000/svg" xmlns:xlink="http://www.w3.org/1999/xlink" x="0px" y="0px"
	 viewBox="0 0 240 100" style="enable-background:new 0 0 240 100;" xml:space="preserve">
<g>
	<path d="M91.6,48c0.4-2.4,2.4-5.4,6.5-5.4c3.7,0,5.9,2.7,6.2,5.4H91.6z M86.4,49.9c0,6.7,4.8,11.1,11.7,11.1c4.5,0,7.6-2.2,9.3-4.2
		c0.2-0.2,0.2-0.5,0.1-0.7c0,0,0,0-0.1-0.1l-2.4-2.3c-0.2-0.2-0.6-0.2-0.8,0c-1.3,1.1-3.2,2.8-6.2,2.8c-3.5,0-5.9-2.1-6.5-4.8h17
		c0.4,0,0.7-0.2,0.8-0.6V51v-1c0-6.3-4.1-11.5-11.1-11.5C90.9,38.5,86.4,43.6,86.4,49.9L86.4,49.9z M112.5,60c0,0.2,0.1,0.6,0.5,0.6
		h0.1h3.6c0.2,0,0.6-0.1,0.6-0.5V60V29.7c0-0.2-0.1-0.5-0.5-0.5H113c-0.4,0-0.5,0.2-0.5,0.5L112.5,60z M78.8,60
		c0,0.2,0.1,0.6,0.5,0.6h0.1h3.6c0.2,0,0.6-0.1,0.6-0.5V60V47.9c0-5.1-3-9.5-9.6-9.5H74c-3.2,0-5.6,1-7,2.3v-1.1
		c0-0.4-0.2-0.6-0.5-0.6l0,0h-3.6c-0.2,0-0.6,0.1-0.6,0.5v0.1v20.5c0,0.2,0.1,0.6,0.5,0.6h0.2h3.6c0.2,0,0.6-0.1,0.6-0.5v-0.1V48.8
		c0-3.5,1.9-6.2,6.1-6.2c4.2,0,5.8,2.5,5.8,6.1L78.8,60z M147.7,66.4c1.6,2,5.1,4.3,10.1,4.3c6.9,0,11.1-4.2,11.1-11V39.7
		c0-0.2-0.1-0.6-0.5-0.6h-0.1h-3.5c-0.2,0-0.6,0.1-0.6,0.5v0.1v1.1c-1.5-1.3-3.5-2.3-6.8-2.3c-6.2,0-11.6,4.5-11.6,11.3
		S151.1,61,157.5,61c2.4,0,4.8-0.8,6.7-2.2v1.4c0,3.8-2.2,6.3-6.4,6.3c-3.4,0-5.7-1.9-7.1-3.3c-0.2-0.2-0.7-0.2-0.9,0l0,0l-2,2.3
		C147.5,65.7,147.5,66.1,147.7,66.4L147.7,66.4z M54.3,49.8c0,3.8-2.9,6.9-6.7,6.9c-3.8,0-6.5-3.3-6.5-6.9v-0.3
		c0-3.6,2.7-6.7,6.5-6.7C51.4,42.8,54.3,45.9,54.3,49.8L54.3,49.8z M35.9,49.8c0,6.2,5,11.3,11.6,11.3c6.8,0,11.6-5.1,11.6-11.3
		v-0.3c0-6.2-5-11.1-11.6-11.1S35.9,43.3,35.9,49.8L35.9,49.8z M138.5,49.8c0,3.8-2.9,6.9-6.7,6.9s-6.5-3.3-6.5-6.9v-0.3
		c0-3.6,2.7-6.7,6.5-6.7C135.7,42.8,138.5,45.9,138.5,49.8L138.5,49.8z M120.1,49.8c0,6.2,5,11.3,11.6,11.3
		c6.7,0,11.6-5.1,11.6-11.3v-0.3c0-6.2-5-11.1-11.6-11.1C125.1,38.5,120.1,43.3,120.1,49.8L120.1,49.8z M173.5,60
		c0,0.2,0.1,0.6,0.5,0.6h0.1h3.6c0.2,0,0.6-0.1,0.6-0.5V60V39.5c0-0.2-0.1-0.5-0.5-0.5h-3.8c-0.4,0-0.5,0.2-0.5,0.5L173.5,60z
		 M173.5,33.6c0,0.2,0.1,0.6,0.5,0.6h0.1h3.6c0.2,0,0.6-0.1,0.6-0.5v-0.1v-3.8c0-0.2-0.1-0.5-0.5-0.5h-3.8c-0.4,0-0.5,0.2-0.5,0.5
		L173.5,33.6z M199.3,60c0,0.2,0.1,0.6,0.5,0.6h0.1h3.6c0.2,0,0.6-0.1,0.6-0.5V60V47.9c0-5.1-3-9.5-9.6-9.5h-0.1c-3.2,0-5.6,1-7,2.3
		v-1.1c0-0.4-0.2-0.6-0.5-0.6l0,0h-3.6c-0.2,0-0.6,0.1-0.6,0.5v0.1v20.5c0,0.2,0.1,0.6,0.5,0.6h0.1h3.6c0.2,0,0.6-0.1,0.6-0.5v-0.1
		V48.8c0-3.5,1.9-6.2,6.1-6.2s5.8,2.5,5.8,6.2L199.3,60z M164.3,49.8c0,3.8-2.9,6.9-6.7,6.9c-3.8,0-6.5-3.3-6.5-6.9v-0.3
		c0-3.6,2.7-6.7,6.5-6.7C161.4,42.8,164.3,45.9,164.3,49.8z"/>
</g>
</svg>
