<?xml version="1.0" encoding="UTF-8"?><svg id="Layer_2" xmlns="http://www.w3.org/2000/svg" viewBox="0 0 72 72"><defs><style>.cls-1{stroke:#60a5fa;}.cls-1,.cls-2{fill:none;stroke-linecap:round;stroke-linejoin:round;stroke-width:2px;}.cls-2{stroke:#000;}</style></defs><g id="Layer_1-2"><g><g><g><path class="cls-2" d="M20.25,58.09h31.51c.56,0,1.01-.45,1.01-1.01V24.89s-10.98-10.98-10.98-10.98H20.25c-.56,0-1.01,.45-1.01,1.01V57.09c0,.56,.45,1.01,1.01,1.01Z"/><path class="cls-2" d="M42.79,24.89h9.97s-10.98-10.98-10.98-10.98v9.97c0,.56,.45,1.01,1.01,1.01Z"/></g><g><line class="cls-2" x1="25.29" y1="39.77" x2="47.29" y2="39.77"/><line class="cls-2" x1="25.29" y1="44.77" x2="47.29" y2="44.77"/><line class="cls-2" x1="25.29" y1="49.77" x2="38.29" y2="49.77"/><path class="cls-2" d="M34.73,27.21c.61-.75,.89-1.76,.63-2.85-.28-1.18-1.23-2.13-2.41-2.4-2.16-.5-4.07,1.13-4.07,3.2,0,.77,.27,1.48,.72,2.04,.35,.43,.21,1.07-.28,1.32-1.7,.86-2.94,2.49-3.26,4.5-.08,.53,.34,1.01,.88,1.01h10.46c.54,0,.96-.48,.88-1.01-.31-2.01-1.55-3.64-3.25-4.5-.49-.25-.64-.88-.29-1.31Z"/></g></g><circle class="cls-1" cx="36" cy="36" r="35"/></g></g></svg>