<?xml version="1.0" encoding="UTF-8"?><svg id="Layer_2" xmlns="http://www.w3.org/2000/svg" viewBox="0 0 72 72"><defs><style>.cls-1{stroke:#7a221b;}.cls-1,.cls-2{fill:none;stroke-linecap:round;stroke-linejoin:round;stroke-width:2px;}.cls-2{stroke:#000;}</style></defs><g id="Layer_1-2"><g><circle class="cls-1" cx="36" cy="36" r="35"/><g><g><path class="cls-2" d="M29.29,53.8h-12.07c-.52,0-.93-.42-.93-.93V27.74c0-.52,.42-.93,.93-.93h12.07"/><g><line class="cls-2" x1="20.29" y1="31.8" x2="26.29" y2="31.8"/><line class="cls-2" x1="20.29" y1="34.8" x2="26.29" y2="34.8"/></g><circle class="cls-2" cx="23.29" cy="48.8" r="2"/></g><g><path class="cls-2" d="M46.29,53.8h12.07c.52,0,.93-.42,.93-.93V27.74c0-.52-.42-.93-.93-.93h-12.07"/><g><line class="cls-2" x1="56.29" y1="31.8" x2="49.29" y2="31.8"/><line class="cls-2" x1="56.29" y1="34.8" x2="49.29" y2="34.8"/></g><circle class="cls-2" cx="52.29" cy="48.8" r="2"/></g><g><rect class="cls-2" x="29.29" y="23.8" width="17" height="33" rx=".94" ry=".94"/><g><line class="cls-2" x1="33.29" y1="30.8" x2="42.29" y2="30.8"/><line class="cls-2" x1="33.29" y1="33.8" x2="42.29" y2="33.8"/></g><circle class="cls-2" cx="37.29" cy="50.8" r="2"/></g></g><path class="cls-2" d="M43.53,23.7c-.89-2.47-3.03-3.94-5.74-3.94-.68,0-1.33,.11-1.95,.31-.89-4.81-5.11-8.46-10.18-8.46-4.54,0-8.39,2.93-9.79,6.99-.03,0-.05,0-.08,0-3.79,0-6.87,3.27-6.87,7.07s2.81,6.26,6.37,7.19h0"/></g></g></svg>