<?xml version="1.0" encoding="UTF-8"?><svg id="Layer_2" xmlns="http://www.w3.org/2000/svg" viewBox="0 0 72 72"><defs><style>.cls-1{stroke:#facc15;}.cls-1,.cls-2{fill:none;stroke-linecap:round;stroke-linejoin:round;stroke-width:2px;}.cls-2{stroke:#000;}</style></defs><g id="Layer_1-2"><g><circle class="cls-1" cx="36" cy="36" r="35"/><g><path class="cls-2" d="M46,44.64h5.21c4.68,0,8.47-3.97,8.47-8.65s-3.79-8.65-8.47-8.65c-.92,0-1.8,.15-2.63,.42-1.2-6.49-6.88-11.4-13.72-11.4-6.12,0-11.3,3.94-13.19,9.42-.03,0-.07,0-.1,0-5.11,0-9.25,4.24-9.25,9.35s3.67,8.54,8.46,9.52h4.47"/><g><path d="M38.55,34.64v1.61c1,.46,3,1.43,4.14,2.73l2.04-1.13,2.06,4.17-2.28,1.13c.11,.56,.17,1.14,.17,1.74s-.03,1.17-.14,1.74l2.31,1.13-2,4.17-2.17-1.13c-1.15,1.3-3.14,2.26-4.14,2.73v2.12h-5v-2.12c-2-.46-3.31-1.43-4.46-2.73l-2.36,1.13-2.06-4.17,2.28-1.13c-.11-.56-.17-1.14-.17-1.74s.07-1.17,.18-1.74l-2.27-1.13,2.08-4.17,2.32,1.13c1.15-1.3,2.46-2.26,4.46-2.73v-1.61h5m0-2h-5c-1.1,0-2,.9-2,2v.14c-1.05,.42-1.99,1-2.87,1.77l-1.04-.51c-.28-.14-.58-.2-.87-.2-.74,0-1.44,.41-1.79,1.11l-2.08,4.17c-.24,.48-.27,1.03-.1,1.53,.17,.5,.53,.92,1.01,1.15l1,.5c-.01,.19-.02,.38-.02,.57s0,.38,.01,.57l-1.01,.5c-.48,.23-.84,.65-1.01,1.15-.17,.5-.13,1.05,.1,1.53l2.06,4.17c.35,.71,1.06,1.12,1.8,1.12,.29,0,.58-.06,.86-.2l1.08-.52c.88,.78,1.82,1.36,2.87,1.78v.66c0,1.1,.9,2,2,2h5c1.1,0,2-.9,2-2v-.88c.8-.42,1.68-.93,2.46-1.55l.92,.48c.29,.15,.61,.23,.92,.23,.21,0,.43-.03,.63-.1,.51-.17,.94-.54,1.17-1.03l2-4.17c.47-.99,.06-2.18-.93-2.66l-1.06-.51c0-.18,0-.36,0-.55s0-.38-.02-.57l1.01-.5c.48-.23,.84-.65,1.01-1.15s.13-1.05-.1-1.53l-2.06-4.17c-.24-.49-.67-.86-1.2-1.02-.2-.06-.4-.09-.6-.09-.34,0-.67,.08-.97,.25l-.79,.43c-.78-.61-1.64-1.12-2.43-1.53v-.36c0-1.1-.9-2-2-2h0Z"/><circle class="cls-2" cx="35.69" cy="44.84" r="4.44"/></g></g></g></g></svg>