<?xml version="1.0" encoding="UTF-8"?><svg id="Layer_2" xmlns="http://www.w3.org/2000/svg" viewBox="0 0 72 72"><defs><style>.cls-1{stroke:#60a5fa;}.cls-1,.cls-2{fill:none;stroke-linecap:round;stroke-linejoin:round;stroke-width:2px;}.cls-2{stroke:#000;}</style></defs><g id="Layer_1-2"><g><circle class="cls-1" cx="36" cy="36" r="35"/><g><g><path class="cls-2" d="M41.58,57.53H24.22c-1.1,0-2-.9-2-2V13.65c0-1.1,.9-2,2-2h19.74c1.1,0,2,.9,2,2v23.9"/><line class="cls-2" x1="23.09" y1="18.56" x2="45.09" y2="18.56"/><line class="cls-2" x1="23.09" y1="48.56" x2="41.58" y2="48.56"/><line class="cls-2" x1="31.59" y1="14.56" x2="36.59" y2="14.56"/><circle cx="34.09" cy="52.78" r="1.08"/></g><g><g><rect class="cls-2" x="41.58" y="46.61" width="14.2" height="12.87" rx="1" ry="1"/><path class="cls-2" d="M48.14,37.21h1.09c2.29,0,4.15,1.86,4.15,4.15v5.25h-9.4v-5.25c0-2.29,1.86-4.15,4.15-4.15Z"/></g><circle cx="48.68" cy="51.88" r="1.69"/><rect x="47.87" y="51.48" width="1.62" height="4.59"/></g></g></g></g></svg>