<?xml version="1.0" encoding="UTF-8"?><svg id="Layer_2" xmlns="http://www.w3.org/2000/svg" viewBox="0 0 72 72"><defs><style>.cls-1{stroke:#9ca3af;}.cls-1,.cls-2{fill:none;stroke-linecap:round;stroke-linejoin:round;stroke-width:2px;}.cls-2{stroke:#000;}</style></defs><g id="Layer_1-2"><g><circle class="cls-1" cx="36" cy="36" r="35"/><g><ellipse class="cls-2" cx="35.69" cy="29.96" rx="9.82" ry="9.5"/><path class="cls-2" d="M42.3,40.72c-1.74,1.54-4.06,2.47-6.6,2.47s-4.82-.92-6.56-2.44"/><path class="cls-2" d="M36,39.47c13.3,0,15.58,11.43,15.97,15.06,.06,.56-.47,.62-1.14,.62h-14.83s-14.83,0-14.83,0c-.68,0-1.2-.06-1.14-.62,.39-3.63,2.68-15.06,15.97-15.06Z"/><rect class="cls-2" x="22.14" y="25.89" width="3.74" height="8.44"/><rect class="cls-2" x="45.51" y="25.89" width="3.74" height="8.44"/><path class="cls-2" d="M25.11,25.89c0-4.99,4.74-9.04,10.58-9.04s10.58,4.05,10.58,9.04"/><polyline class="cls-2" points="47.38 34.34 47.38 36.87 37.21 36.87"/></g></g></g></svg>