<?xml version="1.0" encoding="UTF-8"?><svg id="Layer_2" xmlns="http://www.w3.org/2000/svg" viewBox="0 0 72 72"><defs><style>.cls-1{stroke:#60a5fa;}.cls-1,.cls-2{fill:none;stroke-linecap:round;stroke-linejoin:round;stroke-width:2px;}.cls-2{stroke:#000;}</style></defs><g id="Layer_1-2"><g><g><g><path class="cls-2" d="M48.26,17.82c-3.5-2.36-7.72-3.75-12.26-3.75-12.11,0-21.93,9.82-21.93,21.93,0,12.11,9.82,21.93,21.93,21.93,12.11,0,21.93-9.82,21.93-21.93,0-.7-.03-1.39-.1-2.07"/><path class="cls-2" d="M45.66,23.12c-2.17-5.48-5.69-9.05-9.66-9.05-4.68,0-8.73,4.94-10.69,12.13"/><path class="cls-2" d="M47.68,40.58c.17-1.48,.26-3.01,.26-4.58,0-.7-.02-1.39-.05-2.07"/><path class="cls-2" d="M24.26,31.95c-.13,1.31-.2,2.67-.2,4.05,0,12.11,5.35,21.93,11.94,21.93,4.54,0,8.49-4.66,10.51-11.51"/><line class="cls-2" x1="22.28" y1="29.14" x2="16.05" y2="29.14"/><line class="cls-2" x1="45.66" y1="29.14" x2="28.25" y2="29.14"/><line class="cls-2" x1="33.02" y1="43.99" x2="16.05" y2="43.99"/><line class="cls-2" x1="43.66" y1="43.99" x2="38.99" y2="43.99"/><line class="cls-2" x1="55.67" y1="43.99" x2="50.24" y2="43.99"/><line class="cls-2" x1="35.86" y1="46.98" x2="35.86" y2="57.86"/><line class="cls-2" x1="35.86" y1="14.28" x2="35.86" y2="41.01"/></g><circle class="cls-2" cx="36" cy="43.99" r="2.99"/><circle class="cls-2" cx="25.27" cy="29.14" r="2.99"/><circle class="cls-2" cx="47.28" cy="43.53" r="2.99"/></g><circle class="cls-1" cx="36" cy="36" r="35"/><g><g><rect class="cls-2" x="45.85" y="21.06" width="14.2" height="12.87" rx="1" ry="1"/><path class="cls-2" d="M52.41,11.65h1.09c2.29,0,4.15,1.86,4.15,4.15v5.25h-9.4v-5.25c0-2.29,1.86-4.15,4.15-4.15Z"/></g><circle cx="52.95" cy="26.32" r="1.69"/><rect x="52.14" y="25.92" width="1.62" height="4.59"/></g></g></g></svg>