<?xml version="1.0" encoding="UTF-8"?><svg id="Layer_2" xmlns="http://www.w3.org/2000/svg" viewBox="0 0 72 72"><defs><style>.cls-1{stroke:#7a221b;}.cls-1,.cls-2{fill:none;stroke-linecap:round;stroke-linejoin:round;stroke-width:2px;}.cls-2{stroke:#000;}</style></defs><g id="Layer_1-2"><g><circle class="cls-1" cx="36" cy="36" r="35"/><g><path class="cls-2" d="M54.71,35.6c0-1.24-.13-2.46-.36-3.63l4.77-2.35-4.3-8.72-4.75,2.36c-2.4-2.72-6.14-4.74-9.14-5.71v-3.55h-9v3.55c-3,.97-7.18,2.98-9.58,5.71l-4.99-2.36-4.4,8.72,4.72,2.35c-.23,1.18-.38,2.39-.38,3.63s.12,2.46,.35,3.63l-4.78,2.35,4.3,8.72,5.19-2.36c2.4,2.72,6.57,4.74,9.57,5.71v4.34h9v-4.34c3-.97,6.74-2.98,9.14-5.71l4.77,2.36,4.29-8.72-4.78-2.35c.23-1.18,.35-2.39,.35-3.63Z"/><g><circle class="cls-2" cx="36.15" cy="35.35" r="11.91"/><ellipse class="cls-2" cx="36.15" cy="35.35" rx="6.48" ry="11.91"/><line class="cls-2" x1="46.93" y1="32" x2="24.93" y2="32"/><line class="cls-2" x1="46.93" y1="39" x2="24.93" y2="39"/><line class="cls-2" x1="35.93" y1="24" x2="35.93" y2="47"/></g></g></g></g></svg>