<?xml version="1.0" encoding="UTF-8"?><svg id="Layer_2" xmlns="http://www.w3.org/2000/svg" viewBox="0 0 72 72"><defs><style>.cls-1{stroke:#60a5fa;}.cls-1,.cls-2{fill:none;stroke-linecap:round;stroke-linejoin:round;stroke-width:2px;}.cls-2{stroke:#000;}</style></defs><g id="Layer_1-2"><g><g><g><g><path class="cls-2" d="M47.97,47.41H14.98c-1.1,0-2-.9-2-2V21.06c0-1.1,.9-2,2-2H57.02c1.1,0,2,.9,2,2v8.1"/><rect class="cls-2" x="31.99" y="47.41" width="8.03" height="6.44"/><line class="cls-2" x1="26.02" y1="53.85" x2="46.02" y2="53.85"/></g><line class="cls-2" x1="13.02" y1="41.85" x2="47.97" y2="41.85"/></g><g><polyline class="cls-2" points="26.34 35.17 30.51 30.88 35.42 34.91 43.51 26.85"/><polyline class="cls-2" points="44.43 29.5 44.15 25.9 40.69 26.2"/></g></g><circle class="cls-1" cx="36" cy="36" r="35"/><g><g><rect class="cls-2" x="48.36" y="37.9" width="14.2" height="12.87" rx="1" ry="1"/><path class="cls-2" d="M54.91,28.5h1.09c2.29,0,4.15,1.86,4.15,4.15v5.25h-9.4v-5.25c0-2.29,1.86-4.15,4.15-4.15Z"/></g><circle cx="55.46" cy="43.17" r="1.69"/><rect x="54.65" y="42.77" width="1.62" height="4.59"/></g></g></g></svg>