<?xml version="1.0" encoding="UTF-8"?><svg id="Layer_2" xmlns="http://www.w3.org/2000/svg" viewBox="0 0 72 72"><defs><style>.cls-1{fill:none;stroke:#000;stroke-linecap:round;stroke-linejoin:round;stroke-width:2px;}</style></defs><g id="Layer_1-2"><circle class="cls-1" cx="36" cy="36" r="35"/><path class="cls-1" d="m48.7,34.75c0-6.8-5.44-12.33-12.2-12.48s-12.47,5.23-12.75,11.95c-.09,2.27.42,4.41,1.39,6.28.56,1.09,1.1,2.19,1.49,3.35l2.54,7.45h14.49l1.97-6.49c.45-1.5,1-2.97,1.71-4.36.87-1.71,1.36-3.64,1.36-5.69Z"/><rect class="cls-1" x="28.43" y="51.3" width="16.41" height="3.65" rx="1" ry="1"/><path class="cls-1" d="m29.92,54.94h13.42v2.93c0,.55-.45,1-1,1h-11.42c-.55,0-1-.45-1-1v-2.93h0Z"/><line class="cls-1" x1="35.83" y1="13.13" x2="35.83" y2="18.13"/><line class="cls-1" x1="45.77" y1="15.35" x2="43.15" y2="19.61"/><line class="cls-1" x1="53.39" y1="20.89" x2="49.53" y2="24.07"/><line class="cls-1" x1="25.77" y1="15.35" x2="28.39" y2="19.61"/><line class="cls-1" x1="18.15" y1="20.89" x2="22.01" y2="24.07"/><line class="cls-1" x1="14.58" y1="30.52" x2="19.58" y2="30.44"/><line class="cls-1" x1="57.42" y1="30.52" x2="52.42" y2="30.44"/><line class="cls-1" x1="34.58" y1="51.3" x2="32.83" y2="42"/><line class="cls-1" x1="38.58" y1="51.3" x2="40.33" y2="42"/><line class="cls-1" x1="33.83" y1="43.13" x2="39.83" y2="43.13"/></g></svg>