<svg width="172" height="60" viewBox="0 0 172 60" fill="none" xmlns="http://www.w3.org/2000/svg">
<path d="M46.0518 1.20728H30.0159V6.96668L33.4862 7.29249L23.3968 37.0733C23.0709 38.3176 22.743 38.841 21.238 39.0365L19.6006 39.2341V44.7308H35.048V39.0365L31.7101 38.841L35.048 26.7316L40.4879 9.58364H40.7507L46.117 26.7316L48.8664 37.0733C49.3246 38.3176 49.064 38.841 47.8154 39.0365L45.7134 39.2341V44.7308H62.5292V39.0365L59.2564 38.7759L46.0518 1.20728Z" fill="#5A5D68"/>
<path d="M91.5196 1.20728H75.4857V6.96668L78.954 7.29249L68.8645 37.0733C68.5387 38.3176 68.2108 38.841 66.7058 39.0365L65.0684 39.2341V44.7308H80.5158V39.0365L77.1883 38.841L79.2167 32.9555H92.8964L94.3362 37.0775C94.7945 38.3218 94.5338 38.8452 93.2853 39.0407L91.1833 39.2383V44.7308H107.999V39.0365L104.726 38.7759L91.5196 1.20728ZM80.5242 26.7316L85.9557 9.58364H86.2268L91.5932 26.7316H80.5242Z" fill="#5A5D68"/>
<path d="M128.266 21.8236V27.5178L132.456 27.7154V37.0082C130.873 37.7292 128.321 38.2568 126.164 38.2568C118.637 38.2568 115.497 32.5626 115.497 22.6791C115.497 13.7772 119.228 7.88748 127.802 7.88748C129.424 7.88475 131.043 8.03821 132.636 8.34571C133.618 8.67151 133.748 9.1865 133.748 10.2375V14.5045L140.878 13.9685V3.10549C137.935 1.59837 132.836 0.421265 127.405 0.421265C116.075 0.421265 105.805 6.18068 105.805 23.0679C105.805 38.2526 113.267 45.517 125.9 45.517C131.922 45.517 137.549 43.8817 141.215 41.3278V29.3465C141.215 28.1022 141.738 27.7112 142.852 27.5136L144.618 27.3181V21.8236H128.266Z" fill="#5A5D68"/>
<path d="M91.3985 58.2256L91.842 58.1835C92.1047 58.1415 92.1867 58.0721 92.2413 57.7421L93.3617 51.453L92.6281 51.3984L92.8383 50.196H96.5693C98.3938 50.196 99.6781 50.7909 99.6781 52.4494C99.6781 53.9964 98.6272 54.8246 97.3155 55.1147C97.799 55.2408 98.0197 55.5708 98.2278 56.111L98.9046 57.8241C99.0013 58.0595 99.0707 58.1688 99.325 58.1688C99.4359 58.1707 99.5467 58.1664 99.6571 58.1562C99.7219 58.1586 99.7868 58.1536 99.8505 58.1415L99.6571 59.3712C99.2565 59.481 98.8429 59.5369 98.4275 59.5372C97.5152 59.5372 97.2525 59.1168 97.0023 58.4043L96.3402 56.6071C96.1195 55.9996 95.9198 55.8483 95.346 55.8483H94.5577L94.1563 58.1604L94.8205 58.1878L94.5998 59.3901H91.2051L91.3985 58.2256ZM95.7664 54.5345C96.8846 54.5345 97.5888 53.8724 97.5888 52.6701C97.5888 51.8293 97.0507 51.6065 96.1174 51.6065H95.3165L94.8037 54.5345H95.7664Z" fill="#868D96"/>
<path d="M106.904 54.0215C106.904 56.1235 105.08 56.7541 102.578 56.6869C102.538 57.4331 102.759 58.1099 103.823 58.1099C104.485 58.107 105.132 57.9152 105.689 57.5571L106.034 58.8708C105.216 59.3319 104.293 59.5744 103.354 59.575C101.462 59.575 100.645 58.4294 100.645 56.8676C100.645 54.629 101.765 52.2096 104.804 52.2096C106.131 52.2033 106.904 52.7435 106.904 54.0215ZM104.569 53.6012C103.615 53.6012 102.967 54.4714 102.744 55.3983C104.237 55.3983 105.204 55.1356 105.204 54.1813C105.204 53.7525 104.935 53.6012 104.569 53.6012Z" fill="#868D96"/>
<path d="M108.013 52.5356C109.007 52.3569 109.505 51.7347 109.974 50.7952H111.031L110.741 52.3843H112.469L112.164 53.7232H110.508L109.925 57.1095C109.774 57.883 109.968 58.0911 110.508 58.0911C110.863 58.078 111.212 57.9884 111.529 57.8284L111.681 59.1421C111.101 59.4413 110.454 59.5861 109.801 59.5625C107.632 59.5625 107.771 58.2635 107.95 57.2146L108.58 53.7169H107.641L108.013 52.5356Z" fill="#868D96"/>
<path d="M115.972 52.3843L114.976 57.9524C114.936 58.1731 114.991 58.2698 115.253 58.2572L115.779 58.2299L115.569 59.3902C115.15 59.5016 114.718 59.5574 114.284 59.5562C113.179 59.5562 112.889 59.0034 113.095 57.8978L113.786 53.986C113.828 53.7233 113.744 53.5866 113.524 53.5656L113.103 53.5383L113.313 52.378L115.972 52.3843ZM115.42 49.3448C116.027 49.3448 116.414 49.6749 116.414 50.2151C116.414 50.9192 115.783 51.4573 115.033 51.4573C114.423 51.4573 114.064 51.0853 114.064 50.5745C114.064 49.8956 114.646 49.3448 115.42 49.3448Z" fill="#868D96"/>
<path d="M119.661 55.0726L118.888 59.3985H116.996L117.95 53.9817C118.005 53.719 117.923 53.5949 117.688 53.5802L117.232 53.5529L117.442 52.3926H119.964L119.798 53.4562H119.825C120.04 53.0712 120.356 52.7519 120.738 52.5327C121.121 52.3135 121.556 52.2025 121.997 52.2118C122.418 52.2045 122.837 52.2847 123.226 52.4473L122.806 54.9339L121.217 55.0453L121.368 54.1751C121.425 53.9123 121.425 53.8577 121.272 53.8157C121.173 53.7829 121.069 53.7735 120.967 53.7883C120.298 53.7799 119.813 54.3327 119.661 55.0726Z" fill="#868D96"/>
<path d="M129.557 54.0216C129.557 56.1235 127.733 56.7541 125.232 56.6869C125.189 57.4331 125.41 58.1099 126.476 58.1099C127.137 58.1071 127.784 57.9153 128.34 57.5571L128.687 58.8561C127.869 59.3172 126.946 59.5597 126.007 59.5603C124.128 59.5603 123.3 58.4147 123.3 56.8529C123.3 54.6143 124.418 52.1949 127.458 52.1949C128.784 52.2034 129.557 52.7436 129.557 54.0216ZM127.216 53.6012C126.261 53.6012 125.612 54.4714 125.391 55.3984C126.884 55.3984 127.851 55.1356 127.851 54.1813C127.857 53.7525 127.594 53.6012 127.216 53.6012Z" fill="#868D96"/>
<path d="M138.085 50.2004C139.466 50.2004 140.792 50.6208 140.792 52.1763C140.792 53.3513 140.004 54.1101 138.968 54.4422C139.922 54.6082 140.502 55.3271 140.502 56.3781C140.502 58.2573 139.052 59.3902 136.342 59.3902H132.405L132.599 58.2299L133.04 58.1879C133.303 58.1459 133.385 58.0912 133.442 57.7675L134.56 51.4511L133.828 51.3964L134.039 50.1941L138.085 50.2004ZM135.39 58.0155H136.481C137.952 58.0155 138.387 57.2147 138.387 56.3991C138.387 55.6403 137.891 55.2809 137.006 55.2809H135.874L135.39 58.0155ZM136.094 53.9819H136.95C138.181 53.9819 138.705 53.3176 138.705 52.4747C138.705 51.7559 138.221 51.5352 137.444 51.5352H136.519L136.094 53.9819Z" fill="#868D96"/>
<path d="M147.759 54.0215C147.759 56.1235 145.934 56.7541 143.433 56.6869C143.393 57.4331 143.614 58.1099 144.677 58.1099C145.339 58.1073 145.986 57.9155 146.542 57.5571L146.888 58.8708C146.07 59.3322 145.146 59.5747 144.206 59.575C142.327 59.575 141.499 58.4294 141.499 56.8676C141.499 54.629 142.617 52.2096 145.659 52.2096C146.985 52.2033 147.759 52.7435 147.759 54.0215ZM145.423 53.6012C144.469 53.6012 143.82 54.4714 143.599 55.3983C145.091 55.3983 146.058 55.1356 146.058 54.1813C146.058 53.7525 145.795 53.6012 145.423 53.6012Z" fill="#868D96"/>
<path d="M150.785 57.1095C150.634 57.883 150.827 58.0911 151.365 58.0911C151.721 58.0779 152.07 57.9883 152.389 57.8283L152.54 59.1421C151.96 59.4413 151.313 59.5861 150.661 59.5625C148.492 59.5625 148.63 58.2634 148.809 57.2146L149.44 53.7169H148.5L148.872 52.5293C149.868 52.3506 150.364 51.7284 150.835 50.7888H151.899L151.598 52.3842H153.91C154.587 52.1068 154.974 51.5687 155.361 50.7951H156.433L156.143 52.3842H157.871L157.566 53.7232H155.909L155.329 57.1095C155.176 57.883 155.369 58.0911 155.909 58.0911C156.265 58.0779 156.613 57.9883 156.931 57.8283L157.082 59.1421C156.502 59.4413 155.855 59.5861 155.203 59.5625C153.034 59.5625 153.173 58.2634 153.351 57.2146L153.982 53.7169H151.365L150.785 57.1095Z" fill="#868D96"/>
<path d="M164.21 54.0215C164.21 56.1235 162.387 56.7541 159.886 56.6869C159.844 57.4331 160.065 58.1099 161.128 58.1099C161.791 58.1074 162.438 57.9155 162.995 57.5571L163.34 58.8708C162.522 59.3319 161.599 59.5744 160.66 59.575C158.78 59.575 157.95 58.4294 157.95 56.8676C157.95 54.629 159.071 52.2096 162.11 52.2096C163.43 52.2033 164.21 52.7435 164.21 54.0215ZM161.875 53.6012C160.922 53.6012 160.273 54.4714 160.052 55.3983C161.545 55.3983 162.511 55.1356 162.511 54.1813C162.505 53.7525 162.242 53.6012 161.868 53.6012H161.875Z" fill="#868D96"/>
<path d="M167.574 55.0727L166.8 59.3985H164.908L165.86 53.9818C165.917 53.719 165.833 53.595 165.598 53.5803L165.142 53.553L165.352 52.3927H167.874L167.71 53.4563H167.737C167.949 53.0727 168.26 52.7536 168.638 52.533C169.017 52.3124 169.448 52.1985 169.886 52.2035C170.307 52.196 170.726 52.2761 171.115 52.4389L170.695 54.9255L169.106 55.0369L169.257 54.1667C169.314 53.904 169.314 53.8493 169.16 53.8073C169.063 53.7747 168.959 53.7653 168.858 53.78C168.204 53.78 167.716 54.3328 167.574 55.0727Z" fill="#868D96"/>
<path d="M44.3307 28.0327C43.6411 26.4584 42.7804 24.9647 41.7641 23.5787C40.2561 21.4621 38.3758 19.6373 36.2149 18.1934C35.352 17.6457 34.4547 17.1543 33.5286 16.722C32.3722 16.192 31.1613 15.7902 29.9174 15.5239C28.1391 15.1224 26.3441 15.0425 24.528 15.0068C21.7491 14.9522 18.9661 14.9732 16.202 14.5738C14.4994 14.345 12.8308 13.9102 11.233 13.279C9.37272 12.5244 7.79624 11.301 6.33327 9.89691C4.25683 7.86039 2.41392 5.5987 0.838704 3.15377C0.790359 3.0781 0.73781 3.00243 0.687362 2.92676C0.679091 2.94453 0.674805 2.9639 0.674805 2.98351C0.674805 3.00312 0.679091 3.02249 0.687362 3.04026C2.27435 6.18692 4.09046 9.16122 6.35218 11.8034C7.55661 13.2117 8.87455 14.4876 10.4489 15.4083C13.4821 17.176 16.757 18.0084 20.1748 18.288C21.9089 18.4288 23.6493 18.4372 25.3898 18.4814C27.8239 18.5402 30.2474 18.6916 32.6269 19.2969C33.4766 19.5044 34.3065 19.7857 35.1072 20.1377C35.2501 20.1987 35.391 20.2702 35.5276 20.3479C35.5528 20.3626 35.578 20.3837 35.6033 20.3963C39.1766 22.122 42.029 24.7621 44.2823 28.1736C44.3117 28.2156 44.3307 28.2724 44.3895 28.2892C44.4231 28.1778 44.3622 28.1084 44.3307 28.0327Z" fill="#868D96"/>
<path d="M26.1448 23.6207C25.8333 22.8905 25.4745 22.1813 25.0707 21.4977C25.0223 21.3981 24.9452 21.3152 24.8493 21.2598C24.7534 21.2043 24.6431 21.1789 24.5326 21.1866C23.9398 21.2056 23.3471 21.1866 22.7543 21.1866C20.2551 21.1866 17.76 21.1194 15.2923 20.6443C14.047 20.4398 12.8327 20.0775 11.679 19.566C10.1151 18.8177 8.76777 17.71 7.515 16.4614C5.20283 14.1492 3.28793 11.5007 1.5559 8.66938C1.49915 8.57479 1.45711 8.45918 1.3457 8.41504C3.09244 12.125 5.12926 15.6059 7.77774 18.6327C8.96785 20.0571 10.3719 21.2881 11.9397 22.2818C13.8314 23.4315 15.9019 23.9928 18.0354 24.3165C20.8121 24.7369 23.6077 24.6633 26.3991 24.6675C26.561 24.6675 26.5652 24.5981 26.5084 24.4573C26.3802 24.1735 26.2688 23.8982 26.1448 23.6207Z" fill="#868D96"/>
<path d="M22.6739 29.1448C22.5058 28.8085 22.3292 28.4827 22.1358 28.1653C22.0862 28.0662 22.0085 27.9839 21.9125 27.9286C21.8164 27.8732 21.7063 27.8474 21.5956 27.8542C20.8074 27.8731 20.0191 27.8542 19.2309 27.8016C17.6007 27.7308 15.9838 27.4755 14.4111 27.0407C12.2735 26.4568 10.3639 25.237 8.93544 23.543C8.03369 22.4689 7.15296 21.357 6.3395 20.1799C5.19182 18.534 4.13663 16.8167 3.12138 15.0658L2.91118 14.6853L2.86914 14.7105L3.05832 15.1309C3.2496 15.5765 3.43457 16.0243 3.63636 16.4636C5.01736 19.4799 6.59174 22.3491 8.53817 24.985C10.4552 27.5578 12.8157 29.3529 15.7269 30.2693C18.2598 31.0723 20.8515 31.3203 23.4727 31.3203C23.6619 31.3203 23.6072 31.2215 23.5652 31.1101C23.3003 30.4473 23.0033 29.7922 22.6739 29.1448Z" fill="#868D96"/>
<path d="M147.235 1.2157V1.74119H146.217V4.39178H145.587V1.74119H144.582V1.2157H147.235ZM150.667 4.39178L150.547 2.52313C150.535 2.2772 150.535 1.97451 150.524 1.63609H150.489C150.407 1.91566 150.302 2.28981 150.222 2.58198L149.648 4.34554H148.994L148.42 2.53574C148.363 2.30242 148.269 1.91566 148.21 1.63609H148.174C148.174 1.92827 148.174 2.23095 148.151 2.52313L148.025 4.39178H147.418L147.651 1.2157H148.597L149.145 2.76906C149.227 3.01499 149.274 3.24831 149.356 3.57411H149.368C149.45 3.29455 149.52 3.01499 149.589 2.79218L150.14 1.2157H151.05L151.294 4.39178H150.667Z" fill="#5A5D68"/>
</svg>
