<svg width="107" height="40" viewBox="0 0 107 40" fill="none" xmlns="http://www.w3.org/2000/svg">
<path d="M104.051 2.28174H2.60449V37.433H104.051V2.28174Z" stroke="white" stroke-width="4" stroke-miterlimit="10"/>
<path d="M104.051 2.28174H13.1543V37.433H104.051V2.28174Z" fill="#5A5D68"/>
<path d="M19.2412 8.14026H29.2337L32.5814 21.9624H32.6575L36.0053 8.14026H45.9978V31.8027H39.3784V16.814H39.4037L35.3205 31.8027H29.9438L25.8606 16.814H25.7845V31.8027H19.2158V8.14026H19.2412Z" fill="white"/>
<path d="M50.4101 8.14026H58.2976L65.5511 20.7957H65.6271V8.14026H72.8806V31.8027H65.3735L57.7143 18.919H57.6382V31.8027H50.3848L50.4101 8.14026Z" fill="white"/>
<path d="M83.6853 19.35L75.671 8.3938H84.4461L88.1236 14.7596L91.7249 8.3938H100.018L92.2068 19.4261L100.88 31.828H91.8771L87.7178 24.8535L83.457 31.828H74.8848L83.6853 19.35Z" fill="white"/>
<path d="M13.155 2.28174H2.60449V37.433H13.155V2.28174Z" fill="#868D96"/>
</svg>
