<svg width="156" height="23" viewBox="0 0 156 23" fill="none" xmlns="http://www.w3.org/2000/svg">
<path fill-rule="evenodd" clip-rule="evenodd" d="M153.809 0.421265C155 0.421265 156.003 1.4086 155.985 2.64831C156.003 3.85298 155.001 4.83999 153.809 4.87536C152.556 4.8551 151.569 3.85298 151.582 2.64831C151.554 1.4086 152.556 0.421265 153.809 0.421265ZM153.809 4.62233C154.864 4.59725 155.745 3.71634 155.732 2.64831C155.745 1.56002 154.864 0.679427 153.758 0.674283C152.693 0.679427 151.812 1.56034 151.835 2.64831C151.812 3.71666 152.693 4.59725 153.809 4.62233Z" fill="#5A5D68"/>
<path fill-rule="evenodd" clip-rule="evenodd" d="M153.252 3.81214H152.949V1.3324H154.062C154.424 1.34751 154.788 1.42338 154.821 1.99019C154.834 2.28919 154.743 2.39528 154.518 2.59751C154.743 2.74444 154.758 2.77498 154.771 3.20483C154.784 3.29378 154.79 3.3624 154.795 3.42036C154.808 3.56688 154.815 3.64536 154.922 3.81214H154.518L154.467 3.50865C154.461 3.44318 154.462 3.37298 154.463 3.30267C154.468 3.02491 154.472 2.74541 154.062 2.74926H153.252V3.81214ZM154.518 2.09148C154.545 1.68188 154.241 1.62112 154.062 1.63591H153.252V2.49657H154.062C154.257 2.47149 154.469 2.41073 154.518 2.09148Z" fill="#5A5D68"/>
<path fill-rule="evenodd" clip-rule="evenodd" d="M144.294 20.0087C143.096 21.6944 140.774 22.4837 138.422 22.4888C133.059 22.484 130.539 18.4906 130.526 14.7448C130.539 10.8221 133.409 7.02614 139.08 7.05122C141.001 7.02614 143.355 7.92185 144.395 9.12652V1.0282H147.887V19.1484C147.893 19.829 147.956 20.5276 148.019 21.2165C148.044 21.4909 148.069 21.7637 148.09 22.0332H144.749C144.732 21.9717 144.708 21.8931 144.681 21.8016C144.543 21.3441 144.308 20.5658 144.294 20.0087ZM144.395 14.7448C144.372 12.7357 142.216 9.50139 139.232 9.48082C135.762 9.50139 134.031 12.5078 134.019 14.7448C134.031 16.9873 135.975 19.7962 139.485 19.8062C142.428 19.7962 144.372 16.7744 144.395 14.7448Z" fill="#5A5D68"/>
<path d="M116.405 13.2773C116.494 11.1718 120.032 9.62314 121.77 9.6331C124.435 9.62314 125.042 11.7033 125.111 13.2773V22.0334H128.553V12.5687C128.55 12.0678 128.49 11.1416 128.199 10.2404C127.533 8.10468 124.101 6.70775 122.277 6.69714C119.515 6.70743 117.587 7.90696 116.456 9.22801L116.405 9.17753V6.95049H112.862V22.0338H116.405V13.2773Z" fill="#5A5D68"/>
<path fill-rule="evenodd" clip-rule="evenodd" d="M107.244 22.0333C107.125 21.406 107.049 20.7225 107.041 20.11C105.804 21.8008 102.767 22.4994 100.309 22.4892C96.8749 22.4998 94.3086 20.9357 94.2861 18.0859C94.3086 17.0484 94.9008 14.5886 98.2342 13.4797C100.398 12.6901 104.452 12.6142 106.636 12.6698V11.3031C106.638 10.3216 104.786 9.50175 102.84 9.48117C100.215 9.50175 98.9248 10.9289 98.9932 11.6069H95.1465C95.2043 9.77503 96.1763 8.63594 97.6265 7.96272C99.1222 7.26956 101.066 7.04161 103.043 7.05158C106.699 7.04161 110.389 8.1045 110.381 12.5181V20.4643C110.407 20.9587 110.485 21.3133 110.553 21.6197C110.585 21.7651 110.614 21.8997 110.635 22.0333H107.244ZM101.474 19.7053C104.498 19.7053 106.533 18.6273 106.636 15.6055H106.636V15.2007C101.385 14.649 98.4998 15.9704 98.4873 17.4782C98.4085 19.4928 99.9424 19.7053 101.474 19.7053Z" fill="#5A5D68"/>
<path d="M92.7678 1.0282H88.668V22.0332H92.7678V1.0282Z" fill="#5A5D68"/>
<path fill-rule="evenodd" clip-rule="evenodd" d="M68.3213 14.7956C68.9666 7.13261 77.6973 7.04162 77.8368 7.05159C83.4066 7.28436 87.3546 10.3518 87.3524 14.7956C87.3546 19.3561 83.7711 22.4991 77.8368 22.4888C71.8518 22.4994 67.8883 19.341 68.3213 14.7956ZM72.3199 14.7956C72.3222 17.0786 74.4634 20.0242 77.8369 20.0088C81.1442 20.0242 83.3005 17.0786 83.3034 14.7956C83.3005 12.4323 81.3114 9.62296 77.8369 9.63293C74.3116 9.62296 72.3222 12.4319 72.3199 14.7956Z" fill="#5A5D68"/>
<path fill-rule="evenodd" clip-rule="evenodd" d="M59.4129 13.0747H52.4787V22.034H48.3281V1.02893H58.5522C63.0745 1.07458 67.3717 2.24389 67.3591 6.54591C67.3713 9.25907 66.7644 11.4913 63.5124 12.0629V12.1134C65.8205 12.5419 65.962 13.6922 66.2112 15.7173C66.2623 16.1322 66.3179 16.5838 66.3975 17.0735C66.4457 17.3219 66.4918 17.6092 66.5416 17.9197C66.7606 19.286 67.0517 21.1016 67.916 22.0336H63.6136C63.1503 20.1763 62.8925 18.2933 62.652 16.4154C62.4977 15.2564 61.2676 13.1152 59.4129 13.0747ZM59.4637 4.11599H52.4788V10.0885H59.4637C61.9515 10.0786 63.4089 9.07645 63.4118 7.20338C63.4089 5.35603 61.9512 4.14139 59.4637 4.11599Z" fill="#5A5D68"/>
<path d="M38.8129 1.23096H0.953125V21.9325H3.23097V3.5088H38.7624C41.5132 3.64062 43.2593 4.8858 43.5708 7.96289C43.3506 10.8227 41.8473 12.2652 38.7624 12.3662H13.5563V18.1359H45.5953V15.8583H15.8339V14.6437H38.8129C43.2287 14.4666 45.7191 11.9007 45.8483 7.96257C45.5976 3.62518 42.7581 1.40843 38.8129 1.23096Z" fill="#5A5D68"/>
<path fill-rule="evenodd" clip-rule="evenodd" d="M7.27988 18.2883V21.6795H5.00236V5.02725H38.9649V10.8985H14.4166C11.4781 11.0204 8.89704 12.235 8.84913 15.7069C9.41305 18.6426 11.4327 19.5993 14.4166 19.7054H45.4432V21.983H14.3658C11.6452 21.8772 8.57779 20.9812 7.27988 18.2883ZM7.27988 12.4167C8.6842 9.69901 11.5388 8.74222 14.3658 8.6207H36.687V7.30479H7.27988V12.4167Z" fill="#5A5D68"/>
</svg>
