<?xml version="1.0" encoding="utf-8"?>
<!-- Generator: Adobe Illustrator 23.0.2, SVG Export Plug-In . SVG Version: 6.00 Build 0)  -->
<svg version="1.1" id="Layer_1" xmlns="http://www.w3.org/2000/svg" xmlns:xlink="http://www.w3.org/1999/xlink" x="0px" y="0px"
	 viewBox="0 0 124.5 33.5" style="enable-background:new 0 0 124.5 33.5;" xml:space="preserve">
<style type="text/css">
	.st0{fill:#FFFFFF;}
	.st1{fill:#FFC83F;}
</style>
<g id="Group_378" transform="translate(0 -0.023)">
	<g id="Group_1" transform="translate(0 18.708)">
		<path id="Path_1" class="st0" d="M10,14.4H0L3.2,0.7h3.5L4.2,11.8h6.3L10,14.4z"/>
		<path id="Path_2" class="st0" d="M20.9,13.3c-0.6,0.4-1.3,0.7-2,0.9c-0.8,0.3-1.7,0.4-2.6,0.4c-1,0-2-0.1-3-0.3
			c-0.7-0.2-1.5-0.4-2.2-0.7l0.7-3h0.4c0.6,0.4,1.2,0.7,1.9,0.9c0.6,0.3,1.3,0.4,2,0.4c0.8,0.1,1.6-0.1,2.3-0.5
			c0.5-0.4,0.8-1,0.8-1.6c0-0.2,0-0.5-0.1-0.7C19,9.1,18.8,9,18.6,8.9c-0.3-0.1-0.6-0.2-0.9-0.3h-2.1L16,6.2h0.8
			c0.9,0.1,1.8-0.1,2.7-0.4c0.5-0.2,0.8-0.7,0.8-1.2c0-0.4-0.3-0.8-0.7-0.9c-0.5-0.3-1.2-0.3-1.8-0.3c-0.7,0-1.4,0.1-2,0.3
			C15.2,3.9,14.5,4,14,4.3h-0.4l0.7-3c0.7-0.2,1.3-0.4,2-0.5c0.8-0.2,1.6-0.3,2.4-0.3c0.7,0,1.4,0,2.2,0.1c0.6,0.1,1.1,0.3,1.6,0.5
			c0.4,0.2,0.8,0.6,1.1,0.9c0.3,0.4,0.4,1,0.4,1.5c0,0.5-0.1,1-0.3,1.5c-0.1,0.4-0.4,0.8-0.8,1.1c-0.3,0.3-0.7,0.5-1.1,0.7l-1.2,0.4
			v0.1c0.6,0.1,1.2,0.4,1.8,0.8c0.4,0.4,0.7,1,0.7,1.6c0,0.7-0.1,1.4-0.5,2C22,12.4,21.5,12.9,20.9,13.3z"/>
		<path id="Path_3" class="st0" d="M37.7,14.4h-3.1l-4-9.6l-2.2,9.6h-3.2l3.2-13.7h4l3.5,7.9l1.9-7.9h3.2L37.7,14.4z"/>
		<path id="Path_4" class="st0" d="M45.8,14.7c-1.4,0.1-2.9-0.3-4-1.2c-1-0.8-1.5-2-1.5-3.2c0-0.9,0.2-1.8,0.5-2.6
			c0.3-0.8,0.7-1.5,1.3-2c0.6-0.6,1.3-1.1,2.2-1.3c0.9-0.3,1.9-0.5,2.8-0.5c1.2-0.1,2.5,0.2,3.5,0.9c0.8,0.7,1.3,1.7,1.2,2.8
			c0,0.4,0,0.8-0.1,1.2c-0.1,0.4-0.1,0.8-0.3,1.2h-7.7v0.3c0,0.7,0.3,1.3,0.8,1.8c0.7,0.5,1.5,0.7,2.3,0.7c0.7,0,1.4-0.1,2-0.4
			c0.7-0.3,1.2-0.5,1.8-0.8H51l-0.7,2.7c-0.7,0.3-1.3,0.5-2,0.7C47.5,14.6,46.6,14.6,45.8,14.7z M48.3,7.8V7.3
			c0-0.4-0.1-0.8-0.4-1.1c-0.4-0.3-0.9-0.5-1.3-0.4c-0.6,0-1.2,0.2-1.8,0.5c-0.5,0.5-0.8,1-1.1,1.6h4.6L48.3,7.8z"/>
		<path id="Path_5" class="st0" d="M55.7,14.5c-0.8,0.1-1.7-0.1-2.4-0.5c-0.6-0.4-0.9-1.1-0.8-1.8v-0.5c0.1-0.2,0.1-0.4,0.1-0.7
			l1.1-5h-1.3l0.5-2.2h1.3l0.7-3h3.4l-0.7,3h3.1l-0.5,2.2h-3.1l-0.8,3.8c0,0.3-0.1,0.5-0.1,0.8c0,0.2-0.1,0.5-0.1,0.7
			c0,0.3,0.1,0.6,0.3,0.8c0.3,0.2,0.6,0.3,0.9,0.3c0.2,0,0.5,0,0.7-0.1c0.2,0,0.5-0.1,0.7-0.3h0.3l-0.5,2.3
			c-0.4,0.1-0.8,0.1-1.2,0.3L55.7,14.5z"/>
		<path id="Path_6" class="st0" d="M78.6,3.9l-5.4,10.4h-3.5l-0.7-7l-3.5,7h-3.6L61,3.9h3.4l0.3,7.1l3.6-7.1h3l0.7,7.1l3.2-7.1H78.6
			z"/>
		<path id="Path_7" class="st0" d="M89.1,7.8c0,0.9-0.2,1.8-0.5,2.7c-0.3,0.8-0.7,1.5-1.3,2.2c-0.6,0.6-1.4,1.1-2.2,1.5
			c-0.9,0.4-1.9,0.6-2.8,0.5c-1.3,0.1-2.5-0.3-3.5-1.1c-0.8-0.8-1.3-1.9-1.2-3.1c0-0.9,0.1-1.8,0.4-2.7c0.3-0.8,0.7-1.5,1.3-2.1
			c0.6-0.6,1.3-1.1,2.2-1.5c0.9-0.4,1.9-0.6,2.8-0.5c1.3-0.1,2.6,0.3,3.6,1.1C88.7,5.5,89.2,6.7,89.1,7.8z M84.7,11.2
			c0.3-0.5,0.5-1,0.7-1.5c0.2-0.6,0.3-1.2,0.3-1.9c0-0.5-0.1-1-0.4-1.5c-0.3-0.4-0.8-0.6-1.3-0.5c-0.4,0-0.9,0.1-1.2,0.4
			c-0.4,0.2-0.7,0.6-0.9,0.9c-0.3,0.5-0.5,1-0.5,1.5c-0.2,0.6-0.2,1.2-0.3,1.8c-0.1,0.6,0.1,1.1,0.5,1.5c0.4,0.3,0.9,0.4,1.3,0.4
			c0.4,0,0.8-0.1,1.2-0.3C84.3,11.7,84.5,11.5,84.7,11.2z"/>
		<path id="Path_8" class="st0" d="M98.2,7.1h-0.3C97.7,7.1,97.4,7,97.2,7h-0.8c-0.4,0-0.8,0-1.2,0.1c-0.4,0-0.8,0.1-1.2,0.3l-1.6,7
			H89L91.4,4h3.4l-0.4,1.5c0.6-0.4,1.2-0.8,1.9-1.1C96.9,4.2,97.5,4,98.2,4H99L98.2,7.1z"/>
		<path id="Path_9" class="st0" d="M108.8,14.4h-3.5l-2-4.6l-1.5,1.3l-0.8,3.2h-3.4L101,0h3.4l-2,8.5l4.7-4.6h3.9l-4.8,4.6
			L108.8,14.4z"/>
		<path id="Path_10" class="st0" d="M113.2,14.7c-0.9,0-1.7-0.1-2.6-0.3c-0.6-0.1-1.3-0.3-1.9-0.5l0.7-2.7h0.3
			c0.2,0.2,0.3,0.3,0.5,0.4c0.3,0.2,0.6,0.3,0.9,0.4c0.4,0.2,0.7,0.3,1.1,0.4c0.4,0.1,0.9,0.2,1.3,0.1c0.6,0,1.2-0.1,1.8-0.3
			c0.4-0.1,0.6-0.4,0.5-0.8c0-0.3-0.1-0.4-0.4-0.5s-0.8-0.3-1.6-0.5c-1.1-0.1-2.1-0.5-3-1.2c-0.5-0.4-0.8-1.1-0.8-1.8
			c0-1.2,0.6-2.3,1.6-2.8c1.3-0.8,2.8-1.1,4.3-1.1c0.8,0,1.5,0.1,2.3,0.3c0.6,0.1,1.2,0.2,1.8,0.5L119.4,7h-0.3
			c-0.4-0.4-1-0.7-1.6-0.8c-0.6-0.2-1.2-0.3-1.9-0.3c-0.5,0-1.1,0.1-1.6,0.3c-0.4,0.1-0.6,0.4-0.5,0.8c0,0.3,0.2,0.6,0.5,0.7
			c0.5,0.2,1.1,0.3,1.6,0.4c1,0.2,2,0.5,2.8,1.1c0.5,0.4,0.8,1.1,0.8,1.8c0,1.1-0.6,2.2-1.6,2.7C116.3,14.3,114.8,14.7,113.2,14.7z"
			/>
	</g>
	<g id="Group_2" transform="translate(42.279 0.023)">
		<path id="Path_11" class="st1" d="M33.5,5c-8.3,2.3-16.4,5.5-24,9.7C6.1,16.6,2.8,19,0,21.8c4.7-3.4,9.8-6.2,15.2-8.3l2-0.8
			c2-0.8,4-1.6,6.3-2.3c2-0.7,4.2-1.3,6.3-2H30c1.2-0.4,2.6-0.7,3.8-1.1c1.6-0.4,3.2-0.8,5-1.2c2.2-0.4,4.3-0.9,6.3-1.2
			C61.4,2,74.7,3.1,78,7.8c0.1,0.1,0.3,0.3,0.3,0.4c0.6,1.2,0.6,2.6,0.1,3.8c-0.6,1.3-1.3,2.5-2.3,3.5c5-3.9,7.3-7.5,5.7-10.5
			c-0.1-0.1-0.1-0.3-0.3-0.4C77.3-1.6,56.1-1.5,33.5,5z"/>
	</g>
	<g id="Group_3" transform="translate(58.706 4.527)">
		<path id="Path_12" class="st1" d="M24.2,2.3c-6,1.3-11.9,3.3-17.5,5.9C4.2,9.4,2,10.9,0,12.8c3.4-2.2,7.1-4,11-5.3
			C11.6,7.4,12,7.2,12.5,7c1.5-0.5,3-1,4.6-1.3c1.5-0.4,3-0.8,4.6-1.1h0.1c0.9-0.2,1.9-0.4,2.8-0.5c1.2-0.3,2.4-0.4,3.6-0.7
			c1.6-0.3,3.1-0.4,4.6-0.7c12-1.3,21.9-0.1,24.5,3.4c0.1,0.1,0.1,0.3,0.3,0.3c0.5,0.8,0.6,1.7,0.3,2.6c-0.3,0.9-0.8,1.7-1.5,2.4
			c3.4-2.6,4.8-5.1,3.6-7.1C59.9,4.1,59.9,4,59.8,4C56.4-0.6,40.8-1.3,24.2,2.3z"/>
	</g>
	<g id="Group_4" transform="translate(69.074 8.093)">
		<path id="Path_13" class="st1" d="M18.2,1.1C13.7,1.8,9.2,3,5,4.7C3.1,5.4,1.4,6.4,0,7.8c2.6-1.5,5.4-2.6,8.2-3.5
			C8.6,4.3,9,4.2,9.4,4c1.1-0.3,2.3-0.5,3.5-0.8c1.1-0.3,2.3-0.4,3.5-0.7l0,0c0.7-0.2,1.4-0.3,2.2-0.3c0.9-0.1,1.9-0.3,2.7-0.4
			c1.2-0.2,2.3-0.2,3.5-0.3c9.2-0.5,16.7,0.7,18.9,3.2c0,0.1,0.1,0.1,0.1,0.3C44.2,5.6,44.3,6.4,44,7c-0.2,0.6-0.6,1.2-1.1,1.6
			c2.7-1.7,3.8-3.5,2.7-5c0-0.1-0.1-0.1-0.1-0.3C42.8,0,30.7-1,18.2,1.1z"/>
	</g>
</g>
</svg>
