<svg width="200" height="54" viewBox="0 0 200 54" fill="none" xmlns="http://www.w3.org/2000/svg">
<path d="M189.415 24.8321C190.592 23.3922 191.694 21.9168 192.459 20.2191C193.428 18.0726 193.792 15.8771 192.734 13.6462C191.908 11.8996 190.517 10.673 188.899 9.69086C186.348 8.14429 183.539 7.29545 180.646 6.6866C176.202 5.75332 171.7 5.3489 167.167 5.3889C163.318 5.42445 159.461 5.4689 155.63 5.76221C151.426 6.08664 147.235 6.61994 143.053 7.19768C135.325 8.26872 127.707 9.91751 120.157 11.8907C107.877 15.095 95.9049 19.1703 84.4122 24.5833C78.1415 27.5342 72.0886 30.8584 66.52 35.0182C66.4711 35.0537 66.4134 35.0804 66.36 35.1159L66.2578 34.9959C67.4577 33.8849 68.6177 32.725 69.8665 31.6673C74.4795 27.7608 79.6259 24.6588 84.9633 21.8545C93.0428 17.6104 101.478 14.2017 110.113 11.273C118.588 8.3976 127.21 6.03775 135.96 4.16675C141.124 3.06016 146.324 2.14466 151.564 1.44248C156.119 0.833629 160.687 0.344771 165.283 0.16256C168.065 0.0514555 170.856 -0.0374278 173.638 0.0159022C178.771 0.10923 183.873 0.531426 188.855 1.90023C191.326 2.58019 193.712 3.47346 195.796 5.02003C197.45 6.24662 198.73 7.74875 199.147 9.83751C199.481 11.4996 199.156 13.0773 198.516 14.6105C197.832 16.246 196.832 17.6859 195.694 19.0369C193.85 21.2368 191.703 23.1122 189.415 24.8277V24.8321Z" fill="white"/>
<path d="M183.793 25.4898C184.264 24.8587 184.78 24.2543 185.202 23.5921C186.033 22.3033 186.584 20.9256 186.34 19.3301C186.135 18.0147 185.429 16.997 184.478 16.1348C182.629 14.4593 180.367 13.5749 178.025 12.8861C174.66 11.8951 171.207 11.3751 167.714 11.1618C165.163 11.0062 162.608 10.8151 160.057 10.8729C156.142 10.9618 152.222 11.1662 148.315 11.4773C141.591 12.0106 134.947 13.1216 128.366 14.5704C119.073 16.6148 109.984 19.3079 101.323 23.3032C98.5007 24.6054 95.772 26.0764 93.1899 27.8052C93.0966 27.8674 92.9988 27.9252 92.901 27.9874L92.7988 27.8496C93.901 26.943 94.9631 25.9831 96.1142 25.1387C100.158 22.17 104.638 20.0101 109.256 18.1036C115.966 15.3348 122.904 13.2683 129.965 11.6062C134.761 10.4729 139.596 9.53076 144.48 8.86857C147.818 8.41527 151.173 8.08196 154.524 7.76198C158.733 7.362 162.959 7.23756 167.185 7.36645C172.496 7.52644 177.771 7.96641 182.878 9.5752C184.798 10.1796 186.642 10.9618 188.224 12.2373C189.322 13.1261 190.197 14.1705 190.491 15.6059C190.771 16.9792 190.455 18.2458 189.811 19.4501C188.735 21.4456 187.122 22.9566 185.38 24.3521C184.873 24.7565 184.344 25.1342 183.824 25.5253L183.793 25.4898Z" fill="white"/>
<path d="M109.695 25.5431C110.833 24.7387 111.931 23.8632 113.117 23.1344C116.922 20.8012 121.081 19.2813 125.325 17.9925C130.605 16.3837 135.991 15.2638 141.449 14.4549C146.013 13.7794 150.599 13.3306 155.212 13.1572C159.421 13.0017 163.625 13.0239 167.821 13.4328C171.691 13.8105 175.527 14.3883 179.162 15.8682C180.615 16.4593 181.993 17.1925 183.051 18.3969C184.251 19.7613 184.42 21.2767 183.544 22.8722C182.766 24.2943 181.566 25.3165 180.295 26.272C179.949 26.5297 179.58 26.7608 179.113 27.0808C179.549 26.5075 179.926 26.0676 180.238 25.5787C181.438 23.7033 181.189 21.89 179.535 20.3746C178.144 19.0991 176.456 18.3703 174.696 17.7792C171.705 16.7792 168.616 16.2859 165.492 15.9437C161.443 15.4993 157.377 15.4104 153.315 15.5527C150.337 15.6549 147.364 15.8904 144.395 16.1571C139.765 16.5704 135.183 17.317 130.641 18.2947C124.672 19.5835 118.819 21.2323 113.277 23.8499C112.095 24.4099 110.957 25.0632 109.798 25.672L109.695 25.5476V25.5431Z" fill="white"/>
<path d="M21.8832 36.7782C22.1054 35.7116 22.3009 34.7783 22.4965 33.8495C22.5809 33.4495 22.7365 33.0584 22.7542 32.6584C22.7898 31.9607 23.172 31.7385 23.7942 31.5785C27.0251 30.7519 30.2782 30.383 33.5891 30.9919C34.1758 31.0985 34.7579 31.2718 35.3224 31.4718C38.811 32.7206 39.2021 35.796 37.9933 38.4358C37.1933 40.178 35.5979 40.9735 33.8602 41.5245C33.6291 41.5956 33.398 41.6668 33.158 41.849C33.3136 41.8934 33.4691 41.9378 33.6247 41.9778C35.5312 42.4667 36.8511 43.8311 36.94 45.4754C37.0556 47.5242 36.4067 49.3152 34.9802 50.804C33.3403 52.515 31.2648 53.3994 28.9761 53.7416C25.4785 54.2615 22.0476 53.9149 18.7323 52.6172C17.919 52.3016 17.919 52.2883 18.1012 51.4484C18.3856 50.1151 18.6789 48.7863 18.9989 47.3197C19.3367 47.4264 19.6878 47.4664 19.9589 47.6353C22.2609 49.0663 24.723 49.844 27.4428 49.3996C28.2606 49.2663 29.0872 48.9507 29.8071 48.533C30.8915 47.9064 31.327 46.5153 30.9848 45.3154C30.8204 44.7377 30.4204 44.3244 29.8649 44.2044C28.9361 44.0088 27.985 43.8888 27.0384 43.8044C26.3896 43.7466 25.7318 43.7911 25.003 43.7911C25.2474 42.6445 25.5096 41.569 25.6918 40.4802C25.7896 39.9024 26.0385 39.7602 26.5984 39.778C27.9984 39.8224 29.4027 39.7958 30.7671 39.3958C31.9714 39.0402 32.5936 38.2803 32.6292 37.227C32.6603 36.4137 32.2914 35.8716 31.5759 35.5471C30.5449 35.0805 29.4516 35.0138 28.345 35.0716C26.3896 35.1738 24.563 35.7782 22.7809 36.5604C22.5409 36.6671 22.2609 36.6848 21.8921 36.7693L21.8832 36.7782Z" fill="white"/>
<path d="M10.9638 31.1653C9.57718 37.1693 8.21282 43.0979 6.82624 49.1064H17.15C16.799 50.6085 16.4701 52.0306 16.1368 53.4661H0C0.217764 52.5017 0.422196 51.564 0.63996 50.6263C2.08876 44.3333 3.54645 38.0404 4.98636 31.7474C5.08413 31.3208 5.23079 31.143 5.71076 31.1519C7.27066 31.1875 8.83501 31.1653 10.3994 31.1653H10.9638Z" fill="white"/>
<path d="M47.4277 38.1557C47.05 39.7823 46.6944 41.2933 46.3434 42.8088C45.5567 46.2219 44.7701 49.6394 43.988 53.057C43.9302 53.3192 43.868 53.5014 43.5258 53.497C41.9614 53.4792 40.3971 53.4881 38.8372 53.4881C38.7527 53.4881 38.6683 53.457 38.5527 53.4348C38.926 51.7904 39.2949 50.1727 39.6682 48.5506C40.9704 42.9288 42.2769 37.3069 43.5658 31.6806C43.6502 31.3073 43.7613 31.1473 44.1791 31.1517C46.0278 31.1739 47.8722 31.1739 49.7209 31.1517C50.0942 31.1473 50.2453 31.2939 50.3787 31.6095C52.0719 35.5292 53.774 39.4401 55.4761 43.3554C55.5428 43.5109 55.6183 43.662 55.7606 43.9509C56.0939 42.5021 56.3961 41.2044 56.6938 39.9067C57.3338 37.1291 57.9649 34.3515 58.6182 31.5783C58.6537 31.4228 58.8493 31.1873 58.9781 31.1873C60.6447 31.1606 62.3113 31.1695 64.0578 31.1695C63.8578 32.0628 63.6801 32.8983 63.4845 33.7338C62.0002 40.1689 60.5069 46.5996 59.0315 53.0348C58.947 53.4081 58.787 53.5059 58.4226 53.5014C57.1071 53.4792 55.7917 53.4748 54.4806 53.5014C54.0762 53.5103 53.8984 53.3681 53.7429 53.0037C51.7164 48.1906 49.672 43.3821 47.6322 38.5735C47.5922 38.4757 47.5433 38.3824 47.4366 38.1513L47.4277 38.1557Z" fill="white"/>
<path d="M110.468 53.4926C110.095 49.7506 109.73 46.0842 109.366 42.4178L109.268 42.3955C109.179 42.56 109.09 42.7288 109.006 42.8933C107.317 46.2664 105.619 49.6395 103.944 53.026C103.771 53.3771 103.575 53.5104 103.179 53.5059C101.562 53.4837 99.9441 53.4882 98.3309 53.5059C97.9798 53.5059 97.8554 53.4171 97.8198 53.0393C97.5309 49.8262 97.211 46.613 96.9043 43.3999C96.6954 41.1778 96.4954 38.9557 96.291 36.6848H101.846C102.006 40.4312 102.166 44.1776 102.331 48.0618C102.468 47.8396 102.553 47.7241 102.62 47.5952C104.411 44.1154 106.206 40.6312 107.984 37.1425C108.179 36.7559 108.415 36.627 108.841 36.6359C110.241 36.6626 111.641 36.6448 113.081 36.6448C113.423 40.4312 113.761 44.1688 114.099 47.9063L114.21 47.9241C114.543 47.1863 114.877 46.4531 115.21 45.7153C116.503 42.8399 117.796 39.9646 119.076 37.0847C119.214 36.7737 119.361 36.627 119.734 36.6314C121.334 36.6581 122.934 36.6403 124.529 36.6448C124.667 36.6448 124.805 36.6581 125.018 36.667C124.654 37.3736 124.312 38.0269 123.969 38.6802C121.458 43.4843 118.943 48.2929 116.423 53.0926C116.339 53.2571 116.148 53.4748 116.001 53.4793C114.174 53.5059 112.343 53.4971 110.463 53.4971L110.468 53.4926Z" fill="white"/>
<path d="M166.518 30.1385C165.972 32.5028 165.443 34.7783 164.918 37.0537C164.398 39.3024 163.887 41.5556 163.372 43.8044L163.527 43.9155C163.896 43.511 164.252 43.0933 164.638 42.7111C166.594 40.7734 168.554 38.8447 170.522 36.9203C170.66 36.787 170.873 36.6492 171.056 36.6492C173.007 36.6315 174.962 36.6359 177.082 36.6359C174.42 39.138 171.86 41.5423 169.265 43.9821C170.753 47.1241 172.242 50.2706 173.771 53.4882C172.713 53.4882 171.744 53.4882 170.771 53.4882C170.025 53.4882 169.278 53.466 168.531 53.4971C168.158 53.5104 167.971 53.3904 167.816 53.0438C166.807 50.7417 165.772 48.453 164.718 46.0975C163.949 46.7731 163.203 47.4263 162.474 48.093C162.381 48.1774 162.345 48.3374 162.314 48.4707C161.954 49.9862 161.594 51.5017 161.252 53.0216C161.176 53.3638 161.047 53.5104 160.656 53.506C159.025 53.4793 157.394 53.4926 155.67 53.4926C155.843 52.6971 155.999 51.9638 156.168 51.2306C157.759 44.351 159.35 37.467 160.941 30.5874C160.994 30.3652 160.981 30.1297 161.323 30.1341C163.025 30.143 164.727 30.1385 166.514 30.1385H166.518Z" fill="white"/>
<path d="M68.284 46.102C68.044 47.7508 68.9506 49.204 70.5683 49.7329C72.5104 50.364 74.4614 50.2617 76.359 49.5729C77.2701 49.244 78.1278 48.7596 79.0166 48.3641C79.2744 48.2485 79.5633 48.1996 79.9588 48.0797C79.6922 49.2396 79.4699 50.2484 79.23 51.2572C78.9011 52.6394 78.9055 52.6616 77.5234 53.0927C74.3769 54.0704 71.186 54.337 67.9862 53.4393C65.3197 52.6927 63.4532 51.0261 63.0132 48.1996C62.2799 43.4444 64.6486 38.1247 70.4927 36.547C72.8304 35.916 75.1991 35.8982 77.5323 36.6093C80.6476 37.5603 81.5943 39.8713 81.4565 42.5422C81.4032 43.5555 81.0876 44.5554 80.9054 45.5643C80.8299 45.982 80.6343 46.1198 80.1899 46.1153C76.4435 46.0931 72.6926 46.102 68.9462 46.102H68.284ZM75.9324 42.8622C76.4435 41.3334 75.7102 39.9335 74.2436 39.6224C73.3014 39.4224 72.3637 39.4802 71.4749 39.8446C70.115 40.4001 69.3017 41.4623 68.7906 42.8622H75.9324Z" fill="white"/>
<path d="M130.707 53.9948C129.556 54.0304 128.347 53.8882 127.183 53.4749C124.667 52.5816 123.245 50.7772 123.027 48.1463C122.774 45.1065 123.494 42.2933 125.485 39.9024C127.325 37.6936 129.72 36.5248 132.56 36.2004C134.271 36.0048 135.96 36.0759 137.609 36.6137C140.186 37.4581 141.719 39.4135 141.862 42.1244C142.057 45.8575 140.951 49.0929 138.044 51.5683C135.964 53.3371 133.502 54.0482 130.716 53.9948H130.707ZM136.218 43.3066C136.218 43.1111 136.218 42.9155 136.218 42.72C136.2 40.609 134.818 39.4935 132.751 39.889C131.271 40.169 130.356 41.1423 129.698 42.3867C128.823 44.0399 128.534 45.8398 128.654 47.6885C128.76 49.3507 129.662 50.2084 131.245 50.2795C132.92 50.355 134.071 49.4884 134.929 48.1641C135.88 46.6931 136.244 45.0443 136.218 43.3066Z" fill="white"/>
<path d="M174.659 48.0797C174.922 48.1597 175.188 48.1686 175.366 48.3019C177.406 49.8173 179.708 50.4173 182.219 50.2795C182.748 50.2529 183.277 50.1684 183.792 50.0484C184.094 49.9773 184.396 49.8262 184.645 49.6396C185.392 49.0841 185.316 48.173 184.45 47.8308C183.632 47.5064 182.757 47.3242 181.912 47.0664C180.797 46.7242 179.65 46.4487 178.579 45.9998C175.664 44.7688 174.913 41.6401 176.899 39.1513C178.077 37.6759 179.708 36.947 181.486 36.5648C184.761 35.8582 188.005 36.1026 191.201 37.0937C191.352 37.1426 191.498 37.2092 191.645 37.2759C191.707 37.3026 191.765 37.3426 191.872 37.4003C191.605 38.5692 191.334 39.738 191.063 40.9068C191.045 40.9912 191.018 41.0801 191.001 41.1646C190.872 41.7423 190.654 41.8445 190.165 41.5068C189.205 40.8446 188.156 40.3824 187.027 40.1024C185.574 39.7424 184.117 39.6935 182.654 40.0357C182.468 40.0802 182.286 40.1513 182.108 40.2268C181.561 40.4624 181.174 40.8268 181.192 41.4668C181.21 42.0845 181.65 42.3689 182.166 42.52C183.543 42.9156 184.934 43.2666 186.307 43.6666C186.881 43.8355 187.441 44.0666 187.996 44.3021C190.458 45.3598 190.885 47.4797 190.169 49.6351C189.698 51.0484 188.645 51.955 187.37 52.6305C185.77 53.4793 184.041 53.7993 182.254 53.9149C179.552 54.0882 176.913 53.7815 174.339 52.9238C173.571 52.6661 173.575 52.6527 173.757 51.8839C174.046 50.6617 174.339 49.4396 174.659 48.0886V48.0797Z" fill="white"/>
<path d="M93.2073 49.6752C92.9185 50.9107 92.6607 52.0439 92.3763 53.1683C92.3496 53.275 92.1541 53.3861 92.0207 53.4172C89.9542 53.8483 87.8655 54.0038 85.7811 53.6261C83.208 53.1594 82.4436 51.4617 82.8746 49.1774C83.4124 46.3287 84.1279 43.5111 84.7679 40.6802C84.7945 40.5602 84.8079 40.4402 84.8434 40.2536H82.6436C82.9324 39.0136 83.2035 37.8448 83.4835 36.6404C84.079 36.6404 84.6434 36.6227 85.2078 36.6493C85.5678 36.6671 85.7322 36.5782 85.8122 36.1871C86.0922 34.8539 86.4167 33.5295 86.7455 32.2052C86.7811 32.063 86.9588 31.8585 87.0744 31.8541C88.7943 31.8319 90.5142 31.8363 92.2696 31.8363C91.9008 33.4495 91.5452 35.0139 91.1764 36.6316H96.2116C95.9272 37.867 95.6561 39.0403 95.3805 40.2447C93.8517 40.2447 92.3585 40.258 90.8697 40.2358C90.452 40.2269 90.3053 40.3558 90.2164 40.7691C89.7009 43.12 89.1454 45.4621 88.6076 47.8086C88.5899 47.8931 88.5676 47.982 88.5587 48.0708C88.3676 49.7907 89.2654 50.5062 91.1719 50.1418C91.6074 50.0574 92.0252 49.9107 92.4563 49.8085C92.6696 49.7552 92.8918 49.733 93.2118 49.6841L93.2073 49.6752Z" fill="white"/>
<path d="M151.022 36.6404C150.839 37.4448 150.675 38.1959 150.484 39.0402C152.724 37.5026 154.946 36.196 157.799 36.6804C157.555 37.7514 157.319 38.8136 157.075 39.8757C156.959 40.3779 156.799 40.8668 156.723 41.3734C156.657 41.8179 156.421 41.8756 156.057 41.8045C154.106 41.4134 152.182 41.5556 150.266 42.0623C149.879 42.1645 149.702 42.3512 149.608 42.76C148.826 46.2131 148.013 49.6574 147.195 53.1016C147.16 53.2483 146.991 53.4749 146.88 53.4793C145.16 53.5016 143.44 53.4971 141.653 53.4971C141.924 52.3105 142.178 51.1773 142.44 50.0485C143.431 45.7732 144.431 41.4979 145.404 37.2181C145.502 36.7826 145.662 36.6226 146.129 36.6315C147.742 36.6671 149.355 36.6448 151.022 36.6448V36.6404Z" fill="white"/>
</svg>
