<svg width="60" height="60" viewBox="0 0 60 60" fill="none" xmlns="http://www.w3.org/2000/svg">
<path d="M54.375 48.75C54.375 49.2473 54.1775 49.7242 53.8258 50.0758C53.4742 50.4275 52.9973 50.625 52.5 50.625H7.5C7.00272 50.625 6.52581 50.4275 6.17417 50.0758C5.82254 49.7242 5.625 49.2473 5.625 48.75V11.25C5.625 10.7527 5.82254 10.2758 6.17417 9.92418C6.52581 9.57254 7.00272 9.375 7.5 9.375C7.99728 9.375 8.47419 9.57254 8.82582 9.92418C9.17746 10.2758 9.375 10.7527 9.375 11.25V36.7242L21.1734 24.9234C21.3476 24.7491 21.5544 24.6108 21.782 24.5165C22.0096 24.4221 22.2536 24.3735 22.5 24.3735C22.7464 24.3735 22.9904 24.4221 23.218 24.5165C23.4456 24.6108 23.6524 24.7491 23.8266 24.9234L30 31.0992L42.3492 18.75H37.5C37.0027 18.75 36.5258 18.5525 36.1742 18.2008C35.8225 17.8492 35.625 17.3723 35.625 16.875C35.625 16.3777 35.8225 15.9008 36.1742 15.5492C36.5258 15.1975 37.0027 15 37.5 15H46.875C47.3723 15 47.8492 15.1975 48.2008 15.5492C48.5525 15.9008 48.75 16.3777 48.75 16.875V26.25C48.75 26.7473 48.5525 27.2242 48.2008 27.5758C47.8492 27.9275 47.3723 28.125 46.875 28.125C46.3777 28.125 45.9008 27.9275 45.5492 27.5758C45.1975 27.2242 45 26.7473 45 26.25V21.4008L31.3266 35.0766C31.1524 35.2509 30.9456 35.3892 30.718 35.4836C30.4904 35.5779 30.2464 35.6265 30 35.6265C29.7536 35.6265 29.5096 35.5779 29.282 35.4836C29.0544 35.3892 28.8476 35.2509 28.6734 35.0766L22.5 28.9008L9.375 42.0258V46.875H52.5C52.9973 46.875 53.4742 47.0725 53.8258 47.4242C54.1775 47.7758 54.375 48.2527 54.375 48.75Z" fill="black"/>
</svg>
