<svg width="32" height="32" viewBox="0 0 32 32" fill="none" xmlns="http://www.w3.org/2000/svg">
<path d="M22.0002 28.9998C22.0002 29.265 21.8948 29.5193 21.7073 29.7069C21.5197 29.8944 21.2654 29.9998 21.0002 29.9998H11.0002C10.7349 29.9998 10.4806 29.8944 10.2931 29.7069C10.1055 29.5193 10.0002 29.265 10.0002 28.9998C10.0002 28.7346 10.1055 28.4802 10.2931 28.2927C10.4806 28.1051 10.7349 27.9998 11.0002 27.9998H21.0002C21.2654 27.9998 21.5197 28.1051 21.7073 28.2927C21.8948 28.4802 22.0002 28.7346 22.0002 28.9998ZM27.0002 12.9998C27.0045 14.6668 26.6279 16.3128 25.8991 17.8122C25.1704 19.3115 24.1087 20.6245 22.7952 21.651C22.5496 21.8393 22.3502 22.0812 22.2125 22.3583C22.0747 22.6354 22.0021 22.9403 22.0002 23.2498V23.9998C22.0002 24.5302 21.7894 25.0389 21.4144 25.414C21.0393 25.7891 20.5306 25.9998 20.0002 25.9998H12.0002C11.4697 25.9998 10.961 25.7891 10.586 25.414C10.2109 25.0389 10.0002 24.5302 10.0002 23.9998V23.2498C9.99996 22.944 9.92965 22.6424 9.79465 22.368C9.65965 22.0937 9.46355 21.854 9.22141 21.6673C7.91116 20.6468 6.85022 19.3417 6.11889 17.8507C5.38755 16.3596 5.00499 14.7218 5.00016 13.061C4.96766 7.10352 9.78266 2.14227 15.7352 1.99977C17.2019 1.96443 18.6608 2.22284 20.0261 2.7598C21.3914 3.29675 22.6355 4.1014 23.6852 5.12639C24.7349 6.15137 25.5689 7.37598 26.1382 8.72814C26.7075 10.0803 27.0006 11.5327 27.0002 12.9998ZM25.0002 12.9998C25.0005 11.7994 24.7607 10.611 24.2949 9.50463C23.8291 8.39828 23.1466 7.3963 22.2877 6.55766C21.4288 5.71903 20.4108 5.06069 19.2936 4.62141C18.1765 4.18212 16.9827 3.97076 15.7827 3.99977C10.9077 4.11477 6.97391 8.17352 7.00016 13.0485C7.00473 14.4068 7.31816 15.7462 7.91673 16.9654C8.5153 18.1846 9.38334 19.2518 10.4552 20.086C10.937 20.4606 11.3267 20.9404 11.5945 21.4888C11.8623 22.0371 12.001 22.6395 12.0002 23.2498V23.9998H20.0002V23.2498C20.0016 22.6378 20.1427 22.0342 20.4128 21.485C20.683 20.9359 21.075 20.4556 21.5589 20.081C22.634 19.2408 23.503 18.1661 24.0994 16.9388C24.6958 15.7116 25.0039 14.3643 25.0002 12.9998ZM22.9864 11.8323C22.7271 10.3839 22.0303 9.04973 20.9897 8.0094C19.9492 6.96907 18.6149 6.27252 17.1664 6.01353C17.0369 5.99169 16.9043 5.99558 16.7763 6.02498C16.6483 6.05437 16.5274 6.10869 16.4203 6.18483C16.3133 6.26098 16.2223 6.35746 16.1526 6.46876C16.0829 6.58006 16.0357 6.70401 16.0139 6.83352C15.9921 6.96304 15.996 7.09559 16.0254 7.2236C16.0548 7.35161 16.1091 7.47258 16.1852 7.5796C16.2614 7.68662 16.3578 7.7776 16.4691 7.84733C16.5804 7.91706 16.7044 7.96419 16.8339 7.98602C18.9052 8.33477 20.6627 10.0923 21.0139 12.1673C21.0535 12.4002 21.1742 12.6116 21.3548 12.7639C21.5353 12.9163 21.7639 12.9999 22.0002 12.9998C22.0567 12.9994 22.1131 12.9948 22.1689 12.986C22.4303 12.9414 22.6633 12.7948 22.8166 12.5784C22.9699 12.3621 23.031 12.0937 22.9864 11.8323Z" fill="white"/>
</svg>
