<svg width="110" height="110" viewBox="0 0 110 110" fill="none" xmlns="http://www.w3.org/2000/svg">
<path d="M89.375 17.1875H20.625C18.8016 17.1875 17.053 17.9118 15.7636 19.2011C14.4743 20.4905 13.75 22.2391 13.75 24.0625V48.125C13.75 70.7781 24.7156 84.5066 33.9152 92.0348C43.8238 100.139 53.6809 102.893 54.1105 103.005C54.7014 103.165 55.3244 103.165 55.9152 103.005C56.3449 102.893 66.1891 100.139 76.1105 92.0348C85.2844 84.5066 96.25 70.7781 96.25 48.125V24.0625C96.25 22.2391 95.5257 20.4905 94.2364 19.2011C92.947 17.9118 91.1984 17.1875 89.375 17.1875ZM89.375 24.0625V48.125C89.375 49.2895 89.3406 50.4324 89.2762 51.5625H58.4375V24.0625H89.375ZM20.625 24.0625H51.5625V51.5625H20.7238C20.6594 50.4324 20.625 49.2895 20.625 48.125V24.0625ZM21.5102 58.4375H51.5625V94.7676C46.7811 92.7115 42.3083 90.0015 38.2723 86.7152C29.1844 79.2816 23.577 69.7984 21.5188 58.4375H21.5102ZM71.9297 86.5477C67.8395 89.9038 63.2976 92.668 58.4375 94.759V58.4375H88.477C86.4359 69.7125 80.8973 79.1398 71.9297 86.5477Z" fill="black"/>
</svg>
