<svg width="90" height="90" viewBox="0 0 90 90" fill="none" xmlns="http://www.w3.org/2000/svg">
<path d="M73.125 12.6562H63.2812V8.4375C63.2812 8.06454 63.1331 7.70685 62.8694 7.44313C62.6056 7.17941 62.248 7.03125 61.875 7.03125C61.502 7.03125 61.1444 7.17941 60.8806 7.44313C60.6169 7.70685 60.4688 8.06454 60.4688 8.4375V12.6562H29.5312V8.4375C29.5312 8.06454 29.3831 7.70685 29.1194 7.44313C28.8556 7.17941 28.498 7.03125 28.125 7.03125C27.752 7.03125 27.3944 7.17941 27.1306 7.44313C26.8669 7.70685 26.7188 8.06454 26.7188 8.4375V12.6562H16.875C15.7561 12.6562 14.6831 13.1007 13.8919 13.8919C13.1007 14.6831 12.6562 15.7561 12.6562 16.875V73.125C12.6562 74.2439 13.1007 75.3169 13.8919 76.1081C14.6831 76.8993 15.7561 77.3438 16.875 77.3438H73.125C74.2439 77.3438 75.3169 76.8993 76.1081 76.1081C76.8993 75.3169 77.3438 74.2439 77.3438 73.125V16.875C77.3438 15.7561 76.8993 14.6831 76.1081 13.8919C75.3169 13.1007 74.2439 12.6562 73.125 12.6562ZM16.875 15.4688H26.7188V19.6875C26.7188 20.0605 26.8669 20.4181 27.1306 20.6819C27.3944 20.9456 27.752 21.0938 28.125 21.0938C28.498 21.0938 28.8556 20.9456 29.1194 20.6819C29.3831 20.4181 29.5312 20.0605 29.5312 19.6875V15.4688H60.4688V19.6875C60.4688 20.0605 60.6169 20.4181 60.8806 20.6819C61.1444 20.9456 61.502 21.0938 61.875 21.0938C62.248 21.0938 62.6056 20.9456 62.8694 20.6819C63.1331 20.4181 63.2812 20.0605 63.2812 19.6875V15.4688H73.125C73.498 15.4688 73.8556 15.6169 74.1194 15.8806C74.3831 16.1444 74.5312 16.502 74.5312 16.875V29.5312H15.4688V16.875C15.4688 16.502 15.6169 16.1444 15.8806 15.8806C16.1444 15.6169 16.502 15.4688 16.875 15.4688ZM73.125 74.5312H16.875C16.502 74.5312 16.1444 74.3831 15.8806 74.1194C15.6169 73.8556 15.4688 73.498 15.4688 73.125V32.3438H74.5312V73.125C74.5312 73.498 74.3831 73.8556 74.1194 74.1194C73.8556 74.3831 73.498 74.5312 73.125 74.5312ZM58.6512 44.0051C58.7819 44.1357 58.8856 44.2908 58.9564 44.4615C59.0272 44.6322 59.0636 44.8152 59.0636 45C59.0636 45.1848 59.0272 45.3678 58.9564 45.5385C58.8856 45.7092 58.7819 45.8643 58.6512 45.9949L41.7762 62.8699C41.6456 63.0007 41.4905 63.1044 41.3198 63.1752C41.149 63.2459 40.9661 63.2824 40.7812 63.2824C40.5964 63.2824 40.4135 63.2459 40.2427 63.1752C40.072 63.1044 39.9169 63.0007 39.7863 62.8699L31.3488 54.4324C31.085 54.1686 30.9367 53.8107 30.9367 53.4375C30.9367 53.0643 31.085 52.7064 31.3488 52.4426C31.6127 52.1787 31.9706 52.0305 32.3438 52.0305C32.7169 52.0305 33.0748 52.1787 33.3387 52.4426L40.7812 59.8852L56.6613 44.0051C56.7919 43.8743 56.947 43.7706 57.1177 43.6998C57.2885 43.6291 57.4714 43.5926 57.6562 43.5926C57.8411 43.5926 58.024 43.6291 58.1948 43.6998C58.3655 43.7706 58.5206 43.8743 58.6512 44.0051Z" fill="white"/>
</svg>
