<svg width="90" height="90" viewBox="0 0 90 90" fill="none" xmlns="http://www.w3.org/2000/svg">
<path d="M88.1469 38.5629L79.1716 20.6332C78.9239 20.1375 78.581 19.6955 78.1625 19.3324C77.744 18.9693 77.2581 18.6922 76.7325 18.5169C76.2069 18.3415 75.6519 18.2715 75.0992 18.3107C74.5466 18.3499 74.007 18.4976 73.5114 18.7453L64.2934 23.3367L45.3512 18.3305C45.1208 18.2697 44.8786 18.2697 44.6481 18.3305L25.7059 23.3367L16.488 18.7277C15.9924 18.48 15.4528 18.3323 14.9001 18.2931C14.3474 18.2539 13.7924 18.324 13.2668 18.4993C12.7412 18.6746 12.2553 18.9517 11.8368 19.3148C11.4183 19.678 11.0755 20.12 10.8278 20.6156L1.85241 38.5629C1.60468 39.0585 1.45699 39.598 1.4178 40.1507C1.3786 40.7034 1.44866 41.2584 1.62397 41.784C1.79928 42.3096 2.07641 42.7955 2.43953 43.214C2.80266 43.6325 3.24466 43.9754 3.74031 44.223L13.3344 49.0219L32.9341 63.0211C33.0767 63.1237 33.2379 63.1977 33.4087 63.239L55.9087 68.864C56.1428 68.9254 56.3887 68.9252 56.6228 68.8636C56.8568 68.802 57.071 68.6811 57.2446 68.5125L76.7704 48.9867L86.2626 44.2406C86.7582 43.993 87.2002 43.6501 87.5633 43.2316C87.9265 42.8131 88.2036 42.3272 88.3789 41.8016C88.5542 41.276 88.6243 40.721 88.5851 40.1683C88.5459 39.6156 88.3982 39.0761 88.1505 38.5805L88.1469 38.5629ZM70.2173 51.5531L57.1391 41.0765C56.8684 40.8593 56.5268 40.7499 56.1802 40.7694C55.8337 40.7888 55.5065 40.9358 55.2618 41.182C48.4098 48.0867 40.7282 47.1972 35.8239 44.0648C35.6434 43.949 35.4912 43.7941 35.3786 43.6115C35.266 43.429 35.1959 43.2234 35.1735 43.0101C35.1495 42.8048 35.1721 42.5967 35.2397 42.4013C35.3073 42.2059 35.418 42.0283 35.5637 41.8816L51.1942 26.7187H63.8188L74.2251 47.5348L70.2173 51.5531ZM4.29226 40.8937C4.17983 40.5455 4.20758 40.1672 4.3696 39.839L13.3591 21.8742C13.4744 21.642 13.6517 21.4463 13.8713 21.3085C14.0909 21.1708 14.3444 21.0965 14.6036 21.0937C14.8211 21.0951 15.0353 21.1468 15.2294 21.2449L23.6669 25.4637L13.4329 45.9281L4.99538 41.7094C4.83035 41.6263 4.6833 41.5115 4.56266 41.3715C4.44201 41.2316 4.35013 41.0692 4.29226 40.8937ZM55.8173 65.9426L34.3509 60.5742L15.8587 47.366L26.5251 26.0156L44.9997 21.143L55.4481 23.9062H50.6247C50.2585 23.9059 49.9066 24.0484 49.6438 24.3035L33.5774 39.8883C33.1303 40.3354 32.7894 40.8773 32.5799 41.474C32.3705 42.0706 32.2979 42.7067 32.3674 43.3352C32.4369 43.9638 32.6469 44.5686 32.9817 45.105C33.3165 45.6415 33.7676 46.0958 34.3016 46.4344C41.2907 50.9027 49.8161 49.95 56.3305 44.0402L68.2028 53.5535L55.8173 65.9426ZM85.7001 40.8937C85.6422 41.0692 85.5503 41.2316 85.4297 41.3715C85.309 41.5115 85.162 41.6263 84.9969 41.7094L76.5594 45.9281L66.3325 25.4637L74.77 21.2449C75.1019 21.0833 75.4841 21.0587 75.8341 21.1764C76.184 21.2942 76.4736 21.5448 76.6403 21.8742L85.6157 39.8215C85.7871 40.1526 85.82 40.5383 85.7071 40.8937H85.7001ZM44.9786 76.289C44.9005 76.5913 44.7241 76.859 44.4772 77.05C44.2302 77.2409 43.9267 77.3443 43.6145 77.3437C43.496 77.3442 43.378 77.33 43.263 77.3015L28.6098 73.6347C28.4382 73.5928 28.276 73.5188 28.1317 73.4168L18.8716 66.7969C18.5681 66.5801 18.3631 66.2516 18.3018 65.8837C18.2405 65.5158 18.3278 65.1386 18.5446 64.8351C18.7614 64.5316 19.0899 64.3267 19.4577 64.2654C19.8256 64.2041 20.2028 64.2914 20.5063 64.5082L29.5485 70.9664L43.9626 74.5699C44.1426 74.6154 44.3118 74.6961 44.4604 74.8073C44.6091 74.9185 44.7343 75.058 44.8287 75.2178C44.9232 75.3776 44.985 75.5546 45.0108 75.7384C45.0365 75.9223 45.0256 76.1094 44.9786 76.289Z" fill="white"/>
</svg>
