<svg width="90" height="90" viewBox="0 0 90 90" fill="none" xmlns="http://www.w3.org/2000/svg">
<path d="M52.0805 16.5234C52.174 16.1635 52.4063 15.8553 52.7265 15.6662C53.0467 15.4771 53.4288 15.4225 53.7891 15.5144C58.7677 16.8112 63.3102 19.4128 66.9477 23.051C70.5853 26.6892 73.1862 31.2321 74.4821 36.2109C74.5776 36.5708 74.5265 36.9539 74.34 37.2762C74.1535 37.5985 73.8468 37.8336 73.4871 37.9301C73.3728 37.9627 73.2545 37.9792 73.1356 37.9793C72.8246 37.9783 72.5227 37.8742 72.2772 37.6834C72.0317 37.4925 71.8563 37.2257 71.7786 36.9246C70.6054 32.4286 68.2551 28.3266 64.9695 25.0411C61.6839 21.7555 57.5819 19.4051 53.086 18.232C52.7267 18.1377 52.4193 17.9052 52.2309 17.585C52.0426 17.2649 51.9885 16.8833 52.0805 16.5234ZM50.2735 29.482C55.5469 30.8988 59.1012 34.4531 60.518 39.7266C60.5957 40.0277 60.7711 40.2945 61.0167 40.4853C61.2622 40.6762 61.5641 40.7802 61.875 40.7812C61.9939 40.7812 62.1123 40.7646 62.2266 40.732C62.5863 40.6356 62.893 40.4004 63.0795 40.0781C63.266 39.7559 63.3171 39.3728 63.2215 39.0129C61.534 32.6848 57.2977 28.466 50.9766 26.7644C50.6253 26.6965 50.2613 26.7651 49.9587 26.9561C49.6562 27.1472 49.4378 27.4465 49.3482 27.7929C49.2586 28.1393 49.3044 28.5069 49.4763 28.8207C49.6482 29.1345 49.9333 29.371 50.2735 29.482ZM77.3227 64.1883C76.7392 68.6142 74.5638 72.6762 71.2032 75.615C67.8426 78.5537 63.5268 80.1681 59.0625 80.1562C31.9219 80.1562 9.84379 58.0781 9.84379 30.9375C9.83454 26.475 11.45 22.1618 14.3885 18.8034C17.327 15.4451 21.3876 13.2712 25.8118 12.6879C26.7181 12.5777 27.6358 12.7645 28.4269 13.2203C29.218 13.6761 29.84 14.3762 30.1993 15.2156L37.6172 31.7883C37.8945 32.4309 38.0075 33.1324 37.9462 33.8296C37.8848 34.5268 37.6509 35.1977 37.2657 35.782C37.234 35.8277 37.2024 35.8734 37.1672 35.9156L29.7141 44.7785C29.5971 44.9727 29.5302 45.1928 29.5191 45.4192C29.5081 45.6456 29.5533 45.8712 29.6508 46.0758C32.4071 51.7183 38.3168 57.5824 44.0262 60.3387C44.2324 60.4343 44.459 60.4776 44.6859 60.4647C44.9128 60.4518 45.133 60.3832 45.327 60.2648L54.0704 52.8398L54.2039 52.7379C54.7891 52.3514 55.4613 52.1169 56.1598 52.0555C56.8584 51.9941 57.5612 52.1078 58.2047 52.3863L74.8055 59.8254C75.6365 60.1869 76.329 60.8064 76.7805 61.5922C77.2319 62.378 77.4184 63.2883 77.3121 64.1883H77.3227ZM73.684 62.3883L57.0762 54.9492C56.8744 54.8645 56.6554 54.8289 56.4372 54.8455C56.219 54.862 56.0079 54.9301 55.8211 55.0441L47.1094 62.4691L46.9793 62.5676C46.3736 62.972 45.6735 63.2127 44.9472 63.2663C44.2208 63.3199 43.4929 63.1846 42.8344 62.8734C36.5063 59.8183 30.2098 53.5641 27.1547 47.3098C26.8405 46.6563 26.7 45.9329 26.7468 45.2093C26.7936 44.4857 27.0261 43.7864 27.4219 43.1789C27.4536 43.1297 27.4887 43.0875 27.5239 43.0418L34.9735 34.1824C35.0851 33.9925 35.1506 33.7791 35.1647 33.5592C35.1787 33.3394 35.1409 33.1193 35.0543 32.9168L27.6223 16.3441C27.5176 16.0872 27.3392 15.867 27.1096 15.7113C26.88 15.5555 26.6095 15.4711 26.3321 15.4687C26.2759 15.4653 26.2195 15.4653 26.1633 15.4687C22.4166 15.9652 18.9789 17.8093 16.493 20.6562C14.0071 23.5031 12.6432 27.158 12.6563 30.9375C12.6563 56.5242 33.4758 77.3437 59.0625 77.3437C62.842 77.3568 66.4969 75.9929 69.3438 73.507C72.1908 71.0212 74.0348 67.5835 74.5313 63.8367C74.5637 63.5351 74.4977 63.231 74.3431 62.97C74.1885 62.7089 73.9536 62.5049 73.6735 62.3883H73.684Z" fill="white"/>
</svg>
