<svg width="90" height="90" viewBox="0 0 90 90" fill="none" xmlns="http://www.w3.org/2000/svg">
<path d="M23.8321 22.057C23.738 21.7782 23.5589 21.536 23.3198 21.3644C23.0808 21.1927 22.794 21.1004 22.4997 21.1004C22.2055 21.1004 21.9186 21.1927 21.6796 21.3644C21.4406 21.536 21.2614 21.7782 21.1673 22.057L7.10479 64.2445C7.03471 64.4557 7.01573 64.6805 7.04941 64.9004C7.08309 65.1203 7.16846 65.3291 7.29852 65.5096C7.42858 65.6901 7.59961 65.8372 7.79756 65.9387C7.99551 66.0403 8.21474 66.0934 8.43722 66.0938H36.5622C36.7847 66.0934 37.0039 66.0403 37.2019 65.9387C37.3998 65.8372 37.5709 65.6901 37.7009 65.5096C37.831 65.3291 37.9163 65.1203 37.95 64.9004C37.9837 64.6805 37.9647 64.4557 37.8946 64.2445L23.8321 22.057ZM10.3884 63.2813L22.4997 26.9473L34.611 63.2813H10.3884ZM71.7185 26.7188C71.7185 23.3812 70.7288 20.1186 68.8745 17.3435C67.0203 14.5684 64.3848 12.4055 61.3012 11.1283C58.2177 9.85106 54.8247 9.51688 51.5513 10.168C48.2779 10.8191 45.2711 12.4263 42.911 14.7863C40.551 17.1463 38.9438 20.1532 38.2927 23.4266C37.6416 26.7 37.9758 30.093 39.253 33.1765C40.5302 36.26 42.6931 38.8956 45.4682 40.7498C48.2433 42.6041 51.5059 43.5938 54.8435 43.5938C59.3176 43.5891 63.6071 41.8097 66.7708 38.646C69.9344 35.4824 71.7138 31.1929 71.7185 26.7188ZM40.781 26.7188C40.781 23.9375 41.6057 21.2186 43.1509 18.9061C44.6961 16.5935 46.8924 14.7911 49.462 13.7267C52.0316 12.6623 54.8591 12.3839 57.5869 12.9265C60.3148 13.4691 62.8205 14.8084 64.7872 16.7751C66.7538 18.7417 68.0932 21.2474 68.6358 23.9753C69.1784 26.7032 68.8999 29.5307 67.8355 32.1002C66.7712 34.6698 64.9687 36.8661 62.6562 38.4113C60.3436 39.9565 57.6248 40.7813 54.8435 40.7813C51.1139 40.7813 47.537 39.2997 44.8998 36.6624C42.2625 34.0252 40.781 30.4484 40.781 26.7188ZM78.7497 52.0313H47.8122C47.4393 52.0313 47.0816 52.1794 46.8178 52.4431C46.5541 52.7069 46.406 53.0645 46.406 53.4375V73.125C46.406 73.498 46.5541 73.8557 46.8178 74.1194C47.0816 74.3831 47.4393 74.5313 47.8122 74.5313H78.7497C79.1227 74.5313 79.4804 74.3831 79.7441 74.1194C80.0078 73.8557 80.156 73.498 80.156 73.125V53.4375C80.156 53.0645 80.0078 52.7069 79.7441 52.4431C79.4804 52.1794 79.1227 52.0313 78.7497 52.0313ZM77.3435 71.7188H49.2185V54.8438H77.3435V71.7188Z" fill="white"/>
</svg>
