<svg width="72" height="72" viewBox="0 0 72 72" fill="none" xmlns="http://www.w3.org/2000/svg">
<path d="M36 71C55.33 71 71 55.33 71 36C71 16.67 55.33 1 36 1C16.67 1 1 16.67 1 36C1 55.33 16.67 71 36 71Z" stroke="#17C7A9" stroke-width="2" stroke-linecap="round" stroke-linejoin="round"/>
<path d="M24.1201 28.22H18.1201C17.0155 28.22 16.1201 29.1154 16.1201 30.22V49.82C16.1201 50.9245 17.0155 51.82 18.1201 51.82H24.1201C25.2247 51.82 26.1201 50.9245 26.1201 49.82V30.22C26.1201 29.1154 25.2247 28.22 24.1201 28.22Z" stroke="#17C7A9" stroke-width="2" stroke-linecap="round" stroke-linejoin="round"/>
<path d="M56.1099 30.1499H43.1199L41.1099 29.9699L46.0599 22.3399C47.4799 20.2399 46.7199 17.3399 44.4099 16.1899L30.9499 32.1499H26.1099V48.1499H32.4299L34.2699 49.4999C35.7099 50.6399 37.5399 51.1499 39.4299 51.1499H51.7099C53.2299 51.1499 54.4599 50.1699 54.4599 48.6499C54.4599 47.1299 53.2299 46.1499 51.7099 46.1499H52.1999C53.9199 46.1499 55.3099 44.6099 55.3099 42.8899C55.3099 41.4599 54.1499 40.1499 52.7199 40.1499H54.0599C55.4899 40.1499 56.6499 39.0799 56.6499 37.6499C56.6499 36.2199 55.4899 35.1499 54.0599 35.1499H56.0899C57.7099 35.1499 59.0899 33.7799 59.0899 32.1599V32.1399C59.0899 30.5199 57.7099 30.1399 56.0899 30.1399L56.1099 30.1499Z" stroke="#17C7A9" stroke-width="2" stroke-linecap="round" stroke-linejoin="round"/>
<path d="M51.1201 46.1499H49.1201" stroke="#17C7A9" stroke-width="2" stroke-linecap="round" stroke-linejoin="round"/>
<path d="M52.1201 40.1499H50.1201" stroke="#17C7A9" stroke-width="2" stroke-linecap="round" stroke-linejoin="round"/>
<path d="M54.1201 35.1499H51.1201" stroke="#17C7A9" stroke-width="2" stroke-linecap="round" stroke-linejoin="round"/>
</svg>
