<svg width="72" height="72" viewBox="0 0 72 72" fill="none" xmlns="http://www.w3.org/2000/svg">
<path d="M36 71C55.33 71 71 55.33 71 36C71 16.67 55.33 1 36 1C16.67 1 1 16.67 1 36C1 55.33 16.67 71 36 71Z" stroke="#17C7A9" stroke-width="2" stroke-linecap="round" stroke-linejoin="round"/>
<path d="M36.1799 60.7299C30.0599 57.5499 14.5299 47.0499 14.3599 22.4899C19.7799 20.5599 28.6499 16.7899 36.1799 10.6799C43.7099 16.7999 52.5799 20.5699 57.9999 22.4899C57.8199 47.0499 42.2899 57.5499 36.1799 60.7299Z" stroke="#17C7A9" stroke-width="2" stroke-linecap="round" stroke-linejoin="round"/>
<path d="M46.5301 38.4999C46.5301 44.2199 41.8901 48.8599 36.1701 48.8599C30.4501 48.8599 25.8101 44.2199 25.8101 38.4999C25.8101 32.7799 30.4501 28.1399 36.1701 28.1399C39.8601 28.1399 43.1001 30.0699 44.9301 32.9699" stroke="#17C7A9" stroke-width="2" stroke-linecap="round" stroke-linejoin="round"/>
<path d="M31.2197 37.1398L35.9897 41.9098L47.5997 30.3098" stroke="#17C7A9" stroke-width="2" stroke-linecap="round" stroke-linejoin="round"/>
</svg>
