<svg width="72" height="72" viewBox="0 0 72 72" fill="none" xmlns="http://www.w3.org/2000/svg">
<path d="M57.02 20.6101H14.98C13.8754 20.6101 12.98 21.5055 12.98 22.6101V46.9601C12.98 48.0647 13.8754 48.9601 14.98 48.9601H57.02C58.1246 48.9601 59.02 48.0647 59.02 46.9601V22.6101C59.02 21.5055 58.1246 20.6101 57.02 20.6101Z" stroke="#17C7A9" stroke-width="2" stroke-linecap="round" stroke-linejoin="round"/>
<path d="M40.0202 48.96H31.9902V55.4H40.0202V48.96Z" stroke="#17C7A9" stroke-width="2" stroke-linecap="round" stroke-linejoin="round"/>
<path d="M26.02 55.3899H46.02" stroke="#17C7A9" stroke-width="2" stroke-linecap="round" stroke-linejoin="round"/>
<path d="M13.02 43.3899H59.02" stroke="#17C7A9" stroke-width="2" stroke-linecap="round" stroke-linejoin="round"/>
<path d="M26.3398 36.7199L30.5099 32.4199L35.4199 36.4499L43.5099 28.3899" stroke="#17C7A9" stroke-width="2" stroke-linecap="round" stroke-linejoin="round"/>
<path d="M44.43 31.0399L44.1499 27.4399L40.6899 27.7399" stroke="#17C7A9" stroke-width="2" stroke-linecap="round" stroke-linejoin="round"/>
<path d="M36 71C55.33 71 71 55.33 71 36C71 16.67 55.33 1 36 1C16.67 1 1 16.67 1 36C1 55.33 16.67 71 36 71Z" stroke="#17C7A9" stroke-width="2" stroke-linecap="round" stroke-linejoin="round"/>
</svg>
