<svg width="45" height="45" viewBox="0 0 45 45" fill="none" xmlns="http://www.w3.org/2000/svg">
<path opacity="0.2" d="M40.7812 22.5C40.7812 24.699 37.6488 26.3584 36.7945 28.4221C35.9719 30.4119 37.0441 33.8098 35.427 35.427C33.8098 37.0441 30.4119 35.9719 28.4221 36.7945C26.3672 37.6488 24.6973 40.7812 22.5 40.7812C20.3027 40.7812 18.6328 37.6488 16.5779 36.7945C14.5881 35.9719 11.1902 37.0441 9.57305 35.427C7.95586 33.8098 9.02813 30.4119 8.20547 28.4221C7.35117 26.3672 4.21875 24.6973 4.21875 22.5C4.21875 20.3027 7.35117 18.6328 8.20547 16.5779C9.02813 14.5898 7.95586 11.1902 9.57305 9.57305C11.1902 7.95586 14.5898 9.02813 16.5779 8.20547C18.6416 7.35117 20.3027 4.21875 22.5 4.21875C24.6973 4.21875 26.3672 7.35117 28.4221 8.20547C30.4119 9.02813 33.8098 7.95586 35.427 9.57305C37.0441 11.1902 35.9719 14.5881 36.7945 16.5779C37.6488 18.6416 40.7812 20.3027 40.7812 22.5Z" fill="#17C7A9"/>
<path d="M39.702 18.0738C39.0393 17.3812 38.3537 16.6676 38.0953 16.04C37.8563 15.4652 37.8422 14.5125 37.8281 13.5896C37.8018 11.874 37.7736 9.92988 36.4219 8.57812C35.0701 7.22637 33.126 7.19824 31.4104 7.17187C30.4875 7.15781 29.5348 7.14375 28.96 6.90469C28.3342 6.64629 27.6187 5.96074 26.9262 5.29805C25.7133 4.13262 24.3352 2.8125 22.5 2.8125C20.6648 2.8125 19.2885 4.13262 18.0738 5.29805C17.3812 5.96074 16.6676 6.64629 16.04 6.90469C15.4688 7.14375 14.5125 7.15781 13.5896 7.17187C11.874 7.19824 9.92988 7.22637 8.57812 8.57812C7.22637 9.92988 7.20703 11.874 7.17187 13.5896C7.15781 14.5125 7.14375 15.4652 6.90469 16.04C6.64629 16.6658 5.96074 17.3812 5.29805 18.0738C4.13262 19.2867 2.8125 20.6648 2.8125 22.5C2.8125 24.3352 4.13262 25.7115 5.29805 26.9262C5.96074 27.6187 6.64629 28.3324 6.90469 28.96C7.14375 29.5348 7.15781 30.4875 7.17187 31.4104C7.19824 33.126 7.22637 35.0701 8.57812 36.4219C9.92988 37.7736 11.874 37.8018 13.5896 37.8281C14.5125 37.8422 15.4652 37.8563 16.04 38.0953C16.6658 38.3537 17.3812 39.0393 18.0738 39.702C19.2867 40.8674 20.6648 42.1875 22.5 42.1875C24.3352 42.1875 25.7115 40.8674 26.9262 39.702C27.6187 39.0393 28.3324 38.3537 28.96 38.0953C29.5348 37.8563 30.4875 37.8422 31.4104 37.8281C33.126 37.8018 35.0701 37.7736 36.4219 36.4219C37.7736 35.0701 37.8018 33.126 37.8281 31.4104C37.8422 30.4875 37.8563 29.5348 38.0953 28.96C38.3537 28.3342 39.0393 27.6187 39.702 26.9262C40.8674 25.7133 42.1875 24.3352 42.1875 22.5C42.1875 20.6648 40.8674 19.2885 39.702 18.0738ZM37.6717 24.9803C36.8297 25.8592 35.9578 26.768 35.4955 27.8842C35.0525 28.9564 35.0332 30.1816 35.0156 31.3682C34.998 32.5986 34.9787 33.8871 34.432 34.432C33.8854 34.977 32.6057 34.998 31.3682 35.0156C30.1816 35.0332 28.9564 35.0525 27.8842 35.4955C26.768 35.9578 25.8592 36.8297 24.9803 37.6717C24.1014 38.5137 23.2031 39.375 22.5 39.375C21.7969 39.375 20.8916 38.5102 20.0197 37.6717C19.1479 36.8332 18.232 35.9578 17.1158 35.4955C16.0436 35.0525 14.8184 35.0332 13.6318 35.0156C12.4014 34.998 11.1129 34.9787 10.568 34.432C10.023 33.8854 10.002 32.6057 9.98437 31.3682C9.9668 30.1816 9.94746 28.9564 9.50449 27.8842C9.04219 26.768 8.17031 25.8592 7.32832 24.9803C6.48633 24.1014 5.625 23.2031 5.625 22.5C5.625 21.7969 6.48984 20.8916 7.32832 20.0197C8.1668 19.1479 9.04219 18.232 9.50449 17.1158C9.94746 16.0436 9.9668 14.8184 9.98437 13.6318C10.002 12.4014 10.0213 11.1129 10.568 10.568C11.1146 10.023 12.3943 10.002 13.6318 9.98437C14.8184 9.9668 16.0436 9.94746 17.1158 9.50449C18.232 9.04219 19.1408 8.17031 20.0197 7.32832C20.8986 6.48633 21.7969 5.625 22.5 5.625C23.2031 5.625 24.1084 6.48984 24.9803 7.32832C25.8521 8.1668 26.768 9.04219 27.8842 9.50449C28.9564 9.94746 30.1816 9.9668 31.3682 9.98437C32.5986 10.002 33.8871 10.0213 34.432 10.568C34.977 11.1146 34.998 12.3943 35.0156 13.6318C35.0332 14.8184 35.0525 16.0436 35.4955 17.1158C35.9578 18.232 36.8297 19.1408 37.6717 20.0197C38.5137 20.8986 39.375 21.7969 39.375 22.5C39.375 23.2031 38.5102 24.1084 37.6717 24.9803ZM30.5262 17.2863C30.6569 17.4169 30.7606 17.572 30.8314 17.7427C30.9022 17.9135 30.9386 18.0964 30.9386 18.2812C30.9386 18.4661 30.9022 18.649 30.8314 18.8198C30.7606 18.9905 30.6569 19.1456 30.5262 19.2762L20.6824 29.1199C20.5518 29.2507 20.3967 29.3544 20.226 29.4252C20.0553 29.4959 19.8723 29.5324 19.6875 29.5324C19.5027 29.5324 19.3197 29.4959 19.149 29.4252C18.9783 29.3544 18.8232 29.2507 18.6926 29.1199L14.4738 24.9012C14.21 24.6373 14.0617 24.2794 14.0617 23.9062C14.0617 23.5331 14.21 23.1752 14.4738 22.9113C14.7377 22.6475 15.0956 22.4992 15.4688 22.4992C15.8419 22.4992 16.1998 22.6475 16.4637 22.9113L19.6875 26.1369L28.5363 17.2863C28.6669 17.1556 28.822 17.0519 28.9927 16.9811C29.1635 16.9103 29.3464 16.8739 29.5312 16.8739C29.7161 16.8739 29.899 16.9103 30.0698 16.9811C30.2405 17.0519 30.3956 17.1556 30.5262 17.2863Z" fill="#17C7A9"/>
</svg>
