<svg width="72" height="73" viewBox="0 0 72 73" fill="none" xmlns="http://www.w3.org/2000/svg">
<path d="M36 71.22C55.33 71.22 71 55.5499 71 36.22C71 16.89 55.33 1.21997 36 1.21997C16.67 1.21997 1 16.89 1 36.22C1 55.5499 16.67 71.22 36 71.22Z" stroke="#17C7A9" stroke-width="2" stroke-linecap="round" stroke-linejoin="round"/>
<path d="M54.23 41.8C51.8 39.48 49.57 40.41 47.15 42.73L42.86 46.39V25.98C42.86 21.2 36.89 21.2 36.89 25.98V36.92C36.89 35.28 35.62 33.95 33.9 33.95C32.18 33.95 30.91 35.28 30.91 36.92V39.24C30.91 37.6 30.01 36.27 28.3 36.27C26.59 36.27 24.94 37.6 24.94 39.24V42.02C24.94 40.38 23.67 39.05 21.95 39.05C20.23 39.05 19 40.38 19 42.02L20.92 52.37C20.92 52.37 23.34 63.19 32.24 63.19C39.23 63.19 43.23 57.29 43.23 57.29L54.24 41.8H54.23Z" stroke="#17C7A9" stroke-width="2" stroke-linecap="round" stroke-linejoin="round"/>
<path d="M36.8799 35.54V40.31" stroke="#17C7A9" stroke-width="2" stroke-linecap="round" stroke-linejoin="round"/>
<path d="M30.9102 39.1201V41.5101" stroke="#17C7A9" stroke-width="2" stroke-linecap="round" stroke-linejoin="round"/>
<path d="M24.9399 41.51V43.9" stroke="#17C7A9" stroke-width="2" stroke-linecap="round" stroke-linejoin="round"/>
<path d="M31.5498 35.07C28.4698 32.56 26.5098 28.74 26.5098 24.46C26.5098 16.9 32.6398 10.78 40.1898 10.78C47.7398 10.78 53.8698 16.91 53.8698 24.46C53.8698 31.07 49.1798 36.59 42.9498 37.86" stroke="#17C7A9" stroke-width="2" stroke-linecap="round" stroke-linejoin="round"/>
<path d="M29.7102 24.78H23.7402" stroke="#17C7A9" stroke-width="2" stroke-linecap="round" stroke-linejoin="round"/>
<path d="M51.2202 24.78H56.0002" stroke="#17C7A9" stroke-width="2" stroke-linecap="round" stroke-linejoin="round"/>
<path d="M40.4702 14.03V9.25" stroke="#17C7A9" stroke-width="2" stroke-linecap="round" stroke-linejoin="round"/>
</svg>
