<svg width="110" height="110" viewBox="0 0 110 110" fill="none" xmlns="http://www.w3.org/2000/svg">
<path d="M100.547 34.4266C99.5789 33.3297 98.3887 32.4513 97.0552 31.8497C95.7216 31.2482 94.2754 30.9372 92.8125 30.9375H68.75V24.0625C68.75 19.5041 66.9392 15.1324 63.7159 11.9091C60.4926 8.68582 56.1209 6.875 51.5625 6.875C50.9239 6.87454 50.2978 7.05199 49.7544 7.38745C49.2109 7.72291 48.7717 8.20312 48.4859 8.77422L32.2523 41.25H13.75C11.9266 41.25 10.178 41.9743 8.88864 43.2636C7.59933 44.553 6.875 46.3016 6.875 48.125V85.9375C6.875 87.7609 7.59933 89.5095 8.88864 90.7989C10.178 92.0882 11.9266 92.8125 13.75 92.8125H87.6562C90.1687 92.8134 92.595 91.897 94.4795 90.2355C96.3641 88.5741 97.5774 86.2818 97.8914 83.7891L103.048 42.5391C103.23 41.0868 103.102 39.6123 102.671 38.2136C102.24 36.8148 101.516 35.5239 100.547 34.4266ZM13.75 48.125H30.9375V85.9375H13.75V48.125ZM96.2242 41.6797L91.068 82.9297C90.9633 83.7606 90.5589 84.5247 89.9307 85.0785C89.3025 85.6323 88.4937 85.9378 87.6562 85.9375H37.8125V45.4996L53.5863 13.9477C55.9242 14.4156 58.0277 15.6791 59.5389 17.5233C61.0502 19.3674 61.8757 21.6782 61.875 24.0625V34.375C61.875 35.2867 62.2372 36.161 62.8818 36.8057C63.5265 37.4503 64.4008 37.8125 65.3125 37.8125H92.8125C93.3003 37.8123 93.7825 37.916 94.2272 38.1166C94.6718 38.3172 95.0687 38.6101 95.3914 38.9759C95.7141 39.3417 95.9553 39.7719 96.0989 40.2381C96.2425 40.7043 96.2852 41.1957 96.2242 41.6797Z" fill="#17C7A9"/>
</svg>
