<svg width="24" height="25" viewBox="0 0 24 25" fill="none" xmlns="http://www.w3.org/2000/svg">
<path d="M19.125 6.5V16.25C19.125 16.5484 19.0064 16.8345 18.7955 17.0455C18.5845 17.2565 18.2983 17.375 18 17.375C17.7016 17.375 17.4154 17.2565 17.2045 17.0455C16.9935 16.8345 16.875 16.5484 16.875 16.25V9.21875L6.7959 19.2959C6.58455 19.5073 6.29791 19.626 5.99902 19.626C5.70014 19.626 5.41349 19.5073 5.20215 19.2959C4.9908 19.0846 4.87207 18.7979 4.87207 18.4991C4.87207 18.2002 4.9908 17.9135 5.20215 17.7022L15.2812 7.625H8.24996C7.95159 7.625 7.66544 7.50647 7.45446 7.2955C7.24349 7.08452 7.12496 6.79837 7.12496 6.5C7.12496 6.20163 7.24349 5.91548 7.45446 5.7045C7.66544 5.49353 7.95159 5.375 8.24996 5.375H18C18.2983 5.375 18.5845 5.49353 18.7955 5.7045C19.0064 5.91548 19.125 6.20163 19.125 6.5Z" fill="black"/>
</svg>
