<svg width="737" height="405" viewBox="0 0 737 405" fill="none" xmlns="http://www.w3.org/2000/svg">
<rect x="371" width="81" height="81" rx="20" fill="#1FCDFE"/>
<rect x="372" y="120" width="79" height="79" rx="19" fill="black" stroke="#F5B700" stroke-width="2"/>
<rect x="395" y="143" width="33" height="33" rx="16.5" fill="#F5B700"/>
<rect x="457" width="280" height="200" rx="20" fill="#F5B700"/>
<path d="M535.675 91.3438V95H523.566V91.3438H535.675ZM525.097 72.25V95H520.409V72.25H525.097ZM534.097 81.5156V85.0781H523.566V81.5156H534.097ZM535.659 72.25V75.9219H523.566V72.25H535.659ZM540.793 78.0938L543.59 83.2344L546.465 78.0938H551.262L546.481 86.3594L551.481 95H546.668L543.621 89.5625L540.574 95H535.762L540.762 86.3594L535.981 78.0938H540.793ZM559.161 91.7969C559.713 91.7969 560.203 91.6927 560.63 91.4844C561.057 91.2656 561.39 90.9635 561.63 90.5781C561.88 90.1823 562.01 89.7188 562.021 89.1875H566.255C566.245 90.375 565.927 91.4323 565.302 92.3594C564.677 93.276 563.838 94 562.786 94.5312C561.734 95.0521 560.557 95.3125 559.255 95.3125C557.943 95.3125 556.797 95.0938 555.818 94.6562C554.849 94.2188 554.041 93.6146 553.396 92.8438C552.75 92.0625 552.265 91.1562 551.943 90.125C551.62 89.0833 551.458 87.9688 551.458 86.7812V86.3281C551.458 85.1302 551.62 84.0156 551.943 82.9844C552.265 81.9427 552.75 81.0365 553.396 80.2656C554.041 79.4844 554.849 78.875 555.818 78.4375C556.786 78 557.922 77.7812 559.224 77.7812C560.609 77.7812 561.823 78.0469 562.864 78.5781C563.916 79.1094 564.739 79.8698 565.333 80.8594C565.937 81.8385 566.245 83 566.255 84.3438H562.021C562.01 83.7812 561.89 83.2708 561.661 82.8125C561.443 82.3542 561.12 81.9896 560.693 81.7188C560.276 81.4375 559.76 81.2969 559.146 81.2969C558.489 81.2969 557.953 81.4375 557.536 81.7188C557.12 81.9896 556.797 82.3646 556.568 82.8438C556.338 83.3125 556.177 83.849 556.083 84.4531C556 85.0469 555.958 85.6719 555.958 86.3281V86.7812C555.958 87.4375 556 88.0677 556.083 88.6719C556.166 89.276 556.323 89.8125 556.552 90.2812C556.791 90.75 557.12 91.1198 557.536 91.3906C557.953 91.6615 558.495 91.7969 559.161 91.7969ZM575.686 95.3125C574.373 95.3125 573.196 95.1042 572.154 94.6875C571.113 94.2604 570.227 93.6719 569.498 92.9219C568.779 92.1719 568.227 91.3021 567.842 90.3125C567.456 89.3125 567.264 88.25 567.264 87.125V86.5C567.264 85.2188 567.446 84.0469 567.811 82.9844C568.175 81.9219 568.696 81 569.373 80.2188C570.061 79.4375 570.894 78.8385 571.873 78.4219C572.852 77.9948 573.956 77.7812 575.186 77.7812C576.384 77.7812 577.446 77.9792 578.373 78.375C579.3 78.7708 580.076 79.3333 580.701 80.0625C581.337 80.7917 581.816 81.6667 582.139 82.6875C582.462 83.6979 582.623 84.8229 582.623 86.0625V87.9375H569.186V84.9375H578.201V84.5938C578.201 83.9688 578.087 83.4115 577.857 82.9219C577.639 82.4219 577.305 82.026 576.857 81.7344C576.41 81.4427 575.837 81.2969 575.139 81.2969C574.545 81.2969 574.035 81.4271 573.607 81.6875C573.18 81.9479 572.831 82.3125 572.561 82.7812C572.3 83.25 572.102 83.8021 571.967 84.4375C571.842 85.0625 571.779 85.75 571.779 86.5V87.125C571.779 87.8021 571.873 88.4271 572.061 89C572.259 89.5729 572.535 90.0677 572.889 90.4844C573.253 90.901 573.691 91.224 574.201 91.4531C574.722 91.6823 575.311 91.7969 575.967 91.7969C576.779 91.7969 577.535 91.6406 578.232 91.3281C578.941 91.0052 579.55 90.5208 580.061 89.875L582.248 92.25C581.894 92.7604 581.41 93.25 580.795 93.7188C580.191 94.1875 579.462 94.5729 578.607 94.875C577.753 95.1667 576.779 95.3125 575.686 95.3125ZM588.726 81.3438V101.5H584.226V78.0938H588.398L588.726 81.3438ZM599.429 86.3594V86.6875C599.429 87.9167 599.283 89.0573 598.991 90.1094C598.71 91.1615 598.293 92.0781 597.741 92.8594C597.189 93.6302 596.502 94.2344 595.679 94.6719C594.866 95.099 593.929 95.3125 592.866 95.3125C591.835 95.3125 590.939 95.1042 590.179 94.6875C589.418 94.2708 588.778 93.6875 588.257 92.9375C587.746 92.1771 587.335 91.2969 587.023 90.2969C586.71 89.2969 586.47 88.224 586.304 87.0781V86.2188C586.47 84.9896 586.71 83.8646 587.023 82.8438C587.335 81.8125 587.746 80.9219 588.257 80.1719C588.778 79.4115 589.413 78.8229 590.163 78.4062C590.924 77.9896 591.814 77.7812 592.835 77.7812C593.908 77.7812 594.851 77.9844 595.663 78.3906C596.486 78.7969 597.174 79.3802 597.726 80.1406C598.288 80.901 598.71 81.8073 598.991 82.8594C599.283 83.9115 599.429 85.0781 599.429 86.3594ZM594.913 86.6875V86.3594C594.913 85.6406 594.851 84.9792 594.726 84.375C594.611 83.7604 594.424 83.224 594.163 82.7656C593.913 82.3073 593.58 81.9531 593.163 81.7031C592.757 81.4427 592.262 81.3125 591.679 81.3125C591.064 81.3125 590.538 81.4115 590.101 81.6094C589.674 81.8073 589.325 82.0938 589.054 82.4688C588.783 82.8438 588.58 83.2917 588.444 83.8125C588.309 84.3333 588.226 84.9219 588.194 85.5781V87.75C588.246 88.5208 588.392 89.2135 588.632 89.8281C588.871 90.4323 589.241 90.9115 589.741 91.2656C590.241 91.6198 590.898 91.7969 591.71 91.7969C592.304 91.7969 592.804 91.6667 593.21 91.4062C593.616 91.1354 593.944 90.7656 594.194 90.2969C594.455 89.8281 594.637 89.2865 594.741 88.6719C594.856 88.0573 594.913 87.3958 594.913 86.6875ZM609.547 78.0938V81.2812H599.703V78.0938H609.547ZM602.141 73.9219H606.641V89.9062C606.641 90.3958 606.703 90.7708 606.828 91.0312C606.964 91.2917 607.161 91.474 607.422 91.5781C607.682 91.6719 608.01 91.7188 608.406 91.7188C608.688 91.7188 608.938 91.7083 609.156 91.6875C609.385 91.6562 609.578 91.625 609.734 91.5938L609.75 94.9062C609.365 95.0312 608.948 95.1302 608.5 95.2031C608.052 95.276 607.557 95.3125 607.016 95.3125C606.026 95.3125 605.161 95.151 604.422 94.8281C603.693 94.4948 603.13 93.9635 602.734 93.2344C602.339 92.5052 602.141 91.5469 602.141 90.3594V73.9219ZM615.899 78.0938V95H611.384V78.0938H615.899ZM611.103 73.6875C611.103 73.0312 611.332 72.4896 611.79 72.0625C612.248 71.6354 612.863 71.4219 613.634 71.4219C614.394 71.4219 615.004 71.6354 615.462 72.0625C615.931 72.4896 616.165 73.0312 616.165 73.6875C616.165 74.3438 615.931 74.8854 615.462 75.3125C615.004 75.7396 614.394 75.9531 613.634 75.9531C612.863 75.9531 612.248 75.7396 611.79 75.3125C611.332 74.8854 611.103 74.3438 611.103 73.6875ZM617.939 86.7188V86.3906C617.939 85.151 618.116 84.0104 618.471 82.9688C618.825 81.9167 619.34 81.0052 620.018 80.2344C620.695 79.4635 621.528 78.8646 622.518 78.4375C623.507 78 624.643 77.7812 625.924 77.7812C627.205 77.7812 628.346 78 629.346 78.4375C630.346 78.8646 631.184 79.4635 631.861 80.2344C632.549 81.0052 633.07 81.9167 633.424 82.9688C633.778 84.0104 633.955 85.151 633.955 86.3906V86.7188C633.955 87.9479 633.778 89.0885 633.424 90.1406C633.07 91.1823 632.549 92.0938 631.861 92.875C631.184 93.6458 630.351 94.2448 629.361 94.6719C628.372 95.099 627.236 95.3125 625.955 95.3125C624.674 95.3125 623.533 95.099 622.533 94.6719C621.544 94.2448 620.705 93.6458 620.018 92.875C619.34 92.0938 618.825 91.1823 618.471 90.1406C618.116 89.0885 617.939 87.9479 617.939 86.7188ZM622.439 86.3906V86.7188C622.439 87.4271 622.502 88.0885 622.627 88.7031C622.752 89.3177 622.95 89.8594 623.221 90.3281C623.502 90.7865 623.866 91.1458 624.314 91.4062C624.762 91.6667 625.309 91.7969 625.955 91.7969C626.58 91.7969 627.116 91.6667 627.564 91.4062C628.012 91.1458 628.372 90.7865 628.643 90.3281C628.913 89.8594 629.111 89.3177 629.236 88.7031C629.372 88.0885 629.439 87.4271 629.439 86.7188V86.3906C629.439 85.7031 629.372 85.0573 629.236 84.4531C629.111 83.8385 628.908 83.2969 628.627 82.8281C628.356 82.349 627.997 81.974 627.549 81.7031C627.101 81.4323 626.559 81.2969 625.924 81.2969C625.288 81.2969 624.747 81.4323 624.299 81.7031C623.861 81.974 623.502 82.349 623.221 82.8281C622.95 83.2969 622.752 83.8385 622.627 84.4531C622.502 85.0573 622.439 85.7031 622.439 86.3906ZM640.167 81.7031V95H635.667V78.0938H639.886L640.167 81.7031ZM639.511 85.9531H638.292C638.292 84.7031 638.453 83.5781 638.776 82.5781C639.099 81.5677 639.552 80.7083 640.136 80C640.719 79.2812 641.412 78.7344 642.214 78.3594C643.026 77.974 643.932 77.7812 644.932 77.7812C645.724 77.7812 646.448 77.8958 647.104 78.125C647.761 78.3542 648.323 78.7188 648.792 79.2188C649.271 79.7188 649.636 80.3802 649.886 81.2031C650.146 82.026 650.276 83.0312 650.276 84.2188V95H645.745V84.2031C645.745 83.4531 645.641 82.8698 645.432 82.4531C645.224 82.0365 644.917 81.7448 644.511 81.5781C644.115 81.401 643.625 81.3125 643.042 81.3125C642.438 81.3125 641.912 81.4323 641.464 81.6719C641.026 81.9115 640.662 82.2448 640.37 82.6719C640.089 83.0885 639.875 83.5781 639.729 84.1406C639.584 84.7031 639.511 85.3073 639.511 85.9531ZM661.863 91.1875V83.6562C661.863 83.1146 661.775 82.651 661.598 82.2656C661.42 81.8698 661.144 81.5625 660.769 81.3438C660.405 81.125 659.931 81.0156 659.348 81.0156C658.848 81.0156 658.415 81.1042 658.051 81.2812C657.686 81.4479 657.405 81.6927 657.207 82.0156C657.009 82.3281 656.91 82.6979 656.91 83.125H652.41C652.41 82.4062 652.577 81.724 652.91 81.0781C653.243 80.4323 653.728 79.8646 654.363 79.375C654.999 78.875 655.754 78.4844 656.629 78.2031C657.514 77.9219 658.504 77.7812 659.598 77.7812C660.91 77.7812 662.077 78 663.098 78.4375C664.118 78.875 664.92 79.5312 665.504 80.4062C666.098 81.2812 666.394 82.375 666.394 83.6875V90.9219C666.394 91.849 666.452 92.6094 666.566 93.2031C666.681 93.7865 666.848 94.2969 667.066 94.7344V95H662.519C662.301 94.5417 662.134 93.9688 662.019 93.2812C661.915 92.5833 661.863 91.8854 661.863 91.1875ZM662.457 84.7031L662.488 87.25H659.973C659.379 87.25 658.863 87.3177 658.426 87.4531C657.988 87.5885 657.629 87.7812 657.348 88.0312C657.066 88.2708 656.858 88.5521 656.723 88.875C656.598 89.1979 656.535 89.5521 656.535 89.9375C656.535 90.3229 656.624 90.6719 656.801 90.9844C656.978 91.2865 657.233 91.526 657.566 91.7031C657.9 91.8698 658.29 91.9531 658.738 91.9531C659.415 91.9531 660.004 91.8177 660.504 91.5469C661.004 91.276 661.389 90.9427 661.66 90.5469C661.941 90.151 662.087 89.776 662.098 89.4219L663.285 91.3281C663.118 91.7552 662.889 92.1979 662.598 92.6562C662.316 93.1146 661.957 93.5469 661.519 93.9531C661.082 94.349 660.556 94.6771 659.941 94.9375C659.327 95.1875 658.598 95.3125 657.754 95.3125C656.681 95.3125 655.707 95.099 654.832 94.6719C653.967 94.2344 653.28 93.6354 652.769 92.875C652.269 92.1042 652.019 91.2292 652.019 90.25C652.019 89.3646 652.186 88.5781 652.519 87.8906C652.853 87.2031 653.342 86.625 653.988 86.1562C654.644 85.6771 655.462 85.3177 656.441 85.0781C657.42 84.8281 658.556 84.7031 659.848 84.7031H662.457ZM673.653 71V95H669.137V71H673.653ZM531.423 104.25H539.907C541.646 104.25 543.141 104.51 544.391 105.031C545.652 105.552 546.62 106.323 547.298 107.344C547.975 108.365 548.313 109.62 548.313 111.109C548.313 112.328 548.105 113.375 547.688 114.25C547.282 115.115 546.704 115.839 545.954 116.422C545.214 116.995 544.344 117.453 543.344 117.797L541.86 118.578H534.485L534.454 114.922H539.938C540.761 114.922 541.443 114.776 541.985 114.484C542.527 114.193 542.933 113.786 543.204 113.266C543.485 112.745 543.626 112.141 543.626 111.453C543.626 110.724 543.49 110.094 543.219 109.562C542.949 109.031 542.537 108.625 541.985 108.344C541.433 108.062 540.74 107.922 539.907 107.922H536.11V127H531.423V104.25ZM544.141 127L538.954 116.859L543.907 116.828L549.157 126.781V127H544.141ZM558.463 127.312C557.15 127.312 555.973 127.104 554.931 126.688C553.89 126.26 553.004 125.672 552.275 124.922C551.556 124.172 551.004 123.302 550.619 122.312C550.233 121.312 550.041 120.25 550.041 119.125V118.5C550.041 117.219 550.223 116.047 550.588 114.984C550.952 113.922 551.473 113 552.15 112.219C552.838 111.438 553.671 110.839 554.65 110.422C555.629 109.995 556.733 109.781 557.963 109.781C559.16 109.781 560.223 109.979 561.15 110.375C562.077 110.771 562.853 111.333 563.478 112.062C564.114 112.792 564.593 113.667 564.916 114.688C565.239 115.698 565.4 116.823 565.4 118.062V119.938H551.963V116.938H560.978V116.594C560.978 115.969 560.864 115.411 560.634 114.922C560.416 114.422 560.082 114.026 559.634 113.734C559.186 113.443 558.614 113.297 557.916 113.297C557.322 113.297 556.811 113.427 556.384 113.688C555.957 113.948 555.608 114.312 555.338 114.781C555.077 115.25 554.879 115.802 554.744 116.438C554.619 117.062 554.556 117.75 554.556 118.5V119.125C554.556 119.802 554.65 120.427 554.838 121C555.035 121.573 555.311 122.068 555.666 122.484C556.03 122.901 556.468 123.224 556.978 123.453C557.499 123.682 558.088 123.797 558.744 123.797C559.556 123.797 560.311 123.641 561.009 123.328C561.718 123.005 562.327 122.521 562.838 121.875L565.025 124.25C564.671 124.76 564.186 125.25 563.572 125.719C562.968 126.188 562.239 126.573 561.384 126.875C560.53 127.167 559.556 127.312 558.463 127.312ZM576.143 122.328C576.143 122.005 576.049 121.714 575.862 121.453C575.674 121.193 575.325 120.953 574.815 120.734C574.315 120.505 573.591 120.297 572.643 120.109C571.789 119.922 570.992 119.688 570.253 119.406C569.523 119.115 568.888 118.766 568.346 118.359C567.815 117.953 567.398 117.474 567.096 116.922C566.794 116.359 566.643 115.719 566.643 115C566.643 114.292 566.794 113.625 567.096 113C567.409 112.375 567.851 111.823 568.424 111.344C569.008 110.854 569.716 110.474 570.549 110.203C571.393 109.922 572.341 109.781 573.393 109.781C574.862 109.781 576.122 110.016 577.174 110.484C578.237 110.953 579.049 111.599 579.612 112.422C580.185 113.234 580.471 114.161 580.471 115.203H575.971C575.971 114.766 575.878 114.375 575.69 114.031C575.513 113.677 575.232 113.401 574.846 113.203C574.471 112.995 573.982 112.891 573.378 112.891C572.878 112.891 572.445 112.979 572.081 113.156C571.716 113.323 571.435 113.552 571.237 113.844C571.049 114.125 570.956 114.438 570.956 114.781C570.956 115.042 571.008 115.276 571.112 115.484C571.226 115.682 571.409 115.865 571.659 116.031C571.909 116.198 572.232 116.354 572.628 116.5C573.034 116.635 573.534 116.76 574.128 116.875C575.346 117.125 576.435 117.453 577.393 117.859C578.351 118.255 579.112 118.797 579.674 119.484C580.237 120.161 580.518 121.052 580.518 122.156C580.518 122.906 580.351 123.594 580.018 124.219C579.685 124.844 579.206 125.391 578.581 125.859C577.956 126.318 577.206 126.677 576.331 126.938C575.466 127.188 574.492 127.312 573.409 127.312C571.836 127.312 570.503 127.031 569.409 126.469C568.325 125.906 567.503 125.193 566.94 124.328C566.388 123.453 566.112 122.557 566.112 121.641H570.378C570.398 122.255 570.555 122.75 570.846 123.125C571.148 123.5 571.529 123.771 571.987 123.938C572.456 124.104 572.961 124.188 573.503 124.188C574.086 124.188 574.57 124.109 574.956 123.953C575.341 123.786 575.633 123.568 575.831 123.297C576.039 123.016 576.143 122.693 576.143 122.328ZM586.98 113.344V133.5H582.48V110.094H586.652L586.98 113.344ZM597.683 118.359V118.688C597.683 119.917 597.537 121.057 597.246 122.109C596.964 123.161 596.548 124.078 595.996 124.859C595.444 125.63 594.756 126.234 593.933 126.672C593.121 127.099 592.183 127.312 591.121 127.312C590.089 127.312 589.194 127.104 588.433 126.688C587.673 126.271 587.032 125.688 586.511 124.938C586.001 124.177 585.589 123.297 585.277 122.297C584.964 121.297 584.725 120.224 584.558 119.078V118.219C584.725 116.99 584.964 115.865 585.277 114.844C585.589 113.812 586.001 112.922 586.511 112.172C587.032 111.411 587.667 110.823 588.417 110.406C589.178 109.99 590.069 109.781 591.089 109.781C592.162 109.781 593.105 109.984 593.917 110.391C594.74 110.797 595.428 111.38 595.98 112.141C596.542 112.901 596.964 113.807 597.246 114.859C597.537 115.911 597.683 117.078 597.683 118.359ZM593.167 118.688V118.359C593.167 117.641 593.105 116.979 592.98 116.375C592.865 115.76 592.678 115.224 592.417 114.766C592.167 114.307 591.834 113.953 591.417 113.703C591.011 113.443 590.516 113.312 589.933 113.312C589.319 113.312 588.792 113.411 588.355 113.609C587.928 113.807 587.579 114.094 587.308 114.469C587.037 114.844 586.834 115.292 586.699 115.812C586.563 116.333 586.48 116.922 586.449 117.578V119.75C586.501 120.521 586.647 121.214 586.886 121.828C587.126 122.432 587.496 122.911 587.996 123.266C588.496 123.62 589.152 123.797 589.964 123.797C590.558 123.797 591.058 123.667 591.464 123.406C591.871 123.135 592.199 122.766 592.449 122.297C592.709 121.828 592.891 121.286 592.996 120.672C593.11 120.057 593.167 119.396 593.167 118.688ZM598.801 118.719V118.391C598.801 117.151 598.978 116.01 599.333 114.969C599.687 113.917 600.202 113.005 600.879 112.234C601.556 111.464 602.39 110.865 603.379 110.438C604.369 110 605.504 109.781 606.786 109.781C608.067 109.781 609.208 110 610.208 110.438C611.208 110.865 612.046 111.464 612.723 112.234C613.411 113.005 613.931 113.917 614.286 114.969C614.64 116.01 614.817 117.151 614.817 118.391V118.719C614.817 119.948 614.64 121.089 614.286 122.141C613.931 123.182 613.411 124.094 612.723 124.875C612.046 125.646 611.213 126.245 610.223 126.672C609.234 127.099 608.098 127.312 606.817 127.312C605.536 127.312 604.395 127.099 603.395 126.672C602.405 126.245 601.567 125.646 600.879 124.875C600.202 124.094 599.687 123.182 599.333 122.141C598.978 121.089 598.801 119.948 598.801 118.719ZM603.301 118.391V118.719C603.301 119.427 603.364 120.089 603.489 120.703C603.614 121.318 603.812 121.859 604.083 122.328C604.364 122.786 604.728 123.146 605.176 123.406C605.624 123.667 606.171 123.797 606.817 123.797C607.442 123.797 607.978 123.667 608.426 123.406C608.874 123.146 609.234 122.786 609.504 122.328C609.775 121.859 609.973 121.318 610.098 120.703C610.234 120.089 610.301 119.427 610.301 118.719V118.391C610.301 117.703 610.234 117.057 610.098 116.453C609.973 115.839 609.77 115.297 609.489 114.828C609.218 114.349 608.859 113.974 608.411 113.703C607.963 113.432 607.421 113.297 606.786 113.297C606.15 113.297 605.609 113.432 605.161 113.703C604.723 113.974 604.364 114.349 604.083 114.828C603.812 115.297 603.614 115.839 603.489 116.453C603.364 117.057 603.301 117.703 603.301 118.391ZM621.029 113.703V127H616.529V110.094H620.747L621.029 113.703ZM620.372 117.953H619.154C619.154 116.703 619.315 115.578 619.638 114.578C619.961 113.568 620.414 112.708 620.997 112C621.581 111.281 622.274 110.734 623.076 110.359C623.888 109.974 624.794 109.781 625.794 109.781C626.586 109.781 627.31 109.896 627.966 110.125C628.622 110.354 629.185 110.719 629.654 111.219C630.133 111.719 630.497 112.38 630.747 113.203C631.008 114.026 631.138 115.031 631.138 116.219V127H626.607V116.203C626.607 115.453 626.503 114.87 626.294 114.453C626.086 114.036 625.779 113.745 625.372 113.578C624.977 113.401 624.487 113.312 623.904 113.312C623.3 113.312 622.774 113.432 622.326 113.672C621.888 113.911 621.524 114.245 621.232 114.672C620.951 115.089 620.737 115.578 620.591 116.141C620.445 116.703 620.372 117.307 620.372 117.953ZM642.741 122.328C642.741 122.005 642.647 121.714 642.459 121.453C642.272 121.193 641.923 120.953 641.413 120.734C640.913 120.505 640.189 120.297 639.241 120.109C638.386 119.922 637.59 119.688 636.85 119.406C636.121 119.115 635.485 118.766 634.944 118.359C634.413 117.953 633.996 117.474 633.694 116.922C633.392 116.359 633.241 115.719 633.241 115C633.241 114.292 633.392 113.625 633.694 113C634.006 112.375 634.449 111.823 635.022 111.344C635.605 110.854 636.314 110.474 637.147 110.203C637.991 109.922 638.939 109.781 639.991 109.781C641.459 109.781 642.72 110.016 643.772 110.484C644.834 110.953 645.647 111.599 646.209 112.422C646.782 113.234 647.069 114.161 647.069 115.203H642.569C642.569 114.766 642.475 114.375 642.288 114.031C642.11 113.677 641.829 113.401 641.444 113.203C641.069 112.995 640.579 112.891 639.975 112.891C639.475 112.891 639.043 112.979 638.678 113.156C638.314 113.323 638.032 113.552 637.834 113.844C637.647 114.125 637.553 114.438 637.553 114.781C637.553 115.042 637.605 115.276 637.709 115.484C637.824 115.682 638.006 115.865 638.256 116.031C638.506 116.198 638.829 116.354 639.225 116.5C639.631 116.635 640.131 116.76 640.725 116.875C641.944 117.125 643.032 117.453 643.991 117.859C644.949 118.255 645.709 118.797 646.272 119.484C646.834 120.161 647.116 121.052 647.116 122.156C647.116 122.906 646.949 123.594 646.616 124.219C646.282 124.844 645.803 125.391 645.178 125.859C644.553 126.318 643.803 126.677 642.928 126.938C642.064 127.188 641.09 127.312 640.006 127.312C638.433 127.312 637.1 127.031 636.006 126.469C634.923 125.906 634.1 125.193 633.538 124.328C632.985 123.453 632.709 122.557 632.709 121.641H636.975C636.996 122.255 637.152 122.75 637.444 123.125C637.746 123.5 638.126 123.771 638.584 123.938C639.053 124.104 639.558 124.188 640.1 124.188C640.683 124.188 641.168 124.109 641.553 123.953C641.939 123.786 642.23 123.568 642.428 123.297C642.636 123.016 642.741 122.693 642.741 122.328ZM656.859 127.312C655.546 127.312 654.369 127.104 653.327 126.688C652.286 126.26 651.4 125.672 650.671 124.922C649.952 124.172 649.4 123.302 649.015 122.312C648.63 121.312 648.437 120.25 648.437 119.125V118.5C648.437 117.219 648.619 116.047 648.984 114.984C649.348 113.922 649.869 113 650.546 112.219C651.234 111.438 652.067 110.839 653.046 110.422C654.025 109.995 655.13 109.781 656.359 109.781C657.557 109.781 658.619 109.979 659.546 110.375C660.473 110.771 661.249 111.333 661.874 112.062C662.51 112.792 662.989 113.667 663.312 114.688C663.635 115.698 663.796 116.823 663.796 118.062V119.938H650.359V116.938H659.374V116.594C659.374 115.969 659.26 115.411 659.031 114.922C658.812 114.422 658.479 114.026 658.031 113.734C657.583 113.443 657.01 113.297 656.312 113.297C655.718 113.297 655.208 113.427 654.781 113.688C654.354 113.948 654.005 114.312 653.734 114.781C653.473 115.25 653.275 115.802 653.14 116.438C653.015 117.062 652.952 117.75 652.952 118.5V119.125C652.952 119.802 653.046 120.427 653.234 121C653.432 121.573 653.708 122.068 654.062 122.484C654.426 122.901 654.864 123.224 655.374 123.453C655.895 123.682 656.484 123.797 657.14 123.797C657.952 123.797 658.708 123.641 659.406 123.328C660.114 123.005 660.723 122.521 661.234 121.875L663.421 124.25C663.067 124.76 662.583 125.25 661.968 125.719C661.364 126.188 660.635 126.573 659.781 126.875C658.926 127.167 657.952 127.312 656.859 127.312Z" fill="black"/>
<rect x="371" y="205" width="280" height="200" rx="20" fill="#1FCDFE"/>
<path d="M496.003 286.516V290.172H484.128V286.516H496.003ZM485.518 277.25V300H480.831V277.25H485.518ZM499.346 277.25V300H494.674V277.25H499.346ZM506.933 283.094V300H502.418V283.094H506.933ZM502.136 278.688C502.136 278.031 502.365 277.49 502.824 277.062C503.282 276.635 503.897 276.422 504.668 276.422C505.428 276.422 506.037 276.635 506.496 277.062C506.964 277.49 507.199 278.031 507.199 278.688C507.199 279.344 506.964 279.885 506.496 280.312C506.037 280.74 505.428 280.953 504.668 280.953C503.897 280.953 503.282 280.74 502.824 280.312C502.365 279.885 502.136 279.344 502.136 278.688ZM520.395 283.094H524.473V299.438C524.473 300.979 524.129 302.286 523.442 303.359C522.765 304.443 521.817 305.26 520.598 305.812C519.379 306.375 517.963 306.656 516.348 306.656C515.64 306.656 514.89 306.562 514.098 306.375C513.317 306.188 512.567 305.896 511.848 305.5C511.14 305.104 510.546 304.604 510.067 304L512.051 301.344C512.572 301.948 513.176 302.417 513.864 302.75C514.551 303.094 515.312 303.266 516.145 303.266C516.958 303.266 517.645 303.115 518.208 302.812C518.77 302.521 519.202 302.089 519.504 301.516C519.806 300.953 519.958 300.271 519.958 299.469V287L520.395 283.094ZM509.02 291.75V291.422C509.02 290.13 509.176 288.958 509.489 287.906C509.812 286.844 510.265 285.932 510.848 285.172C511.442 284.411 512.161 283.823 513.004 283.406C513.848 282.99 514.801 282.781 515.864 282.781C516.989 282.781 517.931 282.99 518.692 283.406C519.452 283.823 520.077 284.417 520.567 285.188C521.056 285.948 521.437 286.849 521.708 287.891C521.989 288.922 522.208 290.052 522.364 291.281V292C522.208 293.177 521.973 294.271 521.661 295.281C521.348 296.292 520.937 297.177 520.426 297.938C519.916 298.688 519.28 299.271 518.52 299.688C517.77 300.104 516.874 300.312 515.833 300.312C514.791 300.312 513.848 300.099 513.004 299.672C512.171 299.245 511.458 298.646 510.864 297.875C510.27 297.104 509.812 296.198 509.489 295.156C509.176 294.115 509.02 292.979 509.02 291.75ZM513.52 291.422V291.75C513.52 292.448 513.588 293.099 513.723 293.703C513.859 294.307 514.067 294.844 514.348 295.312C514.64 295.771 514.999 296.13 515.426 296.391C515.864 296.641 516.379 296.766 516.973 296.766C517.796 296.766 518.468 296.594 518.989 296.25C519.51 295.896 519.9 295.411 520.161 294.797C520.421 294.182 520.572 293.474 520.614 292.672V290.625C520.593 289.969 520.504 289.38 520.348 288.859C520.192 288.328 519.973 287.875 519.692 287.5C519.411 287.125 519.046 286.833 518.598 286.625C518.15 286.417 517.619 286.312 517.004 286.312C516.411 286.312 515.895 286.448 515.458 286.719C515.03 286.979 514.671 287.339 514.379 287.797C514.098 288.255 513.885 288.797 513.739 289.422C513.593 290.036 513.52 290.703 513.52 291.422ZM531.404 276V300H526.904V276H531.404ZM530.763 290.953H529.529C529.539 289.776 529.695 288.693 529.997 287.703C530.3 286.703 530.732 285.839 531.294 285.109C531.857 284.37 532.529 283.797 533.31 283.391C534.102 282.984 534.977 282.781 535.935 282.781C536.768 282.781 537.524 282.901 538.201 283.141C538.888 283.37 539.477 283.745 539.966 284.266C540.466 284.776 540.852 285.448 541.122 286.281C541.393 287.115 541.529 288.125 541.529 289.312V300H536.997V289.281C536.997 288.531 536.888 287.943 536.669 287.516C536.461 287.078 536.154 286.771 535.747 286.594C535.352 286.406 534.862 286.312 534.279 286.312C533.633 286.312 533.081 286.432 532.622 286.672C532.175 286.911 531.815 287.245 531.544 287.672C531.274 288.089 531.076 288.578 530.951 289.141C530.826 289.703 530.763 290.307 530.763 290.953ZM448.436 313.141L442.249 332H437.264L445.717 309.25H448.889L448.436 313.141ZM453.577 332L447.374 313.141L446.874 309.25H450.077L458.577 332H453.577ZM453.296 323.531V327.203H441.28V323.531H453.296ZM464.414 328.719L468.164 315.094H472.867L467.164 332H464.32L464.414 328.719ZM461.836 315.094L465.601 328.734L465.679 332H462.82L457.117 315.094H461.836ZM482.798 328.188V320.656C482.798 320.115 482.709 319.651 482.532 319.266C482.355 318.87 482.079 318.562 481.704 318.344C481.339 318.125 480.865 318.016 480.282 318.016C479.782 318.016 479.35 318.104 478.985 318.281C478.62 318.448 478.339 318.693 478.141 319.016C477.943 319.328 477.844 319.698 477.844 320.125H473.344C473.344 319.406 473.511 318.724 473.844 318.078C474.178 317.432 474.662 316.865 475.298 316.375C475.933 315.875 476.688 315.484 477.563 315.203C478.449 314.922 479.438 314.781 480.532 314.781C481.844 314.781 483.011 315 484.032 315.438C485.053 315.875 485.855 316.531 486.438 317.406C487.032 318.281 487.329 319.375 487.329 320.688V327.922C487.329 328.849 487.386 329.609 487.501 330.203C487.615 330.786 487.782 331.297 488.001 331.734V332H483.454C483.235 331.542 483.068 330.969 482.954 330.281C482.85 329.583 482.798 328.885 482.798 328.188ZM483.391 321.703L483.423 324.25H480.907C480.313 324.25 479.798 324.318 479.36 324.453C478.923 324.589 478.563 324.781 478.282 325.031C478.001 325.271 477.792 325.552 477.657 325.875C477.532 326.198 477.469 326.552 477.469 326.938C477.469 327.323 477.558 327.672 477.735 327.984C477.912 328.286 478.167 328.526 478.501 328.703C478.834 328.87 479.225 328.953 479.673 328.953C480.35 328.953 480.938 328.818 481.438 328.547C481.938 328.276 482.324 327.943 482.594 327.547C482.876 327.151 483.021 326.776 483.032 326.422L484.219 328.328C484.053 328.755 483.824 329.198 483.532 329.656C483.251 330.115 482.891 330.547 482.454 330.953C482.016 331.349 481.49 331.677 480.876 331.938C480.261 332.188 479.532 332.312 478.688 332.312C477.615 332.312 476.641 332.099 475.766 331.672C474.902 331.234 474.214 330.635 473.704 329.875C473.204 329.104 472.954 328.229 472.954 327.25C472.954 326.365 473.12 325.578 473.454 324.891C473.787 324.203 474.277 323.625 474.923 323.156C475.579 322.677 476.396 322.318 477.376 322.078C478.355 321.828 479.49 321.703 480.782 321.703H483.391ZM494.587 315.094V332H490.072V315.094H494.587ZM489.791 310.688C489.791 310.031 490.02 309.49 490.478 309.062C490.936 308.635 491.551 308.422 492.322 308.422C493.082 308.422 493.692 308.635 494.15 309.062C494.619 309.49 494.853 310.031 494.853 310.688C494.853 311.344 494.619 311.885 494.15 312.312C493.692 312.74 493.082 312.953 492.322 312.953C491.551 312.953 490.936 312.74 490.478 312.312C490.02 311.885 489.791 311.344 489.791 310.688ZM502.096 308V332H497.581V308H502.096ZM513.98 328.188V320.656C513.98 320.115 513.891 319.651 513.714 319.266C513.537 318.87 513.261 318.562 512.886 318.344C512.522 318.125 512.048 318.016 511.464 318.016C510.964 318.016 510.532 318.104 510.167 318.281C509.803 318.448 509.522 318.693 509.324 319.016C509.126 319.328 509.027 319.698 509.027 320.125H504.527C504.527 319.406 504.694 318.724 505.027 318.078C505.36 317.432 505.845 316.865 506.48 316.375C507.115 315.875 507.871 315.484 508.746 315.203C509.631 314.922 510.621 314.781 511.714 314.781C513.027 314.781 514.194 315 515.214 315.438C516.235 315.875 517.037 316.531 517.621 317.406C518.214 318.281 518.511 319.375 518.511 320.688V327.922C518.511 328.849 518.569 329.609 518.683 330.203C518.798 330.786 518.964 331.297 519.183 331.734V332H514.636C514.417 331.542 514.251 330.969 514.136 330.281C514.032 329.583 513.98 328.885 513.98 328.188ZM514.574 321.703L514.605 324.25H512.089C511.496 324.25 510.98 324.318 510.542 324.453C510.105 324.589 509.746 324.781 509.464 325.031C509.183 325.271 508.975 325.552 508.839 325.875C508.714 326.198 508.652 326.552 508.652 326.938C508.652 327.323 508.74 327.672 508.917 327.984C509.095 328.286 509.35 328.526 509.683 328.703C510.016 328.87 510.407 328.953 510.855 328.953C511.532 328.953 512.121 328.818 512.621 328.547C513.121 328.276 513.506 327.943 513.777 327.547C514.058 327.151 514.204 326.776 514.214 326.422L515.402 328.328C515.235 328.755 515.006 329.198 514.714 329.656C514.433 330.115 514.074 330.547 513.636 330.953C513.199 331.349 512.673 331.677 512.058 331.938C511.444 332.188 510.714 332.312 509.871 332.312C508.798 332.312 507.824 332.099 506.949 331.672C506.084 331.234 505.397 330.635 504.886 329.875C504.386 329.104 504.136 328.229 504.136 327.25C504.136 326.365 504.303 325.578 504.636 324.891C504.97 324.203 505.459 323.625 506.105 323.156C506.761 322.677 507.579 322.318 508.558 322.078C509.537 321.828 510.673 321.703 511.964 321.703H514.574ZM521.02 308H525.52V328.125L525.067 332H521.02V308ZM536.223 323.375V323.703C536.223 324.964 536.088 326.12 535.817 327.172C535.556 328.224 535.15 329.135 534.598 329.906C534.046 330.667 533.359 331.26 532.536 331.688C531.723 332.104 530.765 332.312 529.661 332.312C528.629 332.312 527.734 332.104 526.973 331.688C526.223 331.271 525.593 330.682 525.082 329.922C524.572 329.161 524.161 328.271 523.848 327.25C523.536 326.229 523.301 325.115 523.145 323.906V323.188C523.301 321.979 523.536 320.865 523.848 319.844C524.161 318.823 524.572 317.932 525.082 317.172C525.593 316.411 526.223 315.823 526.973 315.406C527.723 314.99 528.609 314.781 529.629 314.781C530.744 314.781 531.713 314.995 532.536 315.422C533.369 315.839 534.056 316.432 534.598 317.203C535.15 317.964 535.556 318.87 535.817 319.922C536.088 320.964 536.223 322.115 536.223 323.375ZM531.723 323.703V323.375C531.723 322.688 531.671 322.042 531.567 321.438C531.473 320.823 531.306 320.286 531.067 319.828C530.827 319.359 530.499 318.99 530.082 318.719C529.676 318.448 529.15 318.312 528.504 318.312C527.89 318.312 527.369 318.417 526.942 318.625C526.515 318.833 526.161 319.125 525.879 319.5C525.609 319.875 525.405 320.323 525.27 320.844C525.135 321.354 525.051 321.917 525.02 322.531V324.578C525.051 325.401 525.187 326.13 525.426 326.766C525.676 327.391 526.051 327.885 526.551 328.25C527.062 328.604 527.723 328.781 528.536 328.781C529.171 328.781 529.697 328.656 530.114 328.406C530.53 328.156 530.853 327.802 531.082 327.344C531.322 326.885 531.489 326.349 531.582 325.734C531.676 325.109 531.723 324.432 531.723 323.703ZM542.81 315.094V332H538.294V315.094H542.81ZM538.013 310.688C538.013 310.031 538.242 309.49 538.701 309.062C539.159 308.635 539.774 308.422 540.544 308.422C541.305 308.422 541.914 308.635 542.372 309.062C542.841 309.49 543.076 310.031 543.076 310.688C543.076 311.344 542.841 311.885 542.372 312.312C541.914 312.74 541.305 312.953 540.544 312.953C539.774 312.953 539.159 312.74 538.701 312.312C538.242 311.885 538.013 311.344 538.013 310.688ZM550.319 308V332H545.803V308H550.319ZM557.827 315.094V332H553.312V315.094H557.827ZM553.031 310.688C553.031 310.031 553.26 309.49 553.718 309.062C554.176 308.635 554.791 308.422 555.562 308.422C556.322 308.422 556.932 308.635 557.39 309.062C557.859 309.49 558.093 310.031 558.093 310.688C558.093 311.344 557.859 311.885 557.39 312.312C556.932 312.74 556.322 312.953 555.562 312.953C554.791 312.953 554.176 312.74 553.718 312.312C553.26 311.885 553.031 311.344 553.031 310.688ZM568.867 315.094V318.281H559.024V315.094H568.867ZM561.461 310.922H565.961V326.906C565.961 327.396 566.024 327.771 566.149 328.031C566.284 328.292 566.482 328.474 566.742 328.578C567.003 328.672 567.331 328.719 567.727 328.719C568.008 328.719 568.258 328.708 568.477 328.688C568.706 328.656 568.899 328.625 569.055 328.594L569.071 331.906C568.685 332.031 568.269 332.13 567.821 332.203C567.373 332.276 566.878 332.312 566.336 332.312C565.347 332.312 564.482 332.151 563.742 331.828C563.013 331.495 562.451 330.964 562.055 330.234C561.659 329.505 561.461 328.547 561.461 327.359V310.922ZM575.486 330.094L579.97 315.094H584.798L578.001 334.547C577.855 334.974 577.658 335.432 577.408 335.922C577.168 336.411 576.84 336.875 576.423 337.312C576.017 337.76 575.501 338.125 574.876 338.406C574.262 338.688 573.506 338.828 572.611 338.828C572.184 338.828 571.835 338.802 571.564 338.75C571.293 338.698 570.97 338.625 570.595 338.531V335.234C570.71 335.234 570.829 335.234 570.954 335.234C571.079 335.245 571.199 335.25 571.314 335.25C571.908 335.25 572.392 335.182 572.767 335.047C573.142 334.911 573.444 334.703 573.673 334.422C573.902 334.151 574.085 333.797 574.22 333.359L575.486 330.094ZM573.611 315.094L577.283 327.344L577.923 332.109L574.861 332.438L568.783 315.094H573.611Z" fill="black"/>
<rect x="656" y="205" width="81" height="81" rx="20" fill="#F5B700"/>
<rect x="657" y="325" width="79" height="79" rx="19" fill="black" stroke="#1FCDFE" stroke-width="2"/>
<rect x="680" y="348" width="33" height="33" rx="16.5" fill="#1FCDFE"/>
<rect x="86" width="280" height="200" rx="20" fill="#5A5D68"/>
<path d="M188.927 89.0469C188.927 88.6406 188.864 88.276 188.739 87.9531C188.625 87.6198 188.406 87.3177 188.083 87.0469C187.76 86.7656 187.307 86.4896 186.724 86.2188C186.14 85.9479 185.385 85.6667 184.458 85.375C183.427 85.0417 182.448 84.6667 181.521 84.25C180.604 83.8333 179.791 83.349 179.083 82.7969C178.385 82.2344 177.833 81.5833 177.427 80.8438C177.031 80.1042 176.833 79.2448 176.833 78.2656C176.833 77.3177 177.041 76.4583 177.458 75.6875C177.875 74.9062 178.458 74.2396 179.208 73.6875C179.958 73.125 180.844 72.6927 181.864 72.3906C182.896 72.0885 184.026 71.9375 185.255 71.9375C186.932 71.9375 188.396 72.2396 189.646 72.8438C190.896 73.4479 191.864 74.276 192.552 75.3281C193.25 76.3802 193.599 77.5833 193.599 78.9375H188.943C188.943 78.2708 188.802 77.6875 188.521 77.1875C188.25 76.6771 187.833 76.276 187.271 75.9844C186.719 75.6927 186.021 75.5469 185.177 75.5469C184.364 75.5469 183.687 75.6719 183.146 75.9219C182.604 76.1615 182.198 76.4896 181.927 76.9062C181.656 77.3125 181.521 77.7708 181.521 78.2812C181.521 78.6667 181.614 79.0156 181.802 79.3281C182 79.6406 182.291 79.9323 182.677 80.2031C183.062 80.474 183.536 80.7292 184.099 80.9688C184.661 81.2083 185.312 81.4427 186.052 81.6719C187.291 82.0469 188.38 82.4688 189.318 82.9375C190.265 83.4062 191.057 83.9323 191.693 84.5156C192.328 85.099 192.807 85.7604 193.13 86.5C193.453 87.2396 193.614 88.0781 193.614 89.0156C193.614 90.0052 193.422 90.8906 193.036 91.6719C192.651 92.4531 192.094 93.1146 191.364 93.6562C190.635 94.1979 189.765 94.6094 188.755 94.8906C187.745 95.1719 186.614 95.3125 185.364 95.3125C184.239 95.3125 183.13 95.1667 182.036 94.875C180.943 94.5729 179.948 94.1198 179.052 93.5156C178.166 92.9115 177.458 92.1406 176.927 91.2031C176.396 90.2656 176.13 89.1562 176.13 87.875H180.833C180.833 88.5833 180.943 89.1823 181.161 89.6719C181.38 90.1615 181.687 90.5573 182.083 90.8594C182.489 91.1615 182.969 91.3802 183.521 91.5156C184.083 91.651 184.698 91.7188 185.364 91.7188C186.177 91.7188 186.844 91.6042 187.364 91.375C187.896 91.1458 188.286 90.8281 188.536 90.4219C188.797 90.0156 188.927 89.5573 188.927 89.0469ZM203.342 95.3125C202.029 95.3125 200.852 95.1042 199.811 94.6875C198.769 94.2604 197.884 93.6719 197.154 92.9219C196.436 92.1719 195.884 91.3021 195.498 90.3125C195.113 89.3125 194.92 88.25 194.92 87.125V86.5C194.92 85.2188 195.102 84.0469 195.467 82.9844C195.831 81.9219 196.352 81 197.029 80.2188C197.717 79.4375 198.55 78.8385 199.529 78.4219C200.509 77.9948 201.613 77.7812 202.842 77.7812C204.04 77.7812 205.102 77.9792 206.029 78.375C206.956 78.7708 207.733 79.3333 208.358 80.0625C208.993 80.7917 209.472 81.6667 209.795 82.6875C210.118 83.6979 210.279 84.8229 210.279 86.0625V87.9375H196.842V84.9375H205.858V84.5938C205.858 83.9688 205.743 83.4115 205.514 82.9219C205.295 82.4219 204.962 82.026 204.514 81.7344C204.066 81.4427 203.493 81.2969 202.795 81.2969C202.201 81.2969 201.691 81.4271 201.264 81.6875C200.837 81.9479 200.488 82.3125 200.217 82.7812C199.956 83.25 199.759 83.8021 199.623 84.4375C199.498 85.0625 199.436 85.75 199.436 86.5V87.125C199.436 87.8021 199.529 88.4271 199.717 89C199.915 89.5729 200.191 90.0677 200.545 90.4844C200.91 90.901 201.347 91.224 201.858 91.4531C202.378 91.6823 202.967 91.7969 203.623 91.7969C204.436 91.7969 205.191 91.6406 205.889 91.3281C206.597 91.0052 207.206 90.5208 207.717 89.875L209.904 92.25C209.55 92.7604 209.066 93.25 208.451 93.7188C207.847 94.1875 207.118 94.5729 206.264 94.875C205.41 95.1667 204.436 95.3125 203.342 95.3125ZM216.382 81.7812V95H211.882V78.0938H216.116L216.382 81.7812ZM221.476 77.9844L221.398 82.1562C221.179 82.125 220.913 82.099 220.601 82.0781C220.299 82.0469 220.023 82.0312 219.773 82.0312C219.137 82.0312 218.585 82.1146 218.116 82.2812C217.658 82.4375 217.273 82.6719 216.96 82.9844C216.658 83.2969 216.429 83.6771 216.273 84.125C216.127 84.5729 216.043 85.0833 216.023 85.6562L215.116 85.375C215.116 84.2812 215.226 83.276 215.444 82.3594C215.663 81.4323 215.981 80.625 216.398 79.9375C216.825 79.25 217.345 78.7188 217.96 78.3438C218.575 77.9688 219.278 77.7812 220.069 77.7812C220.319 77.7812 220.575 77.8021 220.835 77.8438C221.095 77.875 221.309 77.9219 221.476 77.9844ZM228.672 91.7188L232.422 78.0938H237.125L231.422 95H228.578L228.672 91.7188ZM226.094 78.0938L229.859 91.7344L229.938 95H227.078L221.375 78.0938H226.094ZM242.931 78.0938V95H238.415V78.0938H242.931ZM238.134 73.6875C238.134 73.0312 238.363 72.4896 238.821 72.0625C239.28 71.6354 239.894 71.4219 240.665 71.4219C241.425 71.4219 242.035 71.6354 242.493 72.0625C242.962 72.4896 243.196 73.0312 243.196 73.6875C243.196 74.3438 242.962 74.8854 242.493 75.3125C242.035 75.7396 241.425 75.9531 240.665 75.9531C239.894 75.9531 239.28 75.7396 238.821 75.3125C238.363 74.8854 238.134 74.3438 238.134 73.6875ZM252.674 91.7969C253.226 91.7969 253.715 91.6927 254.143 91.4844C254.57 91.2656 254.903 90.9635 255.143 90.5781C255.393 90.1823 255.523 89.7188 255.533 89.1875H259.768C259.757 90.375 259.439 91.4323 258.814 92.3594C258.189 93.276 257.351 94 256.299 94.5312C255.247 95.0521 254.07 95.3125 252.768 95.3125C251.455 95.3125 250.309 95.0938 249.33 94.6562C248.361 94.2188 247.554 93.6146 246.908 92.8438C246.262 92.0625 245.778 91.1562 245.455 90.125C245.132 89.0833 244.971 87.9688 244.971 86.7812V86.3281C244.971 85.1302 245.132 84.0156 245.455 82.9844C245.778 81.9427 246.262 81.0365 246.908 80.2656C247.554 79.4844 248.361 78.875 249.33 78.4375C250.299 78 251.434 77.7812 252.736 77.7812C254.122 77.7812 255.335 78.0469 256.377 78.5781C257.429 79.1094 258.252 79.8698 258.846 80.8594C259.45 81.8385 259.757 83 259.768 84.3438H255.533C255.523 83.7812 255.403 83.2708 255.174 82.8125C254.955 82.3542 254.632 81.9896 254.205 81.7188C253.788 81.4375 253.273 81.2969 252.658 81.2969C252.002 81.2969 251.465 81.4375 251.049 81.7188C250.632 81.9896 250.309 82.3646 250.08 82.8438C249.851 83.3125 249.689 83.849 249.596 84.4531C249.512 85.0469 249.471 85.6719 249.471 86.3281V86.7812C249.471 87.4375 249.512 88.0677 249.596 88.6719C249.679 89.276 249.835 89.8125 250.064 90.2812C250.304 90.75 250.632 91.1198 251.049 91.3906C251.465 91.6615 252.007 91.7969 252.674 91.7969ZM269.198 95.3125C267.886 95.3125 266.709 95.1042 265.667 94.6875C264.625 94.2604 263.74 93.6719 263.011 92.9219C262.292 92.1719 261.74 91.3021 261.354 90.3125C260.969 89.3125 260.776 88.25 260.776 87.125V86.5C260.776 85.2188 260.959 84.0469 261.323 82.9844C261.688 81.9219 262.209 81 262.886 80.2188C263.573 79.4375 264.406 78.8385 265.386 78.4219C266.365 77.9948 267.469 77.7812 268.698 77.7812C269.896 77.7812 270.959 77.9792 271.886 78.375C272.813 78.7708 273.589 79.3333 274.214 80.0625C274.849 80.7917 275.328 81.6667 275.651 82.6875C275.974 83.6979 276.136 84.8229 276.136 86.0625V87.9375H262.698V84.9375H271.714V84.5938C271.714 83.9688 271.599 83.4115 271.37 82.9219C271.151 82.4219 270.818 82.026 270.37 81.7344C269.922 81.4427 269.349 81.2969 268.651 81.2969C268.057 81.2969 267.547 81.4271 267.12 81.6875C266.693 81.9479 266.344 82.3125 266.073 82.7812C265.813 83.25 265.615 83.8021 265.479 84.4375C265.354 85.0625 265.292 85.75 265.292 86.5V87.125C265.292 87.8021 265.386 88.4271 265.573 89C265.771 89.5729 266.047 90.0677 266.401 90.4844C266.766 90.901 267.203 91.224 267.714 91.4531C268.235 91.6823 268.823 91.7969 269.479 91.7969C270.292 91.7969 271.047 91.6406 271.745 91.3281C272.453 91.0052 273.063 90.5208 273.573 89.875L275.761 92.25C275.406 92.7604 274.922 93.25 274.307 93.7188C273.703 94.1875 272.974 94.5729 272.12 94.875C271.266 95.1667 270.292 95.3125 269.198 95.3125ZM161.722 104.25H170.206C171.946 104.25 173.441 104.51 174.691 105.031C175.951 105.552 176.92 106.323 177.597 107.344C178.274 108.365 178.613 109.62 178.613 111.109C178.613 112.328 178.404 113.375 177.988 114.25C177.581 115.115 177.003 115.839 176.253 116.422C175.514 116.995 174.644 117.453 173.644 117.797L172.159 118.578H164.784L164.753 114.922H170.238C171.06 114.922 171.743 114.776 172.284 114.484C172.826 114.193 173.232 113.786 173.503 113.266C173.784 112.745 173.925 112.141 173.925 111.453C173.925 110.724 173.79 110.094 173.519 109.562C173.248 109.031 172.836 108.625 172.284 108.344C171.732 108.062 171.04 107.922 170.206 107.922H166.409V127H161.722V104.25ZM174.441 127L169.253 116.859L174.206 116.828L179.456 126.781V127H174.441ZM188.762 127.312C187.449 127.312 186.272 127.104 185.231 126.688C184.189 126.26 183.304 125.672 182.574 124.922C181.856 124.172 181.304 123.302 180.918 122.312C180.533 121.312 180.34 120.25 180.34 119.125V118.5C180.34 117.219 180.522 116.047 180.887 114.984C181.251 113.922 181.772 113 182.449 112.219C183.137 111.438 183.97 110.839 184.949 110.422C185.929 109.995 187.033 109.781 188.262 109.781C189.46 109.781 190.522 109.979 191.449 110.375C192.376 110.771 193.153 111.333 193.778 112.062C194.413 112.792 194.892 113.667 195.215 114.688C195.538 115.698 195.699 116.823 195.699 118.062V119.938H182.262V116.938H191.278V116.594C191.278 115.969 191.163 115.411 190.934 114.922C190.715 114.422 190.382 114.026 189.934 113.734C189.486 113.443 188.913 113.297 188.215 113.297C187.621 113.297 187.111 113.427 186.684 113.688C186.257 113.948 185.908 114.312 185.637 114.781C185.376 115.25 185.179 115.802 185.043 116.438C184.918 117.062 184.856 117.75 184.856 118.5V119.125C184.856 119.802 184.949 120.427 185.137 121C185.335 121.573 185.611 122.068 185.965 122.484C186.33 122.901 186.767 123.224 187.278 123.453C187.798 123.682 188.387 123.797 189.043 123.797C189.856 123.797 190.611 123.641 191.309 123.328C192.017 123.005 192.626 122.521 193.137 121.875L195.324 124.25C194.97 124.76 194.486 125.25 193.871 125.719C193.267 126.188 192.538 126.573 191.684 126.875C190.83 127.167 189.856 127.312 188.762 127.312ZM202.052 103V127H197.536V103H202.052ZM209.561 110.094V127H205.045V110.094H209.561ZM204.764 105.688C204.764 105.031 204.993 104.49 205.451 104.062C205.91 103.635 206.524 103.422 207.295 103.422C208.055 103.422 208.665 103.635 209.123 104.062C209.592 104.49 209.826 105.031 209.826 105.688C209.826 106.344 209.592 106.885 209.123 107.312C208.665 107.74 208.055 107.953 207.295 107.953C206.524 107.953 205.91 107.74 205.451 107.312C204.993 106.885 204.764 106.344 204.764 105.688ZM221.444 123.188V115.656C221.444 115.115 221.356 114.651 221.179 114.266C221.002 113.87 220.726 113.562 220.351 113.344C219.986 113.125 219.512 113.016 218.929 113.016C218.429 113.016 217.996 113.104 217.632 113.281C217.267 113.448 216.986 113.693 216.788 114.016C216.59 114.328 216.491 114.698 216.491 115.125H211.991C211.991 114.406 212.158 113.724 212.491 113.078C212.825 112.432 213.309 111.865 213.944 111.375C214.58 110.875 215.335 110.484 216.21 110.203C217.095 109.922 218.085 109.781 219.179 109.781C220.491 109.781 221.658 110 222.679 110.438C223.7 110.875 224.502 111.531 225.085 112.406C225.679 113.281 225.976 114.375 225.976 115.688V122.922C225.976 123.849 226.033 124.609 226.148 125.203C226.262 125.786 226.429 126.297 226.648 126.734V127H222.101C221.882 126.542 221.715 125.969 221.601 125.281C221.496 124.583 221.444 123.885 221.444 123.188ZM222.038 116.703L222.069 119.25H219.554C218.96 119.25 218.444 119.318 218.007 119.453C217.569 119.589 217.21 119.781 216.929 120.031C216.648 120.271 216.439 120.552 216.304 120.875C216.179 121.198 216.116 121.552 216.116 121.938C216.116 122.323 216.205 122.672 216.382 122.984C216.559 123.286 216.814 123.526 217.148 123.703C217.481 123.87 217.871 123.953 218.319 123.953C218.996 123.953 219.585 123.818 220.085 123.547C220.585 123.276 220.97 122.943 221.241 122.547C221.523 122.151 221.668 121.776 221.679 121.422L222.866 123.328C222.7 123.755 222.47 124.198 222.179 124.656C221.898 125.115 221.538 125.547 221.101 125.953C220.663 126.349 220.137 126.677 219.523 126.938C218.908 127.188 218.179 127.312 217.335 127.312C216.262 127.312 215.288 127.099 214.413 126.672C213.549 126.234 212.861 125.635 212.351 124.875C211.851 124.104 211.601 123.229 211.601 122.25C211.601 121.365 211.767 120.578 212.101 119.891C212.434 119.203 212.924 118.625 213.569 118.156C214.226 117.677 215.043 117.318 216.023 117.078C217.002 116.828 218.137 116.703 219.429 116.703H222.038ZM228.484 103H232.984V123.125L232.531 127H228.484V103ZM243.688 118.375V118.703C243.688 119.964 243.552 121.12 243.281 122.172C243.021 123.224 242.615 124.135 242.062 124.906C241.51 125.667 240.823 126.26 240 126.688C239.188 127.104 238.229 127.312 237.125 127.312C236.094 127.312 235.198 127.104 234.438 126.688C233.688 126.271 233.057 125.682 232.547 124.922C232.036 124.161 231.625 123.271 231.312 122.25C231 121.229 230.766 120.115 230.609 118.906V118.188C230.766 116.979 231 115.865 231.312 114.844C231.625 113.823 232.036 112.932 232.547 112.172C233.057 111.411 233.688 110.823 234.438 110.406C235.188 109.99 236.073 109.781 237.094 109.781C238.208 109.781 239.177 109.995 240 110.422C240.833 110.839 241.521 111.432 242.062 112.203C242.615 112.964 243.021 113.87 243.281 114.922C243.552 115.964 243.688 117.115 243.688 118.375ZM239.188 118.703V118.375C239.188 117.688 239.135 117.042 239.031 116.438C238.938 115.823 238.771 115.286 238.531 114.828C238.292 114.359 237.964 113.99 237.547 113.719C237.141 113.448 236.615 113.312 235.969 113.312C235.354 113.312 234.833 113.417 234.406 113.625C233.979 113.833 233.625 114.125 233.344 114.5C233.073 114.875 232.87 115.323 232.734 115.844C232.599 116.354 232.516 116.917 232.484 117.531V119.578C232.516 120.401 232.651 121.13 232.891 121.766C233.141 122.391 233.516 122.885 234.016 123.25C234.526 123.604 235.188 123.781 236 123.781C236.635 123.781 237.161 123.656 237.578 123.406C237.995 123.156 238.318 122.802 238.547 122.344C238.786 121.885 238.953 121.349 239.047 120.734C239.141 120.109 239.188 119.432 239.188 118.703ZM250.274 110.094V127H245.759V110.094H250.274ZM245.478 105.688C245.478 105.031 245.707 104.49 246.165 104.062C246.623 103.635 247.238 103.422 248.009 103.422C248.769 103.422 249.379 103.635 249.837 104.062C250.306 104.49 250.54 105.031 250.54 105.688C250.54 106.344 250.306 106.885 249.837 107.312C249.379 107.74 248.769 107.953 248.009 107.953C247.238 107.953 246.623 107.74 246.165 107.312C245.707 106.885 245.478 106.344 245.478 105.688ZM257.783 103V127H253.268V103H257.783ZM265.292 110.094V127H260.776V110.094H265.292ZM260.495 105.688C260.495 105.031 260.724 104.49 261.182 104.062C261.641 103.635 262.255 103.422 263.026 103.422C263.787 103.422 264.396 103.635 264.854 104.062C265.323 104.49 265.557 105.031 265.557 105.688C265.557 106.344 265.323 106.885 264.854 107.312C264.396 107.74 263.787 107.953 263.026 107.953C262.255 107.953 261.641 107.74 261.182 107.312C260.724 106.885 260.495 106.344 260.495 105.688ZM276.332 110.094V113.281H266.488V110.094H276.332ZM268.926 105.922H273.426V121.906C273.426 122.396 273.488 122.771 273.613 123.031C273.749 123.292 273.946 123.474 274.207 123.578C274.467 123.672 274.795 123.719 275.191 123.719C275.473 123.719 275.723 123.708 275.941 123.688C276.17 123.656 276.363 123.625 276.519 123.594L276.535 126.906C276.15 127.031 275.733 127.13 275.285 127.203C274.837 127.276 274.342 127.312 273.801 127.312C272.811 127.312 271.946 127.151 271.207 126.828C270.478 126.495 269.915 125.964 269.519 125.234C269.124 124.505 268.926 123.547 268.926 122.359V105.922ZM282.95 125.094L287.434 110.094H292.263L285.466 129.547C285.32 129.974 285.122 130.432 284.872 130.922C284.632 131.411 284.304 131.875 283.888 132.312C283.481 132.76 282.966 133.125 282.341 133.406C281.726 133.688 280.971 133.828 280.075 133.828C279.648 133.828 279.299 133.802 279.028 133.75C278.757 133.698 278.434 133.625 278.059 133.531V130.234C278.174 130.234 278.294 130.234 278.419 130.234C278.544 130.245 278.664 130.25 278.778 130.25C279.372 130.25 279.856 130.182 280.231 130.047C280.606 129.911 280.908 129.703 281.138 129.422C281.367 129.151 281.549 128.797 281.684 128.359L282.95 125.094ZM281.075 110.094L284.747 122.344L285.388 127.109L282.325 127.438L276.247 110.094H281.075Z" fill="black"/>
<rect y="119" width="81" height="81" rx="20" fill="#17C7A9"/>
<rect x="1" y="1" width="79" height="79" rx="19" fill="black" stroke="#5A5D68" stroke-width="2"/>
<path d="M41 27L54.8564 51H27.1436L41 27Z" fill="#5A5D68"/>
<rect y="205" width="280" height="200" rx="20" fill="#17C7A9"/>
<path d="M65.9631 292.453H70.635C70.5413 293.984 70.1194 295.344 69.3694 296.531C68.6298 297.719 67.5933 298.646 66.26 299.312C64.9371 299.979 63.3433 300.312 61.4788 300.312C60.0204 300.312 58.7131 300.062 57.5569 299.562C56.4006 299.052 55.411 298.323 54.5881 297.375C53.7756 296.427 53.1558 295.281 52.7288 293.938C52.3017 292.594 52.0881 291.089 52.0881 289.422V287.844C52.0881 286.177 52.3069 284.672 52.7444 283.328C53.1923 281.974 53.8277 280.823 54.6506 279.875C55.484 278.927 56.4788 278.198 57.635 277.688C58.7913 277.177 60.0829 276.922 61.51 276.922C63.4058 276.922 65.0048 277.266 66.3069 277.953C67.6194 278.641 68.635 279.589 69.3538 280.797C70.0829 282.005 70.5204 283.38 70.6663 284.922H65.9788C65.9267 284.005 65.7444 283.229 65.4319 282.594C65.1194 281.948 64.6454 281.464 64.01 281.141C63.385 280.807 62.5517 280.641 61.51 280.641C60.7288 280.641 60.0465 280.786 59.4631 281.078C58.8798 281.37 58.3902 281.812 57.9944 282.406C57.5985 283 57.3017 283.75 57.1038 284.656C56.9163 285.552 56.8225 286.604 56.8225 287.812V289.422C56.8225 290.599 56.911 291.635 57.0881 292.531C57.2652 293.417 57.536 294.167 57.9006 294.781C58.2756 295.385 58.7548 295.844 59.3381 296.156C59.9319 296.458 60.6454 296.609 61.4788 296.609C62.4579 296.609 63.2652 296.453 63.9006 296.141C64.536 295.828 65.0204 295.365 65.3538 294.75C65.6975 294.135 65.9006 293.37 65.9631 292.453ZM71.7531 291.719V291.391C71.7531 290.151 71.9302 289.01 72.2844 287.969C72.6385 286.917 73.1542 286.005 73.8313 285.234C74.5083 284.464 75.3417 283.865 76.3313 283.438C77.3208 283 78.4563 282.781 79.7375 282.781C81.0188 282.781 82.1594 283 83.1594 283.438C84.1594 283.865 84.9979 284.464 85.675 285.234C86.3625 286.005 86.8833 286.917 87.2375 287.969C87.5917 289.01 87.7688 290.151 87.7688 291.391V291.719C87.7688 292.948 87.5917 294.089 87.2375 295.141C86.8833 296.182 86.3625 297.094 85.675 297.875C84.9979 298.646 84.1646 299.245 83.175 299.672C82.1854 300.099 81.05 300.312 79.7688 300.312C78.4875 300.312 77.3469 300.099 76.3469 299.672C75.3573 299.245 74.5188 298.646 73.8313 297.875C73.1542 297.094 72.6385 296.182 72.2844 295.141C71.9302 294.089 71.7531 292.948 71.7531 291.719ZM76.2531 291.391V291.719C76.2531 292.427 76.3156 293.089 76.4406 293.703C76.5656 294.318 76.7635 294.859 77.0344 295.328C77.3156 295.786 77.6802 296.146 78.1281 296.406C78.576 296.667 79.1229 296.797 79.7688 296.797C80.3938 296.797 80.9302 296.667 81.3781 296.406C81.826 296.146 82.1854 295.786 82.4563 295.328C82.7271 294.859 82.925 294.318 83.05 293.703C83.1854 293.089 83.2531 292.427 83.2531 291.719V291.391C83.2531 290.703 83.1854 290.057 83.05 289.453C82.925 288.839 82.7219 288.297 82.4406 287.828C82.1698 287.349 81.8104 286.974 81.3625 286.703C80.9146 286.432 80.3729 286.297 79.7375 286.297C79.1021 286.297 78.5604 286.432 78.1125 286.703C77.675 286.974 77.3156 287.349 77.0344 287.828C76.7635 288.297 76.5656 288.839 76.4406 289.453C76.3156 290.057 76.2531 290.703 76.2531 291.391ZM94.3244 276V300H89.8088V276H94.3244ZM101.833 276V300H97.3175V276H101.833ZM113.717 296.188V288.656C113.717 288.115 113.628 287.651 113.451 287.266C113.274 286.87 112.998 286.562 112.623 286.344C112.259 286.125 111.785 286.016 111.201 286.016C110.701 286.016 110.269 286.104 109.904 286.281C109.54 286.448 109.259 286.693 109.061 287.016C108.863 287.328 108.764 287.698 108.764 288.125H104.264C104.264 287.406 104.43 286.724 104.764 286.078C105.097 285.432 105.581 284.865 106.217 284.375C106.852 283.875 107.607 283.484 108.482 283.203C109.368 282.922 110.357 282.781 111.451 282.781C112.764 282.781 113.93 283 114.951 283.438C115.972 283.875 116.774 284.531 117.357 285.406C117.951 286.281 118.248 287.375 118.248 288.688V295.922C118.248 296.849 118.305 297.609 118.42 298.203C118.535 298.786 118.701 299.297 118.92 299.734V300H114.373C114.154 299.542 113.988 298.969 113.873 298.281C113.769 297.583 113.717 296.885 113.717 296.188ZM114.311 289.703L114.342 292.25H111.826C111.232 292.25 110.717 292.318 110.279 292.453C109.842 292.589 109.482 292.781 109.201 293.031C108.92 293.271 108.712 293.552 108.576 293.875C108.451 294.198 108.389 294.552 108.389 294.938C108.389 295.323 108.477 295.672 108.654 295.984C108.831 296.286 109.087 296.526 109.42 296.703C109.753 296.87 110.144 296.953 110.592 296.953C111.269 296.953 111.857 296.818 112.357 296.547C112.857 296.276 113.243 295.943 113.514 295.547C113.795 295.151 113.941 294.776 113.951 294.422L115.139 296.328C114.972 296.755 114.743 297.198 114.451 297.656C114.17 298.115 113.811 298.547 113.373 298.953C112.936 299.349 112.41 299.677 111.795 299.938C111.18 300.188 110.451 300.312 109.607 300.312C108.535 300.312 107.561 300.099 106.686 299.672C105.821 299.234 105.134 298.635 104.623 297.875C104.123 297.104 103.873 296.229 103.873 295.25C103.873 294.365 104.04 293.578 104.373 292.891C104.706 292.203 105.196 291.625 105.842 291.156C106.498 290.677 107.316 290.318 108.295 290.078C109.274 289.828 110.41 289.703 111.701 289.703H114.311ZM120.757 276H125.257V296.125L124.804 300H120.757V276ZM135.96 291.375V291.703C135.96 292.964 135.825 294.12 135.554 295.172C135.293 296.224 134.887 297.135 134.335 297.906C133.783 298.667 133.095 299.26 132.272 299.688C131.46 300.104 130.502 300.312 129.397 300.312C128.366 300.312 127.47 300.104 126.71 299.688C125.96 299.271 125.33 298.682 124.819 297.922C124.309 297.161 123.897 296.271 123.585 295.25C123.272 294.229 123.038 293.115 122.882 291.906V291.188C123.038 289.979 123.272 288.865 123.585 287.844C123.897 286.823 124.309 285.932 124.819 285.172C125.33 284.411 125.96 283.823 126.71 283.406C127.46 282.99 128.345 282.781 129.366 282.781C130.481 282.781 131.45 282.995 132.272 283.422C133.106 283.839 133.793 284.432 134.335 285.203C134.887 285.964 135.293 286.87 135.554 287.922C135.825 288.964 135.96 290.115 135.96 291.375ZM131.46 291.703V291.375C131.46 290.688 131.408 290.042 131.304 289.438C131.21 288.823 131.043 288.286 130.804 287.828C130.564 287.359 130.236 286.99 129.819 286.719C129.413 286.448 128.887 286.312 128.241 286.312C127.627 286.312 127.106 286.417 126.679 286.625C126.252 286.833 125.897 287.125 125.616 287.5C125.345 287.875 125.142 288.323 125.007 288.844C124.871 289.354 124.788 289.917 124.757 290.531V292.578C124.788 293.401 124.924 294.13 125.163 294.766C125.413 295.391 125.788 295.885 126.288 296.25C126.799 296.604 127.46 296.781 128.272 296.781C128.908 296.781 129.434 296.656 129.851 296.406C130.267 296.156 130.59 295.802 130.819 295.344C131.059 294.885 131.226 294.349 131.319 293.734C131.413 293.109 131.46 292.432 131.46 291.703ZM137.078 291.719V291.391C137.078 290.151 137.255 289.01 137.609 287.969C137.964 286.917 138.479 286.005 139.156 285.234C139.833 284.464 140.667 283.865 141.656 283.438C142.646 283 143.781 282.781 145.062 282.781C146.344 282.781 147.484 283 148.484 283.438C149.484 283.865 150.323 284.464 151 285.234C151.688 286.005 152.208 286.917 152.562 287.969C152.917 289.01 153.094 290.151 153.094 291.391V291.719C153.094 292.948 152.917 294.089 152.562 295.141C152.208 296.182 151.688 297.094 151 297.875C150.323 298.646 149.49 299.245 148.5 299.672C147.51 300.099 146.375 300.312 145.094 300.312C143.812 300.312 142.672 300.099 141.672 299.672C140.682 299.245 139.844 298.646 139.156 297.875C138.479 297.094 137.964 296.182 137.609 295.141C137.255 294.089 137.078 292.948 137.078 291.719ZM141.578 291.391V291.719C141.578 292.427 141.641 293.089 141.766 293.703C141.891 294.318 142.089 294.859 142.359 295.328C142.641 295.786 143.005 296.146 143.453 296.406C143.901 296.667 144.448 296.797 145.094 296.797C145.719 296.797 146.255 296.667 146.703 296.406C147.151 296.146 147.51 295.786 147.781 295.328C148.052 294.859 148.25 294.318 148.375 293.703C148.51 293.089 148.578 292.427 148.578 291.719V291.391C148.578 290.703 148.51 290.057 148.375 289.453C148.25 288.839 148.047 288.297 147.766 287.828C147.495 287.349 147.135 286.974 146.688 286.703C146.24 286.432 145.698 286.297 145.062 286.297C144.427 286.297 143.885 286.432 143.438 286.703C143 286.974 142.641 287.349 142.359 287.828C142.089 288.297 141.891 288.839 141.766 289.453C141.641 290.057 141.578 290.703 141.578 291.391ZM159.399 286.781V300H154.899V283.094H159.134L159.399 286.781ZM164.493 282.984L164.415 287.156C164.196 287.125 163.931 287.099 163.618 287.078C163.316 287.047 163.04 287.031 162.79 287.031C162.155 287.031 161.603 287.115 161.134 287.281C160.675 287.438 160.29 287.672 159.978 287.984C159.675 288.297 159.446 288.677 159.29 289.125C159.144 289.573 159.061 290.083 159.04 290.656L158.134 290.375C158.134 289.281 158.243 288.276 158.462 287.359C158.681 286.432 158.998 285.625 159.415 284.938C159.842 284.25 160.363 283.719 160.978 283.344C161.592 282.969 162.295 282.781 163.087 282.781C163.337 282.781 163.592 282.802 163.853 282.844C164.113 282.875 164.326 282.922 164.493 282.984ZM174.252 296.188V288.656C174.252 288.115 174.163 287.651 173.986 287.266C173.809 286.87 173.533 286.562 173.158 286.344C172.794 286.125 172.32 286.016 171.736 286.016C171.236 286.016 170.804 286.104 170.439 286.281C170.075 286.448 169.794 286.693 169.596 287.016C169.398 287.328 169.299 287.698 169.299 288.125H164.799C164.799 287.406 164.965 286.724 165.299 286.078C165.632 285.432 166.116 284.865 166.752 284.375C167.387 283.875 168.143 283.484 169.018 283.203C169.903 282.922 170.893 282.781 171.986 282.781C173.299 282.781 174.465 283 175.486 283.438C176.507 283.875 177.309 284.531 177.893 285.406C178.486 286.281 178.783 287.375 178.783 288.688V295.922C178.783 296.849 178.84 297.609 178.955 298.203C179.07 298.786 179.236 299.297 179.455 299.734V300H174.908C174.689 299.542 174.523 298.969 174.408 298.281C174.304 297.583 174.252 296.885 174.252 296.188ZM174.846 289.703L174.877 292.25H172.361C171.768 292.25 171.252 292.318 170.814 292.453C170.377 292.589 170.018 292.781 169.736 293.031C169.455 293.271 169.247 293.552 169.111 293.875C168.986 294.198 168.924 294.552 168.924 294.938C168.924 295.323 169.012 295.672 169.189 295.984C169.366 296.286 169.622 296.526 169.955 296.703C170.288 296.87 170.679 296.953 171.127 296.953C171.804 296.953 172.393 296.818 172.893 296.547C173.393 296.276 173.778 295.943 174.049 295.547C174.33 295.151 174.476 294.776 174.486 294.422L175.674 296.328C175.507 296.755 175.278 297.198 174.986 297.656C174.705 298.115 174.346 298.547 173.908 298.953C173.471 299.349 172.945 299.677 172.33 299.938C171.715 300.188 170.986 300.312 170.143 300.312C169.07 300.312 168.096 300.099 167.221 299.672C166.356 299.234 165.669 298.635 165.158 297.875C164.658 297.104 164.408 296.229 164.408 295.25C164.408 294.365 164.575 293.578 164.908 292.891C165.241 292.203 165.731 291.625 166.377 291.156C167.033 290.677 167.851 290.318 168.83 290.078C169.809 289.828 170.945 289.703 172.236 289.703H174.846ZM189.573 283.094V286.281H179.729V283.094H189.573ZM182.167 278.922H186.667V294.906C186.667 295.396 186.729 295.771 186.854 296.031C186.99 296.292 187.188 296.474 187.448 296.578C187.709 296.672 188.037 296.719 188.432 296.719C188.714 296.719 188.964 296.708 189.182 296.688C189.412 296.656 189.604 296.625 189.761 296.594L189.776 299.906C189.391 300.031 188.974 300.13 188.526 300.203C188.078 300.276 187.584 300.312 187.042 300.312C186.052 300.312 185.188 300.151 184.448 299.828C183.719 299.495 183.156 298.964 182.761 298.234C182.365 297.505 182.167 296.547 182.167 295.359V278.922ZM195.926 283.094V300H191.41V283.094H195.926ZM191.129 278.688C191.129 278.031 191.358 277.49 191.816 277.062C192.275 276.635 192.889 276.422 193.66 276.422C194.42 276.422 195.03 276.635 195.488 277.062C195.957 277.49 196.191 278.031 196.191 278.688C196.191 279.344 195.957 279.885 195.488 280.312C195.03 280.74 194.42 280.953 193.66 280.953C192.889 280.953 192.275 280.74 191.816 280.312C191.358 279.885 191.129 279.344 191.129 278.688ZM204.434 296.719L208.184 283.094H212.888L207.184 300H204.341L204.434 296.719ZM201.856 283.094L205.622 296.734L205.7 300H202.841L197.138 283.094H201.856ZM221.506 300.312C220.193 300.312 219.016 300.104 217.974 299.688C216.933 299.26 216.047 298.672 215.318 297.922C214.599 297.172 214.047 296.302 213.662 295.312C213.276 294.312 213.084 293.25 213.084 292.125V291.5C213.084 290.219 213.266 289.047 213.631 287.984C213.995 286.922 214.516 286 215.193 285.219C215.881 284.438 216.714 283.839 217.693 283.422C218.672 282.995 219.776 282.781 221.006 282.781C222.204 282.781 223.266 282.979 224.193 283.375C225.12 283.771 225.896 284.333 226.521 285.062C227.157 285.792 227.636 286.667 227.959 287.688C228.282 288.698 228.443 289.823 228.443 291.062V292.938H215.006V289.938H224.021V289.594C224.021 288.969 223.907 288.411 223.677 287.922C223.459 287.422 223.125 287.026 222.677 286.734C222.23 286.443 221.657 286.297 220.959 286.297C220.365 286.297 219.855 286.427 219.427 286.688C219 286.948 218.651 287.312 218.381 287.781C218.12 288.25 217.922 288.802 217.787 289.438C217.662 290.062 217.599 290.75 217.599 291.5V292.125C217.599 292.802 217.693 293.427 217.881 294C218.079 294.573 218.355 295.068 218.709 295.484C219.073 295.901 219.511 296.224 220.021 296.453C220.542 296.682 221.131 296.797 221.787 296.797C222.599 296.797 223.355 296.641 224.052 296.328C224.761 296.005 225.37 295.521 225.881 294.875L228.068 297.25C227.714 297.76 227.23 298.25 226.615 298.719C226.011 299.188 225.282 299.573 224.427 299.875C223.573 300.167 222.599 300.312 221.506 300.312ZM71.2731 328.344V332H59.1637V328.344H71.2731ZM60.695 309.25V332H56.0075V309.25H60.695ZM69.695 318.516V322.078H59.1637V318.516H69.695ZM71.2575 309.25V312.922H59.1637V309.25H71.2575ZM77.1725 318.703V332H72.6725V315.094H76.8913L77.1725 318.703ZM76.5163 322.953H75.2975C75.2975 321.703 75.459 320.578 75.7819 319.578C76.1048 318.568 76.5579 317.708 77.1413 317C77.7246 316.281 78.4173 315.734 79.2194 315.359C80.0319 314.974 80.9381 314.781 81.9381 314.781C82.7298 314.781 83.4538 314.896 84.11 315.125C84.7663 315.354 85.3288 315.719 85.7975 316.219C86.2767 316.719 86.6413 317.38 86.8913 318.203C87.1517 319.026 87.2819 320.031 87.2819 321.219V332H82.7506V321.203C82.7506 320.453 82.6465 319.87 82.4381 319.453C82.2298 319.036 81.9225 318.745 81.5163 318.578C81.1204 318.401 80.6308 318.312 80.0475 318.312C79.4433 318.312 78.9173 318.432 78.4694 318.672C78.0319 318.911 77.6673 319.245 77.3756 319.672C77.0944 320.089 76.8808 320.578 76.735 321.141C76.5892 321.703 76.5163 322.307 76.5163 322.953ZM100.447 315.094H104.525V331.438C104.525 332.979 104.181 334.286 103.494 335.359C102.817 336.443 101.869 337.26 100.65 337.812C99.4313 338.375 98.0146 338.656 96.4 338.656C95.6917 338.656 94.9417 338.562 94.15 338.375C93.3688 338.188 92.6188 337.896 91.9 337.5C91.1917 337.104 90.5979 336.604 90.1188 336L92.1031 333.344C92.624 333.948 93.2281 334.417 93.9156 334.75C94.6031 335.094 95.3635 335.266 96.1969 335.266C97.0094 335.266 97.6969 335.115 98.2594 334.812C98.8219 334.521 99.2542 334.089 99.5563 333.516C99.8583 332.953 100.009 332.271 100.009 331.469V319L100.447 315.094ZM89.0719 323.75V323.422C89.0719 322.13 89.2281 320.958 89.5406 319.906C89.8635 318.844 90.3167 317.932 90.9 317.172C91.4938 316.411 92.2125 315.823 93.0563 315.406C93.9 314.99 94.8531 314.781 95.9156 314.781C97.0406 314.781 97.9833 314.99 98.7438 315.406C99.5042 315.823 100.129 316.417 100.619 317.188C101.108 317.948 101.489 318.849 101.759 319.891C102.041 320.922 102.259 322.052 102.416 323.281V324C102.259 325.177 102.025 326.271 101.713 327.281C101.4 328.292 100.989 329.177 100.478 329.938C99.9677 330.688 99.3323 331.271 98.5719 331.688C97.8219 332.104 96.926 332.312 95.8844 332.312C94.8427 332.312 93.9 332.099 93.0563 331.672C92.2229 331.245 91.5094 330.646 90.9156 329.875C90.3219 329.104 89.8635 328.198 89.5406 327.156C89.2281 326.115 89.0719 324.979 89.0719 323.75ZM93.5719 323.422V323.75C93.5719 324.448 93.6396 325.099 93.775 325.703C93.9104 326.307 94.1188 326.844 94.4 327.312C94.6917 327.771 95.051 328.13 95.4781 328.391C95.9156 328.641 96.4313 328.766 97.025 328.766C97.8479 328.766 98.5198 328.594 99.0406 328.25C99.5615 327.896 99.9521 327.411 100.213 326.797C100.473 326.182 100.624 325.474 100.666 324.672V322.625C100.645 321.969 100.556 321.38 100.4 320.859C100.244 320.328 100.025 319.875 99.7438 319.5C99.4625 319.125 99.0979 318.833 98.65 318.625C98.2021 318.417 97.6708 318.312 97.0563 318.312C96.4625 318.312 95.9469 318.448 95.5094 318.719C95.0823 318.979 94.7229 319.339 94.4313 319.797C94.15 320.255 93.9365 320.797 93.7906 321.422C93.6448 322.036 93.5719 322.703 93.5719 323.422ZM116.19 328.188V320.656C116.19 320.115 116.101 319.651 115.924 319.266C115.747 318.87 115.471 318.562 115.096 318.344C114.732 318.125 114.258 318.016 113.674 318.016C113.174 318.016 112.742 318.104 112.378 318.281C112.013 318.448 111.732 318.693 111.534 319.016C111.336 319.328 111.237 319.698 111.237 320.125H106.737C106.737 319.406 106.904 318.724 107.237 318.078C107.57 317.432 108.055 316.865 108.69 316.375C109.325 315.875 110.081 315.484 110.956 315.203C111.841 314.922 112.831 314.781 113.924 314.781C115.237 314.781 116.404 315 117.424 315.438C118.445 315.875 119.247 316.531 119.831 317.406C120.424 318.281 120.721 319.375 120.721 320.688V327.922C120.721 328.849 120.779 329.609 120.893 330.203C121.008 330.786 121.174 331.297 121.393 331.734V332H116.846C116.628 331.542 116.461 330.969 116.346 330.281C116.242 329.583 116.19 328.885 116.19 328.188ZM116.784 321.703L116.815 324.25H114.299C113.706 324.25 113.19 324.318 112.753 324.453C112.315 324.589 111.956 324.781 111.674 325.031C111.393 325.271 111.185 325.552 111.049 325.875C110.924 326.198 110.862 326.552 110.862 326.938C110.862 327.323 110.95 327.672 111.128 327.984C111.305 328.286 111.56 328.526 111.893 328.703C112.226 328.87 112.617 328.953 113.065 328.953C113.742 328.953 114.331 328.818 114.831 328.547C115.331 328.276 115.716 327.943 115.987 327.547C116.268 327.151 116.414 326.776 116.424 326.422L117.612 328.328C117.445 328.755 117.216 329.198 116.924 329.656C116.643 330.115 116.284 330.547 115.846 330.953C115.409 331.349 114.883 331.677 114.268 331.938C113.654 332.188 112.924 332.312 112.081 332.312C111.008 332.312 110.034 332.099 109.159 331.672C108.294 331.234 107.607 330.635 107.096 329.875C106.596 329.104 106.346 328.229 106.346 327.25C106.346 326.365 106.513 325.578 106.846 324.891C107.18 324.203 107.669 323.625 108.315 323.156C108.971 322.677 109.789 322.318 110.768 322.078C111.747 321.828 112.883 321.703 114.174 321.703H116.784ZM133.933 315.094H138.011V331.438C138.011 332.979 137.668 334.286 136.98 335.359C136.303 336.443 135.355 337.26 134.136 337.812C132.918 338.375 131.501 338.656 129.886 338.656C129.178 338.656 128.428 338.562 127.636 338.375C126.855 338.188 126.105 337.896 125.386 337.5C124.678 337.104 124.084 336.604 123.605 336L125.589 333.344C126.11 333.948 126.714 334.417 127.402 334.75C128.089 335.094 128.85 335.266 129.683 335.266C130.496 335.266 131.183 335.115 131.746 334.812C132.308 334.521 132.74 334.089 133.043 333.516C133.345 332.953 133.496 332.271 133.496 331.469V319L133.933 315.094ZM122.558 323.75V323.422C122.558 322.13 122.714 320.958 123.027 319.906C123.35 318.844 123.803 317.932 124.386 317.172C124.98 316.411 125.699 315.823 126.543 315.406C127.386 314.99 128.339 314.781 129.402 314.781C130.527 314.781 131.47 314.99 132.23 315.406C132.99 315.823 133.615 316.417 134.105 317.188C134.595 317.948 134.975 318.849 135.246 319.891C135.527 320.922 135.746 322.052 135.902 323.281V324C135.746 325.177 135.511 326.271 135.199 327.281C134.886 328.292 134.475 329.177 133.964 329.938C133.454 330.688 132.819 331.271 132.058 331.688C131.308 332.104 130.412 332.312 129.371 332.312C128.329 332.312 127.386 332.099 126.543 331.672C125.709 331.245 124.996 330.646 124.402 329.875C123.808 329.104 123.35 328.198 123.027 327.156C122.714 326.115 122.558 324.979 122.558 323.75ZM127.058 323.422V323.75C127.058 324.448 127.126 325.099 127.261 325.703C127.397 326.307 127.605 326.844 127.886 327.312C128.178 327.771 128.537 328.13 128.964 328.391C129.402 328.641 129.918 328.766 130.511 328.766C131.334 328.766 132.006 328.594 132.527 328.25C133.048 327.896 133.438 327.411 133.699 326.797C133.959 326.182 134.11 325.474 134.152 324.672V322.625C134.131 321.969 134.043 321.38 133.886 320.859C133.73 320.328 133.511 319.875 133.23 319.5C132.949 319.125 132.584 318.833 132.136 318.625C131.688 318.417 131.157 318.312 130.543 318.312C129.949 318.312 129.433 318.448 128.996 318.719C128.569 318.979 128.209 319.339 127.918 319.797C127.636 320.255 127.423 320.797 127.277 321.422C127.131 322.036 127.058 322.703 127.058 323.422ZM148.332 332.312C147.02 332.312 145.843 332.104 144.801 331.688C143.76 331.26 142.874 330.672 142.145 329.922C141.426 329.172 140.874 328.302 140.489 327.312C140.103 326.312 139.911 325.25 139.911 324.125V323.5C139.911 322.219 140.093 321.047 140.457 319.984C140.822 318.922 141.343 318 142.02 317.219C142.707 316.438 143.541 315.839 144.52 315.422C145.499 314.995 146.603 314.781 147.832 314.781C149.03 314.781 150.093 314.979 151.02 315.375C151.947 315.771 152.723 316.333 153.348 317.062C153.984 317.792 154.463 318.667 154.786 319.688C155.109 320.698 155.27 321.823 155.27 323.062V324.938H141.832V321.938H150.848V321.594C150.848 320.969 150.734 320.411 150.504 319.922C150.286 319.422 149.952 319.026 149.504 318.734C149.056 318.443 148.484 318.297 147.786 318.297C147.192 318.297 146.681 318.427 146.254 318.688C145.827 318.948 145.478 319.312 145.207 319.781C144.947 320.25 144.749 320.802 144.614 321.438C144.489 322.062 144.426 322.75 144.426 323.5V324.125C144.426 324.802 144.52 325.427 144.707 326C144.905 326.573 145.181 327.068 145.536 327.484C145.9 327.901 146.338 328.224 146.848 328.453C147.369 328.682 147.957 328.797 148.614 328.797C149.426 328.797 150.181 328.641 150.879 328.328C151.588 328.005 152.197 327.521 152.707 326.875L154.895 329.25C154.541 329.76 154.056 330.25 153.442 330.719C152.838 331.188 152.109 331.573 151.254 331.875C150.4 332.167 149.426 332.312 148.332 332.312ZM161.372 318.594V332H156.857V315.094H161.091L161.372 318.594ZM160.747 322.953H159.497C159.497 321.776 159.638 320.693 159.919 319.703C160.211 318.703 160.633 317.839 161.185 317.109C161.747 316.37 162.44 315.797 163.263 315.391C164.086 314.984 165.039 314.781 166.122 314.781C166.872 314.781 167.56 314.896 168.185 315.125C168.81 315.344 169.346 315.693 169.794 316.172C170.253 316.641 170.607 317.255 170.857 318.016C171.107 318.766 171.232 319.667 171.232 320.719V332H166.732V321.219C166.732 320.448 166.628 319.854 166.419 319.438C166.211 319.021 165.914 318.729 165.529 318.562C165.154 318.396 164.701 318.312 164.169 318.312C163.586 318.312 163.076 318.432 162.638 318.672C162.211 318.911 161.857 319.245 161.576 319.672C161.294 320.089 161.086 320.578 160.951 321.141C160.815 321.703 160.747 322.307 160.747 322.953ZM170.81 322.438L169.201 322.641C169.201 321.536 169.336 320.51 169.607 319.562C169.888 318.615 170.3 317.781 170.841 317.062C171.393 316.344 172.076 315.786 172.888 315.391C173.701 314.984 174.638 314.781 175.701 314.781C176.513 314.781 177.253 314.901 177.919 315.141C178.586 315.37 179.154 315.74 179.622 316.25C180.102 316.75 180.466 317.406 180.716 318.219C180.977 319.031 181.107 320.026 181.107 321.203V332H176.591V321.203C176.591 320.422 176.487 319.828 176.279 319.422C176.081 319.005 175.789 318.719 175.404 318.562C175.029 318.396 174.581 318.312 174.06 318.312C173.518 318.312 173.044 318.422 172.638 318.641C172.232 318.849 171.893 319.141 171.622 319.516C171.352 319.891 171.149 320.328 171.013 320.828C170.878 321.318 170.81 321.854 170.81 322.438ZM191.413 332.312C190.1 332.312 188.923 332.104 187.881 331.688C186.84 331.26 185.954 330.672 185.225 329.922C184.506 329.172 183.954 328.302 183.569 327.312C183.183 326.312 182.991 325.25 182.991 324.125V323.5C182.991 322.219 183.173 321.047 183.538 319.984C183.902 318.922 184.423 318 185.1 317.219C185.788 316.438 186.621 315.839 187.6 315.422C188.579 314.995 189.683 314.781 190.913 314.781C192.11 314.781 193.173 314.979 194.1 315.375C195.027 315.771 195.803 316.333 196.428 317.062C197.064 317.792 197.543 318.667 197.866 319.688C198.189 320.698 198.35 321.823 198.35 323.062V324.938H184.913V321.938H193.928V321.594C193.928 320.969 193.814 320.411 193.584 319.922C193.366 319.422 193.032 319.026 192.584 318.734C192.136 318.443 191.564 318.297 190.866 318.297C190.272 318.297 189.761 318.427 189.334 318.688C188.907 318.948 188.558 319.312 188.288 319.781C188.027 320.25 187.829 320.802 187.694 321.438C187.569 322.062 187.506 322.75 187.506 323.5V324.125C187.506 324.802 187.6 325.427 187.788 326C187.985 326.573 188.261 327.068 188.616 327.484C188.98 327.901 189.418 328.224 189.928 328.453C190.449 328.682 191.038 328.797 191.694 328.797C192.506 328.797 193.261 328.641 193.959 328.328C194.668 328.005 195.277 327.521 195.788 326.875L197.975 329.25C197.621 329.76 197.136 330.25 196.522 330.719C195.918 331.188 195.189 331.573 194.334 331.875C193.48 332.167 192.506 332.312 191.413 332.312ZM204.359 318.703V332H199.859V315.094H204.078L204.359 318.703ZM203.703 322.953H202.484C202.484 321.703 202.645 320.578 202.968 319.578C203.291 318.568 203.744 317.708 204.328 317C204.911 316.281 205.604 315.734 206.406 315.359C207.218 314.974 208.124 314.781 209.124 314.781C209.916 314.781 210.64 314.896 211.296 315.125C211.953 315.354 212.515 315.719 212.984 316.219C213.463 316.719 213.828 317.38 214.078 318.203C214.338 319.026 214.468 320.031 214.468 321.219V332H209.937V321.203C209.937 320.453 209.833 319.87 209.624 319.453C209.416 319.036 209.109 318.745 208.703 318.578C208.307 318.401 207.817 318.312 207.234 318.312C206.63 318.312 206.104 318.432 205.656 318.672C205.218 318.911 204.854 319.245 204.562 319.672C204.281 320.089 204.067 320.578 203.921 321.141C203.775 321.703 203.703 322.307 203.703 322.953ZM225.211 315.094V318.281H215.367V315.094H225.211ZM217.805 310.922H222.305V326.906C222.305 327.396 222.367 327.771 222.492 328.031C222.628 328.292 222.826 328.474 223.086 328.578C223.347 328.672 223.675 328.719 224.071 328.719C224.352 328.719 224.602 328.708 224.821 328.688C225.05 328.656 225.242 328.625 225.399 328.594L225.414 331.906C225.029 332.031 224.612 332.13 224.164 332.203C223.716 332.276 223.222 332.312 222.68 332.312C221.69 332.312 220.826 332.151 220.086 331.828C219.357 331.495 218.795 330.964 218.399 330.234C218.003 329.505 217.805 328.547 217.805 327.359V310.922Z" fill="black"/>
<rect x="285" y="205" width="81" height="81" rx="20" fill="#5A5D68"/>
<rect x="286" y="325" width="79" height="79" rx="19" fill="black" stroke="#17C7A9" stroke-width="2"/>
<rect x="307" y="364" width="26" height="26" transform="rotate(-45 307 364)" fill="#17C7A9"/>
</svg>
