<?xml version="1.0" encoding="UTF-8"?><svg id="Layer_2" xmlns="http://www.w3.org/2000/svg" viewBox="0 0 125.1 84.82">
  <defs>
    <style>
      .cls-1 {
        fill: none;
        stroke: #fff;
        stroke-linecap: round;
        stroke-linejoin: round;
        stroke-width: 2px;
      }
      .cls-2 {
        fill: #fff;
      }
    </style>
  </defs>
  <g id="Layer_1-2">
    <path class="cls-1"
      d="m61.93,11.62c-2.81-6.26-9.1-10.62-16.41-10.62s-14.08,4.71-16.72,11.36c-1.44-.64-3.02-1-4.7-1-6.39,0-11.57,5.18-11.57,11.57,0,.58.06,1.15.14,1.71-6.51.37-11.67,5.75-11.67,12.34s5.54,12.38,12.38,12.38" />
    <path class="cls-1"
      d="m104.07,38.09c.04-.58.06-1.17.06-1.76,0-15.54-12.59-28.13-28.13-28.13-11.88,0-22.03,7.36-26.15,17.77-2.25-1-4.73-1.57-7.35-1.57-9.99,0-18.09,8.1-18.09,18.09,0,.91.09,1.8.22,2.67-10.17.58-18.25,8.99-18.25,19.3s8.67,19.36,19.36,19.36h75.41c12.68,0,22.96-10.28,22.96-22.96,0-11.69-8.74-21.33-20.03-22.77Z" />
    <rect class="cls-2" x="49.82" y="36.82" width="18.07" height="18.07" />
    <rect class="cls-2" x="70.05" y="36.82" width="18.07" height="18.07" />
    <rect class="cls-2" x="49.82" y="57.19" width="18.07" height="18.07" />
    <rect class="cls-2" x="70.05" y="57.19" width="18.07" height="18.07" />
  </g>
</svg>