<svg width="1398" height="91" viewBox="0 0 1398 91" fill="none" xmlns="http://www.w3.org/2000/svg">
<path d="M163.167 21.0728C163.167 12.4768 156.203 5.5083 147.612 5.5083C139.021 5.5083 132.057 12.4768 132.057 21.0728V38.8634C132.057 47.4594 139.021 54.4278 147.612 54.4278C156.203 54.4278 163.167 47.4594 163.167 38.8634V21.0728Z" stroke="#14b8a6" stroke-width="2" stroke-linecap="round" stroke-linejoin="round"/>
<path d="M150.692 5.82113C150.692 5.94992 150.674 6.0787 150.674 6.20748C150.674 14.5049 155.862 21.5696 163.166 24.3844V21.0544C163.166 13.5482 157.794 7.25615 150.692 5.80273V5.82113Z" fill="#14b8a6"/>
<path d="M139.526 23.6117C148.339 23.6117 155.79 17.7428 158.2 9.70298C155.422 7.1089 151.705 5.5083 147.621 5.5083C139.066 5.5083 132.057 12.5178 132.057 21.0728V22.1214C134.356 23.0781 136.877 23.6117 139.526 23.6117V23.6117Z" fill="#14b8a6"/>
<path d="M147.916 54.4277C164.272 54.4277 177.555 67.7109 177.555 84.0665V88.0588C177.555 89.0706 176.727 89.8985 175.715 89.8985H120.117C119.105 89.8985 118.277 89.0706 118.277 88.0588V84.0665C118.277 67.7109 131.56 54.4277 147.916 54.4277Z" stroke="#14b8a6" stroke-width="2" stroke-linecap="round" stroke-linejoin="round"/>
<path d="M140.097 33.344C141.256 33.344 142.195 32.405 142.195 31.2466C142.195 30.0883 141.256 29.1493 140.097 29.1493C138.939 29.1493 138 30.0883 138 31.2466C138 32.405 138.939 33.344 140.097 33.344Z" fill="#14b8a6"/>
<path d="M155.33 33.344C156.488 33.344 157.427 32.405 157.427 31.2466C157.427 30.0883 156.488 29.1493 155.33 29.1493C154.171 29.1493 153.232 30.0883 153.232 31.2466C153.232 32.405 154.171 33.344 155.33 33.344Z" fill="#14b8a6"/>
<path d="M155.329 57.022C155.329 57.022 154.63 64.2707 147.602 64.2707C140.593 64.2707 139.875 57.022 139.875 57.022" stroke="#14b8a6" stroke-width="2" stroke-linecap="round" stroke-linejoin="round"/>
<path d="M1248.62 21.0728C1248.62 12.4768 1241.66 5.5083 1233.07 5.5083C1224.47 5.5083 1217.51 12.4768 1217.51 21.0728V38.8634C1217.51 47.4594 1224.47 54.4278 1233.07 54.4278C1241.66 54.4278 1248.62 47.4594 1248.62 38.8634V21.0728Z" stroke="#14b8a6" stroke-width="2" stroke-linecap="round" stroke-linejoin="round"/>
<path d="M1236.15 5.82113C1236.15 5.94992 1236.13 6.0787 1236.13 6.20748C1236.13 14.5049 1241.32 21.5696 1248.62 24.3844V21.0544C1248.62 13.5482 1243.25 7.25615 1236.15 5.80273V5.82113Z" fill="#14b8a6"/>
<path d="M1224.98 23.6117C1233.79 23.6117 1241.24 17.7428 1243.65 9.70298C1240.87 7.1089 1237.16 5.5083 1233.07 5.5083C1224.52 5.5083 1217.51 12.5178 1217.51 21.0728V22.1214C1219.81 23.0781 1222.33 23.6117 1224.98 23.6117V23.6117Z" fill="#14b8a6"/>
<path d="M1233.37 54.4277C1249.72 54.4277 1263.01 67.7109 1263.01 84.0665V88.0588C1263.01 89.0706 1262.18 89.8985 1261.17 89.8985H1205.57C1204.56 89.8985 1203.73 89.0706 1203.73 88.0588V84.0665C1203.73 67.7109 1217.01 54.4277 1233.37 54.4277Z" stroke="#14b8a6" stroke-width="2" stroke-linecap="round" stroke-linejoin="round"/>
<path d="M1225.55 33.344C1226.71 33.344 1227.65 32.405 1227.65 31.2466C1227.65 30.0883 1226.71 29.1493 1225.55 29.1493C1224.39 29.1493 1223.45 30.0883 1223.45 31.2466C1223.45 32.405 1224.39 33.344 1225.55 33.344Z" fill="#14b8a6"/>
<path d="M1240.78 33.344C1241.94 33.344 1242.88 32.405 1242.88 31.2466C1242.88 30.0883 1241.94 29.1493 1240.78 29.1493C1239.62 29.1493 1238.69 30.0883 1238.69 31.2466C1238.69 32.405 1239.62 33.344 1240.78 33.344Z" fill="#14b8a6"/>
<path d="M1240.78 57.022C1240.78 57.022 1240.08 64.2707 1233.06 64.2707C1226.05 64.2707 1225.33 57.022 1225.33 57.022" stroke="#14b8a6" stroke-width="2" stroke-linecap="round" stroke-linejoin="round"/>
<path d="M531.155 21.0728C531.155 12.4768 524.191 5.5083 515.6 5.5083C507.009 5.5083 500.045 12.4768 500.045 21.0728V38.8634C500.045 47.4594 507.009 54.4278 515.6 54.4278C524.191 54.4278 531.155 47.4594 531.155 38.8634V21.0728Z" stroke="#14b8a6" stroke-width="2" stroke-linecap="round" stroke-linejoin="round"/>
<path d="M518.7 5.82113C518.7 5.94992 518.682 6.0787 518.682 6.20748C518.682 14.5049 523.87 21.5696 531.174 24.3844V21.0544C531.174 13.5482 525.802 7.25615 518.7 5.80273V5.82113Z" fill="#14b8a6"/>
<path d="M507.514 23.6117C516.327 23.6117 523.778 17.7428 526.188 9.70298C523.41 7.1089 519.694 5.5083 515.609 5.5083C507.054 5.5083 500.045 12.5178 500.045 21.0728V22.1214C502.345 23.0781 504.865 23.6117 507.514 23.6117V23.6117Z" fill="#14b8a6"/>
<path d="M515.904 54.4277C532.26 54.4277 545.543 67.7109 545.543 84.0665V88.0588C545.543 89.0706 544.715 89.8985 543.703 89.8985H488.105C487.094 89.8985 486.266 89.0706 486.266 88.0588V84.0665C486.266 67.7109 499.549 54.4277 515.904 54.4277V54.4277Z" stroke="#14b8a6" stroke-width="2" stroke-linecap="round" stroke-linejoin="round"/>
<path d="M508.086 33.344C509.244 33.344 510.183 32.405 510.183 31.2466C510.183 30.0883 509.244 29.1493 508.086 29.1493C506.927 29.1493 505.988 30.0883 505.988 31.2466C505.988 32.405 506.927 33.344 508.086 33.344Z" fill="#14b8a6"/>
<path d="M523.336 33.344C524.494 33.344 525.433 32.405 525.433 31.2466C525.433 30.0883 524.494 29.1493 523.336 29.1493C522.177 29.1493 521.238 30.0883 521.238 31.2466C521.238 32.405 522.177 33.344 523.336 33.344Z" fill="#14b8a6"/>
<path d="M523.337 57.022C523.337 57.022 522.638 64.2707 515.61 64.2707C508.6 64.2707 507.883 57.022 507.883 57.022" stroke="#14b8a6" stroke-width="2" stroke-linecap="round" stroke-linejoin="round"/>
<path d="M531.027 15.02C531.027 15.02 542.691 11.782 542.691 30.9892C542.691 50.1964 552.553 43.2973 552.553 43.2973C552.553 43.2973 542.084 56.4884 531.046 40.6848V15.02H531.027Z" fill="#14b8a6" stroke="#14b8a6" stroke-width="2" stroke-linecap="round" stroke-linejoin="round"/>
<path d="M772.72 21.0723C772.72 12.4763 765.756 5.50781 757.165 5.50781C748.574 5.50781 741.609 12.4763 741.609 21.0723V38.8629C741.609 47.4589 748.574 54.4274 757.165 54.4274C765.756 54.4274 772.72 47.4589 772.72 38.8629V21.0723Z" stroke="#14b8a6" stroke-width="2" stroke-linecap="round" stroke-linejoin="round"/>
<path d="M757.469 54.4275C773.824 54.4275 787.108 67.7106 787.108 84.0662V88.0585C787.108 89.0704 786.28 89.8983 785.268 89.8983H729.67C728.658 89.8983 727.83 89.0704 727.83 88.0585V84.0662C727.83 67.7106 741.113 54.4275 757.469 54.4275Z" stroke="#14b8a6" stroke-width="2" stroke-linecap="round" stroke-linejoin="round"/>
<path d="M749.633 33.344C750.791 33.344 751.73 32.405 751.73 31.2466C751.73 30.0883 750.791 29.1493 749.633 29.1493C748.474 29.1493 747.535 30.0883 747.535 31.2466C747.535 32.405 748.474 33.344 749.633 33.344Z" fill="#14b8a6"/>
<path d="M764.883 33.344C766.041 33.344 766.98 32.405 766.98 31.2466C766.98 30.0883 766.041 29.1493 764.883 29.1493C763.724 29.1493 762.785 30.0883 762.785 31.2466C762.785 32.405 763.724 33.344 764.883 33.344Z" fill="#14b8a6"/>
<path d="M764.882 57.0215C764.882 57.0215 764.183 64.2702 757.155 64.2702C750.145 64.2702 749.428 57.0215 749.428 57.0215" stroke="#14b8a6" stroke-width="2" stroke-linecap="round" stroke-linejoin="round"/>
<path d="M757.467 2.84033H757.872C757.872 2.84033 735.795 2.98751 735.795 23.7769V41.1628C735.795 45.3759 738.867 48.7426 743.08 48.6323L746.392 48.5403L743.172 42.4506V24.9176H772.609V42.4322L769.187 48.5219L772.296 48.6139C776.491 48.7242 779.968 45.3575 779.968 41.1444V23.7769C779.968 3.00591 757.486 2.84033 757.486 2.84033H757.467Z" fill="#14b8a6"/>
<path d="M889.997 21.0725C889.997 12.4765 883.033 5.50806 874.442 5.50806C865.851 5.50806 858.887 12.4765 858.887 21.0725V38.8631C858.887 47.4591 865.851 54.4276 874.442 54.4276C883.033 54.4276 889.997 47.4591 889.997 38.8631V21.0725Z" stroke="#14b8a6" stroke-width="2" stroke-linecap="round" stroke-linejoin="round"/>
<path d="M874.746 54.4277C891.102 54.4277 904.385 67.7109 904.385 84.0665V88.0588C904.385 89.0706 903.557 89.8985 902.545 89.8985H846.947C845.935 89.8985 845.107 89.0706 845.107 88.0588V84.0665C845.107 67.7109 858.391 54.4277 874.746 54.4277Z" stroke="#14b8a6" stroke-width="2" stroke-linecap="round" stroke-linejoin="round"/>
<path d="M866.91 33.3437C868.068 33.3437 869.007 32.4047 869.007 31.2464C869.007 30.0881 868.068 29.149 866.91 29.149C865.752 29.149 864.812 30.0881 864.812 31.2464C864.812 32.4047 865.752 33.3437 866.91 33.3437Z" fill="#14b8a6"/>
<path d="M882.16 33.3437C883.318 33.3437 884.257 32.4047 884.257 31.2464C884.257 30.0881 883.318 29.149 882.16 29.149C881.002 29.149 880.062 30.0881 880.062 31.2464C880.062 32.4047 881.002 33.3437 882.16 33.3437Z" fill="#14b8a6"/>
<path d="M870.534 15.0197C870.534 15.0197 874.435 29.9587 899.75 25.7272C899.75 25.7272 893.016 22.5444 892.391 19.3984C891.618 15.4981 889.631 0.301563 870.534 2.84045C870.534 2.84045 864.555 5.37933 870.534 15.0197V15.0197Z" fill="#14b8a6" stroke="#14b8a6" stroke-width="2" stroke-linecap="round" stroke-linejoin="round"/>
<path d="M867.571 8.21265C867.571 8.21265 869.614 22.4709 858.575 25.5433V32.2953C858.575 32.2953 852.449 27.0887 854.895 17.8898C857.342 8.69099 861.243 0.559193 867.571 8.23104V8.21265Z" fill="#14b8a6" stroke="#14b8a6" stroke-width="2" stroke-linecap="round" stroke-linejoin="round"/>
<path d="M874.746 37.8699C871.582 37.8699 868.877 39.6912 867.663 41.6046C867.074 42.5429 868.031 43.61 869.429 43.61H880.063C881.461 43.61 882.418 42.5429 881.829 41.6046C880.615 39.6912 877.911 37.8699 874.746 37.8699V37.8699Z" fill="#14b8a6"/>
<path d="M870.314 43.6279C870.314 43.6279 864.611 48.5033 866.009 51.9253C866.009 51.9253 862.109 49.0737 861.023 45.2285C861.023 45.2285 866.727 37.9062 874.067 37.9062C878.428 37.9062 870.314 43.6279 870.314 43.6279V43.6279Z" fill="#14b8a6"/>
<path d="M879.179 43.6279C879.179 43.6279 884.883 48.5033 883.484 51.9253C883.484 51.9253 887.385 49.0737 888.47 45.2285C888.47 45.2285 882.767 37.9062 875.426 37.9062C871.066 37.9062 879.179 43.6279 879.179 43.6279V43.6279Z" fill="#14b8a6"/>
<path d="M873.292 54.354H881.406L874.212 63.5529H874.451L867.479 54.354H875.132" stroke="#14b8a6" stroke-width="2" stroke-linecap="round" stroke-linejoin="round"/>
<path d="M867.884 89.8801L864.83 83.7905L874.213 63.553" stroke="#14b8a6" stroke-width="2" stroke-linecap="round" stroke-linejoin="round"/>
<path d="M880.56 89.8801L883.614 83.7905L874.213 63.553" stroke="#14b8a6" stroke-width="2" stroke-linecap="round" stroke-linejoin="round"/>
<path d="M45.8898 21.0728C45.8898 12.4768 38.9255 5.5083 30.3346 5.5083C21.7436 5.5083 14.7793 12.4768 14.7793 21.0728V38.8634C14.7793 47.4594 21.7436 54.4278 30.3346 54.4278C38.9255 54.4278 45.8898 47.4594 45.8898 38.8634V21.0728Z" stroke="#14b8a6" stroke-width="2" stroke-linecap="round" stroke-linejoin="round"/>
<path d="M30.6387 54.4277C46.9943 54.4277 60.2775 67.7109 60.2775 84.0665V88.0588C60.2775 89.0706 59.4496 89.8985 58.4377 89.8985H2.83977C1.8279 89.8985 1 89.0706 1 88.0588V84.0665C1 67.7109 14.2832 54.4277 30.6387 54.4277Z" stroke="#14b8a6" stroke-width="2" stroke-linecap="round" stroke-linejoin="round"/>
<path d="M22.82 33.344C23.9783 33.344 24.9173 32.405 24.9173 31.2466C24.9173 30.0883 23.9783 29.1493 22.82 29.1493C21.6617 29.1493 20.7227 30.0883 20.7227 31.2466C20.7227 32.405 21.6617 33.344 22.82 33.344Z" fill="#14b8a6"/>
<path d="M38.0524 33.344C39.2107 33.344 40.1498 32.405 40.1498 31.2466C40.1498 30.0883 39.2107 29.1493 38.0524 29.1493C36.8941 29.1493 35.9551 30.0883 35.9551 31.2466C35.9551 32.405 36.8941 33.344 38.0524 33.344Z" fill="#14b8a6"/>
<path d="M38.0517 57.022C38.0517 57.022 37.3526 64.2707 30.3247 64.2707C23.3152 64.2707 22.5977 57.022 22.5977 57.022" stroke="#14b8a6" stroke-width="2" stroke-linecap="round" stroke-linejoin="round"/>
<path d="M37.1693 37.7964H24.9165C21.3105 39.6362 18.3301 48.7246 18.3301 48.7246C24.8061 55.9733 31.0613 54.3543 31.0613 54.3543C31.0613 54.3543 37.3165 55.9733 43.7925 48.7246C43.7925 48.7246 40.7937 39.6362 37.2061 37.7964H37.1693ZM25.634 46.9952C25.634 45.1555 27.9521 41.8255 30.8037 41.8255C33.6554 41.8255 35.9735 45.1555 35.9735 46.9952H25.634V46.9952Z" fill="#14b8a6"/>
<path d="M1131.34 21.0728C1131.34 12.4768 1124.38 5.5083 1115.79 5.5083C1107.2 5.5083 1100.23 12.4768 1100.23 21.0728V38.8634C1100.23 47.4594 1107.2 54.4278 1115.79 54.4278C1124.38 54.4278 1131.34 47.4594 1131.34 38.8634V21.0728Z" stroke="#14b8a6" stroke-width="2" stroke-linecap="round" stroke-linejoin="round"/>
<path d="M1116.09 54.4277C1132.45 54.4277 1145.73 67.7109 1145.73 84.0665V88.0588C1145.73 89.0706 1144.9 89.8985 1143.89 89.8985H1088.29C1087.28 89.8985 1086.45 89.0706 1086.45 88.0588V84.0665C1086.45 67.7109 1099.74 54.4277 1116.09 54.4277Z" stroke="#14b8a6" stroke-width="2" stroke-linecap="round" stroke-linejoin="round"/>
<path d="M1108.27 33.344C1109.43 33.344 1110.37 32.405 1110.37 31.2466C1110.37 30.0883 1109.43 29.1493 1108.27 29.1493C1107.11 29.1493 1106.18 30.0883 1106.18 31.2466C1106.18 32.405 1107.11 33.344 1108.27 33.344Z" fill="#14b8a6"/>
<path d="M1123.51 33.344C1124.66 33.344 1125.6 32.405 1125.6 31.2466C1125.6 30.0883 1124.66 29.1493 1123.51 29.1493C1122.35 29.1493 1121.41 30.0883 1121.41 31.2466C1121.41 32.405 1122.35 33.344 1123.51 33.344Z" fill="#14b8a6"/>
<path d="M1123.5 57.022C1123.5 57.022 1122.81 64.2707 1115.78 64.2707C1108.77 64.2707 1108.05 57.022 1108.05 57.022" stroke="#14b8a6" stroke-width="2" stroke-linecap="round" stroke-linejoin="round"/>
<path d="M1122.62 37.7964H1110.37C1106.76 39.6362 1103.78 48.7246 1103.78 48.7246C1110.26 55.9733 1116.51 54.3543 1116.51 54.3543C1116.51 54.3543 1122.77 55.9733 1129.25 48.7246C1129.25 48.7246 1126.25 39.6362 1122.66 37.7964H1122.62ZM1111.09 46.9952C1111.09 45.1555 1113.41 41.8255 1116.26 41.8255C1119.11 41.8255 1121.43 45.1555 1121.43 46.9952H1111.09V46.9952Z" fill="#14b8a6"/>
<path d="M413.878 21.0719C413.878 12.4759 406.914 5.50745 398.323 5.50745C389.732 5.50745 382.768 12.4759 382.768 21.0719V38.8625C382.768 47.4585 389.732 54.427 398.323 54.427C406.914 54.427 413.878 47.4585 413.878 38.8625V21.0719Z" stroke="#14b8a6" stroke-width="2" stroke-linecap="round" stroke-linejoin="round"/>
<path d="M398.627 54.4272C414.983 54.4272 428.266 67.7104 428.266 84.066V88.0583C428.266 89.0702 427.438 89.8981 426.426 89.8981H370.828C369.816 89.8981 368.988 89.0702 368.988 88.0583V84.066C368.988 67.7104 382.271 54.4272 398.627 54.4272Z" stroke="#14b8a6" stroke-width="2" stroke-linecap="round" stroke-linejoin="round"/>
<path d="M390.808 33.3432C391.967 33.3432 392.906 32.4042 392.906 31.2459C392.906 30.0876 391.967 29.1486 390.808 29.1486C389.65 29.1486 388.711 30.0876 388.711 31.2459C388.711 32.4042 389.65 33.3432 390.808 33.3432Z" fill="#14b8a6"/>
<path d="M406.058 33.3435C407.217 33.3435 408.156 32.4045 408.156 31.2461C408.156 30.0878 407.217 29.1488 406.058 29.1488C404.9 29.1488 403.961 30.0878 403.961 31.2461C403.961 32.4045 404.9 33.3435 406.058 33.3435Z" fill="#14b8a6"/>
<path d="M403.779 39.4147C401.167 36.655 398.352 37.5749 398.352 37.5749C398.352 37.5749 395.518 36.655 392.924 39.4147C390.33 42.1743 388.748 39.4147 388.748 39.4147C388.748 39.4147 388.969 43.315 393.55 43.0942C395.942 42.9654 397.561 42.2847 398.352 41.2361C399.143 42.2847 400.762 42.9838 403.153 43.0942C407.734 43.315 407.955 39.4147 407.955 39.4147C407.955 39.4147 406.373 42.1743 403.779 39.4147V39.4147Z" fill="#14b8a6"/>
<path d="M413.824 27.4561C413.824 27.4561 414.799 48.8342 398.628 48.8342C382.456 48.8342 383.431 27.4561 383.431 27.4561C383.431 27.4561 381.555 39.525 381.555 48.0431C381.555 56.5613 398.628 65.4106 398.628 65.4106C398.628 65.4106 415.701 56.5613 415.701 48.0431C415.701 39.525 413.824 27.4561 413.824 27.4561Z" fill="#14b8a6"/>
<path d="M399.032 4.67969C399.032 4.67969 386.08 5.15803 383.468 17.7973L382.787 34.2632C382.787 34.2632 387.534 29.1487 387.975 21.532C388.343 15.2032 393.513 20.2994 399.032 20.2994C402.712 20.2994 409.041 15.1848 409.39 21.532C409.832 29.1487 413.879 34.2632 413.879 34.2632V17.7973C411.267 5.15803 399.014 4.67969 399.014 4.67969H399.032Z" fill="#14b8a6"/>
<path d="M288.814 21.0728C288.814 12.4768 281.849 5.5083 273.258 5.5083C264.667 5.5083 257.703 12.4768 257.703 21.0728V38.8634C257.703 47.4594 264.667 54.4278 273.258 54.4278C281.849 54.4278 288.814 47.4594 288.814 38.8634V21.0728Z" stroke="#14b8a6" stroke-width="2" stroke-linecap="round" stroke-linejoin="round"/>
<path d="M276.36 5.82113C276.36 5.94992 276.342 6.0787 276.342 6.20748C276.342 14.5049 281.53 21.5696 288.834 24.3844V21.0544C288.834 13.5482 283.462 7.25615 276.36 5.80273V5.82113Z" fill="#14b8a6"/>
<path d="M265.194 23.6117C274.007 23.6117 281.458 17.7428 283.868 9.70298C281.09 7.1089 277.373 5.5083 273.289 5.5083C264.734 5.5083 257.725 12.5178 257.725 21.0728V22.1214C260.024 23.0781 262.545 23.6117 265.194 23.6117V23.6117Z" fill="#14b8a6"/>
<path d="M273.566 54.4277C289.922 54.4277 303.205 67.7109 303.205 84.0665V88.0588C303.205 89.0706 302.377 89.8985 301.365 89.8985H245.768C244.756 89.8985 243.928 89.0706 243.928 88.0588V84.0665C243.928 67.7109 257.211 54.4277 273.566 54.4277Z" stroke="#14b8a6" stroke-width="2" stroke-linecap="round" stroke-linejoin="round"/>
<path d="M265.744 33.344C266.902 33.344 267.841 32.405 267.841 31.2466C267.841 30.0883 266.902 29.1493 265.744 29.1493C264.585 29.1493 263.646 30.0883 263.646 31.2466C263.646 32.405 264.585 33.344 265.744 33.344Z" fill="#14b8a6"/>
<path d="M280.998 33.344C282.156 33.344 283.095 32.405 283.095 31.2466C283.095 30.0883 282.156 29.1493 280.998 29.1493C279.839 29.1493 278.9 30.0883 278.9 31.2466C278.9 32.405 279.839 33.344 280.998 33.344Z" fill="#14b8a6"/>
<path d="M280.999 57.022C280.999 57.022 280.3 64.2707 273.272 64.2707C266.262 64.2707 265.545 57.022 265.545 57.022" stroke="#14b8a6" stroke-width="2" stroke-linecap="round" stroke-linejoin="round"/>
<path d="M286.85 15.7191H290.529C290.529 15.7191 291.449 9.73982 296.269 9.50065C301.089 9.26148 304.769 17.5589 302.929 27.1993C301.089 36.8397 310.987 29.1494 310.987 29.1494C310.987 29.1494 307.308 44.4563 298.919 39.6177C290.529 34.7975 290.75 21.22 290.75 21.22H286.85V15.7007V15.7191Z" fill="#14b8a6" stroke="#14b8a6" stroke-width="2" stroke-linecap="round" stroke-linejoin="round"/>
<path d="M259.251 15.719H256.013C256.013 15.719 255.093 9.73974 250.254 9.51896C245.416 9.29819 241.755 17.5772 243.594 27.236C245.434 36.8948 235.555 29.1861 235.555 29.1861C235.555 29.1861 239.234 44.493 247.624 39.6544C256.013 34.8158 255.792 21.2567 255.792 21.2567H259.251V15.7374V15.719Z" fill="#14b8a6" stroke="#14b8a6" stroke-width="2" stroke-linecap="round" stroke-linejoin="round"/>
<path d="M1374.27 21.0728C1374.27 12.4768 1367.3 5.5083 1358.71 5.5083C1350.12 5.5083 1343.16 12.4768 1343.16 21.0728V38.8634C1343.16 47.4594 1350.12 54.4278 1358.71 54.4278C1367.3 54.4278 1374.27 47.4594 1374.27 38.8634V21.0728Z" stroke="#14b8a6" stroke-width="2" stroke-linecap="round" stroke-linejoin="round"/>
<path d="M1361.81 5.82113C1361.81 5.94992 1361.79 6.0787 1361.79 6.20748C1361.79 14.5049 1366.98 21.5696 1374.29 24.3844V21.0544C1374.29 13.5482 1368.91 7.25615 1361.81 5.80273V5.82113Z" fill="#14b8a6"/>
<path d="M1350.65 23.6117C1359.46 23.6117 1366.91 17.7428 1369.32 9.70298C1366.54 7.1089 1362.83 5.5083 1358.74 5.5083C1350.19 5.5083 1343.18 12.5178 1343.18 21.0728V22.1214C1345.48 23.0781 1348 23.6117 1350.65 23.6117V23.6117Z" fill="#14b8a6"/>
<path d="M1359.02 54.4277C1375.38 54.4277 1388.66 67.7109 1388.66 84.0665V88.0588C1388.66 89.0706 1387.83 89.8985 1386.82 89.8985H1331.22C1330.21 89.8985 1329.38 89.0706 1329.38 88.0588V84.0665C1329.38 67.7109 1342.66 54.4277 1359.02 54.4277Z" stroke="#14b8a6" stroke-width="2" stroke-linecap="round" stroke-linejoin="round"/>
<path d="M1351.2 33.344C1352.36 33.344 1353.29 32.405 1353.29 31.2466C1353.29 30.0883 1352.36 29.1493 1351.2 29.1493C1350.04 29.1493 1349.1 30.0883 1349.1 31.2466C1349.1 32.405 1350.04 33.344 1351.2 33.344Z" fill="#14b8a6"/>
<path d="M1366.45 33.344C1367.61 33.344 1368.55 32.405 1368.55 31.2466C1368.55 30.0883 1367.61 29.1493 1366.45 29.1493C1365.29 29.1493 1364.35 30.0883 1364.35 31.2466C1364.35 32.405 1365.29 33.344 1366.45 33.344Z" fill="#14b8a6"/>
<path d="M1366.45 57.022C1366.45 57.022 1365.75 64.2707 1358.73 64.2707C1351.72 64.2707 1351 57.022 1351 57.022" stroke="#14b8a6" stroke-width="2" stroke-linecap="round" stroke-linejoin="round"/>
<path d="M1372.3 15.7191H1375.98C1375.98 15.7191 1376.9 9.73982 1381.72 9.50065C1386.54 9.26148 1390.22 17.5589 1388.38 27.1993C1386.54 36.8397 1396.44 29.1494 1396.44 29.1494C1396.44 29.1494 1392.76 44.4563 1384.37 39.6177C1375.98 34.7975 1376.2 21.22 1376.2 21.22H1372.3V15.7007V15.7191Z" fill="#14b8a6" stroke="#14b8a6" stroke-width="2" stroke-linecap="round" stroke-linejoin="round"/>
<path d="M1344.7 15.719H1341.47C1341.47 15.719 1340.55 9.73974 1335.71 9.51896C1330.87 9.29819 1327.21 17.5772 1329.05 27.236C1330.89 36.8948 1321.01 29.1861 1321.01 29.1861C1321.01 29.1861 1324.69 44.493 1333.08 39.6544C1341.47 34.8158 1341.25 21.2567 1341.25 21.2567H1344.7V15.7374V15.719Z" fill="#14b8a6" stroke="#14b8a6" stroke-width="2" stroke-linecap="round" stroke-linejoin="round"/>
<path d="M647.604 57.021C647.604 57.021 646.905 64.2697 639.877 64.2697C632.868 64.2697 632.15 57.021 632.15 57.021" stroke="#14b8a6" stroke-width="2" stroke-linecap="round" stroke-linejoin="round"/>
<path d="M655.443 21.0718C655.443 12.4758 648.478 5.50732 639.887 5.50732C631.296 5.50732 624.332 12.4758 624.332 21.0718V38.8624C624.332 47.4584 631.296 54.4269 639.887 54.4269C648.478 54.4269 655.443 47.4584 655.443 38.8624V21.0718Z" stroke="#14b8a6" stroke-width="2" stroke-linecap="round" stroke-linejoin="round"/>
<path d="M640.191 54.427C656.547 54.427 669.83 67.7102 669.83 84.0657V88.058C669.83 89.0699 669.002 89.8978 667.99 89.8978H612.393C611.381 89.8978 610.553 89.0699 610.553 88.058V84.0657C610.553 67.7102 623.836 54.427 640.191 54.427V54.427Z" stroke="#14b8a6" stroke-width="2" stroke-linecap="round" stroke-linejoin="round"/>
<path d="M632.373 33.3432C633.531 33.3432 634.47 32.4042 634.47 31.2459C634.47 30.0876 633.531 29.1486 632.373 29.1486C631.214 29.1486 630.275 30.0876 630.275 31.2459C630.275 32.4042 631.214 33.3432 632.373 33.3432Z" fill="#14b8a6"/>
<path d="M647.605 33.3432C648.764 33.3432 649.703 32.4042 649.703 31.2459C649.703 30.0876 648.764 29.1486 647.605 29.1486C646.447 29.1486 645.508 30.0876 645.508 31.2459C645.508 32.4042 646.447 33.3432 647.605 33.3432Z" fill="#14b8a6"/>
<path d="M646.722 39.6353H634.469C630.863 41.475 627.883 50.122 627.883 50.122C634.359 57.3707 640.614 55.5309 640.614 55.5309C640.614 55.5309 646.869 57.481 653.345 50.2323C653.345 50.2323 650.346 41.475 646.759 39.6353H646.722ZM635.187 48.8341C635.187 46.9943 637.505 43.6644 640.356 43.6644C643.208 43.6644 645.526 46.9943 645.526 48.8341H635.187Z" fill="#14b8a6"/>
<path d="M640.579 1H645.693L643.927 15.7182H640.579H637.23L635.482 1H640.579Z" fill="#14b8a6" stroke="#14b8a6" stroke-width="2" stroke-linecap="round" stroke-linejoin="round"/>
<path d="M1010.97 21.0728C1010.97 12.4768 1004.01 5.5083 995.419 5.5083C986.828 5.5083 979.863 12.4768 979.863 21.0728V38.8634C979.863 47.4594 986.828 54.4278 995.419 54.4278C1004.01 54.4278 1010.97 47.4594 1010.97 38.8634V21.0728Z" stroke="#14b8a6" stroke-width="2" stroke-linecap="round" stroke-linejoin="round"/>
<path d="M992.337 5.82113C992.337 5.94992 992.355 6.0787 992.355 6.20748C992.355 14.5049 987.167 21.5696 979.863 24.3844V21.0544C979.863 13.5482 985.235 7.25615 992.337 5.80273V5.82113Z" fill="#14b8a6"/>
<path d="M1003.5 23.6117C994.689 23.6117 987.238 17.7428 984.828 9.70298C987.606 7.1089 991.323 5.5083 995.407 5.5083C1003.96 5.5083 1010.97 12.5178 1010.97 21.0728V22.1214C1008.67 23.0781 1006.15 23.6117 1003.5 23.6117V23.6117Z" fill="#14b8a6"/>
<path d="M995.721 54.4277C1012.08 54.4277 1025.36 67.7109 1025.36 84.0665V88.0588C1025.36 89.0706 1024.53 89.8985 1023.52 89.8985H967.922C966.91 89.8985 966.082 89.0706 966.082 88.0588V84.0665C966.082 67.7109 979.365 54.4277 995.721 54.4277V54.4277Z" stroke="#14b8a6" stroke-width="2" stroke-linecap="round" stroke-linejoin="round"/>
<path d="M987.884 33.344C989.043 33.344 989.982 32.405 989.982 31.2466C989.982 30.0883 989.043 29.1493 987.884 29.1493C986.726 29.1493 985.787 30.0883 985.787 31.2466C985.787 32.405 986.726 33.344 987.884 33.344Z" fill="#14b8a6"/>
<path d="M1003.13 33.344C1004.29 33.344 1005.23 32.405 1005.23 31.2466C1005.23 30.0883 1004.29 29.1493 1003.13 29.1493C1001.98 29.1493 1001.04 30.0883 1001.04 31.2466C1001.04 32.405 1001.98 33.344 1003.13 33.344Z" fill="#14b8a6"/>
<path d="M977.746 61.2354L979.862 72.7523H996.107" stroke="#14b8a6" stroke-width="2" stroke-linecap="round" stroke-linejoin="round"/>
<path d="M1014.47 61.2354L1012.35 72.7523H996.109" stroke="#14b8a6" stroke-width="2" stroke-linecap="round" stroke-linejoin="round"/>
<path d="M974.416 42.69C977.932 42.69 980.782 39.84 980.782 36.3244C980.782 32.8087 977.932 29.9587 974.416 29.9587C970.901 29.9587 968.051 32.8087 968.051 36.3244C968.051 39.84 970.901 42.69 974.416 42.69Z" fill="#14b8a6"/>
<path d="M974.416 29.4437C977.932 29.4437 980.782 26.5938 980.782 23.0781C980.782 19.5625 977.932 16.7125 974.416 16.7125C970.901 16.7125 968.051 19.5625 968.051 23.0781C968.051 26.5938 970.901 29.4437 974.416 29.4437Z" fill="#14b8a6"/>
<path d="M974.508 34.411C977.638 34.411 980.175 31.874 980.175 28.7445C980.175 25.615 977.638 23.078 974.508 23.078C971.379 23.078 968.842 25.615 968.842 28.7445C968.842 31.874 971.379 34.411 974.508 34.411Z" fill="#14b8a6"/>
<path d="M968.051 35.6254C971.181 35.6254 973.718 33.0884 973.718 29.9589C973.718 26.8293 971.181 24.2924 968.051 24.2924C964.922 24.2924 962.385 26.8293 962.385 29.9589C962.385 33.0884 964.922 35.6254 968.051 35.6254Z" fill="#14b8a6"/>
<path d="M1016.42 42.6901C1019.94 42.6901 1022.79 39.8401 1022.79 36.3245C1022.79 32.8088 1019.94 29.9589 1016.42 29.9589C1012.9 29.9589 1010.05 32.8088 1010.05 36.3245C1010.05 39.8401 1012.9 42.6901 1016.42 42.6901Z" fill="#14b8a6"/>
<path d="M1016.42 29.4437C1019.94 29.4437 1022.79 26.5938 1022.79 23.0781C1022.79 19.5625 1019.94 16.7125 1016.42 16.7125C1012.9 16.7125 1010.05 19.5625 1010.05 23.0781C1010.05 26.5938 1012.9 29.4437 1016.42 29.4437Z" fill="#14b8a6"/>
<path d="M1016.31 34.411C1019.44 34.411 1021.98 31.874 1021.98 28.7445C1021.98 25.615 1019.44 23.078 1016.31 23.078C1013.18 23.078 1010.64 25.615 1010.64 28.7445C1010.64 31.874 1013.18 34.411 1016.31 34.411Z" fill="#14b8a6"/>
<path d="M1022.79 35.6254C1025.92 35.6254 1028.45 33.0884 1028.45 29.9589C1028.45 26.8293 1025.92 24.2924 1022.79 24.2924C1019.66 24.2924 1017.12 26.8293 1017.12 29.9589C1017.12 33.0884 1019.66 35.6254 1022.79 35.6254Z" fill="#14b8a6"/>
</svg>
