<?xml version="1.0" encoding="utf-8"?>
<!-- Generator: Adobe Illustrator 27.0.1, SVG Export Plug-In . SVG Version: 6.00 Build 0)  -->
<svg version="1.1" id="Layer_1" xmlns="http://www.w3.org/2000/svg" xmlns:xlink="http://www.w3.org/1999/xlink" x="0px" y="0px"
	 viewBox="0 0 240 100" style="enable-background:new 0 0 240 100;" xml:space="preserve">
<style type="text/css">
	.st0{fill:#000000;}
</style>
<g id="g10">
	<g id="g12">
		<path id="path14" class="st0" d="M43.1,66.6c0.1-0.4,0.1-31,0-31.7l-15.6,3.7v21.5l-8,3.1l0,0l0,0c0-0.1,0-0.2,0-0.2V36.9
			c0.1-0.1,0.3-0.2,0.4-0.2l22.9-8.6c0.2-0.1,0.5-0.1,0.8-0.1c4.2,1.2,8.4,2.4,12.6,3.6l0.2,0.1v36.7l-3.6,1l-9.1,2.5
			c-0.3,0.1-0.6,0.1-0.8,0l-22.5-8.3c-0.2-0.1-0.3-0.1-0.4-0.2l23.3,3.2L43.1,66.6z"/>
		<path id="path16" class="st0" d="M99.9,47h-3.2v-2.6h3.1c0.2-0.2,0.1-0.3,0.1-0.5v-2.7c0-1.1,0.2-2.1,0.7-3.1
			c0.9-1.9,2.8-3.1,4.9-3.2c0.7-0.1,1.5,0,2.2,0.2l0.4,0.1v2.7c-0.1,0.1-0.2,0-0.3-0.1c-0.8-0.3-1.7-0.4-2.5-0.2
			c-0.8,0.2-1.4,0.7-1.8,1.4c-0.2,0.5-0.4,1-0.4,1.5c-0.1,1.3,0,2.6,0,3.9h7.3c0.1-0.1,0.1-0.3,0.1-0.4c0-1,0-2,0-2.9
			c0-1.7,0.6-3.3,1.8-4.5c0.9-0.9,2.2-1.5,3.5-1.6c0.8-0.1,1.6,0,2.3,0.1c0.2,0,0.4,0.1,0.5,0.2v2.7c-0.5-0.2-1-0.3-1.5-0.4
			c-0.5-0.1-1,0-1.5,0.1c-0.8,0.2-1.5,0.7-1.8,1.5c-0.2,0.5-0.4,1.1-0.4,1.7c0,1.1,0,2.3,0,3.4c0,0.1,0,0.1,0,0.2h4.4v2.6h-4.4v16.3
			h-3c0-0.8,0-1.5,0-2.3s0-1.5,0-2.3V47H103v16.2h-3c0-0.6,0-1.2,0-1.8L99.9,47L99.9,47z"/>
		<path id="path18" class="st0" d="M69.6,50.4c0-2.5,0.5-5,1.5-7.3c1.6-3.4,4.7-5.8,8.3-6.4c2.2-0.5,4.6-0.4,6.8,0.2
			c3.5,1,6.3,3.7,7.5,7.1c0.8,2.3,1.2,4.7,1,7.1c-0.1,1.6-0.4,3.2-0.9,4.7c-1.3,4.2-5,7.2-9.4,7.8c-2.5,0.5-5.2,0.2-7.6-0.8
			c-3-1.3-5.2-3.7-6.3-6.8C70,54.2,69.7,52.3,69.6,50.4L69.6,50.4z M91.5,49.9c0-0.4,0-0.9-0.1-1.4c-0.1-1.6-0.5-3.2-1.2-4.6
			c-0.9-1.9-2.5-3.4-4.4-4.1c-1-0.4-2.1-0.6-3.1-0.6c-3.4-0.2-6.5,1.5-8.2,4.5c-0.9,1.5-1.4,3.2-1.5,5c-0.2,2.2,0,4.5,0.8,6.6
			c0.8,2.2,2.5,4.1,4.7,5c1.4,0.6,3,0.8,4.6,0.6c3.2-0.1,6.1-2.1,7.3-5.1C91.2,53.9,91.5,51.9,91.5,49.9z"/>
		<path id="path20" class="st0" d="M201.1,37.1v2.8c-0.1,0.1-0.2,0-0.3,0c-1.1-0.5-2.2-0.8-3.4-0.9c-2-0.2-4,0.5-5.3,2
			c-1,1.1-1.8,2.4-2.2,3.8c-0.6,1.8-0.8,3.6-0.8,5.5c0.2,0,0.2-0.2,0.3-0.4c0.6-1.2,1.6-2.1,2.8-2.7c0.7-0.3,1.5-0.5,2.3-0.6
			c1.1-0.1,2.2,0,3.3,0.3c2.1,0.7,3.8,2.3,4.4,4.4c0.8,2.3,0.8,4.9-0.1,7.1c-1.3,3.3-4.5,5.4-8.1,5.1c-2.3,0-4.5-1.2-5.8-3.2
			c-0.9-1.4-1.6-2.9-1.9-4.6c-0.4-2.2-0.5-4.5-0.3-6.8c0.1-2.1,0.6-4.2,1.5-6.2c0.7-1.8,1.9-3.5,3.5-4.7c1.6-1.3,3.6-1.9,5.6-1.9
			c1.2,0,2.4,0.1,3.5,0.4C200.4,36.8,200.7,37,201.1,37.1z M189.2,55.1c0,1.6,0.6,3.2,1.7,4.4c1.4,1.6,3.7,2.1,5.6,1.2
			c1.4-0.6,2.4-1.8,2.8-3.3c0.5-1.6,0.4-3.2-0.1-4.8c-0.4-1.4-1.4-2.5-2.8-3c-1.1-0.4-2.2-0.5-3.3-0.2
			C190.8,50,189.2,52.2,189.2,55.1L189.2,55.1z"/>
		<path id="path22" class="st0" d="M206.2,50c0.3-4.3,0.6-8.7,0.9-13.1h12.2v2.6l0,0l0,0h-0.1h-9.4c-0.2,2.6-0.4,5.1-0.5,7.7
			c0.2,0.1,0.4,0.1,0.5,0c1.3-0.1,2.6-0.1,3.8,0.1c1.6,0.2,3.2,0.8,4.4,1.8c1.3,1,2.2,2.5,2.4,4.1c0.3,1.7,0.2,3.4-0.3,5
			c-0.8,2.3-2.7,4.1-5,4.9c-1.5,0.5-3.1,0.7-4.6,0.6c-1.2,0-2.3-0.2-3.5-0.5c-0.4-0.1-0.7-0.3-1.1-0.5c-0.1-0.1-0.2-0.2-0.2-0.3
			c0-1,0-2,0-3c0.1,0,0.3,0.1,0.4,0.1c1.3,0.8,2.8,1.3,4.3,1.5c1.3,0.2,2.6,0,3.8-0.5c1.8-0.7,3-2.5,3.2-4.4c0.1-0.8,0-1.6-0.1-2.4
			c-0.4-1.5-1.5-2.7-3-3.3c-0.9-0.4-1.9-0.6-2.8-0.6c-1.7-0.1-3.3,0-4.9,0.2C206.4,50,206.2,50,206.2,50L206.2,50z"/>
		<path id="path24" class="st0" d="M159.6,54.6h-13.3c0,0.6,0,1.3,0.2,1.9c0.2,0.9,0.6,1.8,1.1,2.5c0.9,1.1,2.2,1.9,3.6,2
			c2.3,0.3,4.7-0.3,6.6-1.6l0.4-0.2h0.1c0.1,0.1,0,0.3,0,0.4c0,0.6,0,1.2,0,1.8c0,0.3-0.1,0.6-0.4,0.8c-1,0.6-2,1-3.1,1.2
			c-1.7,0.4-3.4,0.4-5.1,0.1c-2.7-0.5-4.9-2.3-5.8-4.8c-0.4-1-0.7-2.1-0.7-3.2c-0.2-1.9,0-3.7,0.6-5.5c0.7-2.3,2.3-4.2,4.4-5.2
			c2.1-1.1,4.6-1.2,6.8-0.3c1.9,0.7,3.4,2.3,4,4.2c0.4,1.1,0.6,2.3,0.7,3.5C159.6,52.9,159.6,53.7,159.6,54.6L159.6,54.6z M156.5,52
			c0.1-1.3-0.3-2.6-1-3.7c-0.4-0.6-1-1.1-1.7-1.4c-1.6-0.7-3.4-0.5-4.9,0.5c-1.5,1.1-2.4,2.8-2.6,4.6L156.5,52z"/>
		<path id="path26" class="st0" d="M170,50.8v-2.5c0.2-0.1,0.4-0.1,0.6,0c1,0,2,0,3-0.1c0.8-0.1,1.7-0.3,2.5-0.6
			c1.5-0.6,2.5-2,2.6-3.6c0.1-0.7,0-1.3-0.1-2c-0.3-1.5-1.5-2.6-3.1-2.9c-2.2-0.5-4.5,0-6.3,1.2l-0.3,0.2l-0.4,0.2c0-0.5,0-1,0-1.5
			s0-1,0-1.4c0.9-0.5,1.9-0.9,2.9-1.2c1.9-0.5,3.8-0.5,5.7,0c1.8,0.4,3.4,1.6,4.3,3.3c0.5,1.2,0.7,2.5,0.5,3.7
			c-0.1,0.7-0.3,1.5-0.6,2.2c-0.6,1.3-1.7,2.3-3,2.9c-0.4,0.2-0.8,0.3-1.2,0.5c-0.1,0-0.2,0-0.3,0.2c0.6,0.1,1.2,0.2,1.8,0.4
			c2,0.6,3.5,2.2,4.1,4.2c0.8,2.7-0.1,5.5-2.2,7.3c-1.3,1.1-2.8,1.9-4.5,2.1c-2.1,0.4-4.3,0.3-6.4-0.3c-0.6-0.2-1.2-0.4-1.8-0.7
			c-0.2-0.1-0.3-0.2-0.3-0.4c0-0.9,0-1.9,0-2.8c0,0,0-0.1,0.1-0.1l0.4,0.3c2.3,1.6,5.2,2.2,8,1.5c0.8-0.2,1.5-0.5,2.1-1
			c1-0.8,1.6-1.9,1.7-3.2c0.1-0.7,0-1.3-0.2-2c-0.3-1.1-1-2.1-2-2.6c-0.9-0.5-1.8-0.9-2.8-1c-1.3-0.2-2.7-0.2-4.1-0.2
			C170.4,50.9,170.2,50.9,170,50.8L170,50.8z"/>
		<path id="path28" class="st0" d="M141,44.9v3c-0.2,0-0.3-0.2-0.5-0.2c-1.3-0.8-2.9-1.2-4.4-1.1c-2.2,0.1-4.2,1.3-5.2,3.3
			c-0.5,0.9-0.8,1.9-0.9,2.9c-0.2,1.4-0.1,2.8,0.4,4.2c0.8,2.5,3.1,4.2,5.7,4.2c1.6,0,3.1-0.4,4.4-1.3c0.1-0.1,0.3-0.2,0.4-0.2v2.8
			c-0.1,0.1-0.2,0.2-0.3,0.2c-2.8,1.5-6.1,1.5-8.9,0.2c-2.1-0.9-3.6-2.7-4.3-4.9c-1-3-0.8-6.2,0.6-9c1.4-2.8,4.1-4.7,7.2-4.9
			c1.7-0.2,3.4-0.1,5,0.5C140.4,44.6,140.7,44.7,141,44.9z"/>
		<path id="path30" class="st0" d="M123.6,63.3h-2.9c-0.1-0.4-0.2-17.8,0-18.8c1-0.1,2-0.1,3,0C123.7,44.8,123.7,62.7,123.6,63.3z"
			/>
		<path id="path32" class="st0" d="M120.2,37.6c0-1.1,0.9-2,2.1-2c1.1,0,2,0.9,1.9,2c0,1.1-1,2-2.1,1.9c-1.1,0-1.9-0.8-1.9-1.9
			C120.2,37.7,120.2,37.6,120.2,37.6z"/>
	</g>
</g>
</svg>
