<svg width="120" height="114" viewBox="0 0 120 114" fill="none" xmlns="http://www.w3.org/2000/svg">
<path d="M60.389 84.9812C68.6864 84.9812 75.4128 78.4593 75.4128 70.4141C75.4128 62.3689 68.6864 55.8469 60.389 55.8469C52.0916 55.8469 45.3652 62.3689 45.3652 70.4141C45.3652 78.4593 52.0916 84.9812 60.389 84.9812Z" stroke="#ffffff" stroke-width="2" stroke-linecap="round" stroke-linejoin="round"/>
<path d="M99.9762 94.8744C106.652 94.8744 112.064 89.6271 112.064 83.1542C112.064 76.6814 106.652 71.4341 99.9762 71.4341C93.3005 71.4341 87.8887 76.6814 87.8887 83.1542C87.8887 89.6271 93.3005 94.8744 99.9762 94.8744Z" stroke="#ffffff" stroke-width="2" stroke-linecap="round" stroke-linejoin="round"/>
<path d="M118.451 112.17V107.947C118.451 100.711 111.208 95.5622 103.77 95.5622H96.1846C88.7216 95.5622 81.748 100.711 81.748 107.947V112.17H118.451Z" stroke="#ffffff" stroke-width="2" stroke-linecap="round" stroke-linejoin="round"/>
<path d="M20.1618 94.8744C26.8375 94.8744 32.2493 89.6271 32.2493 83.1542C32.2493 76.6814 26.8375 71.4341 20.1618 71.4341C13.486 71.4341 8.07422 76.6814 8.07422 83.1542C8.07422 89.6271 13.486 94.8744 20.1618 94.8744Z" stroke="#ffffff" stroke-width="2" stroke-linecap="round" stroke-linejoin="round"/>
<path d="M37.7031 112.17V107.947C37.7031 100.711 31.4146 95.5622 23.9517 95.5622H16.3664C8.9034 95.5622 1 100.711 1 107.947V112.17H37.7031Z" stroke="#ffffff" stroke-width="2" stroke-linecap="round" stroke-linejoin="round"/>
<path d="M81.7488 112.17V101.28C81.7488 92.2886 74.3837 86.0727 65.11 86.0727H55.6651C46.3915 86.0727 37.7051 92.2886 37.7051 101.28V112.17H81.7488Z" stroke="#ffffff" stroke-width="2" stroke-linecap="round" stroke-linejoin="round"/>
<path d="M104.258 1.63525H13.4306C11.522 1.63525 9.98047 3.12993 9.98047 4.98048V44.7673C9.98047 46.6178 11.522 48.1125 13.4306 48.1125H20.3307V58.6701C20.3307 61.612 23.9766 62.7745 26.1788 60.7342L39.3185 48.1125H104.234C106.143 48.1125 107.684 46.6178 107.684 44.7673V4.98048C107.684 3.12993 106.118 1.63525 104.234 1.63525H104.258Z" stroke="#ffffff" stroke-width="2" stroke-linecap="round" stroke-linejoin="round"/>
<path d="M47.7812 22.0151L57.2751 31.6949L73.5223 15.4907" stroke="#ffffff" stroke-width="2" stroke-linecap="round" stroke-linejoin="round"/>
</svg>
