<?xml version="1.0" encoding="UTF-8"?><svg id="b" xmlns="http://www.w3.org/2000/svg" viewBox="0 0 70 70"><defs><style>.d{stroke-width:0px;}.d,.e{fill:none;}.e{stroke:#000;stroke-linecap:round;stroke-linejoin:round;}</style></defs><g id="c"><rect class="e" x="10.55" y="31.45" width="10.74" height="20.76" rx=".9" ry=".9"/><line class="e" x1="11.5" y1="34.25" x2="20.5" y2="34.25"/><line class="e" x1="10.5" y1="48.25" x2="20.5" y2="48.25"/><line class="e" x1="15.5" y1="33.25" x2="16.5" y2="33.25"/><circle class="e" cx="15.92" cy="50.43" r=".49"/><path class="e" d="M15.12,30.99v-6.51c0-.7.57-1.27,1.27-1.27h18.84c.7,0,1.27.57,1.27,1.27v26.53c0,.7-.57,1.27-1.27,1.27h-14.49"/><line class="e" x1="15.5" y1="28.25" x2="36.5" y2="28.25"/><line class="e" x1="21.5" y1="47.25" x2="36.5" y2="47.25"/><line class="e" x1="24.5" y1="25.25" x2="26.5" y2="25.25"/><circle class="e" cx="25.81" cy="49.79" r=".68"/><path class="e" d="M15.12,25.5v-5.7c0-1.15.87-2.08,1.93-2.08h40.52c1.06,0,1.93.94,1.93,2.08v25.37c0,1.15-.87,2.08-1.93,2.08h-21.08"/><rect class="e" x="37.31" y="47.25" width="3.87" height="5"/><line class="e" x1="35.5" y1="52.25" x2="46.5" y2="52.25"/><line class="e" x1="36.5" y1="40.25" x2="59.5" y2="40.25"/><rect class="d" width="70" height="70"/></g></svg>