<?xml version="1.0" encoding="UTF-8"?><svg id="Layer_1" xmlns="http://www.w3.org/2000/svg" viewBox="0 0 192 192"><defs><style>.cls-1{fill:#000;}.cls-1,.cls-2{stroke-width:0px;}.cls-2{fill:#fff;}</style></defs><rect class="cls-1" width="192" height="192"/><polygon class="cls-2" points="82.15 142.32 10.27 142.32 33.24 42.75 59.04 42.75 40.51 123.06 86.63 123.06 82.15 142.32"/><path class="cls-2" d="M161.27,134.77c-4.41,3.16-9.42,5.56-15.01,7.18-5.6,1.62-11.85,2.44-18.76,2.44-8.07,0-15.27-.75-21.6-2.24-6.34-1.49-11.5-3.27-15.51-5.31l4.68-21.67,2.61.07c4.05,2.89,8.6,5.21,13.64,6.95,5.04,1.73,10.01,2.6,14.91,2.6,7.17,0,12.78-1.34,16.81-4.03,4.04-2.69,6.05-6.52,6.05-11.5,0-2.09-.39-3.8-1.17-5.14-.78-1.33-2.04-2.38-3.78-3.13-1.87-.85-4.23-1.39-7.09-1.64-2.85-.24-6.06-.37-9.62-.37h-5.48l3.81-17.65h5.69c9.13,0,15.52-.99,19.15-2.97,3.63-1.97,5.45-4.98,5.45-9.03,0-3.2-1.53-5.56-4.58-7.06-3.05-1.51-7.28-2.27-12.68-2.27-4.63,0-9.49.73-14.57,2.19-5.09,1.46-9.64,3.18-13.64,5.17l-2.47-.07,4.61-21.47c3.96-1.33,8.91-2.52,14.82-3.57,5.9-1.05,11.68-1.57,17.34-1.57s10.81.43,15.32,1.3c4.5.87,8.35,2.17,11.56,3.91,3.39,1.83,6.01,4.14,7.86,6.95,1.85,2.81,2.78,6.33,2.78,10.57s-.71,7.63-2.11,10.73c-1.4,3.09-3.29,5.67-5.65,7.72-2.27,2.01-4.87,3.66-7.82,4.95-2.94,1.29-5.81,2.25-8.62,2.87l-.21.93c4.86.81,8.93,2.74,12.21,5.81,3.27,3.08,4.91,7.06,4.91,11.96,0,5.52-1.25,10.55-3.74,15.07-2.5,4.52-5.86,8.29-10.1,11.32"/></svg>