<svg width="51" height="50" viewBox="0 0 51 50" fill="none" xmlns="http://www.w3.org/2000/svg">
<path d="M39.0549 25.0002C43.8693 18.2404 46.3244 11.2541 42.9104 7.84004C39.4963 4.42598 32.51 6.88106 25.7502 11.6955C18.9904 6.88106 12.0041 4.42598 8.59004 7.84004C5.17598 11.2541 7.63106 18.2404 12.4455 25.0002C7.63106 31.76 5.17598 38.7463 8.59004 42.1604C9.68965 43.26 11.1584 43.7502 12.8693 43.7502C16.4787 43.7502 21.1662 41.5686 25.76 38.3049C30.3342 41.5686 35.0217 43.7502 38.6408 43.7502C40.3518 43.7502 41.8225 43.258 42.9201 42.1604C46.3244 38.7463 43.8693 31.76 39.0549 25.0002ZM40.7014 10.049C42.1936 11.5412 41.1857 16.3772 37.0842 22.4084C35.7866 20.8021 34.4051 19.2655 32.9455 17.8049C31.4848 16.3473 29.9481 14.9677 28.342 13.6721C34.3732 9.57051 39.2092 8.55489 40.7014 10.049ZM35.1818 25.0002C33.7998 26.7486 32.3154 28.4136 30.7365 29.9865C29.1636 31.5654 27.4986 33.0498 25.7502 34.4318C24.0018 33.0498 22.3368 31.5654 20.7639 29.9865C19.185 28.4136 17.7006 26.7486 16.3186 25.0002C19.0914 21.506 22.256 18.3414 25.7502 15.5686C27.4986 16.9506 29.1636 18.435 30.7365 20.0139C32.3154 21.5868 33.7998 23.2518 35.1818 25.0002ZM10.799 10.049C11.2287 9.61739 11.9377 9.39473 12.8732 9.39473C15.1818 9.39473 18.8674 10.7424 23.1564 13.6721C21.5518 14.9688 20.0159 16.3483 18.5549 17.8049C17.0973 19.2656 15.7177 20.8023 14.4221 22.4084C10.3205 16.3772 9.30684 11.5412 10.799 10.049ZM10.799 39.9514C9.30684 38.4592 10.3205 33.6232 14.4221 27.592C15.7196 29.1983 17.1011 30.7349 18.5607 32.1955C20.0205 33.652 21.5552 35.0314 23.1584 36.3283C17.1272 40.4299 12.2912 41.4455 10.799 39.9514ZM40.7014 39.9514C39.2092 41.4455 34.3732 40.4357 28.342 36.3342C29.9474 35.0356 31.484 33.6541 32.9455 32.1955C34.4031 30.7348 35.7827 29.1981 37.0783 27.592C41.1799 33.6232 42.1936 38.4592 40.7014 39.9514ZM28.0939 25.0002C28.0939 25.4637 27.9565 25.9169 27.699 26.3023C27.4414 26.6877 27.0754 26.9881 26.6471 27.1655C26.2188 27.3429 25.7476 27.3893 25.293 27.2989C24.8383 27.2085 24.4207 26.9853 24.0929 26.6575C23.7651 26.3297 23.5419 25.9121 23.4515 25.4574C23.361 25.0028 23.4075 24.5315 23.5849 24.1033C23.7622 23.675 24.0627 23.309 24.4481 23.0514C24.8335 22.7939 25.2866 22.6564 25.7502 22.6564C26.3718 22.6564 26.9679 22.9034 27.4075 23.3429C27.847 23.7825 28.0939 24.3786 28.0939 25.0002Z" fill="#17C7A9"/>
</svg>
