<svg width="1890" height="31" viewBox="0 0 1890 31" fill="none" xmlns="http://www.w3.org/2000/svg">
<g clip-path="url(#clip0_30_133)">
<path d="M904.864 0L873.864 31H852.054L883.054 0H904.864Z" fill="white"/>
<path d="M860.025 0L829.025 31H807.214L838.214 0H860.025Z" fill="white"/>
<path d="M815.186 0L784.186 31H762.375L793.375 0H815.186Z" fill="white"/>
<path d="M770.346 0L739.346 31H717.536L748.536 0H770.346Z" fill="white"/>
<path d="M725.507 0L694.507 31H672.697L703.697 0H725.507Z" fill="white"/>
<path d="M680.668 0L649.668 31H627.857L658.857 0H680.668Z" fill="white"/>
<path d="M635.829 0L604.829 31H583.018L614.018 0H635.829Z" fill="white"/>
<path d="M590.989 0L559.989 31H538.179L569.179 0H590.989Z" fill="white"/>
<path d="M546.15 0L515.15 31H493.339L524.339 0H546.15Z" fill="white"/>
<path d="M501.311 0L470.311 31H448.5L479.5 0H501.311Z" fill="white"/>
<path d="M456.471 0L425.471 31H403.661L434.661 0H456.471Z" fill="white"/>
<path d="M411.632 0L380.632 31H358.822L389.822 0H411.632Z" fill="white"/>
<path d="M366.793 0L335.793 31H313.982L344.982 0H366.793Z" fill="white"/>
<path d="M321.954 0L290.954 31H269.143L300.143 0H321.954Z" fill="white"/>
<path d="M277.114 0L246.114 31H224.304L255.304 0H277.114Z" fill="white"/>
<path d="M232.275 0L201.275 31H179.464L210.464 0H232.275Z" fill="white"/>
<path d="M187.436 0L156.436 31H134.625L165.625 0H187.436Z" fill="white"/>
<path d="M142.596 0L111.596 31H89.7856L120.786 0H142.596Z" fill="white"/>
<path d="M97.7572 0L66.7572 31H44.9465L75.9465 0H97.7572Z" fill="white"/>
<path d="M52.9179 0L21.9179 31H0.107178L31.1072 0H52.9179Z" fill="white"/>
<path d="M949.704 0L918.704 31H896.893L927.893 0H949.704Z" fill="white"/>
<path d="M994.543 0L963.543 31H941.732L972.732 0H994.543Z" fill="white"/>
<path d="M1039.38 0L1008.38 31H986.572L1017.57 0H1039.38Z" fill="white"/>
<path d="M1084.22 0L1053.22 31H1031.41L1062.41 0H1084.22Z" fill="white"/>
<path d="M1129.06 0L1098.06 31H1076.25L1107.25 0H1129.06Z" fill="white"/>
<path d="M1173.9 0L1142.9 31H1121.09L1152.09 0H1173.9Z" fill="white"/>
<path d="M1218.74 0L1187.74 31H1165.93L1196.93 0H1218.74Z" fill="white"/>
<path d="M1263.58 0L1232.58 31H1210.77L1241.77 0H1263.58Z" fill="white"/>
<path d="M1308.42 0L1277.42 31H1255.61L1286.61 0H1308.42Z" fill="white"/>
<path d="M1353.26 0L1322.26 31H1300.45L1331.45 0H1353.26Z" fill="white"/>
<path d="M1398.1 0L1367.1 31H1345.29L1376.29 0H1398.1Z" fill="white"/>
<path d="M1442.94 0L1411.94 31H1390.12L1421.12 0H1442.94Z" fill="white"/>
<path d="M1487.78 0L1456.78 31H1434.96L1465.96 0H1487.78Z" fill="white"/>
<path d="M1532.61 0L1501.61 31H1479.8L1510.8 0H1532.61Z" fill="white"/>
<path d="M1577.45 0L1546.45 31H1524.64L1555.64 0H1577.45Z" fill="white"/>
<path d="M1622.29 0L1591.29 31H1569.48L1600.48 0H1622.29Z" fill="white"/>
<path d="M1667.13 0L1636.13 31H1614.32L1645.32 0H1667.13Z" fill="white"/>
<path d="M1711.97 0L1680.97 31H1659.16L1690.16 0H1711.97Z" fill="white"/>
<path d="M1756.81 0L1725.81 31H1704L1735 0H1756.81Z" fill="white"/>
<path d="M1834.31 0L1803.31 31H1748.29L1779.29 0H1834.31Z" fill="white"/>
<path d="M1867.52 0L1836.52 31H1792.57L1823.57 0H1867.52Z" fill="white"/>
<path d="M1889.67 0L1890 31H1825.79L1856.79 0H1889.67Z" fill="white"/>
</g>
<defs>
<clipPath id="clip0_30_133">
<rect width="1889.89" height="31" fill="white" transform="translate(0.107178)"/>
</clipPath>
</defs>
</svg>
