<svg width="56" height="56" viewBox="0 0 56 56" fill="none" xmlns="http://www.w3.org/2000/svg">
<path d="M51.4784 25.5326L30.4674 4.51948C29.8117 3.86761 28.9246 3.50171 27.9999 3.50171C27.0753 3.50171 26.1882 3.86761 25.5324 4.51948L4.53242 25.5326C3.88054 26.1884 3.51465 27.0755 3.51465 28.0001C3.51465 28.9248 3.88054 29.8118 4.53242 30.4676L25.5434 51.4807C26.1991 52.1326 27.0862 52.4985 28.0109 52.4985C28.9355 52.4985 29.8226 52.1326 30.4784 51.4807L51.4893 30.4676C52.1412 29.8118 52.5071 28.9248 52.5071 28.0001C52.5071 27.0755 52.1412 26.1884 51.4893 25.5326H51.4784ZM26.2499 17.5001C26.2499 17.036 26.4343 16.5909 26.7625 16.2627C27.0907 15.9345 27.5358 15.7501 27.9999 15.7501C28.4641 15.7501 28.9092 15.9345 29.2374 16.2627C29.5655 16.5909 29.7499 17.036 29.7499 17.5001V29.7501C29.7499 30.2142 29.5655 30.6594 29.2374 30.9875C28.9092 31.3157 28.4641 31.5001 27.9999 31.5001C27.5358 31.5001 27.0907 31.3157 26.7625 30.9875C26.4343 30.6594 26.2499 30.2142 26.2499 29.7501V17.5001ZM27.9999 40.2501C27.4807 40.2501 26.9732 40.0962 26.5416 39.8077C26.1099 39.5193 25.7734 39.1093 25.5747 38.6297C25.3761 38.15 25.3241 37.6222 25.4254 37.113C25.5266 36.6038 25.7767 36.1361 26.1438 35.769C26.5109 35.4018 26.9786 35.1518 27.4878 35.0505C27.997 34.9493 28.5248 35.0012 29.0045 35.1999C29.4841 35.3986 29.8941 35.7351 30.1825 36.1667C30.471 36.5984 30.6249 37.1059 30.6249 37.6251C30.6249 38.3213 30.3484 38.989 29.8561 39.4813C29.3638 39.9735 28.6961 40.2501 27.9999 40.2501Z" fill="#17C7A9"/>
</svg>
