<svg width="125" height="125" viewBox="0 0 125 125" fill="none" xmlns="http://www.w3.org/2000/svg">
<circle cx="62.5" cy="62.5" r="62.5" fill="white"/>
<path d="M37.4428 96V92.832C37.4428 89.056 38.0828 85.792 39.3628 83.04C40.6428 80.224 42.7868 77.728 45.7948 75.552L64.8988 61.728C66.8188 60.256 68.3228 58.56 69.4108 56.64C70.4988 54.72 71.0428 52.608 71.0428 50.304C71.0428 47.552 70.2428 45.376 68.6428 43.776C67.1068 42.112 64.7068 41.28 61.4427 41.28C59.5227 41.28 57.7948 41.696 56.2588 42.528C54.7868 43.296 53.6348 44.416 52.8028 45.888C51.9708 47.296 51.5548 48.896 51.5548 50.688C51.5548 51.136 51.5548 51.584 51.5548 52.032C51.5548 52.416 51.5548 52.8 51.5548 53.184H37.9228C37.9228 52.864 37.9228 52.576 37.9228 52.32C37.9228 52 37.9228 51.712 37.9228 51.456C37.9228 47.168 38.8508 43.36 40.7068 40.032C42.6268 36.704 45.3468 34.08 48.8668 32.16C52.4508 30.176 56.6748 29.184 61.5388 29.184H63.7468C68.3548 29.184 72.3548 30.08 75.7468 31.872C79.1388 33.6 81.7628 36.032 83.6188 39.168C85.5388 42.304 86.4988 45.888 86.4988 49.92C86.4988 53.248 85.9228 56.128 84.7708 58.56C83.6828 60.992 82.0828 63.2 79.9708 65.184C77.9228 67.168 75.4908 69.152 72.6748 71.136L61.3468 78.912C60.6428 79.424 60.0028 79.904 59.4268 80.352C58.9148 80.8 58.4668 81.248 58.0828 81.696C57.7628 82.144 57.5068 82.592 57.3148 83.04H86.6908V96H37.4428Z" fill="black"/>
</svg>
