<svg width="125" height="125" viewBox="0 0 125 125" fill="none" xmlns="http://www.w3.org/2000/svg">
<circle cx="62.5" cy="62.5" r="62.5" fill="#17C7A9"/>
<path d="M60.6948 96.96C55.6388 96.96 51.3188 96.128 47.7348 94.464C44.1508 92.8 41.3988 90.528 39.4788 87.648C37.5588 84.768 36.5988 81.568 36.5988 78.048V76.224H50.2308C50.2308 79.68 51.2548 82.08 53.3028 83.424C55.4148 84.704 58.1028 85.344 61.3668 85.344C64.7588 85.344 67.4788 84.64 69.5268 83.232C71.5748 81.76 72.5988 79.392 72.5988 76.128C72.5988 74.08 72.1508 72.416 71.2548 71.136C70.4228 69.792 69.2708 68.8 67.7988 68.16C66.3908 67.52 64.7908 67.2 62.9988 67.2H53.7828V57.408H61.7508C63.4788 57.408 65.0468 57.088 66.4548 56.448C67.8628 55.808 68.9828 54.848 69.8148 53.568C70.6468 52.288 71.0628 50.688 71.0628 48.768C71.0628 47.04 70.6468 45.6 69.8148 44.448C68.9828 43.232 67.7988 42.336 66.2628 41.76C64.7908 41.12 63.1268 40.8 61.2708 40.8C58.1988 40.8 55.7988 41.536 54.0708 43.008C52.3428 44.48 51.4788 46.528 51.4788 49.152H38.5188V47.04C38.5188 43.584 39.4788 40.512 41.3988 37.824C43.3828 35.136 46.1028 33.024 49.5588 31.488C53.0148 29.952 56.9828 29.184 61.4628 29.184H63.6708C68.0228 29.184 71.8628 29.952 75.1908 31.488C78.5828 33.024 81.2388 35.136 83.1588 37.824C85.0788 40.512 86.0388 43.552 86.0388 46.944C86.0388 49.248 85.6228 51.328 84.7908 53.184C83.9588 55.04 82.8068 56.64 81.3348 57.984C79.9268 59.328 78.2948 60.448 76.4388 61.344V62.016C79.8308 63.168 82.5508 65.088 84.5988 67.776C86.7108 70.464 87.7668 73.888 87.7668 78.048C87.7668 81.632 86.8068 84.864 84.8868 87.744C82.9668 90.56 80.1828 92.8 76.5348 94.464C72.9508 96.128 68.6628 96.96 63.6708 96.96H60.6948Z" fill="black"/>
</svg>
