<svg width="892" height="824" viewBox="0 0 892 824" fill="#0F172A" xmlns="http://www.w3.org/2000/svg">
<path d="M420.169 431.842C418.876 431.842 418.301 431.181 418.043 430.75C417.554 429.917 417.669 428.911 418.416 427.733L420.025 425.147C421.146 423.366 424.048 420.608 427.955 417.619L445.913 403.943C449.705 401.041 454.015 398.283 457.463 396.501L462.865 393.743C465.393 392.45 467.203 391.789 468.439 391.732L470.766 391.617C472.346 391.502 472.978 392.479 473.151 392.881C473.725 394.174 473.093 395.611 470.91 397.881L460.509 408.741C458.296 411.069 454.532 414.114 450.452 416.901L444.074 421.268C441.373 423.107 438.73 424.716 436.431 425.894L429.105 429.658C426.634 430.922 424.766 431.612 423.531 431.669L420.341 431.813C420.341 431.813 420.226 431.813 420.14 431.813L420.169 431.842Z" fill=""/>
<path d="M418.215 432.876C416.836 432.876 416.233 432.157 415.974 431.727C415.485 430.865 415.658 429.801 416.434 428.595L418.215 425.808C419.451 423.883 422.582 420.952 426.806 417.792L446.2 403.282C450.309 400.207 454.935 397.306 458.612 395.495L464.387 392.622C467.088 391.301 469.013 390.64 470.335 390.611H472.777C472.777 390.611 472.806 390.582 472.835 390.582C474.415 390.582 474.99 391.53 475.162 391.933C475.737 393.254 474.99 394.835 472.691 397.219L461.342 408.885C458.928 411.384 454.848 414.602 450.481 417.533L443.585 422.13C440.683 424.084 437.839 425.75 435.368 426.957L427.524 430.836C424.823 432.157 422.898 432.818 421.577 432.847L418.244 432.905H418.186L418.215 432.876ZM471.226 393.886H470.392C470.191 393.886 469.042 394.001 465.881 395.553L460.106 398.426C456.601 400.15 452.148 402.966 448.211 405.896L428.817 420.406C424.277 423.797 421.807 426.325 421.031 427.56L419.767 429.543H421.577C421.778 429.514 422.927 429.428 426.088 427.848L433.931 423.969C436.23 422.82 439.017 421.182 441.775 419.343L448.671 414.746C452.866 411.959 456.716 408.885 458.986 406.557L470.335 394.892C470.708 394.519 470.996 394.174 471.226 393.915V393.886Z" fill=""/>
<path d="M419.68 434.025H419.594L416.088 433.939C414.652 433.91 414.048 433.135 413.818 432.704C413.1 431.353 414.048 429.888 414.364 429.428L416.347 426.383C417.697 424.314 421.088 421.182 425.656 417.849L446.602 402.506C451.026 399.26 455.997 396.214 459.933 394.346L466.111 391.387C468.955 390.037 471.168 389.376 472.432 389.376L475.018 389.433C476.627 389.462 477.201 390.468 477.374 390.87C477.948 392.249 477.115 393.915 474.644 396.444L462.289 408.971C459.646 411.643 455.279 415.062 450.567 418.136L443.154 422.963C440.022 425.003 436.976 426.756 434.333 428.02L425.915 432.043C423.099 433.393 421.059 434.054 419.708 434.054L419.68 434.025ZM417.467 430.664L419.651 430.721C419.852 430.721 421.059 430.664 424.478 429.055L432.896 425.032C435.367 423.854 438.356 422.13 441.315 420.205L448.728 415.378C453.239 412.419 457.434 409.172 459.905 406.672L472.259 394.145C472.834 393.571 473.236 393.111 473.524 392.737H472.317C472.087 392.737 470.909 392.737 467.49 394.375L461.312 397.334C457.549 399.116 452.779 402.075 448.527 405.178L427.581 420.521C423.472 423.538 420.197 426.469 419.105 428.193L417.496 430.664H417.467Z" fill=""/>
<path d="M417.671 435.29C417.671 435.29 417.498 435.29 417.412 435.29L413.706 435.06C412.269 434.974 411.694 434.198 411.465 433.738C410.746 432.33 411.781 430.808 412.097 430.29L414.309 426.986C415.803 424.745 419.481 421.441 424.365 417.907L446.949 401.673C451.689 398.254 457.062 395.065 461.257 393.14L467.866 390.094C470.94 388.687 473.152 388.054 474.56 388.112L477.29 388.284C478.927 388.37 479.473 389.405 479.617 389.836C480.163 391.301 479.272 393.054 476.6 395.726L463.153 409.144C460.28 411.988 455.568 415.637 450.483 418.855L442.495 423.941C439.105 426.096 435.858 427.906 433.042 429.199L424.049 433.336C421.176 434.658 419.05 435.319 417.613 435.319L417.671 435.29ZM415.056 431.842L417.613 431.986C417.843 431.986 419.107 431.986 422.727 430.319L431.721 426.182C434.393 424.946 437.524 423.222 440.771 421.154L448.759 416.068C453.643 412.965 458.154 409.517 460.855 406.816L474.301 393.399C475.106 392.594 475.623 391.991 475.939 391.56L474.388 391.474C474.187 391.474 472.894 391.474 469.245 393.14L462.636 396.186C458.614 398.024 453.471 401.099 448.874 404.403L426.29 420.636C421.837 423.854 418.303 426.986 417.039 428.854L415.027 431.842H415.056Z" fill=""/>
<path d="M415.485 436.64C415.312 436.64 415.169 436.64 415.025 436.64L411.146 436.238C409.71 436.094 409.135 435.29 408.934 434.801C408.244 433.307 409.336 431.727 409.681 431.21L412.123 427.618C413.761 425.205 417.726 421.671 423.013 417.964L447.377 400.811C452.492 397.191 458.238 393.858 462.749 391.875L469.817 388.772C473.092 387.336 475.448 386.704 476.943 386.847L479.787 387.135C481.396 387.307 481.942 388.341 482.086 388.772C482.631 390.324 481.655 392.191 478.781 395.007L464.128 409.402C461.025 412.448 455.911 416.298 450.48 419.688L441.918 425.032C438.298 427.302 434.793 429.17 431.776 430.491L422.151 434.744C419.191 436.065 416.979 436.697 415.485 436.697V436.64ZM412.439 433.02L415.37 433.307C415.6 433.307 416.95 433.364 420.829 431.641L430.454 427.388C433.27 426.153 436.718 424.285 440.166 422.13L448.728 416.786C453.957 413.539 458.87 409.862 461.801 406.96L476.454 392.565C477.517 391.502 478.149 390.755 478.494 390.266L476.598 390.065C476.368 390.065 475.018 390.008 471.139 391.732L464.071 394.835C459.761 396.731 454.244 399.949 449.274 403.454L424.909 420.607C420.082 423.998 416.232 427.388 414.853 429.428L412.439 432.962V433.02Z" fill=""/>
<path d="M413.216 438.019C412.957 438.019 412.728 438.019 412.526 437.962L408.446 437.387C407.039 437.186 406.464 436.353 406.263 435.864C405.573 434.313 406.751 432.618 407.154 432.072L409.854 428.193C411.665 425.578 415.974 421.843 421.634 417.935L447.896 399.834C453.412 396.013 459.59 392.536 464.359 390.525L471.916 387.336C475.421 385.87 477.892 385.267 479.472 385.468L482.46 385.899C484.069 386.129 484.586 387.192 484.73 387.652C485.247 389.261 484.127 391.301 481.081 394.26L465.135 409.661C461.744 412.936 456.257 416.987 450.424 420.521L441.201 426.095C437.293 428.451 433.558 430.405 430.34 431.756L420.083 436.094C417.037 437.387 414.796 437.99 413.216 437.99V438.019ZM409.682 434.227L412.986 434.715C413.245 434.772 414.653 434.83 418.79 433.077L429.047 428.739C432.093 427.446 435.713 425.578 439.477 423.28L448.7 417.706C454.332 414.286 459.618 410.408 462.836 407.276L478.782 391.875C480.19 390.525 480.88 389.634 481.225 389.088L478.984 388.772C478.754 388.744 477.317 388.658 473.18 390.41L465.623 393.599C461.026 395.553 455.079 398.915 449.734 402.593L423.473 420.694C418.187 424.343 414.107 427.848 412.526 430.118L409.826 433.997C409.826 433.997 409.711 434.169 409.653 434.255L409.682 434.227Z" fill=""/>
<path d="M410.774 439.455C410.429 439.455 410.113 439.455 409.826 439.369L405.545 438.564C404.137 438.306 403.591 437.415 403.39 436.927C402.729 435.289 403.993 433.508 404.396 432.933L407.384 428.738C409.395 425.922 414.021 421.957 420.112 417.849L448.384 398.771C454.332 394.777 460.94 391.128 466.054 389.059L474.099 385.812C477.835 384.29 480.449 383.744 482.116 384.031L485.247 384.634C486.397 384.864 487.201 385.525 487.489 386.502C488.006 388.226 486.77 390.381 483.495 393.513L466.169 410.005C462.492 413.51 456.573 417.791 450.309 421.498L440.397 427.359C436.231 429.83 432.237 431.841 428.789 433.249L417.813 437.674C414.71 438.909 412.383 439.541 410.745 439.541L410.774 439.455ZM406.752 435.433L410.429 436.122C410.688 436.18 412.182 436.323 416.607 434.542L427.582 430.117C430.829 428.796 434.794 426.784 438.759 424.457L448.672 418.596C454.734 415.004 460.452 410.896 463.957 407.563L481.282 391.07C483.064 389.375 483.811 388.341 484.127 387.766L481.57 387.278C481.311 387.22 479.846 387.077 475.392 388.858L467.347 392.105C462.434 394.087 456.056 397.593 450.309 401.471L422.037 420.549C416.348 424.4 411.895 428.163 410.142 430.634L407.154 434.829C406.981 435.059 406.867 435.232 406.78 435.404L406.752 435.433Z" fill=""/>
<path d="M408.188 440.978C407.728 440.978 407.297 440.921 406.924 440.834L402.47 439.771C401.062 439.427 400.545 438.536 400.344 438.019C399.913 436.869 400.286 435.49 401.522 433.795L404.826 429.255C407.01 426.239 412.038 422.015 418.589 417.676L449.045 397.564C455.452 393.34 462.52 389.577 467.979 387.479L476.57 384.175C480.564 382.652 483.351 382.106 485.075 382.508L488.35 383.284C489.471 383.543 490.275 384.261 490.534 385.267C490.85 386.416 490.706 388.427 486.138 392.708L467.29 410.35C463.296 414.085 456.917 418.625 450.194 422.475L439.563 428.595C435.081 431.18 430.771 433.278 427.122 434.657L415.428 439.139C412.296 440.346 409.912 440.921 408.188 440.921V440.978ZM403.648 436.668L407.699 437.645C407.958 437.731 409.509 437.932 414.25 436.122L425.944 431.64C429.392 430.319 433.644 428.25 437.897 425.779L448.528 419.659C455.05 415.924 461.198 411.557 465.02 407.994L483.868 390.352C486.08 388.284 486.885 387.048 487.172 386.473L484.299 385.784C484.04 385.726 482.489 385.497 477.748 387.307L469.157 390.611C463.928 392.622 457.09 396.271 450.855 400.351L420.399 420.435C414.25 424.486 409.423 428.508 407.498 431.181L404.194 435.72C403.907 436.122 403.734 436.41 403.648 436.611V436.668Z" fill=""/>
<path d="M405.402 442.558C404.799 442.558 404.282 442.501 403.822 442.357L399.167 441.007C397.788 440.605 397.271 439.685 397.099 439.168C396.668 437.932 397.099 436.467 398.42 434.686L402.041 429.773C404.454 426.497 409.884 422.015 416.924 417.475L449.707 396.329C456.574 391.904 464.159 387.996 469.992 385.87L479.157 382.537C483.352 381.014 486.369 380.497 488.15 381.014L491.57 381.991C493.121 382.451 493.581 383.514 493.724 384.089C494.012 385.295 493.811 387.45 488.897 391.99L468.44 410.838C464.13 414.832 457.235 419.601 450.023 423.624L438.616 430.002C433.818 432.675 429.221 434.858 425.314 436.266L412.844 440.777C409.712 441.926 407.212 442.472 405.431 442.472L405.402 442.558ZM400.345 437.904L404.741 439.168C405.029 439.254 406.666 439.541 411.695 437.731L424.164 433.22C427.842 431.899 432.382 429.744 436.979 427.187L448.385 420.808C455.396 416.901 462.033 412.304 466.17 408.482L486.628 389.634C489.386 387.106 490.162 385.726 490.392 385.152L487.231 384.232C486.944 384.146 485.306 383.859 480.278 385.669L471.112 389.002C465.51 391.042 458.183 394.806 451.517 399.116L418.734 420.262C412.126 424.543 406.868 428.824 404.713 431.726L401.092 436.64C400.661 437.243 400.432 437.645 400.345 437.904Z" fill=""/>
<path d="M402.499 444.225C401.723 444.225 401.033 444.139 400.487 443.938L395.66 442.271C394.655 441.926 393.937 441.208 393.649 440.289C393.247 438.967 393.735 437.416 395.172 435.548L399.166 430.204C401.809 426.67 407.67 421.929 415.227 417.16L450.481 394.95C457.865 390.295 465.997 386.244 472.174 384.146L481.943 380.813C486.482 379.262 489.586 378.831 491.482 379.492L495.045 380.727C496.165 381.13 496.912 381.934 497.142 382.968C497.401 384.29 497.142 386.56 491.827 391.387L469.588 411.528C464.905 415.78 457.492 420.808 449.763 425.003L437.523 431.64C432.351 434.427 427.438 436.669 423.329 438.076L410.055 442.616C406.866 443.708 404.395 444.254 402.556 444.254L402.499 444.225ZM396.867 439.168L401.579 440.806C401.867 440.892 403.562 441.294 408.963 439.456L422.238 434.916C426.145 433.594 431.001 431.382 435.943 428.71L448.183 422.073C455.71 417.993 462.865 413.137 467.376 409.057L489.614 388.916C492.717 386.1 493.694 384.434 493.867 383.802L490.419 382.595C490.131 382.48 488.436 382.078 483.035 383.917L473.266 387.249C467.289 389.289 459.446 393.197 452.263 397.737L417.008 419.947C409.883 424.429 404.194 428.997 401.838 432.186L397.844 437.531C397.212 438.392 396.982 438.91 396.896 439.168H396.867Z" fill=""/>
<path d="M399.423 445.949C398.446 445.949 397.613 445.805 396.952 445.547L391.924 443.507C390.919 443.104 390.229 442.357 389.971 441.409C389.597 440.03 390.143 438.364 391.694 436.352L396.09 430.577C398.992 426.785 405.313 421.728 413.445 416.757L451.342 393.484C459.301 388.6 467.978 384.434 474.558 382.308L484.959 378.975C489.728 377.452 493.118 377.078 495.015 377.854L498.721 379.348C499.842 379.808 500.56 380.641 500.732 381.733C501.106 383.945 499.21 386.876 494.9 390.697L470.765 412.189C465.679 416.728 457.721 422.015 449.417 426.382L436.287 433.278C430.77 436.18 425.512 438.45 421.116 439.858L406.98 444.369C403.848 445.374 401.291 445.891 399.366 445.891L399.423 445.949ZM398.705 432.589L394.309 438.364C393.131 439.915 393.16 440.547 393.16 440.547L398.188 442.501C398.504 442.616 400.285 443.133 406.003 441.294L420.139 436.783C424.305 435.462 429.506 433.192 434.792 430.405L447.923 423.509C455.997 419.286 463.726 414.143 468.61 409.775L492.745 388.284C497.572 383.974 497.514 382.365 497.514 382.336L493.808 380.928C493.521 380.813 491.739 380.296 485.993 382.135L475.592 385.468C469.242 387.508 460.824 391.559 453.095 396.3L415.197 419.573C407.526 424.285 401.377 429.141 398.734 432.589H398.705Z" fill=""/>
<path d="M396.148 447.759C394.913 447.759 393.907 447.587 393.16 447.213L387.931 444.742C386.667 444.139 386.207 443.191 386.034 442.501C385.69 441.007 386.322 439.255 387.96 437.128L392.815 430.893C396.004 426.814 402.814 421.469 411.549 416.24L452.291 391.847C460.824 386.732 470.104 382.451 477.115 380.354L488.177 377.05C493.234 375.556 496.796 375.268 498.808 376.216L502.658 378.027C503.75 378.544 504.439 379.463 504.612 380.584C504.956 382.94 502.859 386.072 498.204 390.151L472.029 413.108C466.513 417.935 457.922 423.509 449.073 428.02L435.023 435.175C429.104 438.191 423.501 440.49 418.818 441.898L403.762 446.38C400.659 447.299 398.102 447.759 396.148 447.759ZM495.82 378.975C494.584 378.975 492.515 379.233 489.125 380.239L478.063 383.514C471.311 385.526 462.318 389.692 453.986 394.662L413.244 419.056C404.969 423.998 398.332 429.17 395.43 432.905L390.574 439.14C389.138 441.007 389.252 441.697 389.252 441.725L394.568 444.225C394.884 444.369 396.723 445.001 402.843 443.191L417.87 438.709C422.294 437.387 427.868 435.088 433.529 432.215L447.578 425.061C456.198 420.665 464.53 415.263 469.846 410.609L496.021 387.652C500.675 383.572 501.422 381.446 501.307 381.043L497.371 379.205C497.371 379.205 496.796 378.975 495.791 378.975H495.82Z" fill=""/>
<path d="M392.73 449.627C391.207 449.627 390 449.397 389.11 448.908L383.708 445.949C382.731 445.403 382.099 444.57 381.869 443.564C381.553 441.984 382.271 440.088 384.053 437.847L389.368 431.123C392.845 426.699 400.229 421.067 409.596 415.608L453.354 390.094C462.52 384.75 472.433 380.354 479.903 378.285L491.654 375.067C497.027 373.602 500.791 373.429 502.86 374.55L506.825 376.705C507.917 377.308 508.577 378.256 508.692 379.434C508.951 381.991 506.681 385.324 501.682 389.634L473.323 414.085C467.376 419.228 458.124 425.09 448.642 429.744L433.587 437.128C427.266 440.231 421.29 442.587 416.29 443.966L400.315 448.362C397.27 449.196 394.712 449.627 392.73 449.627ZM499.268 377.107C497.774 377.107 495.562 377.423 492.516 378.256L480.765 381.474C473.582 383.457 463.957 387.738 455.021 392.938L411.262 418.452C402.384 423.624 395.172 429.141 391.983 433.163L386.667 439.887C384.972 442.013 385.116 442.875 385.116 442.903L390.69 446.006C391.609 446.524 394.425 446.581 399.424 445.202L415.399 440.806C420.112 439.513 426.059 437.157 432.093 434.198L447.148 426.813C456.4 422.274 465.364 416.585 471.14 411.614L499.498 387.163C504.325 382.997 505.474 380.584 505.388 379.808L501.251 377.452C500.877 377.251 500.216 377.107 499.268 377.107Z" fill=""/>
<path d="M389.139 451.581C387.271 451.581 385.835 451.265 384.8 450.633L379.226 447.156C378.249 446.553 377.646 445.662 377.474 444.599C377.186 442.904 377.991 440.893 379.945 438.479L385.806 431.21C389.57 426.527 397.73 420.378 407.613 414.775L454.562 388.169C464.388 382.595 474.99 378.084 482.891 376.102L495.361 372.97C501.05 371.533 505.044 371.476 507.141 372.826L511.221 375.383C512.284 376.044 512.945 377.107 513.031 378.314C513.232 381.044 510.647 384.721 505.36 389.204L474.617 415.264C468.152 420.751 458.239 426.871 448.097 431.67L432.007 439.284C425.226 442.502 418.848 444.886 413.561 446.208L396.58 450.46C393.621 451.207 391.121 451.581 389.11 451.581H389.139ZM388.363 433.279L382.502 440.548C380.634 442.846 380.692 443.852 380.72 444.024C380.72 444.082 380.72 444.197 380.979 444.34L386.553 447.817C387.501 448.42 390.46 448.593 395.776 447.242L412.756 442.99C417.756 441.726 424.077 439.37 430.57 436.295L446.66 428.681C456.573 423.998 466.198 418.022 472.462 412.735L503.205 386.675C509.727 381.159 509.756 378.803 509.727 378.544C509.727 378.4 509.698 378.314 509.469 378.17L505.389 375.613C504.412 375.01 501.481 374.838 496.166 376.188L483.696 379.32C476.053 381.245 465.767 385.612 456.199 391.042L409.251 417.648C399.712 423.05 391.926 428.883 388.392 433.279H388.363Z" fill=""/>
<path d="M385.346 453.592C383.076 453.592 381.352 453.19 380.203 452.356L374.456 448.276C373.508 447.587 372.933 446.667 372.79 445.547C372.531 443.708 373.45 441.582 375.548 438.996L381.984 431.152C386.121 426.124 394.913 419.631 405.487 413.798L455.854 386.072C466.399 380.268 477.69 375.671 486.109 373.774L499.354 370.786C505.417 369.436 509.583 369.522 511.738 371.073L515.961 374.062C517.024 374.837 517.628 375.9 517.685 377.222C517.8 380.181 514.956 384.089 509.267 388.859L475.966 416.614C468.956 422.446 458.325 428.882 447.464 433.795L430.254 441.639C423.013 444.943 416.232 447.357 410.63 448.621L392.615 452.672C389.77 453.304 387.357 453.621 385.346 453.621V453.592ZM384.541 433.278L378.105 441.122C376.065 443.622 376.036 444.829 376.065 445.116C376.065 445.288 376.151 445.432 376.381 445.604L382.128 449.684C382.616 450.029 384.742 451.035 391.868 449.426L409.883 445.374C415.198 444.168 421.95 441.783 428.875 438.622L446.085 430.779C456.658 425.952 467.031 419.717 473.84 414.057L507.141 386.301C512.542 381.79 514.439 378.716 514.381 377.337C514.381 377.107 514.324 376.935 514.065 376.762L509.841 373.774C509.353 373.429 507.227 372.424 500.101 374.033L486.856 377.021C478.753 378.86 467.749 383.313 457.492 389.002L407.124 416.729C396.867 422.36 388.449 428.566 384.57 433.278H384.541Z" fill=""/>
<path d="M381.41 455.718C378.652 455.718 376.64 455.201 375.319 454.138L369.429 449.368C368.509 448.621 367.963 447.587 367.848 446.438C367.647 444.455 368.653 442.185 370.951 439.456L377.991 431.009C382.502 425.578 391.983 418.74 403.332 412.678L457.349 383.831C468.64 377.797 480.708 373.142 489.615 371.361L503.665 368.574C510.072 367.31 514.468 367.568 516.68 369.35L520.99 372.855C522.053 373.717 522.599 374.895 522.599 376.245C522.599 379.463 519.496 383.629 513.376 388.658L477.317 418.194C469.761 424.4 458.326 431.123 446.718 436.18L428.329 444.197C420.6 447.558 413.36 449.972 407.412 451.178L388.306 455C385.633 455.517 383.335 455.804 381.381 455.804L381.41 455.718ZM380.519 433.106L373.48 441.553C371.239 444.254 371.095 445.633 371.153 446.093C371.153 446.38 371.296 446.581 371.526 446.782L377.416 451.552C377.905 451.954 380.146 453.161 387.702 451.667L406.809 447.846C412.44 446.725 419.623 444.312 427.036 441.094L445.425 433.049C456.745 428.107 467.893 421.556 475.249 415.551L511.307 386.014C517.226 381.187 519.324 377.768 519.324 376.188C519.324 375.814 519.209 375.585 518.921 375.355L514.612 371.849C514.123 371.447 511.882 370.24 504.325 371.734L490.275 374.521C481.685 376.245 469.962 380.785 458.929 386.675L404.913 415.522C393.908 421.383 384.8 427.963 380.548 433.077L380.519 433.106Z" fill=""/>
<path d="M377.245 457.901C373.941 457.901 371.528 457.241 370.091 455.919L364.086 450.402C362.592 449.052 360.868 445.863 366.04 439.772L373.769 430.664C378.711 424.831 388.911 417.59 401.064 411.298L458.959 381.359C471.084 375.096 483.927 370.384 493.351 368.746L508.235 366.189C515.015 365.011 519.612 365.471 521.882 367.539L526.307 371.59C527.341 372.539 527.859 373.803 527.83 375.239C527.686 379.578 522.285 384.836 517.745 388.485L478.727 419.86C470.538 426.44 458.27 433.451 445.886 438.622L426.233 446.84C417.959 450.288 410.287 452.701 403.995 453.764L383.767 457.241C381.325 457.672 379.142 457.873 377.274 457.873L377.245 457.901ZM514.699 368.832C513.205 368.832 511.28 369.005 508.78 369.407L493.897 371.964C484.789 373.544 472.291 378.141 460.453 384.233L402.558 414.171C390.778 420.263 380.923 427.216 376.268 432.732L368.539 441.84C367.62 442.903 364.776 446.524 366.298 447.903L372.303 453.419C372.821 453.879 375.148 455.316 383.135 453.936L403.363 450.46C409.339 449.426 416.982 447.041 424.912 443.737L444.564 435.519C456.661 430.462 468.642 423.624 476.601 417.217L515.619 385.842C523.721 379.319 524.439 375.958 524.468 375.067C524.468 374.579 524.353 374.263 524.037 373.946L519.612 369.895C519.268 369.579 518.032 368.775 514.699 368.775V368.832Z" fill=""/>
<path d="M372.962 460.171C368.968 460.171 366.153 459.338 364.572 457.7L358.453 451.351C356.987 449.828 355.378 446.351 360.895 439.915L369.342 430.089C374.744 423.825 385.748 416.183 398.735 409.661L460.739 378.659C473.725 372.165 487.402 367.424 497.372 365.988L513.117 363.718C520.3 362.684 525.098 363.345 527.397 365.729L531.908 370.384C532.913 371.447 533.402 372.797 533.316 374.349C533 379.09 527.138 384.635 522.283 388.485L480.104 421.814C471.254 428.796 458.095 436.123 444.907 441.381L423.933 449.742C415.112 453.247 406.923 455.632 400.258 456.58L378.852 459.683C376.669 459.999 374.715 460.143 372.962 460.143V460.171ZM518.978 366.563C517.542 366.563 515.76 366.677 513.605 366.993L497.86 369.263C488.235 370.642 474.903 375.268 462.233 381.618L400.229 412.62C387.587 418.941 376.985 426.268 371.842 432.244L363.394 442.07C362.073 443.593 359.2 447.357 360.809 449.023L366.928 455.373C367.474 455.919 369.859 457.614 378.335 456.408L399.74 453.304C406.061 452.385 414.193 450.029 422.64 446.667L443.614 438.306C456.544 433.163 469.387 426.038 477.978 419.228L520.156 385.899C526.104 381.216 529.753 376.82 529.925 374.148C529.954 373.544 529.81 373.085 529.437 372.711L524.926 368.028C524.524 367.626 523.087 366.563 518.892 366.563H518.978Z" fill=""/>
<path d="M368.507 462.527C363.709 462.527 360.405 461.493 358.681 459.453L352.475 452.155C350.722 450.115 349.831 446.322 355.463 439.886L364.714 429.313C370.633 422.561 382.442 414.516 396.377 407.821L462.719 375.814C476.597 369.119 491.164 364.379 501.709 363.172L518.345 361.247C525.93 360.385 530.929 361.304 533.257 364.005L537.825 369.378C538.831 370.556 539.262 372.05 539.089 373.688C538.572 378.831 532.251 384.721 527.05 388.772L481.453 424.17C471.885 431.583 457.778 439.197 443.699 444.512L421.317 452.959C411.921 456.522 403.215 458.821 396.176 459.625L373.535 462.24C371.696 462.441 370.001 462.556 368.478 462.556L368.507 462.527ZM523.459 364.206C522.137 364.206 520.586 364.292 518.747 364.494L502.111 366.419C491.911 367.597 477.718 372.194 464.156 378.745L397.814 410.752C384.281 417.274 372.846 425.032 367.214 431.468L357.962 442.041C356.468 443.737 353.222 447.903 355.003 450L361.209 457.298C362.675 459.022 367.157 459.597 373.219 458.907L395.86 456.292C402.555 455.517 411.203 453.218 420.196 449.799L442.578 441.352C456.37 436.151 470.161 428.71 479.47 421.498L525.068 386.1C534.348 378.888 535.699 374.751 535.842 373.286C535.929 372.539 535.756 371.935 535.354 371.447L530.786 366.074C530.24 365.413 528.516 364.178 523.488 364.178L523.459 364.206Z" fill=""/>
<path d="M363.939 464.97C358.193 464.97 354.314 463.706 352.446 461.177L346.183 452.845C344.488 450.575 343.712 446.438 349.774 439.628L359.917 428.222C366.381 420.952 379.11 412.505 393.964 405.581L464.961 372.596C479.816 365.701 495.331 361.017 506.45 360.069L524.034 358.575C532.05 357.886 537.251 359.121 539.578 362.167L544.175 368.287C547.767 373.056 543.486 380.44 532.165 389.089L482.89 426.613C472.575 434.485 457.462 442.358 442.464 447.731L418.616 456.264C408.589 459.856 399.366 462.068 391.924 462.7L368.019 464.711C366.583 464.826 365.232 464.884 363.997 464.884L363.939 464.97ZM362.359 430.434L352.217 441.841C348.711 445.806 347.447 449.081 348.798 450.862L355.061 459.195C356.555 461.206 361.152 462.01 367.674 461.493L391.579 459.482C398.619 458.879 407.813 456.666 417.438 453.219L441.286 444.685C455.997 439.427 470.765 431.727 480.821 424.055L530.097 386.531C539.176 379.607 543.658 373.257 541.474 370.355L536.877 364.235C535.383 362.224 530.786 361.391 524.264 361.937L506.68 363.431C495.905 364.35 480.821 368.919 466.311 375.642L395.315 408.626C380.834 415.35 368.508 423.51 362.33 430.463L362.359 430.434Z" fill=""/>
<path d="M359.373 467.498C352.477 467.498 347.822 465.918 345.811 462.872L339.519 453.362C337.852 450.862 337.249 446.351 343.771 439.14L354.833 426.871C361.872 419.085 375.577 410.178 391.466 403.081L467.348 369.206C483.208 362.109 499.7 357.541 511.451 356.909L530.012 355.96C538.316 355.501 543.918 357.11 546.159 360.5L550.785 367.482C554.262 372.711 549.377 380.871 537.396 389.807L484.184 429.572C473.065 437.904 456.86 446.064 440.885 451.437L415.486 459.97C404.798 463.562 395.029 465.688 387.185 466.09L361.958 467.412C361.068 467.469 360.206 467.469 359.373 467.469V467.498ZM532.627 359.236C531.851 359.236 531.046 359.236 530.184 359.293L511.624 360.242C500.274 360.845 484.213 365.327 468.698 372.251L392.817 406.127C377.33 413.051 364.027 421.642 357.275 429.112L346.213 441.381C342.306 445.719 340.84 449.426 342.277 451.552L348.569 461.062C350.092 463.361 354.919 464.481 361.786 464.136L387.013 462.815C394.454 462.441 404.195 460.315 414.452 456.867L439.851 448.334C455.51 443.076 471.341 435.06 482.231 426.957L535.442 387.192C545.355 379.779 550.297 372.769 548.027 369.35L543.401 362.368C542.051 360.328 538.172 359.236 532.598 359.236H532.627Z" fill=""/>
<path d="M354.574 470.17C346.357 470.17 340.926 468.216 338.771 464.539L332.508 453.735C330.899 450.948 330.439 446.035 337.478 438.392L349.575 425.204C357.275 416.815 371.985 407.505 388.966 400.236L470.048 365.557C487 358.316 504.526 353.834 516.881 353.633L536.419 353.288C545.268 353.173 550.986 355.07 553.198 358.92L557.795 366.85C561.186 372.682 555.756 381.417 542.941 390.812L485.506 432.905C473.496 441.697 456.17 450.144 439.161 455.517L412.124 464.021C400.746 467.584 390.374 469.567 382.099 469.71L355.522 470.199C355.177 470.199 354.861 470.199 354.545 470.199L354.574 470.17ZM352.017 427.445L339.921 440.633C335.496 445.432 333.887 449.512 335.381 452.069L341.644 462.872C343.196 465.544 348.224 467.038 355.493 466.866L382.07 466.377C389.914 466.234 400.229 464.28 411.147 460.832L438.184 452.327C454.849 447.069 471.829 438.823 483.552 430.204L540.987 388.111C551.963 380.066 557.307 372.567 554.922 368.487L550.325 360.557C548.774 357.885 543.746 356.477 536.476 356.564L516.939 356.908C504.957 357.109 487.919 361.477 471.341 368.574L390.259 403.253C373.709 410.35 359.401 419.372 352.017 427.417V427.445Z" fill=""/>
<path d="M377.732 473.417C377.387 473.417 377.013 473.417 376.669 473.417L348.684 472.928C339.489 472.756 333.484 470.4 331.301 466.09L325.123 453.85C323.572 450.776 323.313 445.403 330.898 437.301L344.115 423.136C352.505 414.143 368.308 404.345 386.437 396.961L473.007 361.592C491.108 354.208 509.583 349.927 522.713 350.156L543.286 350.53C552.48 350.702 558.485 353.058 560.668 357.368L565.208 366.361C568.484 372.855 562.507 382.221 548.745 392.105L486.77 436.611C473.812 445.92 455.279 454.626 437.207 459.913L408.475 468.302C396.867 471.693 386.294 473.474 377.76 473.474L377.732 473.417ZM345.322 424.228L346.529 425.348L333.312 439.513C328.399 444.771 326.56 449.311 328.083 452.327L334.26 464.567C335.84 467.67 340.983 469.452 348.741 469.595L376.726 470.084C384.886 470.256 395.89 468.446 407.527 465.056L436.259 456.666C453.986 451.494 472.145 442.961 484.816 433.853L546.791 389.347C558.715 380.785 564.634 372.539 562.22 367.798L557.68 358.805C556.1 355.702 550.957 353.92 543.199 353.777L522.627 353.403C510.1 353.231 491.941 357.368 474.214 364.58L387.644 399.949C369.945 407.189 354.574 416.671 346.5 425.319L345.293 424.199L345.322 424.228Z" fill=""/>
<path d="M374.342 477.468C373.136 477.468 371.958 477.439 370.808 477.382L341.387 475.744C331.733 475.198 325.527 472.382 323.429 467.555L317.367 453.735C315.873 450.345 315.815 444.484 324.004 435.835L338.427 420.607C347.564 410.953 364.573 400.725 383.881 393.197L476.255 357.282C495.563 349.783 515.244 345.732 528.978 346.507L550.613 347.714C560.267 348.26 566.473 351.076 568.571 355.903L573.024 366.074C576.185 373.286 569.548 383.371 554.808 393.714L487.978 440.748C474.014 450.575 454.217 459.51 434.996 464.682L404.454 472.871C393.219 475.888 382.905 477.468 374.342 477.468ZM339.605 421.728L340.812 422.877L326.389 438.105C320.987 443.823 318.832 448.88 320.384 452.385L326.446 466.205C327.998 469.768 333.37 471.951 341.559 472.411L370.981 474.049C379.629 474.509 391.237 472.986 403.563 469.653L434.105 461.464C452.953 456.407 472.376 447.644 486.052 438.019L552.883 390.985C565.813 381.876 572.363 372.826 569.95 367.367L565.497 357.196C563.945 353.633 558.572 351.449 550.383 350.99L528.748 349.783C515.532 349.064 496.31 353.001 477.404 360.327L385.031 396.242C366.154 403.569 349.604 413.51 340.783 422.848L339.577 421.699L339.605 421.728Z" fill=""/>
<path d="M370.922 481.807C368.652 481.807 366.526 481.721 364.486 481.52L333.599 478.56C323.514 477.583 317.107 474.25 315.067 468.849L309.205 453.276C307.165 447.874 309.809 441.18 316.79 433.911L332.536 417.562C342.506 407.219 360.75 396.502 381.323 388.916L479.816 352.628C500.417 345.043 521.305 341.336 535.671 342.715L558.398 344.899C568.483 345.876 574.919 349.209 576.93 354.61L581.24 366.074C584.257 374.091 576.93 384.923 561.128 395.812L489.096 445.432C474.041 455.804 452.865 464.97 432.494 469.941L400.056 477.871C389.31 480.485 379.398 481.836 370.979 481.836L370.922 481.807ZM334.92 419.861L319.175 436.209C313.199 442.415 310.757 448.047 312.28 452.098L318.141 467.671C319.664 471.722 325.266 474.423 333.886 475.256L364.773 478.215C373.91 479.106 386.121 477.813 399.194 474.624L431.632 466.694C451.659 461.809 472.403 452.816 487.143 442.674L559.174 393.054C573.195 383.4 580.436 373.487 578.079 367.224L573.77 355.76C572.247 351.708 566.644 349.008 558.025 348.174L535.298 345.991C521.391 344.64 501.049 348.289 480.908 355.702L382.414 391.991C362.273 399.403 344.488 409.804 334.863 419.832L334.92 419.861Z" fill=""/>
<path d="M367.563 486.49C364.029 486.49 360.753 486.289 357.708 485.858L325.298 481.376C314.753 479.91 308.145 475.974 306.22 469.969L300.617 452.442C298.721 446.466 301.709 439.226 309.265 431.497L326.418 413.942C337.279 402.851 356.846 391.674 378.768 384.032L483.697 347.571C505.649 339.957 527.744 336.624 542.828 338.721L566.647 342.025C577.191 343.491 583.8 347.427 585.725 353.432L589.834 366.304C592.678 375.182 584.604 386.847 567.652 398.283L490.047 450.604C473.842 461.522 451.23 470.888 429.595 475.629L395.174 483.157C385.06 485.369 375.694 486.49 367.505 486.49H367.563ZM328.803 416.269L311.65 433.824C305.07 440.547 302.283 446.811 303.778 451.466L309.38 468.992C310.846 473.618 316.678 476.865 325.758 478.129L358.167 482.611C367.706 483.933 380.636 482.985 394.513 479.939L428.934 472.411C450.167 467.757 472.348 458.591 488.237 447.874L565.842 395.553C581.013 385.324 589.029 374.521 586.731 367.338L582.622 354.466C581.156 349.84 575.324 346.594 566.245 345.329L542.426 342.025C527.83 340.014 506.31 343.261 484.847 350.702L379.917 387.163C358.455 394.634 339.348 405.494 328.832 416.24L328.803 416.269Z" fill=""/>
<path d="M364.198 491.604C359.17 491.604 354.544 491.231 350.378 490.455L316.474 484.22C305.47 482.18 298.689 477.612 296.908 470.946L291.65 451.264C289.897 444.656 293.288 436.812 301.476 428.566L320.152 409.747C331.961 397.851 352.964 386.215 376.294 378.601L488.033 342.169C511.392 334.555 534.78 331.739 550.554 334.641L575.494 339.238C586.527 341.278 593.279 345.847 595.06 352.512L598.91 366.965C601.554 376.848 592.618 389.376 574.459 401.357L490.906 456.436C473.437 467.929 449.36 477.439 426.432 481.864L389.942 488.903C380.633 490.685 371.956 491.604 364.198 491.604ZM322.508 412.074L303.832 430.893C296.621 438.163 293.431 445.087 294.839 450.402L300.097 470.084C301.505 475.342 307.51 479.221 317.049 480.973L350.953 487.208C360.952 489.047 374.57 488.501 389.281 485.657L425.771 478.617C448.297 474.279 471.943 464.941 489.068 453.678L572.62 398.598C589.285 387.623 597.905 376.13 595.692 367.827L591.842 353.374C590.434 348.116 584.429 344.237 574.89 342.485L549.951 337.888C534.694 335.072 511.91 337.859 489.068 345.301L377.329 381.733C354.458 389.174 333.972 400.524 322.508 412.074Z" fill=""/>
<path d="M360.868 497.121C354.059 497.121 347.881 496.489 342.508 495.253L307.053 487.007C295.589 484.335 288.665 479.02 287.056 471.607L282.257 449.541C280.677 442.243 284.527 433.738 293.377 424.946L313.719 404.776C326.562 392.048 349.088 379.923 373.913 372.366L492.806 336.25C517.659 328.694 542.34 326.481 558.861 330.331L584.921 336.394C596.413 339.066 603.309 344.381 604.918 351.794L608.452 367.999C610.837 378.946 601.039 392.45 581.53 405.006L491.599 462.93C472.808 475.026 447.122 484.651 422.843 488.674L384.199 495.081C375.866 496.46 368.022 497.149 360.868 497.149V497.121ZM316.075 407.161L295.733 427.331C287.831 435.174 284.182 442.817 285.504 448.88L290.302 470.946C291.595 476.922 297.83 481.491 307.829 483.818L343.284 492.064C353.714 494.506 368.08 494.42 383.681 491.834L422.326 485.427C446.174 481.462 471.4 472.038 489.846 460.171L579.778 402.248C597.764 390.669 607.303 378.141 605.263 368.746L601.729 352.541C600.436 346.565 594.201 341.997 584.202 339.669L558.142 333.607C542.196 329.9 518.147 332.084 493.811 339.468L374.918 375.584C350.582 382.968 328.573 394.777 316.104 407.161H316.075Z" fill=""/>
<path d="M357.619 503.155C348.741 503.155 340.782 502.178 334.059 500.282L297.081 489.737C285.301 486.375 278.06 480.083 276.681 472.009L272.457 447.328C271.078 439.255 275.417 430.032 285.013 420.665L307.166 399.059C321.158 385.411 345.264 372.855 371.64 365.442L498.033 329.929C524.466 322.517 550.497 320.994 567.736 325.907L594.917 333.665C606.668 337.026 613.937 343.318 615.317 351.392L618.42 369.522C620.517 381.676 609.714 396.185 588.826 409.345L492.085 470.17C471.886 482.87 444.505 492.553 418.818 496.087L377.933 501.689C370.778 502.666 363.969 503.155 357.648 503.155H357.619ZM544.119 326.395C530.5 326.395 514.783 328.694 498.894 333.147L372.502 368.66C346.615 375.929 323.026 388.198 309.435 401.472L287.283 423.079C278.635 431.526 274.497 439.944 275.675 446.811L279.928 471.492C281.106 478.359 287.341 483.56 297.971 486.605L334.949 497.15C345.839 500.253 360.952 500.713 377.444 498.443L418.33 492.84C443.557 489.392 470.45 479.882 490.275 467.412L587.016 406.586C606.438 394.375 616.954 380.756 615.116 370.125L612.012 351.996C610.834 345.129 604.6 339.928 593.969 336.883L566.788 329.125C560.381 327.286 552.652 326.395 544.119 326.395Z" fill=""/>
<path d="M354.432 509.734C343.14 509.734 333.17 508.326 325.01 505.539L286.48 492.409C274.269 488.243 266.914 481.031 265.765 472.067L262.202 444.513C261.052 435.577 265.937 425.549 276.309 415.579L300.415 392.45C315.615 377.854 341.445 364.839 369.458 357.627L503.723 323.091C531.794 315.879 559.262 315.218 577.191 321.31L605.521 330.964C617.732 335.13 625.087 342.341 626.237 351.306L628.851 371.562C630.575 384.836 618.393 400.869 596.326 414.401L492.317 478.186C470.624 491.489 441.432 501.201 414.309 504.103L371.096 508.757C365.292 509.389 359.718 509.677 354.432 509.677V509.734ZM302.714 394.864L278.608 417.993C269.155 427.072 264.472 436.353 265.477 444.11L269.04 471.664C270.046 479.393 276.424 485.484 287.543 489.277L326.073 502.408C337.422 506.286 353.282 507.378 370.723 505.511L413.936 500.856C440.628 497.983 469.273 488.473 490.564 475.399L594.574 411.614C615.519 398.771 627.098 383.974 625.547 372.022L622.932 351.766C621.927 344.037 615.548 337.945 604.429 334.153L576.099 324.499C558.745 318.609 531.995 319.27 504.528 326.338L370.263 360.874C342.766 367.942 317.482 380.67 302.685 394.864H302.714Z" fill=""/>
<path d="M351.271 516.917C337.249 516.917 324.952 514.935 315.269 511.027L275.217 494.966C262.575 489.88 255.133 481.634 254.243 471.75L251.513 441.007C250.651 431.095 256.11 420.263 267.373 409.632L293.577 384.894C310.098 369.292 337.709 355.845 367.476 348.921L509.986 315.793C539.782 308.869 568.686 309.185 587.333 316.684L616.783 328.493C629.425 333.578 636.867 341.824 637.758 351.708L639.769 374.32C641.062 389.031 627.73 406.27 604.055 420.435L492.316 487.237C468.986 501.172 437.955 510.797 409.309 512.981L363.683 516.457C359.431 516.773 355.322 516.946 351.328 516.946L351.271 516.917ZM294.697 386.071L295.847 387.278L269.643 412.017C259.299 421.785 254.042 431.985 254.817 440.691L257.547 471.434C258.323 480.14 264.845 487.208 276.453 491.863L316.505 507.924C328.314 512.665 344.978 514.504 363.367 513.096L408.993 509.619C437.179 507.464 467.664 498.012 490.564 484.335L602.302 417.533C624.857 404.058 637.614 387.968 636.436 374.55L634.425 351.938C633.649 343.232 627.127 336.164 615.519 331.509L586.069 319.701C568.025 312.46 539.868 312.201 510.705 318.982L368.194 352.11C339.002 358.891 311.937 372.05 295.818 387.25L294.669 386.043L294.697 386.071Z" fill=""/>
<path d="M348.167 524.79C331.014 524.79 316.159 522.032 304.839 516.745L263.292 497.351C250.219 491.231 242.72 481.864 242.174 470.917L240.45 436.669C239.905 425.722 246.053 413.942 258.236 402.621L286.709 376.159C304.667 359.466 334.203 345.617 365.751 339.095L516.881 307.834C548.486 301.312 578.885 302.778 598.222 311.828L628.764 326.079C641.837 332.199 649.336 341.566 649.882 352.513L651.146 377.682C651.979 394.002 637.326 412.534 611.956 427.302L491.942 497.15C466.888 511.717 433.903 521.227 403.677 522.52L355.551 524.618C353.051 524.732 350.609 524.79 348.224 524.79H348.167ZM554.664 307.087C542.941 307.087 530.328 308.409 517.485 311.052L366.354 342.313C335.381 348.72 306.419 362.282 288.893 378.544L260.419 405.006C249.128 415.493 243.209 426.67 243.697 436.468L245.421 470.716C245.91 480.514 252.575 488.674 264.643 494.305L306.189 513.699C318.429 519.417 335.898 522.089 355.321 521.256L403.447 519.158C433.156 517.866 465.595 508.528 490.189 494.219L610.203 424.372C634.481 410.235 648.503 392.824 647.756 377.768L646.491 352.599C646.003 342.801 639.337 334.641 627.27 329.01L596.728 314.759C585.809 309.645 571.127 307.059 554.635 307.059L554.664 307.087Z" fill=""/>
<path d="M345.034 533.41C324.405 533.41 306.649 529.703 293.633 522.693L250.65 499.535C237.174 492.265 229.647 481.635 229.474 469.538L228.9 431.44C228.727 419.344 235.594 406.558 248.782 394.49L279.698 366.189C299.178 348.375 330.755 334.124 364.17 328.119L524.322 299.272C557.824 293.239 589.716 296.083 609.714 306.858L641.319 323.867C654.794 331.136 662.322 341.767 662.495 353.863L662.926 381.877C663.184 399.921 647.123 419.889 619.943 435.29L491.137 508.212C464.272 523.411 429.191 532.663 397.356 532.979L346.644 533.438C346.126 533.438 345.58 533.438 345.063 533.438L345.034 533.41ZM281.939 368.66L251.023 396.961C238.726 408.195 232.06 420.435 232.204 431.411L232.778 469.51C232.951 480.485 239.674 489.881 252.201 496.633L295.184 519.791C307.884 526.629 326.1 530.364 346.586 530.105L397.298 529.646C428.616 529.358 463.066 520.279 489.47 505.31L618.276 432.388C644.393 417.62 659.823 398.743 659.564 381.906L659.133 353.892C658.961 342.916 652.237 333.521 639.71 326.769L608.105 309.76C588.74 299.33 557.623 296.629 524.868 302.548L364.716 331.395C331.904 337.314 300.931 351.249 281.882 368.66H281.939Z" fill=""/>
<path d="M395.087 544.327C393.507 544.327 391.926 544.327 390.346 544.27L336.991 542.805C314.551 542.201 295.415 537.374 281.624 528.87L237.262 501.488C223.413 492.926 215.914 480.887 216.172 467.555L216.977 425.233C217.236 411.844 224.907 397.995 239.187 385.123L272.746 354.897C293.893 335.877 327.624 321.309 362.993 315.908L532.512 290.078C567.939 284.676 601.44 289.043 622.07 301.8L654.681 321.913C668.529 330.475 676.029 342.514 675.77 355.845L675.195 386.962C674.822 406.931 657.209 428.422 628.104 444.426L489.902 520.394C462.435 535.507 427.324 544.299 395.058 544.299L395.087 544.327ZM561.847 291.141C552.567 291.141 542.884 291.888 533.001 293.382L363.482 319.212C328.716 324.499 295.617 338.779 274.958 357.397L241.399 387.623C227.809 399.834 220.511 412.878 220.281 425.319L219.477 467.642C219.247 479.939 225.999 490.685 239.014 498.701L283.377 526.083C296.651 534.271 315.241 538.926 337.077 539.529L390.432 540.994C423.388 541.885 459.992 533.122 488.322 517.549L626.523 441.582C654.566 426.153 671.546 405.724 671.891 386.962L672.466 355.845C672.696 343.548 665.944 332.802 652.928 324.786L620.317 304.674C606.009 295.853 585.207 291.17 561.847 291.17V291.141Z" fill=""/>
<path d="M394.253 556.941C390.316 556.941 386.437 556.826 382.587 556.567L326.502 552.889C302.942 551.338 282.973 545.247 268.78 535.277L223.096 503.154C208.874 493.156 201.461 479.537 202.208 464.855L204.592 417.878C205.339 403.109 213.902 388.054 229.359 374.377L265.792 342.14C288.72 321.855 324.721 306.972 362.13 302.346L541.418 280.223C578.884 275.597 613.966 281.774 635.171 296.686L668.73 320.304C682.952 330.303 690.365 343.921 689.618 358.632L687.865 393.168C686.745 415.263 667.465 438.364 636.291 454.971L488.12 533.955C460.595 548.637 426.231 556.941 394.166 556.941H394.253ZM268.061 344.582L231.629 376.82C216.861 389.893 208.672 404.144 207.954 418.021L205.569 464.998C204.88 478.732 211.603 490.972 225.05 500.425L270.734 532.547C284.41 542.172 303.804 548.063 326.761 549.557L382.846 553.234C417.468 555.533 456.285 547.201 486.683 530.996L634.854 452.011C664.994 435.95 683.613 413.884 684.676 392.967L686.428 358.431C687.118 344.697 680.395 332.457 666.948 323.005L633.389 299.387C612.817 284.906 578.626 278.987 541.935 283.498L362.647 305.622C325.899 310.161 290.53 324.728 268.09 344.582H268.061Z" fill=""/>
<path d="M393.191 570.905C386.698 570.905 380.262 570.589 373.998 569.899L315.126 563.636C290.388 560.992 269.615 553.465 255.076 541.857L208.214 504.419C193.676 492.811 186.407 477.468 187.728 461.264L191.981 409.201C193.302 392.881 202.841 376.562 219.563 361.994L259.07 327.602C283.923 305.967 322.338 290.854 361.844 287.176L551.275 269.563C590.867 265.886 627.501 274.074 649.308 291.486L683.758 319.011C698.296 330.619 705.566 345.962 704.244 362.167L701.112 400.438C699.13 424.86 678.012 449.685 644.682 466.924L485.909 548.896C458.413 563.09 424.94 570.905 393.191 570.905ZM569.807 272.006C563.831 272.006 557.739 272.293 551.591 272.868L362.16 290.48C323.315 294.101 285.59 308.898 261.225 330.102L221.718 364.494C205.657 378.487 196.52 394.031 195.256 409.46L191.004 461.522C189.768 476.836 196.405 490.771 210.254 501.833L257.116 539.271C271.166 550.505 291.336 557.774 315.442 560.36L374.314 566.624C410.66 570.503 451.804 562.774 484.358 545.966L643.131 463.993C675.454 447.3 695.883 423.452 697.779 400.179L700.911 361.908C702.146 346.594 695.509 332.659 681.661 321.597L647.211 294.072C629.454 279.878 601.326 272.006 569.778 272.006H569.807Z" fill=""/>
<path d="M391.811 586.391C382.502 586.391 373.308 585.73 364.429 584.409L302.742 575.157C276.825 571.278 255.248 562.113 240.393 548.666L192.468 505.281C177.642 491.863 170.574 474.624 172.557 456.752L178.935 399.116C180.918 381.101 191.549 363.402 209.621 347.915L252.432 311.253C279.354 288.181 320.326 272.896 362.045 270.368L561.962 258.156C603.738 255.599 641.981 266.115 664.248 286.285L699.474 318.178C714.299 331.596 721.367 348.835 719.385 366.706L714.701 409.086C711.713 436.036 688.642 462.757 652.956 480.571L482.92 565.446C455.596 579.093 423.043 586.42 391.811 586.42V586.391ZM574.288 261.058C570.294 261.058 566.243 261.173 562.192 261.432L362.274 273.643C321.274 276.143 281.02 291.141 254.616 313.753L211.805 350.415C194.365 365.356 184.136 382.308 182.24 399.461L175.861 457.097C173.965 474.135 180.487 489.938 194.709 502.81L242.634 546.195C257 559.211 277.975 568.089 303.23 571.881L364.918 581.133C403.016 586.851 446.574 579.869 481.455 562.457L651.491 477.583C686.142 460.286 708.553 434.542 711.426 408.712L716.109 366.333C718.006 349.294 711.483 333.492 697.261 320.62L662.036 288.727C642.584 271.115 610.375 261.087 574.288 261.087V261.058Z" fill=""/>
<path d="M390.001 603.515C377.675 603.515 365.493 602.395 353.827 600.125L289.266 587.483C262.143 582.168 239.819 571.163 224.677 555.648L175.861 505.597C160.806 490.168 154.025 470.831 156.754 451.15L165.575 387.393C168.333 367.539 180.113 348.318 199.68 331.854L246.082 292.807C275.245 268.241 318.918 252.87 362.849 251.663L573.599 245.859C617.673 244.652 657.467 257.812 680.137 281.027L716.023 317.804C731.079 333.233 737.86 352.57 735.13 372.251L728.637 419.113C724.528 448.851 699.301 477.583 661.145 495.943L479.156 583.604C452.12 596.62 420.543 603.487 389.943 603.487L390.001 603.515ZM248.237 295.336L201.835 334.383C182.9 350.329 171.494 368.804 168.879 387.853L160.059 451.609C157.444 470.544 163.736 488.415 178.246 503.298L227.062 553.349C241.715 568.376 263.436 579.064 289.899 584.236L354.459 596.878C394.339 604.693 440.426 598.631 477.749 580.645L659.737 492.983C696.888 475.083 721.425 447.328 725.39 418.682L731.883 371.82C734.498 352.886 728.206 335.015 713.696 320.131L677.81 283.354C655.772 260.771 616.869 247.985 573.714 249.163L362.964 254.967C319.722 256.145 276.854 271.23 248.237 295.336Z" fill=""/>
<path d="M387.644 622.507C372.072 622.507 356.7 620.754 342.133 617.192L274.67 600.642C246.34 593.689 223.268 580.616 207.954 562.831L158.42 505.367C142.991 487.466 136.756 466.377 140.377 444.368L152.013 373.917C155.633 352.024 168.706 331.193 189.882 313.695L240.134 272.12C271.711 246.003 318.055 230.631 364.486 230.976L586.412 232.728C632.786 233.102 674.189 249.22 697.174 275.884L733.578 318.12C749.007 336.02 755.271 357.109 751.622 379.118L743.06 430.922C737.658 463.734 710.075 494.592 669.304 513.498L474.616 603.774C447.953 616.129 417.439 622.564 387.644 622.564V622.507ZM362.849 234.251C317.854 234.251 272.86 249.307 242.203 274.648L191.951 316.224C171.407 333.204 158.736 353.345 155.231 374.435L143.595 444.886C140.118 465.889 146.094 486.03 160.891 503.183L210.425 560.647C225.308 577.915 247.777 590.614 275.446 597.424L342.909 613.974C384.57 624.202 433.271 619.232 473.208 600.728L667.897 510.452C707.662 492.006 734.526 462.067 739.755 430.347L748.317 378.543C751.794 357.54 745.789 337.399 731.021 320.246L694.617 278.01C672.264 252.065 631.78 236.349 586.355 236.004L364.429 234.251C363.912 234.251 363.366 234.251 362.849 234.251Z" fill=""/>
<path d="M384.541 643.481C365.52 643.481 346.701 640.896 329.174 635.666L258.81 614.663C229.273 605.842 205.512 590.442 190.025 570.1L140.031 504.361C124.487 483.932 118.712 460.343 123.338 436.122L138.164 358.316C142.761 334.21 157.271 311.627 180.141 293.037L234.531 248.818C268.693 221.034 318.141 205.778 366.842 207.961L600.261 218.506C649.019 220.718 691.974 240.227 715.16 270.683L751.909 319.011C767.453 339.439 773.228 363.028 768.602 387.249L757.713 444.426C750.817 480.571 720.706 513.728 677.177 533.122L469.071 625.811C442.896 637.476 413.474 643.424 384.57 643.424L384.541 643.481ZM236.657 251.433L182.268 295.652C160 313.753 145.893 335.647 141.439 358.977L126.614 436.783C122.189 460.027 127.734 482.726 142.704 502.378L192.697 568.117C207.724 587.885 230.94 602.883 259.787 611.503L330.151 632.506C373.594 645.464 425.024 641.872 467.72 622.852L675.826 530.162C718.378 511.199 747.771 478.962 754.466 443.88L765.355 386.703C769.78 363.459 764.235 340.761 749.265 321.108L712.517 272.781C689.934 243.072 647.899 224.051 600.117 221.896L366.698 211.352C318.802 209.168 270.188 224.195 236.629 251.462L236.657 251.433Z" fill=""/>
<path d="M380.605 666.64C357.935 666.64 335.496 663.019 314.866 655.664L241.628 629.604C210.913 618.686 186.463 600.671 170.976 577.513L120.81 502.58C105.237 479.336 100.065 452.988 105.783 426.354L124.229 340.531C129.947 313.983 146.008 289.503 170.717 269.793L229.561 222.816C266.51 193.308 319.09 178.224 370.233 182.591L615.403 203.336C666.603 207.674 711.052 230.976 734.296 265.713L771.188 320.792C786.732 344.037 791.933 370.384 786.215 397.018L772.653 460.085C764.091 499.908 731.222 535.507 684.762 555.332L462.434 650.176C436.862 661.094 408.59 666.611 380.662 666.611L380.605 666.64ZM352.792 185.206C308.114 185.206 263.809 199.744 231.629 225.459L172.786 272.436C148.68 291.687 132.992 315.506 127.447 341.307L109.001 427.13C103.456 452.845 108.484 478.33 123.539 500.798L173.706 575.732C188.819 598.286 212.666 615.87 242.72 626.559L315.958 652.619C361.182 668.708 415.428 666.697 461.026 647.217L683.354 552.372C728.837 532.978 760.988 498.241 769.32 459.482L782.882 396.415C788.398 370.7 783.37 345.215 768.344 322.746L731.452 267.667C708.753 233.763 665.224 211.007 615.029 206.755L369.859 186.01C364.141 185.522 358.424 185.292 352.706 185.292L352.792 185.206Z" fill=""/>
<path d="M375.663 692.211C349.143 692.211 322.853 687.27 299.092 677.357L223.009 645.608C191.088 632.276 166.062 611.36 150.633 585.07L100.611 499.908C85.1244 473.561 80.6422 444.168 87.6241 414.89L110.179 320.304C117.161 291.084 134.946 264.593 161.638 243.647L225.25 193.768C265.217 162.422 321.072 147.768 374.686 154.549L631.837 187.102C685.537 193.883 731.423 221.495 754.581 260.915L791.358 323.522C806.844 349.869 811.326 379.262 804.344 408.54L787.766 478.072C777.308 521.888 741.45 560.102 691.859 580.3L454.475 677.012C429.593 687.155 402.498 692.24 375.691 692.24L375.663 692.211ZM348.654 156.244C304.206 156.244 260.246 170.553 227.29 196.383L163.678 246.262C137.589 266.719 120.206 292.606 113.397 321.08L90.8421 415.666C84.0613 444.082 88.4286 472.641 103.455 498.241L153.478 583.403C168.562 609.061 193.042 629.518 224.274 642.562L300.356 674.311C347.362 693.935 404.481 693.792 453.182 673.967L690.566 577.255C739.18 557.458 774.291 520.107 784.491 477.325L801.069 407.793C807.85 379.377 803.482 350.817 788.456 325.217L751.679 262.61C729.038 224.052 684.072 197.072 631.378 190.407L374.226 157.853C365.721 156.761 357.159 156.244 348.597 156.244H348.654Z" fill=""/>
<path d="M369.544 720.426C338.973 720.426 308.632 713.846 281.71 700.802L202.841 662.589C169.799 646.585 144.256 622.364 128.971 592.626L79.4654 496.144C64.18 466.349 60.531 433.594 68.9495 401.414L96.1587 297.261C104.548 265.138 124.23 236.435 153.048 214.225L221.804 161.301C264.988 128.058 324.291 113.979 380.433 123.576L649.739 169.691C705.938 179.316 753.174 211.697 776.073 256.346L812.448 327.286C827.734 357.081 831.382 389.835 822.964 422.015L802.967 498.557C790.382 546.741 751.278 587.77 698.411 608.256L445.138 706.434C421.032 715.771 395.202 720.426 369.515 720.426H369.544ZM222.838 162.623L223.844 163.944L155.088 216.869C126.845 238.619 107.594 266.69 99.3767 298.094L72.1675 402.248C63.9789 433.623 67.5129 465.544 82.4248 494.621L131.93 591.103C146.871 620.209 171.896 643.913 204.277 659.6L283.147 697.814C331.876 721.432 391.984 723.472 443.931 703.331L697.204 605.153C749.094 585.041 787.422 544.873 799.748 497.695L819.746 421.153C827.935 389.778 824.401 357.857 809.489 328.78L773.114 257.84C750.703 214.11 704.358 182.39 649.164 172.937L379.859 126.822C324.607 117.341 266.281 131.218 223.815 163.915L222.809 162.594L222.838 162.623Z" fill=""/>
<path d="M362.074 751.514C327.251 751.514 292.686 742.981 262.575 726.172L181.005 680.661C146.842 661.612 120.869 633.77 105.928 600.182L57.3996 491.116C42.4302 457.499 39.8156 421.038 49.8143 385.727L82.2815 271.143C92.2802 235.832 114.002 204.772 145.118 181.27L219.391 125.156C266.023 89.9304 328.917 76.57 387.645 89.4132L669.277 151.072C728.034 163.944 776.505 201.698 798.944 252.123L834.63 332.314C849.599 365.93 852.214 402.391 842.215 437.703L818.367 521.945C803.369 574.898 760.759 618.887 704.416 639.603L434.364 738.815C411.148 747.348 386.582 751.543 362.131 751.543L362.074 751.514ZM220.368 126.478L221.373 127.799L147.101 183.913C116.559 206.985 95.2684 237.469 85.4707 272.063L53.0323 386.646C43.2347 421.211 45.7918 456.896 60.4451 489.794L108.974 598.861C123.627 631.788 149.083 659.083 182.642 677.816L264.213 723.328C314.609 751.428 377.762 756.054 433.186 735.711L703.238 636.5C758.605 616.157 800.438 573.002 815.149 521.054L838.997 436.812C848.794 402.248 846.209 366.562 831.584 333.664L795.927 253.473C773.919 204.025 726.31 166.932 668.587 154.319L386.956 92.66C329.176 80.0179 267.287 93.1484 221.402 127.799L220.396 126.478H220.368Z" fill=""/>
<path d="M353.023 785.762C313.718 785.762 274.728 774.844 241.485 753.64L157.329 699.94C122.104 677.471 95.8426 645.579 81.3616 607.739L34.3273 484.737C19.8464 446.868 18.4385 406.356 30.2474 367.568L68.6046 241.578C80.4135 202.818 104.376 169.173 137.935 144.291L218.126 84.8733C268.465 47.5504 335.123 35.1669 396.408 51.7166L690.394 131.103C751.709 147.653 801.271 191.44 823.021 248.272L857.615 338.692C872.096 376.561 873.504 417.073 861.695 455.861L833.509 548.465C815.81 606.647 769.407 653.796 709.386 674.569L421.635 774.27C399.396 781.97 376.152 785.762 352.994 785.762H353.023ZM341.932 47.8665C298.317 47.8665 255.19 61.5716 220.109 87.5741L139.918 146.992C106.933 171.443 83.3729 204.485 71.7651 242.583L33.4079 368.573C21.8289 406.643 23.208 446.408 37.4304 483.588L84.4647 606.589C98.687 643.769 124.488 675.087 159.11 697.182L243.267 750.882C295.243 784.038 361.528 791.624 420.572 771.195L708.323 671.495C767.339 651.038 812.965 604.722 830.377 547.545L858.563 454.942C870.142 416.872 868.763 377.107 854.54 339.927L819.947 249.508C798.599 193.681 749.841 150.641 689.561 134.379L395.575 54.992C377.962 50.2512 359.919 47.9239 341.932 47.9239V47.8665Z" fill=""/>
<path d="M342.249 823.43C298.26 823.43 254.645 809.696 218.327 783.292L131.787 720.426C95.5843 694.136 69.1508 657.733 55.3307 615.181L10.3651 476.779C-3.45503 434.226 -3.45503 389.232 10.3651 346.709L55.3307 208.306C69.1508 165.754 95.5843 129.351 131.787 103.061L218.327 40.1954C272.631 0.660169 343.226 -10.5166 407.068 10.2567L713.438 109.813C777.309 130.558 827.82 181.069 848.564 244.94L881.635 346.68C895.455 389.232 895.455 434.198 881.635 476.75L848.564 578.49C827.82 642.361 777.28 692.872 713.438 713.617L407.068 813.173C385.921 820.04 364.028 823.43 342.249 823.43ZM342.249 3.30352C298.95 3.30352 256.024 16.8363 220.281 42.81L133.74 105.676C98.1127 131.563 72.0815 167.392 58.4912 209.255L13.5256 347.657C-0.0933785 389.548 -0.0933785 433.824 13.5256 475.687L58.4912 614.089C72.1102 655.98 98.1127 691.78 133.74 717.668L220.281 780.533C273.752 819.379 343.226 830.383 406.062 809.955L712.432 710.399C775.298 689.97 825.004 640.264 845.433 577.398L878.503 475.658C892.122 433.767 892.122 389.491 878.503 347.628L845.433 245.888C825.004 183.022 775.269 133.316 712.432 112.887L406.062 13.3885C385.232 6.63643 363.683 3.30352 342.249 3.30352Z" fill=""/>
</svg>
