<?xml version="1.0" encoding="UTF-8"?>
<svg id="Layer_1" xmlns="http://www.w3.org/2000/svg" version="1.1" viewBox="0 0 200 50">
  <!-- Generator: Adobe Illustrator 29.1.0, SVG Export Plug-In . SVG Version: 2.1.0 Build 142)  -->
  <defs>
    <style>
      .st0 {
        fill: #fff;
      }

      .st1 {
        fill: #17c7a9;
      }
    </style>
  </defs>
  <path d="M25.8,14.1h152.8c8.2,0,14.9,6.7,14.9,14.9h0c0,8.2-6.7,14.9-14.9,14.9H25.8V14.1h0Z"/>
  <g>
    <path d="M24.7,46.8c-.5,0-1.1,0-1.6-.2-.5-.1-4.7-1.3-9-4.8-4.1-3.3-9-9.4-9-19.4v-8.5c0-2,.8-3.9,2.2-5.3s3.3-2.2,5.3-2.2h24.3c2,0,3.9.8,5.3,2.2,1.4,1.4,2.2,3.3,2.2,5.3v8.5c0,10-4.9,16-9,19.4-4.3,3.5-8.5,4.7-9,4.8-.5.1-1.1.2-1.6.2Z"/>
    <path class="st0" d="M36.8,11.4H12.5c-.6,0-1.3.3-1.7.7-.5.5-.7,1.1-.7,1.7v8.5c0,8,3.9,12.9,7.1,15.5,3.5,2.9,7,3.8,7.1,3.9.2,0,.4,0,.6,0,.2,0,3.6-1,7.1-3.9,3.2-2.7,7.1-7.5,7.1-15.5v-8.5c0-.6-.3-1.3-.7-1.7-.5-.5-1.1-.7-1.7-.7Z"/>
  </g>
  <path class="st0" d="M55.8,19.2c1.8,0,3.3.3,4.6,1,1.3.7,2.3,1.7,3,3.1.7,1.4,1.1,3.1,1.1,5.1s-.4,4.1-1.3,5.6c-.8,1.5-2,2.7-3.5,3.5-1.5.8-3.2,1.2-5.2,1.2s-2-.1-3-.4c-1-.2-1.8-.6-2.5-1l1.9-3.8c.5.4,1.1.6,1.7.8.6.1,1.2.2,1.8.2,1.5,0,2.6-.4,3.5-1.3.9-.9,1.3-2.2,1.3-3.8v-.9c0-.3,0-.7,0-1l1.3,1.1c-.3.7-.7,1.2-1.3,1.7s-1.1.8-1.8,1c-.7.2-1.5.3-2.4.3s-2.3-.2-3.3-.7c-1-.5-1.7-1.2-2.3-2.1-.6-.9-.9-1.9-.9-3.1s.3-2.4,1-3.4c.7-1,1.6-1.7,2.7-2.2,1.1-.5,2.4-.8,3.7-.8ZM56.1,23c-.5,0-.9,0-1.3.3-.4.2-.7.5-.9.8-.2.3-.3.8-.3,1.3,0,.7.2,1.3.7,1.7.5.4,1.1.6,1.9.6s1,0,1.4-.3.7-.5.9-.8c.2-.4.3-.8.3-1.3s-.1-.9-.3-1.2c-.2-.4-.5-.6-.9-.8-.4-.2-.9-.3-1.4-.3ZM74.4,38.8c-1.6,0-3.1-.2-4.3-.7-1.2-.5-2.2-1.2-2.9-2-.7-.9-1-1.9-1-3.1s.3-2.2,1-3c.7-.8,1.7-1.5,2.9-1.9,1.2-.4,2.7-.7,4.3-.7s3,.2,4.3.7c1.2.4,2.2,1.1,2.9,1.9.7.8,1,1.8,1,3s-.3,2.3-1,3.1c-.7.9-1.6,1.6-2.9,2-1.2.5-2.6.7-4.3.7ZM74.4,35.1c.9,0,1.5-.2,2-.6.5-.4.8-1,.8-1.7s-.3-1.3-.8-1.7c-.5-.4-1.2-.6-2-.6s-1.6.2-2.1.6c-.5.4-.8,1-.8,1.7s.3,1.3.8,1.7c.5.4,1.2.6,2.1.6ZM74.4,30c-1.5,0-2.8-.2-3.9-.6-1.1-.4-2-1-2.6-1.8-.6-.8-1-1.7-1-2.8s.3-2.1.9-2.9c.6-.8,1.5-1.4,2.7-1.9,1.1-.5,2.4-.7,3.9-.7s2.8.2,3.9.7c1.1.4,2,1.1,2.6,1.9.6.8,1,1.8,1,2.9s-.3,2-1,2.8c-.6.8-1.5,1.4-2.6,1.8-1.1.4-2.4.6-3.9.6ZM74.4,26.9c.7,0,1.2-.2,1.6-.5.4-.4.6-.8.6-1.5s-.2-1.1-.6-1.5c-.4-.3-1-.5-1.6-.5s-1.2.2-1.6.5c-.4.3-.6.8-.6,1.5s.2,1.1.6,1.5c.4.3,1,.5,1.6.5Z"/>
  <path class="st0" d="M109.8,28.7c-.7,0-1.4-.1-2-.3-.6-.2-1.1-.6-1.6-1-.4-.4-.8-.9-1-1.5-.3-.6-.4-1.2-.4-1.9s.1-1.3.4-1.9c.3-.6.6-1.1,1-1.5.5-.4,1-.7,1.6-1,.6-.2,1.3-.4,2-.4s1.6.1,2.2.4c.7.3,1.2.7,1.7,1.3l-1.6,1.5c-.3-.3-.6-.6-1-.8-.3-.2-.7-.3-1.2-.3s-.7,0-1,.2c-.3.1-.6.3-.8.5-.2.2-.4.5-.5.8-.1.3-.2.7-.2,1.1s0,.7.2,1.1c.1.3.3.6.5.8.2.2.5.4.8.5.3.1.7.2,1,.2s.8,0,1.2-.3c.4-.2.7-.4,1-.8l1.6,1.5c-.4.5-1,1-1.7,1.3-.7.3-1.4.4-2.2.4ZM119,28.7c-1.3,0-2.4-.4-3.1-1.1s-1.1-1.8-1.1-3.1v-5h2.6v5c0,.8.2,1.3.5,1.7.3.3.7.5,1.3.5s1-.2,1.3-.5c.3-.3.5-.9.5-1.7v-5h2.5v5c0,1.4-.4,2.4-1.1,3.1s-1.8,1.1-3.1,1.1ZM128.2,28.7c-.7,0-1.5,0-2.2-.3-.7-.2-1.2-.4-1.7-.7l.8-1.9c.4.3.9.5,1.4.6.5.2,1.1.2,1.6.2s.6,0,.9,0c.2,0,.4-.2.5-.3.1-.1.2-.2.2-.4s0-.4-.3-.5c-.2-.1-.4-.2-.7-.3-.3,0-.6-.2-1-.2-.4,0-.7-.2-1.1-.3-.4-.1-.7-.3-1-.5-.3-.2-.6-.5-.7-.8-.2-.3-.3-.7-.3-1.2s.1-1,.4-1.5c.3-.4.8-.8,1.4-1.1.6-.3,1.3-.4,2.2-.4s1.2,0,1.8.2c.6.1,1.1.3,1.5.6l-.8,1.9c-.4-.2-.9-.4-1.3-.5-.4-.1-.8-.2-1.2-.2s-.6,0-.9.1c-.2,0-.4.2-.5.3,0,.1-.1.3-.1.4s0,.4.3.5c.2.1.4.2.7.3.3,0,.7.1,1,.2.4,0,.7.2,1.1.3.4.1.7.3,1,.5.3.2.5.4.7.8.2.3.3.7.3,1.2s-.2,1-.5,1.5c-.3.4-.7.8-1.3,1.1-.6.3-1.3.4-2.2.4ZM135.2,28.5v-7.1h-2.8v-2h8.2v2h-2.8v7.1h-2.6ZM146,28.7c-.7,0-1.4-.1-2-.4-.6-.2-1.2-.6-1.6-1-.5-.4-.8-.9-1.1-1.5-.3-.6-.4-1.2-.4-1.9s.1-1.3.4-1.9c.3-.6.6-1.1,1.1-1.5.5-.4,1-.8,1.6-1,.6-.2,1.3-.4,2-.4s1.4.1,2,.4c.6.2,1.1.6,1.6,1,.4.4.8.9,1.1,1.5.3.6.4,1.2.4,1.9s-.1,1.3-.4,1.9c-.3.6-.6,1.1-1.1,1.5-.5.4-1,.8-1.6,1-.6.2-1.3.4-2,.4ZM146,26.6c.3,0,.7,0,1-.2.3-.1.6-.3.8-.5.2-.2.4-.5.5-.8.1-.3.2-.7.2-1.1s0-.8-.2-1.1c-.1-.3-.3-.6-.5-.8-.2-.2-.5-.4-.8-.5-.3-.1-.6-.2-1-.2s-.7,0-1,.2c-.3.1-.6.3-.8.5-.2.2-.4.5-.5.8-.1.3-.2.7-.2,1.1s0,.7.2,1.1c.1.3.3.6.5.8.2.2.5.4.8.5.3.1.6.2,1,.2ZM152.4,28.5v-9.1h2.1l3.8,6.2h-1.1l3.7-6.2h2.1v9.1s-2.3,0-2.3,0v-5.5s.4,0,.4,0l-2.7,4.6h-1.1l-2.8-4.6h.5v5.5h-2.4ZM167.2,22.9h4.2v1.9h-4.2v-1.9ZM167.3,26.5h4.8v2h-7.3v-9.1h7.1v2h-4.6v5.1ZM173.5,28.5v-9.1h4.2c.8,0,1.5.1,2.1.4.6.3,1.1.7,1.4,1.2.3.5.5,1.1.5,1.8s-.2,1.3-.5,1.8c-.3.5-.8.9-1.4,1.1-.6.3-1.3.4-2.1.4h-2.7l1.1-1.1v3.5h-2.6ZM179.2,28.5l-2.3-3.3h2.7l2.3,3.3h-2.8ZM176.1,25.3l-1.1-1.2h2.6c.5,0,.9-.1,1.2-.4.3-.2.4-.6.4-1s-.1-.8-.4-1c-.3-.2-.7-.4-1.2-.4h-2.6l1.1-1.2v5Z"/>
  <path class="st0" d="M107.5,38.8c-.6,0-1.1,0-1.7-.2-.5-.1-1-.3-1.3-.6l.7-1.5c.3.2.7.4,1.1.5.4.1.8.2,1.2.2s.5,0,.7,0c.2,0,.3-.1.4-.2,0,0,.1-.2.1-.3s0-.3-.2-.4c-.1,0-.3-.2-.6-.2-.2,0-.5-.1-.8-.2-.3,0-.6-.1-.8-.2-.3,0-.5-.2-.8-.4-.2-.2-.4-.4-.6-.6-.1-.2-.2-.6-.2-.9s.1-.8.3-1.1c.2-.3.6-.6,1-.8s1-.3,1.7-.3.9,0,1.3.2c.4.1.8.2,1.2.4l-.6,1.5c-.3-.2-.7-.3-1-.4-.3,0-.6-.1-1-.1s-.5,0-.7,0c-.2,0-.3.1-.4.2,0,0-.1.2-.1.3s0,.3.2.4c.1,0,.3.2.6.2.2,0,.5.1.8.2.3,0,.6.1.8.2.3,0,.5.2.8.4.2.1.4.3.6.6.1.2.2.5.2.9s-.1.8-.3,1.1c-.2.3-.6.6-1,.8-.5.2-1,.3-1.7.3ZM110.7,38.7l3.1-7h1.9l3.1,7h-2.1l-2.4-6h.8l-2.4,6h-2ZM112.4,37.3l.5-1.5h3.4l.5,1.5h-4.4ZM120.5,38.7v-5.4h-2.2v-1.6h6.3v1.6h-2.1v5.4h-2ZM125.4,38.7v-7h2v7h-2ZM131.2,38.8c-.6,0-1.1,0-1.7-.2-.5-.1-1-.3-1.3-.6l.7-1.5c.3.2.7.4,1.1.5.4.1.8.2,1.2.2s.5,0,.7,0c.2,0,.3-.1.4-.2,0,0,.1-.2.1-.3s0-.3-.2-.4c-.1,0-.3-.2-.6-.2-.2,0-.5-.1-.8-.2-.3,0-.6-.1-.8-.2-.3,0-.5-.2-.8-.4-.2-.2-.4-.4-.6-.6-.1-.2-.2-.6-.2-.9s.1-.8.3-1.1c.2-.3.6-.6,1-.8s1-.3,1.7-.3.9,0,1.3.2c.4.1.8.2,1.2.4l-.6,1.5c-.3-.2-.7-.3-1-.4-.3,0-.6-.1-1-.1s-.5,0-.7,0c-.2,0-.3.1-.4.2,0,0-.1.2-.1.3s0,.3.2.4c.1,0,.3.2.6.2.2,0,.5.1.8.2.3,0,.6.1.8.2.3,0,.5.2.8.4.2.1.4.3.6.6.1.2.2.5.2.9s-.1.8-.4,1.1c-.2.3-.6.6-1,.8-.5.2-1,.3-1.7.3ZM137.1,34.8h3.2v1.5h-3.2v-1.5ZM137.2,38.7h-2v-7h5.5v1.5h-3.5v5.5ZM140.5,38.7l3.1-7h2l3.1,7h-2.1l-2.4-6h.8l-2.4,6h-2ZM142.2,37.3l.5-1.5h3.4l.5,1.5h-4.4ZM152.6,38.8c-.6,0-1.1,0-1.5-.3-.5-.2-.9-.4-1.2-.8-.3-.3-.6-.7-.8-1.2-.2-.4-.3-.9-.3-1.5s0-1,.3-1.5c.2-.4.5-.8.8-1.2.3-.3.8-.6,1.2-.8.5-.2,1-.3,1.5-.3s1.2.1,1.7.3c.5.2.9.6,1.3,1l-1.3,1.1c-.2-.3-.5-.5-.8-.6-.3-.1-.6-.2-.9-.2s-.6,0-.8.1c-.2,0-.4.2-.6.4-.2.2-.3.4-.4.6,0,.2-.1.5-.1.8s0,.6.1.8c.1.2.2.5.4.6.2.2.4.3.6.4.2,0,.5.1.8.1s.6,0,.9-.2c.3-.1.5-.3.8-.6l1.3,1.1c-.3.4-.8.7-1.3,1-.5.2-1.1.3-1.7.3ZM158,38.7v-5.4h-2.1v-1.6h6.3v1.6h-2.1v5.4h-2ZM162.8,38.7v-7h2v7h-2ZM169.7,38.8c-.6,0-1.1,0-1.6-.3-.5-.2-.9-.4-1.2-.8-.3-.3-.6-.7-.8-1.2-.2-.4-.3-.9-.3-1.5s0-1,.3-1.5c.2-.4.5-.8.8-1.1.4-.3.8-.6,1.2-.8.5-.2,1-.3,1.6-.3s1.1,0,1.6.3c.5.2.9.4,1.2.8.3.3.6.7.8,1.1.2.4.3.9.3,1.5s0,1-.3,1.5c-.2.4-.5.8-.8,1.2s-.8.6-1.2.8c-.5.2-1,.3-1.6.3ZM169.7,37.2c.3,0,.5,0,.7-.1.2,0,.4-.2.6-.4.2-.2.3-.4.4-.6,0-.2.1-.5.1-.8s0-.6-.1-.8c0-.2-.2-.5-.4-.6-.2-.2-.4-.3-.6-.4-.2,0-.5-.1-.7-.1s-.5,0-.8.1c-.2,0-.4.2-.6.4-.2.2-.3.4-.4.6,0,.2-.1.5-.1.8s0,.6.1.8c.1.2.2.5.4.6.2.2.4.3.6.4.2,0,.5.1.8.1ZM174.7,38.7v-7h1.6l3.9,4.7h-.8v-4.7h1.9v7h-1.6l-3.9-4.7h.8v4.7h-1.9Z"/>
  <path class="st0" d="M86,37.7l7.5-11h2.3l-7.5,11h-2.3ZM87,32.7c-.5,0-1-.1-1.4-.4s-.8-.6-1-1c-.2-.5-.4-1-.4-1.6s.1-1.2.4-1.6c.2-.5.6-.8,1-1,.4-.3.9-.4,1.4-.4s1,.1,1.4.4c.4.2.8.6,1,1,.3.5.4,1,.4,1.6s-.1,1.2-.4,1.6c-.2.5-.6.8-1,1.1-.4.2-.9.4-1.4.4ZM87,31.2c.3,0,.5-.1.6-.4.2-.2.3-.6.3-1.2s0-1-.3-1.2c-.2-.2-.4-.4-.6-.4s-.5.1-.7.4c-.2.2-.3.6-.3,1.2s0,1,.3,1.2c.2.2.4.4.7.4ZM94.8,37.8c-.5,0-1-.1-1.5-.4-.4-.2-.7-.6-1-1-.2-.5-.4-1-.4-1.6s.1-1.2.4-1.6.6-.8,1-1c.4-.3.9-.4,1.5-.4s1,.1,1.4.4c.4.2.8.6,1,1,.3.5.4,1,.4,1.6s-.1,1.2-.4,1.6c-.2.5-.6.8-1,1-.4.2-.9.4-1.4.4ZM94.8,36.3c.3,0,.5-.1.7-.4.2-.2.3-.6.3-1.2s0-1-.3-1.2c-.2-.2-.4-.4-.7-.4s-.5.1-.7.4c-.2.2-.3.6-.3,1.2s0,1,.3,1.2c.2.2.4.4.7.4Z"/>
  <path class="st1" d="M36.8,11.4H12.5c-.6,0-1.3.3-1.7.7-.5.5-.7,1.1-.7,1.7v8.5c0,8,3.9,12.9,7.1,15.5,3.5,2.9,7,3.8,7.1,3.9.2,0,.4,0,.6,0,.2,0,3.6-1,7.1-3.9,3.2-2.7,7.1-7.5,7.1-15.5v-8.5c0-.6-.3-1.3-.7-1.7-.5-.5-1.1-.7-1.7-.7ZM36.8,22.3c0,5.6-2.1,10.2-6.2,13.6-1.8,1.5-3.8,2.6-6,3.4-2.1-.8-4.2-1.9-5.9-3.3-4.1-3.4-6.2-8-6.2-13.6v-8.5h24.3v8.5ZM17.7,26.8c-.2-.2-.4-.5-.4-.9s.1-.6.4-.9c.2-.2.5-.4.9-.4s.6.1.9.4l2.8,2.8,7.6-7.7c.1-.1.2-.2.4-.3.1,0,.3,0,.5,0s.3,0,.5,0c.1,0,.3.2.4.3.1.1.2.2.3.4,0,.1,0,.3,0,.5s0,.3,0,.5c0,.1-.2.3-.3.4l-4.3,4.3-4.3,4.3c-.1.1-.2.2-.4.3-.1,0-.3,0-.5,0s-.3,0-.5,0c-.1,0-.3-.2-.4-.3l-3.6-3.6Z"/>
  <path class="st1" d="M64.2,6.2l.8,1.6,1.8.3c.2,0,.3.3.1.5l-1.3,1.3.3,1.8c0,.2-.2.4-.4.3l-1.6-.8-1.6.8c-.2,0-.4,0-.4-.3l.3-1.8-1.3-1.3c-.2-.2,0-.4.1-.5l1.8-.3.8-1.6c.1-.2.4-.2.5,0Z"/>
  <path class="st1" d="M88.1,6.2l.8,1.6,1.8.3c.2,0,.3.3.1.5l-1.3,1.3.3,1.8c0,.2-.2.4-.4.3l-1.6-.8-1.6.8c-.2,0-.4,0-.4-.3l.3-1.8-1.3-1.3c-.2-.2,0-.4.1-.5l1.8-.3.8-1.6c.1-.2.4-.2.5,0Z"/>
  <path class="st1" d="M111.9,6.2l.8,1.6,1.8.3c.2,0,.3.3.1.5l-1.3,1.3.3,1.8c0,.2-.2.4-.4.3l-1.6-.8-1.6.8c-.2,0-.4,0-.4-.3l.3-1.8-1.3-1.3c-.2-.2,0-.4.1-.5l1.8-.3.8-1.6c.1-.2.4-.2.5,0Z"/>
  <path class="st1" d="M135.8,6.2l.8,1.6,1.8.3c.2,0,.3.3.1.5l-1.3,1.3.3,1.8c0,.2-.2.4-.4.3l-1.6-.8-1.6.8c-.2,0-.4,0-.4-.3l.3-1.8-1.3-1.3c-.2-.2,0-.4.1-.5l1.8-.3.8-1.6c.1-.2.4-.2.5,0Z"/>
  <path class="st1" d="M159.7,6.2l.8,1.6,1.8.3c.2,0,.3.3.1.5l-1.3,1.3.3,1.8c0,.2-.2.4-.4.3l-1.6-.8-1.6.8c-.2,0-.4,0-.4-.3l.3-1.8-1.3-1.3c-.2-.2,0-.4.1-.5l1.8-.3.8-1.6c.1-.2.4-.2.5,0Z"/>
</svg>