<svg width="72" height="72" viewBox="0 0 72 72" fill="none" xmlns="http://www.w3.org/2000/svg">
<g clip-path="url(#clip0_643_97)">
<path d="M36 71C55.33 71 71 55.33 71 36C71 16.67 55.33 1 36 1C16.67 1 1 16.67 1 36C1 55.33 16.67 71 36 71Z" stroke="white" stroke-width="2" stroke-linecap="round" stroke-linejoin="round"/>
<path d="M45.4705 52.6102H14.4805C13.9305 52.6102 13.4805 52.1602 13.4805 51.6102V17.9902C13.4805 17.4402 13.9305 16.9902 14.4805 16.9902H57.5305C58.0805 16.9902 58.5305 17.4402 58.5305 17.9902V51.6102C58.5305 52.1602 58.0805 52.6102 57.5305 52.6102H53.7305" stroke="white" stroke-width="2" stroke-linecap="round" stroke-linejoin="round"/>
<path d="M44.4103 47.29L45.8703 54.59C46.0303 55.37 46.9903 55.67 47.5603 55.1L49.0703 53.59L51.9003 56.42C52.6803 57.2 53.9503 57.2 54.7303 56.42C55.5103 55.64 55.5103 54.37 54.7303 53.59L51.9003 50.76L53.4103 49.25C53.9703 48.69 53.6803 47.72 52.9003 47.56L45.6003 46.1C44.9003 45.96 44.2803 46.58 44.4203 47.28L44.4103 47.29Z" stroke="white" stroke-width="2" stroke-linecap="round" stroke-linejoin="round"/>
<path d="M13.79 23.6099H57.79" stroke="white" stroke-width="2" stroke-linecap="round" stroke-linejoin="round"/>
<path d="M17.8395 20.68C18.0163 20.68 18.1595 20.5368 18.1595 20.36C18.1595 20.1833 18.0163 20.04 17.8395 20.04C17.6628 20.04 17.5195 20.1833 17.5195 20.36C17.5195 20.5368 17.6628 20.68 17.8395 20.68Z" stroke="white" stroke-width="2" stroke-linecap="round" stroke-linejoin="round"/>
<path d="M20.8395 20.68C21.0163 20.68 21.1595 20.5368 21.1595 20.36C21.1595 20.1833 21.0163 20.04 20.8395 20.04C20.6628 20.04 20.5195 20.1833 20.5195 20.36C20.5195 20.5368 20.6628 20.68 20.8395 20.68Z" stroke="white" stroke-width="2" stroke-linecap="round" stroke-linejoin="round"/>
<path d="M23.8395 20.68C24.0163 20.68 24.1595 20.5368 24.1595 20.36C24.1595 20.1833 24.0163 20.04 23.8395 20.04C23.6628 20.04 23.5195 20.1833 23.5195 20.36C23.5195 20.5368 23.6628 20.68 23.8395 20.68Z" stroke="white" stroke-width="2" stroke-linecap="round" stroke-linejoin="round"/>
<path d="M36.7196 31.8802L37.5896 33.6402C37.7096 33.8802 37.9295 34.0402 38.1895 34.0802L40.1296 34.3602C40.7896 34.4602 41.0496 35.2602 40.5696 35.7302L39.1695 37.1002C38.9795 37.2802 38.8895 37.5502 38.9395 37.8102L39.2696 39.7402C39.3796 40.3902 38.6996 40.8902 38.1096 40.5802L36.3796 39.6702C36.1496 39.5502 35.8696 39.5502 35.6296 39.6702L33.8996 40.5802C33.3096 40.8902 32.6296 40.3902 32.7396 39.7402L33.0696 37.8102C33.1096 37.5502 33.0296 37.2802 32.8396 37.1002L31.4396 35.7302C30.9596 35.2702 31.2296 34.4602 31.8796 34.3602L33.8196 34.0802C34.0796 34.0402 34.3095 33.8802 34.4195 33.6402L35.2896 31.8802C35.5796 31.2802 36.4296 31.2802 36.7296 31.8802H36.7196Z" stroke="white" stroke-width="2" stroke-linecap="round" stroke-linejoin="round"/>
<path d="M49.5604 31.8802L50.4304 33.6402C50.5504 33.8802 50.7704 34.0402 51.0304 34.0802L52.9704 34.3602C53.6304 34.4602 53.8904 35.2602 53.4104 35.7302L52.0104 37.1002C51.8204 37.2802 51.7304 37.5502 51.7804 37.8102L52.1104 39.7402C52.2204 40.3902 51.5404 40.8902 50.9504 40.5802L49.2204 39.6702C48.9904 39.5502 48.7104 39.5502 48.4704 39.6702L46.7404 40.5802C46.1504 40.8902 45.4704 40.3902 45.5804 39.7402L45.9104 37.8102C45.9504 37.5502 45.8704 37.2802 45.6804 37.1002L44.2804 35.7302C43.8004 35.2702 44.0704 34.4602 44.7204 34.3602L46.6604 34.0802C46.9204 34.0402 47.1504 33.8802 47.2604 33.6402L48.1304 31.8802C48.4204 31.2802 49.2704 31.2802 49.5704 31.8802H49.5604Z" stroke="white" stroke-width="2" stroke-linecap="round" stroke-linejoin="round"/>
<path d="M23.8797 31.8802L24.7497 33.6402C24.8697 33.8802 25.0897 34.0402 25.3497 34.0802L27.2897 34.3602C27.9497 34.4602 28.2097 35.2602 27.7297 35.7302L26.3297 37.1002C26.1397 37.2802 26.0497 37.5502 26.0997 37.8102L26.4297 39.7402C26.5397 40.3902 25.8597 40.8902 25.2697 40.5802L23.5397 39.6702C23.3097 39.5502 23.0297 39.5502 22.7897 39.6702L21.0597 40.5802C20.4697 40.8902 19.7897 40.3902 19.8997 39.7402L20.2297 37.8102C20.2697 37.5502 20.1897 37.2802 19.9997 37.1002L18.5997 35.7302C18.1197 35.2702 18.3897 34.4602 19.0397 34.3602L20.9797 34.0802C21.2397 34.0402 21.4697 33.8802 21.5797 33.6402L22.4497 31.8802C22.7397 31.2802 23.5897 31.2802 23.8897 31.8802H23.8797Z" stroke="white" stroke-width="2" stroke-linecap="round" stroke-linejoin="round"/>
</g>
<defs>
<clipPath id="clip0_643_97">
<rect width="72" height="72" fill="white"/>
</clipPath>
</defs>
</svg>
