<?xml version="1.0" encoding="UTF-8"?>
<svg id="Layer_1" xmlns="http://www.w3.org/2000/svg" version="1.1" viewBox="0 0 111.6 50">
  <!-- Generator: Adobe Illustrator 29.1.0, SVG Export Plug-In . SVG Version: 2.1.0 Build 142)  -->
  <defs>
    <style>
      .st0 {
        fill: #fff;
      }
    </style>
  </defs>
  <path class="st0" d="M103.7,3.9v7.2c0,.6-.4.8-.9.6,0,0-6.1-2.9-10-2.9-1.5,0-3.2,0-4.6.8-1.2.6-2,1.8-1.8,3.1.1.9.9,1.5,1.6,1.9,1.2.8,2.6,1.2,4,1.6,1.9.5,3.8.9,5.6,1.4,2.8.8,5.6,2.3,7.1,4.9.8,1.4,1.2,2.9,1.3,4.4.2,1.6,0,3.3-.3,4.9-.7,2.7-2.6,4.8-5.1,6-2.9,1.4-6.2,1.7-9.4,1.6-4,0-7.9-.7-11.7-1.8h-.5c-.5-.3-.9-.5-.9-.5v-7.1c0-.6.4-.8.9-.6,0,0,6.2,2.8,10.1,3.1,1.7.1,3.5,0,5.1-.4,1.3-.4,2.6-1.1,2.9-2.5.3-1.3-.1-2.9-1.3-3.7-1-.7-2.3-1-3.4-1.3-2.1-.6-4.3-1-6.5-1.6-2.8-.8-5.6-2.2-7.1-4.8-.8-1.3-1.2-2.9-1.3-4.4-.1-1.6,0-3.2.5-4.7.9-2.8,3.2-4.8,5.8-5.9,3.2-1.3,6.7-1.5,10.1-1.3,3.3.2,6.6.8,9.7,1.9-1.9-.7,0,0,0,0Z"/>
  <path class="st0" d="M26.5,21.9c-.8,0-2.2,0-3.1.1,0,0-4.4.3-5.8,1.2-1.4.9-2.1,2.4-2.1,4.6s.5,2.9,1.4,3.9c1,1,2.3,1.4,3.9,1.4,2.5,0,4.4-.9,5.8-2.8,1.4-1.9,2-4.5,2-7.8s-.7-.6-1.5-.6h-.7ZM38,18.3v19c0,.8-.7,1.5-1.5,1.5h-6.3c-.8,0-1.5-.7-1.5-1.5v-.9c0-.8-.5-1-1-.4,0,0-1.5,1.7-3.3,2.5-1.8.9-3.7,1.3-5.9,1.3-4.1,0-7.3-1.1-9.5-3.2-2.3-2.2-3.4-5.2-3.4-9s1.4-7.3,4.1-9.3c2.7-2,6.9-3,12.6-3h5c.8,0,1.5-.4,1.5-.8s-.1-1.5-.3-2.3c0,0-.2-1.2-1.3-1.9-1.1-.8-2.7-1.2-4.9-1.2s-4.4.3-6.5.8c-2.1.6-4.3,1.5-6.6,2.7v-6.5c0-.8.6-1.8,1.4-2.1,0,0,2.7-1,4.9-1.4,2.1-.4,4.4-.6,6.8-.6,5.8,0,9.9,1.2,12.3,3.6,2.4,2.4,3.5,6.6,3.5,12.7Z"/>
  <path class="st0" d="M77.4,2.5h-15.4c-.7,0-1.6.5-2,1.2,0,0-.5,1.1-.9,2.2,0,1.3,4.8,14,4.8,14l13.9-16.4c.5-.6.3-1-.5-1Z"/>
  <path class="st0" d="M75.6,45.5L54.3,3.7c-.3-.7-1.2-1.2-2-1.2h-15.4c-.7,0-1,.5-.5,1l14.8,17.7-8.4,16.6c-.3.7,0,1.2.7,1.2h2.8c.7,0,1.7-.5,2.2-1l8.4-9.9,14.6,17.5c.5.6,1.5,1,2.2,1h1.1c.7,0,1.1-.5.7-1.2Z"/>
</svg>