<?xml version="1.0" encoding="UTF-8"?>
<svg id="Layer_1" xmlns="http://www.w3.org/2000/svg" version="1.1" viewBox="0 0 109.9 50">
  <!-- Generator: Adobe Illustrator 29.1.0, SVG Export Plug-In . SVG Version: 2.1.0 Build 142)  -->
  <defs>
    <style>
      .st0 {
        fill: #fff;
      }
    </style>
  </defs>
  <path class="st0" d="M30.5,43.9v-9.3c0-.9-.4-1.7-1-1.7s-1,.8-1,1.7v9.3h-2.5v-9.3c0-.9-.4-1.7-1-1.7s-1,.8-1,1.7v9.3h-2.5v-13.1h2.3v.7l.8-.8c.1,0,.2,0,.4,0,.8,0,1.6.3,2.2.9.6-.7,1.3-.9,2.2-.9,2.1,0,3.4,1.4,3.4,4.6v8.6h-2.5ZM37.5,32.8c-.3,0-.7.4-.8.7v8.2c.9-.3,2.1-1.7,2.1-5.6s-.6-3.4-1.3-3.4ZM36.7,43.9v6.1h-2.5v-19.2h2.3v.7l.7-.8c.1,0,.3,0,.3,0,1.9,0,3.6,1.7,3.6,5.9s-3.4,7.1-4.5,7.3h0ZM54.5,43.9c-1.4,0-3.7-.7-3.7-5.1v-5.8h-.8v-2.1h.8v-3.4h2.3v3.4h1.9v2.1h-1.8v6.2c0,2,.6,2.6,1.5,2.6s.4,0,.6,0v2s-.4,0-.8,0h0ZM60.2,36.1c-.4,0-1.6,1.2-1.6,3.6s.5,2.2.9,2.2.6-.4.7-.7v-5.1ZM60.3,43.9v-.8l-.8.9c-.1,0-.3,0-.4,0-1.6,0-3-1.8-3-4.3,0-4,2.9-5.5,4-5.7v-.3c0-.8-.4-1.1-1.1-1.1s-1,0-1.6.2v-2s.7-.2,1.8-.2c1.9,0,3.3.9,3.3,3.8v9.4h-2.3ZM68,44c-1,0-4.3-.7-4.3-6.7s3.3-6.7,4.3-6.7,1.2.1,1.2.1v2c-.3,0-.4,0-.7,0-.8,0-2.2.8-2.2,4.6s1.4,4.6,2.2,4.6.5,0,.8,0v2s-.4.1-1.2.1h0ZM73,32.7c-.6,0-1.1.8-1.1,4s0,.5,0,.6c.7,0,1.7-1.2,1.7-3s-.2-1.6-.7-1.6ZM72.1,39.3c.1,1.9.9,2.7,1.7,2.7s.5,0,.7,0v2c-.3,0-.6.1-.9.1-1.8,0-4.1-1.1-4.1-6.7s2.2-6.6,3.5-6.6,2.9,1,2.9,3.8-2.7,4.7-3.9,4.8h0ZM81.6,43.9v-9.3c0-.9-.4-1.7-1-1.7s-1,.8-1,1.7v9.3h-2.4v-13.1h2.3v.7l.8-.8c.1,0,.2,0,.4,0,2.1,0,3.4,1.4,3.4,4.6v8.6h-2.4ZM89.4,43.9c-1.4,0-3.7-.7-3.7-5.1v-5.8h-.8v-2.1h.8v-3.4h2.3v3.4h1.9v2.1h-1.8v6.2c0,2,.6,2.6,1.5,2.6s.4,0,.6,0v2s-.4,0-.8,0h0ZM94.6,32.7c-.6,0-1.1.8-1.1,4s0,.5,0,.6c.7,0,1.7-1.2,1.7-3s-.2-1.6-.7-1.6h0ZM93.6,39.3c.1,1.9.9,2.7,1.7,2.7s.5,0,.7,0v2c-.3,0-.6.1-.9.1-1.8,0-4.1-1.1-4.1-6.7s2.2-6.6,3.5-6.6,2.9,1,2.9,3.8-2.7,4.7-3.9,4.8h0ZM103.2,33c-1.2,0-2,1-2,2.5v8.4h-2.5v-13.1h2.3v1c.2-.3.8-1,2-1h.4v2.1h-.3ZM46.4,30.8v9.3c0,.9-.4,1.7-1,1.7s-1-.8-1-1.7v-9.3h-2.4v8.6c0,3.1,1.7,4.5,3.7,4.5s3.2-1.9,3.2-4.5v-8.6h-2.5ZM11.6,44c-2,0-5.2-1-5.2-8.2s3.1-8.4,5.6-8.4c1,0,1.4.3,1.4.3v2.1s-.4-.3-1.3-.2c-2,0-2.9,3.5-2.9,6.2,0,5.6,1.9,6,3,6s.6,0,.8-.1v2.1s-.5.2-1.3.2h0ZM17,32.9c-.6,0-1.1.9-1.1,4.5s.6,4.5,1.1,4.5,1.2-.9,1.2-4.5-.6-4.5-1.2-4.5ZM17,44c-1.2,0-3.6-.7-3.6-6.7s2.4-6.7,3.6-6.7,3.6.7,3.6,6.7-2.4,6.7-3.6,6.7"/>
  <path class="st0" d="M51.1,16.4h0c-2.6,0-4.8-2.1-4.8-4.8s2.1-4.8,4.8-4.8h0v-2.1h0c-3.8,0-6.9,3.1-6.9,6.9s3.1,6.9,6.9,6.9h0v-2.1Z"/>
  <path class="st0" d="M51.1,20h0c-4.6,0-8.4-3.8-8.4-8.4s3.8-8.4,8.4-8.4h0V.5h0c-6.2,0-11.1,5-11.1,11.1s5,11.1,11.1,11.1h0v-2.7Z"/>
  <path class="st0" d="M58.8,16.4c2.6,0,4.8-2.1,4.8-4.8s-2.1-4.8-4.8-4.8v-2.1c3.8,0,6.9,3.1,6.9,6.9s-3.1,6.9-6.9,6.9v-2.1Z"/>
  <path class="st0" d="M58.8,20c4.6,0,8.4-3.8,8.4-8.4s-3.8-8.4-8.4-8.4V.5c6.2,0,11.1,5,11.1,11.1s-5,11.1-11.1,11.1v-2.7ZM57.7,3.5c0,1.5-1.2,2.8-2.8,2.8s-2.8-1.2-2.8-2.8,1.2-2.8,2.8-2.8,2.8,1.2,2.8,2.8Z"/>
</svg>