<?xml version="1.0" encoding="UTF-8"?>
<svg id="Layer_1" xmlns="http://www.w3.org/2000/svg" version="1.1" viewBox="0 0 242.4 50">
  <!-- Generator: Adobe Illustrator 29.1.0, SVG Export Plug-In . SVG Version: 2.1.0 Build 142)  -->
  <defs>
    <style>
      .st0 {
        fill: #fff;
        fill-rule: evenodd;
      }
    </style>
  </defs>
  <path class="st0" d="M57,28.9c1.4,0,1.9.2,1.9.6,0,1.3-3.2,2.3-5.4,2.3s-1.6-.1-2.2-.2c1.3-1.7,3.9-2.7,5.7-2.7ZM211.7,28.6c1,0,1.7.1,1.7.6,0,.9-2.4,3.5-8.5,6.3-.1-.1-.1-.4-.1-.5,0-3.4,4-6.4,7-6.4ZM199.9,8.5c.2,0,.5.1.6.2-.1,2.2-1.6,5-3.4,7.7l-7.1.4c2-3.6,6.4-8.3,9.8-8.3ZM119.9,41.3c3.1,0,6.2-.9,8.9-2.5.2,1.7,1,2.1,1.8,2.1s1.7-.8,1.7-2.1-.1-2.1-.2-3.4c-.2-.9-.8-1.4-1.6-1.4s-1,.1-2.2,1.2c-2.1,1.6-5.2,2.8-7.7,2.8s-1-.2-1-.5c0-2.2,4-7,9.8-7s2.2.2,3.6.9c.5.2.9.5,1.3.5.9,0,1.6-.5,1.6-1.6s-.5-1.3-1.2-1.8c-1.4-1.2-3.5-1.7-5.6-1.7-3.2,0-6.2,1.2-8.8,3.4-2.4,2.1-4.5,4.9-4.5,7.7,0,2.3,1.7,3.3,4.2,3.3ZM138.1,43.6c.2,0,1,0,2.1-1.2,1.4-1.8,3.6-4.6,5.9-7.1,3-3,5.8-5.6,6.7-5.6s.2,0,.2.4l.6,3.7c.4,2.1.9,4.2,1.7,5.4.5.8,1,1.2,2.1,1.2s1.7-.6,1.7-1.7-.2-1-.5-1.7c-.9-2.1-1.3-4.6-1.8-7.5-.5-3.1-1.6-3.7-3.2-3.7-2.8,0-8.2,4.5-12.6,10.2l.2-4.8c.1-1.2-.6-1.7-1.4-1.7s-1.6.5-1.7,1.6l-1.4,9c-.1,1.2-.1,1.6-.1,1.8,0,1,.7,1.5,1.5,1.5ZM173.8,38.2c-2.1,1.3-3.9,2.2-5.6,2.2s-2.1-1-2.1-2.7.9-5.3,1.3-6.5c1-3.7,1.8-6.2,3-9.8l14-.8c-1.6,3.7-2.3,7.6-2.3,11v.5c-3.3,2.7-6,4.9-8.3,6.1ZM113.1,38.2c-.9-2.5-1.2-3.7-1.8-7.1-.6-3.5-1.3-5.8-4.5-5.8s-8.4,4.5-13.4,11l-.8-3.1c-.8-3-1.7-5.3-4.9-5.3s-5.8,1.8-10.7,6.8l.9-4.9c.1-.5.1-1.2.1-1.4,0-.8-.5-1.3-1.4-1.3s-1.4.2-2.8,1.3c-5.9,4.6-13.3,9.9-20.6,9.9s-3.6-1-3.6-3,.1-.8.2-1.3c1.3.5,2.5.6,3.6.6,4.8,0,9.2-2.5,9.2-5.8s-2.1-3.7-5.2-3.7c-4.4,0-7.9,2.4-9.6,4.8-2.2-1.2-4-1.6-5.9-1.6-4.8,0-8.4,1.9-12.7,7.1.9-4.8,1-8,1-9.6s-.8-1.8-1.6-1.8-.9.1-1.7.2l-11.5,2.3,4.6-13.8,23.8-1.2c1.4-.1,1.8-.9,1.8-1.8s-.8-1.7-1.8-1.7l-34.1,1.2c-1.7.1-2.5.9-2.5,2.1s.8,1.9,2.5,1.8l5.8-.2-4.4,14.3-3.6.9c-1.4.2-2.1,1-2.1,2.1s.8,1.8,1.8,1.8,1-.1,1.4-.1l1.3-.2-2.7,8.5c-.2,1-.4,1.4-.4,1.8,0,1.3,1,1.6,1.7,1.6s1.4-.2,1.8-1.6l3.9-11.2,12.2-2.9c-.1,3.5-1,9.2-1.7,12.3-.1.9-.2,1.3-.2,1.8,0,.9.6,1.6,1.7,1.6s1.3-.5,1.8-1.2c3.1-4.4,8.5-10.5,14.3-10.5s2.8.4,4.1.9c-.4.9-.5,1.9-.5,2.8,0,4,2.4,6.3,7,6.3s12.2-2.4,21.2-9.6c-.2,1.7-.8,3.9-1.3,6.3-.1.5-.2,1.2-.2,1.4,0,1.2.6,1.7,1.6,1.7s1.4-.4,2.8-1.7c1.3-1.4,2.5-2.7,4.2-4.2,2.8-2.5,4.8-4.2,6.3-4.2s1.4.8,2.2,3.6c1,3.7,1.6,5.3,3.4,5.3s2.2-.6,4.8-3.6c4.4-5.2,7.2-7.9,8.9-7.9s.8.2,1,1.3l1.2,4.8c.2,1.3.8,3,1.3,4,.5,1,1.3,1.6,2.3,1.6s1.7-.8,1.7-1.6c-.7-.1-.8-.3-1.1-1.2ZM172.7,13.6c.3-1,.6-1.7.5-2.4,0-.8-.8-1.3-1.5-1.3s-1.8.2-2.8,3.1l-1.6,4.8-7.6.2c-1.3.1-2.2.6-2.2,1.8s1,1.8,2.4,1.8l6.3-.2c-.8,2.3-2.1,6.5-3,10.2-.5,2.1-1,4.4-1,6.8,0,3.6,1.7,5.8,5.2,5.8s6.8-2.2,10.3-4.6c1.8-1.3,3.7-2.8,5-4,1.4,4.4,5,6.4,9.8,6.4s7.4-1,10.8-2.5c1.8,1.9,5.3,2.4,8.2,2.4,8.4,0,17.7-4.2,24.1-8.8,1.4-.9,1.8-1.6,1.8-2.3,0-1.2-.9-1.6-1.7-1.6s-1,.2-2.2.9c-6.4,4-14.8,7.9-22.3,7.9s-3.1-.1-4-.5c6.2-3,9.6-5.7,9.6-9.2s-2.5-3.6-4.8-3.6c-5.4,0-10.7,4.6-10.7,10.2s0,.8.1,1.3c-2.4.8-5,1.6-8.6,1.6s-7-3.6-7-7.5,1-7.2,2.5-10.5l6.3-.4c-.9,1.3-1.9,2.3-2.7,3.1-1.2,1.3-1.7,1.9-2,2.4-.3.9.3,1.9,1.3,2,1.3,0,2.5-1.4,3.4-2.2,1.4-1.4,3.1-3.4,4.6-5.4l13.5-.8c.9-.1,1.9-.5,1.9-1.8s-.9-1.6-1.7-1.6h-.2l-11.3.4c1.6-2.5,2.5-5.3,2.5-7.6s-1.4-3.6-4-3.6c-6.3,0-11.5,6.3-14.4,12l-14.5.8,1.6-3.5Z"/>
</svg>