<svg height="auto" viewBox="0 0 2000 1400" xmlns="http://www.w3.org/2000/svg"><path d="M0 7c6.8 2.592 20.4 5.08 34 12.962 13.6 7.882 20.4 22.421 34 26.45 13.6 4.028 20.4-15.05 34-6.31 13.6 8.741 20.4 43.825 34 50.012 13.6 6.186 20.4-29.014 34-19.079 13.6 9.935 20.4 52.446 34 68.754 13.6 16.308 20.4 2.964 34 12.784 13.6 9.821 20.4 28.514 34 36.32 13.6 7.804 20.4 2.981 34 2.705 13.6-.277 20.4 2.87 34-4.088 13.6-6.958 20.4-30.156 34-30.7 13.6-.544 20.4 19.282 34 27.98 13.6 8.699 20.4-1.976 34 15.512 13.6 17.487 20.4 61.957 34 71.925 13.6 9.969 20.4-11.5 34-22.083 13.6-10.584 20.4-50.947 34-30.836 13.6 20.111 20.4 91.232 34 131.392 13.6 40.16 20.4 61.143 34 69.406 13.6 8.264 20.4-12.868 34-28.09 13.6-15.222 20.4-46.382 34-48.02 13.6-1.636 20.4 21.477 34 39.835 13.6 18.357 20.4 48.94 34 51.952 13.6 3.012 20.4-45.656 34-36.894 13.6 8.761 20.4 63.816 34 80.702 13.6 16.885 20.4 6.887 34 3.723 13.6-3.163 20.4-52.242 34-19.541 13.6 32.7 20.4 145.737 34 183.045 13.6 37.307 20.4 49.723 34 3.493 13.6-46.23 20.4-238.188 34-234.644 13.6 3.544 20.4 251.3 34 252.363 13.6 1.063 20.4-265.56 34-247.049 13.6 18.512 20.4 284.774 34 339.608 13.6 54.834 20.4-73.143 34-65.437 13.6 7.705 20.4 134.015 34 103.965 13.6-30.05 20.4-266.305 34-254.214 13.6 12.09 20.4 333.587 34 314.667 13.6-18.92 20.4-390.852 34-409.267 13.6-18.414 20.4 234.18 34 317.194 13.6 83.013 20.4 60.162 34 97.875 13.6 37.712 20.4 124.021 34 90.688 13.6-33.334 20.4-197.046 34-257.358 13.6-60.312 20.4-74.439 34-44.203 13.6 30.236 20.4 129.862 34 195.381 13.6 65.52 20.4 94.687 34 132.216 13.6 37.528 20.4 50.351 34 55.427 13.6 5.075 20.4-10.676 34-30.05 13.6-19.375 20.4-41.333 34-66.821 13.6-25.489 20.4-43.212 34-60.623 13.6-17.41 20.4 20.144 34-26.43 13.6-46.573 20.4-186.654 34-206.436 13.6-19.783 20.4 101.43 34 107.523 13.6 6.094 20.4-88.984 34-77.056 13.6 11.928 20.4 14.622 34 136.696 13.6 122.074 20.4 460.312 34 473.672 13.6 13.359 20.4-300.861 34-406.876 13.6-106.014 20.4-132.899 34-123.198 13.6 9.702 20.4 57.887 34 171.703 13.6 113.817 20.4 331.339 34 397.378 13.6 66.04 27.2-53.746 34-67.182L2000 1400H0Z" fill="#00bba71a"/><path d="M0 7c6.8 2.592 20.4 5.08 34 12.962 13.6 7.882 20.4 22.421 34 26.45 13.6 4.028 20.4-15.05 34-6.31 13.6 8.741 20.4 43.825 34 50.012 13.6 6.186 20.4-29.014 34-19.079 13.6 9.935 20.4 52.446 34 68.754 13.6 16.308 20.4 2.964 34 12.784 13.6 9.821 20.4 28.514 34 36.32 13.6 7.804 20.4 2.981 34 2.705 13.6-.277 20.4 2.87 34-4.088 13.6-6.958 20.4-30.156 34-30.7 13.6-.544 20.4 19.282 34 27.98 13.6 8.699 20.4-1.976 34 15.512 13.6 17.487 20.4 61.957 34 71.925 13.6 9.969 20.4-11.5 34-22.083 13.6-10.584 20.4-50.947 34-30.836 13.6 20.111 20.4 91.232 34 131.392 13.6 40.16 20.4 61.143 34 69.406 13.6 8.264 20.4-12.868 34-28.09 13.6-15.222 20.4-46.382 34-48.02 13.6-1.636 20.4 21.477 34 39.835 13.6 18.357 20.4 48.94 34 51.952 13.6 3.012 20.4-45.656 34-36.894 13.6 8.761 20.4 63.816 34 80.702 13.6 16.885 20.4 6.887 34 3.723 13.6-3.163 20.4-52.242 34-19.541 13.6 32.7 20.4 145.737 34 183.045 13.6 37.307 20.4 49.723 34 3.493 13.6-46.23 20.4-238.188 34-234.644 13.6 3.544 20.4 251.3 34 252.363 13.6 1.063 20.4-265.56 34-247.049 13.6 18.512 20.4 284.774 34 339.608 13.6 54.834 20.4-73.143 34-65.437 13.6 7.705 20.4 134.015 34 103.965 13.6-30.05 20.4-266.305 34-254.214 13.6 12.09 20.4 333.587 34 314.667 13.6-18.92 20.4-390.852 34-409.267 13.6-18.414 20.4 234.18 34 317.194 13.6 83.013 20.4 60.162 34 97.875 13.6 37.712 20.4 124.021 34 90.688 13.6-33.334 20.4-197.046 34-257.358 13.6-60.312 20.4-74.439 34-44.203 13.6 30.236 20.4 129.862 34 195.381 13.6 65.52 20.4 94.687 34 132.216 13.6 37.528 20.4 50.351 34 55.427 13.6 5.075 20.4-10.676 34-30.05 13.6-19.375 20.4-41.333 34-66.821 13.6-25.489 20.4-43.212 34-60.623 13.6-17.41 20.4 20.144 34-26.43 13.6-46.573 20.4-186.654 34-206.436 13.6-19.783 20.4 101.43 34 107.523 13.6 6.094 20.4-88.984 34-77.056 13.6 11.928 20.4 14.622 34 136.696 13.6 122.074 20.4 460.312 34 473.672 13.6 13.359 20.4-300.861 34-406.876 13.6-106.014 20.4-132.899 34-123.198 13.6 9.702 20.4 57.887 34 171.703 13.6 113.817 20.4 331.339 34 397.378 13.6 66.04 27.2-53.746 34-67.182" fill="none" stroke="#00bba7" stroke-width="2"/><g fill="#00bba7"><circle cy="7" r="6"/><circle cx="34" cy="19.962" r="6"/><circle cx="68" cy="46.412" r="6"/><circle cx="102" cy="40.103" r="6"/><circle cx="136" cy="90.114" r="6"/><circle cx="170" cy="71.035" r="6"/><circle cx="204" cy="139.789" r="6"/><circle cx="238" cy="152.573" r="6"/><circle cx="272" cy="188.892" r="6"/><circle cx="306" cy="191.598" r="6"/><circle cx="340" cy="187.51" r="6"/><circle cx="374" cy="156.81" r="6"/><circle cx="408" cy="184.79" r="6"/><circle cx="442" cy="200.302" r="6"/><circle cx="476" cy="272.227" r="6"/><circle cx="510" cy="250.144" r="6"/><circle cx="544" cy="219.308" r="6"/><circle cx="578" cy="350.7" r="6"/><circle cx="612" cy="420.106" r="6"/><circle cx="646" cy="392.016" r="6"/><circle cx="680" cy="343.997" r="6"/><circle cx="714" cy="383.831" r="6"/><circle cx="748" cy="435.783" r="6"/><circle cx="782" cy="398.889" r="6"/><circle cx="816" cy="479.591" r="6"/><circle cx="850" cy="483.314" r="6"/><circle cx="884" cy="463.773" r="6"/><circle cx="918" cy="646.818" r="6"/><circle cx="952" cy="650.311" r="6"/><circle cx="986" cy="415.667" r="6"/><circle cx="1020" cy="668.03" r="6"/><circle cx="1054" cy="420.981" r="6"/><circle cx="1088" cy="760.589" r="6"/><circle cx="1122" cy="695.152" r="6"/><circle cx="1156" cy="799.117" r="6"/><circle cx="1190" cy="544.903" r="6"/><circle cx="1224" cy="859.57" r="6"/><circle cx="1258" cy="450.303" r="6"/><circle cx="1292" cy="767.497" r="6"/><circle cx="1326" cy="865.372" r="6"/><circle cx="1360" cy="956.06" r="6"/><circle cx="1394" cy="698.702" r="6"/><circle cx="1428" cy="654.499" r="6"/><circle cx="1462" cy="849.88" r="6"/><circle cx="1496" cy="982.096" r="6"/><circle cx="1530" cy="1037.523" r="6"/><circle cx="1564" cy="1007.473" r="6"/><circle cx="1598" cy="940.652" r="6"/><circle cx="1632" cy="880.029" r="6"/><circle cx="1666" cy="853.6" r="6"/><circle cx="1700" cy="647.163" r="6"/><circle cx="1734" cy="754.686" r="6"/><circle cx="1768" cy="677.63" r="6"/><circle cx="1802" cy="814.326" r="6"/><circle cx="1836" cy="1287.998" r="6"/><circle cx="1870" cy="881.122" r="6"/><circle cx="1904" cy="757.924" r="6"/><circle cx="1938" cy="929.627" r="6"/><circle cx="1972" cy="1327.005" r="6"/><circle cx="2006" cy="1259.823" r="6"/></g></svg>