<svg width="50" height="50" viewBox="0 0 50 50" fill="none" xmlns="http://www.w3.org/2000/svg">
<path d="M25.0001 33.3333V43.75M33.3334 29.1667V43.75M41.6667 20.8333V43.75M45.8334 6.25L27.8209 24.2625C27.7242 24.3595 27.6092 24.4365 27.4826 24.489C27.3561 24.5415 27.2204 24.5685 27.0834 24.5685C26.9464 24.5685 26.8107 24.5415 26.6842 24.489C26.5576 24.4365 26.4427 24.3595 26.3459 24.2625L19.4876 17.4042C19.2922 17.2089 19.0273 17.0992 18.7511 17.0992C18.4749 17.0992 18.21 17.2089 18.0147 17.4042L4.16675 31.25M8.33341 37.5V43.75M16.6667 29.1667V43.75" stroke="#00D5BE" stroke-width="2.08333" stroke-linecap="round" stroke-linejoin="round"/>
</svg>
