<svg width="50" height="50" viewBox="0 0 50 50" fill="none" xmlns="http://www.w3.org/2000/svg">
<path d="M29.1666 4.16666V12.5C29.1666 13.6051 29.6056 14.6649 30.387 15.4463C31.1684 16.2277 32.2282 16.6667 33.3333 16.6667H41.6666M18.7499 31.25L22.9166 35.4167L31.2499 27.0833M31.2499 4.16666H12.4999C11.3948 4.16666 10.335 4.60564 9.55364 5.38704C8.77224 6.16845 8.33325 7.22825 8.33325 8.33332V41.6667C8.33325 42.7717 8.77224 43.8315 9.55364 44.6129C10.335 45.3943 11.3948 45.8333 12.4999 45.8333H37.4999C38.605 45.8333 39.6648 45.3943 40.4462 44.6129C41.2276 43.8315 41.6666 42.7717 41.6666 41.6667V14.5833L31.2499 4.16666Z" stroke="#00D5BE" stroke-width="2.08333" stroke-linecap="round" stroke-linejoin="round"/>
</svg>
