<svg width="50" height="50" viewBox="0 0 50 50" fill="none" xmlns="http://www.w3.org/2000/svg">
<path d="M14.5833 20.8333V14.5833C14.5833 11.8207 15.6808 9.17113 17.6343 7.21763C19.5878 5.26412 22.2373 4.16666 25 4.16666C27.7627 4.16666 30.4122 5.26412 32.3657 7.21763C34.3192 9.17113 35.4167 11.8207 35.4167 14.5833V20.8333M27.0833 33.3333C27.0833 34.4839 26.1506 35.4167 25 35.4167C23.8494 35.4167 22.9167 34.4839 22.9167 33.3333C22.9167 32.1827 23.8494 31.25 25 31.25C26.1506 31.25 27.0833 32.1827 27.0833 33.3333ZM10.4167 20.8333H39.5833C41.8845 20.8333 43.75 22.6988 43.75 25V41.6667C43.75 43.9678 41.8845 45.8333 39.5833 45.8333H10.4167C8.11548 45.8333 6.25 43.9678 6.25 41.6667V25C6.25 22.6988 8.11548 20.8333 10.4167 20.8333Z" stroke="#00D5BE" stroke-width="2.08333" stroke-linecap="round" stroke-linejoin="round"/>
</svg>
