<svg width="50" height="50" viewBox="0 0 50 50" fill="none" xmlns="http://www.w3.org/2000/svg">
<path d="M25.0001 33.3333H25.0209M25.0001 16.6667V25M31.9001 4.16666C33.0051 4.16689 34.0647 4.60603 34.8459 5.38749L44.6126 15.1542C45.394 15.9354 45.8332 16.995 45.8334 18.1V31.9C45.8332 33.005 45.394 34.0646 44.6126 34.8458L34.8459 44.6125C34.0647 45.3939 33.0051 45.8331 31.9001 45.8333H18.1001C16.9951 45.8331 15.9355 45.3939 15.1542 44.6125L5.38758 34.8458C4.60613 34.0646 4.16698 33.005 4.16675 31.9V18.1C4.16698 16.995 4.60613 15.9354 5.38758 15.1542L15.1542 5.38749C15.9355 4.60603 16.9951 4.16689 18.1001 4.16666H31.9001Z" stroke="#00D5BE" stroke-width="2.08333" stroke-linecap="round" stroke-linejoin="round"/>
</svg>
