<svg width="50" height="50" viewBox="0 0 50 50" fill="none" xmlns="http://www.w3.org/2000/svg">
<path d="M24.9999 31.25L18.7499 25M24.9999 31.25C27.91 30.1432 30.7018 28.7473 33.3333 27.0833M24.9999 31.25V41.6667C24.9999 41.6667 31.3124 40.5208 33.3333 37.5C35.5833 34.125 33.3333 27.0833 33.3333 27.0833M18.7499 25C19.8586 22.1238 21.2545 19.3668 22.9166 16.7708C25.344 12.8895 28.7241 9.69384 32.7353 7.48768C36.7465 5.28152 41.2555 4.13826 45.8333 4.16665C45.8333 9.83332 44.2082 19.7917 33.3333 27.0833M18.7499 25H8.33325C8.33325 25 9.47909 18.6875 12.4999 16.6667C15.8749 14.4167 22.9166 16.6667 22.9166 16.6667M9.37492 34.375C6.24992 37 5.20825 44.7917 5.20825 44.7917C5.20825 44.7917 12.9999 43.75 15.6249 40.625C17.1041 38.875 17.0833 36.1875 15.4374 34.5625C14.6276 33.7896 13.5609 33.343 12.4421 33.3084C11.3232 33.2738 10.2309 33.6536 9.37492 34.375Z" stroke="#00D5BE" stroke-width="2.08333" stroke-linecap="round" stroke-linejoin="round"/>
</svg>
