<svg width="50" height="50" viewBox="0 0 50 50" fill="none" xmlns="http://www.w3.org/2000/svg">
<path d="M25.4583 4.16666H24.5417C23.4366 4.16666 22.3768 4.60564 21.5954 5.38704C20.814 6.16845 20.375 7.22825 20.375 8.33332V8.70832C20.3743 9.439 20.1814 10.1566 19.8157 10.7892C19.45 11.4218 18.9245 11.9472 18.2917 12.3125L17.3958 12.8333C16.7624 13.199 16.0439 13.3916 15.3125 13.3916C14.5811 13.3916 13.8626 13.199 13.2292 12.8333L12.9167 12.6667C11.9606 12.1151 10.8247 11.9655 9.75834 12.2506C8.69202 12.5358 7.7824 13.2324 7.22917 14.1875L6.77084 14.9792C6.2193 15.9353 6.06968 17.0712 6.35481 18.1375C6.63995 19.2038 7.33654 20.1134 8.29167 20.6667L8.60417 20.875C9.23391 21.2386 9.75754 21.7606 10.123 22.3892C10.4885 23.0179 10.6831 23.7312 10.6875 24.4583V25.5208C10.6904 26.255 10.4993 26.977 10.1334 27.6135C9.76758 28.2501 9.24002 28.7787 8.60417 29.1458L8.29167 29.3333C7.33654 29.8866 6.63995 30.7962 6.35481 31.8625C6.06968 32.9288 6.2193 34.0647 6.77084 35.0208L7.22917 35.8125C7.7824 36.7676 8.69202 37.4642 9.75834 37.7493C10.8247 38.0345 11.9606 37.8849 12.9167 37.3333L13.2292 37.1667C13.8626 36.801 14.5811 36.6084 15.3125 36.6084C16.0439 36.6084 16.7624 36.801 17.3958 37.1667L18.2917 37.6875C18.9245 38.0528 19.45 38.5781 19.8157 39.2107C20.1814 39.8433 20.3743 40.561 20.375 41.2917V41.6667C20.375 42.7717 20.814 43.8315 21.5954 44.6129C22.3768 45.3943 23.4366 45.8333 24.5417 45.8333H25.4583C26.5634 45.8333 27.6232 45.3943 28.4046 44.6129C29.186 43.8315 29.625 42.7717 29.625 41.6667V41.2917C29.6258 40.561 29.8186 39.8433 30.1843 39.2107C30.55 38.5781 31.0756 38.0528 31.7083 37.6875L32.6042 37.1667C33.2376 36.801 33.9561 36.6084 34.6875 36.6084C35.4189 36.6084 36.1374 36.801 36.7708 37.1667L37.0833 37.3333C38.0394 37.8849 39.1753 38.0345 40.2417 37.7493C41.308 37.4642 42.2176 36.7676 42.7708 35.8125L43.2292 35C43.7807 34.0439 43.9303 32.908 43.6452 31.8417C43.3601 30.7753 42.6635 29.8657 41.7083 29.3125L41.3958 29.1458C40.76 28.7787 40.2324 28.2501 39.8666 27.6135C39.5007 26.977 39.3096 26.255 39.3125 25.5208V24.4792C39.3096 23.7449 39.5007 23.023 39.8666 22.3864C40.2324 21.7499 40.76 21.2213 41.3958 20.8542L41.7083 20.6667C42.6635 20.1134 43.3601 19.2038 43.6452 18.1375C43.9303 17.0712 43.7807 15.9353 43.2292 14.9792L42.7708 14.1875C42.2176 13.2324 41.308 12.5358 40.2417 12.2506C39.1753 11.9655 38.0394 12.1151 37.0833 12.6667L36.7708 12.8333C36.1374 13.199 35.4189 13.3916 34.6875 13.3916C33.9561 13.3916 33.2376 13.199 32.6042 12.8333L31.7083 12.3125C31.0756 11.9472 30.55 11.4218 30.1843 10.7892C29.8186 10.1566 29.6258 9.439 29.625 8.70832V8.33332C29.625 7.22825 29.186 6.16845 28.4046 5.38704C27.6232 4.60564 26.5634 4.16666 25.4583 4.16666Z" stroke="#00D5BE" stroke-width="2.08333" stroke-linecap="round" stroke-linejoin="round"/>
<path d="M25 31.25C28.4518 31.25 31.25 28.4518 31.25 25C31.25 21.5482 28.4518 18.75 25 18.75C21.5482 18.75 18.75 21.5482 18.75 25C18.75 28.4518 21.5482 31.25 25 31.25Z" stroke="#00D5BE" stroke-width="2.08333" stroke-linecap="round" stroke-linejoin="round"/>
</svg>
