<svg fill="none" height="50" viewBox="0 0 50 50" width="50" xmlns="http://www.w3.org/2000/svg"><path d="m18.7499 25 4.1667 4.1667 8.3333-8.3334m10.4167 6.25c0 10.4167-7.2917 15.625-15.9583 18.6459-.4539.1538-.9468.1464-1.3959-.0209-8.6875-3-15.97915-8.2083-15.97915-18.625v-14.5833c0-.5525.2195-1.0824.6102-1.4731s.9206-.6102 1.47315-.6102c4.1667 0 9.375-2.50002 13-5.66669.4413-.37709 1.0028-.58427 1.5833-.58427s1.142.20718 1.5834.58427c3.6458 3.1875 8.8333 5.66669 13 5.66669.5525 0 1.0824.2195 1.4731.6102s.6102.9206.6102 1.4731z" stroke="#00d5be" stroke-linecap="round" stroke-linejoin="round" stroke-width="2.08333"/></svg>