<svg width="50" height="50" viewBox="0 0 50 50" fill="none" xmlns="http://www.w3.org/2000/svg">
<path d="M8.33336 29.1667C7.93912 29.168 7.55259 29.0575 7.21868 28.8479C6.88477 28.6383 6.61718 28.3383 6.447 27.9826C6.27683 27.627 6.21105 27.2304 6.25732 26.8389C6.30358 26.4474 6.45998 26.077 6.70836 25.7708L27.3334 4.52085C27.4881 4.34227 27.6989 4.22159 27.9312 4.17862C28.1636 4.13566 28.4036 4.17296 28.612 4.2844C28.8203 4.39584 28.9846 4.5748 29.0778 4.79191C29.171 5.00901 29.1877 5.25136 29.125 5.47918L25.125 18.0208C25.0071 18.3365 24.9675 18.6761 25.0096 19.0104C25.0517 19.3448 25.1743 19.6639 25.3669 19.9405C25.5594 20.217 25.8162 20.4428 26.1152 20.5983C26.4141 20.7538 26.7464 20.8344 27.0834 20.8333H41.6667C42.0609 20.832 42.4475 20.9425 42.7814 21.1521C43.1153 21.3617 43.3829 21.6618 43.553 22.0174C43.7232 22.373 43.789 22.7696 43.7427 23.1611C43.6965 23.5527 43.5401 23.923 43.2917 24.2292L22.6667 45.4792C22.512 45.6578 22.3012 45.7784 22.0688 45.8214C21.8365 45.8644 21.5964 45.8271 21.3881 45.7156C21.1797 45.6042 21.0155 45.4252 20.9222 45.2081C20.829 44.991 20.8124 44.7487 20.875 44.5208L24.875 31.9792C24.993 31.6635 25.0326 31.3239 24.9905 30.9896C24.9483 30.6552 24.8257 30.3361 24.6332 30.0595C24.4406 29.783 24.1838 29.5573 23.8849 29.4018C23.5859 29.2463 23.2537 29.1656 22.9167 29.1667H8.33336Z" stroke="#00D5BE" stroke-width="2.08333" stroke-linecap="round" stroke-linejoin="round"/>
</svg>
