<?xml version="1.0" encoding="UTF-8"?><svg id="b" xmlns="http://www.w3.org/2000/svg" viewBox="0 0 70 70"><defs><style>.d{stroke-width:0px;}.d,.e{fill:none;}.e{stroke:#000;stroke-linecap:round;stroke-linejoin:round;}</style></defs><g id="c"><path class="e" d="M29.59,56.21h-13.07c-.55,0-1-.45-1-1v-27.05c0-.55.45-1,1-1h13.07"/><line class="e" x1="19.97" y1="32.68" x2="26.8" y2="32.68"/><line class="e" x1="19.97" y1="35.9" x2="26.8" y2="35.9"/><circle class="e" cx="23.4" cy="50.68" r="1.62"/><path class="e" d="M47.93,56.21h13.07c.55,0,1-.45,1-1v-27.05c0-.55-.45-1-1-1h-13.07"/><line class="e" x1="57.55" y1="32.68" x2="50.72" y2="32.68"/><line class="e" x1="57.55" y1="35.9" x2="50.72" y2="35.9"/><circle class="e" cx="54.12" cy="50.68" r="1.62"/><rect class="e" x="29.81" y="23.98" width="18" height="35.41" rx="1" ry="1"/><line class="e" x1="34.34" y1="30.85" x2="42.84" y2="30.85"/><line class="e" x1="34.34" y1="34.85" x2="42.84" y2="34.85"/><circle class="e" cx="38.61" cy="52.51" r="2.02"/><path class="e" d="M45.18,23.97c-.95-2.64-3.41-4.64-6.31-4.64-.73,0-1.43.12-2.08.33-.95-5.15-5.46-9.05-10.89-9.05-4.86,0-8.97,3.13-10.47,7.48-.03,0-.05,0-.08,0-4.06,0-7.35,3.5-7.35,7.56s3.01,6.69,6.82,7.69h0"/><rect class="d" width="70" height="70"/></g></svg>