<?xml version="1.0" encoding="utf-8"?>
<!-- Generator: Adobe Illustrator 27.0.1, SVG Export Plug-In . SVG Version: 6.00 Build 0)  -->
<svg version="1.1" id="Layer_1" xmlns="http://www.w3.org/2000/svg" xmlns:xlink="http://www.w3.org/1999/xlink" x="0px" y="0px"
	 viewBox="0 0 240 100" style="enable-background:new 0 0 240 100;" xml:space="preserve">
<style type="text/css">
	.st0{fill:#000000;}
</style>
<g id="Layer_1-2">
	<path class="st0" d="M88,24.2c-9.5-5.7-21.4-5.6-30.9,0.1c-1.3,0.8-2.1,1.5-2.1,2.4c0,2.5,5.9,5.2,16.4,5.2s18.4-3,18.4-5.8
		C89.8,25.4,89.2,25,88,24.2z M92.5,27.6c0.1,0.2,0.2,0.4,0.2,0.7c0,3.3-10.2,9.2-26.4,9.2c-12,0-14.2-4.4-14.2-7.2
		c0-1.1,0.5-2.2,1.2-3.1c0-0.1,0-0.1,0,0c-1.6,1.3-3,2.7-4.2,4.3c-0.5,0.5-0.8,1.1-1,1.8c0,5.8,14.6,10.1,28.3,10.1
		c14.6,0,21.1-4.8,21.1-8.9c0-1.5-0.6-2.4-2.1-4.1C94.4,29.4,93.4,28.4,92.5,27.6C92.4,27.5,92.4,27.5,92.5,27.6L92.5,27.6z
		 M45.5,37.1c-0.9,2-1.7,4.1-2.2,6.2c-0.1,0.5-0.1,1,0.2,1.5C45.4,48.7,54.7,55,76.4,55c13.2,0,23.5-3.3,25.2-9.2
		c0.3-1.2,0.3-2.6-0.1-3.8c-0.5-1.8-1.2-3.5-2-5.2c0,0-0.1,0-0.1,0C99.7,44.6,78,49.6,67,49.6c-11.9,0-21.8-4.7-21.8-10.7
		C45.3,38.3,45.4,37.8,45.5,37.1C45.5,37.1,45.5,37.1,45.5,37.1L45.5,37.1z M66.6,62C51.2,62,44,54.9,42.7,50c0-0.1-0.1-0.1-0.1,0
		c0,1.7,0.2,3.5,0.5,5.2c0.3,1,0.8,1.9,1.5,2.6c3.7,3.9,13,9.3,29,9.3c21.9,0,26.9-7.3,27.9-9.7c0.8-2.4,1.2-4.9,1.1-7.4
		c0-0.6,0-1.1,0-1.6c0-0.1,0-0.1-0.1,0C101.4,54.2,82.7,62,66.6,62z M74.6,75.2c7.4,0,15.5-2,20.3-6c1.5-1.3,2.8-2.8,3.7-4.5
		c0.7-1.2,1.3-2.4,1.8-3.7c0-0.1,0-0.1-0.1,0C96,67.6,82.9,71.8,69.4,71.8c-9.5,0-19.8-3.1-23.8-8.9c0,0-0.1,0,0,0
		C49.3,70.9,60.6,75.2,74.6,75.2L74.6,75.2z M54.2,73.7c11.3,8.8,27.3,8.3,38.1-1.1c0.1-0.1,0-0.1,0-0.1c-2.4,1.6-9.1,5-19.7,5
		C63.4,77.5,57.6,75.5,54.2,73.7C54.2,73.6,54.2,73.6,54.2,73.7L54.2,73.7z"/>
	<path class="st0" d="M120.9,29.9h2.8l6.2,16.6H127l-1.4-4h-6.8l-1.4,4h-2.8L120.9,29.9z M119.7,40.1h5.2l-2.6-7.5L119.7,40.1z"/>
	<path class="st0" d="M133,32.3h-5.2v-2.5H141v2.5h-5.2v14.1H133V32.3z"/>
	<path class="st0" d="M145.8,46.7c-1.4,0.1-2.7-0.4-3.8-1.2c-0.9-0.8-1.4-2-1.4-3.2c0-1,0.3-1.9,0.9-2.7c0.7-0.9,1.7-1.7,2.8-2.2
		c-0.6-0.6-1.2-1.3-1.6-2.1c-0.3-0.6-0.5-1.2-0.4-1.9c0-1.1,0.4-2.2,1.3-2.9c2-1.4,4.6-1.5,6.6-0.1c0.8,0.7,1.3,1.7,1.2,2.7
		c0,1.6-1.2,3.1-3.7,4.4l3.1,3.3c0.3-0.5,0.7-1,0.9-1.6l1-1.8h2.5l-1.4,2.6c-0.4,0.7-0.8,1.5-1.4,2.3l3.9,4h-3.2l-2.2-2.2
		c-0.6,0.8-1.4,1.4-2.3,1.9C147.7,46.6,146.7,46.8,145.8,46.7z M146.1,44.6c1.3,0,2.6-0.7,3.3-1.8l-3.8-3.9
		c-0.7,0.4-1.3,0.9-1.8,1.5c-0.4,0.5-0.6,1.1-0.6,1.7c0,0.7,0.3,1.3,0.8,1.8C144.6,44.4,145.3,44.6,146.1,44.6z M144.7,33.5
		c0,0.4,0.1,0.8,0.3,1.2c0.4,0.6,0.9,1.2,1.4,1.7c0.7-0.4,1.4-0.9,2-1.5c0.4-0.4,0.6-0.9,0.6-1.4c0-0.5-0.2-1-0.6-1.3
		c-0.4-0.3-0.9-0.5-1.5-0.5c-0.6,0-1.2,0.2-1.6,0.5C144.9,32.5,144.7,33,144.7,33.5L144.7,33.5z"/>
	<path class="st0" d="M159.5,32.3h-5.2v-2.5h13.2v2.5h-5.2v14.1h-2.7L159.5,32.3z"/>
	<path class="st0" d="M116.4,53.5h5.7c1.3-0.1,2.7,0.3,3.8,1.1c0.9,0.8,1.4,2,1.3,3.3c0,1.7-1.1,3.2-2.7,3.8
		c0.9,0.1,1.7,0.6,2.3,1.3c0.6,0.8,0.9,1.7,0.8,2.7c0,0.8-0.2,1.7-0.7,2.4c-0.4,0.7-1,1.2-1.8,1.6c-0.8,0.4-1.7,0.6-2.6,0.5h-6.2
		V53.5z M117.6,54.7v6.5h4.5c1,0.1,2-0.2,2.8-0.9c0.7-0.6,1.1-1.5,1-2.4c0.1-0.9-0.3-1.8-1-2.4c-0.8-0.6-1.8-0.9-2.8-0.8L117.6,54.7
		z M117.6,62.3V69h5c1,0.1,2-0.3,2.8-0.9c0.7-0.6,1.1-1.5,1-2.5c0-2.2-1.4-3.3-4.2-3.3L117.6,62.3z"/>
	<path class="st0" d="M139.3,57.9v12.2h-1l-0.2-1.5c-1.2,1.1-2.8,1.7-4.5,1.8c-1.2,0.1-2.3-0.4-3.1-1.2c-0.7-1.1-1.1-2.3-1-3.6v-7.7
		h1.2v7.5c0,2.6,1.1,3.8,3.2,3.8c1.6-0.1,3-0.7,4.2-1.7v-9.6H139.3z"/>
	<path class="st0" d="M145.1,70.4c-0.8,0-1.5-0.1-2.2-0.3c-0.7-0.2-1.4-0.5-2-0.9l0.4-1c1.1,0.6,2.4,1,3.8,1
		c0.8,0.1,1.7-0.2,2.4-0.6c0.6-0.4,0.9-1,0.8-1.7c0-0.6-0.2-1.1-0.6-1.5c-0.7-0.5-1.5-0.9-2.3-1.1l-0.6-0.2c-1-0.2-1.9-0.6-2.6-1.2
		c-0.5-0.6-0.8-1.3-0.8-2.1c0-0.9,0.4-1.8,1.1-2.3c0.8-0.6,1.8-0.9,2.8-0.9c1.4,0,2.7,0.3,3.9,1l-0.4,1c-1.1-0.6-2.3-0.9-3.5-0.9
		c-0.7,0-1.4,0.2-2,0.6c-0.5,0.4-0.8,0.9-0.8,1.5c0,0.3,0.1,0.7,0.2,1c0.2,0.3,0.5,0.6,0.8,0.8c0.5,0.3,1,0.5,1.5,0.6l0.6,0.2
		c1.1,0.2,2.1,0.7,2.9,1.4c0.6,0.6,0.9,1.3,0.9,2.2c0,1-0.4,1.9-1.2,2.5C147.3,70.1,146.2,70.4,145.1,70.4z"/>
	<path class="st0" d="M151.2,54c0-0.2,0.1-0.5,0.2-0.6c0.4-0.3,0.9-0.3,1.3,0c0.3,0.3,0.3,0.9,0,1.2c-0.4,0.3-0.9,0.3-1.3,0
		C151.3,54.5,151.2,54.2,151.2,54z M151.5,57.9h1.2v12.2h-1.2V57.9z"/>
	<path class="st0" d="M155.5,70.1V57.9h1l0.2,1.5c1.3-1.1,2.9-1.7,4.5-1.8c1.2-0.1,2.3,0.4,3.1,1.2c0.8,1,1.2,2.3,1.1,3.6v7.6h-1.2
		v-7.5c0-2.6-1.1-3.8-3.2-3.8c-1.6,0-3.1,0.7-4.2,1.7v9.6H155.5z"/>
	<path class="st0" d="M173,70.4c-1.1,0-2.2-0.3-3.2-0.8c-0.9-0.5-1.6-1.3-2.1-2.3c-1-2.1-1-4.5,0-6.6c0.4-0.9,1.1-1.7,2-2.2
		c0.8-0.5,1.8-0.8,2.8-0.8c1,0,1.9,0.2,2.7,0.7c0.8,0.5,1.4,1.2,1.8,2c0.4,0.9,0.6,1.9,0.6,2.9c0,0.3,0,0.7,0,1h-9.4
		c0,0.9,0.3,1.8,0.7,2.6c0.4,0.7,1,1.3,1.7,1.7c0.7,0.4,1.5,0.6,2.4,0.6c0.7,0,1.4-0.1,2.1-0.2c0.6-0.2,1.2-0.4,1.8-0.8l0.4,0.9
		c-0.6,0.4-1.3,0.7-2,0.9C174.5,70.3,173.8,70.4,173,70.4z M172.6,58.7c-0.7,0-1.5,0.2-2.1,0.6c-0.6,0.4-1.2,1-1.5,1.7
		c-0.4,0.7-0.6,1.5-0.7,2.4h8.2v-0.2c0-0.8-0.2-1.6-0.5-2.3c-0.3-0.6-0.8-1.2-1.4-1.6C174,58.9,173.3,58.7,172.6,58.7L172.6,58.7z"
		/>
	<path class="st0" d="M183.2,70.4c-0.8,0-1.5-0.1-2.2-0.3c-0.7-0.2-1.4-0.5-2-0.9l0.4-1c1.1,0.6,2.4,1,3.8,1
		c0.8,0.1,1.7-0.2,2.4-0.6c0.6-0.4,0.9-1,0.8-1.7c0-0.6-0.2-1.1-0.6-1.5c-0.7-0.5-1.5-0.9-2.3-1.1l-0.6-0.2c-1-0.2-1.9-0.7-2.6-1.3
		c-0.5-0.6-0.8-1.3-0.8-2.1c0-0.9,0.4-1.8,1.1-2.3c0.8-0.6,1.8-0.9,2.8-0.9c1.4,0,2.7,0.3,3.9,1l-0.4,1c-1.1-0.6-2.3-0.9-3.5-0.9
		c-0.7,0-1.4,0.2-2,0.6c-0.5,0.4-0.8,0.9-0.7,1.5c0,0.4,0.1,0.7,0.2,1c0.2,0.3,0.5,0.6,0.8,0.8c0.5,0.3,1,0.5,1.5,0.6l0.6,0.2
		c1.1,0.2,2.1,0.7,2.9,1.4c0.6,0.6,0.9,1.3,0.9,2.2c0,1-0.4,1.9-1.2,2.5C185.5,70,184.3,70.4,183.2,70.4z"/>
	<path class="st0" d="M193,70.4c-0.8,0-1.5-0.1-2.2-0.3c-0.7-0.2-1.4-0.5-2-0.9l0.4-1c1.1,0.6,2.4,1,3.8,1c0.8,0.1,1.7-0.2,2.4-0.6
		c0.6-0.4,0.9-1,0.8-1.7c0-0.6-0.2-1.1-0.6-1.5c-0.7-0.5-1.5-0.9-2.3-1.1l-0.6-0.2c-1-0.2-1.9-0.7-2.6-1.3c-0.5-0.6-0.8-1.3-0.8-2.1
		c0-0.9,0.4-1.8,1.1-2.3c0.8-0.6,1.8-0.9,2.8-0.9c1.4,0,2.7,0.3,3.9,1l-0.4,1c-1.1-0.6-2.3-0.9-3.5-0.9c-0.7,0-1.4,0.2-2,0.6
		c-0.5,0.4-0.8,0.9-0.7,1.5c0,0.3,0.1,0.7,0.2,1c0.2,0.3,0.5,0.6,0.8,0.8c0.5,0.3,1,0.5,1.5,0.6l0.6,0.2c1.1,0.2,2.1,0.7,2.9,1.4
		c0.6,0.6,0.9,1.3,0.9,2.2c0,1-0.4,1.9-1.2,2.5C195.2,70.1,194.1,70.4,193,70.4z"/>
</g>
</svg>
