<svg width="116" height="114" viewBox="0 0 116 114" fill="none" xmlns="http://www.w3.org/2000/svg">
<path d="M58 112.17C89.4802 112.17 115 87.4261 115 56.9027C115 26.3793 89.4802 1.63525 58 1.63525C26.5198 1.63525 1 26.3793 1 56.9027C1 87.4261 26.5198 112.17 58 112.17Z" stroke="#ffffff" stroke-width="2" stroke-linecap="round" stroke-linejoin="round"/>
<path d="M58.001 98.1741C81.5092 98.1741 100.566 79.6962 100.566 56.9025C100.566 34.1088 81.5092 15.6309 58.001 15.6309C34.4927 15.6309 15.4355 34.1088 15.4355 56.9025C15.4355 79.6962 34.4927 98.1741 58.001 98.1741Z" stroke="#ffffff" stroke-width="2" stroke-linecap="round" stroke-linejoin="round"/>
<path d="M58.0022 63.4441C61.7281 63.4441 64.7485 60.5155 64.7485 56.9028C64.7485 53.2902 61.7281 50.3616 58.0022 50.3616C54.2763 50.3616 51.2559 53.2902 51.2559 56.9028C51.2559 60.5155 54.2763 63.4441 58.0022 63.4441Z" stroke="#ffffff" stroke-width="2" stroke-linecap="round" stroke-linejoin="round"/>
<path d="M57.1367 50.1886V27.973" stroke="#ffffff" stroke-width="2" stroke-linecap="round" stroke-linejoin="round"/>
<path d="M63.1914 61.0497L78.1351 71.5897" stroke="#ffffff" stroke-width="2" stroke-linecap="round" stroke-linejoin="round"/>
</svg>
