<svg width="78" height="135" viewBox="0 0 78 135" fill="none" xmlns="http://www.w3.org/2000/svg">
<path d="M54.7705 64.7691L75.0001 46.7677C76.1969 45.6921 76.8975 44.192 76.8975 42.607V1H1V42.607C1 44.192 1.70059 45.7204 2.89744 46.7677L23.1562 64.7691" stroke="#ffffff" stroke-width="2" stroke-linecap="round" stroke-linejoin="round"/>
<path d="M38.9487 133.944C59.617 133.944 76.372 117.699 76.372 97.6586C76.372 77.6185 59.617 61.3728 38.9487 61.3728C18.2804 61.3728 1.52539 77.6185 1.52539 97.6586C1.52539 117.699 18.2804 133.944 38.9487 133.944Z" stroke="#ffffff" stroke-width="2" stroke-linecap="round" stroke-linejoin="round"/>
<path d="M41.6344 82.544L44.8746 88.9124C45.3125 89.7615 46.159 90.3559 47.1224 90.4974L54.3618 91.5164C56.8139 91.856 57.8064 94.7997 56.0257 96.4696L50.8005 101.423C50.0999 102.102 49.7788 103.064 49.9539 103.998L51.18 110.99C51.5886 113.367 49.0198 115.179 46.8305 114.046L40.35 110.735C39.4742 110.282 38.4233 110.282 37.5768 110.735L31.0963 114.046C28.907 115.179 26.3381 113.367 26.7468 110.99L27.9728 103.998C28.148 103.064 27.8269 102.102 27.1263 101.423L21.901 96.4696C20.1204 94.7997 21.1129 91.856 23.5649 91.5164L30.8044 90.4974C31.7677 90.3559 32.6143 89.7615 33.0521 88.9124L36.2924 82.544C37.4016 80.3929 40.5543 80.3929 41.6636 82.544H41.6344Z" stroke="#ffffff" stroke-width="2" stroke-linecap="round" stroke-linejoin="round"/>
<path d="M21.0859 1V66.0994" stroke="#ffffff" stroke-width="2" stroke-linecap="round" stroke-linejoin="round"/>
<path d="M56.1152 1V66.0994" stroke="#ffffff" stroke-width="2" stroke-linecap="round" stroke-linejoin="round"/>
</svg>
