<svg width="157" height="116" viewBox="0 0 157 116" fill="none" xmlns="http://www.w3.org/2000/svg">
<path d="M120.981 70.9922L128.211 77.973C131.096 80.7589 131.096 85.242 128.211 87.9959C125.325 90.7818 120.682 90.7818 117.83 87.9959L112.789 83.1285" stroke="#ffffff" stroke-width="2" stroke-linecap="round" stroke-linejoin="round"/>
<path d="M110.568 81.0148L122.176 92.2226C125.061 95.0085 125.061 99.4916 122.176 102.245C119.29 105.031 114.647 105.031 111.795 102.245L100.188 91.0377" stroke="#ffffff" stroke-width="2" stroke-linecap="round" stroke-linejoin="round"/>
<path d="M97.2672 88.2519L109.604 100.164C112.49 102.95 112.49 107.433 109.604 110.187C106.719 112.973 102.076 112.973 99.224 110.187L86.8867 98.2748" stroke="#ffffff" stroke-width="2" stroke-linecap="round" stroke-linejoin="round"/>
<path d="M83.9698 95.4568L90.9012 102.149C93.7865 104.935 93.6538 109.547 90.6358 112.461C87.6179 115.375 82.8422 115.503 79.9568 112.717L74.75 107.689" stroke="#ffffff" stroke-width="2" stroke-linecap="round" stroke-linejoin="round"/>
<path d="M84.832 36.0879L120.981 70.9919" stroke="#ffffff" stroke-width="2" stroke-linecap="round" stroke-linejoin="round"/>
<path d="M32.2981 66.733L1.42188 36.9205L33.9232 5.9552L48.7478 20.2691C48.7478 20.2691 64.103 16.4264 79.3919 20.7494" stroke="#ffffff" stroke-width="2" stroke-linecap="round" stroke-linejoin="round"/>
<path d="M61.1473 110.463L61.546 110.848C64.3047 113.511 68.7774 113.511 71.5361 110.848L78.0085 104.598C80.7672 101.934 80.7672 97.6158 78.0085 94.9521L77.6098 94.5672C74.8512 91.9035 70.3784 91.9035 67.6198 94.5672L61.1473 100.817C58.3886 103.48 58.3886 107.799 61.1473 110.463Z" stroke="#ffffff" stroke-width="2" stroke-linecap="round" stroke-linejoin="round"/>
<path d="M49.0457 100.37L49.4444 100.755C52.2031 103.419 56.6758 103.419 59.4345 100.755L68.6976 91.8114C71.4563 89.1478 71.4563 84.8291 68.6976 82.1655L68.2989 81.7806C65.5403 79.1169 61.0675 79.1169 58.3089 81.7806L49.0457 90.7246C46.2871 93.3882 46.2871 97.7068 49.0457 100.37Z" stroke="#ffffff" stroke-width="2" stroke-linecap="round" stroke-linejoin="round"/>
<path d="M28.2528 80.2833L28.6514 80.6683C31.4101 83.3319 35.8828 83.3319 38.6415 80.6682L47.9046 71.7243C50.6633 69.0606 50.6633 64.742 47.9046 62.0783L47.506 61.6934C44.7473 59.0298 40.2746 59.0298 37.5159 61.6934L28.2528 70.6374C25.4941 73.301 25.4941 77.6197 28.2528 80.2833Z" stroke="#ffffff" stroke-width="2" stroke-linecap="round" stroke-linejoin="round"/>
<path d="M36.7645 92.1836L37.1632 92.5686C39.9218 95.2322 44.3946 95.2322 47.1533 92.5686L60.2389 79.9338C62.9976 77.2701 62.9976 72.9515 60.2389 70.2879L59.8402 69.9029C57.0815 67.2393 52.6088 67.2393 49.8501 69.9029L36.7645 82.5377C34.0058 85.2014 34.0058 89.52 36.7645 92.1836Z" stroke="#ffffff" stroke-width="2" stroke-linecap="round" stroke-linejoin="round"/>
<path d="M118.787 66.7652L155.998 30.8364L125.354 1.24805L98.9219 27.4741C98.9219 27.4741 81.3115 15.754 71.4616 23.1511C66.6859 26.7376 61.877 29.7157 58.2289 31.8291C54.5808 33.9426 53.1879 38.3296 54.9456 42.0762C56.9355 46.3031 62.1755 48.0323 66.4206 45.8868L83.7325 37.1448" stroke="#ffffff" stroke-width="2" stroke-linecap="round" stroke-linejoin="round"/>
</svg>
