<svg xmlns="http://www.w3.org/2000/svg" viewBox="0 0 60 16.26"><defs><style>.cls-1{fill:#0060c3;}.cls-2{fill:#ffc83f;}</style></defs><g id="Layer_2" data-name="Layer 2"><g id="Layer_5" data-name="Layer 5"><polygon class="cls-1" points="4.85 16.1 0 16.1 1.55 9.39 3.29 9.39 2.04 14.8 5.15 14.8 4.85 16.1"/><path class="cls-1" d="M10.18,15.6a3.25,3.25,0,0,1-1,.48,4.53,4.53,0,0,1-1.26.16,6.43,6.43,0,0,1-1.46-.15,4.55,4.55,0,0,1-1-.36l.32-1.46h.17a4,4,0,0,0,.92.47,3.29,3.29,0,0,0,1,.17A2,2,0,0,0,9,14.65a.86.86,0,0,0,.41-.78.59.59,0,0,0-.08-.34A.48.48,0,0,0,9,13.32a1.31,1.31,0,0,0-.48-.11,6.32,6.32,0,0,0-.65,0H7.53L7.79,12h.38a3,3,0,0,0,1.29-.2.65.65,0,0,0,.37-.61.49.49,0,0,0-.31-.47,1.81,1.81,0,0,0-.85-.16,3.61,3.61,0,0,0-1,.15,5.51,5.51,0,0,0-.92.35H6.6L6.91,9.6a7,7,0,0,1,1-.24,5.93,5.93,0,0,1,1.17-.11,5.34,5.34,0,0,1,1,.09,2.75,2.75,0,0,1,.78.26,1.36,1.36,0,0,1,.53.47,1.23,1.23,0,0,1,.19.71,1.83,1.83,0,0,1-.14.73,1.58,1.58,0,0,1-.39.52,2.1,2.1,0,0,1-.52.33,3,3,0,0,1-.58.19l0,.07a1.53,1.53,0,0,1,.83.39,1.07,1.07,0,0,1,.33.81,2,2,0,0,1-.26,1,2.18,2.18,0,0,1-.68.77"/><polygon points="17.73 16.1 16.25 16.1 14.28 11.46 13.21 16.1 11.61 16.1 13.16 9.39 15.1 9.39 16.79 13.28 17.68 9.39 19.28 9.39 17.73 16.1"/><path d="M21.65,16.24a3.09,3.09,0,0,1-2-.57,1.93,1.93,0,0,1-.71-1.58,3.46,3.46,0,0,1,.23-1.27,3.07,3.07,0,0,1,.67-1,3,3,0,0,1,1-.67,3.59,3.59,0,0,1,1.37-.25,2.66,2.66,0,0,1,1.71.46,1.64,1.64,0,0,1,.57,1.35,2.91,2.91,0,0,1-.06.6,4.31,4.31,0,0,1-.16.59H20.53V14a1,1,0,0,0,.37.83A1.87,1.87,0,0,0,22,15.1a2.87,2.87,0,0,0,1-.18,4.58,4.58,0,0,0,.83-.4h.18l-.3,1.3a4.86,4.86,0,0,1-1,.32,5.66,5.66,0,0,1-1.11.1m1.24-3.32c0-.05,0-.1,0-.14v-.15a.66.66,0,0,0-.22-.54.92.92,0,0,0-.64-.19,1.32,1.32,0,0,0-.84.27,1.66,1.66,0,0,0-.52.75Z"/><path d="M26.5,16.2a2.06,2.06,0,0,1-1.21-.27,1,1,0,0,1-.36-.83,2.64,2.64,0,0,1,0-.28c0-.09,0-.19.06-.31l.56-2.4h-.68L25.14,11h.67l.34-1.45h1.62L27.44,11H29l-.24,1.07H27.2l-.43,1.82c0,.13-.06.26-.08.39a1.33,1.33,0,0,0,0,.32.44.44,0,0,0,.15.38.8.8,0,0,0,.46.11,1.56,1.56,0,0,0,.33-.05,1.4,1.4,0,0,0,.33-.11h.14l-.26,1.09a4.65,4.65,0,0,1-.58.1,5,5,0,0,1-.72,0"/><polygon points="37.64 11.04 34.99 16.1 33.27 16.1 32.93 12.68 31.22 16.1 29.48 16.1 29 11.04 30.66 11.04 30.81 14.53 32.6 11.04 34.05 11.04 34.36 14.53 35.92 11.04 37.64 11.04"/><path d="M42.72,12.89a3.71,3.71,0,0,1-.24,1.34A3.08,3.08,0,0,1,40.77,16a3.55,3.55,0,0,1-1.39.25,2.52,2.52,0,0,1-1.74-.54,1.91,1.91,0,0,1-.6-1.5,3.63,3.63,0,0,1,.22-1.28A3,3,0,0,1,39,11.15a3.5,3.5,0,0,1,1.4-.27,2.52,2.52,0,0,1,1.74.54,1.85,1.85,0,0,1,.6,1.47m-2.11,1.66a2.72,2.72,0,0,0,.32-.69A3.42,3.42,0,0,0,41,13a1.11,1.11,0,0,0-.2-.71.78.78,0,0,0-.65-.25,1.08,1.08,0,0,0-.6.16,1.63,1.63,0,0,0-.46.48,2.38,2.38,0,0,0-.29.7,3.55,3.55,0,0,0-.1.86,1,1,0,0,0,.23.74.85.85,0,0,0,.63.23,1.16,1.16,0,0,0,.56-.16,1.41,1.41,0,0,0,.46-.45"/><path d="M47.15,12.59H47a1.06,1.06,0,0,0-.31-.06l-.39,0a4.21,4.21,0,0,0-.62.05,3.61,3.61,0,0,0-.61.15l-.79,3.39H42.66L43.83,11h1.64l-.17.74a6.3,6.3,0,0,1,.91-.55,2.2,2.2,0,0,1,.92-.21h.38Z"/><polygon points="52.31 16.1 50.6 16.1 49.6 13.87 48.89 14.5 48.52 16.1 46.88 16.1 48.5 9.09 50.13 9.09 49.17 13.28 51.44 11.04 53.31 11.04 50.96 13.24 52.31 16.1"/><path d="M54.48,16.24a6.41,6.41,0,0,1-1.26-.12,3.81,3.81,0,0,1-.94-.28l.32-1.34h.14l.25.19a3,3,0,0,0,.44.22,3.23,3.23,0,0,0,.55.18,3,3,0,0,0,.68.07,1.91,1.91,0,0,0,.82-.13.38.38,0,0,0,.28-.36.29.29,0,0,0-.2-.27,5.58,5.58,0,0,0-.8-.24,3.4,3.4,0,0,1-1.42-.57,1.11,1.11,0,0,1-.38-.85,1.54,1.54,0,0,1,.77-1.35,3.78,3.78,0,0,1,2.07-.49,6.29,6.29,0,0,1,1.14.11,3.64,3.64,0,0,1,.83.25l-.3,1.28h-.14a2.95,2.95,0,0,0-1.7-.56,1.87,1.87,0,0,0-.8.13.4.4,0,0,0-.28.38.33.33,0,0,0,.24.3,3.84,3.84,0,0,0,.76.22,3.86,3.86,0,0,1,1.38.52,1.05,1.05,0,0,1,.42.89,1.5,1.5,0,0,1-.78,1.33,3.83,3.83,0,0,1-2.09.49"/><path class="cls-2" d="M36.24,2.44A55,55,0,0,0,24.55,7.15a18.77,18.77,0,0,0-4.64,3.48,34.84,34.84,0,0,1,7.44-4.1l1-.41c1-.39,2-.77,3.05-1.12s2-.66,3.06-1l.05,0,1.84-.5c.81-.2,1.61-.4,2.4-.57,1-.23,2.07-.43,3.07-.6,7.94-1.35,14.42-.88,16,1.43A1.76,1.76,0,0,1,58,4a2.15,2.15,0,0,1,.07,1.81A5.35,5.35,0,0,1,57,7.53c2.44-1.87,3.54-3.69,2.78-5.12,0-.08-.09-.15-.14-.23-2.07-3-12.37-2.91-23.38.26"/><path class="cls-2" d="M39.72,3.36a38.33,38.33,0,0,0-8.49,2.85,12,12,0,0,0-3.31,2.25,23.13,23.13,0,0,1,5.36-2.58L34,5.63q1-.34,2.22-.66c.72-.2,1.46-.39,2.23-.56h0c.45-.1.9-.2,1.35-.28s1.17-.22,1.75-.31c.77-.12,1.52-.22,2.26-.3,5.83-.65,10.66-.07,11.94,1.6l.12.17a1.48,1.48,0,0,1,.12,1.27,3.32,3.32,0,0,1-.75,1.15C57,6.49,57.79,5.26,57.17,4.24a.91.91,0,0,0-.11-.16c-1.65-2.17-9.29-2.5-17.34-.72"/><path class="cls-2" d="M41.86,4.47a27.59,27.59,0,0,0-6.39,1.78A8.17,8.17,0,0,0,33,7.77a16.54,16.54,0,0,1,4-1.69l.55-.16c.53-.14,1.09-.28,1.67-.41l1.69-.32h0L42,5l1.33-.17c.58-.06,1.16-.11,1.72-.14,4.44-.27,8.15.31,9.18,1.57l.1.12a1.07,1.07,0,0,1,.13.93,2,2,0,0,1-.53.81c1.29-.82,1.82-1.69,1.32-2.45a.64.64,0,0,0-.1-.13C53.8,3.94,48,3.45,41.86,4.47"/></g></g></svg>