<?xml version="1.0" encoding="UTF-8"?><svg id="Layer_2" xmlns="http://www.w3.org/2000/svg" viewBox="0 0 72 72"><defs><style>.cls-1{stroke:#60a5fa;}.cls-1,.cls-2{fill:none;stroke-linecap:round;stroke-linejoin:round;stroke-width:2px;}.cls-2{stroke:#000;}</style></defs><g id="Layer_1-2"><g><g><g><rect class="cls-2" x="44.38" y="22.21" width="14.2" height="12.87" rx="1" ry="1"/><path class="cls-2" d="M50.93,12.81h1.09c2.29,0,4.15,1.86,4.15,4.15v5.25h-9.4v-5.25c0-2.29,1.86-4.15,4.15-4.15Z"/></g><g><path class="cls-2" d="M54.6,35.4v15.47c0,.54-.44,.98-.98,.98H14.4c-.54,0-.98-.44-.98-.98V27.56"/><path class="cls-2" d="M13.42,27.56v-2.72c0-.54,.44-.98,.98-.98h29.98"/><line class="cls-2" x1="14.17" y1="30.44" x2="44.17" y2="30.44"/><line class="cls-2" x1="14.17" y1="35.44" x2="53.17" y2="35.44"/><line class="cls-2" x1="18.17" y1="47.44" x2="31.17" y2="47.44"/><line class="cls-2" x1="18.17" y1="41.44" x2="27.17" y2="41.44"/><g><circle class="cls-2" cx="39.36" cy="43.76" r="4.13"/><path class="cls-2" d="M41.88,40.5c.7-.54,1.58-.86,2.53-.86,2.28,0,4.13,1.85,4.13,4.13s-1.85,4.13-4.13,4.13c-.95,0-1.83-.32-2.53-.87"/></g></g></g><circle class="cls-1" cx="36" cy="36" r="35"/><circle cx="51.48" cy="27.48" r="1.69"/><rect x="50.67" y="27.08" width="1.62" height="4.59"/></g></g></svg>