<?xml version="1.0" encoding="UTF-8"?><svg id="Layer_2" xmlns="http://www.w3.org/2000/svg" viewBox="0 0 72 72"><defs><style>.cls-1{stroke:#7a221b;}.cls-1,.cls-2{fill:none;stroke-linecap:round;stroke-linejoin:round;stroke-width:2px;}.cls-2{stroke:#000;}</style></defs><g id="Layer_1-2"><g><circle class="cls-1" cx="36" cy="36" r="35"/><g><polyline class="cls-2" points="35.06 49.31 48.06 49.31 48.06 37.31"/><g><rect class="cls-2" x="14.81" y="36.38" width="14.63" height="9.32"/><polygon class="cls-2" points="29.43 48.48 14.81 48.48 11.81 53.71 32.43 53.71 29.43 48.48"/></g><path class="cls-2" d="M55.85,23.91c-.47,0-.92,.08-1.35,.22-.62-3.32-3.52-5.84-7.03-5.84-3.13,0-5.79,2.02-6.76,4.83-.02,0-.03,0-.05,0-2.62,0-4.74,2.2-4.74,4.81s1.94,4.38,4.4,4.9h15.52c2.4,0,4.34-2.06,4.34-4.46s-1.94-4.46-4.34-4.46Z"/></g></g></g></svg>