<?xml version="1.0" encoding="UTF-8"?><svg id="Layer_2" xmlns="http://www.w3.org/2000/svg" viewBox="0 0 72 72"><defs><style>.cls-1{stroke:#facc15;}.cls-1,.cls-2{fill:none;stroke-linecap:round;stroke-linejoin:round;stroke-width:2px;}.cls-2{stroke:#000;}</style></defs><g id="Layer_1-2"><g><circle class="cls-1" cx="36" cy="36" r="35"/><g><g><ellipse class="cls-2" cx="35.06" cy="22.4" rx="18.5" ry="6.11"/><path class="cls-2" d="M53.56,31.25c0,3.38-8.28,6.11-18.5,6.11s-18.5-2.74-18.5-6.11"/><path class="cls-2" d="M44.06,45.45c-2.66,.49-5.73,.77-9,.77-10.22,0-18.5-2.74-18.5-6.11"/><path class="cls-2" d="M46.49,53.86c-3.15,.77-7.11,1.22-11.42,1.22-10.22,0-18.5-2.74-18.5-6.11V22.84"/><line class="cls-2" x1="53.56" y1="22.84" x2="53.56" y2="39.84"/></g><g><path class="cls-2" d="M59.44,47.84c0,4.35-3.53,7.88-7.88,7.88-1.93,0-3.71-.7-5.08-1.86-1.71-1.44-2.8-3.61-2.8-6.02,0-4.35,3.53-7.88,7.88-7.88s7.88,3.53,7.88,7.88Z"/><polyline class="cls-2" points="54.12 46.29 50.44 49.97 48.05 47.37"/></g></g></g></g></svg>