<?xml version="1.0" encoding="UTF-8"?><svg id="Layer_2" xmlns="http://www.w3.org/2000/svg" viewBox="0 0 72 72"><defs><style>.cls-1{stroke:#facc15;}.cls-1,.cls-2{fill:none;stroke-linecap:round;stroke-linejoin:round;stroke-width:2px;}.cls-2{stroke:#000;}</style></defs><g id="Layer_1-2"><g><circle class="cls-1" cx="36" cy="36" r="35"/><g><path class="cls-2" d="M49.61,29.86c0-3.71-3.01-7-6.72-7-.73,0-1.43,.12-2.08,.33-.95-5.15-5.46-9.05-10.89-9.05-4.86,0-8.97,3.13-10.47,7.48-.03,0-.05,0-.08,0-4.06,0-7.35,3.5-7.35,7.56s3.01,6.69,6.82,7.69h0"/><g><rect class="cls-2" x="19.99" y="41.86" width="38" height="12"/><circle class="cls-2" cx="27.1" cy="47.74" r="1.95"/><circle class="cls-2" cx="35.31" cy="47.74" r="1.95"/><rect class="cls-2" x="19.99" y="29.86" width="38" height="12"/><circle class="cls-2" cx="27.1" cy="36.02" r="1.95"/><circle class="cls-2" cx="35.31" cy="36.02" r="1.95"/></g></g></g></g></svg>