<?xml version="1.0" encoding="UTF-8"?><svg id="Layer_2" xmlns="http://www.w3.org/2000/svg" viewBox="0 0 72 72"><defs><style>.cls-1{stroke:#9ca3af;}.cls-1,.cls-2{fill:none;stroke-linecap:round;stroke-linejoin:round;stroke-width:2px;}.cls-2{stroke:#000;}</style></defs><g id="Layer_1-2"><g><circle class="cls-1" cx="36" cy="36" r="35"/><g><path class="cls-2" d="M54.28,31.1c-2.04-10.1-11.88-16.64-21.98-14.6-10.1,2.04-16.64,14.31-14.6,24.41"/><g><path class="cls-2" d="M54.66,37.6c.03-1.34-.09-5.13-.37-6.49"/><path class="cls-2" d="M17.72,40.91c.05,.27,.11,.53,.18,.8"/></g><path class="cls-2" d="M31.18,55.25c4.18-4.76,6.17-13.77,4.82-20.46"/><path class="cls-2" d="M36.59,55.87c3.78-5.52,5.41-14.93,3.98-22h0c-.51-2.53-2.98-4.17-5.51-3.66-2.53,.51-4.17,2.98-3.66,5.51h.01c1.16,5.76-.86,13.86-4.87,17.6"/><path class="cls-2" d="M42.69,54.64c2.81-5.77,3.82-14.91,2.46-21.69h0c-1.02-5.06-5.94-8.33-11-7.31-5.05,1.02-8.33,5.94-7.31,11h.01c.88,4.39-.82,11.12-4.06,13.77"/><path class="cls-2" d="M49.24,50.36c1.34-5.04,1.58-12.88,.48-18.34h0c-1.53-7.58-8.91-12.48-16.49-10.95-7.58,1.53-12.48,11.34-10.95,18.92h0c.52,2.59-.46,5.14-2.35,6.74"/></g></g></g></svg>