<?xml version="1.0" encoding="UTF-8"?><svg id="Layer_2" xmlns="http://www.w3.org/2000/svg" viewBox="0 0 72 72"><defs><style>.cls-1{stroke:#facc15;}.cls-1,.cls-2{fill:none;stroke-linecap:round;stroke-linejoin:round;stroke-width:2px;}.cls-2{stroke:#000;}</style></defs><g id="Layer_1-2"><g><circle class="cls-1" cx="36" cy="36" r="35"/><g><g><path class="cls-2" d="M60.94,50.07c0,4.35-3.53,7.88-7.88,7.88-1.93,0-3.71-.7-5.08-1.86-1.71-1.44-2.8-3.61-2.8-6.02,0-4.35,3.53-7.88,7.88-7.88s7.88,3.53,7.88,7.88Z"/><polyline class="cls-2" points="55.62 48.51 51.94 52.19 49.55 49.59"/></g><g><g><polyline class="cls-2" points="45.49 52.06 15.06 52.06 15.06 42.06 53.59 42.06"/><line class="cls-2" x1="19.06" y1="47.07" x2="24.06" y2="47.07"/><line class="cls-2" x1="27.06" y1="47.07" x2="32.06" y2="47.07"/></g><g><rect class="cls-2" x="15.06" y="28.06" width="38.53" height="10"/><line class="cls-2" x1="19.06" y1="33.07" x2="24.06" y2="33.07"/><line class="cls-2" x1="27.06" y1="33.07" x2="32.06" y2="33.07"/><line class="cls-2" x1="47.06" y1="33.07" x2="49.06" y2="33.07"/></g><g><rect class="cls-2" x="15.06" y="14.06" width="38.53" height="10"/><line class="cls-2" x1="19.06" y1="19.07" x2="24.06" y2="19.07"/><line class="cls-2" x1="27.06" y1="19.07" x2="32.06" y2="19.07"/><line class="cls-2" x1="47.06" y1="19.07" x2="49.06" y2="19.07"/></g></g></g></g></g></svg>