<?xml version="1.0" encoding="UTF-8"?><svg id="Layer_2" xmlns="http://www.w3.org/2000/svg" viewBox="0 0 72 72"><defs><style>.cls-1{stroke:#7a221b;}.cls-1,.cls-2{fill:none;stroke-linecap:round;stroke-linejoin:round;stroke-width:2px;}.cls-2{stroke:#000;}</style></defs><g id="Layer_1-2"><g><circle class="cls-1" cx="36" cy="36" r="35"/><g><g><circle class="cls-2" cx="36.11" cy="37.06" r="14.63"/><ellipse class="cls-2" cx="36.11" cy="37.06" rx="7.97" ry="14.63"/><line class="cls-2" x1="49.89" y1="32.48" x2="22.81" y2="32.48"/><line class="cls-2" x1="49.23" y1="42.39" x2="22.81" y2="42.39"/><line class="cls-2" x1="36.02" y1="22.57" x2="36.02" y2="51.64"/></g><g><line class="cls-2" x1="36.11" y1="22.43" x2="36.11" y2="17.19"/><line class="cls-2" x1="24.68" y1="27.94" x2="20.76" y2="24.59"/><line class="cls-2" x1="21.85" y1="40.31" x2="16.97" y2="41.2"/><line class="cls-2" x1="29.77" y1="50.24" x2="27.59" y2="54.53"/><line class="cls-2" x1="42.46" y1="50.24" x2="44.64" y2="54.53"/><line class="cls-2" x1="50.38" y1="40.31" x2="55.26" y2="41.2"/><line class="cls-2" x1="47.55" y1="27.94" x2="51.47" y2="24.59"/></g><circle class="cls-2" cx="36.11" cy="13.46" r="3.58"/><circle class="cls-2" cx="17.56" cy="22.31" r="3.58"/><circle class="cls-2" cx="12.9" cy="42.33" r="3.58"/><circle class="cls-2" cx="25.66" cy="58.46" r="3.58"/><circle class="cls-2" cx="46.22" cy="58.54" r="3.58"/><circle class="cls-2" cx="59.1" cy="42.52" r="3.58"/><circle class="cls-2" cx="54.6" cy="22.45" r="3.58"/></g></g></g></svg>