<svg width="110" height="110" viewBox="0 0 110 110" fill="none" xmlns="http://www.w3.org/2000/svg">
<path opacity="0.2" d="M65.3125 17.1875V30.9375C65.3125 31.8492 64.9503 32.7235 64.3057 33.3682C63.661 34.0128 62.7867 34.375 61.875 34.375H48.125C47.2133 34.375 46.339 34.0128 45.6943 33.3682C45.0497 32.7235 44.6875 31.8492 44.6875 30.9375V17.1875C44.6875 16.2758 45.0497 15.4015 45.6943 14.7568C46.339 14.1122 47.2133 13.75 48.125 13.75H61.875C62.7867 13.75 63.661 14.1122 64.3057 14.7568C64.9503 15.4015 65.3125 16.2758 65.3125 17.1875ZM34.375 72.1875H20.625C19.7133 72.1875 18.839 72.5497 18.1943 73.1943C17.5497 73.839 17.1875 74.7133 17.1875 75.625V89.375C17.1875 90.2867 17.5497 91.161 18.1943 91.8057C18.839 92.4503 19.7133 92.8125 20.625 92.8125H34.375C35.2867 92.8125 36.161 92.4503 36.8057 91.8057C37.4503 91.161 37.8125 90.2867 37.8125 89.375V75.625C37.8125 74.7133 37.4503 73.839 36.8057 73.1943C36.161 72.5497 35.2867 72.1875 34.375 72.1875ZM89.375 72.1875H75.625C74.7133 72.1875 73.839 72.5497 73.1943 73.1943C72.5497 73.839 72.1875 74.7133 72.1875 75.625V89.375C72.1875 90.2867 72.5497 91.161 73.1943 91.8057C73.839 92.4503 74.7133 92.8125 75.625 92.8125H89.375C90.2867 92.8125 91.161 92.4503 91.8057 91.8057C92.4503 91.161 92.8125 90.2867 92.8125 89.375V75.625C92.8125 74.7133 92.4503 73.839 91.8057 73.1943C91.161 72.5497 90.2867 72.1875 89.375 72.1875Z" fill="#DC2626"/>
<path d="M99.6875 48.125H58.4375V37.8125H61.875C63.6984 37.8125 65.447 37.0882 66.7364 35.7989C68.0257 34.5095 68.75 32.7609 68.75 30.9375V17.1875C68.75 15.3641 68.0257 13.6155 66.7364 12.3261C65.447 11.0368 63.6984 10.3125 61.875 10.3125H48.125C46.3016 10.3125 44.553 11.0368 43.2636 12.3261C41.9743 13.6155 41.25 15.3641 41.25 17.1875V30.9375C41.25 32.7609 41.9743 34.5095 43.2636 35.7989C44.553 37.0882 46.3016 37.8125 48.125 37.8125H51.5625V48.125H10.3125C9.40082 48.125 8.52648 48.4872 7.88182 49.1318C7.23716 49.7765 6.875 50.6508 6.875 51.5625C6.875 52.4742 7.23716 53.3485 7.88182 53.9932C8.52648 54.6378 9.40082 55 10.3125 55H24.0625V68.75H20.625C18.8016 68.75 17.053 69.4743 15.7636 70.7636C14.4743 72.053 13.75 73.8016 13.75 75.625V89.375C13.75 91.1984 14.4743 92.947 15.7636 94.2364C17.053 95.5257 18.8016 96.25 20.625 96.25H34.375C36.1984 96.25 37.947 95.5257 39.2364 94.2364C40.5257 92.947 41.25 91.1984 41.25 89.375V75.625C41.25 73.8016 40.5257 72.053 39.2364 70.7636C37.947 69.4743 36.1984 68.75 34.375 68.75H30.9375V55H79.0625V68.75H75.625C73.8016 68.75 72.053 69.4743 70.7636 70.7636C69.4743 72.053 68.75 73.8016 68.75 75.625V89.375C68.75 91.1984 69.4743 92.947 70.7636 94.2364C72.053 95.5257 73.8016 96.25 75.625 96.25H89.375C91.1984 96.25 92.947 95.5257 94.2364 94.2364C95.5257 92.947 96.25 91.1984 96.25 89.375V75.625C96.25 73.8016 95.5257 72.053 94.2364 70.7636C92.947 69.4743 91.1984 68.75 89.375 68.75H85.9375V55H99.6875C100.599 55 101.474 54.6378 102.118 53.9932C102.763 53.3485 103.125 52.4742 103.125 51.5625C103.125 50.6508 102.763 49.7765 102.118 49.1318C101.474 48.4872 100.599 48.125 99.6875 48.125ZM48.125 17.1875H61.875V30.9375H48.125V17.1875ZM34.375 89.375H20.625V75.625H34.375V89.375ZM89.375 89.375H75.625V75.625H89.375V89.375Z" fill="#DC2626"/>
</svg>
