<?xml version="1.0" encoding="UTF-8"?><svg id="a" xmlns="http://www.w3.org/2000/svg" viewBox="0 0 240 100"><defs><style>.b{fill:#000;stroke-width:0px;}</style></defs><path class="b" d="M189.55,35.54l-14.12,28.53h28.23l-14.12-28.53ZM183.09,59.32l6.46-13.05,6.46,13.05h-12.92Z"/><path class="b" d="M31.12,35.99v28.09h5.21v-11.11h15.68v-5.01h-15.68v-6.95h15.68v-5.02h-20.89Z"/><path class="b" d="M104.85,49.36h-10.24v-8.44h10.24c2.21,0,3.95,1.85,3.95,4.22s-1.77,4.22-3.95,4.22M114,45.14c0-5.05-4.11-9.16-9.16-9.16h-15.45v28.09h5.21v-9.97h8.91l5.79,9.97h5.75l-6.33-10.82c3.17-1.45,5.28-4.66,5.28-8.11"/><path class="b" d="M162.75,49.36h-10.24v-8.44h10.24c2.21,0,3.95,1.85,3.95,4.22s-1.77,4.22-3.95,4.22M171.91,45.14c0-5.05-4.11-9.16-9.16-9.16h-15.45v28.09h5.21v-9.97h8.91l5.79,9.97h5.75l-6.33-10.82c3.17-1.45,5.28-4.66,5.28-8.11"/><path class="b" d="M116.96,35.99v5.02h10.53v23.07h5.21v-23.07h10.49v-5.02h-26.23Z"/><path class="b" d="M70.71,59.45c-5.32,0-9.33-4.06-9.33-9.45s4.01-9.45,9.33-9.45,9.33,4.06,9.33,9.45-4.01,9.45-9.33,9.45M70.71,35.46c-8.15,0-14.54,6.39-14.54,14.54s6.39,14.54,14.54,14.54,14.54-6.39,14.54-14.54-6.39-14.54-14.54-14.54"/><path class="b" d="M207.88,60.2c.31.18.56.43.74.76s.27.68.27,1.08-.09.76-.27,1.07c-.18.32-.42.57-.74.75s-.67.27-1.07.27-.76-.09-1.07-.27-.56-.43-.74-.75-.27-.68-.27-1.07.09-.76.27-1.08.42-.57.74-.76.67-.27,1.07-.27.76.09,1.07.27ZM208.04,63.3c.31-.33.47-.75.47-1.26s-.16-.93-.47-1.26c-.31-.33-.72-.49-1.22-.49s-.92.17-1.23.49-.47.75-.47,1.26.15.93.47,1.26.72.49,1.23.49.91-.17,1.22-.49ZM207.58,62.01c-.1.12-.23.19-.41.23l.63.9h-.54s-.58-.88-.58-.88h-.24v.89h-.45v-2.26h.98c.23,0,.42.06.55.18.14.12.21.29.21.5,0,.17-.05.32-.15.44h0ZM206.45,61.88h.49c.1,0,.18-.02.24-.07s.09-.12.09-.22-.03-.17-.09-.21c-.06-.04-.15-.07-.24-.07h-.49v.58Z"/></svg>