<?xml version="1.0" encoding="utf-8"?>
<!-- Generator: Adobe Illustrator 27.1.1, SVG Export Plug-In . SVG Version: 6.00 Build 0)  -->
<svg version="1.1" id="Layer_1" xmlns="http://www.w3.org/2000/svg" xmlns:xlink="http://www.w3.org/1999/xlink" x="0px" y="0px"
	 viewBox="0 0 240 100" style="enable-background:new 0 0 240 100;" xml:space="preserve">
<g>
	<path d="M80.9,32.3c2.9,0,5.3-2.4,5.3-5.3c0-2.9-2.4-5.3-5.3-5.3s-5.3,2.4-5.3,5.3C75.8,29.9,78,32.3,80.9,32.3"/>
	<rect x="76.8" y="34.5" width="8.5" height="31"/>
	<path d="M149.8,67.7c-2.9,0-5.3,2.4-5.3,5.3s2.4,5.3,5.3,5.3c2.9,0,5.3-2.4,5.3-5.3S152.8,67.7,149.8,67.7"/>
	<rect x="145.6" y="34.5" width="8.5" height="31"/>
	<path d="M68.2,54.1l-0.3,0.3c-0.9,1.2-2,2.1-3.2,2.6c-1.2,0.5-2.5,0.8-3.8,0.8c-2.3,0-4.2-0.7-5.6-2.1S53,52.4,53,50.2
		c0-2.4,0.7-4.4,2.2-5.8s3.3-2.2,5.6-2.2c1.3,0,2.6,0.3,3.8,0.8c1.4,0.6,2.3,1.4,3.1,2.6L68,46l4.7-7.1l-0.2-0.2
		c-2.4-2.2-5.1-3.7-7.9-4.3c-1.4-0.3-2.9-0.5-4.7-0.5c-4.5,0-8.3,1.6-11.3,4.6c-3,3.1-4.5,7-4.5,11.6s1.5,8.5,4.5,11.5
		s6.8,4.6,11.3,4.6c1.8,0,3.4-0.2,4.6-0.5c1.4-0.4,5-1.6,8-4.8l0.2-0.2L68.2,54.1z"/>
	<polygon points="88.8,34.5 88.8,42.1 96.9,42.1 96.9,65.5 105.6,65.5 105.6,42.1 113.7,42.1 113.7,34.5 	"/>
	<path d="M133.9,53.3c2-0.5,3.6-1.5,4.7-2.9c1.2-1.5,1.8-3.5,1.8-5.9c0-3.4-1-6-3.1-7.6c-2-1.6-5.6-2.4-10.6-2.4h-9.5v31h8.6V54.6
		l6.4,10.9h10.1L133.9,53.3z M131.6,45.5c0,1.2-0.4,2.1-1.1,2.7c-0.8,0.6-2,0.9-3.6,0.9h-1.1v-7.4h1.2c1.7,0,2.9,0.3,3.6,0.9
		C131.3,43.1,131.6,44.1,131.6,45.5"/>
	<polygon points="171.9,55.7 178.4,65.5 188.2,65.5 177.2,49.1 187.1,34.5 177.2,34.5 171.9,42.7 166.6,34.5 156.9,34.5 166.8,49.1 
		155.8,65.5 165.6,65.5 	"/>
	<path d="M192.1,34.5c-2.1,0-3.8,1.7-3.8,3.8c0,2.1,1.7,3.8,3.8,3.8s3.8-1.7,3.8-3.8S194.1,34.5,192.1,34.5 M192.1,41.4
		c-1.7,0-3.1-1.4-3.1-3.1s1.4-3.1,3.1-3.1c1.7,0,3.1,1.4,3.1,3.1C195.1,40,193.8,41.4,192.1,41.4"/>
	<path d="M193.8,37.4c0-1.1-0.9-1.2-1.4-1.2h-1.9v4.2h0.7v-1.7h0.9l1.1,1.7l0,0h0.8l-1.1-1.8C193.6,38.4,193.8,37.7,193.8,37.4
		 M193.1,37.4c0,0.4-0.2,0.6-0.8,0.6h-1.2v-1.3h1.2C192.9,36.7,193.1,36.9,193.1,37.4"/>
</g>
</svg>
