<?xml version="1.0" encoding="utf-8"?>
<!-- Generator: Adobe Illustrator 27.0.1, SVG Export Plug-In . SVG Version: 6.00 Build 0)  -->
<svg version="1.1" id="Layer_1" xmlns="http://www.w3.org/2000/svg" xmlns:xlink="http://www.w3.org/1999/xlink" x="0px" y="0px"
	 viewBox="0 0 240 100" style="enable-background:new 0 0 240 100;" xml:space="preserve">
<style type="text/css">
	.st0{fill:#000000;}
</style>
<g id="layer1">
	<g id="layer1-1">
		<path id="path21" class="st0" d="M69.9,65.7l13.4-2.4h0.1l-6.9-8.2c-3.8-4.5-6.9-8.2-6.9-8.2s7.1-19.6,7.2-19.7s4.9,8.3,11.7,20.3
			l11.8,20.5l0.1,0.2H56.7L69.9,65.7z M153.9,63.7c-3.3-0.2-5.3-2.1-5.8-5.7c-0.1-0.9-0.1-1-0.1-7.1v-5.9h2.9v5.8
			c0,5.2,0,5.8,0.1,6.2c0.1,1.2,0.5,2.3,1.2,3.1c0.6,0.6,1.3,1,2.1,1.1c0.7,0.1,1.3,0.1,2,0c0.9-0.2,1.6-0.6,2.2-1.2
			c0.8-0.8,1.3-1.8,1.5-2.9l0.1-0.4V45h3v18.2h-3v-1.5c0-0.5,0-1,0-1.4c-0.1,0.1-0.1,0.2-0.2,0.3c-0.5,1-1.3,1.8-2.3,2.3
			C156.5,63.6,155.2,63.8,153.9,63.7L153.9,63.7z M187.8,63.7c-1.2-0.1-2.4-0.5-3.4-1.1c-2.2-1.4-3.7-3.9-3.8-6.5
			c-0.1-1.1-0.1-2.2,0-3.3c0.2-1.9,1-3.7,2.1-5.3c0.4-0.5,0.8-0.9,1.3-1.3c1-0.8,2.1-1.3,3.3-1.6c0.9-0.2,1.8-0.2,2.6-0.2
			c1.8,0.2,3.5,1,4.7,2.4c1.3,1.6,1.9,3.6,1.9,5.7c0,0.4,0,1,0,1.5v0.8h-13v0.3c0,0.9,0.2,1.9,0.6,2.7c0.3,0.7,0.8,1.4,1.3,1.9
			c0.9,0.8,2.1,1.3,3.3,1.4c0.7,0,1.4,0,2.1-0.1c1.4-0.2,2.8-0.8,4-1.7l0.3-0.2c0,0,0,0.2,0,1.3v1.4l-0.3,0.2
			c-1.3,0.8-2.8,1.3-4.3,1.5c-0.9,0.1-1.8,0.1-2.7,0L187.8,63.7z M193.4,52.1c0-1.5-0.5-2.9-1.5-3.9c-0.6-0.6-1.4-1-2.3-1.1
			c-0.6-0.1-1.2-0.1-1.8,0c-0.9,0.2-1.8,0.6-2.4,1.3c-0.7,0.7-1.3,1.6-1.6,2.6c-0.1,0.4-0.2,0.8-0.3,1.2v0.2h9.9L193.4,52.1z
			 M105.8,63.2l4.9-12.8l4.9-12.8h3.1l0.1,0.3c0.4,1,9.7,25.2,9.7,25.2s-0.8,0-1.7,0h-1.7l-1.3-3.6l-1.3-3.6h-10.8v0.1
			c0,0.1-0.6,1.7-1.3,3.6l-1.2,3.5h-1.7C106.9,63.3,106.4,63.3,105.8,63.2L105.8,63.2z M121.5,53.3c0,0-0.9-2.5-2-5.5
			c-2.1-5.6-2.2-5.9-2.3-6.8c-0.1-0.4-0.1-0.4-0.2,0c-0.1,0.4-0.2,0.8-0.3,1.2c-0.1,0.2-1,2.7-2.1,5.7s-2,5.4-2,5.4s2,0,4.4,0
			L121.5,53.3z M129.5,62.8v-0.5l5.4-7.4l5.4-7.4h-4.9h-4.9V45h14.1v0.8l-5.4,7.5l-5.4,7.5h10.7v2.5h-15L129.5,62.8z M169.1,63.2
			c0,0,0-4.1,0-9.1V45h3v1.9c0,1,0,1.9,0,1.9c0.1-0.1,0.1-0.2,0.2-0.4c0.3-1,0.9-1.8,1.6-2.5c0.6-0.6,1.5-1,2.3-1.2c0.3,0,0.7,0,1,0
			c0.5,0,0.9,0.1,1.4,0.2h0.1v3l-0.4-0.2c-0.6-0.3-1.3-0.4-1.9-0.4c-0.4,0-0.8,0.1-1.2,0.2c-0.8,0.3-1.4,0.8-1.9,1.5
			c-0.7,1.1-1.2,2.3-1.3,3.5c0,0.2,0,2,0,5.5v5.2h-1.4C169.7,63.2,169.1,63.2,169.1,63.2L169.1,63.2z M43.6,63.2
			c0,0,3.2-5.7,7.2-12.5l7.2-12.5l8.4-7l8.4-7.1c0,0.1-0.1,0.2-0.1,0.3c-0.1,0.2-4.2,9-9.1,19.6l-9,19.2h-6.5
			C46.6,63.2,43.6,63.2,43.6,63.2z"/>
	</g>
</g>
</svg>
