<?xml version="1.0" encoding="utf-8"?>
<!-- Generator: Adobe Illustrator 27.0.1, SVG Export Plug-In . SVG Version: 6.00 Build 0)  -->
<svg version="1.1" id="Layer_1" xmlns="http://www.w3.org/2000/svg" xmlns:xlink="http://www.w3.org/1999/xlink" x="0px" y="0px"
	 viewBox="0 0 240 100" style="enable-background:new 0 0 240 100;" xml:space="preserve">
<style type="text/css">
	.st0{fill:#000000;}
</style>
<path class="st0" d="M145.6,51.4c1.2,0.6,2.5,1.1,3.9,1.3c1.7,0.4,3.4,0.6,5.1,0.6c1.6,0,3.2-0.2,4.7-0.6c1.3-0.4,2.6-1,3.7-1.9
	c1-0.8,1.8-1.8,2.4-2.9c0.6-1.2,0.9-2.5,0.9-3.9c0-1.7-0.5-3.3-1.6-4.7c-1.4-1.6-3.2-2.7-5.2-3.2l-4.7-1.5c-1.3-0.3-2.6-1-3.7-1.8
	c-0.7-0.6-1-1.5-1-2.4c-0.1-1.2,0.5-2.4,1.6-3c1.4-0.7,2.9-1,4.4-0.9c2.2,0,4.4,0.4,6.4,1.3c0.4,0.2,0.8,0.4,1.3,0.4
	c0.5,0,0.8-0.4,0.8-1v-1.6c0-0.4-0.1-0.8-0.3-1.1c-0.3-0.3-0.6-0.6-1-0.8c-0.5-0.2-0.9-0.4-1.4-0.6c-0.6-0.2-1.2-0.4-1.9-0.5
	c-0.7-0.2-1.4-0.3-2.2-0.4c-0.7-0.1-1.5-0.1-2.2-0.1c-1.4,0-2.8,0.2-4.2,0.6c-1.3,0.4-2.4,0.9-3.5,1.7c-1,0.7-1.8,1.7-2.4,2.7
	c-0.6,1.1-0.9,2.4-0.9,3.7c0,1.8,0.6,3.5,1.7,4.8c1.4,1.7,3.3,2.9,5.4,3.4l4.9,1.5c1.2,0.3,2.4,0.9,3.4,1.7c0.6,0.6,0.9,1.5,0.9,2.3
	c0,1.3-0.6,2.5-1.7,3.2c-1.5,0.8-3.2,1.2-4.9,1.1c-1.3,0-2.7-0.1-4-0.4c-1.3-0.3-2.5-0.6-3.7-1.2l-0.8-0.3c-0.2-0.1-0.4-0.1-0.6-0.1
	c-0.5,0-0.8,0.3-0.8,1v1.7c0,0.3,0.1,0.6,0.2,0.9C144.8,50.8,145.2,51.2,145.6,51.4"/>
<path class="st0" d="M89.2,35.2C88,35.1,86.9,35,85.7,35c-2.9-0.2-5.9,0.8-8.2,2.6c-2,1.7-3.1,4.2-3,6.9c-0.1,2.4,0.8,4.7,2.5,6.4
	c1.8,1.7,4.2,2.5,6.7,2.4c3.8,0.1,7.4-1.6,9.8-4.6c0.4,0.7,0.7,1.4,1,2c0.3,0.6,0.7,1.1,1.2,1.5c0.3,0.3,0.6,0.5,1,0.5
	c0.3,0,0.6-0.1,0.9-0.3l2.1-1.4c0.4-0.2,0.6-0.6,0.6-1c0-0.3-0.1-0.5-0.2-0.8c-0.4-0.8-0.8-1.6-1.1-2.4c-0.3-1-0.4-2-0.4-3V32.9
	c0-3.7-0.9-6.4-2.8-8.2S91,22,87,22c-1.8,0-3.5,0.2-5.2,0.6c-1.4,0.4-2.9,0.9-4.2,1.5c-0.4,0.2-0.7,0.4-0.9,0.7
	c-0.2,0.4-0.2,0.7-0.2,1.1v1.6c0,0.7,0.2,1,0.7,1c0.2,0,0.4,0,0.5-0.1c0.4-0.1,0.8-0.3,1.2-0.4c1.2-0.5,2.4-0.8,3.6-1.1
	c1.2-0.3,2.4-0.4,3.6-0.4c2.6,0,4.4,0.5,5.4,1.5S93,31,93,33.5V36C91.7,35.7,90.4,35.4,89.2,35.2 M93,41.1c0,1-0.1,2-0.3,2.9
	c-0.2,0.8-0.6,1.5-1.1,2.1c-0.8,1-1.9,1.7-3.2,2.1c-1.1,0.4-2.3,0.6-3.4,0.6c-1.3,0.1-2.5-0.3-3.5-1.2c-0.9-1-1.3-2.2-1.2-3.5
	c-0.1-1.5,0.5-2.9,1.6-3.8c1.5-1,3.2-1.5,5-1.3c1,0,2.1,0.1,3.1,0.2c1,0.1,2.1,0.3,3.1,0.5L93,41.1z"/>
<path class="st0" d="M109.8,50.8c0.1,0.5,0.3,1,0.7,1.3c0.4,0.2,0.8,0.4,1.3,0.3h2.9c0.5,0,0.9-0.1,1.3-0.3c0.3-0.4,0.6-0.8,0.6-1.3
	l5.1-21.5l5.2,21.5c0.1,0.5,0.3,1,0.6,1.3c0.4,0.3,0.9,0.4,1.3,0.3h2.9c0.5,0,0.9-0.1,1.3-0.3c0.4-0.4,0.6-0.8,0.7-1.3l8-25.8
	c0.1-0.4,0.2-0.6,0.2-0.8c0-0.2,0.1-0.4,0.1-0.5c0.1-0.4-0.2-0.8-0.6-0.8c-0.1,0-0.1,0-0.2,0h-3.1c-0.5-0.1-0.9,0.1-1.3,0.3
	c-0.3,0.4-0.6,0.8-0.7,1.3l-5.8,22.4l-5.2-22.4c-0.1-0.5-0.3-1-0.7-1.3c-0.4-0.3-0.9-0.4-1.3-0.3h-2.7c-0.5,0-0.9,0.1-1.3,0.3
	c-0.3,0.4-0.6,0.8-0.6,1.3l-5.2,22.1l-5.6-22.1c-0.1-0.5-0.3-0.9-0.7-1.3c-0.4-0.3-0.8-0.4-1.3-0.3h-3.3c-0.4-0.1-0.8,0.2-0.8,0.6
	c0,0.1,0,0.1,0,0.2c0.1,0.5,0.2,0.9,0.3,1.3L109.8,50.8z"/>
<path class="st0" d="M159.4,67c-12,5.1-24.9,7.7-37.9,7.8c-17.4,0-34.5-4.5-49.7-13.2c-1.2-0.7-2.2,0.5-1.1,1.5
	c13.6,12.3,31.3,19,49.6,18.9C134,82,150,77.7,161,69.6C162.8,68.2,161.2,66.2,159.4,67"/>
<path class="st0" d="M152.4,62.5c-1,0.7-0.8,1.6,0.3,1.5c3.5-0.4,11.4-1.4,12.8,0.4c1.4,1.8-1.6,9.2-2.9,12.5
	c-0.4,1,0.5,1.4,1.4,0.7c5.9-4.9,7.4-15.3,6.2-16.8S158.7,58,152.4,62.5"/>
</svg>
