<?xml version="1.0" encoding="UTF-8"?><svg id="a" xmlns="http://www.w3.org/2000/svg" viewBox="0 0 240 100"><defs><style>.d{fill:#000;stroke-width:0px;}</style></defs><g id="b"><g id="c"><path class="d" d="M191.73,47.46c-.9.79-1.45,1.87-1.65,3.24h9.94c-.2-1.34-.75-2.42-1.65-3.22-.91-.81-2.09-1.24-3.3-1.21-1.32,0-2.44.4-3.34,1.19ZM204.09,60.09c-1.9,2.28-4.67,3.43-8.31,3.43-2.27,0-4.29-.47-6.04-1.41-1.7-.88-3.1-2.24-4.05-3.9-.96-1.65-1.43-3.54-1.43-5.65-.03-1.97.46-3.91,1.41-5.63.9-1.64,2.23-2.99,3.86-3.92,3.38-1.85,7.46-1.88,10.86-.06,1.6.9,2.91,2.24,3.77,3.85.91,1.68,1.37,3.62,1.37,5.84,0,.08-.04.63-.11,1.66h-15.26c.22,1.25.92,2.37,1.94,3.13,1.02.76,2.3,1.13,3.82,1.13.95.02,1.9-.14,2.8-.49.2-.08.39-.17.57-.28l4.8,2.29Z"/><path class="d" d="M52.79,44.26c1.54,1.58,2.31,3.93,2.31,7.04v12.18h-5.85v-11.23c0-1.69-.35-2.95-1.05-3.78-.7-.83-1.71-1.25-3.04-1.25-1.47,0-2.65.48-3.53,1.44-.88.96-1.31,2.39-1.31,4.29v10.53h-5.85v-19.5l5.59-2.67v3.38c.79-.91,1.78-1.62,2.89-2.07,1.2-.5,2.49-.75,3.79-.73,2.5,0,4.52.79,6.06,2.37Z"/><path class="d" d="M59.45,43.99v19.5h5.85v-22.17l-5.85,2.67Z"/><polygon class="d" points="65.3 34.53 65.3 39.53 59.45 42.2 59.45 37.2 65.3 34.53"/><polygon class="d" points="94.58 37.21 94.58 42.21 100.43 39.53 100.43 34.53 94.58 37.21"/><path class="d" d="M88.13,44.26c1.54,1.58,2.31,3.93,2.31,7.04v12.18h-5.85v-11.23c0-1.69-.35-2.95-1.05-3.78-.7-.83-1.71-1.25-3.04-1.25-1.48,0-2.65.48-3.53,1.44s-1.31,2.39-1.31,4.29v10.53h-5.85v-19.5l5.59-2.67v3.38c.79-.91,1.78-1.62,2.89-2.07,1.2-.5,2.49-.75,3.8-.74,2.49,0,4.51.79,6.05,2.37Z"/><path class="d" d="M100.43,41.37v22.08c0,2.48-.67,4.44-2.01,5.88s-3.21,2.15-5.61,2.15c-2.05,0-3.61-.4-4.69-1.19l1.57-4.47c.68.5,1.5.75,2.48.75.75,0,1.34-.25,1.76-.77s.64-1.29.64-2.31v-19.43l5.85-2.68Z"/><path class="d" d="M125.38,43.98v19.5h-5.59v-2.45c-1.45,1.85-3.55,2.77-6.3,2.77-1.81.02-3.59-.44-5.16-1.34-1.55-.91-2.8-2.24-3.62-3.84-.88-1.66-1.31-3.58-1.31-5.77,0-2.19.44-4.12,1.31-5.77.82-1.6,2.07-2.93,3.62-3.84,1.57-.91,3.35-1.37,5.16-1.35,2.57,0,4.59.86,6.04,2.57v-3.14l5.85,2.67ZM118.17,57.14c.97-1.07,1.46-2.5,1.46-4.29s-.49-3.22-1.46-4.29c-.93-1.05-2.27-1.63-3.68-1.6-1.5,0-2.74.53-3.71,1.6s-1.46,2.5-1.46,4.29c0,1.79.49,3.22,1.46,4.29s2.21,1.6,3.71,1.6c1.4.03,2.75-.55,3.68-1.6Z"/><path class="d" d="M135.6,62.1c-2.15-1.2-3.93-2.98-5.14-5.12-1.24-2.17-1.86-4.62-1.86-7.34s.62-5.16,1.86-7.34c1.21-2.15,2.99-3.92,5.14-5.12,2.19-1.24,4.65-1.86,7.37-1.86s5.18.62,7.35,1.86c2.15,1.21,3.92,2.98,5.14,5.12,1.25,2.17,1.88,4.62,1.88,7.34s-.63,5.16-1.88,7.34c-1.22,2.14-2.99,3.91-5.14,5.12-2.17,1.24-4.62,1.86-7.35,1.86s-5.18-.62-7.37-1.86ZM147.17,57.37c1.25-.76,2.27-1.84,2.95-3.14.73-1.42,1.1-2.99,1.07-4.59.03-1.59-.34-3.17-1.07-4.59-.67-1.3-1.69-2.39-2.95-3.15-2.6-1.5-5.8-1.5-8.4,0-1.25.76-2.27,1.85-2.94,3.15-.73,1.42-1.1,2.99-1.07,4.59-.03,1.59.34,3.17,1.07,4.59.67,1.3,1.69,2.39,2.94,3.14,2.6,1.5,5.8,1.5,8.4,0h0Z"/><path class="d" d="M178.89,44.26c1.53,1.58,2.3,3.93,2.3,7.04v12.18h-5.85v-11.23c0-1.69-.35-2.95-1.05-3.78-.7-.83-1.71-1.25-3.04-1.25-1.48,0-2.65.48-3.53,1.44s-1.31,2.39-1.31,4.29v10.53h-5.85v-19.5l5.59-2.67v3.38c.79-.91,1.78-1.62,2.89-2.07,1.2-.5,2.49-.75,3.79-.73,2.5,0,4.51.79,6.05,2.37Z"/></g></g></svg>