<?xml version="1.0" encoding="utf-8"?>
<!-- Generator: Adobe Illustrator 27.1.1, SVG Export Plug-In . SVG Version: 6.00 Build 0)  -->
<svg version="1.1" id="Layer_1" xmlns="http://www.w3.org/2000/svg" xmlns:xlink="http://www.w3.org/1999/xlink" x="0px" y="0px"
	 viewBox="0 0 240 100" style="enable-background:new 0 0 240 100;" xml:space="preserve">
<style type="text/css">
	.st0{clip-path:url(#SVGID_00000045619219690602250390000011339344253147586997_);}
	.st1{fill-rule:evenodd;clip-rule:evenodd;fill:#14B8A6;}
</style>
<g>
	<defs>
		<rect id="SVGID_1_" x="31" y="23" width="178" height="54"/>
	</defs>
	<clipPath id="SVGID_00000071531753380032771230000012612285313091267981_">
		<use xlink:href="#SVGID_1_"  style="overflow:visible;"/>
	</clipPath>
	<g style="clip-path:url(#SVGID_00000071531753380032771230000012612285313091267981_);">
		<path class="st1" d="M205.2,42c0.1,0,0.2,0,0.3,0c0.4,0,0.6,0.2,0.6,0.4c0,0.3-0.3,0.4-0.7,0.4h-0.3V42z M205.2,43.3h0.3
			c0.3,0,0.5,0.1,0.6,0.5c0.1,0.4,0.1,0.7,0.2,0.8h0.7c0-0.1-0.1-0.3-0.2-0.7c0-0.4-0.2-0.7-0.5-0.7v0c0.3-0.1,0.6-0.3,0.6-0.7
			c0-0.3-0.1-0.5-0.3-0.7c-0.2-0.2-0.5-0.2-1-0.2c-0.5,0-0.7,0-1,0.1v3h0.6V43.3z M205.7,40.8c1.1,0,2.1,1,2.1,2.2
			c0,1.2-0.9,2.2-2.1,2.2c-1.1,0-2-0.9-2-2.2C203.7,41.8,204.6,40.8,205.7,40.8L205.7,40.8z M205.7,40.3c-1.5,0-2.7,1.2-2.7,2.7
			c0,1.5,1.2,2.7,2.7,2.7c1.5,0,2.7-1.2,2.7-2.7C208.4,41.5,207.2,40.3,205.7,40.3L205.7,40.3z M206.5,60.9h1.1v-8.7h-1.1V60.9z
			 M203.7,60.9h1.1V55h-1.1V60.9z M204.2,53.9c0.4,0,0.7-0.3,0.7-0.7c0-0.4-0.3-0.7-0.7-0.7c-0.4,0-0.7,0.3-0.7,0.7
			C203.5,53.6,203.8,53.9,204.2,53.9L204.2,53.9z M202.3,59.9c-0.3,0.1-0.7,0.3-1.3,0.3c-1.2,0-2-0.8-2-2.2c0-1.2,0.7-2.2,2.1-2.2
			c0.6,0,1,0.1,1.2,0.3l0.2-0.8c-0.3-0.2-0.9-0.3-1.5-0.3c-1.9,0-3.2,1.3-3.2,3.1c0,1.8,1.2,3,2.9,3c0.8,0,1.4-0.2,1.7-0.3
			L202.3,59.9z M191.5,60.9h1.1v-3.6c0-0.2,0-0.4,0.1-0.5c0.2-0.6,0.7-1.1,1.4-1.1c1,0,1.4,0.8,1.4,1.8v3.4h1.1v-3.5
			c0-2-1.3-2.5-2.1-2.5c-1,0-1.7,0.5-1.9,1.1h0l-0.1-1h-0.9c0,0.5,0.1,1,0.1,1.6V60.9z M189.7,55h-1.1v3.6c0,0.2,0,0.4-0.1,0.5
			c-0.2,0.5-0.7,1-1.4,1c-1,0-1.3-0.8-1.3-1.9V55h-1.1v3.5c0,2.1,1.1,2.6,2,2.6c1,0,1.7-0.6,1.9-1.1h0l0.1,1h0.9c0-0.5,0-1,0-1.6V55
			z M180.6,60.2c-1,0-1.8-1-1.8-2.3c0-1.1,0.5-2.3,1.8-2.3c1.3,0,1.8,1.3,1.8,2.3C182.3,59.3,181.6,60.2,180.6,60.2L180.6,60.2z
			 M180.5,61c1.4,0,2.9-1,2.9-3.1c0-1.8-1.1-3-2.8-3c-1.6,0-2.9,1.2-2.9,3.1C177.7,59.9,178.9,61,180.5,61L180.5,61z M176.8,59.8
			c-0.4,0.2-1.1,0.3-1.7,0.3c-2,0-3.1-1.3-3.1-3.3c0-2.2,1.3-3.4,3.2-3.4c0.7,0,1.3,0.1,1.6,0.3l0.3-0.9c-0.3-0.1-0.9-0.4-1.9-0.4
			c-2.5,0-4.3,1.7-4.3,4.3c0,2.7,1.7,4.2,4,4.2c1,0,1.8-0.2,2.2-0.4L176.8,59.8z M163.4,60.6c0.4,0.2,1,0.4,1.7,0.4
			c1.4,0,2.2-0.7,2.2-1.8c0-0.9-0.5-1.4-1.5-1.8c-0.8-0.3-1.1-0.5-1.1-1c0-0.4,0.3-0.8,1-0.8c0.5,0,1,0.2,1.2,0.3l0.3-0.8
			c-0.3-0.2-0.8-0.4-1.4-0.4c-1.2,0-2,0.8-2,1.7c0,0.7,0.5,1.3,1.6,1.7c0.8,0.3,1.1,0.6,1.1,1.1c0,0.5-0.4,0.9-1.1,0.9
			c-0.5,0-1.1-0.2-1.4-0.4L163.4,60.6z M161,58.4c0,0.2,0,0.3,0,0.5c-0.2,0.8-0.9,1.3-1.6,1.3c-1.1,0-1.7-1-1.7-2.2
			c0-1.3,0.7-2.3,1.8-2.3c0.8,0,1.4,0.6,1.5,1.2c0,0.1,0,0.3,0,0.5V58.4z M161,52.2v3.5h0c-0.3-0.5-0.9-0.9-1.8-0.9
			c-1.4,0-2.6,1.2-2.6,3.2c0,1.8,1.1,3,2.5,3c1,0,1.7-0.5,2-1.2h0l0,1h1c0-0.4,0-1,0-1.5v-7.1H161z M153.1,60.9h1.1v-3.1
			c0-0.2,0-0.4,0-0.5c0.1-0.8,0.7-1.4,1.4-1.4c0.1,0,0.3,0,0.4,0v-1c-0.1,0-0.2,0-0.3,0c-0.7,0-1.4,0.5-1.6,1.3h0l0-1.2h-0.9
			c0,0.6,0,1.2,0,1.8L153.1,60.9z M150.3,58.9c0,0.1,0,0.2,0,0.3c-0.2,0.5-0.7,1-1.4,1c-0.5,0-1-0.3-1-1c0-1.1,1.3-1.4,2.5-1.3V58.9
			z M151.4,57.3c0-1.2-0.4-2.4-2.2-2.4c-0.7,0-1.5,0.2-1.9,0.5l0.2,0.7c0.4-0.3,1-0.4,1.5-0.4c1.2,0,1.3,0.9,1.3,1.4v0.1
			c-2.3,0-3.5,0.8-3.5,2.2c0,0.9,0.6,1.7,1.8,1.7c0.8,0,1.5-0.4,1.8-0.9h0l0.1,0.7h1c-0.1-0.4-0.1-0.9-0.1-1.4V57.3z M144.4,58.4
			c0,0.2,0,0.3,0,0.5c-0.2,0.8-0.9,1.3-1.6,1.3c-1.1,0-1.7-1-1.7-2.2c0-1.3,0.7-2.3,1.8-2.3c0.8,0,1.4,0.6,1.5,1.2
			c0,0.1,0,0.3,0,0.5V58.4z M144.4,52.2v3.5h0c-0.3-0.5-0.9-0.9-1.8-0.9c-1.4,0-2.7,1.2-2.6,3.2c0,1.8,1.1,3,2.5,3
			c1,0,1.7-0.5,2-1.2h0l0,1h1c0-0.4,0-1,0-1.5v-7.1H144.4z M133.6,60.9h1.1v-3.6c0-0.2,0-0.4,0.1-0.5c0.2-0.6,0.7-1.1,1.4-1.1
			c1,0,1.4,0.8,1.4,1.8v3.4h1.1v-3.5c0-2-1.3-2.5-2.1-2.5c-1,0-1.7,0.5-1.9,1.1h0l-0.1-1h-0.9c0,0.5,0,1,0,1.6V60.9z M130.9,58.9
			c0,0.1,0,0.2,0,0.3c-0.2,0.5-0.7,1-1.4,1c-0.5,0-1-0.3-1-1c0-1.1,1.3-1.4,2.5-1.3V58.9z M131.9,57.3c0-1.2-0.4-2.4-2.2-2.4
			c-0.7,0-1.5,0.2-1.9,0.5l0.2,0.7c0.4-0.3,1-0.4,1.5-0.4c1.2,0,1.3,0.9,1.3,1.4v0.1c-2.3,0-3.5,0.8-3.5,2.2c0,0.9,0.6,1.7,1.8,1.7
			c0.8,0,1.5-0.4,1.8-0.9h0l0.1,0.7h1c-0.1-0.4-0.1-0.9-0.1-1.4V57.3z M124,53.9V55h-0.9v0.8h0.9V59c0,0.7,0.1,1.2,0.4,1.6
			c0.3,0.3,0.7,0.5,1.2,0.5c0.4,0,0.7-0.1,0.9-0.1l0-0.8c-0.2,0-0.3,0.1-0.6,0.1c-0.6,0-0.8-0.4-0.8-1.1v-3.2h1.5V55H125v-1.4
			L124,53.9z M117.4,60.5c0.4,0.3,1.3,0.5,2.1,0.5c1.9,0,2.9-1.1,2.9-2.4c0-1.2-0.7-1.9-2.1-2.4c-1.1-0.4-1.6-0.8-1.6-1.6
			c0-0.6,0.4-1.2,1.5-1.2c0.7,0,1.3,0.2,1.5,0.4L122,53c-0.4-0.2-1-0.4-1.8-0.4c-1.6,0-2.6,1-2.6,2.2c0,1.1,0.8,1.9,2.2,2.3
			c1.1,0.4,1.5,0.9,1.5,1.6c0,0.8-0.6,1.4-1.7,1.4c-0.7,0-1.4-0.2-1.9-0.5L117.4,60.5z M152.3,42.8l2.2,5.5c0.1,0.1,0.1,0.2,0.1,0.3
			c0,0.1,0,0.1-0.1,0.3c-0.3,0.6-0.6,1-0.9,1.2c-0.3,0.3-0.7,0.5-0.9,0.5l0.3,0.9c0.3,0,0.8-0.2,1.3-0.7c0.7-0.6,1.3-1.7,2-3.7
			l1.6-4.2h-1.1l-1.2,3.5c-0.1,0.4-0.3,0.9-0.4,1.2h0c-0.1-0.4-0.2-0.8-0.4-1.2l-1.3-3.5H152.3z M149.2,41.7v1.1h-0.9v0.8h0.9v3.2
			c0,0.7,0.1,1.2,0.4,1.6c0.3,0.3,0.7,0.5,1.2,0.5c0.4,0,0.7-0.1,0.9-0.1l0-0.8c-0.2,0.1-0.3,0.1-0.6,0.1c-0.6,0-0.8-0.4-0.8-1.1
			v-3.2h1.5v-0.8h-1.5v-1.4L149.2,41.7z M146.1,48.7h1.1v-5.9h-1.1V48.7z M146.6,41.7c0.4,0,0.7-0.3,0.7-0.7c0-0.4-0.3-0.7-0.7-0.7
			c-0.4,0-0.7,0.3-0.7,0.7C146,41.4,146.2,41.7,146.6,41.7L146.6,41.7z M142.1,48.7h1.1v-3.1c0-0.2,0-0.4,0-0.5
			c0.1-0.8,0.7-1.4,1.4-1.4c0.1,0,0.3,0,0.4,0v-1c-0.1,0-0.2,0-0.3,0c-0.7,0-1.4,0.5-1.6,1.3h0l0-1.2h-0.9c0,0.5,0,1.1,0,1.8
			L142.1,48.7z M140.3,42.8h-1.1v3.6c0,0.2,0,0.4-0.1,0.5c-0.2,0.5-0.7,1-1.4,1c-1,0-1.3-0.8-1.3-1.9v-3.3h-1.1v3.5
			c0,2.1,1.1,2.6,2,2.6c1,0,1.7-0.6,1.9-1.1h0l0.1,1h0.9c0-0.5,0-1,0-1.6V42.8z M134,47.7c-0.3,0.1-0.7,0.3-1.3,0.3
			c-1.2,0-2-0.8-2-2.2c0-1.2,0.7-2.2,2.1-2.2c0.6,0,1,0.1,1.2,0.3l0.2-0.8c-0.3-0.2-0.8-0.3-1.5-0.3c-1.9,0-3.2,1.3-3.2,3.2
			c0,1.8,1.2,3,2.9,3c0.8,0,1.4-0.2,1.7-0.3L134,47.7z M124.5,45.2c0.1-0.7,0.5-1.7,1.6-1.7c1.2,0,1.5,1.1,1.5,1.7H124.5z
			 M128.6,45.9c0-0.1,0-0.3,0-0.5c0-1.1-0.5-2.8-2.4-2.8c-1.7,0-2.8,1.4-2.8,3.2c0,1.8,1.1,3,2.9,3c0.9,0,1.6-0.2,2-0.4l-0.2-0.8
			c-0.4,0.2-0.9,0.3-1.6,0.3c-1.1,0-2-0.6-2-2.1L128.6,45.9z M117.4,48.3c0.4,0.3,1.3,0.5,2.1,0.5c1.9,0,2.9-1.1,2.9-2.4
			c0-1.2-0.7-1.9-2.1-2.4c-1.1-0.4-1.6-0.8-1.6-1.6c0-0.6,0.4-1.2,1.5-1.2c0.7,0,1.3,0.2,1.5,0.4l0.3-0.9c-0.4-0.2-1-0.4-1.8-0.4
			c-1.6,0-2.6,1-2.6,2.2c0,1.1,0.8,1.9,2.2,2.3c1.1,0.4,1.5,0.9,1.5,1.6c0,0.8-0.6,1.4-1.7,1.4c-0.7,0-1.4-0.2-1.9-0.5L117.4,48.3z
			 M90.9,61.1h8.2V39.6h-8.2V61.1z M90.1,32.8c0,1.4,0.5,2.6,1.4,3.4c1,0.8,2.1,1.2,3.5,1.2c1.4,0,2.6-0.4,3.5-1.2
			c1-0.8,1.4-2,1.4-3.4c0-1.5-0.5-2.6-1.4-3.5c-1-0.8-2.1-1.2-3.5-1.2c-1.4,0-2.6,0.4-3.5,1.2C90.5,30.2,90.1,31.3,90.1,32.8z
			 M87.6,60.4l0-5.4c-1.1,0.4-2.1,0.7-3,0.9c-0.9,0.2-1.9,0.3-2.9,0.3c-1,0-1.8-0.1-2.7-0.4c-0.8-0.2-1.5-0.6-2.2-1.1
			c-0.6-0.5-1.1-1.1-1.5-1.8c-0.4-0.7-0.5-1.6-0.5-2.6c0-1.9,0.6-3.3,1.7-4.4c1.2-1,2.7-1.5,4.5-1.5c1.1,0,2.2,0.2,3.2,0.5
			c1,0.3,1.9,0.7,2.7,1.1l0-5.8c-1-0.4-1.1-0.4-2.4-0.7c-1.3-0.3-2.8-0.3-4.4-0.3c-2.1,0-4,0.3-5.7,0.8c-1.7,0.5-3.2,1.3-4.4,2.3
			c-1.2,1-2.2,2.2-2.9,3.5c-0.7,1.4-1,2.9-1,4.6c0,1.7,0.3,3.2,1,4.6c0.6,1.4,1.6,2.5,2.8,3.5c1.2,1,2.7,1.7,4.5,2.2
			c1.8,0.5,3.8,0.8,6.1,0.8c1.6,0,3-0.1,4.3-0.4C86.2,60.8,86.3,60.8,87.6,60.4z M64.7,46.9c0-2.5-1-4.3-3.1-5.5
			c-2-1.2-4.9-1.8-8.4-1.8h-9.6v21.5h8.2v-6.5h1.3c1.7,0,3.3-0.2,4.8-0.5c1.4-0.3,2.7-0.8,3.7-1.5c1-0.6,1.8-1.4,2.4-2.4
			C64.4,49.3,64.7,48.2,64.7,46.9z M112.3,57L49.4,76.9L31,26.7L97,23L112.3,57z M56.8,47c0,1-0.4,1.8-1.1,2.2
			C55,49.7,54,50,52.6,50h-0.9v-5.8h1C55.5,44.2,56.8,45.2,56.8,47z"/>
	</g>
</g>
</svg>
