<?xml version="1.0" encoding="utf-8"?>
<!-- Generator: Adobe Illustrator 27.1.1, SVG Export Plug-In . SVG Version: 6.00 Build 0)  -->
<svg version="1.1" id="logo-full" xmlns="http://www.w3.org/2000/svg" xmlns:xlink="http://www.w3.org/1999/xlink" x="0px" y="0px"
	 viewBox="0 0 240 100" style="enable-background:new 0 0 240 100;" xml:space="preserve">
<g>
	<path d="M209.5,48.2V45h-3.9v-4.9l-0.1,0l-3.7,1.1l-0.1,0V45h-5.8V43c0-1,0.2-1.7,0.6-2.2c0.4-0.5,1-0.7,1.8-0.7
		c0.6,0,1.1,0.1,1.7,0.4l0.1,0.1v-3.3l-0.1,0c-0.5-0.2-1.3-0.3-2.2-0.3c-1.1,0-2.2,0.2-3.1,0.7c-0.9,0.5-1.6,1.2-2.1,2.1
		c-0.5,0.9-0.7,1.9-0.7,3.1V45h-2.7v3.1h2.7v13.3h3.9V48.2h5.8v8.4c0,3.5,1.6,5.2,4.9,5.2c0.5,0,1.1-0.1,1.7-0.2
		c0.6-0.1,1-0.2,1.2-0.4l0.1,0v-3.2l-0.2,0.1c-0.2,0.1-0.5,0.3-0.8,0.3c-0.3,0.1-0.6,0.1-0.8,0.1c-0.8,0-1.3-0.2-1.7-0.6
		c-0.4-0.4-0.5-1.1-0.5-2.1v-7.7H209.5L209.5,48.2z M180.6,58.6c-1.4,0-2.5-0.5-3.3-1.4c-0.8-0.9-1.2-2.3-1.2-3.9
		c0-1.7,0.4-3.1,1.2-4.1c0.8-0.9,1.9-1.4,3.3-1.4c1.4,0,2.4,0.5,3.2,1.4c0.8,0.9,1.2,2.3,1.2,4c0,1.8-0.4,3.2-1.1,4.1
		C183.1,58.2,182,58.6,180.6,58.6 M180.7,44.6c-2.7,0-4.9,0.8-6.4,2.4c-1.5,1.6-2.3,3.7-2.3,6.4c0,2.6,0.8,4.6,2.3,6.1
		c1.5,1.5,3.5,2.3,6,2.3c2.6,0,4.7-0.8,6.3-2.4c1.5-1.6,2.3-3.7,2.3-6.4c0-2.6-0.7-4.7-2.2-6.2C185.3,45.4,183.3,44.6,180.7,44.6
		 M165.8,44.6c-1.8,0-3.4,0.5-4.5,1.4c-1.2,0.9-1.8,2.2-1.8,3.6c0,0.8,0.1,1.5,0.4,2c0.3,0.6,0.6,1.1,1.2,1.5
		c0.5,0.4,1.3,0.9,2.4,1.3c0.9,0.4,1.6,0.7,2,0.9c0.4,0.2,0.7,0.5,0.9,0.7c0.2,0.2,0.2,0.5,0.2,0.9c0,1.1-0.8,1.6-2.5,1.6
		c-0.6,0-1.3-0.1-2.1-0.4c-0.8-0.3-1.5-0.6-2.2-1.1l-0.2-0.1v3.8l0.1,0c0.6,0.3,1.3,0.5,2.1,0.6c0.8,0.2,1.6,0.3,2.2,0.3
		c2,0,3.6-0.5,4.8-1.4c1.2-0.9,1.8-2.2,1.8-3.7c0-1.1-0.3-2.1-1-2.8c-0.6-0.8-1.7-1.5-3.3-2.1c-1.2-0.5-2-0.9-2.3-1.2
		c-0.3-0.3-0.5-0.7-0.5-1.3c0-0.5,0.2-0.9,0.6-1.2c0.4-0.3,1-0.5,1.7-0.5c0.7,0,1.3,0.1,2,0.3c0.7,0.2,1.2,0.5,1.7,0.8l0.2,0.1v-3.6
		l-0.1,0c-0.4-0.2-1-0.4-1.8-0.5C167,44.7,166.3,44.6,165.8,44.6 M149.3,58.6c-1.4,0-2.5-0.5-3.3-1.4c-0.8-0.9-1.2-2.3-1.2-3.9
		c0-1.7,0.4-3.1,1.2-4.1c0.8-0.9,1.9-1.4,3.3-1.4c1.4,0,2.4,0.5,3.2,1.4c0.8,0.9,1.2,2.3,1.2,4c0,1.8-0.4,3.2-1.1,4.1
		C151.8,58.2,150.7,58.6,149.3,58.6 M149.4,44.6c-2.7,0-4.9,0.8-6.4,2.4c-1.5,1.6-2.3,3.7-2.3,6.4c0,2.6,0.8,4.6,2.3,6.1
		c1.5,1.5,3.5,2.3,6,2.3c2.6,0,4.7-0.8,6.3-2.4c1.5-1.6,2.3-3.7,2.3-6.4c0-2.6-0.7-4.7-2.2-6.2C154,45.4,152,44.6,149.4,44.6
		 M134.8,47.9V45H131v16.4h3.9V53c0-1.4,0.3-2.6,1-3.5c0.6-0.9,1.5-1.3,2.5-1.3c0.3,0,0.7,0.1,1.2,0.2c0.4,0.1,0.7,0.2,0.9,0.4
		l0.2,0.1V45l-0.1,0c-0.4-0.2-0.9-0.2-1.5-0.2c-1,0-1.8,0.3-2.6,0.9C135.7,46.2,135.2,47,134.8,47.9L134.8,47.9z M124,44.6
		c-1.8,0-3.4,0.4-4.7,1.1c-1.3,0.8-2.4,1.8-3.1,3.2c-0.7,1.4-1.1,2.9-1.1,4.7c0,1.6,0.3,3,1,4.2c0.7,1.3,1.7,2.2,2.9,2.9
		c1.2,0.7,2.6,1,4.2,1c1.8,0,3.4-0.4,4.7-1.1l0.1,0v-3.5l-0.2,0.1c-0.6,0.4-1.2,0.7-1.9,1c-0.7,0.2-1.3,0.4-1.9,0.4
		c-1.5,0-2.7-0.5-3.6-1.4c-0.9-0.9-1.3-2.2-1.3-3.9c0-1.7,0.5-3,1.4-4c0.9-1,2.1-1.5,3.6-1.5c1.3,0,2.5,0.4,3.7,1.3l0.2,0.1v-3.7
		l-0.1,0c-0.4-0.2-1-0.4-1.8-0.6C125.5,44.7,124.7,44.6,124,44.6 M112.5,45h-3.9v16.4h3.9C112.5,61.4,112.5,45,112.5,45z M110.6,38
		c-0.6,0-1.2,0.2-1.6,0.6c-0.5,0.4-0.7,1-0.7,1.6c0,0.6,0.2,1.2,0.7,1.6c0.4,0.4,1,0.6,1.7,0.6c0.6,0,1.2-0.2,1.7-0.6
		c0.5-0.4,0.7-1,0.7-1.6c0-0.6-0.2-1.2-0.7-1.6C111.9,38.3,111.3,38,110.6,38 M101,43.8v17.6h3.9V38.5h-5.5l-6.9,17l-6.7-17h-5.7
		v22.9h3.7V43.8H84l7.1,17.6h2.8l7-17.6L101,43.8L101,43.8z"/>
	<path d="M48.6,49.1H30.5V30.9h18.2V49.1z"/>
	<path d="M68.7,49.1H50.5V30.9h18.2V49.1L68.7,49.1z"/>
	<path d="M48.6,69.1H30.5V50.9h18.2V69.1z"/>
	<path d="M68.7,69.1H50.5V50.9h18.2V69.1L68.7,69.1z"/>
</g>
</svg>
