<?xml version="1.0" encoding="utf-8"?>
<!-- Generator: Adobe Illustrator 27.1.1, SVG Export Plug-In . SVG Version: 6.00 Build 0)  -->
<svg version="1.1" id="logo-full" xmlns="http://www.w3.org/2000/svg" xmlns:xlink="http://www.w3.org/1999/xlink" x="0px" y="0px"
	 viewBox="0 0 240 100" style="enable-background:new 0 0 240 100;" xml:space="preserve">
<g>
	<path d="M48.1,21.9h45v8.3h-45V21.9z M44.9,33.4h51.4V18.6H44.9V33.4z"/>
	<g>
		<path d="M48.1,57.8h-3.2V43h3.2v5.8h5.7V43h3.2v14.8h-3.2v-6.1h-5.7V57.8z M64.4,58c-3.3,0-5.5-2.1-5.5-5.4c0-3.3,2.2-5.5,5.1-5.5
			c3.1,0,4.7,2.1,4.7,5.2v1.2H62c0.4,1.6,1.7,2.1,2.9,2.1c1.1,0,1.9-0.2,2.9-0.8h0.1v2.4C67.1,57.7,65.8,58,64.4,58 M62,51.3h3.8
			c-0.1-1.1-0.5-1.8-1.8-1.8C63.1,49.5,62.2,49.9,62,51.3 M77,51.6l-1.7,6.2h-2.8l-3.2-10.4v-0.1h3.1l1.7,6.2l1.7-6.2h2.5l1.7,6.2
			l1.8-6.2h3v0.1l-3.2,10.4h-2.8L77,51.6z M90,58c-2.5,0-3.6-1-3.6-3.4V43h3.1v11.4c0,0.7,0.3,1,0.9,1c0.2,0,0.5-0.1,0.7-0.1h0v2.6
			C90.9,57.9,90.4,58,90,58 M97.5,58C94.2,58,92,56,92,52.6c0-3.3,2.2-5.5,5.1-5.5c3.1,0,4.7,2.1,4.7,5.2v1.2h-6.7
			c0.4,1.6,1.7,2.1,2.9,2.1c1.1,0,1.9-0.2,2.9-0.8h0.1v2.4C100.2,57.7,99,58,97.5,58 M95.1,51.3h3.8c-0.1-1.1-0.5-1.8-1.8-1.8
			C96.2,49.5,95.3,49.9,95.1,51.3 M114.6,47.3h2.3v2.5h-2.3v4.3c0,0.9,0.4,1.3,1.3,1.3c0.3,0,0.6,0,0.9-0.1h0.1v2.5
			c-0.4,0.1-1,0.3-1.9,0.3c-2.5,0-3.5-1.2-3.5-3.8v-4.4h-4v4.3c0,0.9,0.4,1.3,1.3,1.3c0.3,0,0.6,0,0.9-0.1h0.1v2.5
			c-0.4,0.1-1,0.3-1.9,0.3c-2.5,0-3.5-1.2-3.5-3.8v-4.4h-1.6v-2.5h1.6v-2.9h3.1v2.9h4v-2.9h3.1V47.3z M133,48c0,3.2-2.1,5-5.4,5
			h-2.3v4.8h-3.2V43h5.5C130.9,43,133,44.8,133,48 M127.4,50.3c1.6,0,2.4-0.9,2.4-2.2c0-1.4-0.8-2.3-2.4-2.3h-2v4.5H127.4z
			 M140,56.8c-0.7,0.8-1.7,1.2-2.8,1.2c-2.1,0-3.7-1.2-3.7-3.5c0-2,1.7-3.4,4.1-3.4c0.8,0,1.5,0.1,2.3,0.4v-0.2
			c0-1.1-0.6-1.6-2.3-1.6c-1.1,0-2.1,0.3-3,0.8h-0.1v-2.5c0.8-0.5,2.2-0.9,3.6-0.9c3.2,0,4.9,1.5,4.9,4.2v6.6h-3V56.8z M139.9,54.5
			v-0.9c-0.5-0.3-1.1-0.4-1.7-0.4c-1,0-1.6,0.4-1.6,1.2c0,0.9,0.6,1.3,1.5,1.3C138.9,55.7,139.6,55.3,139.9,54.5 M144.6,52.5
			c0-3.4,2.4-5.5,5.5-5.5c1.1,0,2.1,0.2,2.9,0.8v2.7h-0.1c-0.7-0.5-1.5-0.8-2.4-0.8c-1.6,0-2.7,1.1-2.7,2.9c0,1.8,1.2,2.8,2.7,2.8
			c0.9,0,1.7-0.3,2.4-0.8h0.1v2.7c-0.8,0.6-1.8,0.8-2.9,0.8C147,58,144.6,55.9,144.6,52.5 M158.1,53v4.8H155V43h3.1v8.4l3.1-4.2h3.5
			v0.1l-3.8,4.8l3.8,5.5v0.1h-3.6L158.1,53z M171.9,56.8c-0.7,0.8-1.7,1.2-2.8,1.2c-2.1,0-3.7-1.2-3.7-3.5c0-2,1.7-3.4,4.1-3.4
			c0.8,0,1.5,0.1,2.3,0.4v-0.2c0-1.1-0.6-1.6-2.3-1.6c-1.1,0-2.1,0.3-2.9,0.8h-0.1v-2.5c0.8-0.5,2.2-0.9,3.6-0.9
			c3.2,0,4.9,1.5,4.9,4.2v6.6h-3V56.8z M171.8,54.5v-0.9c-0.5-0.3-1.1-0.4-1.7-0.4c-1,0-1.6,0.4-1.6,1.2c0,0.9,0.6,1.3,1.5,1.3
			C170.8,55.7,171.5,55.3,171.8,54.5 M180.1,49c0.6-1.2,1.4-1.8,2.5-1.8c0.4,0,0.8,0.1,1,0.2v3h-0.1c-0.3-0.1-0.8-0.2-1.4-0.2
			c-1,0-1.7,0.6-2,1.7v6h-3.1V47.3h3V49z M192.1,56.7c-0.7,0.8-1.7,1.3-3.1,1.3c-2.7,0-4.4-2.5-4.4-5.5c0-3,1.7-5.5,4.4-5.5
			c1.4,0,2.4,0.4,3,1.2V43h3.1v14.8h-3V56.7z M192,54.2v-3.4c-0.5-0.8-1.2-1.1-2-1.1c-1.4,0-2.3,1-2.3,2.8c0,1.8,0.9,2.8,2.3,2.8
			C190.8,55.3,191.4,55,192,54.2 M44.9,62.6H54v1.8H47v4.5h6.4v1.7H47v4.9H54v1.8h-9.1V62.6z M61.6,66.8c2.3,0,3.6,1.5,3.6,4.1v6.5
			h-2v-6.5c0-1.3-0.7-2.3-2.2-2.3c-1.2,0-2.3,0.8-2.6,1.9v6.9h-2V67h2v1.5C59.1,67.5,60.1,66.8,61.6,66.8 M70.5,67h2.7v1.7h-2.7v5.6
			c0,1.2,0.6,1.6,1.7,1.6c0.3,0,0.6,0,0.9-0.1h0.1v1.7c-0.3,0.1-0.7,0.2-1.2,0.2c-2.4,0-3.4-1.1-3.4-3.1v-5.8h-1.8V67h1.8v-2.8h2V67
			z M79.5,77.6c-3,0-5.1-2-5.1-5.3c0-3.3,1.9-5.5,4.7-5.5c2.9,0,4.3,2.1,4.3,5.1v0.9h-7.1c0.2,2.1,1.6,3.1,3.4,3.1
			c1.2,0,2-0.3,2.9-0.9h0.1v1.7C81.9,77.3,80.8,77.6,79.5,77.6 M76.4,71.2h5.2c-0.1-1.5-0.8-2.7-2.4-2.7
			C77.7,68.4,76.7,69.6,76.4,71.2 M87.8,68.6c0.5-1.1,1.4-1.8,2.6-1.8c0.5,0,0.9,0.1,1,0.2v1.9h-0.1c-0.3-0.1-0.8-0.2-1.2-0.2
			c-1.1,0-2,0.7-2.3,1.9v6.8h-2V67h2V68.6z M98,66.8c3.1,0,4.7,2.5,4.7,5.4c0,2.9-1.7,5.4-4.7,5.4c-1.3,0-2.4-0.7-2.9-1.4v5.1h-2V67
			h2v1.2C95.6,67.4,96.7,66.8,98,66.8 M97.7,75.8c1.9,0,3.1-1.5,3.1-3.6c0-2.1-1.1-3.6-3.1-3.6c-1.1,0-2.1,0.6-2.6,1.7v4
			C95.6,75.2,96.6,75.8,97.7,75.8 M107,68.6c0.4-1.1,1.4-1.8,2.6-1.8c0.5,0,0.8,0.1,1,0.2v1.9h-0.1c-0.3-0.1-0.8-0.2-1.2-0.2
			c-1.1,0-2,0.7-2.3,1.9v6.8h-2V67h2V68.6z M113.4,62.8c0.7,0,1.3,0.5,1.3,1.2c0,0.7-0.6,1.2-1.3,1.2c-0.7,0-1.3-0.5-1.3-1.2
			C112.2,63.3,112.8,62.8,113.4,62.8 M112.5,67h2v10.4h-2V67z M121.4,71.3c1.5,0.5,3.1,1.1,3.1,3.1c0,2.1-1.7,3.2-4,3.2
			c-1.4,0-2.7-0.3-3.5-0.9v-1.9h0.1c0.9,0.8,2.2,1.2,3.4,1.2c1.1,0,2.1-0.4,2.1-1.3c0-0.9-0.8-1.1-2.5-1.7c-1.5-0.5-3.1-1-3.1-3
			c0-2,1.7-3.2,3.8-3.2c1.2,0,2.3,0.3,3.2,0.8v1.9H124c-0.8-0.7-1.8-1.1-3.1-1.1c-1.2,0-1.9,0.5-1.9,1.3
			C119,70.5,119.8,70.8,121.4,71.3 M131.4,77.6c-3,0-5.1-2-5.1-5.3c0-3.3,1.9-5.5,4.7-5.5c2.9,0,4.3,2.1,4.3,5.1v0.9h-7.1
			c0.2,2.1,1.6,3.1,3.4,3.1c1.2,0,2-0.3,2.9-0.9h0.1v1.7C133.8,77.3,132.7,77.6,131.4,77.6 M128.3,71.2h5.2
			c-0.1-1.5-0.8-2.7-2.4-2.7C129.6,68.4,128.6,69.6,128.3,71.2"/>
	</g>
</g>
</svg>
