<?xml version="1.0" encoding="utf-8"?>
<!-- Generator: Adobe Illustrator 27.1.1, SVG Export Plug-In . SVG Version: 6.00 Build 0)  -->
<svg version="1.1" id="Layer_1" xmlns="http://www.w3.org/2000/svg" xmlns:xlink="http://www.w3.org/1999/xlink" x="0px" y="0px"
	 viewBox="0 0 240 100" style="enable-background:new 0 0 240 100;" xml:space="preserve">
<g>
	<polygon points="158.3,51 166.8,41.8 162.7,41.8 154.2,51 163.7,62.3 167.7,62.3 	"/>
	<polygon points="208.8,39.2 208.1,40.9 207.5,39.2 206.7,39.2 206.7,41.7 207.3,41.7 207.3,40 207.3,40 207.9,41.7 208.4,41.7 
		209,40 209,40 209,41.7 209.6,41.7 209.6,39.2 	"/>
	<polygon points="204.3,39.7 205,39.7 205,41.7 205.7,41.7 205.7,39.7 206.4,39.7 206.4,39.2 204.3,39.2 	"/>
	<g>
		<path d="M122,54.2c0,2.9-2.3,5.2-5.2,5.2c-2.9,0-5.2-2.3-5.2-5.2l0-12.3h-3.3v12.3c0,4.7,3.8,8.4,8.4,8.4c4.7,0,8.4-3.8,8.4-8.4
			V41.9H122L122,54.2z"/>
		<path d="M138.5,45c2.3,0,4.4,1.1,5.8,3l3.1-1.3c-1.9-3.1-5.2-4.9-8.9-4.9l-0.1,0c-0.1,0-0.2,0-0.3,0l-0.1,0
			c-5.5,0.4-9.8,4.9-9.8,10.4s4.3,10.1,9.8,10.4l0.1,0l0.2,0c0,0,0.1,0,0.1,0l0.1,0c3.6,0,6.9-1.9,8.9-4.9l-3.1-1.3
			c-1.4,1.9-3.5,3-5.8,3c-0.1,0-0.1,0-0.2,0l-0.1,0c-3.8-0.3-6.7-3.4-6.7-7.2C131.5,48.3,134.6,45.1,138.5,45"/>
		<rect x="150.8" y="41.8" width="3.3" height="20.5"/>
		<path d="M183.7,54.2c0,2.9-2.3,5.2-5.2,5.2c-2.9,0-5.2-2.3-5.2-5.2l0-12.4h-3.3v12.4c0,4.7,3.8,8.4,8.4,8.4c4.7,0,8.4-3.8,8.4-8.4
			V41.8h-3.3L183.7,54.2z"/>
		<path d="M104.5,47.7L104.5,47.7c0-3.8-3.1-5.9-6.9-5.9h-9.5v5.1v0.8v14.6h3.3v-7.2h0c0,0,0-4.2,0-4.2v-3.2h0v0v-0.8v-2.1l6.2,0
			c2.3,0,4.1,0.9,4.1,2.9c0,2.3-1.7,3.2-4.1,3.2l-6.2,0l2.8,3.6l6.3,7.8h4.4l-6.9-8.1C102,54.2,104.5,51.5,104.5,47.7"/>
		<path d="M198.3,50.6c-1.6-0.5-2.7-0.9-3.4-1.5c-0.7-0.5-1-1.2-1-2c0-0.9,0.3-1.6,0.9-2.1c0.6-0.5,1.5-0.8,2.7-0.8
			c1.2,0,2.2,0.3,2.9,1c0.7,0.6,1.1,1.5,1.1,2.6h3.3l0-0.1c0-1.7-0.6-3.2-1.9-4.4c-1.3-1.2-3.1-1.8-5.3-1.8c-2.1,0-3.8,0.5-5.1,1.6
			c-1.3,1.1-2,2.4-2,4.1c0,1.6,0.6,2.9,1.8,3.9c1.2,1,2.9,1.8,5.1,2.4c1.5,0.4,2.6,0.9,3.2,1.5c0.6,0.5,0.9,1.2,0.9,2.1
			c0,0.9-0.3,1.6-1,2.1c-0.7,0.5-1.6,0.8-2.8,0.8c-1.2,0-2.3-0.3-3.1-0.9c-0.9-0.6-1.3-1.6-1.3-2.8H190l0,0.1c0,2,0.7,3.6,2.3,4.7
			c1.6,1.1,3.4,1.7,5.5,1.7c2.2,0,3.9-0.5,5.3-1.5c1.3-1,2-2.4,2-4.1c0-1.6-0.6-2.9-1.7-4C202.1,52,200.5,51.2,198.3,50.6"/>
		<path d="M96.2,28.8l1.1-0.6c0.5-0.3,0.6-0.9,0.3-1.3l0,0c-0.3-0.4-0.8-0.6-1.3-0.3l-1.1,0.7c0,0,0,0-0.1,0L87,33L96.2,28.8
			C96.2,28.8,96.2,28.8,96.2,28.8"/>
		<path d="M97.2,31.6l-9.6,2.9l10-1c0,0,0.1,0,0.1,0l1.2-0.3c0.5-0.1,0.9-0.6,0.7-1.1c-0.1-0.5-0.6-0.8-1.1-0.7L97.2,31.6
			C97.3,31.6,97.2,31.6,97.2,31.6"/>
		<path d="M98.7,36.5l-1.3-0.2c0,0-0.1,0-0.1,0l-10-0.4l9.8,2.3c0,0,0.1,0,0.1,0l1.2,0.2c0.5,0.1,1-0.3,1.1-0.8l0,0
			C99.6,37,99.3,36.5,98.7,36.5"/>
		<path d="M82.1,30.6c0,0,2.6-1.2,5.1-2.6c2.6-1.4,1-3.3,0.3-3.5c-0.8-0.2-4.1,0.4-4.1,0.4s-3.4,0.6-6.1,0.7
			c-2.6,0.1-3.5-1.9-3.5-1.9s-1.2-2.2-1.7-3.3c-0.5-1.1-0.8-1.3-1.6-0.9c-0.7,0.3,0.4,2.8,0.4,2.8s0.6,1.5,0.9,2.2
			c0.3,0.7,0.4,1.2-0.3,1.5c-0.6,0.3-1.1-0.9-1.1-0.9l-1-2.1c0,0-0.6-1.1-0.8-1.3c-0.5-0.7-3.6,0.7-3.9,1.5
			c-0.2,0.5,0.5,2.4,2.2,0.9c0.2-0.2,0.2,0.1,0.3,0.3c0.3,0.6,0.5,1.2,0.7,1.6c0.1,0.3-0.2,1.2,0.4,2.9c-0.2,0.4-0.9,0.7-1.3,1
			c-0.3,0.3-0.7,0.6-1.2,0.9c0,0,0,0,0,0l-0.7,0.4c0,0,0,0,0,0c0,0-0.1,0-0.1,0.1c0,0,0,0,0,0c-0.5,0.6,0.7,2.7,2.9,4.8
			c1.8,1.7,3.6,2.9,4.5,3c0.2,0,0.3,0,0.4-0.1c0,0,0-0.1,0.1-0.1c0,0,0-0.1,0-0.1c0,0,0-0.1,0-0.1c0-0.1,0-0.1,0.1-0.2c0,0,0,0,0,0
			c0.1-0.2,0.2-0.4,0.3-0.6c0.2-0.3,1.3-1.3,2.3-0.9c2.6,0.9,6.4,4.2,6.9,4.3c0.7,0.1,1.5-0.2,1.8-0.9c0.3-0.6-0.2-1.3-0.3-1.5
			c-0.2-0.4-0.9-1.2-0.9-1.2l-1.8-2.1c0,0-1.8-1.8-1.8-2.8C79.5,32,82.1,30.6,82.1,30.6"/>
		<path d="M66.8,37.3c-0.1-0.1-0.2-0.2-0.3-0.3c-0.2-0.3-0.5-0.5-0.8-0.8c0,0,0,0,0,0c-0.1-0.1-0.1-0.1-0.2-0.2
			c-0.1-0.1-0.1-0.1-0.2-0.2c0,0,0,0,0,0c-1-1.2-1.9-2.5-2.1-3.7c0,0,0,0,0,0c0,0,0,0,0,0c0,0,0,0,0,0c-0.7,0.3-3.4,0.9-4.2,1.2
			c-1,0.3-2.5,0.6-3.8,0.7c-1.5,0.1-4.4-0.2-6-0.4c-0.9-0.1-1.9-0.1-3,0.1c-1.8,0.3-4.2,1.6-4.5,1.7c-1.1,0.4-3.7,1.4-6.6,0.1
			c-4.2-1.5-3.6-6.7-4-6.5c-0.4,0.2-1.1,2.9-0.3,5.1c0.3,0.8,0.8,1.5,1.4,2.1c0.5,0.5,1.4,1.2,2.5,1.6c0.5,0.2,1,0.3,1.4,0.4
			c0.3,0.1,1.2,0.4,1.8,1c0.5,0.5,0.9,1.1,0.8,1.4c-1.6,4.6-0.6,8-0.6,8.3c0.1,3.4-2.2,24.3-2.1,24.5c0,0.1-0.1,0.3,0,0.5
			c0.1,0.3,0.5,0.6,0.6,0.8c0.3,0.4,0.4,0.9,0.8,1c1.8,0.2,2.7,0,2.6-1.3c0-0.2-0.2-0.6-0.5-0.8c-0.3-0.2-0.9-0.2-1.1-0.6
			c-0.5-0.5-0.4-1.4-0.3-1.8c0.3-2,0.8-5.5,1.2-7.8c0.2-1.3,1.1-3.7,1.4-4.3c2-3.8,3.1-6.7,3.7-8.5c0.2-0.5,0.9-0.3,0.9,0.2
			c0,0.6-0.5,1.6-0.5,1.7c-0.1,0.2-0.2,0.3-0.2,0.5c0.1,2.2,0.8,11.6,0.7,13.4c-0.1,2.3-0.1,3.8-0.2,4.6c0,0.3,0.5,1,0.9,1.3
			c0.4,0.3,0.5,0.8,0.7,0.8c0.2,0,1,0.1,1.6,0c0.6-0.1,1.1-0.2,1.2-0.4c0-0.1-0.1-1-0.4-1.2c-0.4-0.4-1-0.7-1.3-0.8
			c-0.7-0.3-0.6-4-0.6-4l1.4-10.3c0,0,3.1-6.5,5-7.4c3.5-0.8,6.5-0.3,6.5-0.3s3.5,1,4.5,5c0.8,3.7,2,15,2.3,18.8
			c0.1,0.7,0.2,1.3,0.3,1.3c0.2,0.1,0.8,0.4,0.9,0.8c0.1,0.4,0.2,1,0.7,1.2c0.3,0,0.9,0.1,1.6,0.1c0.5,0,1,0,1.2-0.2
			c0.1-0.1,0-1,0-1c0-0.1,0-0.2-0.1-0.3c-0.1-0.3-0.4-0.6-0.8-0.7c-0.3-0.1-0.7-0.2-1-0.3c-0.1,0-0.3-0.3-0.4-0.4
			c-0.8-1.4-1-3.4-1.1-4.3c-0.7-4.1,0.9-17.8,1-18.7c0,0,0.3-0.3,0.7-0.8c0-0.1,0.1-0.2,0.1-0.2c0.2,1.1,0,2.8,0.3,4.6
			c0.2,1.5,0.5,3.1,0.8,4.7c0.6,3.7,1.5,13.1,2.2,13.7c0,0,0.5,0.1,0.5,0.2c0.1,0.3,0,1,0.2,1.1c1.2,0.3,2.5,0.3,3-0.2
			c0.2-0.2,0.1-0.8,0.1-1.1c0-0.1,0-0.4-0.4-0.7c-0.3-0.2-0.9-0.1-1.2-0.4c-0.2-0.2-0.2-0.4-0.3-0.7c-0.9-2.4-1-7.1-1.2-9.5
			c-0.2-2.4-0.4-5.2-0.3-7.9c0.1-2.9,0.5-5.3,0-7.3c-0.6-2.9-1.4-4.3-1.4-4.3s0,0,0-0.1c0,0-0.1,0-0.1,0
			C70.4,40.7,67.8,38.3,66.8,37.3"/>
		<path d="M73,38.6C73,38.7,73,38.7,73,38.6c0,0.1,0,0.2-0.1,0.2c0,0,0,0.1-0.1,0.1c-0.1,0.1-0.2,0.1-0.4,0.1c-0.9,0-2.7-1.2-4.5-3
			c-2.1-2.1-3.4-4.2-2.9-4.8c0,0,0,0,0,0c0,0,0.1,0,0.1-0.1c0,0,0,0,0,0l0.7-0.4c0,0,0,0,0,0c-0.3-0.2-0.6-0.3-0.8-0.2
			c-0.1,0-1.1,0.5-1.4,0.7c-0.3,0.3-0.5,0.5-0.5,0.7c0,0,0,0,0,0c0,0,0,0,0,0c0.2,1.2,1.1,2.6,2.1,3.7c0,0,0,0,0,0
			c0.1,0.1,0.1,0.1,0.2,0.2c0.1,0.1,0.1,0.1,0.2,0.2c0,0,0,0,0,0c0.3,0.3,0.5,0.6,0.8,0.8c0.1,0.1,0.2,0.2,0.3,0.3
			c1,1,3.6,3.4,5.6,3.4c0.1,0,0.1,0,0.1,0c0,0,0.1,0,0.1,0c0,0,0.1,0,0.1,0c0.3-0.1,0.3-0.3,0.3-0.3s0.3-1.2,0.3-1.5
			c0-0.2-0.1-0.3-0.2-0.5c0,0,0,0,0,0C73,38.5,73,38.6,73,38.6"/>
		<path d="M91.1,74.3l-0.2-0.7h0c-0.2,0.3-0.5,0.5-0.8,0.6c-0.3,0.1-0.6,0.2-1,0.2c-0.5,0-0.9-0.1-1.2-0.4c-0.3-0.3-0.4-0.7-0.4-1.2
			c0-0.5,0.2-0.9,0.6-1.2c0.4-0.3,1-0.4,1.8-0.4l0.9,0v-0.3c0-0.3-0.1-0.6-0.2-0.7c-0.2-0.2-0.4-0.2-0.7-0.2c-0.3,0-0.5,0-0.8,0.1
			c-0.2,0.1-0.5,0.2-0.7,0.3l-0.4-0.8c0.3-0.1,0.6-0.3,0.9-0.3c0.3-0.1,0.6-0.1,0.9-0.1c0.7,0,1.2,0.1,1.5,0.4
			c0.3,0.3,0.5,0.7,0.5,1.3v3.5H91.1z M89.5,73.6c0.4,0,0.7-0.1,1-0.3c0.2-0.2,0.4-0.5,0.4-0.9v-0.4l-0.7,0c-0.5,0-0.9,0.1-1.1,0.3
			c-0.2,0.2-0.4,0.4-0.4,0.7c0,0.2,0.1,0.4,0.2,0.5C89,73.5,89.2,73.6,89.5,73.6"/>
		<path d="M100.1,74.3H99v-3.2c0-0.4-0.1-0.7-0.2-0.9c-0.2-0.2-0.4-0.3-0.8-0.3c-0.5,0-0.8,0.1-1,0.4c-0.2,0.3-0.3,0.7-0.3,1.4v2.6
			h-1.1v-5.2h0.9l0.2,0.7h0.1c0.2-0.2,0.4-0.4,0.7-0.6c0.3-0.1,0.6-0.2,1-0.2c1.2,0,1.9,0.6,1.9,1.9V74.3z"/>
		<path d="M112.6,74.3l-0.7-1.9h-2.6l-0.7,1.9h-1.2l2.5-6.8h1.2l2.5,6.8H112.6z M111.7,71.4l-0.6-1.9c0-0.1-0.1-0.3-0.2-0.6
			c-0.1-0.3-0.1-0.5-0.2-0.6c-0.1,0.4-0.2,0.8-0.4,1.3l-0.6,1.8H111.7z"/>
		<path d="M117.9,71.6v2.7h-1.1v-6.8h1.9c0.9,0,1.5,0.2,2,0.5c0.4,0.3,0.6,0.8,0.6,1.5c0,0.8-0.4,1.5-1.3,1.8l1.9,3h-1.3l-1.6-2.7
			H117.9z M117.9,70.7h0.8c0.5,0,0.9-0.1,1.1-0.3c0.2-0.2,0.3-0.5,0.3-0.9c0-0.4-0.1-0.7-0.4-0.8c-0.3-0.2-0.6-0.3-1.1-0.3h-0.7
			V70.7z"/>
		<path d="M126.1,71.6v2.7H125v-6.8h1.9c0.9,0,1.5,0.2,2,0.5c0.4,0.3,0.6,0.8,0.6,1.5c0,0.8-0.4,1.5-1.3,1.8l1.9,3h-1.3l-1.6-2.7
			H126.1z M126.1,70.7h0.8c0.5,0,0.9-0.1,1.1-0.3c0.2-0.2,0.3-0.5,0.3-0.9c0-0.4-0.1-0.7-0.4-0.8c-0.3-0.2-0.6-0.3-1.1-0.3h-0.7
			V70.7z"/>
		<rect x="133.2" y="67.5" width="1.1" height="6.8"/>
		<path d="M142.2,72.4c0,0.6-0.2,1.1-0.7,1.4c-0.4,0.3-1,0.5-1.8,0.5s-1.4-0.1-1.9-0.4V73c0.3,0.1,0.6,0.3,1,0.3
			c0.3,0.1,0.7,0.1,1,0.1c0.4,0,0.8-0.1,1-0.3c0.2-0.2,0.3-0.4,0.3-0.7c0-0.3-0.1-0.5-0.3-0.6c-0.2-0.2-0.6-0.4-1.2-0.6
			c-0.6-0.3-1.1-0.5-1.3-0.9c-0.3-0.3-0.4-0.7-0.4-1.2c0-0.6,0.2-1,0.6-1.3c0.4-0.3,0.9-0.5,1.6-0.5c0.7,0,1.3,0.1,1.9,0.4l-0.4,0.9
			c-0.6-0.3-1.1-0.4-1.6-0.4c-0.4,0-0.6,0.1-0.8,0.2c-0.2,0.2-0.3,0.4-0.3,0.6c0,0.2,0,0.3,0.1,0.5c0.1,0.1,0.2,0.2,0.4,0.4
			c0.2,0.1,0.5,0.3,0.9,0.4c0.5,0.2,0.9,0.4,1.1,0.6c0.2,0.2,0.4,0.4,0.5,0.6C142.1,71.9,142.2,72.1,142.2,72.4"/>
		<path d="M152.1,74.4c-0.8,0-1.4-0.2-1.8-0.7c-0.4-0.5-0.6-1.1-0.6-2c0-0.9,0.2-1.5,0.6-2c0.4-0.5,1-0.7,1.8-0.7
			c0.5,0,1,0.1,1.5,0.3l-0.3,0.9c-0.5-0.2-0.8-0.3-1.1-0.3c-0.9,0-1.3,0.6-1.3,1.8c0,0.6,0.1,1,0.3,1.3c0.2,0.3,0.5,0.4,1,0.4
			c0.5,0,0.9-0.1,1.4-0.4v1c-0.2,0.1-0.4,0.2-0.6,0.2C152.7,74.4,152.5,74.4,152.1,74.4"/>
		<path d="M161.5,71.7c0,0.8-0.2,1.5-0.6,2c-0.4,0.5-1,0.7-1.8,0.7c-0.5,0-0.9-0.1-1.3-0.3c-0.4-0.2-0.7-0.5-0.9-0.9
			c-0.2-0.4-0.3-0.9-0.3-1.4c0-0.8,0.2-1.5,0.6-2c0.4-0.5,1-0.7,1.8-0.7c0.7,0,1.3,0.2,1.8,0.7C161.2,70.3,161.5,70.9,161.5,71.7
			 M157.7,71.7c0,1.2,0.4,1.8,1.3,1.8c0.9,0,1.3-0.6,1.3-1.8c0-1.2-0.4-1.8-1.3-1.8c-0.5,0-0.8,0.2-1,0.5
			C157.8,70.7,157.7,71.1,157.7,71.7"/>
		<path d="M169.2,74.3h-1.1v-3.2c0-0.4-0.1-0.7-0.2-0.9c-0.1-0.2-0.4-0.3-0.7-0.3c-0.4,0-0.7,0.1-0.9,0.4c-0.2,0.3-0.3,0.7-0.3,1.4
			v2.6h-1.1v-5.2h0.9l0.2,0.7h0.1c0.1-0.2,0.4-0.4,0.6-0.6c0.3-0.1,0.6-0.2,0.9-0.2c0.8,0,1.3,0.3,1.6,0.8h0.1
			c0.2-0.3,0.4-0.5,0.6-0.6c0.3-0.1,0.6-0.2,1-0.2c0.6,0,1.1,0.2,1.3,0.5c0.3,0.3,0.4,0.8,0.4,1.4v3.4h-1.1v-3.2
			c0-0.4-0.1-0.7-0.2-0.9c-0.2-0.2-0.4-0.3-0.7-0.3c-0.4,0-0.7,0.1-0.9,0.4s-0.3,0.7-0.3,1.2V74.3z"/>
		<path d="M178.7,74.4c-0.7,0-1.2-0.2-1.5-0.7h-0.1c0,0.4,0.1,0.7,0.1,0.8v2.1h-1.1v-7.5h0.9c0,0.1,0.1,0.3,0.2,0.7h0.1
			c0.3-0.5,0.9-0.8,1.5-0.8c0.6,0,1.1,0.2,1.5,0.7c0.4,0.5,0.5,1.1,0.5,2c0,0.8-0.2,1.5-0.5,2C179.8,74.2,179.3,74.4,178.7,74.4
			 M178.4,69.9c-0.4,0-0.8,0.1-1,0.4c-0.2,0.3-0.3,0.7-0.3,1.2v0.2c0,0.6,0.1,1.1,0.3,1.4s0.5,0.4,1,0.4c0.4,0,0.7-0.2,0.9-0.5
			c0.2-0.3,0.3-0.8,0.3-1.3c0-0.6-0.1-1-0.3-1.3C179.1,70.1,178.8,69.9,178.4,69.9"/>
		<path d="M187.3,74.3l-0.2-0.7h0c-0.2,0.3-0.5,0.5-0.8,0.6c-0.3,0.1-0.6,0.2-1,0.2c-0.5,0-0.9-0.1-1.2-0.4
			c-0.3-0.3-0.4-0.7-0.4-1.2c0-0.5,0.2-0.9,0.6-1.2c0.4-0.3,1-0.4,1.8-0.4l0.9,0v-0.3c0-0.3-0.1-0.6-0.2-0.7
			c-0.2-0.2-0.4-0.2-0.7-0.2c-0.3,0-0.5,0-0.8,0.1c-0.2,0.1-0.5,0.2-0.7,0.3l-0.4-0.8c0.3-0.1,0.6-0.3,0.9-0.3
			c0.3-0.1,0.6-0.1,0.9-0.1c0.7,0,1.2,0.1,1.5,0.4c0.3,0.3,0.5,0.7,0.5,1.3v3.5H187.3z M185.7,73.6c0.4,0,0.7-0.1,1-0.3
			c0.2-0.2,0.4-0.5,0.4-0.9v-0.4l-0.7,0c-0.5,0-0.9,0.1-1.1,0.3c-0.2,0.2-0.4,0.4-0.4,0.7c0,0.2,0.1,0.4,0.2,0.5
			C185.2,73.5,185.4,73.6,185.7,73.6"/>
		<path d="M196.3,74.3h-1.1v-3.2c0-0.4-0.1-0.7-0.2-0.9c-0.2-0.2-0.4-0.3-0.8-0.3c-0.5,0-0.8,0.1-1,0.4c-0.2,0.3-0.3,0.7-0.3,1.4
			v2.6h-1.1v-5.2h0.9l0.2,0.7h0.1c0.2-0.2,0.4-0.4,0.7-0.6c0.3-0.1,0.6-0.2,1-0.2c1.2,0,1.9,0.6,1.9,1.9V74.3z"/>
		<path d="M199.1,69.1h1.2l1,2.9c0.2,0.4,0.3,0.8,0.3,1.2h0c0-0.2,0.1-0.4,0.2-0.6c0.1-0.2,0.5-1.4,1.2-3.5h1.2L202,75
			c-0.4,1.1-1.1,1.6-2,1.6c-0.2,0-0.5,0-0.7-0.1v-0.9c0.2,0,0.4,0.1,0.6,0.1c0.5,0,0.9-0.3,1.1-0.9l0.2-0.5L199.1,69.1z"/>
	</g>
</g>
</svg>
