<?xml version="1.0" encoding="utf-8"?>
<!-- Generator: Adobe Illustrator 27.1.1, SVG Export Plug-In . SVG Version: 6.00 Build 0)  -->
<svg version="1.1" id="Layer_1" xmlns="http://www.w3.org/2000/svg" xmlns:xlink="http://www.w3.org/1999/xlink" x="0px" y="0px"
	 viewBox="0 0 240 100" style="enable-background:new 0 0 240 100;" xml:space="preserve">
<g>
	<path d="M39,37.2c1.7,0,3.3,0.3,4.9,0.9c1.5,0.6,2.8,1.4,4,2.5c1.1,1.1,2.1,2.3,2.7,3.8c0.6,1.5,1,3,1,4.6c0,1.6-0.3,3.2-1,4.6
		c-0.6,1.4-1.6,2.7-2.7,3.8C45.5,59.7,42.4,61,39,61h-8c-0.8,0-1.6-0.1-2.4-0.3c-0.6-0.2-1.2-0.5-1.6-1c-0.4-0.5-0.7-1-0.8-1.6
		c-0.2-0.7-0.3-1.4-0.3-2.2V42.4c0-0.7,0.1-1.5,0.3-2.2c0.2-0.6,0.5-1.2,0.9-1.6c0.4-0.5,1-0.8,1.6-1c0.8-0.3,1.6-0.4,2.4-0.4
		L39,37.2z M31.3,40.8c-0.2,0-0.3,0-0.5,0.1c-0.2,0.1-0.4,0.2-0.6,0.3c-0.2,0.1-0.3,0.3-0.4,0.5c-0.1,0.2-0.2,0.5-0.2,0.7v13.3
		c0,0.3,0.1,0.5,0.2,0.8c0.1,0.2,0.3,0.4,0.4,0.5c0.2,0.1,0.4,0.2,0.6,0.3c0.2,0,0.3,0.1,0.5,0.1h7.6c1.2,0,2.4-0.2,3.5-0.6
		c1.1-0.4,2-1,2.9-1.8c0.8-0.7,1.5-1.6,2-2.6c0.5-1,0.7-2.1,0.7-3.2c0-1.1-0.2-2.2-0.7-3.2c-0.5-1-1.1-1.9-2-2.6
		c-1.7-1.6-4-2.5-6.4-2.5H31.3z"/>
	<path d="M76.3,37.2H80v18.2c0,0.7-0.1,1.5-0.4,2.2c-0.3,0.7-0.7,1.3-1.2,1.8c-0.5,0.5-1.1,0.9-1.7,1.2c-0.7,0.3-1.4,0.4-2.2,0.4
		c-0.4,0-0.7,0-1.1-0.1c-0.3-0.1-0.6-0.1-1-0.2c-0.6-0.2-1.1-0.4-1.5-0.8c-0.4-0.3-0.8-0.7-1.1-1.1c-0.3-0.4-0.5-0.8-0.8-1.2
		c-0.2-0.3-0.3-0.5-0.4-0.7c-0.1-0.2-0.2-0.4-0.3-0.6c-0.1-0.2-0.3-0.5-0.5-0.9l-0.7-1.5c-0.3-0.6-0.6-1.2-0.9-1.9
		c-0.3-0.7-0.7-1.4-1-2.1c-0.3-0.7-0.7-1.4-1-2.1c-0.3-0.7-0.7-1.3-1-1.9c-0.3-0.6-0.6-1.1-0.8-1.6c-0.2-0.5-0.4-0.8-0.5-1.1
		c-0.1-0.3-0.2-0.5-0.3-0.7c-0.1-0.2-0.2-0.4-0.3-0.6c-0.2-0.2-0.3-0.5-0.5-0.7c-0.1-0.1-0.3-0.2-0.4-0.3c-0.2-0.1-0.3-0.1-0.5-0.1
		c-0.5,0-1,0.2-1.4,0.6c-0.3,0.4-0.5,0.9-0.5,1.4V61h-3.8V42.8c0-1.4,0.5-2.9,1.5-3.9c0.5-0.5,1.1-0.9,1.8-1.2
		c0.7-0.3,1.4-0.4,2.1-0.4c0.7,0,1.5,0.1,2.2,0.3c0.7,0.2,1.3,0.6,1.8,1.2c0.4,0.4,0.7,0.8,1,1.3c0.2,0.3,0.4,0.7,0.7,1.1
		c0.2,0.4,0.4,0.8,0.7,1.3c0.3,0.6,0.7,1.4,1.2,2.5c0.5,1.1,1.1,2.2,1.6,3.3c0.6,1.2,1.1,2.3,1.6,3.3c0.5,1.1,0.9,1.9,1.2,2.5
		c0.1,0.1,0.2,0.3,0.2,0.4c0,0.1,0.1,0.2,0.1,0.2c0.2,0.3,0.3,0.6,0.4,0.8c0.1,0.2,0.2,0.5,0.3,0.7c0.1,0.1,0.1,0.2,0.2,0.3
		c0.1,0.1,0.2,0.3,0.3,0.4c0.1,0.1,0.3,0.2,0.4,0.3c0.2,0.1,0.4,0.1,0.6,0.1c0.3,0,0.6-0.1,0.8-0.2c0.2-0.1,0.4-0.2,0.6-0.4
		c0.3-0.4,0.5-0.9,0.5-1.4L76.3,37.2"/>
	<path d="M101.9,57.4c-0.1,0-0.1,0-0.2,0H84.4V61h14.6C100,59.9,101,58.7,101.9,57.4"/>
	<path d="M84.7,49c0.6,0.6,1.4,1.1,2.2,1.5c0.8,0.4,1.8,0.5,2.7,0.5h12.1c0.7,0,1.3,0.2,1.9,0.6c0.6,0.4,1,1,1.2,1.6
		c0.7-1.2,1.4-2.3,2-3.4c-0.1-0.1-0.2-0.2-0.3-0.4c-0.6-0.6-1.3-1.1-2.2-1.4c-0.8-0.4-1.7-0.5-2.6-0.5H89.6c-0.4,0-0.8-0.1-1.2-0.3
		c-0.4-0.2-0.7-0.4-1-0.8c-0.3-0.3-0.5-0.7-0.7-1c-0.2-0.4-0.2-0.8-0.2-1.2c0-0.4,0.1-0.9,0.2-1.3c0.2-0.4,0.4-0.7,0.7-1
		c0.6-0.6,1.4-1,2.2-1.1h17.1v-3.5H89.6c-0.9,0-1.8,0.2-2.7,0.6c-0.8,0.4-1.5,0.8-2.2,1.5c-0.6,0.6-1.1,1.4-1.5,2.2
		c-0.4,0.9-0.6,1.8-0.6,2.7c0,0.9,0.2,1.8,0.6,2.7C83.6,47.7,84.1,48.4,84.7,49"/>
	<path d="M119.9,61V44.1c0-0.9,0.2-1.8,0.5-2.6c0.4-0.8,0.9-1.6,1.5-2.2c0.6-0.6,1.4-1.1,2.2-1.5c0.8-0.4,1.8-0.6,2.7-0.6h15.7v3.6
		h-15.4c-0.4,0-0.9,0.1-1.3,0.3c-0.6,0.3-1.1,0.7-1.5,1.3c-0.4,0.6-0.6,1.2-0.6,1.9v2.6h18.8v3.5h-18.8V61H119.9z"/>
	<path d="M145.1,40.9h3.7v-3.7h-3.7V40.9z M145.1,61h3.7V44h-3.7V61z"/>
	<path d="M159,61c-0.9,0-1.8-0.2-2.7-0.6c-0.8-0.4-1.6-0.9-2.2-1.5c-0.6-0.6-1.1-1.4-1.5-2.2c-0.4-0.9-0.5-1.8-0.5-2.7V37.2h3.7V54
		c0,0.4,0.1,0.9,0.2,1.3c0.2,0.4,0.4,0.7,0.7,1.1c0.6,0.6,1.4,1,2.3,1.1l0.7,0V61H159"/>
	<path d="M170.3,61c-0.9,0-1.8-0.2-2.7-0.5c-0.8-0.3-1.6-0.8-2.2-1.5c-0.6-0.6-1.1-1.4-1.5-2.2c-0.4-0.8-0.6-1.8-0.6-2.7v-6.5h-1.6
		v-3.5h1.6v-4.9h3.8v4.9h5.1v3.5h-5.2v6.5c0,0.4,0.1,0.8,0.2,1.2c0.2,0.4,0.4,0.8,0.7,1.1c0.3,0.3,0.6,0.6,1,0.8
		c0.4,0.2,0.8,0.3,1.2,0.3h2.7V61H170.3z"/>
	<path d="M179.1,54.5c0,0.4,0.2,0.7,0.3,1c0.2,0.3,0.4,0.6,0.6,0.9c0.3,0.3,0.7,0.6,1.1,0.7c0.4,0.2,0.9,0.3,1.3,0.2h13.7V61h-13.9
		c-0.9,0-1.8-0.2-2.7-0.5c-0.8-0.3-1.6-0.8-2.2-1.5c-0.6-0.6-1.1-1.4-1.5-2.2c-0.4-0.9-0.6-1.8-0.6-2.7v-3.1c0-0.9,0.2-1.8,0.6-2.7
		c0.4-0.8,0.9-1.6,1.5-2.2c0.6-0.6,1.4-1.1,2.2-1.5c0.9-0.4,1.8-0.5,2.7-0.5h9.1c1.4,0,2.7,0.4,3.8,1.1c1.1,0.7,2,1.8,2.6,3.1
		c0.4,0.8,0.5,1.8,0.5,2.7v3.6H179.1z M180,48.6c-0.3,0.3-0.6,0.7-0.7,1.1c-0.2,0.4-0.3,0.9-0.3,1.3h15.4c0-0.4-0.1-0.9-0.3-1.3
		c-0.2-0.4-0.4-0.8-0.7-1.1c-0.3-0.3-0.7-0.6-1.1-0.7c-0.4-0.2-0.9-0.3-1.3-0.2h-8.6c-0.4,0-0.9,0.1-1.3,0.2
		C180.7,48,180.3,48.3,180,48.6z"/>
	<path d="M214.1,44.1v3.5h-6c-0.4,0-0.9,0.1-1.3,0.2c-0.4,0.2-0.8,0.4-1.1,0.7c-0.3,0.3-0.6,0.7-0.7,1.1c-0.2,0.4-0.3,0.9-0.3,1.3
		v10H201V50.9c0-0.9,0.2-1.8,0.6-2.7c0.3-0.8,0.8-1.6,1.5-2.2c0.6-0.6,1.4-1.1,2.2-1.5c0.8-0.3,1.7-0.5,2.6-0.5H214.1z"/>
	<path d="M104.1,33.1c3.2-2.4,6-3.3,7.7-2.2c3.6,2.4,0.8,13.1-6.3,24C98.4,65.8,89.7,72.6,86,70.3c-1.7-1.1-2-4-1.1-7.9
		c-2,6.3-1.9,11.3,0.8,13c4.6,3,15.2-5,23.6-17.9c8.5-12.9,11.6-25.8,7-28.8C113.7,26.9,109.1,28.8,104.1,33.1z"/>
</g>
</svg>
