<?xml version="1.0" encoding="UTF-8"?><svg id="a" xmlns="http://www.w3.org/2000/svg" viewBox="0 0 240 100"><defs><style>.b{fill:#000;stroke-width:0px;}</style></defs><path class="b" d="M189.88,58.92c-4.8,0-8.19-3.75-8.19-8.68s3.39-8.68,8.19-8.68,8.1,3.75,8.1,8.68-3.34,8.68-8.1,8.68ZM189.11,64.08c3.87,0,7.17-1.51,9.25-4.68.39,3.07,2.61,4.19,5.42,4.19h2.24v-4.87h-.96c-1.59,0-1.98-.77-1.98-2.58v-19.25h-5.14v3.95c-1.75-2.77-5.04-4.44-8.82-4.44-6.74,0-12.93,5.65-12.93,13.83s6.21,13.83,12.93,13.83v.02ZM162.66,57.4c0,4.38,2.71,6.19,5.95,6.19h6.25v-4.87h-4.55c-1.89,0-2.28-.72-2.28-2.58v-14.38h6.84v-4.87h-6.84v-8.96h-5.37v29.47ZM138.2,63.59h5.37v-11.45h1.8l9.15,11.45h6.79l-11.67-14.52,8.96-12.18h-6.05l-7.32,10.29h-1.65v-19.25h-5.37s0,35.66,0,35.66ZM120.76,36.41c-7.51,0-13.7,5.65-13.7,13.83s6.21,13.83,13.7,13.83,13.7-5.65,13.7-13.83-6.21-13.83-13.7-13.83ZM120.76,58.92c-4.8,0-8.19-3.75-8.19-8.68s3.39-8.68,8.19-8.68,8.19,3.75,8.19,8.68-3.39,8.68-8.19,8.68Z"/><path class="b" d="M65.17,22.04l-1.17,14.37c-.55-.06-1.1-.09-1.67-.09-.71,0-1.4.05-2.08.16l-.66-6.96c-.02-.22.16-.41.38-.41h1.18l-.57-7.04c-.02-.22.16-.41.36-.41h3.86c.22,0,.39.19.36.41h0v-.02ZM55.43,22.75c-.06-.2-.28-.33-.49-.25l-3.62,1.32c-.2.08-.3.32-.2.5l2.95,6.43-1.12.41c-.2.08-.3.32-.2.5l3.01,6.32c1.09-.6,2.27-1.06,3.51-1.34l-3.81-13.89h-.02ZM46.55,26.75l8.33,11.75c-1.06.69-2.02,1.51-2.84,2.46l-4.99-4.91c-.16-.16-.14-.41.02-.55l.91-.76-4.96-5.02c-.16-.16-.14-.41.03-.55l2.95-2.47c.17-.14.41-.11.54.06h.02ZM39.56,33.55c-.17-.13-.43-.06-.54.13l-1.92,3.34c-.11.19-.03.43.16.52l6.4,3.02-.6,1.02c-.11.19-.03.44.17.52l6.36,2.91c.46-1.18,1.07-2.28,1.83-3.28l-11.86-8.19ZM34.85,42.63c.03-.22.25-.35.46-.3l13.94,3.64c-.36,1.18-.57,2.43-.6,3.72l-6.98-.57c-.22-.02-.38-.22-.33-.44l.2-1.17-7.04-.66c-.22-.02-.36-.22-.33-.44l.66-3.8h0l.02.02ZM34.33,52.05c-.22.02-.36.22-.33.44l.68,3.8c.03.22.25.35.46.3l6.84-1.78.2,1.17c.03.22.25.35.46.3l6.74-1.86c-.39-1.17-.65-2.41-.71-3.69l-14.35,1.32h.02ZM36.56,62.03c-.11-.19-.03-.43.16-.52l13.01-6.17c.49,1.17,1.15,2.25,1.94,3.23l-5.7,4.06c-.17.13-.43.08-.54-.11l-.6-1.04-5.81,4.02c-.17.13-.43.06-.54-.13l-1.94-3.34h.02ZM52.33,59.33l-10.13,10.25c-.16.16-.14.41.03.55l2.96,2.47c.17.14.41.11.54-.06l4.1-5.77.91.77c.17.14.43.11.55-.08l3.97-5.77c-1.07-.66-2.06-1.46-2.91-2.38h-.02ZM50.33,75.79c-.2-.08-.3-.32-.2-.5l6-13.11c1.1.57,2.3.99,3.54,1.23l-1.76,6.77c-.05.2-.28.33-.49.25l-1.12-.41-1.87,6.82c-.06.2-.28.33-.49.25l-3.62-1.32h0l.02.02ZM60.66,63.58l-1.17,14.37c-.02.22.16.41.36.41h3.86c.22,0,.39-.19.36-.41l-.57-7.04h1.18c.22,0,.39-.19.38-.41l-.66-6.96c-.68.11-1.37.16-2.08.16-.57,0-1.12-.03-1.67-.11h0ZM74.56,24.69c.09-.2,0-.43-.2-.5l-3.62-1.32c-.2-.08-.43.05-.49.25l-1.87,6.82-1.12-.41c-.2-.08-.43.05-.49.25l-1.76,6.77c1.26.25,2.44.68,3.54,1.23l6.02-13.09h0ZM82.47,30.4l-10.13,10.25c-.85-.91-1.83-1.72-2.91-2.38l3.97-5.77c.13-.17.38-.22.55-.08l.91.77,4.1-5.77c.13-.17.38-.2.54-.06l2.96,2.47c.17.14.17.39.03.55h-.02ZM87.95,38.47c.2-.09.27-.33.16-.52l-1.94-3.34c-.11-.19-.36-.24-.54-.13l-5.81,4.02-.6-1.02c-.11-.19-.36-.25-.54-.11l-5.7,4.06c.79.98,1.43,2.06,1.94,3.23l13.01-6.17.02-.02ZM89.99,43.7l.66,3.8c.03.22-.11.41-.33.44l-14.35,1.34c-.06-1.29-.32-2.52-.71-3.69l6.74-1.86c.2-.06.43.08.46.3l.2,1.17,6.84-1.78c.2-.05.43.08.46.3h0l.03-.02ZM89.35,57.64c.2.05.43-.08.46-.3l.66-3.8c.03-.22-.11-.41-.33-.44l-7.04-.66.2-1.17c.03-.22-.11-.41-.33-.44l-6.98-.57c-.03,1.29-.24,2.54-.6,3.72l13.94,3.64h0l.02.02ZM85.63,66.3c-.11.19-.36.24-.54.13l-11.86-8.19c.76-.99,1.37-2.1,1.83-3.28l6.36,2.91c.2.09.28.33.17.52l-.6,1.02,6.4,3.02c.19.09.27.33.16.52l-1.92,3.34h0ZM69.77,61.47l8.33,11.75c.13.17.38.2.54.06l2.95-2.47c.17-.14.17-.39.03-.55l-4.96-5.02.91-.76c.17-.14.17-.39.02-.55l-4.99-4.91c-.83.95-1.78,1.78-2.84,2.46h.02ZM69.69,77.47c-.2.08-.43-.05-.49-.25l-3.81-13.89c1.24-.28,2.43-.74,3.51-1.34l3.01,6.32c.09.2,0,.44-.2.5l-1.12.41,2.95,6.43c.09.2,0,.43-.2.5l-3.62,1.32h-.02Z"/></svg>