<?xml version="1.0" encoding="utf-8"?>
<!-- Generator: Adobe Illustrator 27.1.1, SVG Export Plug-In . SVG Version: 6.00 Build 0)  -->
<svg version="1.1" id="Layer_1" xmlns="http://www.w3.org/2000/svg" xmlns:xlink="http://www.w3.org/1999/xlink" x="0px" y="0px"
	 viewBox="0 0 240 100" style="enable-background:new 0 0 240 100;" xml:space="preserve">
<style type="text/css">
	.st0{fill:#14B8A6;}
</style>
<g>
	<path class="st0" d="M83.3,50.5V32.6h3.8V40h7.7v-7.4h3.8v17.8h-3.8v-7.4h-7.7v7.4H83.3z M105.4,32.6v17.8h-3.8V32.6H105.4z
		 M108.5,50.5V32.6h7c1.4,0,2.5,0.3,3.5,0.8c1,0.5,1.7,1.2,2.2,2.1c0.5,0.9,0.8,2,0.8,3.1s-0.3,2.2-0.8,3.1
		c-0.5,0.9-1.3,1.6-2.2,2.1c-1,0.5-2.1,0.8-3.5,0.8H111v-3h3.9c0.7,0,1.3-0.1,1.8-0.4c0.5-0.3,0.8-0.6,1.1-1.1
		c0.2-0.5,0.4-1,0.4-1.6c0-0.6-0.1-1.1-0.4-1.5c-0.2-0.4-0.6-0.8-1.1-1c-0.5-0.2-1.1-0.4-1.8-0.4h-2.5v14.7H108.5z M125.4,50.5h-4
		l6.2-17.8h4.9l6.1,17.8h-4L130,36.7h-0.1L125.4,50.5z M125.1,43.5h9.5v2.9h-9.5V43.5z M143.7,50.5h-4l6.2-17.8h4.9l6.1,17.8h-4
		l-4.5-13.8h-0.1L143.7,50.5z M143.5,43.5h9.5v2.9h-9.5V43.5z"/>
	<path class="st0" d="M95.9,60.4H94c-0.1-0.5-0.3-1-0.6-1.4c-0.3-0.4-0.6-0.7-1-1c-0.4-0.3-0.8-0.5-1.3-0.6c-0.5-0.1-1-0.2-1.5-0.2
		c-0.9,0-1.8,0.2-2.5,0.7c-0.7,0.5-1.3,1.2-1.8,2.1c-0.4,0.9-0.7,2-0.7,3.4c0,1.3,0.2,2.4,0.7,3.4c0.4,0.9,1,1.6,1.8,2.1
		c0.8,0.5,1.6,0.7,2.5,0.7c0.5,0,1-0.1,1.5-0.2c0.5-0.1,0.9-0.3,1.3-0.6c0.4-0.3,0.7-0.6,1-1c0.3-0.4,0.5-0.9,0.6-1.4h1.9
		c-0.1,0.8-0.4,1.5-0.8,2.1c-0.4,0.6-0.8,1.1-1.4,1.6c-0.5,0.4-1.2,0.8-1.8,1c-0.7,0.2-1.4,0.3-2.2,0.3c-1.3,0-2.5-0.3-3.5-1
		c-1-0.6-1.8-1.5-2.4-2.7c-0.6-1.2-0.9-2.6-0.9-4.2c0-1.6,0.3-3,0.9-4.2c0.6-1.2,1.4-2.1,2.4-2.7c1-0.6,2.2-1,3.5-1
		c0.8,0,1.5,0.1,2.2,0.3c0.7,0.2,1.3,0.6,1.8,1c0.5,0.4,1,1,1.4,1.6C95.5,58.9,95.7,59.6,95.9,60.4z M111.8,63.3
		c0,1.6-0.3,3-0.9,4.2c-0.6,1.2-1.4,2.1-2.4,2.7s-2.2,1-3.5,1c-1.3,0-2.5-0.3-3.5-1c-1-0.6-1.8-1.5-2.4-2.7
		c-0.6-1.2-0.9-2.6-0.9-4.2c0-1.6,0.3-3,0.9-4.2c0.6-1.2,1.4-2.1,2.4-2.7c1-0.6,2.2-1,3.5-1c1.3,0,2.5,0.3,3.5,1
		c1,0.6,1.8,1.5,2.4,2.7C111.5,60.3,111.8,61.7,111.8,63.3z M110,63.3c0-1.3-0.2-2.4-0.7-3.4c-0.4-0.9-1-1.6-1.8-2.1
		c-0.7-0.5-1.6-0.7-2.5-0.7c-0.9,0-1.8,0.2-2.5,0.7c-0.7,0.5-1.3,1.2-1.8,2.1c-0.4,0.9-0.7,2-0.7,3.4c0,1.3,0.2,2.4,0.7,3.4
		c0.4,0.9,1,1.6,1.8,2.1c0.8,0.5,1.6,0.7,2.5,0.7c0.9,0,1.8-0.2,2.5-0.7c0.8-0.5,1.3-1.2,1.8-2.1C109.7,65.7,110,64.6,110,63.3z
		 M114.9,55.6h2.2l5.2,12.7h0.2l5.2-12.7h2.2v15.3h-1.7V59.3H128l-4.8,11.6h-1.7l-4.8-11.6h-0.1v11.6h-1.7V55.6z M133.6,70.9V55.6
		h5.2c1.2,0,2.2,0.2,2.9,0.6c0.8,0.4,1.3,1,1.7,1.7c0.4,0.7,0.6,1.5,0.6,2.4c0,0.9-0.2,1.7-0.6,2.5c-0.4,0.7-0.9,1.3-1.7,1.8
		c-0.8,0.4-1.7,0.6-2.9,0.6h-3.7v-1.6h3.6c0.8,0,1.5-0.1,2-0.4c0.5-0.3,0.9-0.7,1.1-1.1c0.2-0.5,0.3-1,0.3-1.6
		c0-0.6-0.1-1.2-0.3-1.6c-0.2-0.5-0.6-0.9-1.1-1.1c-0.5-0.3-1.2-0.4-2-0.4h-3.3v13.6H133.6z M146.9,70.9V55.6h1.9v13.6h7.1v1.6
		H146.9z M160.6,55.6v15.3h-1.9V55.6H160.6z M164.9,70.9H163l5.6-15.3h1.9l5.6,15.3h-1.9L169.6,58h-0.1L164.9,70.9z M165.6,64.9h7.8
		v1.6h-7.8V64.9z M190.6,55.6v15.3h-1.8l-8.3-12h-0.1v12h-1.9V55.6h1.8l8.4,12h0.1v-12H190.6z M193.5,57.3v-1.6h11.5v1.6h-4.8v13.6
		h-1.9V57.3H193.5z"/>
	<path class="st0" d="M48,38.3c-0.1-0.2-0.2-0.3-0.5-0.2c-0.6,0.2-1.2,0.4-1.9,0.4c-0.9,0-1.5-0.5-1.9-1.3c-0.1-0.2-0.2-0.3-0.5-0.3
		c-0.5,0-1.1,0-1.6-0.1c-0.7-0.2-1-0.6-1-1.4c0-0.2-0.1-0.2-0.3-0.2c-1.1,0-2.2,0-3.3-0.4c-0.9-0.3-1.6-0.9-2-1.8
		c-0.1-0.3-0.1-0.3,0.2-0.3c1.8,0,3.7,0,5.5,0c0,0,0,0,0,0c1.6,0,3.2,0,4.8,0c0.9,0,1.7-0.2,2.5-0.5c0.7-0.3,1.3-0.6,2-0.7
		c1.4-0.3,2.5,0.1,3.2,1.3c0,0,0,0,0,0.1c0.2,0.4,0.4,0.7,0.9,0.6c0.1,0,0.2,0,0.2,0.2c0,1.8,0,3.5,0,5.3c0,0.1,0,0.2-0.2,0.2
		c-0.4,0-0.8,0.1-1.2,0.3c-0.7,0.3-1.4,0.3-2,0c-0.2-0.1-0.4-0.1-0.6-0.1c-0.6,0.1-1.2,0.1-1.7-0.2C48.4,38.9,48.1,38.6,48,38.3z
		 M74.8,32.7c-2.9,0-5.8,0-8.7,0c-0.7,0-1.3-0.1-1.9-0.4c-0.7-0.3-1.3-0.6-2-0.8c-0.8-0.2-1.6-0.4-2.4,0c-0.6,0.3-1,0.8-1.3,1.5
		c-0.1,0.3-0.3,0.5-0.7,0.4c-0.2,0-0.3,0.1-0.3,0.3c0,1.1,0,2.3,0,3.4c0,0.6,0,1.2,0,1.8c0,0.1,0,0.2,0.2,0.3c0.4,0,0.8,0.1,1.2,0.3
		c0.7,0.3,1.4,0.3,2.1,0c0.2-0.1,0.3-0.1,0.5-0.1c0.3,0.1,0.6,0.1,0.9,0c0.6-0.1,1.1-0.3,1.5-0.8c0.1-0.2,0.2-0.4,0.3-0.5
		c0.2-0.1,0.4,0.1,0.6,0.2c0.5,0.1,0.9,0.3,1.4,0.3c1,0,1.7-0.4,2.1-1.3c0.1-0.2,0.2-0.3,0.4-0.2c0.4,0,0.8,0,1.2,0
		c1-0.2,1.4-0.5,1.5-1.5c0-0.2,0.1-0.1,0.2-0.1c0.3,0,0.6,0,0.9,0c1.2,0,2.3-0.2,3.3-0.8c0.6-0.4,1-0.9,1.2-1.7
		C76.2,32.7,75.5,32.7,74.8,32.7z M64,42c0.2,1.1,0.1,2.1-0.8,3c-1,1-2.2,1.6-3.5,1.9c-1.1,0.3-2.2,0.4-3.3,0.5
		c-0.5,0.1-1.1,0.1-1.6,0.2c-0.6,0.1-1.1,0.4-1.2,1c-0.2,0.7,0.1,1.2,0.6,1.7c0.2,0.1,0.3,0.3,0.6,0.4c-0.8,0.3-1.5,0.7-2.2,1.1
		c-0.1,0-0.1,0.1-0.2,0c-0.7-0.5-1.3-0.9-1.6-1.7c-0.4-1.1-0.2-2.2,0.5-3.1c0.9-1.3,2.2-2,3.7-2.1c1.1-0.1,2.2-0.2,3.4-0.3
		c1.2-0.1,2.3-0.4,3.2-1.1c0.3-0.2,0.4-0.5,0.4-0.8c0-0.3-0.3-0.5-0.6-0.4c-0.2,0-0.3,0.1-0.5,0.2c-0.5,0.3-1.1,0.7-1.7,0.8
		c-0.3,0.1-0.3,0.1-0.2-0.2c0-0.1,0-0.3,0-0.4c-0.1,0.2-0.2,0.3-0.3,0.5c-0.1,0.1-0.1,0.1-0.3,0.1c-0.7-0.1-1-0.6-0.8-1.3
		c0.2-0.9,1.2-1.8,2.2-1.9c0.8-0.1,1.5-0.1,2.2,0.1C62.9,40.4,63.7,40.9,64,42z M58.8,41.6c0-0.1-0.1-0.2-0.2-0.2
		c-0.1,0-0.2,0.1-0.2,0.2c0,0.1,0.1,0.2,0.2,0.2C58.7,41.8,58.7,41.7,58.8,41.6z M54.7,32.7c0.2,0.2,0.3,0.3,0.3,0.6
		c0,1.8,0,3.6,0,5.4c0,0,0,0,0,0c0,1.9,0,3.7,0,5.5c0,0.2,0,0.3,0.3,0.3c0.5-0.1,1.1-0.1,1.6-0.1c0.2,0,0.2-0.1,0.2-0.3
		c0-0.5,0-1,0-1.5c0-3.1,0-6.2,0-9.4c0-0.2,0-0.3,0.2-0.5c0.8-0.6,1.1-1.6,0.8-2.5c-0.3-0.9-1.3-1.4-2.2-1.3
		c-0.8,0.1-1.5,0.7-1.8,1.5C53.7,31.3,54,32.2,54.7,32.7z M60.6,47.2c-1,0.3-2,0.4-3,0.6c0,0.1,0,0.1,0.1,0.1
		c0.8,0.5,0.8,1.5-0.1,2.1c-0.4,0.2-0.8,0.4-1.2,0.6c-0.9,0.4-1.9,0.7-2.7,1.1c-0.8,0.4-1.4,0.9-1.8,1.7c-0.7,1.5-0.3,2.7,1.1,3.4
		c0.1,0,0.1,0.1,0.2,0c0.6-0.3,1.2-0.7,1.8-0.9c-0.1-0.1-0.1-0.1-0.2-0.1c-0.8-0.7-0.8-1.8,0.3-2.3c0.9-0.5,1.9-0.8,2.9-1.2
		c0.9-0.3,1.7-0.7,2.5-1.3c0.3-0.3,0.7-0.5,0.8-0.9c0.4-1,0.1-2-0.3-3C60.7,47.1,60.7,47.1,60.6,47.2z M51,46.2
		c-0.7-0.3-1.5-0.7-2.1-1.2c-1-0.9-1.2-2-0.8-3.2c0.2-0.7,0.8-1.2,1.5-1.5c1-0.4,2.1-0.5,3.2-0.1c0.9,0.3,1.6,0.9,1.7,2
		c0.1,0.7-0.3,1-0.9,1.1c-0.1,0-0.2-0.1-0.2-0.1c-0.1-0.2-0.2-0.3-0.3-0.5c0,0,0,0-0.1,0c0,0.1,0,0.3,0.1,0.4c0,0.2,0,0.2-0.2,0.2
		c-0.4-0.1-0.8-0.3-1.2-0.5c-0.2-0.1-0.4-0.3-0.7-0.4c-0.4-0.2-0.7-0.2-0.9,0.1c-0.2,0.3-0.1,0.7,0.3,1c0.6,0.4,1.2,0.7,1.8,0.8
		c0.5,0.1,1.1,0.2,1.6,0.3c0,0.1,0,0.1-0.1,0.1c-0.9,0.3-1.7,0.8-2.4,1.5C51.2,46.3,51.1,46.3,51,46.2z M53.2,41.6
		c0,0.1,0.1,0.2,0.2,0.2c0.1,0,0.2-0.1,0.2-0.2c0-0.1-0.1-0.2-0.2-0.2C53.3,41.4,53.2,41.4,53.2,41.6z M59.3,52.5
		c-0.1-0.1-0.2-0.1-0.4-0.1c-0.4,0.2-0.8,0.3-1.2,0.5c-0.2,0.1-0.4,0.1-0.5,0.2c-0.1,0.1,0.1,0.3,0.2,0.4c0.4,0.9,0.1,2-0.8,2.4
		c-0.1,0.1-0.2,0.1-0.4,0.2c-0.6,0.2-1.3,0.4-1.9,0.6c-0.9,0.3-1.6,0.9-1.9,1.9c-0.2,0.8-0.1,1.6,0.6,2.1c0.2,0.1,0.3,0.2,0.4,0
		c0.4-0.3,0.8-0.6,1.2-0.8c0.2-0.1,0.2-0.2,0.1-0.4c-0.3-0.5-0.2-0.8,0.3-1c0.5-0.2,1.1-0.5,1.6-0.7c0.7-0.3,1.5-0.6,2.2-1
		c0.9-0.5,1.4-1.3,1.4-2.2C60.4,53.7,60,53,59.3,52.5z M53.2,62.1c-0.3,0.5-0.2,1,0.3,1.4c0.4,0.3,0.8,0.4,1.2,0.6
		c0.2,0.1,0.2,0,0.1-0.2c0-0.2-0.1-0.4-0.1-0.7c0-0.4,0.1-0.6,0.5-0.8c1-0.5,1.9-1,2.8-1.4c0.5-0.2,0.8-0.6,0.9-1.2
		c0.1-0.2,0.1-0.5,0.1-0.7c0-0.4-0.1-1-0.2-1.3c-0.1-0.2-0.1-0.2-0.3-0.1c-0.4,0.2-0.8,0.4-1.2,0.5c-0.2,0.1-0.3,0.2-0.2,0.4
		c0.2,0.6,0,0.9-0.5,1.1c-0.5,0.2-1,0.4-1.5,0.7C54.3,60.8,53.7,61.3,53.2,62.1z M58.6,62.8c0.1-0.4,0.1-0.8-0.2-1.2
		c-0.1-0.2-0.2-0.3-0.4-0.1c-0.3,0.2-0.6,0.3-0.9,0.5c-0.1,0.1-0.2,0.1-0.1,0.3c0.1,0.3,0.1,0.6-0.2,0.9c-0.1,0.1-0.2,0.2-0.3,0.2
		c-0.8,0.5-1.6,1.1-2.4,1.6c-0.6,0.4-1.1,0.8-1.7,1.4c0.3,0,0.4-0.1,0.6-0.2c1.6-0.5,3-1.3,4.5-1.9C58.1,64,58.4,63.5,58.6,62.8z
		 M56.8,47.7c-0.5,0.1-1.1,0.1-1.6,0.2c-0.2,0-0.2,0.1-0.2,0.2c0,0.7,0,1.4,0,2.2c0,0.2,0.1,0.2,0.2,0.2c0.5-0.1,1-0.3,1.5-0.3
		c0.1,0,0.1,0,0.2-0.1c0.1,0,0.1-0.1,0.1-0.2c0,0,0,0,0-0.1c0-0.4,0-0.7,0-1.1c0-0.3,0-0.5,0-0.8C57,47.7,57,47.6,56.8,47.7z
		 M56.7,53.3c-0.5,0.2-1,0.4-1.5,0.6c-0.1,0-0.1,0.1-0.1,0.2c0,0.6,0,1.1,0,1.7c0,0.1,0,0.1,0.2,0.1c0.5-0.1,0.9-0.3,1.4-0.4
		c0.1,0,0.2-0.1,0.2-0.2c0-0.3,0-0.9,0-0.9c0-0.3,0-0.6,0-0.9C56.9,53.3,56.9,53.2,56.7,53.3z M56.3,65.1c-0.2,0.1-0.4,0.2-0.6,0.2
		c-0.2,0.1-0.2,0.2-0.2,0.3c0.1,1,0.1,2,0.2,3c0.1,0.7,0.1,1.4,0.3,2.2c0.1-0.1,0.1-0.2,0.1-0.2c0.1-0.5,0.1-1.1,0.2-1.6
		c0.1-1.3,0.2-2.6,0.3-3.8C56.5,65,56.4,65.1,56.3,65.1z M57.8,64.6c-0.1,0-0.1-0.1-0.2,0c-0.3,0.1-0.5,0.3-0.9,0.4
		c0.8,0.5,1.7,0.9,2.6,1.1C58.9,65.5,58.4,65,57.8,64.6z M56.6,58.5c-0.3,0.1-0.7,0.2-1,0.3c-0.5,0.2-0.4,0.1-0.4,0.6
		c0,0.1,0,0.2,0,0.3c0,0.2,0.1,0.2,0.2,0.1c0.2-0.1,0.5-0.2,0.7-0.3c0.6-0.2,0.6-0.2,0.6-0.9c0,0,0-0.1,0-0.1
		C56.8,58.4,56.7,58.4,56.6,58.5z M56.1,63.3c0.5-0.2,0.6-0.5,0.5-0.9c0-0.1,0-0.2-0.2-0.1c-0.3,0.1-0.7,0.3-1,0.4
		c-0.1,0-0.1,0.1-0.1,0.2c0,0.3,0,0.6,0,1C55.7,63.6,55.9,63.4,56.1,63.3z"/>
</g>
</svg>
