<?xml version="1.0" encoding="utf-8"?>
<!-- Generator: Adobe Illustrator 27.0.1, SVG Export Plug-In . SVG Version: 6.00 Build 0)  -->
<svg version="1.1" id="Layer_1" xmlns="http://www.w3.org/2000/svg" xmlns:xlink="http://www.w3.org/1999/xlink" x="0px" y="0px"
	 viewBox="0 0 240 100" style="enable-background:new 0 0 240 100;" xml:space="preserve">
<style type="text/css">
	.st0{fill:#000000;}
</style>
<polygon class="st0" points="146.4,24.8 146.4,41.9 142.6,43.3 142.6,23.5 130.9,19.4 130.9,47.3 127,48.7 127,18 121.1,16 
	115.3,18 115.3,48.7 111.4,47.3 111.4,19.4 99.7,23.5 99.7,43.3 95.8,41.9 95.8,24.8 91.9,26.2 91.9,44.7 103.6,48.8 103.6,26.2 
	107.5,24.9 107.5,50.1 119.2,54.2 119.2,20.8 121.1,20.1 123.1,20.8 123.1,54.2 134.8,50.1 134.8,24.9 138.6,26.2 138.6,48.8 
	150.4,44.7 150.4,26.2 "/>
<polygon class="st0" points="51.7,76.4 58.7,76.4 58.7,74.5 51.7,74.5 51.7,70.4 62.1,70.4 62.1,68.6 49.6,68.6 49.6,82.9 
	62.5,82.9 62.5,81.1 51.7,81.1 "/>
<path class="st0" d="M106.5,77.2c0.1,2.2-1.5,4.1-3.7,4.3c-0.2,0-0.3,0-0.5,0c-2.4,0-4-1.7-4-4.3v-8.6h-2.1v8.7
	c-0.1,3.2,2.3,5.9,5.5,6c0.2,0,0.3,0,0.5,0c4.7,0,6.3-3.2,6.3-6v-8.7h-2.1L106.5,77.2z"/>
<rect x="120.1" y="68.6" class="st0" width="2.1" height="14.3"/>
<polygon class="st0" points="146.7,79.8 136.6,68.6 134.5,68.6 134.5,82.9 136.6,82.9 136.6,71.6 146.8,82.9 148.8,82.9 148.8,68.6 
	146.7,68.6 "/>
<rect x="161.3" y="68.6" class="st0" width="2.1" height="14.3"/>
<polygon class="st0" points="183.4,75.1 189.4,68.6 186.8,68.6 182.1,73.7 177.4,68.6 174.8,68.6 180.5,75.1 173.3,82.9 175.9,82.9 
	181.9,76.5 187.5,82.9 190.4,82.9 "/>
<path class="st0" d="M78.1,68c-4.1,0-7.5,3.3-7.6,7.4c0,0.1,0,0.2,0,0.4v0.1c-0.1,4.1,3.1,7.5,7.2,7.6c0.1,0,0.3,0,0.4,0
	c1.2,0,2.3-0.3,3.3-0.8l1.2,1.3h2.4l-2-2.3c1.8-1.5,2.8-3.7,2.7-6v-0.1c0.1-4.1-3.2-7.5-7.3-7.6C78.4,68,78.2,68,78.1,68z
	 M83.6,75.8c0.1,1.7-0.6,3.3-1.8,4.5l-1.1-1.3h-2.4l2,2.2c-0.6,0.3-1.3,0.4-2,0.4c-3.1,0-5.5-2.5-5.5-5.6c0-0.1,0-0.2,0-0.2v-0.1
	c0-3.4,2.3-5.9,5.4-5.9c3.1,0,5.6,2.5,5.6,5.6C83.7,75.5,83.7,75.6,83.6,75.8L83.6,75.8z"/>
</svg>
