<?xml version="1.0" encoding="utf-8"?>
<!-- Generator: Adobe Illustrator 27.1.1, SVG Export Plug-In . SVG Version: 6.00 Build 0)  -->
<svg version="1.1" id="Layer_1" xmlns="http://www.w3.org/2000/svg" xmlns:xlink="http://www.w3.org/1999/xlink" x="0px" y="0px"
	 viewBox="0 0 240 100" style="enable-background:new 0 0 240 100;" xml:space="preserve">
<g>
	<path d="M176.1,56.1c0.5-1.5,0.3-3-0.5-4.4c-0.8-1-2.2-1.7-3.5-1.8l-29.1-0.3c-0.2,0-0.3-0.2-0.5-0.2c-0.2-0.2-0.2-0.3,0-0.5l0,0
		c0.2-0.3,0.3-0.5,0.7-0.5l29.3-0.3c3.8-0.5,7-2.8,8.5-6.4l1.7-4.4c0-0.2,0.2-0.3,0-0.5c-2.3-10.2-12.6-16.7-22.8-14.4
		c-6.5,1.5-11.7,6.2-13.9,12.4c-1.7-1.2-3.8-1.8-6-1.7c-4,0.5-7.2,3.7-7.7,7.7c-0.2,1,0,2,0.2,3c-6.7,0.2-11.9,5.5-11.9,12.2
		c0,0.7,0,1.2,0.2,1.8c0,0.3,0.2,0.5,0.5,0.5h53.7c0.3,0,0.7-0.2,0.7-0.5L176.1,56.1z"/>
	<path d="M185.3,37.4h-0.8c-0.2,0-0.3,0.2-0.5,0.3l-1.2,4c-0.5,1.5-0.3,3,0.5,4.4c0.8,1,2.2,1.7,3.5,1.8l6.2,0.3
		c0.2,0,0.3,0.2,0.5,0.2c0.2,0.2,0.2,0.3,0,0.5l0,0c-0.2,0.3-0.3,0.5-0.7,0.5l-6.4,0.3c-3.8,0.5-7,2.8-8.5,6.4l-0.3,1.5
		c-0.2,0.2,0,0.5,0.3,0.5H200c0.2,0,0.5-0.2,0.5-0.3v-0.2c0.3-1.3,0.7-2.8,0.7-4.4C201.2,44.5,194,37.4,185.3,37.4"/>
	<path d="M203.3,67.5c-0.8,0-1.5-0.7-1.5-1.5s0.7-1.5,1.5-1.5s1.5,0.7,1.5,1.5S204.2,67.5,203.3,67.5L203.3,67.5 M203.3,64.8
		c-0.7,0-1.2,0.5-1.2,1.2s0.5,1.2,1.2,1.2c0.7,0,1.2-0.5,1.2-1.2l0,0C204.5,65.3,204,64.8,203.3,64.8L203.3,64.8 M204,66.8h-0.3
		l-0.3-0.5H203v0.5h-0.3v-1.5h0.8c0.2,0,0.5,0.2,0.5,0.3v0.2c0,0.2-0.2,0.3-0.3,0.5L204,66.8L204,66.8z M203.5,66
		c0.2,0,0.2,0,0.2-0.2c0-0.2,0-0.2-0.2-0.2l0,0H203v0.5L203.5,66L203.5,66z M53.4,64.5h3.7v10h6.4v3.2h-10V64.5z M67.3,71
		c0-3.8,3-6.9,6.9-6.9c0.2,0,0.2,0,0.3,0c3.7-0.2,6.9,2.7,7,6.4c0,0.2,0,0.3,0,0.5c0,3.8-3,6.9-6.9,6.9c-0.2,0-0.2,0-0.3,0
		c-3.8,0.2-6.9-2.8-7-6.7C67.3,71.2,67.3,71,67.3,71 M77.8,71c0.2-1.8-1.3-3.5-3.2-3.7h-0.2c-2,0.2-3.5,1.7-3.3,3.7
		c0.2,1.8,1.5,3.2,3.3,3.3C76.5,74.7,77.8,73,77.8,71 M86,71.8v-7.4h3.7v7.4c0,1.8,1,2.8,2.5,2.8c1.3,0.2,2.3-0.8,2.5-2.2
		c0-0.2,0-0.3,0-0.5v-7.5h3.7v7.4c0,4.4-2.5,6.2-6.2,6.2C88.4,77.9,86,76,86,71.8 M103.9,64.5h5.2c4.7,0,7.5,2.7,7.5,6.5
		c0,3.8-2.8,6.7-7.5,6.7h-5L103.9,64.5L103.9,64.5z M109.1,74.3c1.8,0.2,3.5-1.2,3.7-3c0.2-1.8-1.2-3.5-3-3.7c-0.2,0-0.5,0-0.7,0
		h-1.5v6.7H109.1z M121.8,64.5h10.5v3.2h-6.9v2.2h6.2v3h-6.2v4.9h-3.7V64.5z M137.6,64.5h3.7v10h6.4v3.2h-10
		C137.6,77.7,137.6,64.5,137.6,64.5z M157.2,64.3h3.7l5.7,13.4h-4l-1-2.3h-5.2l-1,2.3h-3.8L157.2,64.3z M160.5,72.5l-1.5-3.7
		l-1.5,3.7H160.5z M171.2,64.5h6.2c1.7-0.2,3.2,0.3,4.4,1.5c1.7,1.8,1.5,4.5-0.2,6.2c-0.3,0.3-0.8,0.7-1.3,0.8l3.2,4.7h-4.2l-2.7-4
		h-1.7v4h-3.7V64.5z M177.2,70.8c1.2,0,2-0.7,2-1.5c0-1-0.8-1.5-2-1.5h-2.3V71h2.3V70.8z M188.1,64.5h10.7v3h-7v2h6.4v3h-6.4v2h7.2
		v3.2h-10.9L188.1,64.5z M45.4,72.7c-0.5,1.2-1.7,2-3,2c-2-0.2-3.5-1.7-3.3-3.7c0.2-1.8,1.5-3.2,3.3-3.3c1.3,0,2.7,0.8,3.2,2.2h3.8
		c-0.7-3.3-3.7-5.7-7-5.5c-3.8-0.2-7,2.8-7.2,6.7c0,0,0,0,0,0.2c0,3.8,3,6.9,6.9,6.9h0.2c3.3,0,6.2-2.2,7-5.4H45.4z"/>
</g>
</svg>
