<svg width="2013" height="1408" viewBox="0 0 2013 1408" fill="none" xmlns="http://www.w3.org/2000/svg">
<g clip-path="url(#clip0_739_411)">
<path d="M1997 1383.58C1976 1374.98 1934 1359.18 1892 1340.56C1850 1321.94 1829 1310.54 1787 1290.47C1745 1270.4 1724 1261.82 1682 1240.23C1640 1218.64 1619 1217.36 1577 1182.54C1535 1147.72 1514 1103.74 1472 1066.14C1430 1028.53 1409 1006.83 1367 994.525C1325 982.223 1304 983.708 1262 1004.63C1220 1025.55 1199 1129.8 1157 1099.12C1115 1068.44 1094 877.09 1052 851.226C1010 825.36 989 997.585 947 969.79C905 941.996 884 716.123 842 712.251C800 708.38 779 995.598 737 950.431C695 905.265 674 544.371 632 486.418C590 428.465 569 597.355 527 660.664C485 723.972 464 849.871 422 802.962C380 756.052 359 461.431 317 426.116C275 390.802 254 662.648 212 626.388C170 590.129 149 369.61 107 244.819C65 120.029 23 50.9121 2 2.43506L-3 1400H1997V1383.58Z" fill="#2563EB" fill-opacity="0.102"/>
<path d="M1997 1383.58C1976 1374.98 1934 1359.18 1892 1340.56C1850 1321.94 1829 1310.54 1787 1290.47C1745 1270.4 1724 1261.82 1682 1240.23C1640 1218.64 1619 1217.36 1577 1182.54C1535 1147.72 1514 1103.74 1472 1066.14C1430 1028.53 1409 1006.83 1367 994.525C1325 982.223 1304 983.708 1262 1004.63C1220 1025.55 1199 1129.8 1157 1099.12C1115 1068.44 1094 877.09 1052 851.226C1010 825.36 989 997.585 947 969.79C905 941.996 884 716.123 842 712.251C800 708.38 779 995.598 737 950.431C695 905.265 674 544.371 632 486.418C590 428.465 569 597.355 527 660.664C485 723.972 464 849.871 422 802.962C380 756.052 359 461.431 317 426.116C275 390.802 254 662.648 212 626.388C170 590.129 149 369.61 107 244.819C65 120.029 23 50.9121 2 2.43506" stroke="#0284C7" stroke-width="4"/>
<path d="M1997 1391.58C1992.58 1391.58 1989 1388 1989 1383.58C1989 1379.16 1992.58 1375.58 1997 1375.58C2001.42 1375.58 2005 1379.16 2005 1383.58C2005 1388 2001.42 1391.58 1997 1391.58Z" fill="#0891B2"/>
<path d="M1892 1348.56C1887.58 1348.56 1884 1344.98 1884 1340.56C1884 1336.14 1887.58 1332.56 1892 1332.56C1896.42 1332.56 1900 1336.14 1900 1340.56C1900 1344.98 1896.42 1348.56 1892 1348.56Z" fill="#0891B2"/>
<path d="M1787 1298.47C1782.58 1298.47 1779 1294.89 1779 1290.47C1779 1286.05 1782.58 1282.47 1787 1282.47C1791.42 1282.47 1795 1286.05 1795 1290.47C1795 1294.89 1791.42 1298.47 1787 1298.47Z" fill="#0891B2"/>
<path d="M1682 1248.23C1677.58 1248.23 1674 1244.65 1674 1240.23C1674 1235.81 1677.58 1232.23 1682 1232.23C1686.42 1232.23 1690 1235.81 1690 1240.23C1690 1244.65 1686.42 1248.23 1682 1248.23Z" fill="#0891B2"/>
<path d="M1577 1190.54C1572.58 1190.54 1569 1186.96 1569 1182.54C1569 1178.12 1572.58 1174.54 1577 1174.54C1581.42 1174.54 1585 1178.12 1585 1182.54C1585 1186.96 1581.42 1190.54 1577 1190.54Z" fill="#0891B2"/>
<path d="M1472 1074.14C1467.58 1074.14 1464 1070.55 1464 1066.14C1464 1061.72 1467.58 1058.14 1472 1058.14C1476.42 1058.14 1480 1061.72 1480 1066.14C1480 1070.55 1476.42 1074.14 1472 1074.14Z" fill="#0891B2"/>
<path d="M1367 1002.53C1362.58 1002.53 1359 998.943 1359 994.525C1359 990.107 1362.58 986.525 1367 986.525C1371.42 986.525 1375 990.107 1375 994.525C1375 998.943 1371.42 1002.53 1367 1002.53Z" fill="#0891B2"/>
<path d="M1262 1012.63C1257.58 1012.63 1254 1009.05 1254 1004.63C1254 1000.21 1257.58 996.627 1262 996.627C1266.42 996.627 1270 1000.21 1270 1004.63C1270 1009.05 1266.42 1012.63 1262 1012.63Z" fill="#0891B2"/>
<path d="M1157 1107.12C1152.58 1107.12 1149 1103.53 1149 1099.12C1149 1094.7 1152.58 1091.12 1157 1091.12C1161.42 1091.12 1165 1094.7 1165 1099.12C1165 1103.53 1161.42 1107.12 1157 1107.12Z" fill="#0891B2"/>
<path d="M1052 859.225C1047.58 859.225 1044 855.643 1044 851.225C1044 846.807 1047.58 843.225 1052 843.225C1056.42 843.225 1060 846.807 1060 851.225C1060 855.643 1056.42 859.225 1052 859.225Z" fill="#0891B2"/>
<path d="M947 977.79C942.582 977.79 939 974.208 939 969.79C939 965.372 942.582 961.79 947 961.79C951.418 961.79 955 965.372 955 969.79C955 974.208 951.418 977.79 947 977.79Z" fill="#0891B2"/>
<path d="M842 720.251C837.582 720.251 834 716.669 834 712.251C834 707.833 837.582 704.251 842 704.251C846.418 704.251 850 707.833 850 712.251C850 716.669 846.418 720.251 842 720.251Z" fill="#0891B2"/>
<path d="M737 958.431C732.582 958.431 729 954.849 729 950.431C729 946.013 732.582 942.431 737 942.431C741.418 942.431 745 946.013 745 950.431C745 954.849 741.418 958.431 737 958.431Z" fill="#0891B2"/>
<path d="M632 494.418C627.582 494.418 624 490.836 624 486.418C624 482 627.582 478.418 632 478.418C636.418 478.418 640 482 640 486.418C640 490.836 636.418 494.418 632 494.418Z" fill="#0891B2"/>
<path d="M527 668.664C522.582 668.664 519 665.082 519 660.664C519 656.246 522.582 652.664 527 652.664C531.418 652.664 535 656.246 535 660.664C535 665.082 531.418 668.664 527 668.664Z" fill="#0891B2"/>
<path d="M422 810.962C417.582 810.962 414 807.38 414 802.962C414 798.544 417.582 794.962 422 794.962C426.418 794.962 430 798.544 430 802.962C430 807.38 426.418 810.962 422 810.962Z" fill="#0891B2"/>
<path d="M317 434.116C312.582 434.116 309 430.534 309 426.116C309 421.698 312.582 418.116 317 418.116C321.418 418.116 325 421.698 325 426.116C325 430.534 321.418 434.116 317 434.116Z" fill="#0891B2"/>
<path d="M212 634.388C207.582 634.388 204 630.806 204 626.388C204 621.97 207.582 618.388 212 618.388C216.418 618.388 220 621.97 220 626.388C220 630.806 216.418 634.388 212 634.388Z" fill="#0891B2"/>
<path d="M107 252.819C102.582 252.819 99 249.237 99 244.819C99 240.401 102.582 236.819 107 236.819C111.418 236.819 115 240.401 115 244.819C115 249.237 111.418 252.819 107 252.819Z" fill="#0891B2"/>
<path d="M2 10.4351C-2.41828 10.4351 -6 6.85334 -6 2.43506C-6 -1.98322 -2.41828 -5.56494 2 -5.56494C6.41828 -5.56494 10 -1.98322 10 2.43506C10 6.85334 6.41828 10.4351 2 10.4351Z" fill="#0891B2"/>
</g>
<g clip-path="url(#clip1_739_411)">
<path d="M2 7C8.8 9.592 22.4 12.08 36 19.962C49.6 27.844 56.4 42.383 70 46.412C83.6 50.44 90.4 31.362 104 40.102C117.6 48.843 124.4 83.927 138 90.114C151.6 96.3 158.4 61.1 172 71.035C185.6 80.97 192.4 123.481 206 139.789C219.6 156.097 226.4 142.753 240 152.573C253.6 162.394 260.4 181.087 274 188.893C287.6 196.697 294.4 191.874 308 191.598C321.6 191.321 328.4 194.468 342 187.51C355.6 180.552 362.4 157.354 376 156.81C389.6 156.266 396.4 176.092 410 184.79C423.6 193.489 430.4 182.814 444 200.302C457.6 217.789 464.4 262.259 478 272.227C491.6 282.196 498.4 260.727 512 250.144C525.6 239.56 532.4 199.197 546 219.308C559.6 239.419 566.4 310.54 580 350.7C593.6 390.86 600.4 411.843 614 420.106C627.6 428.37 634.4 407.238 648 392.016C661.6 376.794 668.4 345.634 682 343.996C695.6 342.36 702.4 365.473 716 383.831C729.6 402.188 736.4 432.771 750 435.783C763.6 438.795 770.4 390.127 784 398.889C797.6 407.65 804.4 462.705 818 479.591C831.6 496.476 838.4 486.478 852 483.314C865.6 480.151 872.4 431.072 886 463.773C899.6 496.473 906.4 609.51 920 646.818C933.6 684.125 940.4 696.541 954 650.311C967.6 604.081 974.4 412.123 988 415.667C1001.6 419.211 1008.4 666.967 1022 668.03C1035.6 669.093 1042.4 402.47 1056 420.981C1069.6 439.493 1076.4 705.755 1090 760.589C1103.6 815.423 1110.4 687.446 1124 695.152C1137.6 702.857 1144.4 829.167 1158 799.117C1171.6 769.067 1178.4 532.812 1192 544.903C1205.6 556.993 1212.4 878.49 1226 859.57C1239.6 840.65 1246.4 468.718 1260 450.303C1273.6 431.889 1280.4 684.483 1294 767.497C1307.6 850.51 1314.4 827.659 1328 865.372C1341.6 903.084 1348.4 989.393 1362 956.06C1375.6 922.726 1382.4 759.014 1396 698.702C1409.6 638.39 1416.4 624.263 1430 654.499C1443.6 684.735 1450.4 784.361 1464 849.88C1477.6 915.4 1484.4 944.567 1498 982.096C1511.6 1019.62 1518.4 1032.45 1532 1037.52C1545.6 1042.6 1552.4 1026.85 1566 1007.47C1579.6 988.098 1586.4 966.14 1600 940.652C1613.6 915.163 1620.4 897.44 1634 880.029C1647.6 862.619 1654.4 900.173 1668 853.599C1681.6 807.026 1688.4 666.945 1702 647.163C1715.6 627.38 1722.4 748.593 1736 754.686C1749.6 760.78 1756.4 665.702 1770 677.63C1783.6 689.558 1790.4 692.252 1804 814.326C1817.6 936.4 1824.4 1274.64 1838 1288C1851.6 1301.36 1858.4 987.137 1872 881.122C1885.6 775.108 1892.4 748.223 1906 757.924C1919.6 767.626 1926.4 815.811 1940 929.627C1953.6 1043.44 1960.4 1260.97 1974 1327.01C1987.6 1393.05 2001.2 1273.26 2008 1259.82L2002 1400H2V7Z" fill="#00BBA7" fill-opacity="0.101961"/>
<path d="M2 7C8.8 9.592 22.4 12.08 36 19.962C49.6 27.844 56.4 42.383 70 46.412C83.6 50.44 90.4 31.362 104 40.102C117.6 48.843 124.4 83.927 138 90.114C151.6 96.3 158.4 61.1 172 71.035C185.6 80.97 192.4 123.481 206 139.789C219.6 156.097 226.4 142.753 240 152.573C253.6 162.394 260.4 181.087 274 188.893C287.6 196.697 294.4 191.874 308 191.598C321.6 191.321 328.4 194.468 342 187.51C355.6 180.552 362.4 157.354 376 156.81C389.6 156.266 396.4 176.092 410 184.79C423.6 193.489 430.4 182.814 444 200.302C457.6 217.789 464.4 262.259 478 272.227C491.6 282.196 498.4 260.727 512 250.144C525.6 239.56 532.4 199.197 546 219.308C559.6 239.419 566.4 310.54 580 350.7C593.6 390.86 600.4 411.843 614 420.106C627.6 428.37 634.4 407.238 648 392.016C661.6 376.794 668.4 345.634 682 343.996C695.6 342.36 702.4 365.473 716 383.831C729.6 402.188 736.4 432.771 750 435.783C763.6 438.795 770.4 390.127 784 398.889C797.6 407.65 804.4 462.705 818 479.591C831.6 496.476 838.4 486.478 852 483.314C865.6 480.151 872.4 431.072 886 463.773C899.6 496.473 906.4 609.51 920 646.818C933.6 684.125 940.4 696.541 954 650.311C967.6 604.081 974.4 412.123 988 415.667C1001.6 419.211 1008.4 666.967 1022 668.03C1035.6 669.093 1042.4 402.47 1056 420.981C1069.6 439.493 1076.4 705.755 1090 760.589C1103.6 815.423 1110.4 687.446 1124 695.152C1137.6 702.857 1144.4 829.167 1158 799.117C1171.6 769.067 1178.4 532.812 1192 544.903C1205.6 556.993 1212.4 878.49 1226 859.57C1239.6 840.65 1246.4 468.718 1260 450.303C1273.6 431.889 1280.4 684.483 1294 767.497C1307.6 850.51 1314.4 827.659 1328 865.372C1341.6 903.084 1348.4 989.393 1362 956.06C1375.6 922.726 1382.4 759.014 1396 698.702C1409.6 638.39 1416.4 624.263 1430 654.499C1443.6 684.735 1450.4 784.361 1464 849.88C1477.6 915.4 1484.4 944.567 1498 982.096C1511.6 1019.62 1518.4 1032.45 1532 1037.52C1545.6 1042.6 1552.4 1026.85 1566 1007.47C1579.6 988.098 1586.4 966.14 1600 940.652C1613.6 915.163 1620.4 897.44 1634 880.029C1647.6 862.619 1654.4 900.173 1668 853.599C1681.6 807.026 1688.4 666.945 1702 647.163C1715.6 627.38 1722.4 748.593 1736 754.686C1749.6 760.78 1756.4 665.702 1770 677.63C1783.6 689.558 1790.4 692.252 1804 814.326C1817.6 936.4 1824.4 1274.64 1838 1288C1851.6 1301.36 1858.4 987.137 1872 881.122C1885.6 775.108 1892.4 748.223 1906 757.924C1919.6 767.626 1926.4 815.811 1940 929.627C1953.6 1043.44 1960.4 1260.97 1974 1327.01C1987.6 1393.05 2001.2 1273.26 2008 1259.82" stroke="#00BBA7" stroke-width="2"/>
<path d="M2 13C5.31371 13 8 10.3137 8 7C8 3.68629 5.31371 1 2 1C-1.31371 1 -4 3.68629 -4 7C-4 10.3137 -1.31371 13 2 13Z" fill="#00BBA7"/>
<path d="M36 25.9619C39.3137 25.9619 42 23.2756 42 19.9619C42 16.6482 39.3137 13.9619 36 13.9619C32.6863 13.9619 30 16.6482 30 19.9619C30 23.2756 32.6863 25.9619 36 25.9619Z" fill="#00BBA7"/>
<path d="M70 52.4121C73.3137 52.4121 76 49.7258 76 46.4121C76 43.0984 73.3137 40.4121 70 40.4121C66.6863 40.4121 64 43.0984 64 46.4121C64 49.7258 66.6863 52.4121 70 52.4121Z" fill="#00BBA7"/>
<path d="M104 46.103C107.314 46.103 110 43.4167 110 40.103C110 36.7893 107.314 34.103 104 34.103C100.686 34.103 98 36.7893 98 40.103C98 43.4167 100.686 46.103 104 46.103Z" fill="#00BBA7"/>
<path d="M138 96.114C141.314 96.114 144 93.4277 144 90.114C144 86.8003 141.314 84.114 138 84.114C134.686 84.114 132 86.8003 132 90.114C132 93.4277 134.686 96.114 138 96.114Z" fill="#00BBA7"/>
<path d="M172 77.0349C175.314 77.0349 178 74.3486 178 71.0349C178 67.7212 175.314 65.0349 172 65.0349C168.686 65.0349 166 67.7212 166 71.0349C166 74.3486 168.686 77.0349 172 77.0349Z" fill="#00BBA7"/>
<path d="M206 145.789C209.314 145.789 212 143.103 212 139.789C212 136.475 209.314 133.789 206 133.789C202.686 133.789 200 136.475 200 139.789C200 143.103 202.686 145.789 206 145.789Z" fill="#00BBA7"/>
<path d="M240 158.573C243.314 158.573 246 155.887 246 152.573C246 149.259 243.314 146.573 240 146.573C236.686 146.573 234 149.259 234 152.573C234 155.887 236.686 158.573 240 158.573Z" fill="#00BBA7"/>
<path d="M274 194.892C277.314 194.892 280 192.206 280 188.892C280 185.578 277.314 182.892 274 182.892C270.686 182.892 268 185.578 268 188.892C268 192.206 270.686 194.892 274 194.892Z" fill="#00BBA7"/>
<path d="M308 197.598C311.314 197.598 314 194.912 314 191.598C314 188.284 311.314 185.598 308 185.598C304.686 185.598 302 188.284 302 191.598C302 194.912 304.686 197.598 308 197.598Z" fill="#00BBA7"/>
<path d="M342 193.51C345.314 193.51 348 190.824 348 187.51C348 184.196 345.314 181.51 342 181.51C338.686 181.51 336 184.196 336 187.51C336 190.824 338.686 193.51 342 193.51Z" fill="#00BBA7"/>
<path d="M376 162.81C379.314 162.81 382 160.124 382 156.81C382 153.496 379.314 150.81 376 150.81C372.686 150.81 370 153.496 370 156.81C370 160.124 372.686 162.81 376 162.81Z" fill="#00BBA7"/>
<path d="M410 190.79C413.314 190.79 416 188.104 416 184.79C416 181.476 413.314 178.79 410 178.79C406.686 178.79 404 181.476 404 184.79C404 188.104 406.686 190.79 410 190.79Z" fill="#00BBA7"/>
<path d="M444 206.302C447.314 206.302 450 203.616 450 200.302C450 196.988 447.314 194.302 444 194.302C440.686 194.302 438 196.988 438 200.302C438 203.616 440.686 206.302 444 206.302Z" fill="#00BBA7"/>
<path d="M478 278.227C481.314 278.227 484 275.541 484 272.227C484 268.913 481.314 266.227 478 266.227C474.686 266.227 472 268.913 472 272.227C472 275.541 474.686 278.227 478 278.227Z" fill="#00BBA7"/>
<path d="M512 256.144C515.314 256.144 518 253.458 518 250.144C518 246.83 515.314 244.144 512 244.144C508.686 244.144 506 246.83 506 250.144C506 253.458 508.686 256.144 512 256.144Z" fill="#00BBA7"/>
<path d="M546 225.308C549.314 225.308 552 222.622 552 219.308C552 215.994 549.314 213.308 546 213.308C542.686 213.308 540 215.994 540 219.308C540 222.622 542.686 225.308 546 225.308Z" fill="#00BBA7"/>
<path d="M580 356.7C583.314 356.7 586 354.014 586 350.7C586 347.386 583.314 344.7 580 344.7C576.686 344.7 574 347.386 574 350.7C574 354.014 576.686 356.7 580 356.7Z" fill="#00BBA7"/>
<path d="M614 426.106C617.314 426.106 620 423.42 620 420.106C620 416.792 617.314 414.106 614 414.106C610.686 414.106 608 416.792 608 420.106C608 423.42 610.686 426.106 614 426.106Z" fill="#00BBA7"/>
<path d="M648 398.016C651.314 398.016 654 395.33 654 392.016C654 388.702 651.314 386.016 648 386.016C644.686 386.016 642 388.702 642 392.016C642 395.33 644.686 398.016 648 398.016Z" fill="#00BBA7"/>
<path d="M682 349.997C685.314 349.997 688 347.311 688 343.997C688 340.683 685.314 337.997 682 337.997C678.686 337.997 676 340.683 676 343.997C676 347.311 678.686 349.997 682 349.997Z" fill="#00BBA7"/>
<path d="M716 389.831C719.314 389.831 722 387.145 722 383.831C722 380.517 719.314 377.831 716 377.831C712.686 377.831 710 380.517 710 383.831C710 387.145 712.686 389.831 716 389.831Z" fill="#00BBA7"/>
<path d="M750 441.783C753.314 441.783 756 439.097 756 435.783C756 432.469 753.314 429.783 750 429.783C746.686 429.783 744 432.469 744 435.783C744 439.097 746.686 441.783 750 441.783Z" fill="#00BBA7"/>
<path d="M784 404.889C787.314 404.889 790 402.203 790 398.889C790 395.575 787.314 392.889 784 392.889C780.686 392.889 778 395.575 778 398.889C778 402.203 780.686 404.889 784 404.889Z" fill="#00BBA7"/>
<path d="M818 485.591C821.314 485.591 824 482.905 824 479.591C824 476.277 821.314 473.591 818 473.591C814.686 473.591 812 476.277 812 479.591C812 482.905 814.686 485.591 818 485.591Z" fill="#00BBA7"/>
<path d="M852 489.314C855.314 489.314 858 486.628 858 483.314C858 480 855.314 477.314 852 477.314C848.686 477.314 846 480 846 483.314C846 486.628 848.686 489.314 852 489.314Z" fill="#00BBA7"/>
<path d="M886 469.773C889.314 469.773 892 467.087 892 463.773C892 460.459 889.314 457.773 886 457.773C882.686 457.773 880 460.459 880 463.773C880 467.087 882.686 469.773 886 469.773Z" fill="#00BBA7"/>
<path d="M920 652.818C923.314 652.818 926 650.132 926 646.818C926 643.504 923.314 640.818 920 640.818C916.686 640.818 914 643.504 914 646.818C914 650.132 916.686 652.818 920 652.818Z" fill="#00BBA7"/>
<path d="M954 656.311C957.314 656.311 960 653.625 960 650.311C960 646.997 957.314 644.311 954 644.311C950.686 644.311 948 646.997 948 650.311C948 653.625 950.686 656.311 954 656.311Z" fill="#00BBA7"/>
<path d="M988 421.667C991.314 421.667 994 418.981 994 415.667C994 412.353 991.314 409.667 988 409.667C984.686 409.667 982 412.353 982 415.667C982 418.981 984.686 421.667 988 421.667Z" fill="#00BBA7"/>
<path d="M1022 674.03C1025.31 674.03 1028 671.344 1028 668.03C1028 664.716 1025.31 662.03 1022 662.03C1018.69 662.03 1016 664.716 1016 668.03C1016 671.344 1018.69 674.03 1022 674.03Z" fill="#00BBA7"/>
<path d="M1056 426.981C1059.31 426.981 1062 424.295 1062 420.981C1062 417.667 1059.31 414.981 1056 414.981C1052.69 414.981 1050 417.667 1050 420.981C1050 424.295 1052.69 426.981 1056 426.981Z" fill="#00BBA7"/>
<path d="M1090 766.589C1093.31 766.589 1096 763.903 1096 760.589C1096 757.275 1093.31 754.589 1090 754.589C1086.69 754.589 1084 757.275 1084 760.589C1084 763.903 1086.69 766.589 1090 766.589Z" fill="#00BBA7"/>
<path d="M1124 701.152C1127.31 701.152 1130 698.466 1130 695.152C1130 691.838 1127.31 689.152 1124 689.152C1120.69 689.152 1118 691.838 1118 695.152C1118 698.466 1120.69 701.152 1124 701.152Z" fill="#00BBA7"/>
<path d="M1158 805.117C1161.31 805.117 1164 802.431 1164 799.117C1164 795.803 1161.31 793.117 1158 793.117C1154.69 793.117 1152 795.803 1152 799.117C1152 802.431 1154.69 805.117 1158 805.117Z" fill="#00BBA7"/>
<path d="M1192 550.903C1195.31 550.903 1198 548.217 1198 544.903C1198 541.589 1195.31 538.903 1192 538.903C1188.69 538.903 1186 541.589 1186 544.903C1186 548.217 1188.69 550.903 1192 550.903Z" fill="#00BBA7"/>
<path d="M1226 865.57C1229.31 865.57 1232 862.884 1232 859.57C1232 856.256 1229.31 853.57 1226 853.57C1222.69 853.57 1220 856.256 1220 859.57C1220 862.884 1222.69 865.57 1226 865.57Z" fill="#00BBA7"/>
<path d="M1260 456.303C1263.31 456.303 1266 453.617 1266 450.303C1266 446.989 1263.31 444.303 1260 444.303C1256.69 444.303 1254 446.989 1254 450.303C1254 453.617 1256.69 456.303 1260 456.303Z" fill="#00BBA7"/>
<path d="M1294 773.497C1297.31 773.497 1300 770.811 1300 767.497C1300 764.183 1297.31 761.497 1294 761.497C1290.69 761.497 1288 764.183 1288 767.497C1288 770.811 1290.69 773.497 1294 773.497Z" fill="#00BBA7"/>
<path d="M1328 871.372C1331.31 871.372 1334 868.686 1334 865.372C1334 862.058 1331.31 859.372 1328 859.372C1324.69 859.372 1322 862.058 1322 865.372C1322 868.686 1324.69 871.372 1328 871.372Z" fill="#00BBA7"/>
<path d="M1362 962.06C1365.31 962.06 1368 959.374 1368 956.06C1368 952.746 1365.31 950.06 1362 950.06C1358.69 950.06 1356 952.746 1356 956.06C1356 959.374 1358.69 962.06 1362 962.06Z" fill="#00BBA7"/>
<path d="M1396 704.702C1399.31 704.702 1402 702.016 1402 698.702C1402 695.388 1399.31 692.702 1396 692.702C1392.69 692.702 1390 695.388 1390 698.702C1390 702.016 1392.69 704.702 1396 704.702Z" fill="#00BBA7"/>
<path d="M1430 660.499C1433.31 660.499 1436 657.813 1436 654.499C1436 651.185 1433.31 648.499 1430 648.499C1426.69 648.499 1424 651.185 1424 654.499C1424 657.813 1426.69 660.499 1430 660.499Z" fill="#00BBA7"/>
<path d="M1464 855.88C1467.31 855.88 1470 853.194 1470 849.88C1470 846.566 1467.31 843.88 1464 843.88C1460.69 843.88 1458 846.566 1458 849.88C1458 853.194 1460.69 855.88 1464 855.88Z" fill="#00BBA7"/>
<path d="M1498 988.096C1501.31 988.096 1504 985.41 1504 982.096C1504 978.782 1501.31 976.096 1498 976.096C1494.69 976.096 1492 978.782 1492 982.096C1492 985.41 1494.69 988.096 1498 988.096Z" fill="#00BBA7"/>
<path d="M1532 1043.52C1535.31 1043.52 1538 1040.84 1538 1037.52C1538 1034.21 1535.31 1031.52 1532 1031.52C1528.69 1031.52 1526 1034.21 1526 1037.52C1526 1040.84 1528.69 1043.52 1532 1043.52Z" fill="#00BBA7"/>
<path d="M1566 1013.47C1569.31 1013.47 1572 1010.79 1572 1007.47C1572 1004.16 1569.31 1001.47 1566 1001.47C1562.69 1001.47 1560 1004.16 1560 1007.47C1560 1010.79 1562.69 1013.47 1566 1013.47Z" fill="#00BBA7"/>
<path d="M1600 946.652C1603.31 946.652 1606 943.966 1606 940.652C1606 937.338 1603.31 934.652 1600 934.652C1596.69 934.652 1594 937.338 1594 940.652C1594 943.966 1596.69 946.652 1600 946.652Z" fill="#00BBA7"/>
<path d="M1634 886.029C1637.31 886.029 1640 883.343 1640 880.029C1640 876.715 1637.31 874.029 1634 874.029C1630.69 874.029 1628 876.715 1628 880.029C1628 883.343 1630.69 886.029 1634 886.029Z" fill="#00BBA7"/>
<path d="M1668 859.6C1671.31 859.6 1674 856.914 1674 853.6C1674 850.286 1671.31 847.6 1668 847.6C1664.69 847.6 1662 850.286 1662 853.6C1662 856.914 1664.69 859.6 1668 859.6Z" fill="#00BBA7"/>
<path d="M1702 653.163C1705.31 653.163 1708 650.477 1708 647.163C1708 643.849 1705.31 641.163 1702 641.163C1698.69 641.163 1696 643.849 1696 647.163C1696 650.477 1698.69 653.163 1702 653.163Z" fill="#00BBA7"/>
<path d="M1736 760.686C1739.31 760.686 1742 758 1742 754.686C1742 751.372 1739.31 748.686 1736 748.686C1732.69 748.686 1730 751.372 1730 754.686C1730 758 1732.69 760.686 1736 760.686Z" fill="#00BBA7"/>
<path d="M1770 683.63C1773.31 683.63 1776 680.944 1776 677.63C1776 674.316 1773.31 671.63 1770 671.63C1766.69 671.63 1764 674.316 1764 677.63C1764 680.944 1766.69 683.63 1770 683.63Z" fill="#00BBA7"/>
<path d="M1804 820.326C1807.31 820.326 1810 817.64 1810 814.326C1810 811.012 1807.31 808.326 1804 808.326C1800.69 808.326 1798 811.012 1798 814.326C1798 817.64 1800.69 820.326 1804 820.326Z" fill="#00BBA7"/>
<path d="M1838 1294C1841.31 1294 1844 1291.31 1844 1288C1844 1284.68 1841.31 1282 1838 1282C1834.69 1282 1832 1284.68 1832 1288C1832 1291.31 1834.69 1294 1838 1294Z" fill="#00BBA7"/>
<path d="M1872 887.122C1875.31 887.122 1878 884.436 1878 881.122C1878 877.808 1875.31 875.122 1872 875.122C1868.69 875.122 1866 877.808 1866 881.122C1866 884.436 1868.69 887.122 1872 887.122Z" fill="#00BBA7"/>
<path d="M1906 763.924C1909.31 763.924 1912 761.238 1912 757.924C1912 754.61 1909.31 751.924 1906 751.924C1902.69 751.924 1900 754.61 1900 757.924C1900 761.238 1902.69 763.924 1906 763.924Z" fill="#00BBA7"/>
<path d="M1940 935.627C1943.31 935.627 1946 932.941 1946 929.627C1946 926.313 1943.31 923.627 1940 923.627C1936.69 923.627 1934 926.313 1934 929.627C1934 932.941 1936.69 935.627 1940 935.627Z" fill="#00BBA7"/>
<path d="M1974 1333C1977.31 1333 1980 1330.32 1980 1327C1980 1323.69 1977.31 1321 1974 1321C1970.69 1321 1968 1323.69 1968 1327C1968 1330.32 1970.69 1333 1974 1333Z" fill="#00BBA7"/>
<path d="M-5.5 247C-5.5 251.142 -2.14214 254.5 2 254.5C6.14214 254.5 9.5 251.142 9.5 247C9.5 242.858 6.14214 239.5 2 239.5C-2.14214 239.5 -5.5 242.858 -5.5 247Z" fill="#10B981" stroke="#10B981"/>
</g>
<path d="M5.49829 1399.5H2002.66C1997.83 1397.68 1992.04 1395.89 1985.5 1393.91C1984.56 1393.63 1983.62 1393.34 1982.66 1393.05C1975.83 1391 1968.28 1388.72 1960.22 1386C1941.82 1379.79 1920.78 1371.27 1899.73 1357.8C1880.34 1345.39 1865.42 1329.07 1850.9 1313.19C1849.64 1311.81 1848.39 1310.44 1847.13 1309.08C1831.38 1291.92 1815.69 1275.73 1794.79 1265.91C1773.94 1256.12 1758.33 1259.15 1742.6 1262.3L1742.26 1262.37C1726.61 1265.51 1710.8 1268.68 1689.79 1259.19C1670.09 1250.29 1654.99 1232.52 1640.29 1215.22C1639.23 1213.98 1638.17 1212.74 1637.12 1211.5C1621.35 1193.02 1605.7 1175.87 1584.89 1171.09C1574.55 1168.72 1565.5 1171.37 1557.04 1176.39C1549.59 1180.81 1542.65 1187.03 1535.72 1193.24C1534.76 1194.1 1533.79 1194.96 1532.83 1195.82C1524.96 1202.82 1517.03 1209.48 1508.41 1212.95C1499.74 1216.43 1490.4 1216.68 1479.76 1210.92C1469.16 1205.18 1459.92 1195.4 1451.37 1183.32C1442.82 1171.24 1434.93 1156.82 1427.06 1141.78C1425.31 1138.44 1423.57 1135.08 1421.82 1131.7C1407.75 1104.56 1393.26 1076.62 1374.64 1057.26C1353.71 1035.51 1338.04 1029.23 1322.33 1023.46C1321.7 1023.23 1321.08 1023 1320.45 1022.77C1305.3 1017.22 1289.9 1011.58 1269.66 992.532C1248.62 972.737 1232.84 951.147 1217.09 928.705C1215.43 926.34 1213.77 923.965 1212.1 921.582C1197.96 901.347 1183.39 880.506 1164.63 859.68C1154.1 847.999 1144.9 834.975 1136.37 822.253C1134.05 818.796 1131.78 815.363 1129.55 811.985C1123.56 802.919 1117.83 794.253 1112.1 786.595C1104.23 776.082 1096.41 767.534 1087.96 762.512C1079.55 757.506 1070.51 755.998 1060.16 759.58C1055.05 761.351 1050.2 765.597 1045.55 771.726C1040.91 777.848 1036.49 785.801 1032.23 794.911C1024.87 810.667 1017.99 829.815 1011.17 848.805C1010.1 851.777 1009.04 854.745 1007.97 857.695C1000.1 879.477 992.208 900.319 983.648 914.631C979.369 921.785 974.894 927.357 970.128 930.592C965.335 933.845 960.237 934.737 954.809 932.495C949.427 930.273 944.437 925.353 939.739 918.427C935.035 911.494 930.59 902.499 926.318 892.05C917.775 871.15 909.893 844.352 902.019 816.412C900.714 811.781 899.408 807.118 898.101 802.444C891.515 778.915 884.858 755.13 877.745 733.819C869.214 708.264 860.048 686.336 849.603 672.697C839.127 659.017 829.994 651.024 821.556 646.772C813.135 642.527 805.37 641.99 797.582 643.29C790.802 644.422 784.02 646.943 776.756 649.643C775.646 650.055 774.525 650.472 773.391 650.888C764.853 654.024 755.618 657.136 745.055 658.298C734.704 659.437 725.61 665.125 717.106 672.393C712.857 676.024 708.767 680.038 704.748 684.06C704.08 684.728 703.414 685.397 702.75 686.064C699.42 689.406 696.129 692.71 692.839 695.741C684.957 703.002 676.981 708.799 668.28 709.869C659.53 710.945 650.195 707.232 639.633 695.839C629.067 684.441 619.852 666.439 611.316 644.846C602.776 623.242 594.896 597.985 587.022 572.04C585.932 568.45 584.843 564.847 583.752 561.239C569.061 512.654 554.083 463.117 534.575 431.532C524.074 414.53 514.894 399.855 506.373 387.763C497.85 375.669 490.003 366.186 482.177 359.553C474.356 352.925 466.576 349.163 458.178 348.471C449.776 347.779 440.687 350.156 430.242 355.933C425.082 358.786 420.212 363.68 415.558 370.131C410.907 376.578 406.492 384.552 402.233 393.533C394.12 410.642 386.599 431.346 379.096 452.001L377.97 455.102C370.097 476.761 362.212 498.166 353.665 515.03C349.391 523.462 344.941 530.779 340.232 536.431C335.525 542.08 330.531 546.1 325.158 547.884C314.518 551.419 305.181 550.119 296.527 545.01C287.901 539.917 279.976 531.052 272.087 519.499C264.195 507.941 256.308 493.646 247.778 477.649C245.935 474.194 244.062 470.659 242.152 467.054C235.217 453.963 227.795 439.954 219.566 425.507C200.952 392.831 186.461 349.096 172.464 306.849C170.645 301.362 168.835 295.899 167.026 290.489C159.151 266.947 151.282 244.395 142.761 225.07C134.237 205.738 125.079 189.679 114.644 179.091C109.449 173.82 104.141 170.852 98.7966 169.674C93.4512 168.495 88.0283 169.098 82.5897 171.036C71.691 174.921 60.7902 184.146 50.4873 194.976C42.6718 203.192 35.2374 212.289 28.4332 220.616C26.2727 223.26 24.1757 225.826 22.15 228.262C17.9535 233.308 14.0609 237.796 10.5552 241.234C7.21179 244.513 4.16602 246.894 1.50122 247.858L5.49829 1399.5Z" fill="#10B981" fill-opacity="0.102" stroke="#10B981"/>
<path d="M2005 1399.88C1984 1391.38 1942 1384.26 1900 1357.38C1858 1330.5 1837 1285.19 1795 1265.46C1753 1245.73 1732 1277.71 1690 1258.74C1648 1239.76 1627 1180.26 1585 1170.6C1543 1160.95 1522 1233.22 1480 1210.48C1438 1187.74 1417 1100.58 1375 1056.92C1333 1013.26 1312 1031.68 1270 992.168C1228 952.653 1207 905.958 1165 859.345C1123 812.733 1102 744.57 1060 759.108C1018 773.645 997 949.376 955 932.033C913 914.69 892 727.239 850 672.393C808 617.547 787 653.18 745 657.801C703 662.423 682 740.806 640 695.499C598 650.193 577 499.27 535 431.269C493 363.269 472 332.267 430 355.495C388 378.723 367 533.458 325 547.41C283 561.363 262 498.993 220 425.26C178 351.526 157 221.356 115 178.74C73 136.126 22 241.311 1 248" stroke="#10B981" stroke-width="4"/>
<path d="M1997.5 1399.88C1997.5 1404.02 2000.86 1407.38 2005 1407.38C2009.14 1407.38 2012.5 1404.02 2012.5 1399.88C2012.5 1395.74 2009.14 1392.38 2005 1392.38C2000.86 1392.38 1997.5 1395.74 1997.5 1399.88Z" fill="#10B981" stroke="#10B981"/>
<path d="M1892.5 1357.38C1892.5 1361.52 1895.86 1364.88 1900 1364.88C1904.14 1364.88 1907.5 1361.52 1907.5 1357.38C1907.5 1353.24 1904.14 1349.88 1900 1349.88C1895.86 1349.88 1892.5 1353.24 1892.5 1357.38Z" fill="#10B981" stroke="#10B981"/>
<path d="M1787.5 1265.46C1787.5 1269.6 1790.86 1272.96 1795 1272.96C1799.14 1272.96 1802.5 1269.6 1802.5 1265.46C1802.5 1261.32 1799.14 1257.96 1795 1257.96C1790.86 1257.96 1787.5 1261.32 1787.5 1265.46Z" fill="#10B981" stroke="#10B981"/>
<path d="M1682.5 1258.74C1682.5 1262.88 1685.86 1266.24 1690 1266.24C1694.14 1266.24 1697.5 1262.88 1697.5 1258.74C1697.5 1254.59 1694.14 1251.24 1690 1251.24C1685.86 1251.24 1682.5 1254.59 1682.5 1258.74Z" fill="#10B981" stroke="#10B981"/>
<path d="M1577.5 1170.6C1577.5 1174.75 1580.86 1178.1 1585 1178.1C1589.14 1178.1 1592.5 1174.75 1592.5 1170.6C1592.5 1166.46 1589.14 1163.1 1585 1163.1C1580.86 1163.1 1577.5 1166.46 1577.5 1170.6Z" fill="#10B981" stroke="#10B981"/>
<path d="M1472.5 1210.48C1472.5 1214.62 1475.86 1217.98 1480 1217.98C1484.14 1217.98 1487.5 1214.62 1487.5 1210.48C1487.5 1206.34 1484.14 1202.98 1480 1202.98C1475.86 1202.98 1472.5 1206.34 1472.5 1210.48Z" fill="#10B981" stroke="#10B981"/>
<path d="M1367.5 1056.92C1367.5 1061.06 1370.86 1064.42 1375 1064.42C1379.14 1064.42 1382.5 1061.06 1382.5 1056.92C1382.5 1052.78 1379.14 1049.42 1375 1049.42C1370.86 1049.42 1367.5 1052.78 1367.5 1056.92Z" fill="#10B981" stroke="#10B981"/>
<path d="M1262.5 992.168C1262.5 996.31 1265.86 999.668 1270 999.668C1274.14 999.668 1277.5 996.31 1277.5 992.168C1277.5 988.026 1274.14 984.668 1270 984.668C1265.86 984.668 1262.5 988.026 1262.5 992.168Z" fill="#10B981" stroke="#10B981"/>
<path d="M1157.5 859.345C1157.5 863.487 1160.86 866.845 1165 866.845C1169.14 866.845 1172.5 863.487 1172.5 859.345C1172.5 855.203 1169.14 851.845 1165 851.845C1160.86 851.845 1157.5 855.203 1157.5 859.345Z" fill="#10B981" stroke="#10B981"/>
<path d="M1052.5 759.108C1052.5 763.25 1055.86 766.608 1060 766.608C1064.14 766.608 1067.5 763.25 1067.5 759.108C1067.5 754.966 1064.14 751.608 1060 751.608C1055.86 751.608 1052.5 754.966 1052.5 759.108Z" fill="#10B981" stroke="#10B981"/>
<path d="M947.5 932.033C947.5 936.175 950.858 939.533 955 939.533C959.142 939.533 962.5 936.175 962.5 932.033C962.5 927.891 959.142 924.533 955 924.533C950.858 924.533 947.5 927.891 947.5 932.033Z" fill="#10B981" stroke="#10B981"/>
<path d="M842.5 672.393C842.5 676.535 845.858 679.893 850 679.893C854.142 679.893 857.5 676.535 857.5 672.393C857.5 668.251 854.142 664.893 850 664.893C845.858 664.893 842.5 668.251 842.5 672.393Z" fill="#10B981" stroke="#10B981"/>
<path d="M737.5 657.801C737.5 661.943 740.858 665.301 745 665.301C749.142 665.301 752.5 661.943 752.5 657.801C752.5 653.659 749.142 650.301 745 650.301C740.858 650.301 737.5 653.659 737.5 657.801Z" fill="#10B981" stroke="#10B981"/>
<path d="M632.5 695.499C632.5 699.641 635.858 702.999 640 702.999C644.142 702.999 647.5 699.641 647.5 695.499C647.5 691.357 644.142 687.999 640 687.999C635.858 687.999 632.5 691.357 632.5 695.499Z" fill="#10B981" stroke="#10B981"/>
<path d="M527.5 431.269C527.5 435.411 530.858 438.769 535 438.769C539.142 438.769 542.5 435.411 542.5 431.269C542.5 427.127 539.142 423.769 535 423.769C530.858 423.769 527.5 427.127 527.5 431.269Z" fill="#10B981" stroke="#10B981"/>
<path d="M422.5 355.495C422.5 359.637 425.858 362.995 430 362.995C434.142 362.995 437.5 359.637 437.5 355.495C437.5 351.353 434.142 347.995 430 347.995C425.858 347.995 422.5 351.353 422.5 355.495Z" fill="#10B981" stroke="#10B981"/>
<path d="M317.5 547.41C317.5 551.552 320.858 554.91 325 554.91C329.142 554.91 332.5 551.552 332.5 547.41C332.5 543.268 329.142 539.91 325 539.91C320.858 539.91 317.5 543.268 317.5 547.41Z" fill="#10B981" stroke="#10B981"/>
<path d="M212.5 425.26C212.5 429.402 215.858 432.76 220 432.76C224.142 432.76 227.5 429.402 227.5 425.26C227.5 421.118 224.142 417.76 220 417.76C215.858 417.76 212.5 421.118 212.5 425.26Z" fill="#10B981" stroke="#10B981"/>
<path d="M107.5 178.741C107.5 182.883 110.858 186.241 115 186.241C119.142 186.241 122.5 182.883 122.5 178.741C122.5 174.599 119.142 171.241 115 171.241C110.858 171.241 107.5 174.599 107.5 178.741Z" fill="#10B981" stroke="#10B981"/>
<defs>
<clipPath id="clip0_739_411">
<rect width="2000" height="1400" fill="white" transform="translate(2)"/>
</clipPath>
<clipPath id="clip1_739_411">
<rect width="2000" height="1400" fill="white" transform="translate(2)"/>
</clipPath>
</defs>
</svg>
