<svg height="auto" viewBox="0 0 2000 1400" xmlns="http://www.w3.org/2000/svg"><path d="M0 1399.878c21-8.5 63-15.614 105-42.498 42-26.883 63-72.19 105-91.92 42-19.728 63 12.248 105-6.724 42-18.971 63-78.48 105-88.132 42-9.652 63 62.611 105 39.874 42-22.737 63-109.897 105-153.56 42-43.661 63-25.235 105-64.75s63-86.21 105-132.823c42-46.612 63-114.775 105-100.237 42 14.537 63 190.268 105 172.925 42-17.343 63-204.794 105-259.64 42-54.846 63-19.213 105-14.592 42 4.622 63 83.005 105 37.698 42-45.306 63-196.229 105-264.23 42-68 63-99.002 105-75.774 42 23.228 63 177.963 105 191.915 42 13.953 63-48.417 105-122.15 42-73.734 63-203.904 105-246.52 42-42.614 84 26.757 105 33.446L2000 1400H0Z" fill="#444cf71a"/><path d="M0 1399.878c21-8.5 63-15.614 105-42.498 42-26.883 63-72.19 105-91.92 42-19.728 63 12.248 105-6.724 42-18.971 63-78.48 105-88.132 42-9.652 63 62.611 105 39.874 42-22.737 63-109.897 105-153.56 42-43.661 63-25.235 105-64.75s63-86.21 105-132.823c42-46.612 63-114.775 105-100.237 42 14.537 63 190.268 105 172.925 42-17.343 63-204.794 105-259.64 42-54.846 63-19.213 105-14.592 42 4.622 63 83.005 105 37.698 42-45.306 63-196.229 105-264.23 42-68 63-99.002 105-75.774 42 23.228 63 177.963 105 191.915 42 13.953 63-48.417 105-122.15 42-73.734 63-203.904 105-246.52 42-42.614 84 26.757 105 33.446" fill="none" stroke="#444cf7" stroke-width="4"/><g fill="#444cf7"><circle cy="1399.878" r="8"/><circle cx="105" cy="1357.38" r="8"/><circle cx="210" cy="1265.461" r="8"/><circle cx="315" cy="1258.736" r="8"/><circle cx="420" cy="1170.604" r="8"/><circle cx="525" cy="1210.478" r="8"/><circle cx="630" cy="1056.919" r="8"/><circle cx="735" cy="992.168" r="8"/><circle cx="840" cy="859.345" r="8"/><circle cx="945" cy="759.108" r="8"/><circle cx="1050" cy="932.033" r="8"/><circle cx="1155" cy="672.393" r="8"/><circle cx="1260" cy="657.801" r="8"/><circle cx="1365" cy="695.499" r="8"/><circle cx="1470" cy="431.269" r="8"/><circle cx="1575" cy="355.495" r="8"/><circle cx="1680" cy="547.41" r="8"/><circle cx="1785" cy="425.26" r="8"/><circle cx="1890" cy="178.741" r="8"/><circle cx="1995" cy="212.186" r="8"/></g></svg>