<svg height="auto" viewBox="0 0 2000 1400" xmlns="http://www.w3.org/2000/svg"><path d="M0 1383.581c21-8.604 63-24.4 105-43.022s63-30.023 105-50.089 63-28.654 105-50.24c42-21.587 63-22.874 105-57.693 42-34.818 63-78.798 105-116.4 42-37.602 63-59.31 105-71.612 42-12.302 63-10.817 105 10.102 42 20.918 63 125.17 105 94.489 42-30.68 63-222.026 105-247.89 42-25.866 63 146.359 105 118.564 42-27.794 63-253.667 105-257.539 42-3.871 63 283.347 105 238.18 42-45.166 63-406.06 105-464.013 42-57.953 63 110.937 105 174.246 42 63.308 63 189.207 105 142.298 42-46.91 63-341.531 105-376.846 42-35.314 63 236.532 105 200.272 42-36.259 63-256.778 105-381.569 42-124.79 84-193.907 105-242.384L2000 1400H0Z" fill="#444cf71a"/><path d="M0 1383.581c21-8.604 63-24.4 105-43.022s63-30.023 105-50.089 63-28.654 105-50.24c42-21.587 63-22.874 105-57.693 42-34.818 63-78.798 105-116.4 42-37.602 63-59.31 105-71.612 42-12.302 63-10.817 105 10.102 42 20.918 63 125.17 105 94.489 42-30.68 63-222.026 105-247.89 42-25.866 63 146.359 105 118.564 42-27.794 63-253.667 105-257.539 42-3.871 63 283.347 105 238.18 42-45.166 63-406.06 105-464.013 42-57.953 63 110.937 105 174.246 42 63.308 63 189.207 105 142.298 42-46.91 63-341.531 105-376.846 42-35.314 63 236.532 105 200.272 42-36.259 63-256.778 105-381.569 42-124.79 84-193.907 105-242.384" fill="none" stroke="#444cf7" stroke-width="4"/><g fill="#444cf7"><circle cy="1383.581" r="8"/><circle cx="105" cy="1340.559" r="8"/><circle cx="210" cy="1290.47" r="8"/><circle cx="315" cy="1240.229" r="8"/><circle cx="420" cy="1182.537" r="8"/><circle cx="525" cy="1066.137" r="8"/><circle cx="630" cy="994.525" r="8"/><circle cx="735" cy="1004.627" r="8"/><circle cx="840" cy="1099.116" r="8"/><circle cx="945" cy="851.225" r="8"/><circle cx="1050" cy="969.79" r="8"/><circle cx="1155" cy="712.251" r="8"/><circle cx="1260" cy="950.431" r="8"/><circle cx="1365" cy="486.418" r="8"/><circle cx="1470" cy="660.664" r="8"/><circle cx="1575" cy="802.962" r="8"/><circle cx="1680" cy="426.116" r="8"/><circle cx="1785" cy="626.388" r="8"/><circle cx="1890" cy="244.819" r="8"/><circle cx="1995" cy="2.435" r="8"/></g></svg>