<?xml version="1.0" encoding="UTF-8"?>
<svg id="Layer_1" xmlns="http://www.w3.org/2000/svg" version="1.1" viewBox="0 0 211.9 50">
  <!-- Generator: Adobe Illustrator 29.1.0, SVG Export Plug-In . SVG Version: 2.1.0 Build 142)  -->
  <defs>
    <style>
      .st0 {
        fill: #fff;
      }
    </style>
  </defs>
  <path class="st0" d="M74.2,23.8c-3.6,1.7-7.3,1.4-8.2-.8-1.1-2.1,1.2-5.2,4.7-6.9,3.6-1.7,7.3-1.4,8.2.8.9,2.1-1.2,5.1-4.7,6.9ZM66.1,9.8s-4.5-.3-6.8,2.3c-2.2,2.4-2.1,6.5-2.1,6.5v17.3c0,3.8,3.2,3.6,3.2,3.6,0,0,1.3,0,4.2-.1,3.1-.1,2.9-2.4,2.9-2.4v-5.8s0-1.4,2.2-1.4,2.5.8,2.5.8l6.7,7.3s1.2,1.7,5.3,1.7,4.8-.1,4.8-.1c0,0,3.1-.1.7-2.5-2.4-2.5-6-6.4-6-6.4,0,0-2.7-2.5.8-4.5,4.1-2.3,4.8-4.7,4.8-4.7,0,0,1.8-5.7-2.4-8.7-4.2-3-7.7-2.9-8.9-2.9-1.4,0-11.9,0-11.9,0Z"/>
  <path class="st0" d="M105.8,35.4c-3.1,1.5-6.3,1.2-7.2-.7-.9-1.9.9-4.5,4-6,3.1-1.5,6.3-1.2,7.2.7,1,1.9-.8,4.5-4,6ZM98.4,19.1c-.4,2.1,2.5,2.2,2.5,2.2h4s2.8,0,2.8,1.9-2.2,1.8-2.2,1.8c0,0-.9,0-4.4.3-3.6.3-5.7.9-8,2.7-3.1,2.4-2.6,5.8-2.6,5.8,0,0,.5,5.9,10.2,5.9s14.5-.1,14.5-.1c0,0,1.6.1,2.3-.6.7-.7.6-1.9.6-1.9v-13.1s.3-2.5-2.3-4.4c-2.1-1.6-4.3-1.8-5.2-2.1-.9-.3-2.6-.4-5-.5-2.4-.1-4.5.1-4.5.1,0,0-2.3,0-2.6,2.1Z"/>
  <path class="st0" d="M141.7,35h-6.4s-1.7,0-1.9-.9c-.1-.8,1.1-2,1.1-2l10-10.7s1.3-1.4,1.5-1.8c.2-.5.7-1.1.2-2-.5-1-2.4-.9-2.4-.9h-17.9s-2.5-.1-2.5,2.2,2.4,2.4,2.4,2.4h4.8s1.3-.1,1.6.4c.6.7-.6,1.6-.6,1.6,0,0-9.9,10.1-11.4,11.6-3.8,3.8,0,4.8.5,4.8h21s3.6,0,3.5-2.4c.4-2.4-3.4-2.3-3.4-2.3Z"/>
  <path class="st0" d="M171.3,24.1c1.4,2.9-1.5,7.1-6.4,9.4-4.9,2.3-10,1.7-11.3-1.2-1.4-2.9,1.5-7.1,6.4-9.4s10-1.8,11.3,1.2ZM161.9,16.3c-9-.1-16.1,4.5-16.1,11.8-.1,7.3,7.1,11.8,16.1,11.8s16.5-3.8,16.4-11.8c-.2-6.6-4.7-11.7-16.4-11.8Z"/>
  <path class="st0" d="M191.3,34.9v-8.8s-.1-2.5,2.2-4c2.7-1.7,9.8-.4,10.8-.3.9.1,2.8.3,2.9-1.9.1-2.1-2.4-2.3-2.4-2.3,0,0-5.6-1.1-11.3-.8-4.8.3-8.1,1.2-9.7,1.6-.9.3-3.2.9-3.1,4.6,0,4.4,0,6.2-.1,11.8,0,4.8,2.9,4.7,3.3,4.7h4.3c3.7,0,3.3-4.6,3.3-4.6Z"/>
  <g>
    <path class="st0" d="M29.3,14c-5.7,0-10.3,4.6-10.3,10.3s4.6,10.3,10.3,10.3,10.3-4.6,10.3-10.3c0-5.6-4.8-10.3-10.3-10.3ZM29.2,33.5c-5-.1-9-4.1-9-9s4-9,9-9,9,4,9,9-4,9-9,9Z"/>
    <path class="st0" d="M50.8,26l1.4-3.5s-3.8,2.1-3.9,2.1c.7-1.9,1.3-4.4,1.4-7.3v-4c.1,0-2.8,3.6-2.9,3.7-.1-2.3-.6-5.2-1.9-7.6l-1.6-2.8s-1.1,3.6-1.1,3.8c-.9-1.9-2.4-4-4.7-6.2l-2.8-2.7s.7,4.5.7,4.8c-1.7-1.4-4.1-3-6.8-3.9l-3.5-1.1,2.1,3.2s.4.6.5.8c-1.9-.5-4.4-.8-7.7-.7h-4.3c0,.1,4,2.8,4.1,2.9-2.1.4-4.6,1.1-7.3,2.4l-3.5,1.7s4.5.8,4.7.9c-2.1,1.3-4.5,3.1-5.8,5.4l-1.6,2.8s3.8-.9,4-1.1c-1.3,2-2.7,4.6-3.1,7.2l-.5,3.6s3.2-2.7,3.5-2.9c-.3,1.2-.4,2.5-.4,3.9s.1,2.9.6,4.3l.9,3.3s1.9-3.7,2-3.9c.6,2.1,1.6,4.7,3.3,6.9l2.2,2.7s.3-4.1.3-4.5c1.3,1.5,3,3.2,5.6,5.3l3.3,2.5s-1.5-4.7-1.6-5.1c1.9.9,4.4,2.1,7.7,2.5l4,.7s-3.3-3.5-3.6-3.7c2,.1,4.6,0,7.6-.9l3.5-1.1s-3.8-1.7-4-1.9c1.9-.8,4.3-2.1,6.5-4l2.8-2.4s-4.1.1-4.4.1c1.5-1.5,3.1-3.7,4.3-6.3ZM47.3,33.8c-4.5,3.9-9.4,4.7-9.4,4.7l3.9,1.7c-6.2,1.7-10.9.4-10.9.4l3.5,3.6c-6.8-1.2-10.3-4.4-10.3-4.4l1.5,4.6c-6-4.5-7.6-8-7.6-8l-.3,4.9c-3.6-4.4-3.8-10.3-3.8-10.3l-2.2,4.5c-1.4-4.8.7-11.2.7-11.2l-3.7,3c.8-4.9,5.1-9.6,5.1-9.6l-4.6,1.2c2.3-3.9,8.6-6.6,8.6-6.6l-4.5-.9c5.5-2.8,10.5-2.5,10.5-2.5l-3.8-2.5c7.8-.3,10.8,1.9,10.8,1.9l-2.4-4c5.1,1.6,9,6.2,9,6.2l-.7-4.8c4.8,4.6,5.8,9.3,5.8,9.3l1-4.3c2.4,4.3,1.6,10.8,1.6,10.8l3-3.7c-.3,6.3-2.9,10.3-2.9,10.3l4.1-2.2c-2.2,5.3-6.8,8.4-6.8,8.4h4.5Z"/>
  </g>
</svg>