<?xml version="1.0" encoding="UTF-8"?>
<svg id="Layer_1" xmlns="http://www.w3.org/2000/svg" version="1.1" viewBox="0 0 299.4 50">
  <!-- Generator: Adobe Illustrator 29.1.0, SVG Export Plug-In . SVG Version: 2.1.0 Build 142)  -->
  <defs>
    <style>
      .st0 {
        fill: #fff;
      }
    </style>
  </defs>
  <path class="st0" d="M285.7,4.9c2.1,0,3.9,1.8,3.9,4,0,2.2-1.8,3.9-3.9,4-2.3,0-4-1.8-4-4,0-2.2,1.8-4,4-4ZM285.7,12.4c1.9,0,3.5-1.6,3.5-3.6,0-2-1.6-3.5-3.6-3.6-1.9,0-3.5,1.6-3.5,3.6,0,1.9,1.5,3.5,3.6,3.6Z"/>
  <path class="st0" d="M284.7,11h-.5v-4.5h2c.7,0,1.3.2,1.4,1.2,0,.5-.1.7-.5,1.1.4.3.4.3.5,1.1,0,.2,0,.3,0,.4,0,.3,0,.4.2.7h-.7v-.5c-.1-.1-.1-.2,0-.4,0-.5,0-1-.7-1h-1.5v1.9ZM287,7.9c0-.7-.5-.8-.8-.8h-1.5v1.5h1.5c.4,0,.7-.2.8-.7Z"/>
  <path class="st0" d="M268.6,40.1c-2.2,3-6.3,4.5-10.6,4.5-9.7,0-14.2-7.2-14.2-13.9,0-7.1,5.2-13.9,15.4-13.8,3.5,0,7.7,1.6,9.6,3.7V6h6.3v32.6c0,1.2.1,2.5.2,3.7,0,.5,0,1,.1,1.5h-6c0-.1,0-.3-.1-.4-.2-.8-.7-2.2-.7-3.2ZM268.8,30.7c0-3.6-3.9-9.4-9.3-9.5-6.2,0-9.4,5.4-9.4,9.5,0,4,3.5,9.1,9.8,9.1,5.3,0,8.8-5.5,8.8-9.1Z"/>
  <path class="st0" d="M218.4,28c.2-3.8,6.5-6.6,9.7-6.6,4.8,0,5.9,3.7,6,6.6v15.8h6.2v-17c0-.9-.1-2.6-.6-4.2-1.2-3.8-7.4-6.4-10.7-6.4-5,0-8.4,2.2-10.5,4.6h0v-4.1h-6.4v27.1h6.4v-15.8Z"/>
  <path class="st0" d="M202,43.8c-.2-1.1-.4-2.4-.4-3.5-2.2,3-7.7,4.3-12.1,4.3-6.2,0-10.8-2.8-10.8-7.9,0-1.9,1.1-6.3,7.1-8.3,3.9-1.4,11.2-1.6,15.1-1.5v-2.5c0-1.8-3.3-3.2-6.8-3.3-4.7,0-7,2.6-6.9,3.8h-6.9c.1-3.3,1.9-5.3,4.5-6.6,2.7-1.2,6.2-1.7,9.7-1.6,6.6,0,13.2,1.9,13.2,9.8v14.3c0,.9.2,1.5.3,2.1,0,.3.1.5.1.7h-6.1ZM191.6,39.6c5.4,0,9.1-1.9,9.3-7.4h0v-.7c-9.4-1-14.6,1.4-14.7,4.1-.1,3.6,2.6,4,5.4,4Z"/>
  <path class="st0" d="M175.9,6h-7.4v37.8h7.4V6Z"/>
  <path class="st0" d="M131.9,30.7c1.2-13.8,16.9-14,17.1-13.9,10,.4,17.1,5.9,17.1,13.9,0,8.2-6.4,13.9-17.1,13.8-10.8,0-17.9-5.7-17.1-13.8ZM139.1,30.7c0,4.1,3.9,9.4,9.9,9.4,6,0,9.8-5.3,9.8-9.4,0-4.3-3.6-9.3-9.8-9.3-6.3,0-9.9,5-9.9,9.3Z"/>
  <path class="st0" d="M115.9,27.6h-12.5v16.1h-7.5V6h18.4c8.1,0,15.9,2.2,15.8,9.9,0,4.9-1.1,8.9-6.9,9.9h0c4.2.9,4.4,2.9,4.9,6.6,0,.7.2,1.6.3,2.4,0,.4.2,1,.3,1.5.4,2.5.9,5.7,2.5,7.4h-7.7c-.8-3.3-1.3-6.7-1.7-10.1-.3-2.1-2.5-5.9-5.8-6ZM116,11.5h-12.6v10.7h12.6c4.5,0,7.1-1.8,7.1-5.2,0-3.3-2.6-5.5-7.1-5.6Z"/>
  <path class="st0" d="M78.8,6.3H10.7v37.3h4.1V10.4h63.9c4.9.2,8.1,2.5,8.7,8-.4,5.1-3.1,7.7-8.7,7.9h-45.4v10.4h57.7v-4.1h-53.6v-2.2h41.3c7.9-.3,12.4-4.9,12.7-12-.5-7.8-5.6-11.8-12.7-12.1Z"/>
  <path class="st0" d="M22.1,37v6.1h-4.1V13.2h61.1v10.6h-44.2c-5.3.2-9.9,2.4-10,8.7,1,5.3,4.6,7,10,7.2h55.8v4.1h-55.9c-4.9-.2-10.4-1.8-12.8-6.6ZM22.1,26.5c2.5-4.9,7.7-6.6,12.8-6.8h40.2v-2.4H22.1v9.2Z"/>
</svg>