<svg width="67" height="60" viewBox="0 0 67 60" fill="none" xmlns="http://www.w3.org/2000/svg">
<path d="M0 59.664C0 56.048 0 52.432 0 48.816C0 45.0493 0 41.358 0 37.742C0 26.1407 1.65733 17.0253 4.972 10.396C8.28667 3.76667 14.0873 0.301338 22.374 0L26.668 8.81401C21.9973 9.266 18.758 11.526 16.95 15.594C15.2927 19.5113 14.464 25.764 14.464 34.352H26.442V59.664H0ZM39.776 59.664C39.776 56.048 39.776 52.432 39.776 48.816C39.776 45.0493 39.776 41.358 39.776 37.742C39.776 26.1407 41.4333 17.0253 44.748 10.396C48.0627 3.76667 53.8633 0.301338 62.15 0L66.444 8.81401C61.7733 9.266 58.534 11.526 56.726 15.594C55.0687 19.5113 54.24 25.764 54.24 34.352H66.218V59.664H39.776Z" fill="#F5B700"/>
</svg>
