<svg width="110" height="110" viewBox="0 0 110 110" fill="none" xmlns="http://www.w3.org/2000/svg">
<path opacity="0.2" d="M85.9375 27.5V34.375H75.625C73.8016 34.375 72.053 35.0993 70.7636 36.3886C69.4743 37.678 68.75 39.4266 68.75 41.25V75.625H17.1875C15.3641 75.625 13.6155 74.9007 12.3261 73.6114C11.0368 72.322 10.3125 70.5734 10.3125 68.75V27.5C10.3125 25.6766 11.0368 23.928 12.3261 22.6386C13.6155 21.3493 15.3641 20.625 17.1875 20.625H79.0625C80.8859 20.625 82.6345 21.3493 83.9239 22.6386C85.2132 23.928 85.9375 25.6766 85.9375 27.5Z" fill="#475569"/>
<path d="M96.25 30.9375H89.375V27.5C89.375 24.765 88.2885 22.1419 86.3545 20.208C84.4206 18.274 81.7975 17.1875 79.0625 17.1875H17.1875C14.4525 17.1875 11.8294 18.274 9.89546 20.208C7.96149 22.1419 6.875 24.765 6.875 27.5V68.75C6.875 71.485 7.96149 74.1081 9.89546 76.042C11.8294 77.976 14.4525 79.0625 17.1875 79.0625H65.3125V82.5C65.3125 85.235 66.399 87.8581 68.333 89.792C70.2669 91.726 72.89 92.8125 75.625 92.8125H96.25C98.985 92.8125 101.608 91.726 103.542 89.792C105.476 87.8581 106.562 85.235 106.562 82.5V41.25C106.562 38.515 105.476 35.8919 103.542 33.958C101.608 32.024 98.985 30.9375 96.25 30.9375ZM17.1875 72.1875C16.2758 72.1875 15.4015 71.8253 14.7568 71.1807C14.1122 70.536 13.75 69.6617 13.75 68.75V27.5C13.75 26.5883 14.1122 25.714 14.7568 25.0693C15.4015 24.4247 16.2758 24.0625 17.1875 24.0625H79.0625C79.9742 24.0625 80.8485 24.4247 81.4932 25.0693C82.1378 25.714 82.5 26.5883 82.5 27.5V30.9375H75.625C72.89 30.9375 70.2669 32.024 68.333 33.958C66.399 35.8919 65.3125 38.515 65.3125 41.25V72.1875H17.1875ZM99.6875 82.5C99.6875 83.4117 99.3253 84.286 98.6807 84.9307C98.036 85.5753 97.1617 85.9375 96.25 85.9375H75.625C74.7133 85.9375 73.839 85.5753 73.1943 84.9307C72.5497 84.286 72.1875 83.4117 72.1875 82.5V41.25C72.1875 40.3383 72.5497 39.464 73.1943 38.8193C73.839 38.1747 74.7133 37.8125 75.625 37.8125H96.25C97.1617 37.8125 98.036 38.1747 98.6807 38.8193C99.3253 39.464 99.6875 40.3383 99.6875 41.25V82.5ZM58.4375 89.375C58.4375 90.2867 58.0753 91.161 57.4307 91.8057C56.786 92.4503 55.9117 92.8125 55 92.8125H37.8125C36.9008 92.8125 36.0265 92.4503 35.3818 91.8057C34.7372 91.161 34.375 90.2867 34.375 89.375C34.375 88.4633 34.7372 87.589 35.3818 86.9443C36.0265 86.2997 36.9008 85.9375 37.8125 85.9375H55C55.9117 85.9375 56.786 86.2997 57.4307 86.9443C58.0753 87.589 58.4375 88.4633 58.4375 89.375ZM92.8125 48.125C92.8125 49.0367 92.4503 49.911 91.8057 50.5557C91.161 51.2003 90.2867 51.5625 89.375 51.5625H82.5C81.5883 51.5625 80.714 51.2003 80.0693 50.5557C79.4247 49.911 79.0625 49.0367 79.0625 48.125C79.0625 47.2133 79.4247 46.339 80.0693 45.6943C80.714 45.0497 81.5883 44.6875 82.5 44.6875H89.375C90.2867 44.6875 91.161 45.0497 91.8057 45.6943C92.4503 46.339 92.8125 47.2133 92.8125 48.125Z" fill="#475569"/>
</svg>
