<svg width="143" height="50" viewBox="0 0 143 50" fill="none" xmlns="http://www.w3.org/2000/svg">
<path d="M143 0H14.8711V49.5498H143V0Z" fill="#012B5D"/>
<path d="M14.8721 0H0V49.5498H14.8721V0Z" fill="#D31145"/>
<path d="M37.5373 8.2583L42.2564 27.7421H42.3636L47.0826 8.2583H61.1682V41.6132H51.8374V20.6161L46.1174 41.6132H38.5383L32.7826 20.4849H32.6753V41.6132H23.416V8.2583H37.5373Z" fill="white"/>
<path d="M67.388 8.2583H78.5063L88.7309 26.0976H88.8381V8.2583H99.0627V41.6132H88.4806L77.684 23.4521H77.5768V41.6132H67.3522L67.388 8.2583Z" fill="white"/>
<path d="M102.996 8.61578L114.293 24.0599L101.888 41.649H113.971L119.977 31.8177L125.841 41.649H138.532L126.305 24.1671L137.316 8.61578H125.626L120.549 17.5891L115.366 8.61578H102.996Z" fill="white"/>
</svg>
