<svg width="1064" height="218" viewBox="0 0 1064 218" fill="none" xmlns="http://www.w3.org/2000/svg">
<path d="M123.766 29L140.189 50.5908C141.129 51.827 140.885 53.5895 139.642 54.5248C138.4 55.4589 136.631 55.2152 135.691 53.981L120.957 34.6137H92.0285L82.1415 47.7445L82.0577 155.694L91.098 167.365H116.666L122.069 158.054V133.888C122.069 132.338 123.332 131.082 124.891 131.082C126.449 131.082 127.713 132.339 127.713 133.888V159.562L119.925 172.978H88.3242L76.9996 158.369L76.4131 157.611L76.5013 46.806L76.5057 45.8718L88.355 30.1227L89.2017 29H123.766Z" fill="#00D5BE"/>
<path d="M152.061 121.521L152.826 122.894L152.021 124.245L137.913 148.043H124.674V142.464H134.613L146.264 122.798L135.395 103.246L140.427 100.587L152.061 121.521Z" fill="#00D5BE"/>
<path d="M144.91 61.1738L158.501 75.8019L159.261 76.6158V104.669L154.106 110.154C153.036 111.292 151.246 111.345 150.109 110.273C148.973 109.201 148.92 107.408 149.99 106.27L153.607 102.422V78.8451L142.45 66.8357H132.327C130.766 66.8357 129.5 65.5683 129.5 64.0048C129.5 62.4413 130.766 61.1738 132.327 61.1738H144.91Z" fill="#00D5BE"/>
<path d="M129.58 64.3933C129.58 61.6842 127.385 59.4859 124.676 59.4848C121.966 59.4848 119.768 61.6835 119.768 64.3933C119.769 67.102 121.967 69.2974 124.676 69.2974C127.384 69.2963 129.579 67.1013 129.58 64.3933ZM135.13 64.3933C135.129 70.1666 130.449 74.8465 124.676 74.8476C118.902 74.8476 114.218 70.1673 114.217 64.3933C114.217 58.6182 118.901 53.9346 124.676 53.9346C130.45 53.9357 135.13 58.6189 135.13 64.3933Z" fill="#00D5BE"/>
<path d="M139.232 94.9587C139.232 92.2497 137.037 90.0513 134.328 90.0502C131.619 90.0502 129.42 92.249 129.42 94.9587C129.421 97.6675 131.619 99.8628 134.328 99.8628C137.036 99.8617 139.231 97.6668 139.232 94.9587ZM144.783 94.9587C144.782 100.732 140.102 105.412 134.328 105.413C128.554 105.413 123.871 100.733 123.87 94.9587C123.87 89.1837 128.553 84.5 134.328 84.5C140.102 84.5011 144.783 89.1844 144.783 94.9587Z" fill="#00D5BE"/>
<path d="M129.58 126.328C129.58 123.619 127.385 121.421 124.676 121.42C121.966 121.42 119.768 123.619 119.768 126.328C119.769 129.037 121.967 131.232 124.676 131.232C127.384 131.231 129.579 129.036 129.58 126.328ZM135.13 126.328C135.129 132.102 130.449 136.782 124.676 136.783C118.902 136.783 114.218 132.102 114.217 126.328C114.217 120.553 118.901 115.87 124.676 115.87C130.45 115.871 135.13 120.554 135.13 126.328Z" fill="#00D5BE"/>
<path d="M101.428 98.9807C101.428 96.2716 99.2329 94.0733 96.5241 94.0722C93.8144 94.0722 91.6156 96.2709 91.6156 98.9807C91.6168 101.689 93.8151 103.885 96.5241 103.885C99.2322 103.884 101.427 101.689 101.428 98.9807ZM106.978 98.9807C106.977 104.754 102.297 109.434 96.5241 109.435C90.7498 109.435 86.0666 104.755 86.0654 98.9807C86.0654 93.2056 90.7491 88.522 96.5241 88.522C102.298 88.5231 106.978 93.2063 106.978 98.9807Z" fill="#00D5BE"/>
<path d="M105.45 50.7194C105.45 48.0104 103.254 45.8121 100.546 45.811C97.8359 45.811 95.6371 48.0097 95.6371 50.7194C95.6383 53.4282 97.8366 55.6236 100.546 55.6236C103.254 55.6224 105.449 53.4275 105.45 50.7194ZM111 50.7194C110.999 56.4928 106.319 61.1727 100.546 61.1738C94.7713 61.1738 90.088 56.4935 90.0869 50.7194C90.0869 44.9444 94.7706 40.2607 100.546 40.2607C106.32 40.2619 111 44.9451 111 50.7194Z" fill="#00D5BE"/>
<path d="M97.3262 59.9227C97.3262 58.3927 98.5918 57.1523 100.153 57.1523C101.714 57.1523 102.98 58.3927 102.98 59.9227V73.6231L114.998 85.4016L115.361 85.8345C116.085 86.9095 115.964 88.3722 114.998 89.3191C114.032 90.2658 112.54 90.3842 111.443 89.6741L111.001 89.3191L98.1521 76.7312L97.3262 75.9174V59.9227Z" fill="#00D5BE"/>
<path d="M105.45 146.437C105.45 143.728 103.254 141.529 100.546 141.528C97.8359 141.528 95.6371 143.727 95.6371 146.437C95.6383 149.145 97.8366 151.341 100.546 151.341C103.254 151.34 105.449 149.145 105.45 146.437ZM111 146.437C110.999 152.21 106.319 156.89 100.546 156.891C94.7713 156.891 90.088 152.211 90.0869 146.437C90.0869 140.662 94.7706 135.978 100.546 135.978C106.32 135.979 111 140.662 111 146.437Z" fill="#00D5BE"/>
<path d="M97.3262 137.967V121.579L111.001 107.852C112.105 106.746 113.895 106.745 114.998 107.852C116.102 108.96 116.102 110.761 114.998 111.869L102.98 123.934V137.967C102.979 139.533 101.714 140.805 100.153 140.805C98.5924 140.805 97.3272 139.533 97.3262 137.967Z" fill="#00D5BE"/>
<path d="M69.4496 29L70.2863 30.1227L81.9955 45.8718L81.9999 46.806L82.0435 157.606L70.3211 172.978H39.0892L31.3934 159.562V133.888C31.3934 132.339 32.6428 131.082 34.1824 131.082C35.7227 131.082 36.9713 132.338 36.9713 133.888V158.054L42.3096 167.365H67.5758L76.4612 155.703L76.422 47.7445L66.6563 34.6137H38.0695L23.5103 53.981L21.2878 52.2837L19.0654 50.5908L35.2936 29H69.4496ZM23.5103 53.981C22.5807 55.2152 20.8334 55.4589 19.6057 54.5248C18.3774 53.5895 18.136 51.827 19.0654 50.5908L23.5103 53.981Z" fill="#00D5BE"/>
<path d="M23.8681 103.246L12.9928 122.803L24.6509 142.464H34.5867V148.043H21.345L6.43457 122.894L7.19508 121.521L18.8308 100.587L23.8681 103.246Z" fill="#00D5BE"/>
<path d="M26.9341 61.1738L27.5038 61.2313C28.7918 61.4955 29.7609 62.6369 29.7609 64.0048C29.7609 65.3726 28.7918 66.514 27.5038 66.7782L26.9341 66.8357H16.8106L5.65359 78.8406V102.421L9.27101 106.27L9.61994 106.725C10.312 107.845 10.1464 109.334 9.15175 110.273C8.15705 111.211 6.66241 111.288 5.58734 110.529L5.15449 110.153L0 104.668V76.6156L0.759702 75.8017L14.3504 61.1738H26.9341Z" fill="#00D5BE"/>
<path d="M39.4932 64.3933C39.4932 61.6842 37.2978 59.4859 34.5891 59.4848C31.8793 59.4848 29.6806 61.6835 29.6806 64.3933C29.6817 67.102 31.88 69.2974 34.5891 69.2974C37.2971 69.2963 39.4921 67.1013 39.4932 64.3933ZM45.0434 64.3933C45.0423 70.1666 40.3624 74.8465 34.5891 74.8476C28.8147 74.8476 24.1315 70.1673 24.1304 64.3933C24.1304 58.6182 28.814 53.9346 34.5891 53.9346C40.3631 53.9357 45.0434 58.6189 45.0434 64.3933Z" fill="#00D5BE"/>
<path d="M29.8409 94.9587C29.8409 92.2497 27.6455 90.0513 24.9367 90.0502C22.227 90.0502 20.0282 92.249 20.0282 94.9587C20.0294 97.6675 22.2277 99.8628 24.9367 99.8628C27.6448 99.8617 29.8397 97.6668 29.8409 94.9587ZM35.3911 94.9587C35.3899 100.732 30.7101 105.412 24.9367 105.413C19.1624 105.413 14.4792 100.733 14.478 94.9587C14.478 89.1837 19.1617 84.5 24.9367 84.5C30.7108 84.5011 35.3911 89.1844 35.3911 94.9587Z" fill="#00D5BE"/>
<path d="M39.2799 126.328C39.2799 123.619 37.0001 121.421 34.1871 121.42C31.3732 121.42 29.0899 123.619 29.0899 126.328C29.091 129.037 31.3739 131.232 34.1871 131.232C36.9993 131.231 39.2787 129.036 39.2799 126.328ZM45.0436 126.328C45.0424 132.102 40.1825 136.782 34.1871 136.783C28.1907 136.783 23.3273 132.102 23.3262 126.328C23.3262 120.553 28.19 115.87 34.1871 115.87C40.1833 115.871 45.0436 120.554 45.0436 126.328Z" fill="#00D5BE"/>
<path d="M67.6455 98.9807C67.6455 96.2716 65.4502 94.0733 62.7414 94.0722C60.0317 94.0722 57.8329 96.2709 57.8329 98.9807C57.8341 101.689 60.0324 103.885 62.7414 103.885C65.4495 103.884 67.6444 101.689 67.6455 98.9807ZM73.1958 98.9807C73.1946 104.754 68.5148 109.434 62.7414 109.435C56.9671 109.435 52.2838 104.755 52.2827 98.9807C52.2827 93.2056 56.9664 88.522 62.7414 88.522C68.5155 88.5231 73.1958 93.2063 73.1958 98.9807Z" fill="#00D5BE"/>
<path d="M63.6236 50.7194C63.6236 48.0104 61.4282 45.8121 58.7194 45.811C56.0097 45.811 53.811 48.0097 53.811 50.7194C53.8121 53.4282 56.0104 55.6236 58.7194 55.6236C61.4275 55.6224 63.6224 53.4275 63.6236 50.7194ZM69.1738 50.7194C69.1727 56.4928 64.4928 61.1727 58.7194 61.1738C52.9451 61.1738 48.2619 56.4935 48.2607 50.7194C48.2607 44.9444 52.9444 40.2607 58.7194 40.2607C64.4935 40.2619 69.1738 44.9451 69.1738 50.7194Z" fill="#00D5BE"/>
<path d="M55.7221 59.9227C55.7221 58.3929 56.933 57.1527 58.4261 57.1523C59.9196 57.1523 61.1302 58.3927 61.1302 59.9227V75.9175L60.3401 76.7313L48.0535 89.3193L47.6267 89.6742C46.5772 90.3841 45.1495 90.2659 44.2255 89.3193C43.171 88.2376 43.1708 86.4833 44.2255 85.4018L55.7221 73.6232V59.9227Z" fill="#00D5BE"/>
<path d="M63.6236 146.437C63.6236 143.728 61.4282 141.529 58.7194 141.528C56.0097 141.528 53.811 143.727 53.811 146.437C53.8121 149.145 56.0104 151.341 58.7194 151.341C61.4275 151.34 63.6224 149.145 63.6236 146.437ZM69.1738 146.437C69.1727 152.21 64.4928 156.89 58.7194 156.891C52.9451 156.891 48.2619 152.211 48.2607 146.437C48.2607 140.662 52.9444 135.978 58.7194 135.978C64.4935 135.979 69.1738 140.662 69.1738 146.437Z" fill="#00D5BE"/>
<path d="M55.7222 137.967V123.93L44.226 111.87L43.8796 111.422C43.1875 110.32 43.3024 108.822 44.226 107.853C45.1496 106.883 46.5777 106.763 47.6271 107.489L48.0539 107.853L61.1302 121.58V137.967C61.1292 139.533 59.919 140.805 58.4262 140.805C56.9338 140.804 55.7232 139.533 55.7222 137.967Z" fill="#00D5BE"/>
<path d="M205.713 173H172.759L222.972 27.5455H262.602L312.744 173H279.79L243.355 60.7841H242.219L205.713 173ZM203.653 115.827H281.494V139.832H203.653V115.827ZM347.939 27.5455V173H317.683V27.5455H347.939ZM390.431 27.5455V173H360.175V27.5455H390.431ZM454.798 173H403.236V27.5455H455.224C469.855 27.5455 482.45 30.4574 493.009 36.2812C503.567 42.0578 511.688 50.3674 517.369 61.2102C523.098 72.053 525.963 85.0265 525.963 100.131C525.963 115.282 523.098 128.303 517.369 139.193C511.688 150.083 503.52 158.44 492.866 164.264C482.26 170.088 469.571 173 454.798 173ZM433.989 146.651H453.52C462.611 146.651 470.258 145.041 476.46 141.821C482.71 138.554 487.398 133.511 490.523 126.693C493.695 119.828 495.281 110.973 495.281 100.131C495.281 89.3826 493.695 80.5994 490.523 73.7812C487.398 66.9631 482.734 61.9441 476.531 58.7244C470.329 55.5047 462.682 53.8949 453.591 53.8949H433.989V146.651ZM585.891 175.131C574.67 175.131 565.011 172.858 556.914 168.312C548.865 163.72 542.662 157.233 538.306 148.852C533.95 140.424 531.772 130.457 531.772 118.952C531.772 107.73 533.95 97.8816 538.306 89.4062C542.662 80.9309 548.794 74.3258 556.701 69.5909C564.656 64.8561 573.983 62.4886 584.684 62.4886C591.881 62.4886 598.581 63.6487 604.783 65.9688C611.033 68.2415 616.478 71.6742 621.119 76.267C625.806 80.8598 629.452 86.6364 632.056 93.5966C634.66 100.509 635.962 108.606 635.962 117.886V126.196H543.846V107.446H607.482C607.482 103.09 606.535 99.2311 604.641 95.8693C602.747 92.5076 600.12 89.8797 596.758 87.9858C593.443 86.0445 589.585 85.0739 585.181 85.0739C580.588 85.0739 576.516 86.1392 572.965 88.2699C569.461 90.3532 566.715 93.1705 564.727 96.7216C562.738 100.225 561.72 104.132 561.673 108.44V126.267C561.673 131.665 562.667 136.329 564.656 140.259C566.692 144.188 569.556 147.219 573.249 149.349C576.942 151.48 581.322 152.545 586.388 152.545C589.75 152.545 592.828 152.072 595.621 151.125C598.415 150.178 600.806 148.758 602.795 146.864C604.783 144.97 606.299 142.65 607.34 139.903L635.323 141.75C633.903 148.473 630.991 154.345 626.587 159.364C622.231 164.335 616.597 168.218 609.684 171.011C602.818 173.758 594.888 175.131 585.891 175.131ZM734.474 95.017L706.775 96.7216C706.301 94.3542 705.283 92.2235 703.721 90.3295C702.158 88.3883 700.099 86.8494 697.542 85.7131C695.032 84.5294 692.026 83.9375 688.522 83.9375C683.835 83.9375 679.881 84.9318 676.661 86.9205C673.442 88.8617 671.832 91.4659 671.832 94.733C671.832 97.3371 672.873 99.5388 674.957 101.338C677.04 103.137 680.615 104.581 685.681 105.67L705.425 109.648C716.031 111.826 723.939 115.33 729.147 120.159C734.355 124.989 736.96 131.333 736.96 139.193C736.96 146.343 734.853 152.616 730.638 158.014C726.472 163.412 720.743 167.626 713.451 170.656C706.207 173.639 697.85 175.131 688.38 175.131C673.939 175.131 662.433 172.124 653.863 166.111C645.34 160.05 640.345 151.812 638.877 141.395L668.636 139.832C669.535 144.236 671.713 147.598 675.17 149.918C678.626 152.19 683.053 153.327 688.451 153.327C693.754 153.327 698.015 152.309 701.235 150.273C704.502 148.189 706.159 145.514 706.207 142.247C706.159 139.501 704.999 137.252 702.727 135.5C700.454 133.701 696.95 132.328 692.215 131.381L673.323 127.616C662.67 125.486 654.739 121.793 649.531 116.537C644.37 111.281 641.789 104.581 641.789 96.4375C641.789 89.4299 643.683 83.393 647.471 78.3267C651.306 73.2604 656.68 69.3542 663.593 66.608C670.553 63.8617 678.697 62.4886 688.025 62.4886C701.803 62.4886 712.646 65.4006 720.553 71.2244C728.508 77.0483 733.148 84.9792 734.474 95.017ZM771.426 141.608L771.497 105.315H775.901L810.844 63.9091H845.574L798.628 118.739H791.455L771.426 141.608ZM744.011 173V27.5455H774.267V173H744.011ZM812.193 173L780.091 125.486L800.261 104.108L847.634 173H812.193ZM908.346 173H875.391L925.604 27.5455H965.235L1015.38 173H982.423L945.988 60.7841H944.852L908.346 173ZM906.286 115.827H984.127V139.832H906.286V115.827ZM1020.9 173V63.9091H1051.16V173H1020.9ZM1036.1 49.8466C1031.6 49.8466 1027.74 48.3551 1024.52 45.3722C1021.35 42.3419 1019.77 38.7197 1019.77 34.5057C1019.77 30.339 1021.35 26.7642 1024.52 23.7812C1027.74 20.7509 1031.6 19.2358 1036.1 19.2358C1040.6 19.2358 1044.43 20.7509 1047.61 23.7812C1050.83 26.7642 1052.44 30.339 1052.44 34.5057C1052.44 38.7197 1050.83 42.3419 1047.61 45.3722C1044.43 48.3551 1040.6 49.8466 1036.1 49.8466Z" fill="white"/>
<path d="M171.73 211V188.455H174.328V196.777H174.548C174.739 196.483 175.003 196.109 175.341 195.654C175.686 195.192 176.178 194.781 176.816 194.421C177.462 194.054 178.335 193.871 179.436 193.871C180.86 193.871 182.115 194.227 183.201 194.939C184.287 195.65 185.135 196.66 185.744 197.966C186.353 199.272 186.658 200.813 186.658 202.589C186.658 204.38 186.353 205.932 185.744 207.246C185.135 208.552 184.291 209.565 183.212 210.284C182.133 210.996 180.889 211.352 179.48 211.352C178.394 211.352 177.524 211.172 176.871 210.813C176.218 210.446 175.715 210.031 175.363 209.569C175.011 209.099 174.739 208.71 174.548 208.402H174.24V211H171.73ZM174.284 202.545C174.284 203.822 174.471 204.949 174.846 205.925C175.22 206.894 175.767 207.653 176.486 208.204C177.205 208.747 178.086 209.018 179.128 209.018C180.214 209.018 181.12 208.732 181.847 208.16C182.581 207.58 183.131 206.802 183.498 205.826C183.873 204.843 184.06 203.749 184.06 202.545C184.06 201.357 183.876 200.285 183.509 199.331C183.15 198.37 182.603 197.61 181.869 197.052C181.142 196.487 180.229 196.205 179.128 196.205C178.071 196.205 177.183 196.472 176.464 197.008C175.745 197.537 175.201 198.278 174.835 199.232C174.468 200.179 174.284 201.283 174.284 202.545ZM189.84 217.341C189.399 217.341 189.007 217.304 188.662 217.231C188.317 217.165 188.078 217.099 187.946 217.033L188.607 214.743C189.238 214.904 189.796 214.963 190.28 214.919C190.764 214.875 191.194 214.658 191.568 214.27C191.95 213.888 192.298 213.268 192.614 212.409L193.098 211.088L186.845 194.091H189.663L194.331 207.565H194.507L199.175 194.091H201.993L194.815 213.466C194.493 214.339 194.093 215.062 193.615 215.635C193.138 216.214 192.584 216.644 191.953 216.923C191.329 217.201 190.625 217.341 189.84 217.341ZM210.773 211V188.455H213.503V208.578H223.983V211H210.773ZM233.572 211.308C232.119 211.308 230.824 211.059 229.686 210.56C228.556 210.061 227.657 209.367 226.989 208.479C226.329 207.584 225.969 206.545 225.91 205.364H228.684C228.743 206.09 228.993 206.718 229.433 207.246C229.873 207.767 230.45 208.171 231.161 208.457C231.873 208.743 232.662 208.886 233.528 208.886C234.497 208.886 235.356 208.718 236.104 208.38C236.853 208.042 237.44 207.573 237.866 206.971C238.291 206.369 238.504 205.672 238.504 204.879C238.504 204.05 238.299 203.32 237.888 202.689C237.477 202.05 236.875 201.551 236.082 201.191C235.29 200.832 234.321 200.652 233.176 200.652H231.371V198.23H233.176C234.071 198.23 234.857 198.069 235.532 197.746C236.214 197.423 236.746 196.968 237.128 196.381C237.517 195.794 237.711 195.104 237.711 194.311C237.711 193.548 237.543 192.884 237.205 192.319C236.867 191.753 236.39 191.313 235.774 190.998C235.165 190.682 234.446 190.524 233.616 190.524C232.838 190.524 232.104 190.667 231.415 190.953C230.732 191.232 230.174 191.64 229.741 192.175C229.308 192.704 229.073 193.342 229.037 194.091H226.395C226.439 192.909 226.795 191.875 227.463 190.987C228.13 190.091 229.004 189.394 230.083 188.895C231.169 188.396 232.361 188.146 233.66 188.146C235.055 188.146 236.251 188.429 237.249 188.994C238.247 189.552 239.014 190.289 239.55 191.207C240.086 192.124 240.354 193.115 240.354 194.179C240.354 195.449 240.02 196.531 239.352 197.426C238.691 198.322 237.792 198.942 236.655 199.287V199.463C238.078 199.698 239.19 200.303 239.99 201.279C240.79 202.248 241.19 203.448 241.19 204.879C241.19 206.105 240.856 207.206 240.188 208.182C239.528 209.151 238.625 209.914 237.48 210.472C236.335 211.029 235.033 211.308 233.572 211.308ZM268.966 188.455V211H266.323L254.038 193.298H253.818V211H251.088V188.455H253.73L266.059 206.2H266.279V188.455H268.966ZM279.306 211.352C277.676 211.352 276.271 210.993 275.089 210.273C273.915 209.547 273.009 208.534 272.37 207.235C271.739 205.929 271.424 204.41 271.424 202.678C271.424 200.946 271.739 199.419 272.37 198.098C273.009 196.77 273.897 195.735 275.034 194.994C276.179 194.245 277.515 193.871 279.042 193.871C279.922 193.871 280.792 194.018 281.651 194.311C282.509 194.605 283.291 195.082 283.995 195.742C284.7 196.395 285.261 197.261 285.68 198.34C286.098 199.419 286.307 200.747 286.307 202.325V203.426H273.273V201.18H283.665C283.665 200.226 283.474 199.375 283.093 198.626C282.718 197.878 282.183 197.287 281.485 196.854C280.796 196.421 279.981 196.205 279.042 196.205C278.007 196.205 277.111 196.461 276.355 196.975C275.607 197.482 275.031 198.142 274.627 198.957C274.223 199.771 274.022 200.645 274.022 201.577V203.074C274.022 204.351 274.242 205.433 274.682 206.321C275.13 207.202 275.75 207.874 276.543 208.336C277.335 208.791 278.256 209.018 279.306 209.018C279.988 209.018 280.605 208.923 281.155 208.732C281.713 208.534 282.194 208.241 282.597 207.852C283.001 207.455 283.313 206.964 283.533 206.376L286.043 207.081C285.779 207.932 285.335 208.681 284.711 209.327C284.087 209.965 283.317 210.464 282.399 210.824C281.482 211.176 280.451 211.352 279.306 211.352ZM295.753 194.091V196.293H286.99V194.091H295.753ZM289.544 190.04H292.142V206.156C292.142 206.89 292.249 207.441 292.461 207.808C292.682 208.167 292.96 208.409 293.298 208.534C293.643 208.652 294.006 208.71 294.388 208.71C294.674 208.71 294.909 208.696 295.092 208.666C295.276 208.629 295.423 208.6 295.533 208.578L296.061 210.912C295.885 210.978 295.639 211.044 295.324 211.11C295.008 211.183 294.608 211.22 294.124 211.22C293.39 211.22 292.671 211.062 291.966 210.747C291.269 210.431 290.689 209.951 290.227 209.305C289.772 208.659 289.544 207.844 289.544 206.861V190.04ZM301.632 211L296.48 194.091H299.21L302.865 207.037H303.041L306.652 194.091H309.426L312.993 206.993H313.169L316.824 194.091H319.554L314.402 211H311.848L308.149 198.01H307.885L304.186 211H301.632ZM327.423 211.352C325.896 211.352 324.557 210.989 323.404 210.262C322.26 209.536 321.364 208.519 320.718 207.213C320.08 205.907 319.761 204.38 319.761 202.634C319.761 200.872 320.08 199.335 320.718 198.021C321.364 196.707 322.26 195.687 323.404 194.961C324.557 194.234 325.896 193.871 327.423 193.871C328.949 193.871 330.285 194.234 331.43 194.961C332.582 195.687 333.477 196.707 334.116 198.021C334.762 199.335 335.084 200.872 335.084 202.634C335.084 204.38 334.762 205.907 334.116 207.213C333.477 208.519 332.582 209.536 331.43 210.262C330.285 210.989 328.949 211.352 327.423 211.352ZM327.423 209.018C328.582 209.018 329.536 208.721 330.285 208.127C331.033 207.532 331.587 206.751 331.947 205.782C332.307 204.813 332.486 203.764 332.486 202.634C332.486 201.503 332.307 200.45 331.947 199.474C331.587 198.498 331.033 197.709 330.285 197.107C329.536 196.505 328.582 196.205 327.423 196.205C326.263 196.205 325.309 196.505 324.56 197.107C323.812 197.709 323.258 198.498 322.898 199.474C322.538 200.45 322.359 201.503 322.359 202.634C322.359 203.764 322.538 204.813 322.898 205.782C323.258 206.751 323.812 207.532 324.56 208.127C325.309 208.721 326.263 209.018 327.423 209.018ZM337.19 211V194.091H339.7V196.645H339.876C340.185 195.808 340.742 195.129 341.55 194.608C342.357 194.087 343.267 193.827 344.28 193.827C344.471 193.827 344.709 193.83 344.995 193.838C345.282 193.845 345.498 193.856 345.645 193.871V196.513C345.557 196.491 345.355 196.458 345.039 196.414C344.731 196.362 344.405 196.337 344.06 196.337C343.238 196.337 342.504 196.509 341.858 196.854C341.219 197.192 340.713 197.661 340.339 198.263C339.972 198.858 339.788 199.536 339.788 200.3V211H337.19ZM349.286 204.835L349.242 201.621H349.771L357.168 194.091H360.383L352.501 202.061H352.281L349.286 204.835ZM346.864 211V188.455H349.462V211H346.864ZM357.609 211L351.004 202.634L352.853 200.828L360.911 211H357.609ZM373.844 197.878L371.51 198.538C371.363 198.149 371.147 197.771 370.861 197.404C370.582 197.03 370.2 196.722 369.716 196.48C369.231 196.238 368.611 196.116 367.855 196.116C366.821 196.116 365.958 196.355 365.268 196.832C364.586 197.302 364.245 197.9 364.245 198.626C364.245 199.272 364.479 199.782 364.949 200.157C365.419 200.531 366.153 200.843 367.151 201.092L369.661 201.709C371.173 202.076 372.299 202.637 373.04 203.393C373.782 204.142 374.152 205.107 374.152 206.288C374.152 207.257 373.873 208.123 373.316 208.886C372.765 209.65 371.995 210.251 371.004 210.692C370.013 211.132 368.861 211.352 367.547 211.352C365.823 211.352 364.395 210.978 363.265 210.229C362.135 209.481 361.419 208.387 361.118 206.949L363.584 206.332C363.819 207.242 364.263 207.925 364.916 208.38C365.577 208.835 366.439 209.062 367.503 209.062C368.714 209.062 369.676 208.806 370.387 208.292C371.107 207.771 371.466 207.147 371.466 206.42C371.466 205.833 371.261 205.342 370.85 204.945C370.439 204.542 369.808 204.241 368.956 204.043L366.138 203.382C364.59 203.015 363.452 202.446 362.725 201.676C362.006 200.898 361.647 199.925 361.647 198.759C361.647 197.804 361.914 196.96 362.45 196.227C362.993 195.493 363.731 194.917 364.663 194.498C365.602 194.08 366.667 193.871 367.855 193.871C369.529 193.871 370.842 194.238 371.796 194.972C372.758 195.705 373.44 196.674 373.844 197.878Z" fill="white"/>
</svg>
