<svg width="1455" height="255" viewBox="0 0 1455 255" fill="none" xmlns="http://www.w3.org/2000/svg">
<path d="M325.609 146.314H266.927L250.168 181.005H198L288.251 11.0049H347.601L378 181.005H330.119L325.553 146.314H325.609ZM321.044 112.793L316.255 75.9312C315.309 68.9708 314.363 58.4467 314.363 45.751H313.861C309.574 58.4467 305.51 66.5765 300.945 75.9312L283.24 112.793H321.044Z" fill="white"/>
<path d="M433.38 181.005H385L415.62 7.00488H464L433.38 181.005Z" fill="white"/>
<path d="M501.38 181.005H453L483.62 7.00488H532L501.38 181.005Z" fill="white"/>
<path d="M608.087 11.0049H675.544C723 11.0049 756 37.3429 756 86.1768C756 135.011 723 181.005 652.181 181.005H578L608.087 11.0049ZM652.629 145.368C692.857 145.368 703.95 112.348 703.95 87.1791C703.95 57.2217 688.038 46.6976 674.088 46.6976H652.181L634.588 145.368H652.629Z" fill="white"/>
<path d="M881.604 131.123H801.154C802.323 145.545 812.178 151.079 822.923 151.079C834.392 151.079 840.182 144.819 844.97 137.384L876.816 153.483C867.463 168.856 852.653 184.005 819.137 184.005C791.355 184.005 755 173.663 755 128.216C755 95.5142 773.651 58.0049 825.874 58.0049C855.103 58.0049 885 69.7999 885 107.98C885 114.688 884.054 123.353 881.66 131.067L881.604 131.123ZM841.184 100.098C841.184 89.2533 833.779 84.5018 824.203 84.5018C811.009 84.5018 804.105 93.6136 802.156 106.638H840.238C840.739 105.409 841.184 102.781 841.184 100.154V100.098Z" fill="white"/>
<path d="M878 160.872L904.41 134.667C912.562 144.501 929.145 150.759 945.449 150.759C953.825 150.759 957.454 149.082 957.454 144.501C957.454 140.925 954.83 139.472 946.398 138.019L934.394 135.84C905.583 130.532 896.202 117.345 896.202 100.526C896.202 77.9526 912.785 58.0049 953.601 58.0049C974.26 58.0049 993.691 63.0337 1011 75.3264L985.818 102.482C977.443 94.5477 962.312 89.5189 949.079 89.5189C941.373 89.5189 938.526 91.1951 938.526 94.8271C938.526 97.7326 940.424 99.6324 947.627 101.085L962.758 104.214C988.442 109.522 998.27 119.58 998.27 139.304C998.27 160.928 986.488 184.005 940.424 184.005C909.938 184.005 890.005 173.891 878 160.928V160.872Z" fill="white"/>
<path d="M1105.04 109.496L1136.05 181.005H1087.27L1069.5 135.9L1056.31 148.125L1050.56 181.005H1002L1032.73 7.00488H1081.29L1065.2 98.4428L1104.36 60.9856H1157L1105.09 109.496H1105.04Z" fill="white"/>
<path d="M1315.32 146.314H1256.31L1239.46 181.005H1187L1277.75 11.0049H1337.43L1368 181.005H1319.85L1315.26 146.314H1315.32ZM1310.73 112.793L1305.91 75.9312C1304.96 68.9708 1304.01 58.4467 1304.01 45.751H1303.51C1299.19 58.4467 1295.11 66.5765 1290.52 75.9312L1272.71 112.793H1310.73Z" fill="white"/>
<path d="M1396.52 61.4841H1444.46L1421.94 181.005H1374L1396.52 61.4841ZM1405.61 7.00488H1455L1447.81 47.1416H1398.42L1405.61 7.00488Z" fill="white"/>
<path d="M203 243.339V203.005H207.541V217.929H207.919C208.243 217.43 208.73 216.709 209.324 215.932C209.919 215.1 210.784 214.378 211.919 213.713C213.054 213.047 214.568 212.714 216.459 212.714C218.946 212.714 221.108 213.324 223 214.6C224.892 215.876 226.351 217.707 227.432 220.037C228.514 222.368 229 225.142 229 228.304C229 231.466 228.459 234.296 227.432 236.626C226.351 238.956 224.892 240.787 223 242.063C221.108 243.339 218.946 244.005 216.514 244.005C214.622 244.005 213.108 243.672 211.973 243.006C210.838 242.34 209.973 241.619 209.324 240.787C208.73 239.955 208.243 239.234 207.919 238.734H207.378V243.395H203V243.339ZM207.486 228.248C207.486 230.523 207.811 232.52 208.459 234.296C209.108 236.016 210.081 237.403 211.324 238.346C212.568 239.345 214.135 239.788 215.919 239.788C217.703 239.788 219.378 239.289 220.676 238.235C221.973 237.181 222.892 235.794 223.541 234.074C224.189 232.299 224.514 230.357 224.514 228.193C224.514 226.029 224.189 224.143 223.541 222.423C222.892 220.703 221.973 219.372 220.676 218.373C219.378 217.374 217.811 216.875 215.865 216.875C213.919 216.875 212.459 217.374 211.216 218.317C209.973 219.261 209 220.592 208.351 222.312C207.703 224.032 207.378 225.974 207.378 228.248H207.486Z" fill="#00D3BE"/>
<path d="M235.486 255.005C234.686 255.005 233.943 254.949 233.314 254.837C232.686 254.725 232.229 254.613 232 254.445L233.2 250.301C234.343 250.581 235.371 250.693 236.286 250.637C237.2 250.581 237.943 250.189 238.686 249.461C239.371 248.789 240 247.613 240.629 246.101L241.543 243.693L230 213.005H235.2L243.829 237.365H244.171L252.8 213.005H258L244.743 248.005C244.171 249.573 243.429 250.917 242.514 251.925C241.657 252.989 240.629 253.717 239.486 254.221C238.343 254.725 237.029 254.949 235.6 254.949L235.486 255.005Z" fill="#00D3BE"/>
<path d="M275 244.005V203.005H279.751V239.606H298V244.005H275Z" fill="#00D3BE"/>
<path d="M315.972 243.84C313.313 243.84 310.937 243.401 308.901 242.523C306.808 241.645 305.168 240.382 303.98 238.846C302.792 237.254 302.113 235.443 302 233.357H307.091C307.204 234.619 307.657 235.772 308.449 236.705C309.24 237.638 310.315 238.352 311.616 238.846C312.917 239.34 314.331 239.614 315.915 239.614C317.669 239.614 319.253 239.34 320.61 238.736C321.968 238.132 323.042 237.309 323.834 236.266C324.626 235.223 325.022 233.961 325.022 232.589C325.022 231.216 324.626 229.844 323.891 228.692C323.156 227.594 322.024 226.716 320.61 226.057C319.196 225.398 317.386 225.124 315.293 225.124H312.012V220.843H315.293C316.933 220.843 318.347 220.568 319.592 219.965C320.836 219.416 321.798 218.593 322.533 217.55C323.212 216.507 323.608 215.299 323.608 213.872C323.608 212.445 323.325 211.348 322.703 210.36C322.081 209.372 321.232 208.603 320.101 208C318.97 207.451 317.669 207.176 316.141 207.176C314.727 207.176 313.37 207.451 312.125 207.945C310.881 208.439 309.863 209.152 309.071 210.085C308.279 211.018 307.826 212.171 307.77 213.488H302.962C303.018 211.402 303.697 209.536 304.885 208C306.129 206.408 307.713 205.2 309.693 204.322C311.673 203.444 313.822 203.005 316.198 203.005C318.743 203.005 320.95 203.499 322.76 204.487C324.57 205.475 325.984 206.792 326.945 208.439C327.907 210.085 328.416 211.842 328.416 213.708C328.416 215.958 327.794 217.879 326.606 219.471C325.418 221.062 323.778 222.16 321.685 222.764V223.093C324.287 223.532 326.323 224.575 327.794 226.277C329.265 227.978 330 230.119 330 232.643C330 234.839 329.378 236.76 328.19 238.461C327.002 240.163 325.305 241.535 323.212 242.523C321.119 243.511 318.743 244.005 316.085 244.005L315.972 243.84Z" fill="#00D3BE"/>
<path d="M367.945 203.005V244.005H363.23L341.269 211.803H340.88V244.005H336V203.005H340.714L362.787 235.263H363.175V203.005H368H367.945Z" fill="#00D3BE"/>
<path d="M387.344 243.895C384.363 243.895 381.831 243.238 379.694 241.978C377.556 240.719 375.925 238.911 374.744 236.611C373.563 234.311 373 231.627 373 228.56C373 225.493 373.563 222.809 374.744 220.454C375.925 218.099 377.5 216.291 379.581 214.977C381.663 213.662 384.081 213.005 386.838 213.005C388.413 213.005 389.988 213.279 391.563 213.772C393.138 214.265 394.544 215.141 395.838 216.291C397.131 217.441 398.144 218.975 398.875 220.892C399.606 222.809 400 225.164 400 227.957V229.874H376.375V225.931H395.219C395.219 224.233 394.881 222.754 394.206 221.44C393.531 220.125 392.575 219.084 391.281 218.318C389.987 217.551 388.525 217.167 386.838 217.167C384.981 217.167 383.35 217.606 382 218.537C380.65 219.413 379.581 220.618 378.85 222.042C378.119 223.466 377.725 225 377.725 226.697V229.326C377.725 231.572 378.119 233.489 378.906 235.077C379.694 236.666 380.819 237.816 382.281 238.637C383.688 239.459 385.375 239.842 387.287 239.842C388.525 239.842 389.65 239.678 390.663 239.349C391.675 239.021 392.519 238.473 393.25 237.816C393.981 237.104 394.544 236.282 394.937 235.242L399.494 236.501C398.988 237.98 398.2 239.349 397.075 240.445C395.95 241.54 394.544 242.471 392.856 243.074C391.169 243.676 389.313 244.005 387.231 244.005L387.344 243.895Z" fill="#00D3BE"/>
<path d="M417.454 213.394V217.338H402V213.394H417.454ZM406.532 206.116H411.119V235.005C411.119 236.338 411.338 237.283 411.666 237.949C412.048 238.616 412.539 239.06 413.14 239.227C413.741 239.449 414.396 239.56 415.051 239.56C415.543 239.56 415.979 239.56 416.307 239.449C416.635 239.394 416.908 239.338 417.072 239.283L418 243.449C417.672 243.56 417.236 243.672 416.689 243.838C416.143 243.949 415.433 244.005 414.56 244.005C413.249 244.005 411.993 243.727 410.792 243.172C409.536 242.616 408.553 241.727 407.734 240.56C406.915 239.394 406.532 237.949 406.532 236.172V206.005V206.116Z" fill="#00D3BE"/>
<path d="M428.358 244.005L419 213.005H423.961L430.613 236.781H430.952L437.548 213.005H442.565L449.048 236.667H449.387L456.039 213.005H461L451.642 244.005H447.019L440.31 220.172H439.803L433.094 244.005H428.471H428.358Z" fill="#00D3BE"/>
<path d="M475.5 244.005C472.822 244.005 470.472 243.345 468.449 242.081C466.427 240.817 464.842 239.003 463.694 236.695C462.547 234.386 462 231.693 462 228.56C462 225.427 462.547 222.734 463.694 220.37C464.842 218.062 466.427 216.248 468.449 214.929C470.472 213.61 472.822 213.005 475.5 213.005C478.178 213.005 480.528 213.664 482.551 214.929C484.573 216.193 486.158 218.007 487.306 220.37C488.453 222.679 489 225.427 489 228.56C489 231.693 488.453 234.386 487.306 236.695C486.158 239.003 484.573 240.817 482.551 242.081C480.528 243.345 478.178 244.005 475.5 244.005ZM475.5 239.828C477.522 239.828 479.217 239.278 480.528 238.234C481.84 237.189 482.824 235.815 483.48 234.056C484.136 232.297 484.409 230.484 484.409 228.45C484.409 226.416 484.081 224.602 483.48 222.844C482.824 221.14 481.895 219.711 480.528 218.666C479.217 217.622 477.522 217.072 475.5 217.072C473.478 217.072 471.783 217.622 470.472 218.666C469.16 219.711 468.176 221.14 467.52 222.844C466.864 224.547 466.591 226.416 466.591 228.45C466.591 230.484 466.919 232.297 467.52 234.056C468.121 235.815 469.105 237.134 470.472 238.234C471.838 239.333 473.478 239.828 475.5 239.828Z" fill="#00D3BE"/>
<path d="M494 244.005V213.508H498.451V218.097H498.78C499.33 216.586 500.319 215.355 501.747 214.404C503.176 213.453 504.769 213.005 506.582 213.005C506.912 213.005 507.352 213.005 507.846 213.005C508.341 213.005 508.725 213.005 509 213.061V217.817C509 217.817 508.506 217.705 507.956 217.649C507.407 217.537 506.802 217.537 506.198 217.537C504.714 217.537 503.451 217.817 502.297 218.489C501.143 219.104 500.264 219.944 499.604 221.007C498.945 222.07 498.615 223.301 498.615 224.7V244.005H494Z" fill="#00D3BE"/>
<path d="M512 244.005V203.005H516.626V244.005H512ZM516.295 232.782V226.917H517.176L530.337 213.213H536.064L522.077 227.706H521.692L516.35 232.726L516.295 232.782ZM531.108 244.005L519.379 228.778L522.683 225.507L537 244.005H531.163H531.108Z" fill="#00D3BE"/>
<path d="M561.373 220.205L557.097 221.359C556.812 220.645 556.413 219.985 555.9 219.326C555.387 218.666 554.703 218.117 553.791 217.677C552.879 217.237 551.739 217.017 550.371 217.017C548.489 217.017 546.893 217.457 545.639 218.281C544.385 219.106 543.758 220.205 543.758 221.469C543.758 222.624 544.214 223.503 545.069 224.163C545.924 224.822 547.292 225.372 549.116 225.812L553.734 226.911C556.527 227.57 558.58 228.56 559.948 229.879C561.316 231.198 562 232.902 562 235.046C562 236.75 561.487 238.289 560.461 239.663C559.435 241.037 558.009 242.081 556.185 242.851C554.361 243.62 552.252 244.005 549.8 244.005C546.608 244.005 543.986 243.345 541.933 242.026C539.881 240.707 538.57 238.783 538 236.2L542.561 235.101C543.017 236.695 543.815 237.904 545.012 238.728C546.209 239.553 547.805 239.938 549.743 239.938C551.967 239.938 553.734 239.498 555.045 238.563C556.356 237.629 557.04 236.53 557.04 235.266C557.04 234.221 556.641 233.342 555.9 232.627C555.159 231.913 553.962 231.363 552.423 231.033L547.235 229.879C544.385 229.219 542.276 228.23 540.964 226.856C539.653 225.482 538.969 223.778 538.969 221.689C538.969 219.985 539.482 218.501 540.451 217.182C541.42 215.863 542.789 214.874 544.499 214.104C546.209 213.39 548.147 213.005 550.371 213.005C553.449 213.005 555.843 213.664 557.61 214.929C559.378 216.248 560.632 217.952 561.373 220.095V220.205Z" fill="#00D3BE"/>
<path d="M153.872 0.00488281L174.289 26.8475C175.458 28.3845 175.154 30.5756 173.609 31.7384C172.064 32.8997 169.866 32.5968 168.696 31.0623L150.379 6.98408H114.414L102.122 23.3089L102.018 157.517L113.257 172.026H145.045L151.761 160.45V130.407C151.761 128.48 153.332 126.917 155.27 126.917C157.207 126.918 158.779 128.48 158.779 130.407V162.326L149.096 179.005H109.808L95.7292 160.843L95 159.899L95.1097 22.142L95.1151 20.9806L109.847 1.40072L110.899 0.00488281H153.872Z" fill="#00D3BE"/>
<path d="M189.049 115.031L190 116.738L188.999 118.418L171.46 148.005H155V141.069H167.356L181.842 116.619L168.329 92.3104L174.585 89.0049L189.049 115.031Z" fill="#00D3BE"/>
<path d="M180.159 40.0049L197.056 58.1911L198 59.203V94.0795L191.592 100.899C190.261 102.314 188.035 102.38 186.622 101.047C185.209 99.7145 185.143 97.4853 186.474 96.0703L190.971 91.2859V61.9746L177.1 47.044H164.514C162.573 47.044 161 45.4682 161 43.5244C161 41.5806 162.573 40.0049 164.514 40.0049H180.159Z" fill="#00D3BE"/>
<path d="M161.1 44.0076C161.1 40.6396 158.37 37.9066 155.003 37.9052C151.634 37.9052 148.9 40.6387 148.9 44.0076C148.902 47.3752 151.635 50.1046 155.003 50.1046C158.369 50.1032 161.098 47.3744 161.1 44.0076ZM168 44.0076C167.999 51.1853 162.18 57.0035 155.003 57.0049C147.824 57.0049 142.001 51.1861 142 44.0076C142 36.8278 147.823 31.0049 155.003 31.0049C162.181 31.0063 168 36.8287 168 44.0076Z" fill="#00D3BE"/>
<path d="M173.1 82.0076C173.1 78.6396 170.37 75.9066 167.003 75.9052C163.634 75.9052 160.9 78.6387 160.9 82.0076C160.902 85.3752 163.635 88.1046 167.003 88.1046C170.369 88.1032 173.098 85.3744 173.1 82.0076ZM180 82.0076C179.999 89.1853 174.18 95.0035 167.003 95.0049C159.824 95.0049 154.001 89.1861 154 82.0076C154 74.8278 159.823 69.0049 167.003 69.0049C174.181 69.0063 180 74.8287 180 82.0076Z" fill="#00D3BE"/>
<path d="M161.1 121.008C161.1 117.64 158.37 114.907 155.003 114.905C151.634 114.905 148.9 117.639 148.9 121.008C148.902 124.375 151.635 127.105 155.003 127.105C158.369 127.103 161.098 124.374 161.1 121.008ZM168 121.008C167.999 128.185 162.18 134.003 155.003 134.005C147.824 134.005 142.001 128.186 142 121.008C142 113.828 147.823 108.005 155.003 108.005C162.181 108.006 168 113.829 168 121.008Z" fill="#00D3BE"/>
<path d="M126.1 87.0076C126.1 83.6396 123.37 80.9066 120.003 80.9052C116.634 80.9052 113.9 83.6387 113.9 87.0076C113.902 90.3752 116.635 93.1046 120.003 93.1046C123.369 93.1032 126.098 90.3744 126.1 87.0076ZM133 87.0076C132.999 94.1853 127.18 100.003 120.003 100.005C112.824 100.005 107.001 94.1861 107 87.0076C107 79.8278 112.823 74.0049 120.003 74.0049C127.181 74.0063 133 79.8287 133 87.0076Z" fill="#00D3BE"/>
<path d="M131.1 27.0076C131.1 23.6396 128.37 20.9065 125.003 20.9052C121.634 20.9052 118.9 23.6387 118.9 27.0076C118.902 30.3752 121.635 33.1046 125.003 33.1046C128.369 33.1032 131.098 30.3744 131.1 27.0076ZM138 27.0076C137.999 34.1853 132.18 40.0035 125.003 40.0049C117.824 40.0049 112.001 34.1862 112 27.0076C112 19.8278 117.823 14.0049 125.003 14.0049C132.181 14.0063 138 19.8287 138 27.0076Z" fill="#00D3BE"/>
<path d="M121 38.4491C121 36.5469 122.573 35.0049 124.514 35.0049C126.455 35.0049 128.029 36.5469 128.029 38.4491V55.4821L142.971 70.1256L143.421 70.6637C144.322 72.0003 144.171 73.8188 142.971 74.996C141.77 76.173 139.914 76.3202 138.55 75.4373L138.001 74.996L122.027 59.3461L121 58.3344V38.4491Z" fill="#00D3BE"/>
<path d="M131.1 146.008C131.1 142.64 128.37 139.907 125.003 139.905C121.634 139.905 118.9 142.639 118.9 146.008C118.902 149.375 121.635 152.105 125.003 152.105C128.369 152.103 131.098 149.374 131.1 146.008ZM138 146.008C137.999 153.185 132.18 159.003 125.003 159.005C117.824 159.005 112.001 153.186 112 146.008C112 138.828 117.823 133.005 125.003 133.005C132.181 133.006 138 138.829 138 146.008Z" fill="#00D3BE"/>
<path d="M121 135.477V115.103L138.001 98.0368C139.374 96.6615 141.599 96.6603 142.971 98.0368C144.343 99.4146 144.343 101.653 142.971 103.031L128.029 118.03V135.477C128.028 137.424 126.455 139.005 124.514 139.005C122.574 139.005 121.001 137.424 121 135.477Z" fill="#00D3BE"/>
<path d="M86.3427 0.00488281L87.3829 1.40072L101.94 20.9806L101.946 22.142L102 159.894L87.4263 179.005H48.5974L39.0297 162.326V130.407C39.0297 128.48 40.5829 126.918 42.497 126.917C44.412 126.917 45.9644 128.48 45.9644 130.407V160.45L52.6011 172.026H84.0131L95.0599 157.528L95.0111 23.3089L82.87 6.98408H47.3296L29.229 31.0623L26.4659 28.9522L23.7029 26.8475L43.8785 0.00488281H86.3427ZM29.229 31.0623C28.0734 32.5968 25.901 32.8997 24.3747 31.7384C22.8476 30.5756 22.5475 28.3845 23.7029 26.8475L29.229 31.0623Z" fill="#00D3BE"/>
<path d="M29.6741 92.3104L16.1535 116.625L30.6474 141.069H43V148.005H26.5373L8 116.738L8.9455 115.031L23.4116 89.0049L29.6741 92.3104Z" fill="#00D3BE"/>
<path d="M33.4856 40.0049L34.194 40.0764C35.7952 40.4048 37 41.8238 37 43.5244C37 45.225 35.7952 46.6441 34.194 46.9724L33.4856 47.0439H20.8997L7.02879 61.9689V91.2855L11.5261 96.0698L11.9599 96.6363C12.8203 98.0289 12.6144 99.8802 11.3779 101.047C10.1412 102.213 8.28299 102.309 6.94642 101.366L6.40828 100.898L0 94.0791V59.2028L0.944494 58.1909L17.8411 40.0049H33.4856Z" fill="#00D3BE"/>
<path d="M49.0997 44.0076C49.0997 40.6396 46.3704 37.9065 43.0027 37.9052C39.6338 37.9052 36.9003 40.6387 36.9003 44.0076C36.9017 47.3752 39.6347 50.1046 43.0027 50.1046C46.3695 50.1032 49.0983 47.3744 49.0997 44.0076ZM56 44.0076C55.9986 51.1853 50.1804 57.0035 43.0027 57.0049C35.8238 57.0049 30.0014 51.1862 30 44.0076C30 36.8278 35.8229 31.0049 43.0027 31.0049C50.1813 31.0063 56 36.8287 56 44.0076Z" fill="#00D3BE"/>
<path d="M37.0997 82.0076C37.0997 78.6396 34.3704 75.9065 31.0027 75.9052C27.6338 75.9052 24.9003 78.6387 24.9003 82.0076C24.9017 85.3752 27.6347 88.1046 31.0027 88.1046C34.3695 88.1032 37.0983 85.3744 37.0997 82.0076ZM44 82.0076C43.9986 89.1853 38.1804 95.0035 31.0027 95.0049C23.8238 95.0049 18.0014 89.1861 18 82.0076C18 74.8278 23.8229 69.0049 31.0027 69.0049C38.1813 69.0063 44 74.8287 44 82.0076Z" fill="#00D3BE"/>
<path d="M48.8343 121.008C48.8343 117.64 46 114.907 42.5028 114.905C39.0044 114.905 36.1657 117.639 36.1657 121.008C36.1671 124.375 39.0053 127.105 42.5028 127.105C45.9991 127.103 48.8329 124.374 48.8343 121.008ZM56 121.008C55.9985 128.185 49.9566 134.003 42.5028 134.005C35.0478 134.005 29.0015 128.186 29 121.008C29 113.828 35.0469 108.005 42.5028 108.005C49.9575 108.006 56 113.829 56 121.008Z" fill="#00D3BE"/>
<path d="M84.0997 87.0076C84.0997 83.6396 81.3704 80.9066 78.0027 80.9052C74.6339 80.9052 71.9003 83.6387 71.9003 87.0076C71.9017 90.3752 74.6347 93.1046 78.0027 93.1046C81.3695 93.1032 84.0983 90.3744 84.0997 87.0076ZM91 87.0076C90.9986 94.1853 85.1804 100.003 78.0027 100.005C70.8238 100.005 65.0014 94.1861 65 87.0076C65 79.8278 70.8229 74.0049 78.0027 74.0049C85.1813 74.0063 91 79.8287 91 87.0076Z" fill="#00D3BE"/>
<path d="M79.0997 27.0076C79.0997 23.6396 76.3704 20.9066 73.0027 20.9052C69.6338 20.9052 66.9003 23.6387 66.9003 27.0076C66.9017 30.3752 69.6347 33.1046 73.0027 33.1046C76.3695 33.1032 79.0983 30.3744 79.0997 27.0076ZM86 27.0076C85.9986 34.1853 80.1804 40.0035 73.0027 40.0049C65.8238 40.0049 60.0014 34.1861 60 27.0076C60 19.8278 65.8229 14.0049 73.0027 14.0049C80.1813 14.0063 86 19.8287 86 27.0076Z" fill="#00D3BE"/>
<path d="M69.2764 38.4492C69.2764 36.5472 70.7819 35.0053 72.6382 35.0049C74.4949 35.0049 76 36.5469 76 38.4492V58.3345L75.0177 59.3463L59.7424 74.9962L59.2119 75.4375C57.907 76.32 56.132 76.1731 54.9833 74.9962C53.6723 73.6514 53.6721 71.4705 54.9833 70.1258L69.2764 55.4822V38.4492Z" fill="#00D3BE"/>
<path d="M79.0997 146.008C79.0997 142.64 76.3703 139.907 73.0027 139.905C69.6339 139.905 66.9003 142.639 66.9003 146.008C66.9017 149.375 69.6347 152.105 73.0027 152.105C76.3695 152.103 79.0983 149.374 79.0997 146.008ZM86 146.008C85.9986 153.185 80.1804 159.003 73.0027 159.005C65.8238 159.005 60.0014 153.186 60 146.008C60 138.828 65.8229 133.005 73.0027 133.005C80.1813 133.006 86 138.829 86 146.008Z" fill="#00D3BE"/>
<path d="M69.2765 135.477V118.025L54.9839 103.032L54.5532 102.475C53.6929 101.106 53.8357 99.2425 54.9839 98.0375C56.1322 96.8325 57.9077 96.6826 59.2124 97.5855L59.7429 98.0375L76 115.104V135.477C75.9987 137.424 74.4941 139.005 72.6383 139.005C70.7828 139.004 69.2778 137.424 69.2765 135.477Z" fill="#00D3BE"/>
</svg>
