<?xml version="1.0" encoding="utf-8"?>
<!-- Generator: Adobe Illustrator 27.0.0, SVG Export Plug-In . SVG Version: 6.00 Build 0)  -->
<svg version="1.1" id="Layer_1" xmlns="http://www.w3.org/2000/svg" xmlns:xlink="http://www.w3.org/1999/xlink" x="0px" y="0px"
	 viewBox="0 0 283.1 28.4" style="enable-background:new 0 0 283.1 28.4;" xml:space="preserve">
<style type="text/css">
	.st0{fill:#5A5D68;}
	.st1{fill:#868D96;}
</style>
<g>
	<g>
		<path class="st0" d="M7.5,11.7v-0.4c0-2-0.7-2.8-2-2.8s-2,0.8-2,2.8v6.3c0,2,0.7,2.8,2,2.8s2-0.8,2-2.8v-1.1h3.6v0.4
			c0,3.8-1.5,6.4-5.5,6.4S0,20.7,0,16.9v-5c0-3.8,1.5-6.4,5.5-6.4c4,0,5.5,2.5,5.5,6.2H7.5z"/>
		<path class="st0" d="M12.7,10.9c0.2-3.5,2.4-5.3,5.7-5.3c3.3,0,5.2,1.5,5.2,4.6v11c0,0.5,0.1,1.2,0.2,1.8h-3.4
			c0-0.5-0.2-0.9-0.2-1.3c-1.3,1.1-2.5,1.7-4.2,1.7c-2.4,0-3.6-1.7-3.6-3.8c0-3.8,2.5-5.8,7.6-7.8v-1c0-1.4-0.6-2.2-1.8-2.2
			c-1.6,0-2,1-2,2.4H12.7z M20,14.3c-3.2,1.8-4,3-4,4.5c0,1.1,0.6,1.6,1.7,1.6c1,0,1.8-0.7,2.4-1.6V14.3z"/>
		<path class="st0" d="M25.9,23V5.8h3.4v2h0.1c0.9-1.5,2.4-2.3,4-2.3h0.7v3.7c-0.6-0.2-1.2-0.3-2.3-0.3c-1.2,0-2.4,0.8-2.4,2.3V23
			H25.9z"/>
		<path class="st0" d="M35.9,23V5.8h3.4v2h0.1c0.9-1.5,2.4-2.3,4-2.3h0.7v3.7c-0.6-0.2-1.2-0.3-2.3-0.3c-1.2,0-2.4,0.8-2.4,2.3V23
			H35.9z"/>
		<path class="st0" d="M45.9,3.2V0h3.6v3.2H45.9z M45.9,23V5.8h3.6V23H45.9z"/>
		<path class="st0" d="M63.8,15.1h-7.5v2.5c0,2,0.7,2.8,2,2.8c1.3,0,2-0.8,2-2.8v-0.4h3.6c-0.1,3.6-1.6,6.1-5.5,6.1
			c-4.1,0-5.5-2.6-5.5-6.4v-5c0-3.8,1.5-6.4,5.5-6.4s5.5,2.6,5.5,6.4V15.1z M60.3,12.1v-0.9c0-2-0.7-2.8-2-2.8c-1.3,0-2,0.8-2,2.8
			v0.9H60.3z"/>
		<path class="st0" d="M65.8,23V5.8h3.4v2h0.1c0.9-1.5,2.4-2.3,4-2.3h0.7v3.7c-0.6-0.2-1.2-0.3-2.3-0.3c-1.2,0-2.4,0.8-2.4,2.3V23
			H65.8z"/>
		<path class="st0" d="M75.4,25.1H76c1,0,1.3-0.6,1.3-1.3V5.9h3.6v18.1c0,3.4-1.9,4.4-4.1,4.4h-1.4V25.1z M77.3,3.2V0h3.6v3.2H77.3z
			"/>
		<path class="st0" d="M84,11.9c0-3.8,1.5-6.4,5.5-6.4s5.5,2.6,5.5,6.4v5c0,3.8-1.5,6.4-5.5,6.4S84,20.7,84,16.9V11.9z M91.5,11.3
			c0-2-0.7-2.8-2-2.8s-2,0.8-2,2.8v6.3c0,2,0.7,2.8,2,2.8s2-0.8,2-2.8V11.3z"/>
		<path class="st0" d="M97.7,23V0h3.6v7.4c1.3-1.1,2.1-1.9,4.1-1.9c1.9,0,3,1.4,3,3.6V23h-3.6V9.7c0-0.9-0.5-1.2-1.3-1.2
			s-1.5,0.5-2.3,1.1V23H97.7z"/>
		<path class="st0" d="M111.8,23V5.8h3.4v1.7c1.5-1.3,2.3-2,4.3-2c1.9,0,3,1.4,3,3.6V23H119V9.7c0-0.9-0.5-1.2-1.3-1.2
			s-1.5,0.5-2.3,1.1V23H111.8z"/>
		<path class="st0" d="M131.8,10.6c-0.3-1.4-0.9-2.1-2-2.1c-0.9,0-1.6,0.5-1.6,1.4c0,2.7,6.7,3.8,6.7,8.8c0,3.1-2.1,4.6-5,4.6
			c-3.1,0-4.9-1.8-5.4-4.8l3.1-0.9c0.2,1.4,0.7,2.7,2.4,2.7c0.9,0,1.6-0.5,1.6-1.5c0-3-6.7-4.1-6.7-8.7c0-2.7,2.1-4.6,4.8-4.6
			c2.8,0,4.7,1.9,5.2,4.5L131.8,10.6z"/>
		<path class="st0" d="M137.5,11.9c0-3.8,1.5-6.4,5.5-6.4c4.1,0,5.5,2.6,5.5,6.4v5c0,3.8-1.5,6.4-5.5,6.4c-4.1,0-5.5-2.6-5.5-6.4
			V11.9z M145.1,11.3c0-2-0.7-2.8-2-2.8c-1.3,0-2,0.8-2,2.8v6.3c0,2,0.7,2.8,2,2.8c1.3,0,2-0.8,2-2.8V11.3z"/>
		<path class="st0" d="M151.2,23V5.8h3.4v1.7c1.5-1.3,2.3-2,4.3-2c1.9,0,3,1.4,3,3.6V23h-3.6V9.7c0-0.9-0.5-1.2-1.3-1.2
			s-1.5,0.5-2.3,1.1V23H151.2z"/>
	</g>
	<g>
		<g>
			<path class="st0" d="M200.3,17.8c0,1.9,0.9,2.5,2.2,2.5c1.3,0,2.2-0.5,2.2-2.5v-1.2h3.3v0.7c0,4.3-2.3,5.9-5.5,5.9
				c-3.3,0-5.5-1.6-5.5-5.9v-6.3c0-4.3,2.3-5.9,5.5-5.9c3.3,0,5.5,1.6,5.5,5.9v0h-3.3v-0.5c0-1.9-0.9-2.5-2.2-2.5
				c-1.3,0-2.2,0.5-2.2,2.5V17.8z"/>
			<path class="st0" d="M213.3,5.5v12.2c0,1.7,0.7,2.5,2.4,2.5c1.6,0,2.4-0.9,2.4-2.5V5.5h3.4v12.3c0,3.9-2.3,5.5-5.7,5.5
				c-3.4,0-5.7-1.6-5.7-5.5V5.5H213.3z"/>
			<path class="st0" d="M224.1,23V5.5h3.4V20h5.4v3H224.1z"/>
			<path class="st0" d="M243.7,5.5v3h-3.9V23h-3.4V8.4h-3.9v-3H243.7z"/>
			<path class="st0" d="M248.8,5.5v12.2c0,1.7,0.7,2.5,2.4,2.5c1.6,0,2.4-0.9,2.4-2.5V5.5h3.4v12.3c0,3.9-2.3,5.5-5.7,5.5
				c-3.4,0-5.7-1.6-5.7-5.5V5.5H248.8z"/>
			<path class="st0" d="M259.3,23V5.7h6.2c1.1,0,2,0.2,2.8,0.5c0.7,0.3,1.3,0.9,1.7,1.6c0.4,0.7,0.6,1.6,0.6,2.7
				c0,0.9-0.2,1.7-0.5,2.4c-0.3,0.7-0.8,1.2-1.4,1.5c-0.6,0.4-1.4,0.6-2.3,0.6l-0.1-0.5c1,0,1.7,0.2,2.3,0.5
				c0.5,0.3,0.9,0.7,1.2,1.2c0.3,0.5,0.4,1.2,0.5,2.1l0.2,2.6c0,0.2,0,0.5,0.1,0.7c0,0.2,0,0.4,0.1,0.7c0,0.2,0,0.4,0.1,0.6h-3.2
				c0-0.2,0-0.5-0.1-0.8c0-0.3,0-0.5-0.1-0.8c0-0.1,0-0.1,0-0.2c0-0.1,0-0.1,0-0.2l-0.2-2.2c0-0.7-0.1-1.2-0.3-1.6
				c-0.1-0.4-0.4-0.7-0.7-0.8c-0.3-0.2-0.8-0.3-1.3-0.3h-3.6v-2.6h3.8c0.5,0,0.9-0.1,1.3-0.3c0.3-0.2,0.6-0.4,0.8-0.8
				c0.2-0.4,0.3-0.9,0.3-1.6c0-0.6-0.1-1.1-0.2-1.5c-0.2-0.4-0.4-0.6-0.7-0.8c-0.3-0.2-0.7-0.2-1.2-0.2h-3.8l1.3-1.3V23H259.3z"/>
			<path class="st0" d="M283.1,5.5V23h-9.8v-3h6.4v-4h-5v-3h5V8.4h-6.1v-3H283.1z"/>
		</g>
	</g>
	<rect x="177.2" y="9" class="st1" width="3.7" height="14"/>
	
		<rect x="177.2" y="8.9" transform="matrix(4.472695e-11 -1 1 4.472695e-11 163.0899 194.9956)" class="st1" width="3.7" height="14"/>
</g>
</svg>
