<svg width="172" height="46" viewBox="0 0 172 46" fill="none" xmlns="http://www.w3.org/2000/svg">
<path d="M35.064 32.305V0H56.8698V5.63272H41.9074V13.3267H55.7562V18.9594H41.9074V26.6723H56.9364V32.305H35.064Z" fill="white"/>
<path d="M64.9319 0V32.305H58.2026V0H64.9319Z" fill="white"/>
<path d="M78.2476 32.7704C75.7539 32.7704 73.6028 32.267 71.8039 31.2506C70.005 30.2343 68.6249 28.8 67.654 26.9287C66.6832 25.067 66.1978 22.8538 66.1978 20.2986C66.1978 17.7435 66.6832 15.6158 67.654 13.735C68.6249 11.8543 69.9859 10.382 71.7563 9.33716C73.5171 8.2828 75.5921 7.76038 77.9716 7.76038C79.5706 7.76038 81.0649 8.01684 82.4546 8.52977C83.8442 9.0427 85.053 9.80259 86.0904 10.8285C87.1279 11.8448 87.9369 13.1271 88.5175 14.6659C89.0981 16.2047 89.3837 18.0095 89.3837 20.0707V21.9134H68.8818V17.753H83.0447C83.0447 16.7841 82.8353 15.9292 82.4165 15.1788C81.9977 14.4285 81.4171 13.849 80.6747 13.4216C79.9323 12.9942 79.0661 12.7852 78.0953 12.7852C77.1245 12.7852 76.1726 13.0226 75.3827 13.4881C74.5927 13.9535 73.9835 14.5804 73.5457 15.3688C73.1078 16.1572 72.8794 17.0216 72.8699 17.981V21.9419C72.8699 23.1387 73.0983 24.1741 73.5457 25.048C73.993 25.9219 74.6307 26.5963 75.4493 27.0712C76.2678 27.5461 77.2482 27.7836 78.3713 27.7836C79.1232 27.7836 79.8085 27.6791 80.4272 27.4701C81.0459 27.2612 81.5789 26.9477 82.0262 26.5203C82.4641 26.1023 82.8067 25.5894 83.0352 24.972L89.26 25.3804C88.9459 26.8717 88.2986 28.173 87.3278 29.2844C86.357 30.3957 85.1006 31.2601 83.5682 31.868C82.0358 32.4855 80.2654 32.7894 78.2666 32.7894L78.2476 32.7704Z" fill="white"/>
<path d="M112.636 8.07397L104.146 32.3051H96.5599L88.0698 8.07397H95.1798L100.224 25.4091H100.481L105.507 8.07397H112.636Z" fill="white"/>
<path d="M119.223 32.7611C117.671 32.7611 116.291 32.4856 115.082 31.9442C113.874 31.4027 112.912 30.5954 112.217 29.5315C111.513 28.4677 111.17 27.1283 111.17 25.5326C111.17 24.1837 111.418 23.0534 111.913 22.1415C112.408 21.2297 113.084 20.4888 113.931 19.9378C114.778 19.3869 115.758 18.9595 116.843 18.6745C117.928 18.3895 119.08 18.1901 120.279 18.0761C121.688 17.9241 122.83 17.7911 123.696 17.6582C124.562 17.5252 125.19 17.3257 125.581 17.0692C125.971 16.8033 126.161 16.4138 126.161 15.9009V15.8059C126.161 14.8085 125.847 14.0297 125.219 13.4882C124.591 12.9373 123.706 12.6713 122.554 12.6713C121.345 12.6713 120.374 12.9373 119.66 13.4692C118.947 14.0012 118.471 14.6661 118.242 15.464L112.018 14.9605C112.332 13.4882 112.95 12.2154 113.883 11.1326C114.806 10.0592 116.006 9.22332 117.481 8.6439C118.947 8.06448 120.65 7.77002 122.592 7.77002C123.944 7.77002 125.238 7.9315 126.475 8.24495C127.713 8.55841 128.817 9.05234 129.778 9.70775C130.739 10.3632 131.501 11.218 132.062 12.2534C132.624 13.2888 132.9 14.5236 132.9 15.9674V32.3051H126.513V28.9426H126.323C125.933 29.7025 125.409 30.3674 124.762 30.9373C124.115 31.5072 123.325 31.9537 122.411 32.2766C121.497 32.5996 120.431 32.7611 119.232 32.7611H119.223ZM121.145 28.1257C122.135 28.1257 123.011 27.9262 123.772 27.5368C124.534 27.1473 125.124 26.6059 125.562 25.9315C125.99 25.2571 126.209 24.4972 126.209 23.6423V21.0682C126 21.2012 125.714 21.3246 125.343 21.4386C124.972 21.5526 124.572 21.6476 124.115 21.7426C123.658 21.8376 123.211 21.9136 122.754 21.9801C122.297 22.0465 121.888 22.113 121.526 22.1605C120.736 22.2745 120.041 22.4645 119.451 22.7115C118.861 22.9584 118.404 23.3004 118.081 23.7278C117.757 24.1553 117.595 24.6777 117.595 25.3141C117.595 26.226 117.928 26.9289 118.594 27.4038C119.261 27.8787 120.117 28.1257 121.145 28.1257Z" fill="white"/>
<path d="M148.805 8.07384V13.1176H134.185V8.07384H148.805ZM137.507 2.27014H144.236V24.858C144.236 25.4754 144.331 25.9599 144.522 26.3018C144.712 26.6438 144.979 26.8812 145.321 27.0237C145.664 27.1567 146.064 27.2327 146.511 27.2327C146.825 27.2327 147.139 27.2042 147.463 27.1472C147.777 27.0902 148.024 27.0427 148.186 27.0142L149.243 32.0105C148.909 32.115 148.434 32.2385 147.815 32.381C147.206 32.5235 146.463 32.6089 145.588 32.6374C143.96 32.7039 142.542 32.4855 141.324 31.9915C140.105 31.4976 139.163 30.7282 138.487 29.6929C137.811 28.6575 137.478 27.3372 137.488 25.7509V2.27014H137.507Z" fill="white"/>
<path d="M160.864 32.7704C158.37 32.7704 156.219 32.267 154.42 31.2506C152.621 30.2343 151.241 28.8 150.27 26.9287C149.299 25.067 148.814 22.8538 148.814 20.2986C148.814 17.7435 149.299 15.6158 150.27 13.735C151.241 11.8543 152.602 10.382 154.372 9.33716C156.133 8.2828 158.208 7.76038 160.588 7.76038C162.187 7.76038 163.681 8.01684 165.071 8.52977C166.46 9.0427 167.669 9.80259 168.707 10.8285C169.744 11.8448 170.553 13.1271 171.134 14.6659C171.714 16.2047 172 18.0095 172 20.0707V21.9134H151.498V17.753H165.661C165.661 16.7841 165.451 15.9292 165.033 15.1788C164.614 14.4285 164.033 13.849 163.291 13.4216C162.548 12.9942 161.682 12.7852 160.712 12.7852C159.741 12.7852 158.789 13.0226 157.999 13.4881C157.209 13.9535 156.6 14.5804 156.162 15.3688C155.724 16.1572 155.496 17.0216 155.486 17.981V21.9419C155.486 23.1387 155.715 24.1741 156.162 25.048C156.609 25.9219 157.247 26.5963 158.065 27.0712C158.884 27.5461 159.864 27.7836 160.988 27.7836C161.739 27.7836 162.425 27.6791 163.043 27.4701C163.662 27.2612 164.195 26.9477 164.642 26.5203C165.08 26.1023 165.423 25.5894 165.651 24.972L171.876 25.3804C171.562 26.8717 170.915 28.173 169.944 29.2844C168.973 30.3957 167.717 31.2601 166.184 31.868C164.652 32.4855 162.882 32.7894 160.883 32.7894L160.864 32.7704Z" fill="white"/>
<path d="M25.8845 7.6398L21.5771 3.34119L-8.88355e-05 24.8746L4.30728 29.1732L25.8845 7.6398Z" fill="#00BBA7"/>
<path d="M28.5535 0.674438H22.4619V26.5109H28.5535V0.674438Z" fill="#00BBA7"/>
<path d="M2.66455 0.674381L2.66455 6.75354L28.5536 6.75354V0.674381L2.66455 0.674381Z" fill="#00BBA7"/>
<path d="M35.9014 43.1145V36.209H36.7009V38.7546H36.7675C36.8246 38.6691 36.9103 38.5457 37.015 38.4127C37.1197 38.2702 37.272 38.1467 37.4718 38.0327C37.6717 37.9187 37.9382 37.8618 38.2714 37.8618C38.7092 37.8618 39.0994 37.9757 39.423 38.1847C39.7562 38.4032 40.0132 38.7071 40.2035 39.1156C40.3939 39.5145 40.4795 39.9895 40.4795 40.5309C40.4795 41.0723 40.3844 41.5567 40.2035 41.9557C40.0132 42.3546 39.7562 42.6681 39.423 42.8866C39.0899 43.105 38.7092 43.219 38.2809 43.219C37.9477 43.219 37.6812 43.162 37.4814 43.048C37.2815 42.9341 37.1292 42.8106 37.015 42.6681C36.9008 42.5256 36.8246 42.4021 36.7675 42.3071H36.6723V43.105H35.9014V43.1145ZM36.6818 40.5309C36.6818 40.9203 36.739 41.2623 36.8532 41.5662C36.9674 41.8702 37.1387 42.0982 37.3576 42.2691C37.5765 42.4401 37.8526 42.5161 38.1667 42.5161C38.4808 42.5161 38.7758 42.4306 39.0042 42.2501C39.2327 42.0697 39.3945 41.8322 39.5087 41.5377C39.6229 41.2338 39.68 40.9013 39.68 40.5309C39.68 40.1604 39.6229 39.8375 39.5087 39.543C39.3945 39.2486 39.2327 39.0206 39.0042 38.8401C38.7758 38.6691 38.4998 38.5837 38.1571 38.5837C37.8145 38.5837 37.5575 38.6691 37.3386 38.8306C37.1197 38.9921 36.9484 39.2201 36.8341 39.5145C36.7199 39.809 36.6628 40.1414 36.6628 40.5309H36.6818Z" fill="white"/>
<path d="M41.5553 45.0618C41.4221 45.0618 41.2983 45.0523 41.1936 45.0333C41.0889 45.0143 41.0128 44.9953 40.9747 44.9668L41.1746 44.2639C41.365 44.3114 41.5363 44.3304 41.6886 44.3209C41.8409 44.3114 41.9646 44.2449 42.0883 44.1214C42.2026 44.0074 42.3073 43.8079 42.412 43.5515L42.5642 43.143L40.6416 37.9377H41.5077L42.945 42.0697H43.0021L44.4393 37.9377H45.3054L43.0973 43.8744C43.0021 44.1404 42.8783 44.3684 42.7261 44.5393C42.5738 44.7103 42.412 44.8433 42.2121 44.9288C42.0217 45.0143 41.8028 45.0523 41.5648 45.0523L41.5553 45.0618Z" fill="white"/>
<path d="M48.1704 43.1145V36.209H49.008V42.3736H52.2251V43.1145H48.1704Z" fill="white"/>
<path d="M55.2616 43.2096C54.8143 43.2096 54.424 43.1336 54.0718 42.9816C53.7197 42.8296 53.4532 42.6112 53.2438 42.3452C53.0439 42.0697 52.9297 41.7563 52.9106 41.3953H53.7577C53.7768 41.6138 53.8529 41.8133 53.9862 41.9747C54.1194 42.1362 54.3003 42.2597 54.5192 42.3452C54.7381 42.4307 54.9761 42.4782 55.2426 42.4782C55.5376 42.4782 55.8041 42.4307 56.0326 42.3262C56.261 42.2217 56.4418 42.0792 56.5751 41.8893C56.7083 41.7088 56.775 41.4903 56.775 41.2528C56.775 41.0154 56.7083 40.7779 56.5846 40.5784C56.4609 40.379 56.2705 40.227 56.0326 40.1225C55.7946 40.018 55.49 39.961 55.1379 39.961H54.5858V39.2201H55.1379C55.4139 39.2201 55.6518 39.1726 55.8612 39.0682C56.0706 38.9637 56.2324 38.8307 56.3562 38.6502C56.4704 38.4697 56.537 38.2608 56.537 38.0138C56.537 37.7668 56.4894 37.5769 56.3847 37.4059C56.28 37.2349 56.1373 37.1019 55.9469 36.9974C55.7565 36.893 55.5376 36.855 55.2806 36.855C55.0427 36.855 54.8143 36.8929 54.6049 36.9879C54.3955 37.0734 54.2241 37.1969 54.0909 37.3584C53.9576 37.5199 53.8815 37.7193 53.872 37.9473H53.0629C53.0725 37.5864 53.1867 37.2634 53.3865 36.9974C53.5959 36.722 53.8624 36.513 54.1956 36.361C54.5287 36.209 54.8904 36.1331 55.2902 36.1331C55.7185 36.1331 56.0897 36.2185 56.3942 36.3895C56.6988 36.5605 56.9368 36.7885 57.0986 37.0734C57.2604 37.3584 57.346 37.6623 57.346 37.9853C57.346 38.3747 57.2414 38.7072 57.0415 38.9827C56.8416 39.2581 56.5561 39.4481 56.2134 39.5526V39.6096C56.6512 39.6856 56.9939 39.866 57.2414 40.1605C57.4888 40.455 57.6126 40.8254 57.6126 41.2623C57.6126 41.6423 57.5079 41.9747 57.308 42.2692C57.1081 42.5637 56.8226 42.8011 56.4704 42.9721C56.1182 43.1431 55.7185 43.2286 55.2711 43.2286L55.2616 43.2096Z" fill="white"/>
<path d="M64.1225 36.209V43.1145H63.3135L59.5444 37.6908H59.4777V43.1145H58.6401V36.209H59.4492L63.2373 41.6422H63.304V36.209H64.132H64.1225Z" fill="white"/>
<path d="M67.3871 43.2286C66.8826 43.2286 66.4543 43.1146 66.0926 42.8961C65.7309 42.6777 65.4549 42.3642 65.255 41.9653C65.0551 41.5663 64.96 41.1009 64.96 40.569C64.96 40.037 65.0551 39.5716 65.255 39.1632C65.4549 38.7547 65.7214 38.4413 66.0736 38.2133C66.4257 37.9853 66.835 37.8713 67.3014 37.8713C67.5679 37.8713 67.8344 37.9188 68.1009 38.0043C68.3674 38.0898 68.6054 38.2418 68.8243 38.4413C69.0432 38.6407 69.2145 38.9067 69.3383 39.2392C69.462 39.5716 69.5286 39.98 69.5286 40.4645V40.7969H65.5215V40.113H68.7101C68.7101 39.8186 68.653 39.5621 68.5387 39.3341C68.4245 39.1062 68.2627 38.9257 68.0438 38.7927C67.8344 38.6597 67.5774 38.5932 67.2919 38.5932C66.9778 38.5932 66.7018 38.6692 66.4638 38.8307C66.2354 38.9827 66.0545 39.1917 65.9308 39.4386C65.8071 39.6856 65.7404 39.9516 65.7404 40.246V40.7019C65.7404 41.0914 65.8071 41.4238 65.9403 41.6993C66.0736 41.9748 66.2639 42.1742 66.5114 42.3167C66.7589 42.4592 67.0349 42.5257 67.3585 42.5257C67.5679 42.5257 67.7583 42.4972 67.9296 42.4402C68.1009 42.3832 68.2437 42.2882 68.3674 42.1742C68.4912 42.0508 68.5863 41.9083 68.653 41.7278L69.4239 41.9463C69.3383 42.2027 69.205 42.4402 69.0146 42.6302C68.8243 42.8202 68.5863 42.9816 68.3008 43.0861C68.0248 43.2001 67.7012 43.2476 67.349 43.2476L67.3871 43.2286Z" fill="white"/>
<path d="M72.5364 37.9378V38.6122H69.8428V37.9378H72.5364ZM70.6328 36.6934H71.4323V41.6328C71.4323 41.8607 71.4704 42.0222 71.537 42.1362C71.6036 42.2502 71.6893 42.3262 71.794 42.3547C71.8987 42.3831 72.0129 42.4116 72.1271 42.4116C72.2128 42.4116 72.2889 42.4116 72.346 42.3926C72.4031 42.3831 72.4507 42.3736 72.4793 42.3641L72.6411 43.0766C72.584 43.0955 72.5173 43.1145 72.4126 43.143C72.3175 43.162 72.1937 43.1715 72.0414 43.1715C71.813 43.1715 71.5941 43.124 71.3847 43.0291C71.1658 42.9341 70.9945 42.7821 70.8517 42.5826C70.7089 42.3831 70.6423 42.1362 70.6423 41.8322V36.6744L70.6328 36.6934Z" fill="white"/>
<path d="M74.4403 43.1145L72.8604 37.9377H73.6979L74.8211 41.9082H74.8782L75.9918 37.9377H76.8389L77.9335 41.8892H77.9906L79.1137 37.9377H79.9513L78.3713 43.1145H77.5908L76.4582 39.1346H76.3725L75.2399 43.1145H74.4594H74.4403Z" fill="white"/>
<path d="M82.4545 43.2286C81.9881 43.2286 81.5788 43.1146 81.2266 42.8961C80.8745 42.6777 80.5985 42.3642 80.3986 41.9653C80.1987 41.5663 80.1035 41.1009 80.1035 40.5595C80.1035 40.018 80.1987 39.5526 80.3986 39.1442C80.5985 38.7357 80.8745 38.4318 81.2266 38.2038C81.5788 37.9853 81.9881 37.8713 82.4545 37.8713C82.9208 37.8713 83.3301 37.9853 83.6823 38.2038C84.0345 38.4223 84.3105 38.7357 84.5104 39.1442C84.7102 39.5526 84.8054 40.018 84.8054 40.5595C84.8054 41.1009 84.7102 41.5663 84.5104 41.9653C84.3105 42.3642 84.0345 42.6777 83.6823 42.8961C83.3301 43.1146 82.9208 43.2286 82.4545 43.2286ZM82.4545 42.5162C82.8161 42.5162 83.1017 42.4212 83.3301 42.2407C83.5586 42.0603 83.7299 41.8228 83.8441 41.5188C83.9583 41.2244 84.0059 40.9014 84.0059 40.55C84.0059 40.1985 83.9488 39.8756 83.8441 39.5811C83.7299 39.2866 83.5681 39.0397 83.3301 38.8592C83.1017 38.6787 82.8066 38.5837 82.4545 38.5837C82.1023 38.5837 81.8072 38.6787 81.5788 38.8592C81.3504 39.0397 81.179 39.2866 81.0648 39.5811C80.9506 39.8756 80.903 40.1985 80.903 40.55C80.903 40.9014 80.9601 41.2149 81.0648 41.5188C81.179 41.8133 81.3409 42.0508 81.5788 42.2407C81.8072 42.4212 82.1023 42.5162 82.4545 42.5162Z" fill="white"/>
<path d="M85.5479 43.1146V37.9378H86.3188V38.7167H86.3759C86.4711 38.4602 86.6424 38.2512 86.8899 38.0898C87.1374 37.9283 87.4134 37.8523 87.7275 37.8523C87.7846 37.8523 87.8607 37.8523 87.9464 37.8523C88.0321 37.8523 88.0987 37.8523 88.1463 37.8618V38.6692C88.1463 38.6692 88.0606 38.6502 87.9654 38.6407C87.8703 38.6312 87.7656 38.6217 87.6609 38.6217C87.4039 38.6217 87.185 38.6692 86.9851 38.7832C86.7852 38.8877 86.6329 39.0301 86.5187 39.2106C86.4045 39.3911 86.3474 39.6001 86.3474 39.8375V43.1146H85.5479Z" fill="white"/>
<path d="M88.6123 43.1145V36.209H89.4118V43.1145H88.6123ZM89.3547 41.2338V40.2459H89.507L91.7818 37.9377H92.7717L90.3541 40.3789H90.2875L89.3642 41.2243L89.3547 41.2338ZM91.9151 43.1145L89.8877 40.5499L90.4588 39.999L92.9335 43.1145H91.9246H91.9151Z" fill="white"/>
<path d="M96.9976 39.0966L96.2838 39.2961C96.2362 39.1726 96.1695 39.0586 96.0839 38.9446C95.9982 38.8307 95.884 38.7357 95.7317 38.6597C95.5794 38.5837 95.3891 38.5457 95.1606 38.5457C94.8465 38.5457 94.58 38.6217 94.3706 38.7642C94.1612 38.9067 94.0565 39.0966 94.0565 39.3151C94.0565 39.5146 94.1327 39.6665 94.2755 39.7805C94.4182 39.8945 94.6467 39.9895 94.9512 40.0655L95.7222 40.2555C96.1886 40.3694 96.5312 40.5404 96.7597 40.7684C96.9881 40.9964 97.1023 41.2908 97.1023 41.6613C97.1023 41.9557 97.0166 42.2217 96.8453 42.4592C96.674 42.6966 96.436 42.8771 96.1315 43.0101C95.8269 43.1431 95.4747 43.2096 95.0654 43.2096C94.5324 43.2096 94.0946 43.0956 93.752 42.8676C93.4093 42.6396 93.1904 42.3072 93.0952 41.8607L93.8471 41.6708C93.9233 41.9462 94.0565 42.1552 94.2564 42.2977C94.4563 42.4402 94.7228 42.5067 95.0464 42.5067C95.4176 42.5067 95.7127 42.4307 95.9316 42.2692C96.1505 42.1077 96.2647 41.9177 96.2647 41.6993C96.2647 41.5188 96.1981 41.3668 96.0744 41.2433C95.9506 41.1198 95.7508 41.0344 95.4938 40.9679L94.6276 40.7684C94.1517 40.6544 93.7996 40.4834 93.5806 40.246C93.3617 40.0085 93.2475 39.714 93.2475 39.3531C93.2475 39.0586 93.3332 38.8022 93.495 38.5742C93.6568 38.3462 93.8852 38.1753 94.1708 38.0423C94.4563 37.9188 94.7799 37.8523 95.1511 37.8523C95.6651 37.8523 96.0648 37.9663 96.3599 38.1942C96.655 38.4222 96.8644 38.7167 96.9881 39.0871L96.9976 39.0966Z" fill="white"/>
</svg>
