<?xml version="1.0" encoding="utf-8"?>
<!-- Generator: Adobe Illustrator 27.1.1, SVG Export Plug-In . SVG Version: 6.00 Build 0)  -->
<svg version="1.1" id="Layer_1" xmlns="http://www.w3.org/2000/svg" xmlns:xlink="http://www.w3.org/1999/xlink" x="0px" y="0px"
	 viewBox="0 0 282.9 60" style="enable-background:new 0 0 282.9 60;" xml:space="preserve">
<style type="text/css">
	.st0{fill:#868D96;}
	.st1{fill:#5A5D68;}
</style>
<g>
	<path class="st0" d="M0,3.1v52.1h52.1V3.1H0z M39.5,48.8L35,42.1l-5.1,6.7L19.4,32.1l-11,16.6h-7L26.7,12l24.2,36.8H39.5z"/>
	<polygon class="st1" points="1.4,48.8 8.4,48.8 19.4,32.1 29.9,48.8 35,42.1 39.5,48.8 50.9,48.8 26.7,12 	"/>
</g>
<g>
	<path class="st1" d="M72,28.5c0,2.1-0.9,3.4-2.7,3.9l3.3,4.5h-2.7l-3-4.2h-2.8v4.2h-2.1V24.4h4.6c1.9,0,3.3,0.3,4.1,1
		C71.6,26,72,27.1,72,28.5z M69.2,30.2c0.4-0.4,0.6-1,0.6-1.8c0-0.8-0.2-1.4-0.7-1.7c-0.4-0.3-1.2-0.5-2.4-0.5h-2.7v4.5h2.6
		C68,30.8,68.8,30.6,69.2,30.2z"/>
	<path class="st1" d="M83.8,24.4v2h-6.6v3.3h6v1.9h-6v3.3H84v2h-9V24.4H83.8z"/>
	<path class="st1" d="M96.1,26.1c1.2,1.1,1.8,2.6,1.8,4.5c0,1.9-0.6,3.5-1.7,4.6c-1.2,1.1-2.9,1.7-5.3,1.7h-4.1V24.4H91
		C93.2,24.4,94.9,25,96.1,26.1z M95.8,30.7c0-2.9-1.6-4.3-4.9-4.3h-2.1v8.5h2.3c1.5,0,2.7-0.4,3.5-1.1S95.8,32.1,95.8,30.7z"/>
	<path class="st1" d="M107.6,36.9h-2.1V24.4h3.3l3.8,7.8l3.8-7.8h3.3v12.5h-2.1v-9.7l-4.3,8.6h-1.2l-4.3-8.6V36.9z"/>
	<path class="st1" d="M133.4,35.2c-1.3,1.2-2.8,1.8-4.7,1.8c-1.9,0-3.4-0.6-4.7-1.8c-1.3-1.2-1.9-2.8-1.9-4.6c0-1.8,0.6-3.4,1.9-4.6
		c1.3-1.2,2.8-1.8,4.7-1.8c1.9,0,3.4,0.6,4.7,1.8c1.3,1.2,1.9,2.8,1.9,4.6C135.3,32.4,134.7,33.9,133.4,35.2z M131.9,27.4
		c-0.8-0.9-1.9-1.3-3.1-1.3s-2.3,0.4-3.1,1.3c-0.8,0.9-1.3,1.9-1.3,3.2c0,1.3,0.4,2.3,1.3,3.2s1.9,1.3,3.1,1.3s2.3-0.4,3.1-1.3
		c0.8-0.9,1.3-1.9,1.3-3.2C133.2,29.3,132.8,28.3,131.9,27.4z"/>
	<path class="st1" d="M140.8,34c0.6,0.7,1.3,1,2.3,1c1,0,1.7-0.3,2.3-1c0.6-0.7,0.9-1.6,0.9-2.7v-6.9h2.1v7c0,1.8-0.5,3.2-1.5,4.1
		c-1,1-2.3,1.5-3.8,1.5c-1.5,0-2.8-0.5-3.8-1.5c-1-1-1.5-2.3-1.5-4.1v-7h2.1v6.9C139.9,32.5,140.2,33.4,140.8,34z"/>
	<path class="st1" d="M161,24.4h2.1v12.5h-2.3l-7.1-9.1v9.1h-2.1V24.4h2.1l7.2,9.3V24.4z"/>
	<path class="st1" d="M171.3,26.4v10.5h-2.1V26.4h-3.8v-1.9h9.7v1.9H171.3z"/>
	<path class="st1" d="M178.1,34.1l-1.2,2.8h-2.2l5.5-12.5h2.2l5.5,12.5h-2.2l-1.2-2.8H178.1z M183.5,32.1l-2.3-5.1l-2.3,5.1H183.5z"
		/>
	<path class="st1" d="M189.6,24.4h2.1v12.5h-2.1V24.4z"/>
	<path class="st1" d="M204.5,24.4h2.1v12.5h-2.3l-7.1-9.1v9.1h-2.1V24.4h2.1l7.2,9.3V24.4z"/>
	<path class="st1" d="M223.5,30.8h2.1v4.3c-1.2,1.3-2.9,1.9-5,1.9c-1.8,0-3.4-0.6-4.6-1.8c-1.2-1.2-1.9-2.7-1.9-4.6
		c0-1.9,0.6-3.4,1.9-4.6c1.3-1.2,2.8-1.9,4.6-1.9c1.8,0,3.3,0.5,4.5,1.6l-1.1,1.6c-0.5-0.4-1-0.7-1.5-0.9c-0.5-0.2-1.1-0.2-1.7-0.2
		c-1.3,0-2.3,0.4-3.2,1.2c-0.9,0.8-1.3,1.9-1.3,3.2s0.4,2.4,1.2,3.2c0.8,0.8,1.8,1.2,3,1.2s2.2-0.3,3-0.8V30.8z"/>
	<path class="st1" d="M238.3,28.5c0,2.1-0.9,3.4-2.7,3.9l3.3,4.5h-2.7l-3-4.2h-2.8v4.2h-2.1V24.4h4.6c1.9,0,3.3,0.3,4.1,1
		C237.9,26,238.3,27.1,238.3,28.5z M235.5,30.2c0.4-0.4,0.6-1,0.6-1.8c0-0.8-0.2-1.4-0.7-1.7s-1.2-0.5-2.4-0.5h-2.7v4.5h2.6
		C234.3,30.8,235.1,30.6,235.5,30.2z"/>
	<path class="st1" d="M251.8,35.2c-1.3,1.2-2.8,1.8-4.7,1.8c-1.9,0-3.4-0.6-4.7-1.8c-1.3-1.2-1.9-2.8-1.9-4.6c0-1.8,0.6-3.4,1.9-4.6
		c1.3-1.2,2.8-1.8,4.7-1.8c1.9,0,3.4,0.6,4.7,1.8c1.3,1.2,1.9,2.8,1.9,4.6C253.7,32.4,253.1,33.9,251.8,35.2z M250.3,27.4
		c-0.8-0.9-1.9-1.3-3.1-1.3s-2.3,0.4-3.1,1.3c-0.8,0.9-1.3,1.9-1.3,3.2c0,1.3,0.4,2.3,1.3,3.2s1.9,1.3,3.1,1.3s2.3-0.4,3.1-1.3
		c0.8-0.9,1.3-1.9,1.3-3.2C251.5,29.3,251.1,28.3,250.3,27.4z"/>
	<path class="st1" d="M259.1,34c0.6,0.7,1.3,1,2.3,1c1,0,1.7-0.3,2.3-1c0.6-0.7,0.9-1.6,0.9-2.7v-6.9h2.1v7c0,1.8-0.5,3.2-1.5,4.1
		c-1,1-2.3,1.5-3.8,1.5c-1.5,0-2.8-0.5-3.8-1.5c-1-1-1.5-2.3-1.5-4.1v-7h2.1v6.9C258.3,32.5,258.6,33.4,259.1,34z"/>
	<path class="st1" d="M278.4,25.5c0.9,0.7,1.3,1.8,1.3,3.3c0,1.5-0.4,2.6-1.3,3.3c-0.9,0.7-2.2,1.1-4.1,1.1h-2.2v3.7H270V24.4h4.3
		C276.2,24.4,277.6,24.8,278.4,25.5z M276.9,30.7c0.4-0.4,0.6-1.1,0.6-2s-0.3-1.5-0.8-1.8c-0.5-0.4-1.4-0.5-2.5-0.5h-2.1v5h2.4
		C275.7,31.3,276.5,31.1,276.9,30.7z"/>
</g>
</svg>
