<svg width="240" height="100" viewBox="0 0 240 100" fill="none" xmlns="http://www.w3.org/2000/svg">
<path d="M59.9701 64.35V58.78L63.0401 61.56C62.1301 62.6 61.1001 63.54 59.9701 64.34V64.35ZM47.12 67.42L56.12 58.91V66.43C54.15 67.19 52.0001 67.62 49.7701 67.62C48.8701 67.62 47.99 67.55 47.12 67.42ZM32.25 51.85L41.71 60.33L51.2201 51.4L56.1301 46.76V53.6L42.82 66.18C37.09 63.71 32.93 58.29 32.25 51.84V51.85ZM39.7201 35.54V41.13L36.59 38.32C37.52 37.27 38.5701 36.34 39.7201 35.54ZM39.7401 53.39L32.43 46.84C32.78 44.93 33.43 43.13 34.35 41.48L39.73 46.31V53.39H39.7401ZM52.46 32.59L48.48 36.35L43.5801 40.99V33.51C45.5001 32.78 47.59 32.39 49.76 32.39C50.68 32.39 51.5701 32.46 52.4501 32.59H52.46ZM67.1 53.1C66.76 54.98 66.13 56.75 65.25 58.37L59.96 53.58V46.63L67.09 53.1H67.1ZM67.27 48.05L58.0201 39.66L48.57 48.6L43.6 53.27V46.31L51.1301 39.16L56.75 33.84C62.43 36.3 66.56 41.67 67.27 48.06V48.05ZM64.95 34.82C60.89 30.77 55.5001 28.53 49.7701 28.53C44.0401 28.53 38.64 30.76 34.59 34.82C30.53 38.88 28.3 44.27 28.3 50C28.3 55.73 30.53 61.13 34.59 65.18C38.65 69.24 44.0401 71.47 49.7701 71.47C55.5001 71.47 60.9 69.24 64.95 65.18C69.01 61.12 71.24 55.73 71.24 50C71.24 44.27 69.01 38.87 64.95 34.82Z" fill="white"/>
<path d="M122.95 56.44C119.77 56.44 117.17 53.85 117.17 50.66C117.17 47.47 119.76 44.88 122.95 44.88C125.17 44.88 127.1 46.14 128.07 47.98V53.33C127.1 55.17 125.17 56.43 122.95 56.43V56.44ZM132.91 42.46C132.91 41.13 131.83 40.04 130.49 40.04C129.5 40.04 128.66 40.63 128.28 41.48C126.71 40.57 124.89 40.04 122.95 40.04C117.1 40.04 112.34 44.8 112.34 50.65C112.34 56.5 117.1 61.26 122.95 61.26C124.89 61.26 126.71 60.74 128.28 59.82C128.66 60.67 129.5 61.26 130.49 61.26C131.82 61.26 132.91 60.18 132.91 58.84V42.45V42.46Z" fill="white"/>
<path d="M203.28 61.27C201.95 61.27 200.86 60.19 200.86 58.85V42.46C200.86 41.13 201.94 40.04 203.28 40.04C204.62 40.04 205.7 41.12 205.7 42.46V58.85C205.7 60.18 204.62 61.27 203.28 61.27Z" fill="white"/>
<path d="M163.71 56.44C160.53 56.44 157.93 53.85 157.93 50.66C157.93 47.47 160.52 44.88 163.71 44.88C165.93 44.88 167.86 46.14 168.83 47.98V53.33C167.86 55.17 165.93 56.43 163.71 56.43V56.44ZM173.66 42.46C173.66 41.13 172.58 40.04 171.24 40.04C170.25 40.04 169.41 40.63 169.03 41.48C167.46 40.57 165.64 40.04 163.7 40.04C157.85 40.04 153.09 44.8 153.09 50.65C153.09 56.5 157.85 61.26 163.7 61.26C165.64 61.26 167.46 60.74 169.03 59.82C169.4 60.67 170.25 61.26 171.24 61.26C172.57 61.26 173.66 60.18 173.66 58.84V42.45V42.46Z" fill="white"/>
<path d="M187.24 56.4401C185.02 56.4401 183.09 55.1801 182.12 53.3401V47.9901C183.09 46.1501 185.02 44.8901 187.24 44.8901C190.42 44.8901 193.02 47.4801 193.02 50.6701C193.02 53.8601 190.43 56.4501 187.24 56.4501V56.4401ZM187.24 40.0501C185.39 40.0501 183.64 40.5301 182.12 41.3701V33.5101C182.12 32.1801 181.04 31.0901 179.7 31.0901C178.36 31.0901 177.28 32.1701 177.28 33.5101V58.8601C177.28 60.1901 178.36 61.2801 179.7 61.2801C180.69 61.2801 181.53 60.6901 181.91 59.8401C183.48 60.7501 185.3 61.2801 187.24 61.2801C193.09 61.2801 197.85 56.5201 197.85 50.6701C197.85 44.8201 193.09 40.0601 187.24 40.0601V40.0501Z" fill="white"/>
<path d="M206.64 33.87C206.64 35.73 205.13 37.24 203.27 37.24C201.41 37.24 199.9 35.73 199.9 33.87C199.9 32.01 201.41 30.5 203.27 30.5C205.13 30.5 206.64 32.01 206.64 33.87Z" fill="white"/>
<path d="M110.27 39.86C109.09 39.37 107.69 39.86 107.05 40.96C106.93 41.17 106.85 41.38 106.79 41.6C106.68 42.03 106.56 42.45 106.39 42.85L102.25 52.6L97.96 42.52C97.58 41.63 96.71 41.05 95.75 41.05C94.79 41.05 93.91 41.62 93.53 42.51L89.15 52.65L85.02 42.93C84.85 42.54 84.7 42.13 84.61 41.71C84.41 40.78 83.7 39.97 82.66 39.73C81.58 39.48 80.44 39.97 79.88 40.92C79.35 41.82 79.42 42.87 79.93 43.65C80.19 44.06 80.43 44.49 80.61 44.93L86.86 59.78C87.23 60.68 88.1 61.27 89.07 61.27H89.09C90.05 61.27 90.93 60.7 91.31 59.81L95.73 49.6L100.06 59.8C100.44 60.69 101.31 61.27 102.28 61.27H102.29C103.26 61.27 104.14 60.67 104.51 59.78L110.76 44.93C110.96 44.46 111.21 44.02 111.48 43.6C111.55 43.49 111.6 43.38 111.66 43.26C112.22 41.94 111.6 40.42 110.27 39.87V39.86Z" fill="white"/>
<path d="M144.04 48.25C143.5 48.21 140.8 47.93 140.8 46.72C140.8 45.06 142.61 44.88 143.38 44.88C145 44.88 145.74 45.49 145.87 45.62C146.31 46.13 146.96 46.45 147.69 46.45C149.02 46.45 150.11 45.37 150.11 44.03C150.11 43.47 149.92 42.96 149.6 42.55C149.4 42.29 147.48 40.03 143.36 40.03C138.99 40.03 135.94 42.78 135.94 46.71C135.94 48.06 136.49 52.49 143.64 53.06C144.63 53.14 146.28 53.47 146.28 54.79C146.28 56.4 143.48 56.42 143.36 56.42C141.13 56.42 139.85 55.56 139.64 55.41C139.21 55.03 138.65 54.8 138.04 54.8C136.71 54.8 135.62 55.88 135.62 57.22C135.62 57.98 135.98 58.67 136.53 59.11C136.79 59.34 139.19 61.26 143.36 61.26C144.35 61.26 146.29 61.11 148.06 60.07C150.03 58.91 151.12 57.04 151.12 54.8C151.12 51.16 148.34 48.58 144.03 48.24L144.04 48.25Z" fill="white"/>
<path d="M211.71 32.09C211.71 33.19 211.13 33.71 210.14 33.71C209.15 33.71 208.59 33.19 208.59 32.09C208.59 30.99 209.18 30.48 210.14 30.48C211.1 30.48 211.71 30.99 211.71 32.09ZM211.35 32.09C211.35 31.16 210.91 30.78 210.15 30.78C209.39 30.78 208.95 31.16 208.95 32.09C208.95 33.02 209.37 33.4 210.15 33.4C210.93 33.4 211.35 33 211.35 32.09ZM209.85 32.3V32.76C209.85 32.84 209.78 32.92 209.69 32.92C209.6 32.92 209.53 32.85 209.53 32.76V31.4C209.53 31.33 209.59 31.26 209.67 31.26H210.28C210.61 31.26 210.81 31.51 210.81 31.78C210.81 32.1 210.62 32.3 210.39 32.3L210.73 32.68C210.73 32.68 210.76 32.75 210.76 32.78C210.76 32.86 210.7 32.93 210.61 32.93C210.56 32.93 210.51 32.91 210.48 32.87L210.07 32.31H209.85V32.3ZM210.24 32.02C210.41 32.02 210.49 31.94 210.49 31.78C210.49 31.64 210.41 31.54 210.24 31.54H209.85V32.03H210.24V32.02Z" fill="white"/>
</svg>
