<svg width="240" height="100" viewBox="0 0 240 100" fill="none" xmlns="http://www.w3.org/2000/svg">
<path d="M191.73 47.46C190.83 48.25 190.28 49.33 190.08 50.7H200.02C199.82 49.36 199.27 48.28 198.37 47.48C197.46 46.67 196.28 46.24 195.07 46.27C193.75 46.27 192.63 46.67 191.73 47.46ZM204.09 60.09C202.19 62.37 199.42 63.52 195.78 63.52C193.51 63.52 191.49 63.05 189.74 62.11C188.04 61.23 186.64 59.87 185.69 58.21C184.73 56.56 184.26 54.67 184.26 52.56C184.23 50.59 184.72 48.65 185.67 46.93C186.57 45.29 187.9 43.94 189.53 43.01C192.91 41.16 196.99 41.13 200.39 42.95C201.99 43.85 203.3 45.19 204.16 46.8C205.07 48.48 205.53 50.42 205.53 52.64C205.53 52.72 205.49 53.27 205.42 54.3H190.16C190.38 55.55 191.08 56.67 192.1 57.43C193.12 58.19 194.4 58.56 195.92 58.56C196.87 58.58 197.82 58.42 198.72 58.07C198.92 57.99 199.11 57.9 199.29 57.79L204.09 60.08V60.09Z" fill="white"/>
<path d="M52.79 44.2601C54.33 45.8401 55.1 48.1901 55.1 51.3001V63.4801H49.25V52.2501C49.25 50.5601 48.9 49.3001 48.2 48.4701C47.5 47.6401 46.49 47.2201 45.16 47.2201C43.69 47.2201 42.51 47.7001 41.63 48.6601C40.75 49.6201 40.32 51.0501 40.32 52.9501V63.4801H34.47V43.9801L40.06 41.3101V44.6901C40.85 43.7801 41.84 43.0701 42.95 42.6201C44.15 42.1201 45.44 41.8701 46.74 41.8901C49.24 41.8901 51.26 42.6801 52.8 44.2601H52.79Z" fill="white"/>
<path d="M59.45 43.9901V63.4901H65.3V41.3201L59.45 43.9901Z" fill="white"/>
<path d="M65.3 34.53V39.53L59.45 42.2V37.2L65.3 34.53Z" fill="white"/>
<path d="M94.5801 37.21V42.21L100.43 39.53V34.53L94.5801 37.21Z" fill="white"/>
<path d="M88.1301 44.2601C89.6701 45.8401 90.4401 48.1901 90.4401 51.3001V63.4801H84.5901V52.2501C84.5901 50.5601 84.2401 49.3001 83.5401 48.4701C82.8401 47.6401 81.8301 47.2201 80.5001 47.2201C79.0201 47.2201 77.8501 47.7001 76.9701 48.6601C76.0901 49.6201 75.6601 51.0501 75.6601 52.9501V63.4801H69.8101V43.9801L75.4001 41.3101V44.6901C76.1901 43.7801 77.1801 43.0701 78.2901 42.6201C79.4901 42.1201 80.7801 41.8701 82.0901 41.8801C84.5801 41.8801 86.6001 42.6701 88.1401 44.2501L88.1301 44.2601Z" fill="white"/>
<path d="M100.43 41.37V63.45C100.43 65.93 99.7599 67.89 98.4199 69.33C97.0799 70.77 95.2099 71.48 92.8099 71.48C90.7599 71.48 89.1999 71.08 88.1199 70.29L89.6899 65.82C90.3699 66.32 91.1899 66.57 92.1699 66.57C92.9199 66.57 93.5099 66.32 93.9299 65.8C94.3499 65.28 94.5699 64.51 94.5699 63.49V44.06L100.42 41.38L100.43 41.37Z" fill="white"/>
<path d="M125.38 43.9801V63.4801H119.79V61.0301C118.34 62.8801 116.24 63.8001 113.49 63.8001C111.68 63.8201 109.9 63.3601 108.33 62.4601C106.78 61.5501 105.53 60.2201 104.71 58.6201C103.83 56.9601 103.4 55.0401 103.4 52.8501C103.4 50.6601 103.84 48.7301 104.71 47.0801C105.53 45.4801 106.78 44.1501 108.33 43.2401C109.9 42.3301 111.68 41.8701 113.49 41.8901C116.06 41.8901 118.08 42.7501 119.53 44.4601V41.3201L125.38 43.9901V43.9801ZM118.17 57.1401C119.14 56.0701 119.63 54.6401 119.63 52.8501C119.63 51.0601 119.14 49.6301 118.17 48.5601C117.24 47.5101 115.9 46.9301 114.49 46.9601C112.99 46.9601 111.75 47.4901 110.78 48.5601C109.81 49.6301 109.32 51.0601 109.32 52.8501C109.32 54.6401 109.81 56.0701 110.78 57.1401C111.75 58.2101 112.99 58.7401 114.49 58.7401C115.89 58.7701 117.24 58.1901 118.17 57.1401Z" fill="white"/>
<path d="M135.6 62.1001C133.45 60.9001 131.67 59.1201 130.46 56.9801C129.22 54.8101 128.6 52.3601 128.6 49.6401C128.6 46.9201 129.22 44.4801 130.46 42.3001C131.67 40.1501 133.45 38.3801 135.6 37.1801C137.79 35.9401 140.25 35.3201 142.97 35.3201C145.69 35.3201 148.15 35.9401 150.32 37.1801C152.47 38.3901 154.24 40.1601 155.46 42.3001C156.71 44.4701 157.34 46.9201 157.34 49.6401C157.34 52.3601 156.71 54.8001 155.46 56.9801C154.24 59.1201 152.47 60.8901 150.32 62.1001C148.15 63.3401 145.7 63.9601 142.97 63.9601C140.24 63.9601 137.79 63.3401 135.6 62.1001ZM147.17 57.3701C148.42 56.6101 149.44 55.5301 150.12 54.2301C150.85 52.8101 151.22 51.2401 151.19 49.6401C151.22 48.0501 150.85 46.4701 150.12 45.0501C149.45 43.7501 148.43 42.6601 147.17 41.9001C144.57 40.4001 141.37 40.4001 138.77 41.9001C137.52 42.6601 136.5 43.7501 135.83 45.0501C135.1 46.4701 134.73 48.0401 134.76 49.6401C134.73 51.2301 135.1 52.8101 135.83 54.2301C136.5 55.5301 137.52 56.6201 138.77 57.3701C141.37 58.8701 144.57 58.8701 147.17 57.3701Z" fill="white"/>
<path d="M178.89 44.2601C180.42 45.8401 181.19 48.1901 181.19 51.3001V63.4801H175.34V52.2501C175.34 50.5601 174.99 49.3001 174.29 48.4701C173.59 47.6401 172.58 47.2201 171.25 47.2201C169.77 47.2201 168.6 47.7001 167.72 48.6601C166.84 49.6201 166.41 51.0501 166.41 52.9501V63.4801H160.56V43.9801L166.15 41.3101V44.6901C166.94 43.7801 167.93 43.0701 169.04 42.6201C170.24 42.1201 171.53 41.8701 172.83 41.8901C175.33 41.8901 177.34 42.6801 178.88 44.2601H178.89Z" fill="white"/>
</svg>
