<svg width="240" height="100" viewBox="0 0 240 100" fill="none" xmlns="http://www.w3.org/2000/svg">
<path d="M49 37.09C48.09 38 47.55 39.26 47.55 40.53V71.74H180.27C181.58 71.74 182.81 71.24 183.71 70.29L191 63C191.91 62.09 192.45 60.83 192.45 59.56V28.26H59.87C58.56 28.26 57.33 28.76 56.43 29.71L49 37.09Z" fill="white"/>
<path d="M156.26 28.26L121.97 62.5C116.04 68.43 108.02 71.74 99.6401 71.74H47.6001V44.16L65.1701 61.69C67.7101 64.23 71.8301 64.23 74.4101 61.69L107.88 28.26H156.26Z" fill="#D9D9D9"/>
<path d="M67.8901 60.46L57.8801 39.58H62.4101C62.4101 39.58 69.5701 54.57 69.7501 55.3H69.8401C70.0201 54.53 77.1801 39.58 77.1801 39.58H81.6601L71.6501 60.51L67.8901 60.46Z" fill="black"/>
<path d="M101.04 51.63H84.8201C85.4101 55.03 87.9001 57.16 91.1201 57.16C93.7501 57.16 95.5101 56.12 96.3701 54.22H100.58C99.3101 58.21 95.7301 60.92 91.1101 60.92C85.0401 60.92 80.5601 56.48 80.5601 50C80.5601 43.52 84.9501 39.08 91.1101 39.08C96.5901 39.08 101.12 43.79 101.12 50C101.12 50.63 101.12 51 101.03 51.63H101.04ZM84.8701 48.23H96.8701C96.6001 45.38 94.2901 42.89 91.1201 42.89C87.9001 42.84 85.5001 44.97 84.8701 48.23Z" fill="black"/>
<path d="M123.28 51.63H107.06C107.65 55.03 110.14 57.16 113.36 57.16C115.99 57.16 117.75 56.12 118.61 54.22H122.82C121.55 58.21 117.97 60.92 113.35 60.92C107.28 60.92 102.8 56.48 102.8 50C102.8 43.52 107.19 39.08 113.35 39.08C118.83 39.08 123.36 43.79 123.36 50C123.36 50.63 123.36 51 123.27 51.63H123.28ZM107.11 48.23H119.11C118.84 45.38 116.53 42.89 113.36 42.89C110.14 42.84 107.74 44.97 107.11 48.23Z" fill="black"/>
<path d="M146.02 50.0001V60.4601H142.4L142.04 57.2001C140.45 59.6001 137.6 60.9101 135.06 60.9101C129.35 60.9101 125 56.3401 125 49.9901C125 43.6401 129.67 39.0701 135.6 39.0701C141.08 39.1201 146.02 43.0101 146.02 49.9901V50.0001ZM141.9 50.0001C141.9 45.3801 138.87 42.8401 135.6 42.8401C132.02 42.8401 129.12 45.6901 129.12 50.0001C129.12 54.3101 131.79 57.1601 135.6 57.1601C138.82 57.1601 141.9 54.4901 141.9 50.0001Z" fill="black"/>
<path d="M148.79 60.46V48.09C148.79 42.88 152.14 39.12 157.35 39.12C161.56 39.12 163.78 41.93 164.1 42.92H164.19C164.51 41.92 166.73 39.12 170.94 39.12C176.15 39.12 179.5 42.88 179.5 48.09V60.46H175.42V48.41C175.42 45.01 173.88 42.97 170.8 42.97C167.72 42.97 166.18 45.01 166.18 48.5V60.5H162.06V48.5C162.06 45.01 160.52 42.97 157.44 42.97C154.36 42.97 152.82 45.01 152.82 48.41V60.46H148.79Z" fill="black"/>
</svg>
