<svg width="240" height="100" viewBox="0 0 240 100" fill="none" xmlns="http://www.w3.org/2000/svg">
<path d="M128.8 53.7C128.8 60.8 123.1 66.5 116.2 66.5C109.3 66.5 103.6 60.7 103.6 53.7V42.8C103.6 42.8 109.6 44.3 109.6 50.7V53.7C109.6 57.6 112.5 60.7 116.2 60.7C119.8 60.7 122.8 57.6 122.8 53.7V47.4V47.5C123.1 42.2 127.6 40.5 128.7 39.9H128.8V47.3V53.7ZM96.5 41C98.2 41 99.8 41.3 101.2 41.9V48.6C100 47.5 98.3 46.9 96.5 46.9C92.5 46.9 89.3 50 89.3 53.9V66.6H83.3V43.4C83.3 43.4 85.8 43.5 87.4 44.6C89.7 42.3 93 41 96.5 41ZM67.6 60.8C63.6 60.8 60.3 57.6 60.3 53.7C60.3 49.8 63.6 46.6 67.6 46.6C71.6 46.6 74.9 49.8 74.9 53.7C74.9 57.6 71.6 60.8 67.6 60.8ZM67.6 41C60.3 41 54.5 46.8 54.5 53.8C54.5 60.9 60.3 66.6 67.6 66.6C70.6 66.6 73.4 65.6 75.6 63.9C76.9 66.1 80.7 66.6 80.7 66.6V53.7C80.7 46.7 74.9 41 67.6 41ZM172.4 60.8C168.4 60.8 165.1 57.6 165.1 53.7C165.1 49.8 168.4 46.6 172.4 46.6C176.4 46.6 179.7 49.8 179.7 53.7C179.7 57.6 176.4 60.8 172.4 60.8ZM172.4 41C165.1 41 159.3 46.8 159.3 53.8C159.3 60.9 165.1 66.6 172.4 66.6C175.4 66.6 178.2 65.6 180.4 63.9C181.7 66.1 185.5 66.6 185.5 66.6V53.7C185.5 46.7 179.6 41 172.4 41ZM144.6 60.8C140.6 60.8 137.3 57.6 137.3 53.7C137.3 49.8 140.6 46.6 144.6 46.6C148.6 46.6 151.9 49.8 151.9 53.7C151.9 57.6 148.6 60.8 144.6 60.8ZM144.6 41C141.9 41 139.5 41.8 137.3 43.1V41.1C137 35.8 132.7 34.1 131.5 33.5H131.4V66.6C131.4 66.6 135.3 66.2 136.8 64C139 65.5 141.7 66.5 144.5 66.5C151.8 66.5 157.6 60.7 157.6 53.7C157.8 46.7 151.8 41 144.6 41Z" fill="white"/>
</svg>
