<svg width="240" height="100" viewBox="0 0 240 100" fill="none" xmlns="http://www.w3.org/2000/svg">
<path d="M50.7412 37.4394C50.7412 38.1214 50.47 38.7774 49.9875 39.26C49.5049 39.7426 48.8509 40.0137 48.1689 40.0137C47.487 40.0137 46.8309 39.7426 46.3484 39.26C45.8658 38.7774 45.5946 38.1234 45.5946 37.4394C45.5946 36.7555 45.8658 36.1014 46.3484 35.6189C46.8309 35.1363 47.485 34.8651 48.1689 34.8651C48.8529 34.8651 49.5069 35.1363 49.9875 35.6189C50.47 36.1014 50.7412 36.7555 50.7412 37.4394ZM80.5383 65.0271V35.252C80.5383 35.1762 80.5682 35.1044 80.62 35.0526C80.6719 34.9987 80.7437 34.9688 80.8155 34.9688H84.3868C84.4606 34.9688 84.5304 34.9987 84.5822 35.0506C84.6341 35.1024 84.664 35.1742 84.664 35.25V65.0271C84.664 65.065 84.656 65.1008 84.642 65.1347C84.6281 65.1686 84.6061 65.2006 84.5802 65.2265C84.5543 65.2524 84.5224 65.2743 84.4885 65.2883C84.4546 65.3022 84.4187 65.3102 84.3808 65.3102H80.8115C80.6579 65.3102 80.5323 65.1846 80.5323 65.0271H80.5383ZM37.2595 35.2579V45.6948C35.5466 43.7087 33.1198 42.4844 30.1407 42.4844C23.9971 42.4844 19 47.6868 19 54.0817C19 60.4767 23.9971 65.6791 30.1407 65.6791C33.1198 65.6791 35.5466 64.4528 37.2595 62.4667V65.035C37.2595 65.0729 37.2675 65.1088 37.2814 65.1447C37.2954 65.1786 37.3153 65.2105 37.3412 65.2364C37.3672 65.2624 37.3991 65.2843 37.433 65.2983C37.4669 65.3122 37.5028 65.3202 37.5406 65.3202H41.11C41.1838 65.3202 41.2556 65.2903 41.3074 65.2364C41.3592 65.1826 41.3892 65.1108 41.3892 65.035V35.2579C41.3892 35.1004 41.2635 34.9728 41.11 34.9728H37.5387C37.3851 34.9728 37.2595 35.1004 37.2595 35.2579ZM30.3681 61.3879C26.4996 61.3879 23.5285 58.1097 23.5285 54.0837C23.5285 50.0578 26.5016 46.7776 30.3701 46.7776C34.2385 46.7776 36.8587 50.0538 36.8587 54.0817C36.8587 58.1097 34.2405 61.3879 30.3701 61.3879H30.3681ZM100.594 42.4804C97.6153 42.4804 95.1885 43.7067 93.4777 45.6928V43.3817C93.4777 43.2242 93.352 43.0965 93.1965 43.0965H89.6272C89.4716 43.0965 89.348 43.2242 89.348 43.3817V73.1548C89.348 73.2306 89.3779 73.3024 89.4297 73.3562C89.4816 73.41 89.5534 73.44 89.6272 73.44H93.1985C93.2723 73.44 93.3441 73.41 93.3959 73.3562C93.4477 73.3024 93.4777 73.2306 93.4777 73.1548V62.4627C95.1905 64.4508 97.6173 65.6751 100.594 65.6751C106.738 65.6751 111.735 60.4707 111.735 54.0778C111.735 47.6848 106.738 42.4804 100.594 42.4804ZM100.365 61.3839C96.4947 61.3839 93.8765 58.1057 93.8765 54.0778C93.8765 50.0498 96.4947 46.7716 100.365 46.7716C104.236 46.7716 107.205 50.0478 107.205 54.0778C107.205 58.1077 104.232 61.3839 100.363 61.3839H100.365ZM71.7326 43.3817V45.6948C70.0177 43.7087 67.5929 42.4844 64.6138 42.4844C58.4702 42.4844 53.4731 47.6868 53.4731 54.0817C53.4731 60.4767 58.4702 65.6791 64.6138 65.6791C67.5929 65.6791 70.0197 64.4528 71.7326 62.4667V65.0331C71.7326 65.0709 71.7405 65.1068 71.7545 65.1427C71.7685 65.1766 71.7904 65.2085 71.8163 65.2344C71.8422 65.2604 71.8741 65.2823 71.908 65.2963C71.9419 65.3102 71.9778 65.3182 72.0157 65.3182H75.5851C75.621 65.3182 75.6589 65.3102 75.6928 65.2963C75.7266 65.2823 75.7566 65.2604 75.7825 65.2344C75.8084 65.2085 75.8283 65.1766 75.8423 65.1427C75.8563 65.1088 75.8642 65.0709 75.8642 65.0331V43.3797C75.8642 43.2222 75.7406 43.0945 75.5851 43.0945H72.0137C71.8602 43.0945 71.7366 43.2222 71.7366 43.3797L71.7326 43.3817ZM64.8411 61.3879C60.9707 61.3879 57.9996 58.1097 57.9996 54.0817C57.9996 50.0558 60.9707 46.7776 64.8392 46.7776C68.7076 46.7776 71.3278 50.0538 71.3278 54.0817C71.3278 58.1097 68.7096 61.3879 64.8392 61.3879H64.8411ZM132.242 45.6968V43.3837C132.242 43.3079 132.272 43.2361 132.324 43.1823C132.376 43.1284 132.447 43.0985 132.521 43.0985H136.092C136.166 43.0985 136.238 43.1284 136.29 43.1823C136.342 43.2361 136.372 43.3079 136.372 43.3837V65.035C136.372 65.1108 136.342 65.1826 136.29 65.2364C136.238 65.2903 136.166 65.3202 136.092 65.3202H132.521C132.368 65.3202 132.242 65.1946 132.242 65.037V62.4687C130.529 64.4568 128.102 65.6811 125.123 65.6811C118.98 65.6811 113.982 60.4767 113.982 54.0837C113.982 47.6908 118.98 42.4864 125.123 42.4864C128.1 42.4864 130.529 43.7107 132.242 45.6988V45.6968ZM118.511 54.0817C118.511 58.1097 121.482 61.3859 125.352 61.3859C129.223 61.3859 131.841 58.1077 131.841 54.0798C131.841 50.0518 129.223 46.7756 125.352 46.7756C121.482 46.7756 118.511 50.0518 118.511 54.0817ZM157.383 45.6968V35.2599C157.383 35.1842 157.413 35.1124 157.465 35.0585C157.516 35.0047 157.588 34.9748 157.662 34.9748H161.233C161.307 34.9748 161.379 35.0047 161.431 35.0585C161.483 35.1124 161.513 35.1842 161.513 35.2599V65.035C161.513 65.1108 161.483 65.1826 161.431 65.2364C161.379 65.2903 161.307 65.3202 161.233 65.3202H157.662C157.509 65.3202 157.383 65.1926 157.383 65.035V62.4687C155.67 64.4568 153.243 65.6811 150.264 65.6811C144.12 65.6811 139.123 60.4786 139.123 54.0837C139.123 47.6888 144.12 42.4864 150.264 42.4864C153.243 42.4864 155.67 43.7107 157.383 45.6988V45.6968ZM143.652 54.0817C143.652 58.1097 146.625 61.3859 150.493 61.3859C154.362 61.3859 156.982 58.1077 156.982 54.0798C156.982 50.0518 154.364 46.7756 150.493 46.7756C146.623 46.7756 143.652 50.0518 143.652 54.0817ZM46.0672 43.3817V65.0271C46.0672 65.1028 46.0971 65.1746 46.1489 65.2265C46.2008 65.2803 46.2726 65.3102 46.3464 65.3102H49.9177C49.9915 65.3102 50.0633 65.2803 50.1151 65.2265C50.167 65.1726 50.1969 65.1008 50.1969 65.0251V43.3817C50.1969 43.2242 50.0712 43.0965 49.9177 43.0965H46.3464C46.1928 43.0965 46.0672 43.2242 46.0672 43.3817Z" fill="white"/>
<path d="M208.947 26.4143H183.804C177.7 26.4143 172.751 31.3635 172.751 37.4673V62.6102C172.751 68.714 177.7 73.6633 183.804 73.6633H208.947C215.051 73.6633 220 68.714 220 62.6102V37.4673C220 31.3635 215.051 26.4143 208.947 26.4143ZM211.18 55.6371C211.18 59.356 208.165 62.369 204.448 62.369C201.352 62.369 199.206 59.8485 198.384 57.1825L194.504 44.6758V44.6718C193.972 42.939 192.951 42.3767 192.356 42.3767C191.762 42.3767 190.741 42.943 190.209 44.6798V44.6838L185.17 60.9293C184.835 62.01 183.684 62.6142 182.604 62.2792C181.523 61.9442 180.919 60.7937 181.256 59.7129L186.291 43.4774V43.4734C187.11 40.8034 189.256 38.2749 192.356 38.2749C195.457 38.2749 197.601 40.7974 198.42 43.4634L202.301 55.9701V55.9741C202.833 57.7069 203.856 58.2692 204.448 58.2692C205.904 58.2692 207.084 57.0887 207.084 55.6331V47.0706C207.084 45.94 208.002 45.0228 209.132 45.0228C210.263 45.0228 211.18 45.94 211.18 47.0706V55.6331V55.6371ZM209.136 42.9868C207.689 42.9868 206.514 41.8123 206.514 40.3627C206.514 38.913 207.687 37.7405 209.136 37.7405C210.586 37.7405 211.761 38.913 211.761 40.3627C211.761 41.8123 210.586 42.9868 209.136 42.9868Z" fill="white"/>
</svg>
