<svg width="240" height="100" viewBox="0 0 240 100" fill="none" xmlns="http://www.w3.org/2000/svg">
<path d="M189.55 35.54L175.43 64.07H203.66L189.54 35.54H189.55ZM183.09 59.32L189.55 46.27L196.01 59.32H183.09Z" fill="white"/>
<path d="M31.1201 35.99V64.08H36.3301V52.97H52.0101V47.96H36.3301V41.01H52.0101V35.99H31.1201Z" fill="white"/>
<path d="M104.85 49.36H94.6099V40.92H104.85C107.06 40.92 108.8 42.77 108.8 45.14C108.8 47.51 107.03 49.36 104.85 49.36ZM114 45.14C114 40.09 109.89 35.98 104.84 35.98H89.3899V64.07H94.5999V54.1H103.51L109.3 64.07H115.05L108.72 53.25C111.89 51.8 114 48.59 114 45.14Z" fill="white"/>
<path d="M162.75 49.36H152.51V40.92H162.75C164.96 40.92 166.7 42.77 166.7 45.14C166.7 47.51 164.93 49.36 162.75 49.36ZM171.91 45.14C171.91 40.09 167.8 35.98 162.75 35.98H147.3V64.07H152.51V54.1H161.42L167.21 64.07H172.96L166.63 53.25C169.8 51.8 171.91 48.59 171.91 45.14Z" fill="white"/>
<path d="M116.96 35.99V41.01H127.49V64.08H132.7V41.01H143.19V35.99H116.96Z" fill="white"/>
<path d="M70.7099 59.45C65.3899 59.45 61.3799 55.39 61.3799 50C61.3799 44.61 65.3899 40.55 70.7099 40.55C76.0299 40.55 80.0399 44.61 80.0399 50C80.0399 55.39 76.0299 59.45 70.7099 59.45ZM70.7099 35.46C62.5599 35.46 56.1699 41.85 56.1699 50C56.1699 58.15 62.5599 64.54 70.7099 64.54C78.8599 64.54 85.2499 58.15 85.2499 50C85.2499 41.85 78.8599 35.46 70.7099 35.46Z" fill="white"/>
<path d="M207.88 60.2001C208.19 60.3801 208.44 60.6301 208.62 60.9601C208.8 61.2901 208.89 61.6401 208.89 62.0401C208.89 62.4401 208.8 62.8001 208.62 63.1101C208.44 63.4301 208.2 63.6801 207.88 63.8601C207.56 64.0401 207.21 64.1301 206.81 64.1301C206.41 64.1301 206.05 64.0401 205.74 63.8601C205.43 63.6801 205.18 63.4301 205 63.1101C204.82 62.7901 204.73 62.4301 204.73 62.0401C204.73 61.6501 204.82 61.2801 205 60.9601C205.18 60.6401 205.42 60.3901 205.74 60.2001C206.06 60.0101 206.41 59.9301 206.81 59.9301C207.21 59.9301 207.57 60.0201 207.88 60.2001ZM208.04 63.3001C208.35 62.9701 208.51 62.5501 208.51 62.0401C208.51 61.5301 208.35 61.1101 208.04 60.7801C207.73 60.4501 207.32 60.2901 206.82 60.2901C206.32 60.2901 205.9 60.4601 205.59 60.7801C205.28 61.1001 205.12 61.5301 205.12 62.0401C205.12 62.5501 205.27 62.9701 205.59 63.3001C205.91 63.6301 206.31 63.7901 206.82 63.7901C207.33 63.7901 207.73 63.6201 208.04 63.3001ZM207.58 62.0101C207.48 62.1301 207.35 62.2001 207.17 62.2401L207.8 63.1401H207.26L206.68 62.2601H206.44V63.1501H205.99V60.8901H206.97C207.2 60.8901 207.39 60.9501 207.52 61.0701C207.66 61.1901 207.73 61.3601 207.73 61.5701C207.73 61.7401 207.68 61.8901 207.58 62.0101ZM206.45 61.8801H206.94C207.04 61.8801 207.12 61.8601 207.18 61.8101C207.24 61.7601 207.27 61.6901 207.27 61.5901C207.27 61.4901 207.24 61.4201 207.18 61.3801C207.12 61.3401 207.03 61.3101 206.94 61.3101H206.45V61.8901V61.8801Z" fill="white"/>
</svg>
