<svg width="240" height="100" viewBox="0 0 240 100" fill="none" xmlns="http://www.w3.org/2000/svg">
<path d="M88.0001 24.2C78.5001 18.5 66.6001 18.6 57.1001 24.3C55.8001 25.1 55.0001 25.8 55.0001 26.7C55.0001 29.2 60.9001 31.9 71.4001 31.9C81.9001 31.9 89.8001 28.9 89.8001 26.1C89.8001 25.4 89.2001 25 88.0001 24.2ZM92.5001 27.6C92.6001 27.8 92.7001 28 92.7001 28.3C92.7001 31.6 82.5001 37.5 66.3001 37.5C54.3001 37.5 52.1001 33.1 52.1001 30.3C52.1001 29.2 52.6001 28.1 53.3001 27.2C53.3001 27.1 53.3001 27.1 53.3001 27.2C51.7001 28.5 50.3001 29.9 49.1001 31.5C48.6001 32 48.3001 32.6 48.1001 33.3C48.1001 39.1 62.7001 43.4 76.4001 43.4C91.0001 43.4 97.5001 38.6 97.5001 34.5C97.5001 33 96.9001 32.1 95.4001 30.4C94.4001 29.4 93.4001 28.4 92.5001 27.6C92.4001 27.5 92.4001 27.5 92.5001 27.6ZM45.5001 37.1C44.6001 39.1 43.8001 41.2 43.3001 43.3C43.2001 43.8 43.2001 44.3 43.5001 44.8C45.4001 48.7 54.7001 55 76.4001 55C89.6001 55 99.9001 51.7 101.6 45.8C101.9 44.6 101.9 43.2 101.5 42C101 40.2 100.3 38.5 99.5001 36.8H99.4001C99.7001 44.6 78.0001 49.6 67.0001 49.6C55.1001 49.6 45.2001 44.9 45.2001 38.9C45.3001 38.3 45.4001 37.8 45.5001 37.1ZM66.6001 62C51.2001 62 44.0001 54.9 42.7001 50C42.7001 49.9 42.6001 49.9 42.6001 50C42.6001 51.7 42.8001 53.5 43.1001 55.2C43.4001 56.2 43.9001 57.1 44.6001 57.8C48.3001 61.7 57.6001 67.1 73.6001 67.1C95.5001 67.1 100.5 59.8 101.5 57.4C102.3 55 102.7 52.5 102.6 50C102.6 49.4 102.6 48.9 102.6 48.4C102.6 48.3 102.6 48.3 102.5 48.4C101.4 54.2 82.7001 62 66.6001 62ZM74.6001 75.2C82.0001 75.2 90.1001 73.2 94.9001 69.2C96.4001 67.9 97.7001 66.4 98.6001 64.7C99.3001 63.5 99.9001 62.3 100.4 61C100.4 60.9 100.4 60.9 100.3 61C96.0001 67.6 82.9001 71.8 69.4001 71.8C59.9001 71.8 49.6001 68.7 45.6001 62.9C49.3001 70.9 60.6001 75.2 74.6001 75.2ZM54.2001 73.7C65.5001 82.5 81.5001 82 92.3001 72.6C92.4001 72.5 92.3001 72.5 92.3001 72.5C89.9001 74.1 83.2001 77.5 72.6001 77.5C63.4001 77.5 57.6001 75.5 54.2001 73.7C54.2001 73.6 54.2001 73.6 54.2001 73.7Z" fill="white"/>
<path d="M120.9 29.9H123.7L129.9 46.5H127L125.6 42.5H118.8L117.4 46.5H114.6L120.9 29.9ZM119.7 40.1H124.9L122.3 32.6L119.7 40.1Z" fill="white"/>
<path d="M133 32.3H127.8V29.8H141V32.3H135.8V46.4H133V32.3Z" fill="white"/>
<path d="M145.8 46.7C144.4 46.8 143.1 46.3 142 45.5C141.1 44.7 140.6 43.5 140.6 42.3C140.6 41.3 140.9 40.4 141.5 39.6C142.2 38.7 143.2 37.9 144.3 37.4C143.7 36.8 143.1 36.1 142.7 35.3C142.4 34.7 142.2 34.1 142.3 33.4C142.3 32.3 142.7 31.2 143.6 30.5C145.6 29.1 148.2 29 150.2 30.4C151 31.1 151.5 32.1 151.4 33.1C151.4 34.7 150.2 36.2 147.7 37.5L150.8 40.8C151.1 40.3 151.5 39.8 151.7 39.2L152.7 37.4H155.2L153.8 40C153.4 40.7 153 41.5 152.4 42.3L156.3 46.3H153.1L150.9 44.1C150.3 44.9 149.5 45.5 148.6 46C147.7 46.6 146.7 46.8 145.8 46.7ZM146.1 44.6C147.4 44.6 148.7 43.9 149.4 42.8L145.6 38.9C144.9 39.3 144.3 39.8 143.8 40.4C143.4 40.9 143.2 41.5 143.2 42.1C143.2 42.8 143.5 43.4 144 43.9C144.6 44.4 145.3 44.6 146.1 44.6ZM144.7 33.5C144.7 33.9 144.8 34.3 145 34.7C145.4 35.3 145.9 35.9 146.4 36.4C147.1 36 147.8 35.5 148.4 34.9C148.8 34.5 149 34 149 33.5C149 33 148.8 32.5 148.4 32.2C148 31.9 147.5 31.7 146.9 31.7C146.3 31.7 145.7 31.9 145.3 32.2C144.9 32.5 144.7 33 144.7 33.5Z" fill="white"/>
<path d="M159.5 32.3H154.3V29.8H167.5V32.3H162.3V46.4H159.6L159.5 32.3Z" fill="white"/>
<path d="M116.4 53.5H122.1C123.4 53.4 124.8 53.8 125.9 54.6C126.8 55.4 127.3 56.6 127.2 57.9C127.2 59.6 126.1 61.1 124.5 61.7C125.4 61.8 126.2 62.3 126.8 63C127.4 63.8 127.7 64.7 127.6 65.7C127.6 66.5 127.4 67.4 126.9 68.1C126.5 68.8 125.9 69.3 125.1 69.7C124.3 70.1 123.4 70.3 122.5 70.2H116.3V53.5H116.4ZM117.6 54.7V61.2H122.1C123.1 61.3 124.1 61 124.9 60.3C125.6 59.7 126 58.8 125.9 57.9C126 57 125.6 56.1 124.9 55.5C124.1 54.9 123.1 54.6 122.1 54.7H117.6ZM117.6 62.3V69H122.6C123.6 69.1 124.6 68.7 125.4 68.1C126.1 67.5 126.5 66.6 126.4 65.6C126.4 63.4 125 62.3 122.2 62.3H117.6Z" fill="white"/>
<path d="M139.3 57.9V70.1H138.3L138.1 68.6C136.9 69.7 135.3 70.3 133.6 70.4C132.4 70.5 131.3 70 130.5 69.2C129.8 68.1 129.4 66.9 129.5 65.6V57.9H130.7V65.4C130.7 68 131.8 69.2 133.9 69.2C135.5 69.1 136.9 68.5 138.1 67.5V57.9H139.3Z" fill="white"/>
<path d="M145.1 70.4C144.3 70.4 143.6 70.3 142.9 70.1C142.2 69.9 141.5 69.6 140.9 69.2L141.3 68.2C142.4 68.8 143.7 69.2 145.1 69.2C145.9 69.3 146.8 69 147.5 68.6C148.1 68.2 148.4 67.6 148.3 66.9C148.3 66.3 148.1 65.8 147.7 65.4C147 64.9 146.2 64.5 145.4 64.3L144.8 64.1C143.8 63.9 142.9 63.5 142.2 62.9C141.7 62.3 141.4 61.6 141.4 60.8C141.4 59.9 141.8 59 142.5 58.5C143.3 57.9 144.3 57.6 145.3 57.6C146.7 57.6 148 57.9 149.2 58.6L148.8 59.6C147.7 59 146.5 58.7 145.3 58.7C144.6 58.7 143.9 58.9 143.3 59.3C142.8 59.7 142.5 60.2 142.5 60.8C142.5 61.1 142.6 61.5 142.7 61.8C142.9 62.1 143.2 62.4 143.5 62.6C144 62.9 144.5 63.1 145 63.2L145.6 63.4C146.7 63.6 147.7 64.1 148.5 64.8C149.1 65.4 149.4 66.1 149.4 67C149.4 68 149 68.9 148.2 69.5C147.3 70.1 146.2 70.4 145.1 70.4Z" fill="white"/>
<path d="M151.2 54C151.2 53.8 151.3 53.5 151.4 53.4C151.8 53.1 152.3 53.1 152.7 53.4C153 53.7 153 54.3 152.7 54.6C152.3 54.9 151.8 54.9 151.4 54.6C151.3 54.5 151.2 54.2 151.2 54ZM151.5 57.9H152.7V70.1H151.5V57.9Z" fill="white"/>
<path d="M155.5 70.1V57.9H156.5L156.7 59.4C158 58.3 159.6 57.7 161.2 57.6C162.4 57.5 163.5 58 164.3 58.8C165.1 59.8 165.5 61.1 165.4 62.4V70H164.2V62.5C164.2 59.9 163.1 58.7 161 58.7C159.4 58.7 157.9 59.4 156.8 60.4V70H155.5V70.1Z" fill="white"/>
<path d="M173 70.4C171.9 70.4 170.8 70.1 169.8 69.6C168.9 69.1 168.2 68.3 167.7 67.3C166.7 65.2 166.7 62.8 167.7 60.7C168.1 59.8 168.8 59 169.7 58.5C170.5 58 171.5 57.7 172.5 57.7C173.5 57.7 174.4 57.9 175.2 58.4C176 58.9 176.6 59.6 177 60.4C177.4 61.3 177.6 62.3 177.6 63.3C177.6 63.6 177.6 64 177.6 64.3H168.2C168.2 65.2 168.5 66.1 168.9 66.9C169.3 67.6 169.9 68.2 170.6 68.6C171.3 69 172.1 69.2 173 69.2C173.7 69.2 174.4 69.1 175.1 69C175.7 68.8 176.3 68.6 176.9 68.2L177.3 69.1C176.7 69.5 176 69.8 175.3 70C174.5 70.3 173.8 70.4 173 70.4ZM172.6 58.7C171.9 58.7 171.1 58.9 170.5 59.3C169.9 59.7 169.3 60.3 169 61C168.6 61.7 168.4 62.5 168.3 63.4H176.5V63.2C176.5 62.4 176.3 61.6 176 60.9C175.7 60.3 175.2 59.7 174.6 59.3C174 58.9 173.3 58.7 172.6 58.7Z" fill="white"/>
<path d="M183.2 70.4C182.4 70.4 181.7 70.3 181 70.1C180.3 69.9 179.6 69.6 179 69.2L179.4 68.2C180.5 68.8 181.8 69.2 183.2 69.2C184 69.3 184.9 69 185.6 68.6C186.2 68.2 186.5 67.6 186.4 66.9C186.4 66.3 186.2 65.8 185.8 65.4C185.1 64.9 184.3 64.5 183.5 64.3L182.9 64.1C181.9 63.9 181 63.4 180.3 62.8C179.8 62.2 179.5 61.5 179.5 60.7C179.5 59.8 179.9 58.9 180.6 58.4C181.4 57.8 182.4 57.5 183.4 57.5C184.8 57.5 186.1 57.8 187.3 58.5L186.9 59.5C185.8 58.9 184.6 58.6 183.4 58.6C182.7 58.6 182 58.8 181.4 59.2C180.9 59.6 180.6 60.1 180.7 60.7C180.7 61.1 180.8 61.4 180.9 61.7C181.1 62 181.4 62.3 181.7 62.5C182.2 62.8 182.7 63 183.2 63.1L183.8 63.3C184.9 63.5 185.9 64 186.7 64.7C187.3 65.3 187.6 66 187.6 66.9C187.6 67.9 187.2 68.8 186.4 69.4C185.5 70 184.3 70.4 183.2 70.4Z" fill="white"/>
<path d="M193 70.4C192.2 70.4 191.5 70.3 190.8 70.1C190.1 69.9 189.4 69.6 188.8 69.2L189.2 68.2C190.3 68.8 191.6 69.2 193 69.2C193.8 69.3 194.7 69 195.4 68.6C196 68.2 196.3 67.6 196.2 66.9C196.2 66.3 196 65.8 195.6 65.4C194.9 64.9 194.1 64.5 193.3 64.3L192.7 64.1C191.7 63.9 190.8 63.4 190.1 62.8C189.6 62.2 189.3 61.5 189.3 60.7C189.3 59.8 189.7 58.9 190.4 58.4C191.2 57.8 192.2 57.5 193.2 57.5C194.6 57.5 195.9 57.8 197.1 58.5L196.7 59.5C195.6 58.9 194.4 58.6 193.2 58.6C192.5 58.6 191.8 58.8 191.2 59.2C190.7 59.6 190.4 60.1 190.5 60.7C190.5 61 190.6 61.4 190.7 61.7C190.9 62 191.2 62.3 191.5 62.5C192 62.8 192.5 63 193 63.1L193.6 63.3C194.7 63.5 195.7 64 196.5 64.7C197.1 65.3 197.4 66 197.4 66.9C197.4 67.9 197 68.8 196.2 69.4C195.2 70.1 194.1 70.4 193 70.4Z" fill="white"/>
</svg>
