<svg width="240" height="100" viewBox="0 0 240 100" fill="none" xmlns="http://www.w3.org/2000/svg">
<path d="M98.9373 60.5078H93.6089V81.624H98.9373V60.5078Z" fill="white"/>
<path d="M141.903 66.5587C141.688 66.4473 139.975 65.4312 137.427 65.4312C133.975 65.4312 131.587 67.8296 131.587 71.0634C131.587 74.2011 133.875 76.7007 137.427 76.7007C139.931 76.7007 141.673 75.7066 141.903 75.58V81.2477C141.241 81.435 139.423 81.9988 137.044 81.9988C131.053 81.9988 125.799 77.867 125.799 71.0634C125.799 64.7578 130.559 60.1332 137.044 60.1332C139.552 60.1332 141.401 60.7425 141.903 60.891V66.5587Z" fill="white"/>
<path d="M86.2831 66.5587C86.0687 66.4473 84.3556 65.4312 81.807 65.4312C78.3554 65.4312 75.9672 67.8296 75.9672 71.0634C75.9672 74.2011 78.2559 76.7007 81.807 76.7007C84.3117 76.7007 86.0535 75.7066 86.2831 75.58V81.2477C85.6215 81.435 83.8037 81.9988 81.4239 81.9988C75.4338 81.9988 70.1797 77.867 70.1797 71.0634C70.1797 64.7578 74.9393 60.1332 81.4239 60.1332C83.932 60.1332 85.7818 60.7425 86.2831 60.891V66.5587Z" fill="white"/>
<path d="M158.665 65.5104C155.503 65.5104 153.156 67.9983 153.156 71.0633C153.156 74.1351 155.503 76.6213 158.665 76.6213C161.822 76.6213 164.177 74.1351 164.177 71.0633C164.177 67.9983 161.822 65.5104 158.665 65.5104ZM169.823 71.0633C169.823 77.104 165.159 81.9986 158.665 81.9986C152.17 81.9986 147.513 77.104 147.513 71.0633C147.513 65.0328 152.17 60.1331 158.665 60.1331C165.159 60.1331 169.823 65.0328 169.823 71.0633Z" fill="white"/>
<path d="M119.145 65.3076C119.066 65.2823 116.823 64.6628 114.979 64.6628C112.844 64.6628 111.683 65.3785 111.683 66.3928C111.683 67.679 113.249 68.1279 114.125 68.4047L115.596 68.8722C119.054 69.9727 120.63 72.3407 120.63 74.9129C120.63 80.2177 115.965 82 111.887 82C109.054 82 106.399 81.4785 106.137 81.4228V76.5636C106.606 76.6817 108.841 77.3484 111.168 77.3484C113.82 77.3484 115.039 76.5737 115.039 75.377C115.039 74.307 113.984 73.6892 112.662 73.274C112.34 73.166 111.855 73.0141 111.525 72.9061C108.557 71.9677 106.083 70.2242 106.083 66.7287C106.083 62.7792 109.04 60.1277 113.952 60.1277C116.546 60.1277 118.986 60.7572 119.145 60.7994V65.3076Z" fill="white"/>
<path d="M64.5301 37.8146C64.5301 36.3597 63.3418 35.1799 61.8853 35.1799C60.4287 35.1799 59.2388 36.3597 59.2388 37.8146V43.3574C59.2388 44.8207 60.4287 46.0022 61.8853 46.0022C63.3418 46.0022 64.5301 44.8207 64.5301 43.3574V37.8146Z" fill="white"/>
<path d="M79.0613 30.5393C79.0613 29.0844 77.8731 27.9012 76.4165 27.9012C74.9582 27.9012 73.77 29.0844 73.77 30.5393V43.3582C73.77 44.8215 74.9582 46.0013 76.4165 46.0013C77.8731 46.0013 79.0613 44.8215 79.0613 43.3582V30.5393Z" fill="white"/>
<path d="M93.5921 20.5855C93.5921 19.1306 92.4038 17.9491 90.9473 17.9491C89.489 17.9491 88.3008 19.1306 88.3008 20.5855V48.625C88.3008 50.0884 89.489 51.2698 90.9473 51.2698C92.4038 51.2698 93.5921 50.0884 93.5921 48.625V20.5855Z" fill="white"/>
<path d="M108.123 30.5393C108.123 29.0844 106.935 27.9012 105.479 27.9012C104.02 27.9012 102.832 29.0844 102.832 30.5393V43.3582C102.832 44.8215 104.02 46.0013 105.479 46.0013C106.935 46.0013 108.123 44.8215 108.123 43.3582V30.5393Z" fill="white"/>
<path d="M122.637 37.8146C122.637 36.3597 121.457 35.1799 120.008 35.1799C118.551 35.1799 117.363 36.3597 117.363 37.8146V43.3574C117.363 44.8207 118.551 46.0022 120.008 46.0022C121.457 46.0022 122.637 44.8207 122.637 43.3574V37.8146Z" fill="white"/>
<path d="M122.644 37.8146C122.644 36.3597 121.456 35.1799 120 35.1799C118.543 35.1799 117.353 36.3597 117.353 37.8146V43.3574C117.353 44.8207 118.543 46.0022 120 46.0022C121.456 46.0022 122.644 44.8207 122.644 43.3574V37.8146Z" fill="white"/>
<path d="M137.176 30.5393C137.176 29.0844 135.987 27.9012 134.531 27.9012C133.072 27.9012 131.884 29.0844 131.884 30.5393V43.3582C131.884 44.8215 133.072 46.0013 134.531 46.0013C135.987 46.0013 137.176 44.8215 137.176 43.3582V30.5393Z" fill="white"/>
<path d="M151.706 20.5855C151.706 19.1306 150.518 17.9491 149.062 17.9491C147.603 17.9491 146.415 19.1306 146.415 20.5855V48.625C146.415 50.0884 147.603 51.2698 149.062 51.2698C150.518 51.2698 151.706 50.0884 151.706 48.625V20.5855Z" fill="white"/>
<path d="M166.237 30.5393C166.237 29.0844 165.049 27.9012 163.592 27.9012C162.134 27.9012 160.946 29.0844 160.946 30.5393V43.3582C160.946 44.8215 162.134 46.0013 163.592 46.0013C165.049 46.0013 166.237 44.8215 166.237 43.3582V30.5393Z" fill="white"/>
<path d="M180.751 37.8146C180.751 36.3597 179.572 35.1799 178.122 35.1799C176.665 35.1799 175.477 36.3597 175.477 37.8146V43.3574C175.477 44.8207 176.665 46.0022 178.122 46.0022C179.572 46.0022 180.751 44.8207 180.751 43.3574V37.8146Z" fill="white"/>
<path d="M177.712 78.8429V79.1737H176.77V81.6227H176.384V79.1737H175.437V78.8429H177.712Z" fill="white"/>
<path d="M177.91 78.8429H178.516L179.348 81.1231H179.361L180.166 78.8429H180.76V81.6227H180.364V79.3442H180.35L179.506 81.6227H179.14L178.316 79.3442H178.298V81.6227H177.91V78.8429Z" fill="white"/>
</svg>
