<svg width="240" height="100" viewBox="0 0 240 100" fill="none" xmlns="http://www.w3.org/2000/svg">
<path d="M38.9999 37.2C40.6999 37.2 42.2999 37.4999 43.8999 38.0999C45.3999 38.6999 46.6999 39.4999 47.8999 40.5999C48.9999 41.6999 49.9999 42.9 50.5999 44.4C51.1999 45.9 51.5999 47.4 51.5999 49C51.5999 50.6 51.2999 52.1999 50.5999 53.5999C49.9999 54.9999 48.9999 56.3 47.8999 57.4C45.4999 59.7 42.3999 61 38.9999 61H30.9999C30.1999 61 29.3999 60.9 28.5999 60.7C27.9999 60.5 27.3999 60.2 26.9999 59.7C26.5999 59.2 26.2999 58.6999 26.1999 58.0999C25.9999 57.3999 25.8999 56.7 25.8999 55.9V42.4C25.8999 41.7 25.9999 40.9 26.1999 40.2C26.3999 39.6 26.6999 38.9999 27.0999 38.5999C27.4999 38.0999 28.0999 37.7999 28.6999 37.5999C29.4999 37.2999 30.2999 37.2 31.0999 37.2H38.9999ZM31.2999 40.7999C31.0999 40.7999 30.9999 40.8 30.7999 40.9C30.5999 41 30.3999 41.1 30.1999 41.2C29.9999 41.3 29.8999 41.5 29.7999 41.7C29.6999 41.9 29.5999 42.2 29.5999 42.4V55.7C29.5999 56 29.6999 56.2 29.7999 56.5C29.8999 56.7 30.0999 56.9 30.1999 57C30.3999 57.1 30.5999 57.1999 30.7999 57.2999C30.9999 57.2999 31.0999 57.4 31.2999 57.4H38.8999C40.0999 57.4 41.2999 57.1999 42.3999 56.7999C43.4999 56.3999 44.3999 55.8 45.2999 55C46.0999 54.3 46.7999 53.4 47.2999 52.4C47.7999 51.4 47.9999 50.3 47.9999 49.2C47.9999 48.1 47.7999 47 47.2999 46C46.7999 45 46.1999 44.1 45.2999 43.4C43.5999 41.8 41.2999 40.9 38.8999 40.9H31.2999V40.7999Z" fill="white"/>
<path d="M76.3 37.2H80V55.4C80 56.1 79.8999 56.8999 79.5999 57.5999C79.2999 58.2999 78.9 58.9 78.4 59.4C77.9 59.9 77.2999 60.2999 76.6999 60.5999C75.9999 60.8999 75.3 61 74.5 61C74.1 61 73.8 61 73.4 60.9C73.1 60.8 72.8 60.8 72.4 60.7C71.8 60.5 71.3 60.3 70.9 59.9C70.5 59.6 70.1 59.1999 69.8 58.7999C69.5 58.3999 69.3 57.9999 69 57.5999C68.8 57.2999 68.6999 57.1 68.5999 56.9C68.4999 56.7 68.4 56.4999 68.3 56.2999C68.2 56.0999 68 55.8 67.8 55.4L67.0999 53.9C66.7999 53.3 66.4999 52.7 66.1999 52C65.8999 51.3 65.4999 50.6 65.1999 49.9C64.8999 49.2 64.4999 48.4999 64.1999 47.7999C63.8999 47.0999 63.5 46.5 63.2 45.9C62.9 45.3 62.6 44.7999 62.4 44.2999C62.2 43.7999 62 43.5 61.9 43.2C61.8 42.9 61.6999 42.7 61.5999 42.5C61.4999 42.3 61.3999 42.1 61.2999 41.9C61.0999 41.7 60.9999 41.4 60.7999 41.2C60.6999 41.1 60.5 41 60.4 40.9C60.2 40.8 60.1 40.7999 59.9 40.7999C59.4 40.7999 58.9 41 58.5 41.4C58.2 41.8 58 42.2999 58 42.7999V61H54.2V42.7999C54.2 41.3999 54.7 39.9 55.7 38.9C56.2 38.4 56.8 38 57.5 37.7C58.2 37.4 58.8999 37.2999 59.5999 37.2999C60.2999 37.2999 61.0999 37.3999 61.7999 37.5999C62.4999 37.7999 63.0999 38.1999 63.5999 38.7999C63.9999 39.1999 64.2999 39.5999 64.5999 40.0999C64.7999 40.3999 65 40.8 65.3 41.2C65.5 41.6 65.7 42 66 42.5C66.3 43.1 66.6999 43.9 67.1999 45C67.6999 46.1 68.3 47.1999 68.8 48.2999C69.4 49.4999 69.9 50.5999 70.4 51.5999C70.9 52.6999 71.2999 53.4999 71.5999 54.0999C71.6999 54.1999 71.8 54.4 71.8 54.5C71.8 54.6 71.9 54.7 71.9 54.7C72.1 55 72.2 55.3 72.3 55.5C72.4 55.7 72.4999 56 72.5999 56.2C72.6999 56.3 72.7 56.4 72.8 56.5C72.9 56.6 72.9999 56.8 73.0999 56.9C73.1999 57 73.4 57.1 73.5 57.2C73.7 57.3 73.8999 57.2999 74.0999 57.2999C74.3999 57.2999 74.7 57.1999 74.9 57.0999C75.1 56.9999 75.3 56.9 75.5 56.7C75.8 56.3 76 55.7999 76 55.2999L76.3 37.2Z" fill="white"/>
<path d="M101.9 57.4C101.8 57.4 101.8 57.4 101.7 57.4H84.3999V61H98.9999C99.9999 59.9 101 58.7 101.9 57.4Z" fill="white"/>
<path d="M84.6999 48.9999C85.2999 49.5999 86.0999 50.0999 86.8999 50.4999C87.6999 50.8999 88.6999 50.9999 89.5999 50.9999H101.7C102.4 50.9999 103 51.1999 103.6 51.5999C104.2 51.9999 104.6 52.5999 104.8 53.1999C105.5 51.9999 106.2 50.8999 106.8 49.7999C106.7 49.6999 106.6 49.5999 106.5 49.3999C105.9 48.7999 105.2 48.2999 104.3 47.9999C103.5 47.5999 102.6 47.4999 101.7 47.4999H89.5999C89.1999 47.4999 88.7999 47.3999 88.3999 47.1999C87.9999 46.9999 87.6999 46.7999 87.3999 46.3999C87.0999 46.0999 86.8999 45.6999 86.6999 45.3999C86.4999 44.9999 86.4999 44.5999 86.4999 44.1999C86.4999 43.7999 86.5999 43.2999 86.6999 42.8999C86.8999 42.4999 87.0999 42.1999 87.3999 41.8999C87.9999 41.2999 88.7999 40.8999 89.5999 40.7999H106.7V37.2999H89.5999C88.6999 37.2999 87.7999 37.4999 86.8999 37.8999C86.0999 38.2999 85.3999 38.6999 84.6999 39.3999C84.0999 39.9999 83.5999 40.7999 83.1999 41.5999C82.7999 42.4999 82.5999 43.3999 82.5999 44.2999C82.5999 45.1999 82.7999 46.0999 83.1999 46.9999C83.5999 47.6999 84.0999 48.3999 84.6999 48.9999Z" fill="white"/>
<path d="M119.9 61V44.0999C119.9 43.1999 120.1 42.3 120.4 41.5C120.8 40.7 121.3 39.8999 121.9 39.2999C122.5 38.6999 123.3 38.1999 124.1 37.7999C124.9 37.3999 125.9 37.2 126.8 37.2H142.5V40.7999H127.1C126.7 40.7999 126.2 40.8999 125.8 41.0999C125.2 41.3999 124.7 41.8 124.3 42.4C123.9 43 123.7 43.5999 123.7 44.2999V46.9H142.5V50.4H123.7V61H119.9Z" fill="white"/>
<path d="M145.1 40.9H148.8V37.2H145.1V40.9ZM145.1 61H148.8V44H145.1V61Z" fill="white"/>
<path d="M159 61C158.1 61 157.2 60.8 156.3 60.4C155.5 60 154.7 59.5 154.1 58.9C153.5 58.3 153 57.5 152.6 56.7C152.2 55.8 152.1 54.9 152.1 54V37.2H155.8V54C155.8 54.4 155.9 54.8999 156 55.2999C156.2 55.6999 156.4 56 156.7 56.4C157.3 57 158.1 57.4 159 57.5H159.7V61H159Z" fill="white"/>
<path d="M170.3 61C169.4 61 168.5 60.8 167.6 60.5C166.8 60.2 166 59.7 165.4 59C164.8 58.4 164.3 57.5999 163.9 56.7999C163.5 55.9999 163.3 54.9999 163.3 54.0999V47.5999H161.7V44.0999H163.3V39.2H167.1V44.0999H172.2V47.5999H167V54.0999C167 54.4999 167.1 54.8999 167.2 55.2999C167.4 55.6999 167.6 56.1 167.9 56.4C168.2 56.7 168.5 57 168.9 57.2C169.3 57.4 169.7 57.5 170.1 57.5H172.8V61H170.3Z" fill="white"/>
<path d="M179.1 54.5C179.1 54.9 179.3 55.2 179.4 55.5C179.6 55.8 179.8 56.1 180 56.4C180.3 56.7 180.7 57 181.1 57.1C181.5 57.3 182 57.4 182.4 57.3H196.1V61H182.2C181.3 61 180.4 60.8 179.5 60.5C178.7 60.2 177.9 59.7 177.3 59C176.7 58.4 176.2 57.6 175.8 56.8C175.4 55.9 175.2 55 175.2 54.1V51C175.2 50.1 175.4 49.2 175.8 48.3C176.2 47.5 176.7 46.7 177.3 46.1C177.9 45.5 178.7 45 179.5 44.6C180.4 44.2 181.3 44.1 182.2 44.1H191.3C192.7 44.1 194 44.5 195.1 45.2C196.2 45.9 197.1 47 197.7 48.3C198.1 49.1 198.2 50.1 198.2 51V54.6H179.1V54.5ZM180 48.6C179.7 48.9 179.4 49.3 179.3 49.7C179.1 50.1 179 50.6 179 51H194.4C194.4 50.6 194.3 50.1 194.1 49.7C193.9 49.3 193.7 48.9 193.4 48.6C193.1 48.3 192.7 48 192.3 47.9C191.9 47.7 191.4 47.6 191 47.7H182.4C182 47.7 181.5 47.8 181.1 47.9C180.7 48 180.3 48.3 180 48.6Z" fill="white"/>
<path d="M214.1 44.1V47.6H208.1C207.7 47.6 207.2 47.7 206.8 47.8C206.4 48 206 48.2 205.7 48.5C205.4 48.8 205.1 49.2 205 49.6C204.8 50 204.7 50.5 204.7 50.9V60.9H201V50.9C201 50 201.2 49.1 201.6 48.2C201.9 47.4 202.4 46.6 203.1 46C203.7 45.4 204.5 44.9 205.3 44.5C206.1 44.2 207 44 207.9 44H214.1V44.1Z" fill="white"/>
<path d="M104.1 33.1C107.3 30.7 110.1 29.8 111.8 30.9C115.4 33.3 112.6 44 105.5 54.9C98.4 65.8 89.7 72.6 86 70.3C84.3 69.2 84 66.3 84.9 62.4C82.9 68.7 82.9999 73.7 85.6999 75.4C90.2999 78.4 100.9 70.4 109.3 57.5C117.8 44.6 120.9 31.7 116.3 28.7C113.7 26.9 109.1 28.8 104.1 33.1Z" fill="white"/>
</svg>
