<svg width="240" height="100" viewBox="0 0 240 100" fill="none" xmlns="http://www.w3.org/2000/svg">
<path d="M69.1985 74.3969H45V51.4083H93.3667C92.7362 64.2106 82.157 74.3969 69.1985 74.3969Z" fill="white"/>
<path d="M69.1985 25.9999H45V48.9883H93.3667C92.7362 36.1861 82.157 25.9999 69.1985 25.9999Z" fill="white"/>
<path d="M170.831 25.9999C157.873 25.9999 147.294 36.1861 146.663 48.9883H195C194.369 36.1861 183.79 25.9999 170.831 25.9999Z" fill="white"/>
<path d="M170.831 74.3969C157.873 74.3969 147.294 64.2106 146.663 51.4083H195C194.369 64.2106 183.79 74.3969 170.831 74.3969Z" fill="white"/>
<path d="M95.8167 25.9999V50.1983C95.8167 63.1569 106.003 73.736 118.805 74.3666V25.9999H95.8167Z" fill="white"/>
<path d="M144.213 74.3969H121.225V26H144.213V50.1984V74.3969Z" fill="white"/>
</svg>
