<svg width="240" height="100" viewBox="0 0 240 100" fill="none" xmlns="http://www.w3.org/2000/svg">
<path d="M91.5999 48C91.9999 45.6 93.9999 42.5999 98.0999 42.5999C101.8 42.5999 104 45.3 104.3 48H91.5999ZM86.3999 49.9C86.3999 56.6 91.1999 61 98.0999 61C102.6 61 105.7 58.7999 107.4 56.7999C107.6 56.5999 107.6 56.2999 107.5 56.0999C107.5 56.0999 107.5 56.1 107.4 56L105 53.7C104.8 53.5 104.4 53.5 104.2 53.7C102.9 54.8 101 56.5 97.9999 56.5C94.4999 56.5 92.0999 54.4 91.4999 51.7H108.5C108.9 51.7 109.2 51.4999 109.3 51.0999V51V50C109.3 43.7 105.2 38.5 98.1999 38.5C90.8999 38.5 86.3999 43.6 86.3999 49.9ZM112.5 60C112.5 60.2 112.6 60.5999 113 60.5999H113.1H116.7C116.9 60.5999 117.3 60.4999 117.3 60.0999V60V29.7C117.3 29.5 117.2 29.2 116.8 29.2H113C112.6 29.2 112.5 29.4 112.5 29.7V60ZM78.7999 60C78.7999 60.2 78.8999 60.5999 79.2999 60.5999H79.3999H82.9999C83.1999 60.5999 83.5999 60.4999 83.5999 60.0999V60V47.9C83.5999 42.8 80.5999 38.4 73.9999 38.4C70.7999 38.4 68.3999 39.4 66.9999 40.7V39.5999C66.9999 39.1999 66.7999 39 66.4999 39H62.8999C62.6999 39 62.2999 39.1 62.2999 39.5V39.5999V60.0999C62.2999 60.2999 62.3999 60.7 62.7999 60.7H62.9999H66.5999C66.7999 60.7 67.1999 60.6 67.1999 60.2V60.0999V48.7999C67.1999 45.2999 69.0999 42.5999 73.2999 42.5999C77.4999 42.5999 79.0999 45.1 79.0999 48.7L78.7999 60ZM147.7 66.4C149.3 68.4 152.8 70.6999 157.8 70.6999C164.7 70.6999 168.9 66.5 168.9 59.7V39.7C168.9 39.5 168.8 39.0999 168.4 39.0999H168.3H164.8C164.6 39.0999 164.2 39.1999 164.2 39.5999V39.7V40.7999C162.7 39.4999 160.7 38.5 157.4 38.5C151.2 38.5 145.8 42.9999 145.8 49.7999C145.8 56.5999 151.1 61 157.5 61C159.9 61 162.3 60.1999 164.2 58.7999V60.2C164.2 64 162 66.5 157.8 66.5C154.4 66.5 152.1 64.6 150.7 63.2C150.5 63 150 63 149.8 63.2L147.8 65.5C147.5 65.7 147.5 66.1 147.7 66.4ZM54.2999 49.7999C54.2999 53.5999 51.3999 56.7 47.5999 56.7C43.7999 56.7 41.0999 53.3999 41.0999 49.7999V49.5C41.0999 45.9 43.7999 42.7999 47.5999 42.7999C51.3999 42.7999 54.2999 45.8999 54.2999 49.7999ZM35.8999 49.7999C35.8999 55.9999 40.8999 61.0999 47.4999 61.0999C54.2999 61.0999 59.0999 55.9999 59.0999 49.7999V49.5C59.0999 43.3 54.0999 38.4 47.4999 38.4C40.8999 38.4 35.8999 43.2999 35.8999 49.7999ZM138.5 49.7999C138.5 53.5999 135.6 56.7 131.8 56.7C128 56.7 125.3 53.3999 125.3 49.7999V49.5C125.3 45.9 128 42.7999 131.8 42.7999C135.7 42.7999 138.5 45.8999 138.5 49.7999ZM120.1 49.7999C120.1 55.9999 125.1 61.0999 131.7 61.0999C138.4 61.0999 143.3 55.9999 143.3 49.7999V49.5C143.3 43.3 138.3 38.4 131.7 38.4C125.1 38.5 120.1 43.2999 120.1 49.7999ZM173.5 60C173.5 60.2 173.6 60.5999 174 60.5999H174.1H177.7C177.9 60.5999 178.3 60.4999 178.3 60.0999V60V39.5C178.3 39.3 178.2 39 177.8 39H174C173.6 39 173.5 39.2 173.5 39.5V60ZM173.5 33.5999C173.5 33.7999 173.6 34.2 174 34.2H174.1H177.7C177.9 34.2 178.3 34.1 178.3 33.7V33.5999V29.7999C178.3 29.5999 178.2 29.2999 177.8 29.2999H174C173.6 29.2999 173.5 29.4999 173.5 29.7999V33.5999ZM199.3 60C199.3 60.2 199.4 60.5999 199.8 60.5999H199.9H203.5C203.7 60.5999 204.1 60.4999 204.1 60.0999V60V47.9C204.1 42.8 201.1 38.4 194.5 38.4H194.4C191.2 38.4 188.8 39.4 187.4 40.7V39.5999C187.4 39.1999 187.2 39 186.9 39H183.3C183.1 39 182.7 39.1 182.7 39.5V39.5999V60.0999C182.7 60.2999 182.8 60.7 183.2 60.7H183.3H186.9C187.1 60.7 187.5 60.6 187.5 60.2V60.0999V48.7999C187.5 45.2999 189.4 42.5999 193.6 42.5999C197.8 42.5999 199.4 45.0999 199.4 48.7999L199.3 60ZM164.3 49.7999C164.3 53.5999 161.4 56.7 157.6 56.7C153.8 56.7 151.1 53.3999 151.1 49.7999V49.5C151.1 45.9 153.8 42.7999 157.6 42.7999C161.4 42.7999 164.3 45.8999 164.3 49.7999Z" fill="white"/>
</svg>
