<svg width="240" height="100" viewBox="0 0 240 100" fill="none" xmlns="http://www.w3.org/2000/svg">
<path d="M218.067 39.6015C218.358 39.7645 218.585 39.9865 218.75 40.2674C218.915 40.5463 219 40.8527 219 41.1847C219 41.5166 218.917 41.8211 218.75 42.1C218.585 42.377 218.356 42.5969 218.067 42.758C217.776 42.9191 217.456 42.9996 217.104 42.9996C216.763 42.9996 216.446 42.9191 216.16 42.758C215.871 42.5969 215.645 42.377 215.478 42.1C215.311 41.823 215.229 41.5186 215.229 41.1847C215.229 40.8527 215.311 40.5463 215.478 40.2674C215.643 39.9884 215.871 39.7665 216.16 39.6015C216.446 39.4385 216.763 39.356 217.104 39.356C217.456 39.356 217.776 39.4365 218.067 39.6015ZM217.872 42.4614C218.098 42.3357 218.275 42.1609 218.401 41.9389C218.528 41.715 218.591 41.4655 218.591 41.1847C218.591 40.9057 218.528 40.6524 218.401 40.4265C218.275 40.2006 218.098 40.0238 217.872 39.8961C217.646 39.7684 217.389 39.7036 217.102 39.7036C216.823 39.7036 216.574 39.7684 216.35 39.8961C216.126 40.0238 215.951 40.2006 215.826 40.4265C215.698 40.6524 215.635 40.9038 215.635 41.1847C215.635 41.4655 215.698 41.715 215.826 41.9389C215.951 42.1609 216.126 42.3357 216.35 42.4614C216.574 42.5871 216.823 42.65 217.102 42.65C217.391 42.65 217.646 42.5871 217.872 42.4614ZM217.78 41.1159C217.69 41.2082 217.574 41.275 217.43 41.3182L217.98 42.1373H217.481L217.028 41.383H216.849V42.1373H216.425V40.1731H217.004C217.609 40.1731 217.912 40.3715 217.912 40.7702C217.914 40.9097 217.87 41.0236 217.78 41.1159ZM216.851 41.0707H217.075C217.344 41.0707 217.478 40.9706 217.478 40.7722C217.478 40.672 217.444 40.6013 217.377 40.5561C217.311 40.5109 217.205 40.4893 217.061 40.4893H216.853V41.0707H216.851Z" fill="white"/>
<path d="M84.6088 45.5237C84.487 45.6415 84.3397 45.6985 84.1669 45.6985H78.8673C78.6945 45.6985 78.6081 45.781 78.6081 45.9479V57.9906C78.6081 59.2576 78.8948 60.1729 79.4645 60.7386C80.0361 61.3063 80.9455 61.5872 82.1928 61.5872H83.7524C83.9253 61.5872 84.0726 61.6461 84.1944 61.762C84.3161 61.8798 84.377 62.0213 84.377 62.1863V65.934C84.377 66.3013 84.1688 66.5174 83.7544 66.5842L81.0516 66.6333C78.3154 66.6333 76.2706 66.1835 74.9212 65.2838C73.5718 64.3842 72.8764 62.6852 72.843 60.1867V45.946C72.843 45.779 72.7566 45.6965 72.5838 45.6965H69.6217C69.4488 45.6965 69.3015 45.6395 69.1797 45.5217C69.058 45.4058 68.9971 45.2644 68.9971 45.0974V41.5991C68.9971 41.4322 69.058 41.2907 69.1797 41.1748C69.3015 41.0589 69.4469 41 69.6217 41H72.5838C72.7566 41 72.843 40.9175 72.843 40.7506V34.905C72.843 34.738 72.9039 34.5966 73.0257 34.4807C73.1475 34.3648 73.2929 34.3059 73.4677 34.3059H77.9874C78.1602 34.3059 78.3075 34.3648 78.4293 34.4807C78.5511 34.5986 78.612 34.74 78.612 34.905V40.7506C78.612 40.9175 78.6984 41 78.8713 41H84.1708C84.3436 41 84.491 41.0589 84.6127 41.1748C84.7345 41.2927 84.7954 41.4341 84.7954 41.5991V45.0974C84.7895 45.2663 84.7286 45.4078 84.6088 45.5237Z" fill="white"/>
<path d="M108.441 53.6949L108.39 55.2447C108.39 55.6454 108.182 55.8438 107.768 55.8438H91.5038C91.331 55.8438 91.2445 55.9282 91.2445 56.0932C91.3486 57.1932 91.5038 57.9416 91.712 58.3423C92.5429 60.7406 94.57 61.9565 97.7913 61.9899C100.146 61.9899 102.016 61.0568 103.403 59.1908C103.541 58.9905 103.715 58.8903 103.924 58.8903C104.061 58.8903 104.183 58.9394 104.287 59.0396L107.508 61.5872C107.821 61.8209 107.872 62.0861 107.664 62.3866C106.589 63.8519 105.161 64.9853 103.378 65.7848C101.594 66.5842 99.6102 66.9849 97.4279 66.9849C94.7252 66.9849 92.4309 66.4015 90.5433 65.2367C88.6557 64.0719 87.2787 62.4377 86.4125 60.3399C85.615 58.5407 85.2183 56.0422 85.2183 52.8444C85.2183 50.9135 85.4265 49.3461 85.8409 48.1479C86.5343 45.8163 87.8405 43.9759 89.7635 42.6264C91.6865 41.277 93.9984 40.6033 96.6992 40.6033C103.523 40.6033 107.367 44.0348 108.233 50.8978C108.373 51.7287 108.441 52.6617 108.441 53.6949ZM93.5034 46.5235C92.6549 47.1402 92.0558 47.9966 91.7101 49.0966C91.5018 49.6643 91.3624 50.395 91.2936 51.2946C91.2229 51.4616 91.2936 51.5441 91.5018 51.5441H102.05C102.223 51.5441 102.309 51.4616 102.309 51.2946C102.238 50.4618 102.136 49.8293 101.997 49.3952C101.684 48.195 101.07 47.264 100.152 46.5961C99.235 45.9303 98.082 45.5964 96.6972 45.5964C95.4166 45.5983 94.3519 45.9067 93.5034 46.5235Z" fill="white"/>
<path d="M130.181 42.9996C131.861 44.5985 132.701 46.7808 132.701 49.5464V65.936C132.701 66.103 132.641 66.2444 132.519 66.3603C132.397 66.4781 132.25 66.5351 132.077 66.5351H127.296C127.123 66.5351 126.976 66.4781 126.854 66.3603C126.732 66.2444 126.671 66.103 126.671 65.936V50.7446C126.671 49.2125 126.221 47.9711 125.32 47.0224C124.418 46.0737 123.224 45.5983 121.735 45.5983C120.246 45.5983 119.042 46.0658 118.125 46.9969C117.208 47.9299 116.748 49.1634 116.748 50.6955V65.936C116.748 66.103 116.687 66.2444 116.565 66.3603C116.444 66.4781 116.296 66.5351 116.123 66.5351H111.342C111.17 66.5351 111.022 66.4781 110.9 66.3603C110.779 66.2444 110.718 66.103 110.718 65.936V41.6011C110.718 41.4342 110.779 41.2927 110.9 41.1768C111.022 41.0609 111.168 41.002 111.342 41.002H116.123C116.296 41.002 116.444 41.0609 116.565 41.1768C116.687 41.2947 116.748 41.4361 116.748 41.6011V43.2C116.748 43.3002 116.781 43.367 116.852 43.4004C116.921 43.4337 116.974 43.4004 117.007 43.3002C118.427 41.5009 120.574 40.6013 123.45 40.6013C126.257 40.6013 128.5 41.4008 130.181 42.9996Z" fill="white"/>
<path d="M152.46 41.7013C154.121 42.434 155.404 43.4416 156.304 44.7243C157.203 46.0069 157.655 47.4644 157.655 49.0966V65.936C157.655 66.103 157.594 66.2444 157.472 66.3603C157.351 66.4782 157.203 66.5351 157.03 66.5351H152.249C152.077 66.5351 151.929 66.4782 151.807 66.3603C151.686 66.2444 151.625 66.103 151.625 65.936V64.3371C151.625 64.237 151.589 64.18 151.521 64.1623C151.45 64.1466 151.381 64.1702 151.312 64.237C149.615 66.0362 147.156 66.9358 143.935 66.9358C141.336 66.9358 139.197 66.3033 137.518 65.0364C135.836 63.7714 134.998 61.8877 134.998 59.3892C134.998 56.7905 135.94 54.7674 137.83 53.3178C139.718 51.8682 142.377 51.1434 145.805 51.1434H151.364C151.536 51.1434 151.623 51.0609 151.623 50.8939V49.6938C151.623 48.3954 151.224 47.3878 150.429 46.6708C149.631 45.9539 148.437 45.5964 146.844 45.5964C145.528 45.5964 144.461 45.8203 143.648 46.2701C142.833 46.7199 142.322 47.3445 142.116 48.144C142.012 48.5447 141.768 48.7117 141.389 48.6429L136.349 48.0438C136.176 48.0104 136.029 47.9535 135.907 47.869C135.785 47.7865 135.742 47.6785 135.777 47.5449C136.054 45.5139 137.188 43.8462 139.181 42.5479C141.173 41.2495 143.676 40.5994 146.689 40.5994C148.875 40.6013 150.798 40.9686 152.46 41.7013ZM149.613 61.0392C150.825 60.173 151.432 59.073 151.432 57.7412V55.392C151.432 55.2251 151.346 55.1426 151.173 55.1426H146.809C144.972 55.1426 143.526 55.4765 142.47 56.1424C141.413 56.8082 140.884 57.7589 140.884 58.9905C140.884 60.0571 141.291 60.882 142.106 61.4635C142.919 62.0468 143.968 62.3375 145.249 62.3375C146.946 62.3395 148.401 61.9074 149.613 61.0392Z" fill="white"/>
<path d="M183.272 53.6948C183.272 56.0597 182.942 58.1418 182.284 59.941C181.522 62.139 180.293 63.8558 178.596 65.0873C176.899 66.3209 174.82 66.9357 172.361 66.9357C169.935 66.9357 167.946 66.0537 166.386 64.2879C166.315 64.1877 166.247 64.1543 166.178 64.1877C166.107 64.2211 166.074 64.2879 166.074 64.3881V65.9379C166.074 66.1048 166.013 66.2462 165.891 66.3621C165.769 66.48 165.622 66.5369 165.449 66.5369H160.668C160.495 66.5369 160.348 66.48 160.226 66.3621C160.104 66.2462 160.043 66.1048 160.043 65.9379V32.157C160.043 31.99 160.104 31.8486 160.226 31.7327C160.348 31.6168 160.493 31.5579 160.668 31.5579H165.449C165.622 31.5579 165.769 31.6168 165.891 31.7327C166.013 31.8505 166.074 31.992 166.074 32.157V42.9995C166.074 43.0997 166.107 43.1665 166.178 43.1999C166.247 43.2333 166.315 43.2176 166.386 43.1508C167.875 41.4517 169.849 40.6032 172.31 40.6032C174.873 40.6032 176.995 41.2199 178.674 42.4515C180.354 43.685 181.593 45.3998 182.389 47.5978C182.978 49.4638 183.272 51.4948 183.272 53.6948ZM177.089 53.793C177.089 51.1943 176.569 49.1633 175.529 47.696C174.594 46.2975 173.208 45.5982 171.373 45.5982C169.676 45.5982 168.376 46.3309 167.476 47.7962C166.61 49.1633 166.178 51.1432 166.178 53.7419C166.178 56.3072 166.576 58.24 167.372 59.5384C168.272 61.1373 169.623 61.9367 171.424 61.9367C172.393 61.9367 173.259 61.7285 174.023 61.3121C174.785 60.8957 175.39 60.3044 175.842 59.5384C176.673 58.1418 177.089 56.2267 177.089 53.793Z" fill="white"/>
<path d="M185.761 66.3995C185.639 66.2836 185.578 66.1422 185.578 65.9752V32.1963C185.578 32.0293 185.639 31.8879 185.761 31.772C185.883 31.6561 186.028 31.5972 186.203 31.5972H190.984C191.157 31.5972 191.304 31.6561 191.426 31.772C191.547 31.8898 191.608 32.0313 191.608 32.1963V65.9752C191.608 66.1422 191.547 66.2836 191.426 66.3995C191.304 66.5173 191.157 66.5743 190.984 66.5743H186.201C186.028 66.5743 185.881 66.5173 185.761 66.3995Z" fill="white"/>
<path d="M217.162 53.6556L217.111 55.2054C217.111 55.6061 216.902 55.8045 216.488 55.8045H200.224C200.051 55.8045 199.965 55.8889 199.965 56.0539C200.069 57.1539 200.224 57.9023 200.432 58.303C201.263 60.7013 203.29 61.9172 206.512 61.9505C208.867 61.9505 210.737 61.0175 212.123 59.1515C212.261 58.9512 212.436 58.851 212.642 58.851C212.779 58.851 212.901 58.9001 213.005 59.0003L216.227 61.5479C216.539 61.7816 216.59 62.0468 216.382 62.3473C215.307 63.8126 213.879 64.946 212.096 65.7454C210.312 66.5449 208.328 66.9456 206.146 66.9456C203.445 66.9456 201.149 66.3622 199.262 65.1974C197.374 64.0326 195.997 62.3984 195.131 60.3006C194.333 58.5013 193.937 56.0028 193.937 52.8051C193.937 50.8742 194.145 49.3068 194.559 48.1086C195.253 45.777 196.559 43.9366 198.482 42.5871C200.405 41.2377 202.717 40.564 205.417 40.564C212.241 40.564 216.085 43.9955 216.951 50.8585C217.091 51.6914 217.162 52.6244 217.162 53.6556ZM202.224 46.4842C201.375 47.1009 200.776 47.9573 200.43 49.0573C200.222 49.625 200.085 50.3557 200.014 51.2553C199.943 51.4222 200.014 51.5047 200.222 51.5047H210.77C210.943 51.5047 211.029 51.4222 211.029 51.2553C210.959 50.4225 210.856 49.79 210.717 49.3559C210.405 48.1557 209.79 47.2247 208.873 46.5568C207.955 45.891 206.802 45.557 205.417 45.557C204.137 45.561 203.072 45.8694 202.224 46.4842Z" fill="white"/>
<path d="M65.8722 52.0842L59.8636 34.2411C59.4295 32.9525 58.3295 31.9881 56.9938 31.7288L38.2393 28.0695C36.9311 27.8141 35.5679 28.2737 34.6821 29.2676L21.9617 43.5241C21.0562 44.5396 20.7635 45.9715 21.1976 47.26L27.2062 65.1031C27.6403 66.3936 28.7403 67.3561 30.0759 67.6154L48.8305 71.2748C49.0701 71.3219 49.3097 71.3435 49.5494 71.3435C50.6199 71.3435 51.6629 70.8878 52.3877 70.0766L65.1081 55.8202C66.0136 54.8066 66.3062 53.3747 65.8722 52.0842ZM58.6123 34.6634L62.5644 46.3977L54.1653 33.147C53.9846 32.8602 53.7626 32.6088 53.5132 32.3947L56.7444 33.0252C57.6125 33.1941 58.3295 33.8227 58.6123 34.6634ZM52.4211 65.6099L45.1004 65.9812L56.9427 59.126C56.9604 59.1162 56.9781 59.1044 56.9958 59.0926L54.1457 64.508C53.8078 65.1522 53.1459 65.5746 52.4211 65.6099ZM34.0221 65.494L29.8854 58.9688C29.964 59.0258 30.0445 59.0788 30.129 59.1279L42.0656 66.0381C42.1206 66.0695 42.1776 66.101 42.2346 66.1285L35.8724 66.4506C35.128 66.486 34.4189 66.1206 34.0221 65.494ZM34.6487 33.7363L41.9694 33.365L30.129 40.2202C30.1113 40.23 30.0936 40.2418 30.0759 40.2536L32.9261 34.8382C33.2639 34.1939 33.9239 33.7736 34.6487 33.7363ZM53.0496 33.8541L57.1863 40.3793C57.1077 40.3224 57.0272 40.2693 56.9427 40.2202L45.0061 33.312C44.9511 33.2806 44.8941 33.2491 44.8372 33.2216L51.1993 32.8995C51.9398 32.8563 52.6509 33.2256 53.0496 33.8541ZM57.0861 56.5882C57.0861 57.1617 56.7777 57.698 56.2808 57.9867L44.3441 64.8949C43.8452 65.1837 43.2245 65.1837 42.7256 64.8949L30.7909 57.9848C30.294 57.696 29.9856 57.1617 29.9856 56.5862V42.758C29.9856 42.1845 30.294 41.6482 30.7909 41.3595L42.7276 34.4513C42.977 34.3059 43.256 34.2352 43.5368 34.2352C43.8158 34.2352 44.0967 34.3079 44.3461 34.4513L56.2808 41.3614C56.7777 41.6482 57.0861 42.1845 57.0861 42.76V56.5882ZM28.7147 57.1205L25.2479 51.6501C24.853 51.0274 24.8216 50.2339 25.1654 49.5818L28.6637 42.9328V56.5862C28.6637 56.7689 28.6813 56.9457 28.7147 57.1205ZM58.357 42.2257L61.8239 47.6961C62.2187 48.3188 62.2501 49.1123 61.9064 49.7644L58.4061 56.4134V42.76C58.4061 42.5793 58.3884 42.4005 58.357 42.2257ZM35.6701 30.1476C36.1435 29.6173 36.8231 29.3207 37.5204 29.3207C37.6756 29.3207 37.8327 29.3364 37.9898 29.3659L49.6986 31.6503L34.5839 32.4163C34.1655 32.4379 33.7628 32.5381 33.3896 32.7031L35.6701 30.1476ZM22.9477 44.404L31.3606 34.9777L23.9966 48.9689C23.7747 49.3893 23.6509 49.8469 23.6175 50.3085L22.4508 46.8416C22.166 45.999 22.3585 45.066 22.9477 44.404ZM28.4574 64.6828L24.5054 52.9485L32.9044 66.1992C33.0852 66.484 33.3071 66.7374 33.5566 66.9515L30.3274 66.321C29.4572 66.152 28.7422 65.5235 28.4574 64.6828ZM51.4016 69.2005C50.8242 69.8487 49.9344 70.1493 49.0819 69.9823L37.3731 67.6979L52.4879 66.9318C52.9062 66.9102 53.3089 66.8101 53.6821 66.6451L51.4016 69.2005ZM64.122 54.9422L55.7112 64.3705L63.0751 50.3792C63.297 49.9589 63.4208 49.5012 63.4542 49.0396L64.6209 52.5065C64.9038 53.3472 64.7133 54.2802 64.122 54.9422Z" fill="white"/>
</svg>
