<svg width="240" height="100" viewBox="0 0 240 100" fill="none" xmlns="http://www.w3.org/2000/svg">
<path fill-rule="evenodd" clip-rule="evenodd" d="M84.4228 39.807H74.1757V28.5624C74.1757 26.8762 72.6912 25.3999 70.9955 25.3999H27.1802C25.4845 25.3999 24 26.8762 24 28.5624V56.6739C24 58.3608 25.4845 59.8364 27.1802 59.8364H43.4342C43.4342 61.5929 43.2932 62.5069 42.7277 63.0691C41.8087 63.9825 39.3356 64.4044 34.2472 64.4044H33.1871V69.324H65.3415V73.1892C65.3422 74.735 66.6141 76 68.1695 76H84.4228C85.9775 76 87.2501 74.735 87.2501 73.1892V42.6179C87.2501 41.0714 85.9782 39.807 84.4228 39.807Z" fill="white"/>
<path fill-rule="evenodd" clip-rule="evenodd" d="M73.1157 62.2962L80.3945 57.0249L73.1157 51.7543V62.2962ZM63.928 65.4587C52.8326 65.4587 53.6808 63.7016 53.6808 57.0256H49.0876H44.4937C44.4937 63.7023 45.3413 65.4593 34.2466 65.4593V68.2702H63.928V65.4587ZM49.0876 47.1162C48.4948 47.1196 47.9072 47.0058 47.3585 46.7813C46.8099 46.5568 46.311 46.226 45.8907 45.808C45.4703 45.39 45.1368 44.893 44.9092 44.3456C44.6816 43.7982 44.5645 43.2113 44.5646 42.6185C44.5646 40.0885 46.6139 38.0505 49.0876 38.0505C51.6315 38.0505 53.6808 40.0885 53.6808 42.6185C53.61 45.1485 51.5607 47.1162 49.0876 47.1162Z" fill="black"/>
<path fill-rule="evenodd" clip-rule="evenodd" d="M73.1162 62.6474L80.395 57.0251L73.1162 51.4028V62.6474Z" fill="black"/>
<path fill-rule="evenodd" clip-rule="evenodd" d="M75.2357 58.7821V55.2679H28.5938V29.9679H69.5825V39.4554H73.1162V28.5625C73.1162 27.5081 72.0562 26.4543 70.9961 26.4543H27.1802C26.1201 26.4543 25.0601 27.5087 25.0601 28.5625V56.674C25.0601 57.7284 26.1201 58.7821 27.1802 58.7821H44.4949C44.5651 64.0527 44.3532 65.4588 34.2478 65.4588V68.2696H63.9292V65.4588C53.8237 65.4588 53.6112 64.0534 53.682 58.7821H75.2357ZM84.4235 40.8615H53.2576C52.5511 39.2448 50.9256 38.1202 49.0881 38.1202C46.5436 38.1202 44.4943 40.1587 44.4943 42.6179C44.4943 45.0771 46.5436 47.1156 49.0881 47.1156C50.9964 47.1156 52.6213 45.991 53.2576 44.3744H83.3634V70.3771H69.2295V60.1875H66.4029V73.1892C66.4029 74.1728 67.1802 74.9463 68.1694 74.9463H84.4235C85.4127 74.9463 86.19 74.1734 86.19 73.1892V42.6179C86.19 41.6337 85.4127 40.8615 84.4235 40.8615ZM78.063 73.1892H74.5299V72.1348H78.063V73.1892Z" fill="black"/>
<path d="M127.07 47H123.332V36.9453C123.332 35.8594 123.379 34.6602 123.473 33.3477H123.379C123.184 34.3789 123.008 35.1211 122.852 35.5742L118.914 47H115.82L111.812 35.6914C111.703 35.3867 111.527 34.6055 111.285 33.3477H111.18C111.281 35.0039 111.332 36.457 111.332 37.707V47H107.922V30.1953H113.465L116.898 40.1562C117.172 40.9531 117.371 41.7539 117.496 42.5586H117.566C117.777 41.6289 118 40.8203 118.234 40.1328L121.668 30.1953H127.07V47ZM132.402 33.1016C131.777 33.1016 131.266 32.918 130.867 32.5508C130.469 32.1758 130.27 31.7188 130.27 31.1797C130.27 30.625 130.469 30.1719 130.867 29.8203C131.266 29.4688 131.777 29.293 132.402 29.293C133.035 29.293 133.547 29.4688 133.938 29.8203C134.336 30.1719 134.535 30.625 134.535 31.1797C134.535 31.7422 134.336 32.2031 133.938 32.5625C133.547 32.9219 133.035 33.1016 132.402 33.1016ZM134.23 47H130.527V35H134.23V47ZM146.441 46.5664C145.605 47.0508 144.398 47.293 142.82 47.293C140.977 47.293 139.484 46.7344 138.344 45.6172C137.203 44.5 136.633 43.0586 136.633 41.293C136.633 39.2539 137.242 37.6484 138.461 36.4766C139.688 35.2969 141.324 34.707 143.371 34.707C144.785 34.707 145.809 34.8945 146.441 35.2695V38.4102C145.668 37.832 144.805 37.543 143.852 37.543C142.789 37.543 141.945 37.8555 141.32 38.4805C140.703 39.0977 140.395 39.9531 140.395 41.0469C140.395 42.1094 140.691 42.9453 141.285 43.5547C141.879 44.1562 142.695 44.457 143.734 44.457C144.656 44.457 145.559 44.168 146.441 43.5898V46.5664ZM156.707 38.3398C156.262 38.0977 155.742 37.9766 155.148 37.9766C154.344 37.9766 153.715 38.2734 153.262 38.8672C152.809 39.4531 152.582 40.2539 152.582 41.2695V47H148.879V35H152.582V37.2266H152.629C153.215 35.6016 154.27 34.7891 155.793 34.7891C156.184 34.7891 156.488 34.8359 156.707 34.9297V38.3398ZM164.066 47.293C162.066 47.293 160.492 46.7344 159.344 45.6172C158.203 44.4922 157.633 42.9688 157.633 41.0469C157.633 39.0625 158.227 37.5117 159.414 36.3945C160.602 35.2695 162.207 34.707 164.23 34.707C166.223 34.707 167.785 35.2695 168.918 36.3945C170.051 37.5117 170.617 38.9922 170.617 40.8359C170.617 42.8281 170.031 44.4023 168.859 45.5586C167.695 46.7148 166.098 47.293 164.066 47.293ZM164.16 37.543C163.285 37.543 162.605 37.8438 162.121 38.4453C161.637 39.0469 161.395 39.8984 161.395 41C161.395 43.3047 162.324 44.457 164.184 44.457C165.957 44.457 166.844 43.2734 166.844 40.9062C166.844 38.6641 165.949 37.543 164.16 37.543ZM172.234 46.6836V43.6836C172.844 44.0508 173.449 44.3242 174.051 44.5039C174.66 44.6836 175.234 44.7734 175.773 44.7734C176.43 44.7734 176.945 44.6836 177.32 44.5039C177.703 44.3242 177.895 44.0508 177.895 43.6836C177.895 43.4492 177.809 43.2539 177.637 43.0977C177.465 42.9414 177.242 42.8047 176.969 42.6875C176.703 42.5703 176.41 42.4648 176.09 42.3711C175.77 42.2773 175.461 42.1719 175.164 42.0547C174.688 41.875 174.266 41.6836 173.898 41.4805C173.539 41.2695 173.234 41.0273 172.984 40.7539C172.742 40.4805 172.555 40.1641 172.422 39.8047C172.297 39.4453 172.234 39.0195 172.234 38.5273C172.234 37.8555 172.379 37.2773 172.668 36.793C172.965 36.3086 173.355 35.9141 173.84 35.6094C174.332 35.2969 174.891 35.0703 175.516 34.9297C176.148 34.7812 176.805 34.707 177.484 34.707C178.016 34.707 178.555 34.75 179.102 34.8359C179.648 34.9141 180.188 35.0312 180.719 35.1875V38.0469C180.25 37.7734 179.746 37.5703 179.207 37.4375C178.676 37.2969 178.152 37.2266 177.637 37.2266C177.395 37.2266 177.164 37.25 176.945 37.2969C176.734 37.3359 176.547 37.3984 176.383 37.4844C176.219 37.5625 176.09 37.668 175.996 37.8008C175.902 37.9258 175.855 38.0703 175.855 38.2344C175.855 38.4531 175.926 38.6406 176.066 38.7969C176.207 38.9531 176.391 39.0898 176.617 39.207C176.844 39.3164 177.094 39.418 177.367 39.5117C177.648 39.5977 177.926 39.6875 178.199 39.7812C178.691 39.9531 179.137 40.1406 179.535 40.3438C179.934 40.5469 180.273 40.7852 180.555 41.0586C180.844 41.332 181.062 41.6523 181.211 42.0195C181.367 42.3867 181.445 42.8242 181.445 43.332C181.445 44.043 181.289 44.6523 180.977 45.1602C180.672 45.6602 180.262 46.0703 179.746 46.3906C179.238 46.7031 178.648 46.9297 177.977 47.0703C177.312 47.2188 176.621 47.293 175.902 47.293C174.582 47.293 173.359 47.0898 172.234 46.6836ZM189.309 47.293C187.309 47.293 185.734 46.7344 184.586 45.6172C183.445 44.4922 182.875 42.9688 182.875 41.0469C182.875 39.0625 183.469 37.5117 184.656 36.3945C185.844 35.2695 187.449 34.707 189.473 34.707C191.465 34.707 193.027 35.2695 194.16 36.3945C195.293 37.5117 195.859 38.9922 195.859 40.8359C195.859 42.8281 195.273 44.4023 194.102 45.5586C192.938 46.7148 191.34 47.293 189.309 47.293ZM189.402 37.543C188.527 37.543 187.848 37.8438 187.363 38.4453C186.879 39.0469 186.637 39.8984 186.637 41C186.637 43.3047 187.566 44.457 189.426 44.457C191.199 44.457 192.086 43.2734 192.086 40.9062C192.086 38.6641 191.191 37.543 189.402 37.543ZM205.715 32.0703C205.238 31.8828 204.781 31.7891 204.344 31.7891C203.156 31.7891 202.562 32.4336 202.562 33.7227V35H205.305V37.7305H202.562V47H198.871V37.7305H196.855V35H198.871V33.5117C198.871 32.1445 199.316 31.043 200.207 30.207C201.098 29.3711 202.309 28.9531 203.84 28.9531C204.59 28.9531 205.215 29.0312 205.715 29.1875V32.0703ZM214.82 46.8594C214.273 47.1484 213.449 47.293 212.348 47.293C209.738 47.293 208.434 45.9375 208.434 43.2266V37.7305H206.488V35H208.434V32.4102L212.125 31.3555V35H214.82V37.7305H212.125V42.582C212.125 43.832 212.621 44.457 213.613 44.457C214.004 44.457 214.406 44.3438 214.82 44.1172V46.8594ZM110.172 73H108.203V56.1953H110.172V73ZM124.305 73H122.383V66.1562C122.383 63.6094 121.453 62.3359 119.594 62.3359C118.633 62.3359 117.836 62.6992 117.203 63.4258C116.578 64.1445 116.266 65.0547 116.266 66.1562V73H114.344V61H116.266V62.9922H116.312C117.219 61.4766 118.531 60.7188 120.25 60.7188C121.562 60.7188 122.566 61.1445 123.262 61.9961C123.957 62.8398 124.305 64.0625 124.305 65.6641V73ZM133.504 72.8828C133.051 73.1328 132.453 73.2578 131.711 73.2578C129.609 73.2578 128.559 72.0859 128.559 69.7422V62.6406H126.496V61H128.559V58.0703L130.48 57.4492V61H133.504V62.6406H130.48V69.4023C130.48 70.207 130.617 70.7812 130.891 71.125C131.164 71.4688 131.617 71.6406 132.25 71.6406C132.734 71.6406 133.152 71.5078 133.504 71.2422V72.8828ZM145.773 73H143.852V71.1016H143.805C143.008 72.5547 141.773 73.2812 140.102 73.2812C137.242 73.2812 135.812 71.5781 135.812 68.1719V61H137.723V67.8672C137.723 70.3984 138.691 71.6641 140.629 71.6641C141.566 71.6641 142.336 71.3203 142.938 70.6328C143.547 69.9375 143.852 69.0312 143.852 67.9141V61H145.773V73ZM159.625 73H157.703V66.1562C157.703 63.6094 156.773 62.3359 154.914 62.3359C153.953 62.3359 153.156 62.6992 152.523 63.4258C151.898 64.1445 151.586 65.0547 151.586 66.1562V73H149.664V61H151.586V62.9922H151.633C152.539 61.4766 153.852 60.7188 155.57 60.7188C156.883 60.7188 157.887 61.1445 158.582 61.9961C159.277 62.8398 159.625 64.0625 159.625 65.6641V73ZM172.902 67.4805H164.43C164.461 68.8164 164.82 69.8477 165.508 70.5742C166.195 71.3008 167.141 71.6641 168.344 71.6641C169.695 71.6641 170.938 71.2188 172.07 70.3281V72.1328C171.016 72.8984 169.621 73.2812 167.887 73.2812C166.191 73.2812 164.859 72.7383 163.891 71.6523C162.922 70.5586 162.438 69.0234 162.438 67.0469C162.438 65.1797 162.965 63.6602 164.02 62.4883C165.082 61.3086 166.398 60.7188 167.969 60.7188C169.539 60.7188 170.754 61.2266 171.613 62.2422C172.473 63.2578 172.902 64.668 172.902 66.4727V67.4805ZM170.934 65.8516C170.926 64.7422 170.656 63.8789 170.125 63.2617C169.602 62.6445 168.871 62.3359 167.934 62.3359C167.027 62.3359 166.258 62.6602 165.625 63.3086C164.992 63.957 164.602 64.8047 164.453 65.8516H170.934Z" fill="white"/>
</svg>
