<svg width="240" height="100" viewBox="0 0 240 100" fill="none" xmlns="http://www.w3.org/2000/svg">
<path d="M189.391 21.265H191.708C195.939 21.4468 200.135 22.5535 203.873 24.5509C207.163 26.2981 210.111 28.6912 212.48 31.5675C215.054 34.6663 216.951 38.3222 218.007 42.209C219.343 47.1245 219.331 52.3993 217.97 57.3084C216.04 64.3838 211.224 70.6006 204.882 74.2746C201.346 76.3458 197.353 77.629 193.273 78.0086C192.642 78.0738 192.007 78.0866 191.378 78.1508H189.526C189.133 78.0941 188.738 78.077 188.346 78.0513C183.948 77.7241 179.633 76.3426 175.863 74.0565C169.833 70.4381 165.236 64.5078 163.268 57.7542C161.727 52.5255 161.728 46.8518 163.271 41.6241C164.306 38.1094 166.034 34.8021 168.326 31.9429C170.824 28.8141 173.988 26.2158 177.552 24.3873C181.207 22.4936 185.282 21.4457 189.391 21.265ZM174.373 32.6454C173.937 32.794 173.625 33.211 173.599 33.6708C173.514 34.5198 173.582 35.3774 173.56 36.2296C173.611 38.6922 173.577 41.1569 173.586 43.6194C173.586 49.9955 173.586 56.3706 173.586 62.7467C173.604 63.7144 173.54 64.6864 173.644 65.652C173.673 65.9856 173.828 66.3352 174.155 66.4732C174.718 66.7116 175.349 66.6025 175.943 66.6293C177.084 66.6817 178.227 66.6442 179.369 66.6581C179.867 66.6934 180.448 66.6207 180.763 66.1834C181.1 65.6402 181.001 64.9676 181.019 64.3592C180.972 62.7563 180.995 61.1535 180.991 59.5506C180.991 53.7744 180.99 47.997 180.992 42.2208C180.93 39.4022 180.986 36.5814 180.958 33.7617C180.954 33.2292 180.623 32.6101 180.027 32.6037C178.841 32.5908 177.655 32.6037 176.47 32.5994C175.772 32.6261 175.063 32.5406 174.373 32.6454ZM198.553 41.452C197.226 41.6359 195.897 42.0219 194.782 42.7854C194.197 43.1831 193.733 43.7231 193.21 44.1925C193.013 44.3872 192.659 44.3978 192.487 44.168C192.086 43.706 192.091 43.0591 191.931 42.5009C191.743 42.0743 191.212 41.9984 190.803 41.962C189.733 41.946 188.662 41.9588 187.593 41.9567C187.157 41.9791 186.688 41.9577 186.296 42.1759C185.957 42.3844 185.821 42.8057 185.83 43.1864C185.829 44.2567 185.83 45.3281 185.83 46.3985C185.782 52.2785 185.81 58.1606 185.802 64.0416C185.792 64.6693 185.699 65.3226 185.905 65.931C186.022 66.2914 186.357 66.5694 186.741 66.5908C187.521 66.6678 188.308 66.6122 189.092 66.6293C189.931 66.6132 190.779 66.6785 191.611 66.548C192.168 66.4379 192.491 65.8562 192.484 65.3205C192.489 63.0728 192.484 60.8252 192.486 58.5776C192.498 55.8883 192.398 53.182 192.808 50.5131C193.04 49.3508 193.665 48.2526 194.6 47.5137C195.395 46.8786 196.413 46.5674 197.424 46.5364C198.541 46.5001 199.735 46.7364 200.598 47.4923C201.376 48.1521 201.805 49.1358 201.976 50.126C202.127 51.1204 202.149 52.1288 202.188 53.1328C202.194 56.1257 202.185 59.1176 202.192 62.1094C202.249 63.2471 202.193 64.387 202.225 65.5258C202.225 66.0594 202.635 66.5694 203.187 66.5876C204.685 66.6528 206.187 66.6592 207.686 66.6111C208.053 66.6164 208.466 66.5191 208.666 66.1791C208.954 65.6947 208.813 65.1066 208.846 64.5741C208.89 59.7976 208.867 55.0201 208.873 50.2436C208.847 48.7573 208.609 47.2635 208.078 45.8713C207.461 44.2214 206.139 42.8795 204.547 42.1481C202.677 41.3205 200.561 41.1996 198.553 41.452Z" fill="white"/>
<path d="M214.585 23.0464C216.093 22.6283 217.804 23.5233 218.325 24.9957C218.89 26.4114 218.249 28.1682 216.901 28.8793C215.842 29.4845 214.431 29.3894 213.466 28.6441C212.641 28.0314 212.142 27.0006 212.211 25.9709C212.234 24.6107 213.265 23.3575 214.585 23.0464ZM214.684 23.5714C213.716 23.828 212.936 24.677 212.771 25.6651C212.602 26.5665 212.969 27.5384 213.673 28.1233C214.144 28.5307 214.767 28.7478 215.39 28.7499C216.217 28.736 217.032 28.3147 217.508 27.6347C218.036 26.9129 218.142 25.9067 217.785 25.0887C217.309 23.9114 215.907 23.2121 214.684 23.5714Z" fill="white"/>
<path d="M214.355 24.5583C214.807 24.5049 215.265 24.5263 215.722 24.5273C216.033 24.5241 216.373 24.6289 216.558 24.8973C216.758 25.2298 216.752 25.6961 216.499 26.0008C216.35 26.1655 216.133 26.2403 215.945 26.343C216.126 26.7878 216.473 27.1385 216.666 27.5769C216.601 27.7854 216.321 27.7298 216.193 27.6315C215.88 27.2433 215.68 26.775 215.356 26.3954C215.208 26.2949 215.027 26.3729 214.872 26.3847C214.855 26.8156 214.877 27.2487 214.827 27.6785C214.669 27.686 214.515 27.6881 214.365 27.6838C214.334 26.6424 214.359 25.5998 214.355 24.5583ZM214.86 24.9935C214.837 25.2865 214.831 25.5816 214.873 25.8736C215.215 25.9238 215.584 25.9709 215.916 25.8393C216.249 25.7121 216.263 25.1603 215.929 25.0235C215.588 24.9005 215.203 24.8813 214.86 24.9935Z" fill="white"/>
<path d="M22.6029 32.2219C24.1084 32.2497 25.6139 32.1556 27.1195 32.2122C27.4061 32.2336 27.7215 32.1994 27.9739 32.3619C28.3267 32.5972 28.4401 33.0516 28.4326 33.4537C28.4294 40.0469 28.4326 46.6401 28.4315 53.2332C28.4358 54.6939 28.4101 56.1556 28.4764 57.6152C28.5117 58.2161 28.4187 58.8438 28.6218 59.4244C28.8282 59.897 29.3907 60.0585 29.8654 60.0734C30.7604 60.0905 31.6575 60.0841 32.5525 60.0542C35.1519 60.0521 37.7503 60.0553 40.3497 60.0521C40.8298 60.0627 41.3206 60.1034 41.774 60.2702C42.1664 60.4167 42.2926 60.8765 42.2798 61.2571C42.2819 62.5403 42.2637 63.8245 42.3076 65.1076C42.3717 65.7748 41.7462 66.3437 41.0993 66.3298C39.4975 66.3341 37.8936 66.3544 36.2918 66.3073C33.1898 66.3073 30.0889 66.3106 26.9869 66.3063C25.3146 66.2368 23.6401 66.3309 21.9677 66.2507C21.4598 66.2539 21.0674 65.8123 21 65.3322V33.4344C21.0278 33.0837 21.1005 32.6902 21.4031 32.4678C21.7346 32.1855 22.1965 32.2261 22.6029 32.2219Z" fill="white"/>
<path d="M102.079 32.2102C103.53 32.1792 104.984 32.2081 106.436 32.1952C106.922 32.1835 107.449 32.2711 107.819 32.6144C108.156 32.9127 108.229 33.38 108.378 33.7831C110.639 40.4244 112.896 47.0668 115.178 53.7006C115.341 54.0545 115.436 54.5475 115.854 54.6833C116.227 54.6042 116.373 54.2085 116.481 53.8888C118.69 47.2037 120.844 40.5014 123.021 33.8066C123.185 33.4089 123.262 32.9491 123.575 32.6315C123.821 32.3877 124.146 32.1931 124.503 32.1984C127.324 32.1974 130.145 32.1952 132.966 32.1995C133.564 32.2038 134.085 32.748 134.049 33.3501C134.051 43.5061 134.049 53.661 134.05 63.8171C134.051 64.3934 134.052 64.9719 134 65.5461C133.923 66.0326 133.413 66.3213 132.951 66.3064C131.455 66.2914 129.96 66.3534 128.465 66.3342C128.034 66.3299 127.542 66.208 127.3 65.8188C127.088 65.5183 127.127 65.1334 127.125 64.7858C127.15 61.2925 127.091 57.8013 127.1 54.309C127.116 51.3493 127.051 48.3906 127.074 45.4319C127.065 45.0662 127.111 44.6855 126.978 44.3369C126.825 44.1359 126.556 44.3326 126.394 44.4257C125.962 44.9913 125.785 45.6981 125.52 46.3472C123.79 51.1461 122.217 56.0006 120.558 60.8242C120.013 62.4035 119.484 63.9882 118.883 65.5472C118.743 65.9225 118.441 66.3417 117.991 66.3096C116.562 66.3588 115.131 66.3299 113.703 66.331C113.062 66.3256 112.642 65.745 112.446 65.1975C110.15 58.7487 107.886 52.2892 105.592 45.8393C105.404 45.3955 105.257 44.8587 104.818 44.5978C104.583 44.4834 104.37 44.6823 104.342 44.9111C104.252 45.4351 104.314 45.9708 104.297 46.5001C104.316 52.6688 104.251 58.8374 104.273 65.0061C104.3 65.4402 104.156 65.9321 103.753 66.1535C103.42 66.2989 103.051 66.3641 102.69 66.3598C101.585 66.3 100.479 66.3695 99.3753 66.3074C98.8118 66.2775 98.1702 66.4304 97.6858 66.0583C97.2859 65.7236 97.3244 65.1558 97.2955 64.6853C97.2912 54.5956 97.2955 44.5069 97.2934 34.4183C97.2891 33.936 97.2773 33.4484 97.3864 32.9758C97.473 32.5107 97.9681 32.2455 98.4076 32.2284C99.6308 32.2102 100.856 32.2476 102.079 32.2102Z" fill="white"/>
<path d="M79.3401 41.0285C81.1568 40.8585 83.074 40.9526 84.7346 41.7824C85.6189 42.2058 86.3514 42.8698 87.0721 43.521C87.2881 43.7381 87.6602 43.799 87.8965 43.5766C88.2654 43.2216 88.2579 42.6774 88.3723 42.2144C88.5156 41.7225 89.0994 41.6455 89.5357 41.6487C90.8573 41.6305 92.1811 41.6156 93.5027 41.6594C94.0534 41.6412 94.5977 42.0796 94.5848 42.6538C94.6052 45.5035 94.5881 48.3552 94.5934 51.2049C94.649 55.5162 94.6062 59.8286 94.6212 64.14C94.6223 66.2454 94.3186 68.4043 93.3498 70.2969C92.5479 71.9094 91.2294 73.246 89.6501 74.1046C87.626 75.2102 85.3003 75.6198 83.0184 75.7021C80.3848 75.8165 77.6549 75.4679 75.3089 74.1987C73.396 73.1733 71.7664 71.456 71.1922 69.326C71.1002 68.9507 71.0243 68.4727 71.343 68.1808C71.6445 67.8536 72.1171 67.798 72.5384 67.8033C73.6761 67.8119 74.8149 67.7852 75.9516 67.8322C76.5172 67.8247 77.2187 67.7574 77.6015 68.2695C77.9265 68.7892 78.2441 69.3239 78.6943 69.7494C79.5957 70.6829 80.8895 71.1662 82.1737 71.209C83.4985 71.2582 84.8961 71.0144 85.9857 70.2156C86.8871 69.5837 87.503 68.6053 87.8323 67.567C88.0815 66.81 88.1136 66.008 88.1948 65.221C88.2376 64.6864 88.3178 64.1496 88.274 63.6128C88.2568 63.2418 87.8976 62.9082 87.5201 63.0087C86.9887 63.0985 86.7342 63.6374 86.3011 63.9005C84.8319 64.9013 83.0837 65.4926 81.3129 65.6391C79.0589 65.7621 76.7289 65.2403 74.8384 63.9764C73.2933 62.9584 72.1043 61.4539 71.3504 59.773C70.4437 57.7606 70.094 55.5355 70.0726 53.3402C70.0202 50.5515 70.7677 47.7393 72.2828 45.3901C73.1928 44.0097 74.4193 42.8153 75.896 42.055C76.9652 41.4979 78.1446 41.1643 79.3401 41.0285ZM81.2595 46.145C79.5123 46.4893 78.0698 47.8249 77.4272 49.4641C76.6744 51.3364 76.7417 53.4268 77.0743 55.3847C77.3726 56.9662 78.0506 58.5754 79.3711 59.5699C80.7826 60.6295 82.749 60.7814 84.3754 60.158C85.7173 59.6383 86.7545 58.5091 87.3351 57.21C88.059 55.606 88.2622 53.8075 88.1638 52.0646C88.0387 50.1121 87.0796 48.182 85.4457 47.0668C84.2492 46.2145 82.7062 45.8328 81.2595 46.145Z" fill="white"/>
<path d="M146.914 41.0328C149.587 40.7495 152.407 41.1622 154.72 42.5929C157.581 44.3198 159.459 47.3683 160.205 50.5804C160.507 51.8978 160.637 53.2686 160.48 54.6148C160.442 55.0158 160.159 55.3591 159.764 55.4521C158.761 55.7098 157.715 55.5857 156.692 55.6157C152.739 55.605 148.784 55.6403 144.831 55.589C144.344 55.6082 143.82 55.5109 143.369 55.7397C142.961 55.9514 142.708 56.4166 142.74 56.8732C142.814 58.615 143.869 60.2681 145.404 61.0904C146.764 61.8218 148.376 62.0207 149.895 61.8175C151.43 61.609 152.792 60.6969 153.735 59.4897C154.051 59.0502 154.515 58.6364 155.092 58.6621C156.41 58.6685 157.728 58.6546 159.045 58.6685C159.336 58.6642 159.509 58.954 159.555 59.2095C159.692 59.6501 159.497 60.0906 159.327 60.4905C158.422 62.5831 156.82 64.371 154.825 65.4755C152.928 66.5352 150.729 66.9725 148.569 66.9511C146.348 66.9725 144.085 66.5833 142.097 65.5621C140.437 64.7206 139.025 63.4118 138.032 61.841C137.126 60.4103 136.524 58.8011 136.183 57.1469C135.876 55.6146 135.737 54.0353 135.932 52.4795C136.285 49.6053 137.481 46.808 139.457 44.6737C141.372 42.5769 144.1 41.3044 146.914 41.0328ZM147.34 46.052C145.668 46.3129 144.142 47.3715 143.327 48.8568C143.027 49.4213 142.747 50.0875 142.948 50.7323C143.12 51.2413 143.723 51.3354 144.189 51.3557C145.042 51.3749 145.896 51.3738 146.751 51.3386C148.532 51.3375 150.315 51.3375 152.097 51.3386C152.496 51.3289 152.973 51.3054 153.239 50.96C153.514 50.6189 153.465 50.1378 153.328 49.7507C152.839 48.3756 151.923 47.0753 150.577 46.4327C149.582 45.9312 148.423 45.8735 147.34 46.052Z" fill="white"/>
<path d="M53.1427 41.1291C55.971 40.8104 58.9543 41.0382 61.5366 42.3192C63.7874 43.4013 65.6052 45.2875 66.7344 47.5031C67.5791 49.1433 68.1031 50.9547 68.2292 52.7971C68.3009 54.6779 68.1715 56.5855 67.6433 58.4001C67.0969 60.297 66.1088 62.0816 64.6995 63.4728C63.0732 65.1131 60.9282 66.1823 58.6827 66.6753C56.3121 67.1896 53.8153 67.1522 51.4672 66.5373C48.9266 65.8744 46.6244 64.3239 45.0846 62.1918C43.3406 59.8843 42.5333 56.9598 42.5483 54.0898C42.5536 51.7224 43.0733 49.3422 44.1683 47.2379C45.1787 45.2533 46.7666 43.5446 48.7373 42.4913C50.0974 41.7525 51.6105 41.3194 53.1427 41.1291ZM54.6355 46.1643C53.1021 46.3664 51.6607 47.1994 50.7657 48.4665C49.6269 50.0597 49.303 52.0732 49.2805 53.9904C49.2837 55.9354 49.6323 57.9703 50.7732 59.5891C51.7056 60.9418 53.2529 61.8753 54.9049 61.9576C56.5377 62.0325 58.2486 61.501 59.4098 60.3173C60.555 59.201 61.1121 57.6206 61.3377 56.068C61.5794 54.2641 61.528 52.3961 61.0062 50.6435C60.539 49.0792 59.6033 47.58 58.1598 46.7524C57.1066 46.1237 55.832 45.9804 54.6355 46.1643Z" fill="white"/>
</svg>
