<svg width="240" height="100" viewBox="0 0 240 100" fill="none" xmlns="http://www.w3.org/2000/svg">
<path d="M48.0999 21.9001H93.0999V30.2001H48.0999V21.9001ZM44.8999 33.4001H96.2999V18.6001H44.8999V33.4001Z" fill="white"/>
<path d="M48.0999 57.8H44.8999V43H48.0999V48.8H53.7999V43H56.9999V57.8H53.7999V51.7H48.0999V57.8ZM64.3999 58C61.0999 58 58.8999 55.9 58.8999 52.6C58.8999 49.3 61.0999 47.1 63.9999 47.1C67.0999 47.1 68.6999 49.2 68.6999 52.3V53.5H61.9999C62.3999 55.1 63.6999 55.6 64.8999 55.6C65.9999 55.6 66.7999 55.4 67.7999 54.8H67.8999V57.2C67.0999 57.7 65.7999 58 64.3999 58ZM61.9999 51.3H65.7999C65.6999 50.2 65.2999 49.5 63.9999 49.5C63.0999 49.5 62.1999 49.9 61.9999 51.3ZM76.9999 51.6L75.2999 57.8H72.4999L69.2999 47.4V47.3H72.3999L74.0999 53.5L75.7999 47.3H78.2999L79.9999 53.5L81.7999 47.3H84.7999V47.4L81.5999 57.8H78.7999L76.9999 51.6ZM89.9999 58C87.4999 58 86.3999 57 86.3999 54.6V43H89.4999V54.4C89.4999 55.1 89.7999 55.4 90.3999 55.4C90.5999 55.4 90.8999 55.3 91.0999 55.3V57.9C90.8999 57.9 90.3999 58 89.9999 58ZM97.4999 58C94.1999 58 91.9999 56 91.9999 52.6C91.9999 49.3 94.1999 47.1 97.0999 47.1C100.2 47.1 101.8 49.2 101.8 52.3V53.5H95.0999C95.4999 55.1 96.7999 55.6 97.9999 55.6C99.0999 55.6 99.8999 55.4 100.9 54.8H101V57.2C100.2 57.7 98.9999 58 97.4999 58ZM95.0999 51.3H98.8999C98.7999 50.2 98.3999 49.5 97.0999 49.5C96.1999 49.5 95.2999 49.9 95.0999 51.3ZM114.6 47.3H116.9V49.8H114.6V54.1C114.6 55 115 55.4 115.9 55.4C116.2 55.4 116.5 55.4 116.8 55.3H116.9V57.8C116.5 57.9 115.9 58.1 115 58.1C112.5 58.1 111.5 56.9 111.5 54.3V49.9H107.5V54.2C107.5 55.1 107.9 55.5 108.8 55.5C109.1 55.5 109.4 55.5 109.7 55.4H109.8V57.9C109.4 58 108.8 58.2 107.9 58.2C105.4 58.2 104.4 57 104.4 54.4V50H102.8V47.5H104.4V44.6H107.5V47.5H111.5V44.6H114.6V47.3ZM133 48C133 51.2 130.9 53 127.6 53H125.3V57.8H122.1V43H127.6C130.9 43 133 44.8 133 48ZM127.4 50.3C129 50.3 129.8 49.4 129.8 48.1C129.8 46.7 129 45.8 127.4 45.8H125.4V50.3H127.4ZM140 56.8C139.3 57.6 138.3 58 137.2 58C135.1 58 133.5 56.8 133.5 54.5C133.5 52.5 135.2 51.1 137.6 51.1C138.4 51.1 139.1 51.2 139.9 51.5V51.3C139.9 50.2 139.3 49.7 137.6 49.7C136.5 49.7 135.5 50 134.6 50.5H134.5V48C135.3 47.5 136.7 47.1 138.1 47.1C141.3 47.1 143 48.6 143 51.3V57.9H140V56.8ZM139.9 54.5V53.6C139.4 53.3 138.8 53.2 138.2 53.2C137.2 53.2 136.6 53.6 136.6 54.4C136.6 55.3 137.2 55.7 138.1 55.7C138.9 55.7 139.6 55.3 139.9 54.5ZM144.6 52.5C144.6 49.1 147 47 150.1 47C151.2 47 152.2 47.2 153 47.8V50.5H152.9C152.2 50 151.4 49.7 150.5 49.7C148.9 49.7 147.8 50.8 147.8 52.6C147.8 54.4 149 55.4 150.5 55.4C151.4 55.4 152.2 55.1 152.9 54.6H153V57.3C152.2 57.9 151.2 58.1 150.1 58.1C147 58 144.6 55.9 144.6 52.5ZM158.1 53V57.8H155V43H158.1V51.4L161.2 47.2H164.7V47.3L160.9 52.1L164.7 57.6V57.7H161.1L158.1 53ZM171.9 56.8C171.2 57.6 170.2 58 169.1 58C167 58 165.4 56.8 165.4 54.5C165.4 52.5 167.1 51.1 169.5 51.1C170.3 51.1 171 51.2 171.8 51.5V51.3C171.8 50.2 171.2 49.7 169.5 49.7C168.4 49.7 167.4 50 166.6 50.5H166.5V48C167.3 47.5 168.7 47.1 170.1 47.1C173.3 47.1 175 48.6 175 51.3V57.9H172V56.8H171.9ZM171.8 54.5V53.6C171.3 53.3 170.7 53.2 170.1 53.2C169.1 53.2 168.5 53.6 168.5 54.4C168.5 55.3 169.1 55.7 170 55.7C170.8 55.7 171.5 55.3 171.8 54.5ZM180.1 49C180.7 47.8 181.5 47.2 182.6 47.2C183 47.2 183.4 47.3 183.6 47.4V50.4H183.5C183.2 50.3 182.7 50.2 182.1 50.2C181.1 50.2 180.4 50.8 180.1 51.9V57.9H177V47.3H180V49H180.1ZM192.1 56.7C191.4 57.5 190.4 58 189 58C186.3 58 184.6 55.5 184.6 52.5C184.6 49.5 186.3 47 189 47C190.4 47 191.4 47.4 192 48.2V43H195.1V57.8H192.1V56.7ZM192 54.2V50.8C191.5 50 190.8 49.7 190 49.7C188.6 49.7 187.7 50.7 187.7 52.5C187.7 54.3 188.6 55.3 190 55.3C190.8 55.3 191.4 55 192 54.2ZM44.8999 62.6H53.9999V64.4H46.9999V68.9H53.3999V70.6H46.9999V75.5H53.9999V77.3H44.8999V62.6ZM61.5999 66.8C63.8999 66.8 65.1999 68.3 65.1999 70.9V77.4H63.1999V70.9C63.1999 69.6 62.4999 68.6 60.9999 68.6C59.7999 68.6 58.6999 69.4 58.3999 70.5V77.4H56.3999V67H58.3999V68.5C59.0999 67.5 60.0999 66.8 61.5999 66.8ZM70.4999 67H73.1999V68.7H70.4999V74.3C70.4999 75.5 71.0999 75.9 72.1999 75.9C72.4999 75.9 72.7999 75.9 73.0999 75.8H73.1999V77.5C72.8999 77.6 72.4999 77.7 71.9999 77.7C69.5999 77.7 68.5999 76.6 68.5999 74.6V68.8H66.7999V67H68.5999V64.2H70.5999V67H70.4999ZM79.4999 77.6C76.4999 77.6 74.3999 75.6 74.3999 72.3C74.3999 69 76.2999 66.8 79.0999 66.8C81.9999 66.8 83.3999 68.9 83.3999 71.9V72.8H76.2999C76.4999 74.9 77.8999 75.9 79.6999 75.9C80.8999 75.9 81.6999 75.6 82.5999 75H82.6999V76.7C81.8999 77.3 80.7999 77.6 79.4999 77.6ZM76.3999 71.2H81.5999C81.4999 69.7 80.7999 68.5 79.1999 68.5C77.6999 68.4 76.6999 69.6 76.3999 71.2ZM87.7999 68.6C88.2999 67.5 89.1999 66.8 90.3999 66.8C90.8999 66.8 91.2999 66.9 91.3999 67V68.9H91.2999C90.9999 68.8 90.4999 68.7 90.0999 68.7C88.9999 68.7 88.0999 69.4 87.7999 70.6V77.4H85.7999V67H87.7999V68.6ZM97.9999 66.8C101.1 66.8 102.7 69.3 102.7 72.2C102.7 75.1 101 77.6 97.9999 77.6C96.6999 77.6 95.5999 76.9 95.0999 76.2V81.3H93.0999V67H95.0999V68.2C95.5999 67.4 96.6999 66.8 97.9999 66.8ZM97.6999 75.8C99.5999 75.8 100.8 74.3 100.8 72.2C100.8 70.1 99.6999 68.6 97.6999 68.6C96.5999 68.6 95.5999 69.2 95.0999 70.3V74.3C95.5999 75.2 96.5999 75.8 97.6999 75.8ZM107 68.6C107.4 67.5 108.4 66.8 109.6 66.8C110.1 66.8 110.4 66.9 110.6 67V68.9H110.5C110.2 68.8 109.7 68.7 109.3 68.7C108.2 68.7 107.3 69.4 107 70.6V77.4H105V67H107V68.6ZM113.4 62.8C114.1 62.8 114.7 63.3 114.7 64C114.7 64.7 114.1 65.2 113.4 65.2C112.7 65.2 112.1 64.7 112.1 64C112.2 63.3 112.8 62.8 113.4 62.8ZM112.5 67H114.5V77.4H112.5V67ZM121.4 71.3C122.9 71.8 124.5 72.4 124.5 74.4C124.5 76.5 122.8 77.6 120.5 77.6C119.1 77.6 117.8 77.3 117 76.7V74.8H117.1C118 75.6 119.3 76 120.5 76C121.6 76 122.6 75.6 122.6 74.7C122.6 73.8 121.8 73.6 120.1 73C118.6 72.5 117 72 117 70C117 68 118.7 66.8 120.8 66.8C122 66.8 123.1 67.1 124 67.6V69.5C123.2 68.8 122.2 68.4 120.9 68.4C119.7 68.4 119 68.9 119 69.7C119 70.5 119.8 70.8 121.4 71.3ZM131.4 77.6C128.4 77.6 126.3 75.6 126.3 72.3C126.3 69 128.2 66.8 131 66.8C133.9 66.8 135.3 68.9 135.3 71.9V72.8H128.2C128.4 74.9 129.8 75.9 131.6 75.9C132.8 75.9 133.6 75.6 134.5 75H134.6V76.7C133.8 77.3 132.7 77.6 131.4 77.6ZM128.3 71.2H133.5C133.4 69.7 132.7 68.5 131.1 68.5C129.6 68.4 128.6 69.6 128.3 71.2Z" fill="white"/>
</svg>
