<svg width="240" height="100" viewBox="0 0 240 100" fill="none" xmlns="http://www.w3.org/2000/svg">
<path d="M146.4 24.8V41.9L142.6 43.3V23.5L130.9 19.4V47.3L127 48.7V18L121.1 16L115.3 18V48.7L111.4 47.3V19.4L99.6999 23.5V43.3L95.7999 41.9V24.8L91.8999 26.2V44.7L103.6 48.8V26.2L107.5 24.9V50.1L119.2 54.2V20.8L121.1 20.1L123.1 20.8V54.2L134.8 50.1V24.9L138.6 26.2V48.8L150.4 44.7V26.2L146.4 24.8Z" fill="white"/>
<path d="M51.7001 76.4H58.7001V74.5H51.7001V70.4H62.1001V68.6H49.6001V82.9H62.5001V81.1H51.7001V76.4Z" fill="white"/>
<path d="M106.5 77.2C106.6 79.4 105 81.3 102.8 81.5C102.6 81.5 102.5 81.5 102.3 81.5C99.9 81.5 98.3 79.8 98.3 77.2V68.6H96.2V77.3C96.1 80.5 98.5 83.2 101.7 83.3C101.9 83.3 102 83.3 102.2 83.3C106.9 83.3 108.5 80.1 108.5 77.3V68.6H106.4L106.5 77.2Z" fill="white"/>
<path d="M122.2 68.6H120.1V82.9H122.2V68.6Z" fill="white"/>
<path d="M146.7 79.8L136.6 68.6H134.5V82.9H136.6V71.6L146.8 82.9H148.8V68.6H146.7V79.8Z" fill="white"/>
<path d="M163.4 68.6H161.3V82.9H163.4V68.6Z" fill="white"/>
<path d="M183.4 75.1L189.4 68.6H186.8L182.1 73.7L177.4 68.6H174.8L180.5 75.1L173.3 82.9H175.9L181.9 76.5L187.5 82.9H190.4L183.4 75.1Z" fill="white"/>
<path d="M78.1001 68C74.0001 68 70.6001 71.3 70.5001 75.4C70.5001 75.5 70.5001 75.6 70.5001 75.8V75.9C70.4001 80 73.6001 83.4 77.7001 83.5C77.8001 83.5 78.0001 83.5 78.1001 83.5C79.3001 83.5 80.4001 83.2 81.4001 82.7L82.6001 84H85.0001L83.0001 81.7C84.8001 80.2 85.8001 78 85.7001 75.7V75.6C85.8001 71.5 82.5001 68.1 78.4001 68C78.4001 68 78.2001 68 78.1001 68ZM83.6001 75.8C83.7001 77.5 83.0001 79.1 81.8001 80.3L80.7001 79H78.3001L80.3001 81.2C79.7001 81.5 79.0001 81.6 78.3001 81.6C75.2001 81.6 72.8001 79.1 72.8001 76C72.8001 75.9 72.8001 75.8 72.8001 75.8V75.7C72.8001 72.3 75.1001 69.8 78.2001 69.8C81.3001 69.8 83.8001 72.3 83.8001 75.4C83.7001 75.5 83.7001 75.6 83.6001 75.8Z" fill="white"/>
</svg>
