<svg width="240" height="100" viewBox="0 0 240 100" fill="none" xmlns="http://www.w3.org/2000/svg">
<path d="M33.1 39.7999C33.2 39.7999 33.4 39.7999 33.5 39.7999C40.4 39.7999 47.3 39.7999 54.1 39.7999C54.2 39.7999 54.4 39.7999 54.6 39.7999C54.6 41.2999 54.6 42.6999 54.6 44.1999C49 44.1999 43.5 44.1999 37.9 44.1999C37.9 45.2999 37.9 46.3999 37.9 47.4999C42.7 47.4999 47.5 47.4999 52.3 47.4999C52.3 48.8999 52.3 50.2999 52.3 51.6999C47.5 51.6999 42.7 51.6999 37.9 51.6999C37.9 54.2999 37.9 56.7999 37.9 59.2999C37.8 59.2999 37.7 59.2999 37.6 59.2999C36.1 59.2999 34.7 59.2999 33.2 59.2999C33.1 59.2999 33.1 59.2999 33 59.2999C33.1 52.7999 33.1 46.2999 33.1 39.7999Z" fill="white"/>
<path d="M74.5 39.6C74.5 41.3 74.5 42.9 74.5 44.6C74.5 44.8 74.4 44.8 74.3 44.8H74.2C71.9 44.8 69.6 44.8 67.2 44.8C66.9 44.8 66.8 44.7 66.8 44.4C66.8 42.8 66.8 41.2 66.8 39.6C69.4 39.6 72 39.6 74.5 39.6Z" fill="white"/>
<path d="M81.6001 39.6C82.1001 39.9 82.6001 40.2 83.0001 40.6C84.0001 41.6 84.5001 43 84.6001 44.4C84.6001 44.7 84.5001 44.8 84.2001 44.8C81.8001 44.8 79.4001 44.8 77.0001 44.8C76.7001 44.8 76.6001 44.7 76.6001 44.4C76.6001 42.9 76.6001 41.4 76.6001 40C76.6001 39.9 76.6001 39.7 76.6001 39.6C78.3001 39.6 80.0001 39.6 81.6001 39.6Z" fill="white"/>
<path d="M64.6 39.6C64.6 41.2 64.6 42.8 64.6 44.4C64.6 44.7 64.5 44.8 64.2 44.8C61.8 44.8 59.4 44.8 57 44.8C56.8 44.8 56.7 44.8 56.7 44.6C56.6 43 57.9 40.5 59.4 39.8C59.6 39.7 59.7 39.7 59.9 39.6C61.5 39.6 63 39.6 64.6 39.6Z" fill="white"/>
<path d="M204.3 60.4C203.7 60.3 203.2 60.1 202.8 59.6C202.2 58.9 202 57.7 202.5 56.9C203 56 204 55.5 205 55.7C205.9 55.8 206.7 56.6 206.9 57.6C206.9 57.7 206.9 57.7 207 57.8C207 58 207 58.1 207 58.3C207 58.4 207 58.5 206.9 58.6C206.7 59.4 206.3 60 205.5 60.3C205.3 60.4 205 60.4 204.7 60.5C204.6 60.4 204.4 60.4 204.3 60.4ZM204.6 56C203.5 56 202.5 56.9 202.5 58C202.5 59.2 203.4 60.2 204.6 60.1C205.7 60.1 206.7 59.2 206.7 58C206.6 56.9 205.7 56 204.6 56Z" fill="white"/>
<path d="M108.4 50.7C109.3 51.1 109.7 51.8999 109.7 52.7999C109.7 54.8999 109.7 56.9999 109.7 59.0999C109.7 59.0999 109.7 59.1999 109.7 59.2999C108.2 59.2999 106.7 59.2999 105.1 59.2999C105.1 59.1999 105.1 59.1 105.1 58.9C105.1 56.9 105.1 54.8999 105.1 52.7999C105.1 51.9999 104.8 51.6999 104 51.5999C103.7 51.5999 103.3 51.5999 103 51.5999C99.8 51.5999 96.6 51.5999 93.4 51.5999C93.3 51.5999 93.1 51.5999 93 51.5999C93 54.1999 93 56.7 93 59.2C91.4 59.2 89.8 59.2 88.2 59.2C88.2 52.7 88.2 46.2 88.2 39.7C88.3 39.7 88.5 39.7 88.6 39.7C93.5 39.7 98.4 39.7 103.4 39.7C104.4 39.7 105.5 39.7999 106.5 40.0999C108.4 40.5999 109.6 41.7999 109.9 43.7999C110.1 45.0999 110.1 46.4999 110 47.7999C110 48.7999 109.4 49.7 108.7 50.4C108.6 50.5 108.5 50.6 108.4 50.7ZM93 47.4C93.1 47.4 93.2 47.4 93.3 47.4C96.6 47.4 99.8 47.4 103.1 47.4C103.5 47.4 104 47.3999 104.4 47.2999C104.9 47.1999 105.2 46.9 105.3 46.4C105.3 46 105.3 45.4999 105.3 45.0999C105.3 44.5999 105 44.3 104.5 44.2C104.2 44.2 104 44.0999 103.7 44.0999C100.3 44.0999 96.8 44.0999 93.4 44.0999C93.3 44.0999 93.2 44.0999 93 44.0999C93 45.2999 93 46.3 93 47.4Z" fill="white"/>
<path d="M166.2 59.2999C166.2 52.7999 166.2 46.2999 166.2 39.7999C172.6 39.7999 179 39.7999 185.4 39.7999C185.4 41.1999 185.4 42.6999 185.4 44.0999C180.6 44.0999 175.8 44.0999 171 44.0999C171 45.1999 171 46.2999 171 47.3999C174.3 47.3999 177.7 47.3999 181 47.3999C181 48.7999 181 50.1999 181 51.5999C177.7 51.5999 174.3 51.5999 171 51.5999C171 52.6999 171 53.7999 171 54.8999C175.8 54.8999 180.6 54.8999 185.5 54.8999C185.5 56.3999 185.5 57.7999 185.5 59.1999C179 59.2999 172.6 59.2999 166.2 59.2999Z" fill="white"/>
<path d="M145.8 44.0999C145.8 49.1999 145.8 54.1999 145.8 59.2999C144.2 59.2999 142.6 59.2999 141 59.2999C141 52.7999 141 46.2999 141 39.7999C141.1 39.7999 141.2 39.7999 141.4 39.7999C146.4 39.7999 151.4 39.7999 156.4 39.7999C157.6 39.7999 158.7 39.9999 159.7 40.5999C161.4 41.3999 162.2 42.8999 162.6 44.5999C162.8 45.3999 162.8 46.1999 162.8 46.9999C162.8 50.9999 162.8 54.9999 162.8 58.9999C162.8 59.0999 162.8 59.1999 162.8 59.2999C161.2 59.2999 159.6 59.2999 158 59.2999C158 59.0999 158 58.9999 158 58.7999C158 54.6999 158 50.4999 158 46.2999C158 45.8999 157.9 45.4999 157.9 45.0999C157.8 44.4999 157.3 44.2999 156.8 44.0999C156.7 44.0999 156.6 44.0999 156.4 44.0999C153 44.0999 149.6 44.0999 146.1 44.0999C146.1 44.0999 146 44.0999 145.8 44.0999Z" fill="white"/>
<path d="M116.9 44.0999C115.4 44.0999 113.9 44.0999 112.4 44.0999C112.4 42.5999 112.4 41.1999 112.4 39.7999C118.4 39.7999 124.3 39.7999 130.3 39.7999C130.3 41.1999 130.3 42.6999 130.3 44.0999C127.4 44.0999 124.6 44.0999 121.7 44.0999C121.7 49.1999 121.7 54.1999 121.7 59.2999C120.1 59.2999 118.5 59.2999 116.9 59.2999C116.9 54.1999 116.9 49.1999 116.9 44.0999Z" fill="white"/>
<path d="M187.7 44.2C187.7 42.7 187.7 41.3 187.7 39.9C193.7 39.9 199.6 39.9 205.6 39.9C205.6 41.3 205.6 42.8 205.6 44.2C202.7 44.2 199.9 44.2 197 44.2C197 49.3 197 54.3 197 59.3C195.4 59.3 193.8 59.3 192.2 59.3C192.2 54.3 192.2 49.2 192.2 44.2C190.7 44.2 189.3 44.2 187.7 44.2Z" fill="white"/>
<path d="M137.4 59.2999C135.8 59.2999 134.3 59.2999 132.7 59.2999C132.7 52.7999 132.7 46.2999 132.7 39.7999C134.3 39.7999 135.8 39.7999 137.4 39.7999C137.4 46.2999 137.4 52.7999 137.4 59.2999Z" fill="white"/>
<path d="M80.7 52.1C79.5 52.1 78.3 52.1 77.1 52.1C76.8 52.1 76.7 52 76.7 51.7C76.7 50.2 76.7 48.7 76.7 47.2C76.7 47 76.8 46.9 77 46.9C79.4 46.9 81.9 46.9 84.3 46.9C84.5 46.9 84.6 47 84.6 47.2C84.6 48.7 84.6 50.3 84.6 51.8C84.6 52 84.5 52.1 84.3 52.1C83.1 52.1 81.9 52.1 80.7 52.1Z" fill="white"/>
<path d="M64.5999 46.9C64.5999 48.6 64.5999 50.3 64.5999 52.1C64.4999 52.1 64.4 52.1 64.3 52.1C61.9 52.1 59.4999 52.1 57.0999 52.1C56.7999 52.1 56.7 52 56.7 51.7C56.7 50.2 56.7 48.7 56.7 47.2C56.7 46.9 56.8 46.9 57 46.9C59.4 46.9 61.8 46.9 64.3 46.9C64.4 46.9 64.4999 46.9 64.5999 46.9Z" fill="white"/>
<path d="M66.8 59.5C66.8 57.8 66.8 56.1 66.8 54.4C66.9 54.4 67 54.4 67.2 54.4C69.5 54.4 71.9 54.4 74.2 54.4C74.5 54.4 74.6 54.5 74.6 54.8C74.6 56.3 74.6 57.8 74.6 59.2C74.6 59.4 74.6 59.6 74.3 59.6C71.9 59.6 69.5 59.6 67 59.6C67 59.5 66.9 59.5 66.8 59.5Z" fill="white"/>
<path d="M76.7 59.5C76.7 57.8 76.7 56.1 76.7 54.4C76.8 54.4 76.9 54.4 77 54.4C79.4 54.4 81.8 54.4 84.2 54.4C84.5 54.4 84.6 54.5 84.6 54.8C84.4 56.7 83.8 58.3 82.1 59.3C81.8 59.5 81.5 59.6 81.1 59.6C79.7 59.6 78.3 59.6 77 59.6C77 59.5 76.9 59.5 76.7 59.5Z" fill="white"/>
<path d="M64.6001 54.2999C64.6001 55.9999 64.6001 57.6999 64.6001 59.3999C64.5001 59.3999 64.4001 59.3999 64.2001 59.3999C62.9001 59.3999 61.7001 59.3999 60.4001 59.3999C59.5001 59.3999 58.9001 59.0999 58.3001 58.4999C57.4001 57.5999 56.9001 56.3999 56.7001 55.1999C56.7001 54.8999 56.6001 54.5999 56.6001 54.2999C59.4001 54.2999 62.0001 54.2999 64.6001 54.2999Z" fill="white"/>
<path d="M204 58.2C204 58.6 204 58.8999 204 59.2999C203.9 59.2999 203.8 59.2999 203.7 59.2999C203.7 58.3999 203.7 57.6 203.7 56.7C204.2 56.7 204.6 56.7 205 56.7C205.3 56.7 205.5 56.7999 205.6 57.0999C205.7 57.3999 205.7 57.7 205.5 57.9C205.5 57.9 205.4 58 205.5 58C205.6 58.4 205.7 58.8999 205.8 59.2999C205.5 59.3999 205.4 59.3 205.4 59C205.3 58.3 205.5 58.2 204.5 58.2C204.3 58.2 204.1 58.2 204 58.2ZM204 57.9C204.3 57.9 204.6 57.9 204.9 57.9C205.2 57.9 205.3 57.7 205.3 57.5C205.3 57.3 205.2 57.0999 205 57.0999C204.7 57.0999 204.3 57.0999 204 57.0999C204 57.2999 204 57.6 204 57.9Z" fill="white"/>
</svg>
